<svg width="212" height="227" viewBox="0 0 212 227" fill="none" xmlns="http://www.w3.org/2000/svg">
<rect x="44" y="2" width="123.707" height="222.672" rx="24" stroke="#404963" stroke-width="4"/>
<path fill-rule="evenodd" clip-rule="evenodd" d="M62 149C58.6863 149 56 151.686 56 155V168C56 171.314 58.6863 174 62 174H150C153.314 174 156 171.314 156 168V155C156 151.686 153.314 149 150 149H62ZM64 160C64 158.343 65.3431 157 67 157H71C72.6569 157 74 158.343 74 160V164C74 165.657 72.6569 167 71 167H67C65.3431 167 64 165.657 64 164V160ZM79 162C79 160.895 79.8954 160 81 160H146C147.105 160 148 160.895 148 162C148 163.105 147.105 164 146 164H81C79.8954 164 79 163.105 79 162Z" fill="#404963"/>
<path fill-rule="evenodd" clip-rule="evenodd" d="M62 116C58.6863 116 56 118.686 56 122V135C56 138.314 58.6863 141 62 141H150C153.314 141 156 138.314 156 135V122C156 118.686 153.314 116 150 116H62ZM64 127C64 125.343 65.3431 124 67 124H71C72.6569 124 74 125.343 74 127V131C74 132.657 72.6569 134 71 134H67C65.3431 134 64 132.657 64 131V127ZM79 129C79 127.895 79.8954 127 81 127H146C147.105 127 148 127.895 148 129C148 130.105 147.105 131 146 131H81C79.8954 131 79 130.105 79 129Z" fill="#404963"/>
<path fill-rule="evenodd" clip-rule="evenodd" d="M62 83C58.6863 83 56 85.6863 56 89V102C56 105.314 58.6863 108 62 108H150C153.314 108 156 105.314 156 102V89C156 85.6863 153.314 83 150 83H62ZM64 94C64 92.3431 65.3431 91 67 91H71C72.6569 91 74 92.3431 74 94V98C74 99.6569 72.6569 101 71 101H67C65.3431 101 64 99.6569 64 98V94ZM79 96C79 94.8954 79.8954 94 81 94H146C147.105 94 148 94.8954 148 96C148 97.1046 147.105 98 146 98H81C79.8954 98 79 97.1046 79 96Z" fill="#C9D0E7"/>
<line x1="58" y1="70" x2="90" y2="70" stroke="#404963" stroke-width="4" stroke-linecap="round"/>
<rect x="114" y="66" width="28" height="8" rx="4" fill="#404963"/>
<circle cx="151" cy="70" r="4" fill="#404963"/>
<path d="M212 111.001C212 98.2355 206.546 86.7441 198.021 81.4141C197.418 81.0375 196.69 80.9112 195.994 81.0622C195.299 81.2133 194.69 81.6297 194.299 82.2222C194.109 82.5148 193.979 82.8422 193.918 83.1852C193.857 83.5282 193.864 83.88 193.941 84.22C194.018 84.56 194.162 84.8814 194.364 85.1653C194.567 85.4493 194.825 85.6902 195.122 85.8739C201.965 90.155 206.604 99.9293 206.604 111.001C206.604 122.069 201.965 131.843 195.122 136.124C194.825 136.308 194.567 136.549 194.364 136.833C194.162 137.117 194.018 137.438 193.941 137.778C193.864 138.118 193.857 138.47 193.918 138.813C193.979 139.156 194.109 139.483 194.299 139.776C194.69 140.37 195.299 140.787 195.996 140.938C196.693 141.089 197.421 140.962 198.025 140.584C206.546 135.254 212 123.763 212 111.001Z" fill="#404963"/>
<path d="M197.615 111.001C197.615 103.037 194.35 95.7608 189.044 91.8488C188.47 91.4285 187.754 91.2481 187.048 91.3461C186.343 91.444 185.703 91.8126 185.267 92.3733C185.054 92.6501 184.898 92.9665 184.81 93.3039C184.721 93.6414 184.701 93.9931 184.751 94.3383C184.801 94.6835 184.919 95.0154 185.1 95.3144C185.28 95.6134 185.519 95.8735 185.801 96.0794C189.668 98.927 192.219 104.614 192.219 111.001C192.219 117.726 189.387 123.654 185.22 126.319C184.925 126.506 184.67 126.75 184.47 127.037C184.27 127.323 184.13 127.646 184.057 127.988C183.985 128.329 183.981 128.681 184.047 129.023C184.112 129.366 184.246 129.692 184.44 129.982C184.837 130.572 185.451 130.982 186.149 131.126C186.847 131.27 187.574 131.136 188.174 130.752C193.967 127.038 197.615 119.412 197.615 111.001Z" fill="#404963"/>
<path d="M0 111.001C0 98.2355 5.4543 86.7441 13.9791 81.4141C14.5824 81.0375 15.3099 80.9112 16.0056 81.0622C16.7013 81.2133 17.31 81.6297 17.7011 82.2222C17.8911 82.5148 18.0206 82.8422 18.082 83.1852C18.1435 83.5282 18.1357 83.88 18.059 84.22C17.9824 84.56 17.8384 84.8814 17.6357 85.1653C17.4329 85.4493 17.1753 85.6902 16.8779 85.8739C10.0347 90.155 5.39577 99.9293 5.39577 111.001C5.39577 122.069 10.0347 131.843 16.8779 136.124C17.1753 136.308 17.4329 136.549 17.6357 136.833C17.8384 137.117 17.9824 137.438 18.059 137.778C18.1357 138.118 18.1435 138.47 18.082 138.813C18.0206 139.156 17.8911 139.483 17.7011 139.776C17.3099 140.37 16.7006 140.787 16.0039 140.938C15.3072 141.089 14.5788 140.962 13.9752 140.584C5.4543 135.254 0 123.763 0 111.001Z" fill="#404963"/>
<path d="M14.3848 111.001C14.3848 103.037 17.6504 95.7608 22.9564 91.8488C23.5303 91.4285 24.2464 91.2481 24.9519 91.3461C25.6575 91.444 26.2966 91.8126 26.7331 92.3733C26.9462 92.6501 27.1016 92.9665 27.1902 93.3039C27.2787 93.6414 27.2987 93.9931 27.2489 94.3383C27.1991 94.6835 27.0806 95.0154 26.9002 95.3144C26.7198 95.6134 26.4813 95.8735 26.1986 96.0794C22.3322 98.927 19.7806 104.614 19.7806 111.001C19.7806 117.726 22.6131 123.654 26.7799 126.319C27.0754 126.506 27.3305 126.75 27.5301 127.037C27.7298 127.323 27.87 127.646 27.9427 127.988C28.0154 128.329 28.019 128.681 27.9533 129.023C27.8876 129.366 27.754 129.692 27.5602 129.982C27.1628 130.572 26.5492 130.982 25.8511 131.126C25.153 131.27 24.4261 131.136 23.8265 130.752C18.0327 127.038 14.3848 119.412 14.3848 111.001Z" fill="#404963"/>
</svg>
