<svg width="10" height="14" viewBox="0 0 10 14" fill="none" xmlns="http://www.w3.org/2000/svg">
<path d="M9.97119 6.19815C9.91786 6.07749 9.79854 6.00016 9.66654 6.00016H6.66654V1.00016C6.66654 0.862156 6.58189 0.738159 6.45255 0.688826C6.32255 0.638826 6.17787 0.674818 6.0852 0.776818L0.0852016 7.44349C-0.00279838 7.54149 -0.025439 7.68149 0.028561 7.80216C0.0818943 7.92283 0.201208 8.00016 0.333208 8.00016H3.33321V13.0002C3.33321 13.1382 3.41786 13.2622 3.5472 13.3115C3.58653 13.3262 3.62654 13.3335 3.66654 13.3335C3.75921 13.3335 3.84988 13.2948 3.91455 13.2228L9.91455 6.55616C10.0025 6.45882 10.0245 6.31815 9.97119 6.19815Z" fill="url(#paint0_linear_1816_1801)"/>
<defs>
<linearGradient id="paint0_linear_1816_1801" x1="-10.1808" y1="-12.0005" x2="10.6572" y2="-11.6015" gradientUnits="userSpaceOnUse">
<stop stop-color="#4673FA"/>
<stop offset="1" stop-color="#9646FA"/>
</linearGradient>
</defs>
</svg>
