<svg width="16" height="16" viewBox="0 0 16 16" xmlns="http://www.w3.org/2000/svg">
<path d="M8.41667 15.5H7.58333C6.75 15.5 6.33333 15.0833 6.33333 14.25V1.75C6.33333 0.916667 6.75 0.5 7.58333 0.5H8.41667C9.25 0.5 9.66667 0.916667 9.66667 1.75V14.25C9.66667 15.0833 9.25 15.5 8.41667 15.5ZM15.5 8.83333V3.83333C15.5 3 15.0833 2.58333 14.25 2.58333H13.4167C12.5833 2.58333 12.1667 3 12.1667 3.83333V8.83333C12.1667 9.66667 12.5833 10.0833 13.4167 10.0833H14.25C15.0833 10.0833 15.5 9.66667 15.5 8.83333ZM3.83333 10.9167V7.58333C3.83333 6.75 3.41667 6.33333 2.58333 6.33333H1.75C0.916667 6.33333 0.5 6.75 0.5 7.58333V10.9167C0.5 11.75 0.916667 12.1667 1.75 12.1667H2.58333C3.41667 12.1667 3.83333 11.75 3.83333 10.9167Z" fill="currentColor"/>
</svg>
