<svg width="17" height="16" viewBox="0 0 17 16" fill="none" xmlns="http://www.w3.org/2000/svg">
<path d="M11.6376 8.86202C11.8982 9.12269 11.8982 9.54407 11.6376 9.80473L8.97089 12.4714C8.84089 12.6014 8.6702 12.6667 8.49954 12.6667C8.32887 12.6667 8.15818 12.6014 8.02818 12.4714L5.36152 9.80473C5.10085 9.54407 5.10085 9.12269 5.36152 8.86202C5.62218 8.60136 6.04356 8.60136 6.30422 8.86202L8.49954 11.0573L10.6948 8.86202C10.9555 8.60136 11.3769 8.60136 11.6376 8.86202ZM6.30422 7.13807L8.49954 4.94275L10.6948 7.13807C10.8248 7.26807 10.9955 7.33338 11.1662 7.33338C11.3369 7.33338 11.5076 7.26807 11.6376 7.13807C11.8982 6.8774 11.8982 6.45602 11.6376 6.19536L8.97089 3.52869C8.71022 3.26802 8.28885 3.26802 8.02818 3.52869L5.36152 6.19536C5.10085 6.45602 5.10085 6.8774 5.36152 7.13807C5.62218 7.39873 6.04356 7.39873 6.30422 7.13807Z" fill="#5E5E5E"/>
</svg>
