<?xml version="1.0" encoding="UTF-8"?>
<svg xmlns="http://www.w3.org/2000/svg" xmlns:xlink="http://www.w3.org/1999/xlink" width="15px" height="15px" viewBox="0 0 15 15" version="1.1">
<g id="surface1">
<path style=" stroke:none;fill-rule:evenodd;fill:rgb(98.431373%,74.901961%,17.647059%);fill-opacity:1;" d="M 7.148438 0.0625 C 7.097656 0.078125 6.921875 0.25 2.941406 4.246094 C -0.113281 7.3125 0.03125 7.15625 0.0546875 7.277344 C 0.0703125 7.347656 0.148438 7.417969 0.242188 7.441406 C 0.285156 7.449219 0.335938 7.46875 0.355469 7.480469 C 0.375 7.492188 0.425781 7.511719 0.472656 7.523438 C 0.519531 7.535156 0.566406 7.550781 0.578125 7.558594 C 0.585938 7.566406 0.632812 7.582031 0.679688 7.597656 C 0.726562 7.609375 0.777344 7.628906 0.796875 7.640625 C 0.816406 7.652344 0.859375 7.667969 0.890625 7.671875 C 0.925781 7.679688 0.972656 7.695312 0.996094 7.710938 C 1.023438 7.726562 1.066406 7.742188 1.09375 7.746094 C 1.125 7.753906 1.164062 7.765625 1.179688 7.777344 C 1.199219 7.789062 1.25 7.808594 1.292969 7.820312 C 1.335938 7.832031 1.394531 7.851562 1.417969 7.867188 C 1.441406 7.878906 1.484375 7.894531 1.515625 7.898438 C 1.542969 7.90625 1.585938 7.921875 1.613281 7.9375 C 1.636719 7.949219 1.679688 7.964844 1.710938 7.972656 C 1.738281 7.976562 1.789062 7.996094 1.824219 8.011719 C 1.90625 8.050781 2.023438 8.082031 2.023438 8.066406 C 2.023438 8.0625 2.03125 8.054688 2.039062 8.054688 C 2.046875 8.054688 2.082031 8.039062 2.113281 8.015625 C 2.191406 7.96875 2.257812 7.96875 2.386719 8.015625 C 2.4375 8.035156 3.535156 8.433594 4.824219 8.902344 C 7.292969 9.800781 7.835938 10 8.429688 10.214844 C 8.632812 10.289062 9 10.421875 9.246094 10.511719 C 9.496094 10.601562 10.007812 10.789062 10.382812 10.925781 C 10.761719 11.0625 11.085938 11.175781 11.101562 11.175781 C 11.128906 11.175781 10.527344 10.5625 8.652344 8.6875 C 7.285156 7.320312 6.160156 6.183594 6.152344 6.160156 C 6.136719 6.117188 6.136719 6.09375 6.195312 5.796875 C 6.210938 5.714844 6.242188 5.535156 6.269531 5.398438 C 6.292969 5.265625 6.347656 4.972656 6.390625 4.753906 C 6.429688 4.535156 6.46875 4.320312 6.476562 4.273438 C 6.488281 4.230469 6.515625 4.0625 6.546875 3.90625 C 6.625 3.496094 6.660156 3.292969 6.765625 2.738281 C 6.816406 2.464844 6.882812 2.105469 6.914062 1.933594 C 6.945312 1.765625 6.992188 1.515625 7.019531 1.378906 C 7.042969 1.242188 7.097656 0.949219 7.140625 0.726562 C 7.183594 0.503906 7.222656 0.300781 7.226562 0.269531 C 7.234375 0.21875 7.273438 0.164062 7.304688 0.164062 C 7.3125 0.164062 7.316406 0.15625 7.3125 0.148438 C 7.304688 0.136719 7.3125 0.132812 7.34375 0.140625 C 7.375 0.148438 7.382812 0.148438 7.363281 0.136719 C 7.351562 0.128906 7.347656 0.121094 7.355469 0.121094 C 7.363281 0.121094 7.359375 0.109375 7.351562 0.0976562 C 7.335938 0.0820312 7.324219 0.078125 7.3125 0.0898438 C 7.289062 0.109375 7.261719 0.0976562 7.261719 0.0664062 C 7.261719 0.0429688 7.21875 0.0390625 7.148438 0.0625 "/>
<path style=" stroke:none;fill-rule:evenodd;fill:rgb(98.039216%,98.039216%,97.647059%);fill-opacity:1;" d="M 7.265625 0.078125 C 7.265625 0.0898438 7.28125 0.0976562 7.292969 0.0976562 C 7.308594 0.0976562 7.328125 0.105469 7.335938 0.117188 C 7.351562 0.132812 7.351562 0.136719 7.328125 0.136719 C 7.316406 0.136719 7.308594 0.140625 7.3125 0.148438 C 7.316406 0.160156 7.3125 0.164062 7.304688 0.164062 C 7.273438 0.164062 7.234375 0.21875 7.226562 0.269531 C 7.222656 0.300781 7.183594 0.503906 7.140625 0.726562 C 7.097656 0.949219 7.042969 1.242188 7.019531 1.378906 C 6.992188 1.515625 6.945312 1.765625 6.914062 1.933594 C 6.882812 2.105469 6.816406 2.464844 6.765625 2.738281 C 6.660156 3.292969 6.625 3.496094 6.546875 3.90625 C 6.515625 4.0625 6.488281 4.230469 6.476562 4.273438 C 6.46875 4.320312 6.429688 4.535156 6.390625 4.753906 C 6.347656 4.972656 6.292969 5.265625 6.269531 5.398438 C 6.242188 5.535156 6.210938 5.714844 6.195312 5.796875 C 6.136719 6.113281 6.132812 6.117188 6.15625 6.167969 C 6.183594 6.234375 11.136719 11.183594 11.160156 11.167969 C 11.203125 11.140625 11.308594 11.449219 9.996094 7.84375 C 9.675781 6.964844 9.351562 6.074219 9.277344 5.863281 C 9.199219 5.65625 8.910156 4.859375 8.632812 4.09375 C 7.871094 2.003906 7.941406 2.226562 8.011719 2.089844 C 8.0625 1.996094 8.0625 1.9375 8.011719 1.851562 C 7.996094 1.828125 7.980469 1.78125 7.972656 1.75 C 7.96875 1.714844 7.949219 1.664062 7.9375 1.636719 C 7.910156 1.585938 7.882812 1.515625 7.835938 1.363281 C 7.824219 1.328125 7.800781 1.273438 7.785156 1.246094 C 7.769531 1.214844 7.753906 1.164062 7.75 1.132812 C 7.742188 1.097656 7.726562 1.050781 7.710938 1.027344 C 7.695312 1.003906 7.679688 0.957031 7.671875 0.921875 C 7.667969 0.890625 7.648438 0.839844 7.632812 0.8125 C 7.617188 0.78125 7.59375 0.722656 7.582031 0.683594 C 7.570312 0.640625 7.546875 0.578125 7.535156 0.539062 C 7.523438 0.503906 7.5 0.449219 7.484375 0.417969 C 7.46875 0.386719 7.453125 0.351562 7.453125 0.34375 C 7.453125 0.292969 7.417969 0.203125 7.386719 0.171875 C 7.367188 0.152344 7.355469 0.136719 7.359375 0.136719 C 7.367188 0.136719 7.359375 0.121094 7.34375 0.105469 C 7.328125 0.0898438 7.308594 0.0820312 7.292969 0.0859375 C 7.277344 0.09375 7.273438 0.0898438 7.28125 0.078125 C 7.285156 0.0664062 7.285156 0.0585938 7.273438 0.0585938 C 7.265625 0.0585938 7.261719 0.0703125 7.265625 0.078125 "/>
<path style=" stroke:none;fill-rule:evenodd;fill:rgb(1.568627%,23.529412%,51.764706%);fill-opacity:1;" d="M 8.058594 2.09375 C 8.03125 2.222656 8.03125 2.226562 8.144531 2.539062 C 8.203125 2.695312 8.3125 2.992188 8.386719 3.195312 C 8.457031 3.398438 8.589844 3.765625 8.683594 4.011719 C 8.773438 4.261719 8.90625 4.625 8.976562 4.824219 C 9.046875 5.019531 9.132812 5.253906 9.164062 5.339844 C 9.222656 5.5 9.59375 6.515625 9.773438 7.011719 C 9.828125 7.160156 9.894531 7.34375 9.921875 7.417969 C 10.296875 8.449219 10.804688 9.84375 10.921875 10.164062 C 11.003906 10.386719 11.113281 10.695312 11.171875 10.851562 C 11.316406 11.25 11.320312 11.296875 11.207031 11.296875 C 11.164062 11.296875 11.125 11.28125 10.484375 11.046875 C 10.292969 10.976562 9.96875 10.859375 9.765625 10.785156 C 9.5625 10.710938 9.191406 10.578125 8.941406 10.484375 C 8.6875 10.394531 8.316406 10.257812 8.113281 10.183594 C 7.914062 10.113281 7.542969 9.976562 7.289062 9.882812 C 7.039062 9.792969 6.710938 9.675781 6.5625 9.621094 C 6.414062 9.566406 6.230469 9.5 6.15625 9.472656 C 6.082031 9.445312 5.898438 9.378906 5.746094 9.324219 C 5.59375 9.265625 5.40625 9.199219 5.332031 9.171875 C 5.210938 9.128906 4.914062 9.019531 4.507812 8.871094 C 4.433594 8.84375 4.230469 8.773438 4.058594 8.707031 C 3.882812 8.644531 3.578125 8.535156 3.375 8.460938 C 3.171875 8.386719 2.839844 8.265625 2.632812 8.191406 C 2.238281 8.046875 2.15625 8.03125 2.085938 8.078125 C 2.0625 8.097656 2.042969 8.101562 2.027344 8.089844 C 1.992188 8.066406 2.007812 8.929688 2.042969 9.058594 C 2.054688 9.105469 2.070312 9.226562 2.074219 9.332031 C 2.082031 9.460938 2.09375 9.554688 2.113281 9.609375 C 2.128906 9.660156 2.144531 9.75 2.152344 9.808594 C 2.15625 9.871094 2.175781 9.949219 2.1875 9.984375 C 2.203125 10.015625 2.222656 10.085938 2.226562 10.132812 C 2.234375 10.183594 2.25 10.246094 2.265625 10.273438 C 2.277344 10.304688 2.296875 10.359375 2.300781 10.402344 C 2.308594 10.445312 2.324219 10.496094 2.335938 10.523438 C 2.351562 10.546875 2.371094 10.597656 2.378906 10.636719 C 2.390625 10.671875 2.410156 10.738281 2.429688 10.785156 C 2.449219 10.832031 2.476562 10.902344 2.492188 10.941406 C 2.546875 11.078125 2.691406 11.390625 2.714844 11.429688 C 2.722656 11.441406 2.742188 11.476562 2.753906 11.503906 C 2.78125 11.566406 2.898438 11.773438 2.945312 11.851562 C 2.964844 11.878906 2.996094 11.929688 3.019531 11.960938 C 3.105469 12.097656 3.234375 12.292969 3.335938 12.425781 C 3.570312 12.742188 4.074219 13.269531 4.324219 13.460938 C 4.382812 13.507812 4.484375 13.589844 4.546875 13.640625 C 4.707031 13.769531 5.050781 14.003906 5.144531 14.050781 C 5.164062 14.0625 5.214844 14.089844 5.257812 14.117188 C 5.386719 14.195312 5.609375 14.3125 5.78125 14.394531 C 5.832031 14.414062 5.90625 14.449219 5.945312 14.46875 C 5.988281 14.488281 6.03125 14.503906 6.042969 14.503906 C 6.054688 14.503906 6.085938 14.519531 6.109375 14.535156 C 6.136719 14.550781 6.179688 14.566406 6.210938 14.574219 C 6.238281 14.578125 6.285156 14.597656 6.316406 14.613281 C 6.34375 14.628906 6.390625 14.644531 6.417969 14.648438 C 6.449219 14.652344 6.496094 14.671875 6.527344 14.6875 C 6.558594 14.703125 6.613281 14.71875 6.65625 14.726562 C 6.695312 14.730469 6.753906 14.746094 6.78125 14.761719 C 6.8125 14.777344 6.878906 14.792969 6.925781 14.796875 C 6.972656 14.804688 7.042969 14.820312 7.082031 14.835938 C 7.121094 14.851562 7.207031 14.871094 7.269531 14.875 C 7.335938 14.878906 7.425781 14.894531 7.476562 14.914062 C 7.542969 14.933594 7.636719 14.945312 7.851562 14.957031 C 8.007812 14.964844 8.175781 14.976562 8.21875 14.984375 C 8.328125 15.003906 8.699219 15 8.804688 14.984375 C 8.851562 14.976562 9.015625 14.964844 9.171875 14.957031 C 9.390625 14.945312 9.480469 14.9375 9.546875 14.914062 C 9.597656 14.894531 9.691406 14.878906 9.753906 14.875 C 9.820312 14.871094 9.902344 14.851562 9.941406 14.835938 C 9.980469 14.820312 10.050781 14.804688 10.101562 14.796875 C 10.148438 14.792969 10.210938 14.777344 10.242188 14.761719 C 10.273438 14.746094 10.328125 14.730469 10.367188 14.726562 C 10.40625 14.71875 10.464844 14.703125 10.496094 14.6875 C 10.527344 14.671875 10.578125 14.652344 10.613281 14.648438 C 10.644531 14.640625 10.691406 14.625 10.71875 14.609375 C 10.742188 14.59375 10.785156 14.578125 10.816406 14.574219 C 10.84375 14.566406 10.886719 14.550781 10.914062 14.535156 C 10.941406 14.519531 10.972656 14.503906 10.984375 14.503906 C 10.996094 14.503906 11.039062 14.488281 11.078125 14.46875 C 11.179688 14.421875 11.308594 14.363281 11.371094 14.335938 C 11.433594 14.308594 11.628906 14.199219 11.75 14.128906 C 11.796875 14.101562 11.867188 14.0625 11.902344 14.039062 C 12.367188 13.773438 13.160156 13.09375 13.460938 12.703125 C 13.507812 12.644531 13.589844 12.539062 13.644531 12.472656 C 13.695312 12.40625 13.75 12.335938 13.765625 12.316406 C 13.828125 12.234375 14.027344 11.933594 14.035156 11.910156 C 14.039062 11.898438 14.058594 11.867188 14.078125 11.84375 C 14.125 11.777344 14.246094 11.554688 14.34375 11.355469 C 14.492188 11.042969 14.503906 11.019531 14.503906 10.996094 C 14.503906 10.984375 14.519531 10.953125 14.535156 10.929688 C 14.550781 10.902344 14.566406 10.859375 14.574219 10.828125 C 14.578125 10.800781 14.597656 10.757812 14.609375 10.730469 C 14.625 10.707031 14.644531 10.65625 14.648438 10.621094 C 14.65625 10.582031 14.671875 10.53125 14.6875 10.507812 C 14.703125 10.480469 14.71875 10.425781 14.726562 10.386719 C 14.730469 10.347656 14.746094 10.289062 14.761719 10.257812 C 14.777344 10.226562 14.792969 10.167969 14.800781 10.125 C 14.804688 10.078125 14.820312 10.011719 14.835938 9.972656 C 14.851562 9.933594 14.867188 9.851562 14.875 9.792969 C 14.878906 9.730469 14.894531 9.640625 14.914062 9.59375 C 14.933594 9.53125 14.945312 9.433594 14.953125 9.261719 C 14.960938 9.128906 14.972656 9 14.984375 8.96875 C 15.003906 8.898438 15.003906 8.109375 14.984375 8.039062 C 14.976562 8.011719 14.960938 7.878906 14.957031 7.746094 C 14.945312 7.574219 14.933594 7.480469 14.914062 7.417969 C 14.894531 7.367188 14.878906 7.273438 14.875 7.210938 C 14.867188 7.144531 14.855469 7.070312 14.835938 7.039062 C 14.820312 7.007812 14.804688 6.941406 14.800781 6.886719 C 14.792969 6.835938 14.777344 6.769531 14.761719 6.738281 C 14.746094 6.707031 14.730469 6.652344 14.726562 6.617188 C 14.722656 6.582031 14.703125 6.53125 14.6875 6.5 C 14.671875 6.46875 14.65625 6.414062 14.648438 6.382812 C 14.644531 6.347656 14.625 6.300781 14.609375 6.273438 C 14.59375 6.246094 14.578125 6.214844 14.578125 6.199219 C 14.578125 6.179688 14.519531 6.027344 14.460938 5.902344 C 14.445312 5.871094 14.410156 5.796875 14.386719 5.738281 C 14.359375 5.679688 14.328125 5.617188 14.316406 5.59375 C 14.304688 5.574219 14.28125 5.53125 14.265625 5.496094 C 14.25 5.464844 14.230469 5.425781 14.222656 5.414062 C 14.214844 5.402344 14.167969 5.316406 14.117188 5.226562 C 14.066406 5.136719 14.011719 5.046875 13.996094 5.023438 C 13.980469 5.003906 13.945312 4.949219 13.914062 4.90625 C 13.554688 4.359375 13.050781 3.808594 12.507812 3.382812 C 12.359375 3.265625 12.066406 3.058594 12.046875 3.058594 C 12.039062 3.058594 12.027344 3.050781 12.015625 3.039062 C 12 3.019531 11.890625 2.953125 11.789062 2.898438 C 11.769531 2.886719 11.71875 2.859375 11.675781 2.835938 C 11.636719 2.8125 11.574219 2.777344 11.542969 2.761719 C 11.507812 2.742188 11.472656 2.722656 11.460938 2.714844 C 11.441406 2.703125 11.332031 2.652344 11.121094 2.558594 C 11.082031 2.539062 11.015625 2.507812 10.980469 2.492188 C 10.941406 2.476562 10.890625 2.457031 10.867188 2.449219 C 10.84375 2.445312 10.804688 2.429688 10.777344 2.414062 C 10.753906 2.398438 10.707031 2.382812 10.675781 2.378906 C 10.644531 2.371094 10.59375 2.355469 10.5625 2.339844 C 10.53125 2.324219 10.476562 2.308594 10.441406 2.300781 C 10.402344 2.296875 10.351562 2.277344 10.320312 2.265625 C 10.292969 2.25 10.230469 2.234375 10.1875 2.226562 C 10.144531 2.222656 10.078125 2.203125 10.042969 2.191406 C 10.011719 2.175781 9.933594 2.15625 9.878906 2.152344 C 9.820312 2.148438 9.730469 2.128906 9.683594 2.113281 C 9.628906 2.097656 9.511719 2.078125 9.398438 2.070312 C 9.289062 2.0625 9.160156 2.046875 9.105469 2.035156 C 9.027344 2.015625 8.90625 2.011719 8.539062 2.011719 L 8.074219 2.011719 L 8.058594 2.09375 "/>
<path style=" stroke:none;fill-rule:evenodd;fill:rgb(45.490196%,50.196078%,45.490196%);fill-opacity:1;" d="M 2.113281 8.015625 C 2.085938 8.039062 2.054688 8.054688 2.042969 8.054688 C 2.035156 8.054688 2.023438 8.066406 2.023438 8.078125 C 2.023438 8.105469 2.054688 8.105469 2.089844 8.078125 C 2.152344 8.03125 2.246094 8.050781 2.632812 8.191406 C 2.839844 8.265625 3.171875 8.386719 3.375 8.460938 C 3.578125 8.535156 3.882812 8.644531 4.058594 8.707031 C 4.230469 8.773438 4.433594 8.84375 4.507812 8.871094 C 4.914062 9.019531 5.210938 9.128906 5.332031 9.171875 C 5.40625 9.199219 5.59375 9.265625 5.746094 9.324219 C 5.898438 9.378906 6.082031 9.445312 6.15625 9.472656 C 6.230469 9.5 6.414062 9.566406 6.5625 9.621094 C 6.710938 9.675781 7.039062 9.792969 7.289062 9.882812 C 7.542969 9.976562 7.914062 10.113281 8.113281 10.183594 C 8.316406 10.257812 8.6875 10.394531 8.941406 10.484375 C 9.191406 10.578125 9.5625 10.710938 9.765625 10.785156 C 9.96875 10.859375 10.292969 10.976562 10.484375 11.046875 C 11.125 11.28125 11.164062 11.296875 11.207031 11.296875 C 11.25 11.296875 11.296875 11.25 11.292969 11.207031 C 11.292969 11.1875 11.292969 11.1875 11.277344 11.207031 C 11.257812 11.242188 11.207031 11.242188 11.160156 11.203125 C 11.140625 11.1875 11.109375 11.175781 11.09375 11.175781 C 11.070312 11.175781 10.820312 11.085938 9.246094 10.511719 C 9 10.421875 8.632812 10.289062 8.429688 10.214844 C 7.835938 10 7.292969 9.800781 4.824219 8.902344 C 3.535156 8.433594 2.4375 8.035156 2.386719 8.015625 C 2.261719 7.972656 2.183594 7.972656 2.113281 8.015625 "/>
<path style=" stroke:none;fill-rule:evenodd;fill:rgb(42.352941%,58.039216%,73.72549%);fill-opacity:1;" d="M 8.019531 2.074219 C 7.964844 2.167969 7.957031 2.21875 7.988281 2.3125 C 8.003906 2.355469 8.265625 3.085938 8.574219 3.9375 C 8.886719 4.789062 9.199219 5.65625 9.277344 5.863281 C 9.351562 6.074219 9.675781 6.964844 9.996094 7.84375 C 11.324219 11.484375 11.203125 11.140625 11.152344 11.171875 C 11.121094 11.191406 11.191406 11.238281 11.238281 11.230469 C 11.296875 11.222656 11.285156 11.164062 11.175781 10.859375 C 11.117188 10.699219 11.003906 10.386719 10.921875 10.164062 C 10.804688 9.84375 10.296875 8.449219 9.921875 7.417969 C 9.894531 7.34375 9.828125 7.160156 9.773438 7.011719 C 9.597656 6.523438 9.226562 5.5 9.164062 5.339844 C 9.105469 5.179688 8.925781 4.683594 8.683594 4.019531 C 8.613281 3.816406 8.476562 3.445312 8.382812 3.195312 C 8.292969 2.945312 8.175781 2.625 8.125 2.484375 L 8.035156 2.230469 L 8.050781 2.125 C 8.074219 1.996094 8.070312 1.988281 8.019531 2.074219 "/>
</g>
</svg>
