<svg width="1064" height="200" viewBox="0 0 1064 200" fill="none" xmlns="http://www.w3.org/2000/svg">
    <path fill-rule="evenodd" clip-rule="evenodd"
        d="M125.002 21.4517C98.2254 33.5011 67.5659 57.7942 54.6572 71.2293C54.1618 71.6687 53.677 72.1236 53.2034 72.5942C37.1075 88.5885 39.6275 116.989 58.2545 138.01C58.125 138.009 57.9955 138.009 57.8658 138.009C28.2631 138.009 3.88139 147.571 0.67955 159.868C-0.340225 162.675 0.0366059 170.575 0.233734 174.708V174.708C0.2845 175.773 0.323349 176.587 0.323349 177C0.323349 188.292 26.4063 200 57.9503 200C89.4944 200 115.064 189.888 115.064 177.417C115.064 177.158 115.081 176.455 115.105 175.474C115.17 172.778 115.286 167.981 115.241 164.517C115.352 163.892 115.409 163.26 115.409 162.623C115.409 161.489 115.229 160.374 114.883 159.281C121.342 157.786 127.23 154.8 132.041 150.268C131.924 150.387 131.806 150.506 131.687 150.625C130.509 151.796 129.262 152.87 127.955 153.848C136.022 149.695 141.938 140.872 149.354 129.433C172.877 89.0376 195.382 47.1175 199.456 17.9231C202.339 -2.74055 193.788 -2.10257 173.05 2.98429C162.992 5.45151 133.794 17.494 125.002 21.4517ZM113.596 156.47C107.573 146.459 87.1953 138.913 62.407 138.085C42.6519 117.604 40.2625 89.6827 55.318 74.7223C70.8481 59.2902 100.591 61.8571 121.865 82.4554C143.135 103.062 146.075 132.105 130.607 147.481L130.606 147.481C125.993 152.068 120.125 155.065 113.596 156.47ZM164.913 58.1946C164.913 53.1078 155.919 35.9727 149.36 32.7546C138.985 27.6678 138.985 32.7546 149.36 42.9284C153.741 47.2296 157.197 51.5298 159.727 54.6781L159.727 54.6782L159.727 54.6782C163.185 58.9808 164.913 61.1321 164.913 58.1946ZM155.212 97.0264C156.207 93.8253 153.894 81.3537 150.401 78.0904C144.866 72.9358 143.864 76.137 148.404 84.4928C150.319 88.0202 151.652 91.3736 152.63 93.8304L152.63 93.8305C153.967 97.1933 154.636 98.8762 155.212 97.0264ZM108.753 170.094C111.293 167.526 112.409 165.005 112.409 162.623C112.409 160.241 111.293 157.719 108.753 155.151C106.201 152.571 102.36 150.109 97.3749 147.977C87.4164 143.717 73.4499 141.009 57.8658 141.009C42.2818 141.009 28.3153 143.717 18.3568 147.977C13.3722 150.109 9.5303 152.571 6.97833 155.151C4.43893 157.719 3.32314 160.241 3.32314 162.623C3.32314 165.005 4.43893 167.526 6.97833 170.094C9.5303 172.675 13.3722 175.137 18.3568 177.269C28.3153 181.528 42.2818 184.236 57.8658 184.236C73.4499 184.236 87.4164 181.528 97.3749 177.269C102.36 175.137 106.201 172.675 108.753 170.094Z"
        fill="#8878C3" />
    <path
        d="M149.36 32.7546C155.92 35.9727 164.914 53.1078 164.914 58.1946C164.914 63.2815 159.729 53.1078 149.36 42.9284C138.985 32.7546 138.985 27.6678 149.36 32.7546ZM150.401 78.0904C153.894 81.3537 156.207 93.8253 155.212 97.0264C154.216 100.228 152.939 92.8486 148.405 84.4928C143.865 76.137 144.866 72.9358 150.401 78.0904Z"
        fill="#6D619A" />
    <path
        d="M131.311 148.19L131.311 148.19C115.258 164.153 84.8785 161.281 63.37 140.466C41.8702 119.636 38.5971 89.9276 54.6129 74.0129C70.6726 58.0546 101.059 60.9176 122.56 81.7372C144.06 102.566 147.328 132.269 131.311 148.19Z"
        fill="#BFB7DE" stroke="#6D619A" stroke-width="4" />
    <path
        d="M113.409 162.623C113.409 165.343 112.128 168.103 109.465 170.797C106.793 173.499 102.827 176.024 97.7683 178.188C87.6582 182.513 73.552 185.236 57.866 185.236C42.1799 185.236 28.0737 182.513 17.9637 178.188C12.905 176.024 8.9393 173.499 6.26737 170.797C3.60383 168.103 2.32324 165.343 2.32324 162.623C2.32324 159.902 3.60383 157.142 6.26737 154.448C8.9393 151.746 12.905 149.221 17.9637 147.057C28.0737 142.733 42.1799 140.009 57.866 140.009C73.552 140.009 87.6582 142.733 97.7683 147.057C102.827 149.221 106.793 151.746 109.465 154.448C112.128 157.142 113.409 159.902 113.409 162.623Z"
        fill="#E3DFF3" stroke="#6D619A" stroke-width="4" />
    <path
        d="M320 169.4C301.867 169.4 287.8 165 277.8 156.2C267.933 147.4 263 134.067 263 116.2V29.8H285.2V116.6C285.2 127.667 288.2 136.133 294.2 142C300.333 147.733 308.933 150.6 320 150.6C331.2 150.6 339.867 147.733 346 142C352.133 136.133 355.2 127.667 355.2 116.6V29.8H377.4V116.2C377.4 134.067 372.4 147.4 362.4 156.2C352.533 165 338.4 169.4 320 169.4ZM455.175 169.292C448.554 169.292 442.505 167.955 437.03 165.281C431.682 162.607 427.416 158.723 424.233 153.63H422.896L420.986 167H405.324V28.907H424.997V77.994H426.143C432.51 68.826 442.633 64.242 456.512 64.242C468.354 64.242 477.713 68.635 484.589 77.421C491.465 86.0797 494.903 99.195 494.903 116.767C494.903 134.594 491.465 147.836 484.589 156.495C477.713 165.026 467.908 169.292 455.175 169.292ZM449.636 152.675C458.677 152.675 465.107 150.001 468.927 144.653C472.747 139.305 474.657 130.392 474.657 117.913V116.194C474.657 103.461 472.747 94.42 468.927 89.072C465.107 83.5967 458.677 80.859 449.636 80.859C441.105 80.859 434.865 83.8513 430.918 89.836C426.971 95.8207 424.997 104.67 424.997 116.385V117.913C424.997 129.373 426.971 138.032 430.918 143.889C434.865 149.746 441.105 152.675 449.636 152.675ZM557.024 169.292C540.853 169.292 528.82 165.026 520.925 156.495C513.031 147.964 509.083 134.721 509.083 116.767C509.083 98.813 513.031 85.5703 520.925 77.039C528.82 68.5077 540.853 64.242 557.024 64.242C571.668 64.242 582.618 68.253 589.876 76.275C597.134 84.1697 600.763 96.7757 600.763 114.093V121.733H529.329C529.839 132.556 532.258 140.578 536.587 145.799C541.044 150.892 547.92 153.439 557.215 153.439C564.473 153.439 570.331 151.72 574.787 148.282C579.244 144.844 581.472 139.56 581.472 132.429H600.763C600.763 144.398 596.689 153.566 588.539 159.933C580.517 166.172 570.012 169.292 557.024 169.292ZM580.326 106.835C580.326 89.0083 572.559 80.095 557.024 80.095C548.366 80.095 541.872 82.2597 537.542 86.589C533.213 90.791 530.603 97.5397 529.711 106.835H580.326ZM657.044 169.292C643.292 169.292 632.787 166.427 625.529 160.697C618.398 154.967 614.833 147.773 614.833 139.114C614.833 137.713 614.833 136.822 614.833 136.44C614.96 135.931 615.024 135.612 615.024 135.485H634.315V137.204C634.315 142.679 636.543 146.818 641 149.619C645.457 152.293 651.123 153.63 657.999 153.63C664.111 153.63 669.204 152.484 673.279 150.192C677.481 147.9 679.582 144.653 679.582 140.451C679.582 137.14 678.436 134.466 676.144 132.429C673.852 130.264 671.051 128.609 667.74 127.463C664.429 126.19 659.654 124.725 653.415 123.07C645.775 121.16 639.536 119.25 634.697 117.34C629.858 115.43 625.72 112.565 622.282 108.745C618.971 104.925 617.316 99.8317 617.316 93.465C617.316 84.297 621.072 77.1663 628.585 72.073C636.098 66.8523 646.093 64.242 658.572 64.242C666.339 64.242 673.088 65.4517 678.818 67.871C684.675 70.163 689.132 73.41 692.188 77.612C695.371 81.814 696.963 86.5253 696.963 91.746L696.772 95.566H677.481V94.229C677.481 90.027 675.762 86.6527 672.324 84.106C669.013 81.432 663.856 80.095 656.853 80.095C650.104 80.095 645.138 81.3047 641.955 83.724C638.899 86.016 637.371 88.7537 637.371 91.937C637.371 95.8843 639.281 98.813 643.101 100.723C646.921 102.633 652.969 104.543 661.246 106.453C669.268 108.363 675.826 110.337 680.919 112.374C686.012 114.284 690.405 117.34 694.098 121.542C697.791 125.617 699.637 131.092 699.637 137.968C699.637 148.664 695.753 156.559 687.986 161.652C680.346 166.745 670.032 169.292 657.044 169.292ZM707.583 66.534H727.829L741.963 118.677L747.884 143.889H748.648L753.996 118.677L766.411 66.534H788.758L801.746 118.868C802.892 122.943 804.738 131.283 807.285 143.889H808.24C810.914 132.047 812.824 123.707 813.97 118.868L827.722 66.534H846.822L816.644 167H795.634L782.073 110.655L777.489 89.645H776.725C774.942 99.3223 773.478 106.326 772.332 110.655L758.771 167H737.57L707.583 66.534ZM886.79 169.292C878.514 169.292 871.001 167.255 864.252 163.18C857.631 159.105 854.32 151.72 854.32 141.024C854.32 128.163 859.923 119.25 871.128 114.284C882.334 109.318 898.378 106.835 919.26 106.835V96.903C919.26 91.4277 917.796 87.2893 914.867 84.488C912.066 81.5593 906.782 80.095 899.014 80.095C891.502 80.095 886.154 81.432 882.97 84.106C879.914 86.78 878.386 90.027 878.386 93.847V96.33H859.286C859.159 95.566 859.095 94.1653 859.095 92.128C859.095 83.342 862.788 76.5297 870.173 71.691C877.559 66.725 887.427 64.242 899.778 64.242C912.766 64.242 922.507 66.916 929.001 72.264C935.623 77.612 938.933 85.1883 938.933 94.993V146.372C938.933 148.664 939.57 150.383 940.843 151.529C942.117 152.548 943.708 153.057 945.618 153.057H952.494V166.236C949.184 167.891 944.663 168.719 938.933 168.719C934.349 168.719 930.466 167.509 927.282 165.09C924.226 162.543 922.189 159.105 921.17 154.776H919.833C916.268 159.36 911.684 162.925 906.081 165.472C900.606 168.019 894.176 169.292 886.79 169.292ZM892.52 153.248C900.033 153.248 906.336 151.02 911.429 146.563C916.65 141.979 919.26 135.74 919.26 127.845V121.733C904.744 121.733 893.666 123.006 886.026 125.553C878.386 127.972 874.566 132.62 874.566 139.496C874.566 144.207 876.031 147.709 878.959 150.001C882.015 152.166 886.536 153.248 892.52 153.248ZM966.946 66.534H982.608L984.518 79.904H985.855C989.038 74.8107 993.304 70.927 998.652 68.253C1004.13 65.579 1010.18 64.242 1016.8 64.242C1029.53 64.242 1039.34 68.5713 1046.21 77.23C1053.09 85.7613 1056.53 98.9403 1056.53 116.767C1056.53 134.339 1053.09 147.518 1046.21 156.304C1039.34 164.963 1029.98 169.292 1018.13 169.292C1004.25 169.292 994.132 164.708 987.765 155.54H986.619V200.043H966.946V66.534ZM1011.26 152.675C1020.3 152.675 1026.73 150.001 1030.55 144.653C1034.37 139.305 1036.28 130.392 1036.28 117.913V116.194C1036.28 103.461 1034.37 94.42 1030.55 89.072C1026.73 83.5967 1020.3 80.859 1011.26 80.859C1002.73 80.859 996.487 83.8513 992.54 89.836C988.593 95.8207 986.619 104.607 986.619 116.194V117.722C986.619 129.182 988.593 137.904 992.54 143.889C996.487 149.746 1002.73 152.675 1011.26 152.675Z"
        fill="white" />
</svg>