<svg width="80" height="80" viewBox="0 0 80 80" fill="none" xmlns="http://www.w3.org/2000/svg">
<rect width="80" height="80" rx="16" fill="white"/>
<rect x="8" y="8" width="64" height="64" rx="8" fill="url(#paint0_linear_9_3295)"/>
<rect x="8.25" y="8.25" width="63.5" height="63.5" rx="7.75" stroke="#222222" stroke-opacity="0.0705882" stroke-width="0.5"/>
<path d="M54.3915 21.8946C54.4586 20.7194 54.6187 19.9442 54.9405 19.2364C55.0679 18.9562 55.1872 18.7268 55.2057 18.7268C55.2241 18.7268 55.1687 18.9337 55.0826 19.1864C54.8486 19.8734 54.8102 20.8131 54.9714 21.9063C55.176 23.2934 55.2923 23.4936 56.7649 24.992C57.4557 25.6948 58.2591 26.5813 58.5503 26.9618L59.0799 27.6538L58.5503 27.1593C57.9027 26.5545 56.4133 25.3751 56.0843 25.2065C55.8637 25.0934 55.8309 25.0954 55.6948 25.2302C55.5695 25.3545 55.543 25.5412 55.5256 26.4238C55.4985 27.7993 55.3102 28.6822 54.8557 29.5651C54.6099 30.0426 54.5711 29.9407 54.7936 29.4017C54.9597 28.9993 54.9765 28.8224 54.9753 27.4908C54.9727 24.8152 54.6537 24.172 52.7826 23.0701C52.3086 22.7909 51.5276 22.3884 51.0471 22.1754C50.5666 21.9625 50.1849 21.777 50.1988 21.7631C50.2517 21.7106 52.0765 22.2409 52.8109 22.5221C53.9034 22.9405 54.0837 22.9947 54.2164 22.9443C54.3053 22.9104 54.3483 22.6526 54.3915 21.8946Z" fill="url(#paint1_linear_9_3295)"/>
<path d="M31.3095 18.0021C30.6614 17.9022 30.6341 17.8905 30.9391 17.8439C31.5235 17.7546 32.9036 17.8763 33.8546 18.1011C36.0747 18.6255 38.095 19.9689 40.2514 22.3548L40.8243 22.9886L41.6439 22.8577C45.0966 22.3064 48.609 22.7445 51.5468 24.0932C52.355 24.4642 53.6293 25.2028 53.7885 25.3925C53.8392 25.453 53.9324 25.8424 53.9954 26.2579C54.2137 27.6952 54.1044 28.797 53.662 29.6199C53.4213 30.0677 53.4078 30.2096 53.5697 30.5929C53.6989 30.8987 54.0591 31.125 54.4158 31.1245C55.1459 31.1235 55.9317 29.9508 56.2958 28.319L56.4404 27.6708L56.7269 27.9933C58.2984 29.7626 59.5328 32.1756 59.7448 33.8931L59.8001 34.3409L59.5359 33.9338C59.0813 33.2333 58.6245 32.7564 58.0396 32.3718C56.9852 31.6785 55.8703 31.4425 52.9177 31.2879C50.251 31.1483 48.7417 30.922 47.2452 30.437C44.699 29.6121 43.4154 28.5134 40.3909 24.5701C39.0475 22.8186 38.2171 21.8496 37.3912 21.0692C35.5143 19.296 33.6702 18.366 31.3095 18.0021Z" fill="url(#paint2_linear_9_3295)"/>
<path d="M32.5684 26.484C31.2527 24.684 30.4387 21.9243 30.6149 19.8613L30.6694 19.2229L30.9689 19.2772C31.5313 19.3792 32.501 19.7378 32.955 20.0119C34.201 20.7639 34.7405 21.7539 35.2893 24.2962C35.45 25.0409 35.6609 25.8836 35.758 26.1689C35.9142 26.6281 36.5046 27.7007 36.9846 28.3973C37.3303 28.899 37.1007 29.1368 36.3364 29.0682C35.1693 28.9635 33.5883 27.8792 32.5684 26.484Z" fill="url(#paint3_linear_9_3295)"/>
<path d="M52.7942 39.8799C46.6457 37.4199 44.4802 35.2846 44.4802 31.6818C44.4802 31.1516 44.4986 30.7178 44.521 30.7178C44.5433 30.7178 44.7812 30.8927 45.0496 31.1066C46.2963 32.1003 47.6925 32.5248 51.5576 33.0851C53.832 33.4148 55.112 33.6812 56.2926 34.0703C60.0454 35.307 62.3672 37.8168 62.9209 41.2354C63.0818 42.2287 62.9875 44.0915 62.7266 45.0732C62.5206 45.8487 61.8922 47.2464 61.7255 47.3C61.6794 47.3149 61.634 47.1388 61.6222 46.8994C61.5589 45.6157 60.9062 44.366 59.8099 43.4299C58.5634 42.3655 56.8888 41.5181 52.7942 39.8799Z" fill="url(#paint4_linear_9_3295)"/>
<path d="M48.4777 40.9019C48.4007 40.4463 48.2671 39.8646 48.1808 39.6091L48.0239 39.1446L48.3153 39.4696C48.7186 39.9194 49.0372 40.495 49.3073 41.2615C49.5135 41.8466 49.5367 42.0206 49.5351 42.9713C49.5335 43.9047 49.5078 44.1003 49.3174 44.627C49.0173 45.4574 48.6448 46.0462 48.0198 46.6782C46.8967 47.8141 45.4527 48.443 43.3689 48.7038C43.0067 48.7491 41.951 48.8255 41.0229 48.8735C38.6839 48.9944 37.1445 49.2441 35.7613 49.7267C35.5624 49.7962 35.3848 49.8384 35.3668 49.8204C35.3108 49.7651 36.2526 49.2072 37.0305 48.8349C38.1274 48.3098 39.2193 48.0233 41.6656 47.6185C42.8741 47.4184 44.1221 47.1758 44.439 47.0792C47.4317 46.1674 48.9701 43.8144 48.4777 40.9019Z" fill="url(#paint5_linear_9_3295)"/>
<path d="M51.2963 45.876C50.4793 44.131 50.2918 42.4461 50.7393 40.8748C50.7872 40.7069 50.8642 40.5694 50.9105 40.5694C50.9568 40.5694 51.1496 40.673 51.3388 40.7995C51.7153 41.0514 52.4703 41.4755 54.4817 42.5653C56.9917 43.9251 58.4227 44.9781 59.3959 46.1812C60.2482 47.2348 60.7756 48.4347 61.0295 49.8979C61.1732 50.7268 61.089 52.7212 60.875 53.5558C60.2001 56.1874 58.6317 58.2546 56.3946 59.4608C56.0668 59.6375 55.7726 59.7825 55.7408 59.7832C55.7089 59.7839 55.8284 59.4821 56.0062 59.1126C56.7587 57.5494 56.8444 56.0288 56.2754 54.3363C55.9271 53.3 55.2168 52.0354 53.7826 49.8983C52.1152 47.4135 51.7064 46.7522 51.2963 45.876Z" fill="url(#paint6_linear_9_3295)"/>
<path d="M28.202 55.2915C30.4836 53.3771 33.3226 52.0171 35.9085 51.5997C37.023 51.4197 38.8796 51.4912 39.9116 51.7537C41.5658 52.1743 43.0457 53.1166 43.8152 54.2392C44.5674 55.3364 44.8901 56.2925 45.226 58.4198C45.3585 59.259 45.5026 60.1017 45.5463 60.2925C45.7986 61.395 46.2895 62.2762 46.8979 62.7188C47.8642 63.4217 49.5282 63.4654 51.1651 62.8309C51.4429 62.7232 51.6841 62.6487 51.701 62.6655C51.7604 62.7241 50.9361 63.2724 50.3546 63.561C49.5722 63.9494 48.9501 64.0995 48.1234 64.0995C46.6242 64.0995 45.3796 63.3417 44.341 61.7964C44.1366 61.4923 43.6773 60.5814 43.3202 59.7723C42.2236 57.287 41.6822 56.5299 40.409 55.7013C39.301 54.9803 37.872 54.8512 36.7971 55.3749C35.385 56.0629 34.991 57.8561 36.0024 58.9924C36.4043 59.4441 37.1539 59.8337 37.7668 59.9094C38.9135 60.0511 39.8989 59.1843 39.8989 58.0338C39.8989 57.2869 39.61 56.8606 38.8827 56.5344C37.8893 56.089 36.8214 56.6096 36.8265 57.537C36.8288 57.9325 37.002 58.1808 37.401 58.3602C37.6569 58.4752 37.6628 58.4843 37.4541 58.4412C36.5426 58.2534 36.3291 57.1615 37.062 56.4366C37.9419 55.5663 39.7613 55.9503 40.3861 57.1382C40.6486 57.6372 40.679 58.6309 40.4502 59.2308C39.938 60.5739 38.4446 61.2801 36.9297 60.8958C35.8983 60.6341 35.4783 60.3508 34.2347 59.0779C32.0738 56.8659 31.2349 56.4374 28.1197 55.9541L27.5227 55.8615L28.202 55.2915Z" fill="url(#paint7_linear_9_3295)"/>
<path fill-rule="evenodd" clip-rule="evenodd" d="M18.0628 15.7024C25.2792 24.406 30.2494 27.9969 30.8018 28.7556C31.2578 29.382 31.0862 29.9452 30.3049 30.3865C29.8704 30.6319 28.9772 30.8806 28.53 30.8806C28.0242 30.8806 27.8505 30.6867 27.8505 30.6867C27.5572 30.4103 27.392 30.4586 25.8859 27.8019C23.7949 24.5777 22.045 21.9031 21.9972 21.8583C21.8868 21.7548 21.8887 21.7583 25.6727 28.4862C26.2841 29.8884 25.7943 30.4031 25.7943 30.6029C25.7943 31.0091 25.6827 31.2227 25.1784 31.7817C24.3376 32.7138 23.9618 33.7611 23.6904 35.9286C23.3863 38.3583 22.531 40.0746 20.1608 43.012C18.7733 44.7315 18.5463 45.0467 18.1962 45.7397C17.7552 46.6125 17.634 47.1013 17.5848 48.2034C17.5329 49.3686 17.6341 50.1213 17.9923 51.2353C18.3059 52.2107 18.6333 52.8547 19.4702 54.1428C20.1925 55.2544 20.6083 56.0805 20.6083 56.4037C20.6083 56.6608 20.6577 56.6611 21.7769 56.41C24.4552 55.809 26.63 54.7519 27.8532 53.4565C28.6102 52.6547 28.7879 52.212 28.7937 51.1132C28.7975 50.3945 28.772 50.2441 28.5765 49.8306C28.2583 49.1577 27.6789 48.5982 26.402 47.7307C24.7289 46.5942 24.0144 45.6792 23.817 44.4209C23.655 43.3884 23.8429 42.66 24.7685 40.7323C25.7265 38.737 25.9639 37.8867 26.1245 35.8755C26.2282 34.5761 26.3718 34.0637 26.7475 33.6523C27.1393 33.2234 27.4921 33.0782 28.4618 32.9465C30.0427 32.7319 31.0493 32.3254 31.8768 31.5678C32.5946 30.9105 32.8949 30.2771 32.941 29.3237L32.976 28.601L32.5749 28.1363C31.1222 26.4532 17.0899 14.3794 17.0006 14.3794C16.9815 14.3794 17.4595 14.9748 18.0628 15.7024ZM21.4238 49.5218C21.7522 48.9438 21.5777 48.2007 21.0283 47.8377C20.5092 47.4947 19.7028 47.6562 19.7028 48.1032C19.7028 48.2396 19.7787 48.3389 19.9498 48.4264C20.2378 48.5737 20.2587 48.7393 20.0321 49.0777C19.8026 49.4205 19.8211 49.7219 20.0844 49.9267C20.5086 50.2568 21.1092 50.0753 21.4238 49.5218Z" fill="url(#paint8_linear_9_3295)"/>
<path fill-rule="evenodd" clip-rule="evenodd" d="M33.9737 33.3256C33.2315 33.5521 32.5101 34.3337 32.2868 35.1533C32.1505 35.6533 32.2278 36.5303 32.4319 36.8012C32.7616 37.2387 33.0804 37.354 33.9436 37.3479C35.6338 37.3362 37.1031 36.6159 37.2739 35.7154C37.4139 34.9773 36.7686 33.9543 35.8797 33.5052C35.4211 33.2736 34.4456 33.1816 33.9737 33.3256ZM35.9495 34.8608C36.2101 34.4928 36.0961 34.0951 35.6528 33.8261C34.8086 33.3139 33.5321 33.7377 33.5321 34.5302C33.5321 34.9247 34.1978 35.355 34.808 35.355C35.2141 35.355 35.7699 35.1144 35.9495 34.8608Z" fill="url(#paint9_linear_9_3295)"/>
<defs>
<linearGradient id="paint0_linear_9_3295" x1="32.5333" y1="72" x2="32.5333" y2="8" gradientUnits="userSpaceOnUse">
<stop stop-color="#FFF1FF"/>
<stop offset="1" stop-color="white"/>
</linearGradient>
<linearGradient id="paint1_linear_9_3295" x1="60.6875" y1="56.3169" x2="31.4667" y2="31.4669" gradientUnits="userSpaceOnUse">
<stop stop-color="#FC72FF"/>
<stop offset="1" stop-color="#FF41F4"/>
</linearGradient>
<linearGradient id="paint2_linear_9_3295" x1="60.6875" y1="56.3169" x2="31.4667" y2="31.4669" gradientUnits="userSpaceOnUse">
<stop stop-color="#FC72FF"/>
<stop offset="1" stop-color="#FF41F4"/>
</linearGradient>
<linearGradient id="paint3_linear_9_3295" x1="60.6875" y1="56.3169" x2="31.4667" y2="31.4669" gradientUnits="userSpaceOnUse">
<stop stop-color="#FC72FF"/>
<stop offset="1" stop-color="#FF41F4"/>
</linearGradient>
<linearGradient id="paint4_linear_9_3295" x1="60.6875" y1="56.3169" x2="31.4667" y2="31.4669" gradientUnits="userSpaceOnUse">
<stop stop-color="#FC72FF"/>
<stop offset="1" stop-color="#FF41F4"/>
</linearGradient>
<linearGradient id="paint5_linear_9_3295" x1="60.6875" y1="56.3169" x2="31.4667" y2="31.4669" gradientUnits="userSpaceOnUse">
<stop stop-color="#FC72FF"/>
<stop offset="1" stop-color="#FF41F4"/>
</linearGradient>
<linearGradient id="paint6_linear_9_3295" x1="60.6875" y1="56.3169" x2="31.4667" y2="31.4669" gradientUnits="userSpaceOnUse">
<stop stop-color="#FC72FF"/>
<stop offset="1" stop-color="#FF41F4"/>
</linearGradient>
<linearGradient id="paint7_linear_9_3295" x1="60.6875" y1="56.3169" x2="31.4667" y2="31.4669" gradientUnits="userSpaceOnUse">
<stop stop-color="#FC72FF"/>
<stop offset="1" stop-color="#FF41F4"/>
</linearGradient>
<linearGradient id="paint8_linear_9_3295" x1="60.6875" y1="56.3169" x2="31.4667" y2="31.4669" gradientUnits="userSpaceOnUse">
<stop stop-color="#FC72FF"/>
<stop offset="1" stop-color="#FF41F4"/>
</linearGradient>
<linearGradient id="paint9_linear_9_3295" x1="60.6875" y1="56.3169" x2="31.4667" y2="31.4669" gradientUnits="userSpaceOnUse">
<stop stop-color="#FC72FF"/>
<stop offset="1" stop-color="#FF41F4"/>
</linearGradient>
</defs>
</svg>
