<?xml version="1.0" encoding="UTF-8"?>
<svg id="_Шар_2" data-name="Шар 2" xmlns="http://www.w3.org/2000/svg" viewBox="0 0 312.51 312.51">
  <defs>
    <style>
      .cls-1 {
        fill: #fff;
      }

      .cls-2 {
        fill: #15ab5a;
      }
    </style>
  </defs>
  <g id="_Шар_1-2" data-name="Шар 1">
    <g>
      <circle class="cls-1" cx="156.26" cy="156.26" r="156.26"/>
      <g>
        <polygon class="cls-2" points="173.6 47.49 173.6 113.55 156.27 113.55 138.95 113.55 138.95 47.49 173.6 47.49"/>
        <polygon class="cls-2" points="259.12 195.64 241.8 225.65 173.6 186.28 173.6 265.02 138.95 265.02 138.95 186.28 70.75 225.65 53.39 195.64 121.58 156.27 138.95 146.23 156.27 136.23 173.6 146.27 190.93 156.27 259.12 195.64"/>
        <polygon class="cls-2" points="259.12 116.91 218.44 139.92 183.78 119.92 241.8 86.86 259.12 116.91"/>
        <polygon class="cls-2" points="127.56 119.92 92.87 139.92 53.39 116.91 70.75 86.86 127.56 119.92"/>
      </g>
    </g>
  </g>
</svg>