<svg width="300" height="300" viewBox="0 0 300 300" fill="none" xmlns="http://www.w3.org/2000/svg">
<path d="M123.802 243.7C122.283 245.227 119.469 245.641 116.082 244.829C111.384 243.708 107.948 241.02 107.536 238.121C107.447 237.522 107.503 236.911 107.697 236.338C107.891 235.764 108.218 235.246 108.652 234.825C108.968 234.509 109.324 234.236 109.711 234.013C110.565 233.556 111.503 233.28 112.468 233.201C118.378 232.851 122.695 236.132 124.045 238.276C125.605 240.712 124.692 242.539 124.223 243.197C124.094 243.374 123.954 243.542 123.802 243.7Z" fill="#15AC5B"/>
<path d="M198.903 237.252C198.766 237.391 198.547 237.594 198.378 237.74C194.448 241.232 188.401 243.083 185.442 241.711C184.778 241.412 184.219 240.92 183.836 240.299C183.453 239.679 183.263 238.957 183.291 238.227C183.453 236.61 184.226 235.116 185.45 234.053C188.09 231.534 191.46 229.925 195.071 229.457C195.654 229.395 196.242 229.395 196.825 229.457C199.453 229.684 200.447 230.935 200.811 231.942C201.668 234.281 199.704 236.497 199.081 237.123L198.903 237.252Z" fill="#15AC5B"/>
<path d="M111.28 163.576C109.545 165.338 107.356 166.581 104.958 167.165C100.107 168.318 95.1752 166.288 91.8604 161.741C87.6805 155.943 87.1955 147.36 90.7851 140.864C91.4933 139.562 92.3807 138.368 93.4207 137.315C94.6966 135.939 96.2658 134.871 98.011 134.19C99.756 133.509 101.632 133.233 103.498 133.384C105.364 133.533 107.172 134.105 108.787 135.056C110.402 136.007 111.782 137.312 112.824 138.874C115.804 143.245 116.964 148.613 116.058 153.832C115.508 157.498 113.838 160.903 111.28 163.576Z" fill="#15AC5B"/>
<path d="M153.878 113.712C153.356 114.239 152.72 114.639 152.019 114.881C151.041 115.198 149.991 115.213 149.005 114.923C148.019 114.634 147.143 114.053 146.489 113.257C145.624 112.176 145.13 110.843 145.082 109.457L144.985 103.375C143.675 103.375 142.374 103.375 141.064 103.375H140.983H140.894C139.838 103.271 138.837 102.846 138.027 102.157C137.217 101.468 136.635 100.547 136.359 99.5176C136.06 98.4213 136.043 97.2669 136.308 96.1622C136.574 95.0572 137.114 94.0383 137.879 93.2001C137.992 93.0863 138.113 92.9807 138.234 92.8752C139.01 92.2345 139.965 91.8514 140.967 91.7789H141.129H144.799L144.71 86.4033C144.684 84.8022 145.261 83.2501 146.327 82.059C147.082 81.2993 148.065 80.8113 149.125 80.6704H149.27H149.65H149.747C151.291 80.8492 153.967 81.7749 154.509 85.9242C154.622 87.8975 154.719 89.7651 154.816 91.6086L158.463 91.4948H158.624C160.188 91.6469 161.628 92.4166 162.627 93.6349C163.627 94.8529 164.103 96.4201 163.952 97.9911C163.911 99.3714 163.358 100.687 162.4 101.678C161.63 102.438 160.644 102.937 159.578 103.107H159.489H159.4C158.01 103.164 156.676 103.204 155.358 103.237C155.439 105.145 155.528 107.061 155.601 109.002C155.662 110.738 155.044 112.429 153.878 113.712Z" fill="#15AC5B"/>
<path d="M202.485 175.621C201.546 176.587 200.32 177.223 198.992 177.432C197.938 177.586 196.861 177.407 195.914 176.918C194.965 176.429 194.193 175.654 193.705 174.703C193.062 173.413 192.828 171.957 193.034 170.529C193.696 165.998 194.23 161.41 194.65 156.847H192.993C189.759 156.757 186.388 156.619 183.081 156.416C181.811 156.336 180.602 155.843 179.636 155.011C178.67 154.178 178.001 153.053 177.729 151.804C177.437 150.544 177.46 149.231 177.798 147.983C178.135 146.734 178.775 145.589 179.661 144.65C179.942 144.367 180.251 144.114 180.583 143.895C181.577 143.245 182.736 142.896 183.922 142.888H184.035C187.406 143.083 190.665 143.221 193.737 143.302H195.451C195.588 138.795 195.596 134.24 195.451 129.741C195.564 127.451 196.195 125.746 197.327 124.609C198.203 123.747 199.341 123.204 200.56 123.066H200.658H200.746C203.94 123.229 206.236 125.738 206.584 129.473C206.85 134.061 206.964 138.682 206.923 143.278C210.157 143.172 213.27 142.993 216.221 142.742C216.897 142.71 217.573 142.825 218.201 143.08C218.829 143.335 219.395 143.724 219.859 144.22C220.497 144.995 220.976 145.889 221.268 146.85C221.561 147.812 221.662 148.822 221.565 149.823C221.397 151.647 220.661 153.371 219.463 154.752C218.684 155.552 217.663 156.071 216.56 156.23C213.326 156.522 209.89 156.717 206.398 156.822C206.05 161.597 205.533 166.372 204.853 171.017C204.517 172.747 203.695 174.344 202.485 175.621Z" fill="#15AC5B"/>
<path d="M54.2175 155.613C53.9893 155.845 53.7102 156.021 53.4024 156.126C53.0943 156.231 52.7665 156.263 52.4443 156.218C52.1223 156.172 51.8152 156.053 51.5475 155.867C51.2798 155.682 51.0591 155.436 50.9027 155.15C50.2155 153.664 49.9325 151.268 50.0134 147.963C50.1206 142.65 50.6232 137.351 51.5172 132.113C52.8431 123.18 56.7562 113.347 58.9713 108.263C59.4616 107.016 60.1647 105.865 61.0492 104.861C61.264 104.641 61.4997 104.443 61.7526 104.268C62.1532 103.981 62.6364 103.834 63.1284 103.849C63.6202 103.863 64.0938 104.039 64.4771 104.349C65.8595 105.494 65.6737 108.036 63.9192 112.12C62.0892 116.412 60.5444 120.82 59.2946 125.316C60.0275 126.181 60.8394 126.975 61.7202 127.687C62.7538 128.523 63.4586 129.7 63.7089 131.008C63.9347 132.814 63.8334 134.647 63.4098 136.416C63.1531 137.801 62.5399 139.095 61.6313 140.168C61.1744 140.67 60.5498 140.986 59.8763 141.056C59.2028 141.127 58.5269 140.947 57.977 140.55C57.4202 140.172 56.8857 139.763 56.3761 139.323C55.8583 143.061 55.5372 146.823 55.4141 150.594C55.4141 150.594 55.4383 154.378 54.2175 155.613Z" fill="#15AC5B"/>
<path d="M164.486 213.965C161.379 217.065 157.4 219.135 153.086 219.892C144.443 221.476 136.391 217.944 132.066 210.676C130.357 207.798 129.422 204.524 129.353 201.175C129.283 197.825 130.082 194.515 131.67 191.569C132.613 189.775 133.818 188.134 135.243 186.697C139.192 182.839 144.428 180.596 149.933 180.403C156.829 180.647 162.618 183.335 166.329 187.963C168.008 190.066 169.218 192.506 169.876 195.119C170.534 197.732 170.626 200.456 170.145 203.108C169.412 207.224 167.436 211.014 164.486 213.965Z" fill="#15AC5B"/>
<path d="M232.471 204.324C230.045 206.76 227.668 208.157 225.631 208.328C224.661 208.417 223.686 208.206 222.838 207.725C221.991 207.243 221.309 206.513 220.885 205.631C217.441 199.192 222.712 179.289 232.01 169.951C233.025 168.917 234.147 167.994 235.357 167.198C236.191 166.645 237.125 166.261 238.106 166.069C239.054 165.85 240.044 165.893 240.969 166.195C241.895 166.497 242.723 167.046 243.361 167.783C246.02 170.877 245.956 177.86 243.199 186.005C240.823 193.045 236.731 200.069 232.471 204.324Z" fill="#15AC5B"/>
<path d="M100.042 88.4249L99.5812 88.8716C89.645 97.9989 79.7572 100.443 75.1165 98.145C74.0903 97.6553 73.245 96.8518 72.7017 95.8494C72.1585 94.8471 71.9454 93.6979 72.0929 92.5663C72.4648 88.2626 75.6339 82.9194 80.986 77.5032C86.0875 72.3793 92.5393 67.8076 97.8187 65.5583C102.613 63.5282 106.324 63.4227 108.563 65.2578C109.206 65.7922 109.721 66.4639 110.072 67.2239C110.424 67.9839 110.601 68.8131 110.593 69.6509C110.827 77.1135 100.147 88.3193 100.042 88.4249Z" fill="#15AC5B"/>
<path d="M83.6376 214.224C82.9348 214.918 82.0529 215.401 81.0914 215.617C80.1296 215.834 79.1268 215.776 78.1963 215.45C72.4158 213.777 67.2819 206.915 64.7272 202.969C60.9434 197.114 57.9117 190.171 56.8041 184.836C55.8097 180.029 56.3029 176.464 58.2351 174.532C58.3434 174.429 58.4567 174.331 58.5746 174.239C59.1995 173.727 59.9296 173.361 60.7124 173.166C61.4952 172.97 62.3112 172.952 63.1022 173.111C69.206 174.142 77.1616 184.479 79.3767 188.133C86.4106 199.762 87.0817 209.79 84.1146 213.696C83.9689 213.858 83.8072 214.029 83.6376 214.224Z" fill="#15AC5B"/>
<path d="M249.296 152.665C250.103 151.853 250.103 151.3 249.853 146.233V145.876C249.581 140.593 248.918 135.338 247.864 130.155C247.253 127.05 246.483 123.979 245.552 120.955C244.079 116.036 242.251 111.232 240.08 106.582C239.589 105.419 238.947 104.327 238.171 103.334C237.872 102.993 237.476 102.753 237.036 102.646C236.596 102.54 236.134 102.572 235.713 102.739C235.292 102.906 234.933 103.2 234.684 103.579C234.435 103.959 234.309 104.406 234.323 104.86C234.515 106.838 235.063 108.764 235.94 110.545C237.917 114.845 239.6 119.275 240.976 123.805C240.49 124.803 239.87 125.73 239.133 126.558L239.044 126.688L238.963 126.818C238.725 127.262 238.551 127.737 238.446 128.231C238.05 130.415 238.858 136.968 241.195 138.527C241.612 138.815 242.107 138.969 242.613 138.969C243.119 138.969 243.614 138.815 244.032 138.527H244.089L244.244 138.397H244.282C244.736 141.483 245.092 144.804 245.333 148.645C245.511 151.381 245.828 152.705 247.274 153.233C247.632 153.337 248.008 153.339 248.366 153.238C248.724 153.138 249.045 152.939 249.296 152.665Z" fill="#15AC5B"/>
<path d="M148.025 249.758C147.946 249.604 147.886 249.44 147.847 249.271H144.436C143.045 249.337 141.683 248.86 140.636 247.939C140.416 247.719 140.242 247.457 140.124 247.17C140.005 246.882 139.944 246.574 139.944 246.262C139.944 245.951 140.005 245.642 140.124 245.355C140.242 245.067 140.416 244.806 140.636 244.585C141.442 243.879 142.495 243.523 143.563 243.595C145.471 243.595 147.346 243.595 149.222 243.595C149.343 242.888 149.456 242.101 149.577 241.232C149.701 240.539 150.034 239.901 150.531 239.405C151.661 238.401 153.132 237.875 154.639 237.935C155.211 237.893 155.786 237.981 156.32 238.192C156.855 238.402 157.336 238.731 157.727 239.153C158.066 239.57 158.308 240.057 158.437 240.579C158.565 241.102 158.577 241.646 158.471 242.174C158.374 242.669 158.285 243.067 158.196 243.416L162.182 243.294C162.844 243.255 163.507 243.375 164.114 243.643C164.439 243.804 164.722 244.041 164.938 244.333C165.155 244.625 165.299 244.965 165.359 245.324C165.41 245.695 165.371 246.073 165.248 246.426C165.124 246.779 164.918 247.097 164.648 247.354C163.669 248.337 161.559 248.938 159.983 249.027C158.406 249.117 156.619 249.133 154.922 249.173C154.282 249.846 153.492 250.355 152.617 250.659C151.695 250.884 150.743 250.963 149.796 250.895C148.316 250.676 148.195 250.213 148.025 249.758Z" fill="#15AC5B"/>
<path d="M172.368 58.7122C171.406 59.6704 168.504 62.5937 142.527 62.0253C127.684 61.3837 125.331 59.1182 124.975 56.9907C124.906 56.5149 124.953 56.0292 125.114 55.5761C125.275 55.1231 125.544 54.7165 125.897 54.3922C126.649 53.7005 127.536 53.1725 128.5 52.8412C132.543 51.2578 140.628 50.1209 148.623 50.0072C152.254 49.9585 170.493 50.0072 172.991 55.2123C173.222 55.6743 173.327 56.189 173.298 56.7049C173.268 57.2209 173.104 57.7199 172.821 58.1519C172.687 58.3514 172.535 58.5389 172.368 58.7122Z" fill="#15AC5B"/>
<path d="M228.428 100.678C227.213 101.824 225.656 102.537 223.997 102.708C216.462 103.78 200.737 93.0364 194.399 80.2146C191.278 73.9457 192.669 70.5757 194.399 68.8461L194.536 68.7162C199.387 64.1932 209.897 68.5051 220.804 79.435C229.495 88.2374 232.519 96.5769 228.428 100.678Z" fill="#15AC5B"/>
</svg>
