<svg enable-background="new 0 0 1024 1024" height="1024" image-rendering="optimizeSpeed" viewBox="0 0 1024 1024" width="1024" xmlns="http://www.w3.org/2000/svg" xmlns:xlink="http://www.w3.org/1999/xlink"><mask id="a"><path d="m969.75 392.05c-1.1-4.35-2.35-9-3.65-13.6-2.5-8.75-5.35-17.6-8.45-26.35-6.45-18.25-14.15-36.05-23.15-53.65-3.8-7.4-7.95-14.95-12.3-22.4h-.025q-30.601-52.01-76.325-97.75c-92.15-92.15-203.45-138.25-333.8-138.25s-241.6 46.1-333.75 138.25-138.25 203.4-138.25 333.75 46.1 241.65 138.25 333.8 203.4 138.2 333.75 138.2c12.7 0 25.2-.45 37.05-1.25 20.2-1.45 39.9-4.05 58.7-7.7 7.95-1.55 15.8-3.3 23.4-5.15 80.8-20.3 152.15-61.6 214.65-124.1 48.6-48.6 84.4-102.5 107.35-161.8 18.45-47.65 28.65-98.8 30.55-153.5.2-6.05.3-12.25.3-18.5 0-41.75-4.7-81.6-14.3-120z" fill="#fff" image-rendering="optimizeSpeed"/></mask><path d="m957.65 339.3q-8.613-20.873-19.4-40.85c-4.05-7.55-8.35-15.05-12.9-22.4-19.55-31.7-43.4-61.65-71.55-89.8-92.15-92.15-203.45-138.25-333.8-138.25s-241.6 46.1-333.75 138.25-138.25 203.4-138.25 333.75 46.1 241.65 138.25 333.8 203.4 138.2 333.75 138.2 241.65-46.05 333.8-138.2c50.75-50.8 87.55-107.4 110.35-169.75 18.55-50.85 27.85-105.5 27.85-164.05 0-44.9-5.45-87.55-16.4-127.95-1.25-4.55-2.55-9.1-3.9-13.6-4.1-13.3-8.8-26.35-14.05-39.15z" fill-opacity=".098039"/><path d="m969.75 392.05c-1.1-4.35-2.35-9-3.65-13.6-2.5-8.75-5.35-17.6-8.45-26.35-6.45-18.25-14.15-36.05-23.15-53.65-3.8-7.4-7.95-14.95-12.3-22.4h-.025q-30.601-52.01-76.325-97.75c-92.15-92.15-203.45-138.25-333.8-138.25s-241.6 46.1-333.75 138.25-138.25 203.4-138.25 333.75 46.1 241.65 138.25 333.8 203.4 138.2 333.75 138.2c12.7 0 25.2-.45 37.05-1.25 20.2-1.45 39.9-4.05 58.7-7.7 7.95-1.55 15.8-3.3 23.4-5.15 80.8-20.3 152.15-61.6 214.65-124.1 48.6-48.6 84.4-102.5 107.35-161.8 18.45-47.65 28.65-98.8 30.55-153.5.2-6.05.3-12.25.3-18.5 0-41.75-4.7-81.6-14.3-120z" fill="#363f6a"/><path d="m788.5 232.5q3.55-3.5 3.55-8.45c0-3.3-1.2-6.15-3.55-8.5s-5.15-3.5-8.45-3.5-6.15 1.15-8.5 3.5-3.5 5.2-3.5 8.5 1.15 6.1 3.5 8.45 5.2 3.55 8.5 3.55 6.1-1.2 8.45-3.55zm93.2 359.2c1.55-1.55 2.35-3.45 2.35-5.65s-.8-4.1-2.35-5.65-3.45-2.35-5.65-2.35-4.1.8-5.65 2.35-2.35 3.45-2.35 5.65.8 4.1 2.35 5.65 3.45 2.35 5.65 2.35 4.1-.8 5.65-2.35zm-139.15 134.35c-5.1 0-9.45 1.8-13.1 5.4-3.6 3.65-5.4 8-5.4 13.1s1.8 9.45 5.4 13.05c3.65 3.65 8 5.45 13.1 5.45s9.45-1.8 13.05-5.45c3.65-3.6 5.45-7.95 5.45-13.05s-1.8-9.45-5.45-13.1c-3.6-3.6-7.95-5.4-13.05-5.4zm-341.4-600.9c-3.4 3.45-5.1 7.55-5.1 12.4s1.7 8.95 5.1 12.35c3.45 3.45 7.55 5.15 12.4 5.15s8.95-1.7 12.35-5.15c3.45-3.4 5.15-7.5 5.15-12.35s-1.7-8.95-5.15-12.4c-3.4-3.4-7.5-5.1-12.35-5.1s-8.95 1.7-12.4 5.1zm-262.15 179.95c-10.05 10.05-15.1 22.2-15.1 36.45s5.05 26.4 15.1 36.45 22.2 15.1 36.45 15.1 26.4-5.05 36.45-15.1 15.1-22.2 15.1-36.45-5.05-26.4-15.1-36.45-22.2-15.1-36.45-15.1-26.4 5.05-36.45 15.1z" fill="#7885b8"/><path d="m843.65 287.65c-1.05 1.05-1.6 2.35-1.6 3.9 0 1.5.55 2.8 1.6 3.85 1.1 1.1 2.4 1.65 3.9 1.65 1.55 0 2.85-.55 3.9-1.65 1.05-1.05 1.6-2.35 1.6-3.85 0-1.55-.55-2.85-1.6-3.9s-2.35-1.6-3.9-1.6c-1.5 0-2.8.55-3.9 1.6zm-83.95 324.05c1.55-1.55 2.35-3.45 2.35-5.65s-.8-4.1-2.35-5.65-3.45-2.35-5.65-2.35-4.1.8-5.65 2.35-2.35 3.45-2.35 5.65.8 4.1 2.35 5.65 3.45 2.35 5.65 2.35 4.1-.8 5.65-2.35zm-506.15-324.15c-2.35 2.35-3.5 5.15-3.5 8.5 0 3.3 1.15 6.1 3.5 8.45s5.15 3.5 8.5 3.5c3.3 0 6.1-1.15 8.45-3.5s3.55-5.15 3.55-8.45c0-3.35-1.2-6.15-3.55-8.5s-5.15-3.5-8.45-3.5c-3.35 0-6.15 1.15-8.5 3.5z" fill="#f1f1f1"/><path d="m953.2 684.05c8.75-22.55 15.65-45.95 20.7-70.15h-.025l-421.825-421.85-50.2 248.275-251.8 229.725 110 110 55.275 194.875q46.469 9.125 96.725 9.125c12.7 0 25.2-.45 37.05-1.25 20.2-1.45 39.9-4.05 58.7-7.7 7.95-1.55 15.8-3.3 23.4-5.15 80.8-20.3 152.15-61.6 214.65-124.1 48.6-48.6 84.4-102.5 107.35-161.8z" fill-opacity=".2"/><g mask="url(#a)"><path d="m433.547 719.803q-73.892-.001-74.105 74.103v35.214c-6.364-1.768-13.081-2.687-20.152-2.688-7.849 0-15.203 1.132-22.133 3.324-1.626-4.526-4.313-8.627-8.025-12.339-6.682-6.683-14.778-10.041-24.254-10.041-9.475-.001-17.571 3.358-24.253 10.04-3.394 3.394-5.94 7.142-7.566 11.243-2.97-.495-6.117-.743-9.299-.743-15.132 0-28.036 5.339-38.749 16.051-10.677 10.748-16.016 23.652-16.016 38.784s5.338 28.037 16.015 38.714c10.713 10.713 23.617 16.052 38.749 16.052 11.667 0 22.062-3.182 31.113-9.546 3.394 7.142 8.131 13.789 14.177 19.835 13.894 13.894 30.652 20.824 50.239 20.824 7.212 0 14.036-.954 20.471-2.793 2.969 42.921 27.859 64.347 73.785 64.383l162.668-.034c49.073.001 73.609-24.535 73.61-73.608l.035-1.238c9.97 4.597 20.895 6.895 32.845 6.895 21.779 0 40.376-7.707 55.755-23.086 10.713-10.713 17.713-23.016 20.966-36.805 4.172 1.415 8.697 2.122 13.506 2.122 11.525 0 21.319-4.066 29.415-12.162 8.167-8.096 12.233-17.889 12.233-29.415s-4.065-21.319-12.232-29.416c-8.096-8.096-17.89-12.162-29.415-12.162-11.385 0-21.178 3.995-29.239 11.985-1.662-1.945-3.394-3.818-5.233-5.657-15.379-15.38-33.976-23.087-55.754-23.087-11.95 0-22.875 2.297-32.845 6.894v-17.537c.213-49.355-24.535-74.104-73.679-74.104z" fill="#90a2d8"/><path d="m392.889 708.559q.035 50.099 35.46 85.525c7.531 7.53 15.592 13.894 24.183 19.021l-.038 229.348c0 8.273 2.899 15.344 8.803 21.177 5.869 5.869 12.905 8.804 21.178 8.804l64.487.001c8.273 0 15.309-2.935 21.178-8.803 5.834-5.834 8.803-12.905 8.804-21.178l.002-230.373c7.92-4.95 15.415-10.96 22.451-17.996 23.617-23.616 35.426-52.112 35.426-85.488.001-33.445-11.808-61.942-35.425-85.559-23.616-23.617-52.112-35.426-85.558-35.427-33.375 0-61.872 11.808-85.489 35.425s-35.426 52.113-35.462 85.523z" fill="#d7dffb"/><path d="m544.532 182.252c-8.202-8.132-18.066-12.198-29.592-12.198l-.002 182.927c19.587 0 36.487 6.576 50.628 19.799.743.672 1.45 1.379 2.122 2.051 14.601 14.531 21.884 32.138 21.884 52.856 0 20.576-7.284 38.183-21.885 52.785-14.567 14.566-32.138 21.884-52.715 21.884l-.001 136.894 256.606.003c-2.722-5.197-6.258-10.712-10.571-16.44l-76.684-76.686c-21.849-24.041-34.612-60.21-38.359-108.363l-.034-80.999c-.531-21.672-5.763-41.4-15.662-59.219-.495-.92-1.096-1.874-1.591-2.793 0 0-80.714-109.072-84.144-112.501z" fill="#ccc"/><path d="m514.834 170.019c-11.632.035-21.46 4.136-29.663 12.268-3.394 3.394-84.04 112.463-84.04 112.463q-.884 1.379-1.662 2.793c-9.899 17.819-15.132 37.547-15.627 59.255l.034 80.998c-3.748 48.154-16.582 84.322-38.502 108.363l-76.615 76.684c-4.349 5.692-7.885 11.207-10.466 16.405l256.571-.033.002-136.895c-20.647-.07-38.254-7.354-52.785-21.885-.672-.672-1.343-1.343-2.05-2.121-13.188-14.178-19.799-31.042-19.799-50.629.001-20.718 7.284-38.324 21.85-52.891 14.531-14.53 32.138-21.813 52.786-21.813z" fill="#f1f1f1"/><path d="m514.938 352.981h-.07c-20.648 0-38.255 7.283-52.786 21.813-14.566 14.567-21.849 32.173-21.85 52.891 0 19.587 6.611 36.451 19.799 50.629.707.778 1.378 1.449 2.05 2.121 14.531 14.531 32.138 21.815 52.785 21.885h.071l.035.036c20.577 0 38.148-7.318 52.715-21.884 14.601-14.602 21.885-32.209 21.885-52.785 0-20.718-7.283-38.325-21.884-52.856-.672-.672-1.379-1.379-2.122-2.051-14.141-13.223-31.041-19.799-50.628-19.799z" fill="#4b5277"/><path d="m258.293 639.248c-5.268 10.146-7.672 19.551-7.318 28.39l263.854-.033.035-28.39zm256.678.002-.036 28.39 263.819.003c.318-8.874-2.086-18.278-7.177-28.39z" fill="#999"/><path d="m-3.763 1122.335c-9.369 9.369-14.072 20.718-14.072 33.941s4.702 24.572 14.071 33.941l154.146 154.149c9.369 9.37 20.718 14.072 33.941 14.072s24.572-4.702 33.941-14.071 14.071-20.718 14.071-33.94c.001-13.223-4.701-24.572-14.07-33.941l-154.147-154.15c-9.369-9.369-20.717-14.071-33.94-14.071-13.223-.001-24.572 4.701-33.941 14.07zm786.97-276.502c2.651-2.652 3.995-5.905 3.995-9.652 0-3.748-1.344-7.001-3.995-9.652-2.652-2.652-5.904-3.996-9.652-3.996s-7 1.344-9.652 3.995c-2.652 2.652-3.995 5.905-3.995 9.652 0 3.748 1.343 7.001 3.995 9.652 2.651 2.652 5.904 3.995 9.652 3.996 3.747 0 7-1.344 9.652-3.995zm-549.841-7.643c3.005 3.005 6.647 4.525 10.889 4.525 4.313 0 7.92-1.484 10.89-4.525 3.005-3.005 4.49-6.611 4.49-10.854 0-4.313-1.485-7.919-4.49-10.925-3.005-3.005-6.612-4.49-10.925-4.49-4.242 0-7.849 1.485-10.854 4.49s-4.49 6.612-4.525 10.89c.035 4.277 1.52 7.884 4.525 10.889z" fill="#a4b7fc"/><path d="m352.514 667.886h-.035l-32.209 51.017c.035 7.389 3.783 11.137 11.243 11.102l83.084.001z" fill="#666"/><path d="m352.514 667.886 62.083 62.12 283.653.038c7.46-.035 11.207-3.783 11.172-11.172l-32.208-50.947-162.35-.002z" fill="#494949"/><path d="m491.851 458.763c-6.788-8.415-10.182-18.244-10.182-29.486.001-13.152 4.703-24.289 13.86-33.588 9.334-9.333 20.506-13.929 33.658-13.929q16.9 0 29.486 10.183" style="fill:none;stroke:#fff;stroke-opacity:.498039;stroke-width:16;stroke-linecap:round;stroke-miterlimit:3"/></g></svg>