<svg width="100" height="100" viewBox="0 0 100 100" fill="none" xmlns="http://www.w3.org/2000/svg">
<rect width="100" height="100" rx="18.75" fill="#FEF4FF"/>
<g filter="url(#filter0_d_27438_17274)">
<path d="M74.9341 19.1563C75.0503 17.1381 75.3277 15.8069 75.8853 14.5912C76.1059 14.11 76.3127 13.7161 76.3446 13.7161C76.3766 13.7161 76.2806 14.0713 76.1314 14.5054C75.726 15.6852 75.6595 17.2989 75.9387 19.1765C76.2932 21.5587 76.4947 21.9024 79.046 24.4757C80.2427 25.6827 81.6347 27.205 82.1392 27.8586L83.0567 29.047L82.1392 28.1977C81.0172 27.1591 78.4368 25.1336 77.8669 24.8441C77.4847 24.6499 77.4279 24.6533 77.1921 24.8848C76.9749 25.0982 76.9291 25.4188 76.8989 26.9346C76.852 29.2969 76.5258 30.8132 75.7383 32.3293C75.3124 33.1494 75.2453 32.9743 75.6307 32.0488C75.9185 31.3577 75.9477 31.0539 75.9455 28.767C75.9411 24.1721 75.3884 23.0674 72.1467 21.1751C71.3255 20.6957 69.9725 20.0043 69.1399 19.6386C68.3074 19.2729 67.6461 18.9544 67.6702 18.9306C67.762 18.8404 70.9233 19.751 72.1957 20.2341C74.0884 20.9526 74.4008 21.0457 74.6307 20.959C74.7848 20.9009 74.8593 20.4581 74.9341 19.1563Z" fill="#F50DB4"/>
<path d="M34.9445 12.4716C33.8217 12.3 33.7744 12.2799 34.3028 12.1999C35.3153 12.0465 37.7063 12.2556 39.3539 12.6415C43.2003 13.5421 46.7004 15.8492 50.4364 19.9467L51.429 21.0352L52.8488 20.8104C58.8306 19.8635 64.916 20.616 70.0057 22.9321C71.4059 23.5693 73.6136 24.8376 73.8894 25.1636C73.9772 25.2675 74.1387 25.9361 74.2479 26.6496C74.626 29.1181 74.4367 31.0103 73.6703 32.4235C73.2532 33.1925 73.2299 33.4362 73.5103 34.0944C73.7342 34.6196 74.3583 35.0083 74.9762 35.0075C76.2411 35.0058 77.6025 32.9917 78.2333 30.1893L78.4838 29.0762L78.9802 29.63C81.7029 32.6686 83.8414 36.8125 84.2088 39.7621L84.3044 40.5312L83.8468 39.832C83.0591 38.629 82.2678 37.81 81.2544 37.1495C79.4276 35.9588 77.4961 35.5536 72.3807 35.2881C67.7607 35.0483 65.1459 34.6596 62.5532 33.8268C58.1418 32.4101 55.9181 30.5232 50.678 23.7512C48.3505 20.7433 46.912 19.0791 45.481 17.7388C42.2294 14.6936 39.0344 13.0965 34.9445 12.4716Z" fill="#F50DB4"/>
<path d="M37.1255 27.038C34.8461 23.9468 33.4358 19.2074 33.7412 15.6645L33.8356 14.5681L34.3544 14.6614C35.3288 14.8365 37.0087 15.4524 37.7954 15.923C39.9541 17.2145 40.8887 18.9148 41.8395 23.2808C42.118 24.5597 42.4834 26.0069 42.6515 26.4968C42.9222 27.2854 43.945 29.1275 44.7766 30.3239C45.3756 31.1855 44.9777 31.5938 43.6537 31.476C41.6316 31.2962 38.8925 29.4341 37.1255 27.038Z" fill="#F50DB4"/>
<path d="M72.1667 50.0436C61.5145 45.8189 57.7628 42.1519 57.7628 35.9644C57.7628 35.0539 57.7946 34.3089 57.8334 34.3089C57.8722 34.3089 58.2843 34.6094 58.7492 34.9767C60.9092 36.6833 63.3281 37.4122 70.0244 38.3745C73.9648 38.9408 76.1823 39.3981 78.2278 40.0664C84.7294 42.1903 88.752 46.5006 89.7112 52.3715C89.99 54.0773 89.8266 57.2764 89.3746 58.9624C89.0178 60.2941 87.9291 62.6945 87.6403 62.7865C87.5603 62.8121 87.4817 62.5098 87.4612 62.0986C87.3517 59.8941 86.2208 57.7479 84.3214 56.1402C82.162 54.3124 79.2606 52.8571 72.1667 50.0436Z" fill="#F50DB4"/>
<path d="M64.6885 51.7987C64.555 51.0164 64.3236 50.0174 64.1741 49.5786L63.9023 48.7809L64.4071 49.3391C65.1058 50.1115 65.6579 51.0999 66.1258 52.4163C66.4829 53.4211 66.5231 53.7199 66.5204 55.3527C66.5177 56.9556 66.473 57.2917 66.1433 58.196C65.6233 59.6221 64.978 60.6334 63.8951 61.7188C61.9493 63.6695 59.4476 64.7495 55.8375 65.1975C55.21 65.2753 53.381 65.4065 51.773 65.4888C47.7208 65.6965 45.0537 66.1253 42.6573 66.9542C42.3127 67.0735 42.0051 67.1459 41.9738 67.1151C41.8769 67.0201 43.5085 66.062 44.8562 65.4225C46.7565 64.5208 48.6482 64.0287 52.8865 63.3335C54.9802 62.99 57.1424 62.5733 57.6915 62.4075C62.8763 60.8415 65.5415 56.8006 64.6885 51.7987Z" fill="#F50DB4"/>
<path d="M69.5716 60.3411C68.1563 57.3442 67.8313 54.4507 68.6067 51.7522C68.6897 51.4638 68.823 51.2278 68.9033 51.2278C68.9834 51.2278 69.3175 51.4057 69.6453 51.623C70.2975 52.0555 71.6055 52.7838 75.0903 54.6554C79.4389 56.9908 81.9182 58.7991 83.6042 60.8652C85.0808 62.6747 85.9946 64.7353 86.4344 67.2482C86.6834 68.6717 86.5375 72.0967 86.1667 73.5301C84.9976 78.0495 82.2802 81.5996 78.4045 83.6711C77.8366 83.9745 77.3269 84.2237 77.2717 84.2248C77.2165 84.2259 77.4235 83.7077 77.7315 83.0732C79.0353 80.3885 79.1838 77.7771 78.198 74.8704C77.5945 73.0907 76.3639 70.9191 73.8792 67.2488C70.9905 62.9816 70.2822 61.8459 69.5716 60.3411Z" fill="#F50DB4"/>
<path d="M29.5607 76.511C33.5137 73.2233 38.4322 70.8876 42.9124 70.1707C44.8432 69.8617 48.0597 69.9844 49.8477 70.4352C52.7137 71.1576 55.2774 72.7758 56.6107 74.7037C57.9138 76.588 58.4728 78.23 59.0548 81.8834C59.2845 83.3246 59.5342 84.7718 59.6097 85.0994C60.0469 86.9928 60.8974 88.5062 61.9515 89.2663C63.6256 90.4733 66.5084 90.5484 69.3443 89.4587C69.8256 89.2738 70.2434 89.146 70.2728 89.1748C70.3756 89.2754 68.9477 90.217 67.9402 90.7127C66.5847 91.3797 65.5068 91.6375 64.0746 91.6375C61.4773 91.6375 59.321 90.336 57.5216 87.6822C57.1675 87.16 56.3717 85.5956 55.753 84.206C53.8533 79.9378 52.9152 78.6376 50.7094 77.2146C48.7898 75.9765 46.3141 75.7547 44.4517 76.6542C42.0053 77.8357 41.3228 80.9152 43.075 82.8668C43.7713 83.6424 45.07 84.3115 46.1319 84.4415C48.1185 84.6849 49.8257 83.1962 49.8257 81.2205C49.8257 79.9377 49.3252 79.2056 48.065 78.6454C46.344 77.8805 44.494 78.7746 44.5028 80.3673C44.5067 81.0464 44.8069 81.4729 45.498 81.7809C45.9414 81.9785 45.9516 81.9941 45.5901 81.9202C44.0109 81.5976 43.641 79.7224 44.9107 78.4774C46.4351 76.9829 49.5873 77.6423 50.6697 79.6824C51.1245 80.5393 51.1773 82.2458 50.7808 83.2762C49.8935 85.5826 47.3062 86.7955 44.6815 86.1355C42.8946 85.6861 42.1669 85.1995 40.0125 83.0136C36.2687 79.2148 34.8153 78.4788 29.4181 77.6488L28.3839 77.4898L29.5607 76.511Z" fill="#F50DB4"/>
<path fill-rule="evenodd" clip-rule="evenodd" d="M11.9946 8.52217C24.497 23.4693 33.108 29.6362 34.0649 30.9391C34.855 32.0149 34.5576 32.9821 33.2041 33.7401C32.4514 34.1615 30.9039 34.5885 30.129 34.5885C29.2527 34.5885 28.9518 34.2555 28.9518 34.2555C28.4437 33.7808 28.1575 33.8639 25.5481 29.3014C21.9254 23.7643 18.8937 19.171 18.811 19.0941C18.6198 18.9162 18.6231 18.9222 25.1787 30.4765C26.2379 32.8846 25.3894 33.7686 25.3894 34.1116C25.3894 34.8093 25.1962 35.1761 24.3224 36.1361C22.8657 37.7369 22.2146 39.5354 21.7445 43.2578C21.2175 47.4304 19.7358 50.378 15.6294 55.4226C13.2256 58.3756 12.8323 58.9169 12.2257 60.1071C11.4618 61.6059 11.2517 62.4454 11.1665 64.338C11.0766 66.3391 11.2518 67.6318 11.8725 69.545C12.4158 71.22 12.983 72.326 14.433 74.5382C15.6843 76.4472 16.4048 77.8659 16.4048 78.4209C16.4048 78.8625 16.4903 78.863 18.4293 78.4318C23.0695 77.3996 26.8374 75.5842 28.9565 73.3596C30.268 71.9826 30.5759 71.2222 30.5858 69.3353C30.5924 68.101 30.5483 67.8426 30.2096 67.1326C29.6583 65.9769 28.6546 65.0161 26.4423 63.5264C23.5437 61.5745 22.3057 60.0032 21.9637 57.8422C21.6832 56.069 22.0086 54.818 23.6122 51.5075C25.2719 48.0808 25.6832 46.6206 25.9614 43.1666C26.1411 40.9351 26.39 40.055 27.0409 39.3486C27.7197 38.612 28.3308 38.3626 30.0108 38.1365C32.7497 37.7679 34.4937 37.0699 35.9273 35.7687C37.1709 34.6399 37.6913 33.5522 37.7711 31.9148L37.8318 30.6737L37.1368 29.8756C34.6201 26.9851 10.3092 6.25 10.1543 6.25C10.1212 6.25 10.9494 7.27255 11.9946 8.52217ZM17.8175 66.6022C18.3865 65.6096 18.0842 64.3334 17.1324 63.7101C16.2331 63.121 14.836 63.3984 14.836 64.1661C14.836 64.4003 14.9675 64.5707 15.2638 64.721C15.7628 64.974 15.7991 65.2584 15.4065 65.8396C15.0088 66.4283 15.0409 66.9459 15.497 67.2976C16.232 67.8646 17.2726 67.5528 17.8175 66.6022Z" fill="#F50DB4"/>
<path fill-rule="evenodd" clip-rule="evenodd" d="M39.5602 38.7875C38.2744 39.1765 37.0246 40.5188 36.6377 41.9263C36.4016 42.785 36.5355 44.2912 36.8891 44.7564C37.4603 45.5077 38.0126 45.7057 39.5082 45.6953C42.4363 45.6752 44.9819 44.4382 45.2778 42.8917C45.5204 41.624 44.4024 39.8673 42.8625 39.096C42.0678 38.6982 40.3778 38.5403 39.5602 38.7875ZM42.9832 41.4241C43.4348 40.7921 43.2372 40.109 42.4693 39.647C41.0068 38.7674 38.7951 39.4953 38.7951 40.8562C38.7951 41.5337 39.9484 42.2728 41.0056 42.2728C41.7093 42.2728 42.6722 41.8595 42.9832 41.4241Z" fill="#F50DB4"/>
</g>
<path d="M74.9341 19.1563C75.0503 17.1381 75.3277 15.8069 75.8853 14.5912C76.1059 14.11 76.3127 13.7161 76.3446 13.7161C76.3766 13.7161 76.2806 14.0713 76.1314 14.5054C75.726 15.6852 75.6595 17.2989 75.9387 19.1765C76.2932 21.5587 76.4947 21.9024 79.046 24.4757C80.2427 25.6827 81.6347 27.205 82.1392 27.8586L83.0567 29.047L82.1392 28.1977C81.0172 27.1591 78.4368 25.1336 77.8669 24.8441C77.4847 24.6499 77.4279 24.6533 77.1921 24.8848C76.9749 25.0982 76.9291 25.4188 76.8989 26.9346C76.852 29.2969 76.5258 30.8132 75.7383 32.3293C75.3124 33.1494 75.2453 32.9743 75.6307 32.0488C75.9185 31.3577 75.9477 31.0539 75.9455 28.767C75.9411 24.1721 75.3884 23.0674 72.1467 21.1751C71.3255 20.6957 69.9725 20.0043 69.1399 19.6386C68.3074 19.2729 67.6461 18.9544 67.6702 18.9306C67.762 18.8404 70.9233 19.751 72.1957 20.2341C74.0884 20.9526 74.4008 21.0457 74.6307 20.959C74.7848 20.9009 74.8593 20.4581 74.9341 19.1563Z" fill="#F50DB4"/>
<path d="M34.9445 12.4716C33.8217 12.3 33.7744 12.2799 34.3028 12.1999C35.3153 12.0465 37.7063 12.2556 39.3539 12.6415C43.2003 13.5421 46.7004 15.8492 50.4364 19.9467L51.429 21.0352L52.8488 20.8104C58.8306 19.8635 64.916 20.616 70.0057 22.9321C71.4059 23.5693 73.6136 24.8376 73.8894 25.1636C73.9772 25.2675 74.1387 25.9361 74.2479 26.6496C74.626 29.1181 74.4367 31.0103 73.6703 32.4235C73.2532 33.1925 73.2299 33.4362 73.5103 34.0944C73.7342 34.6196 74.3583 35.0083 74.9762 35.0075C76.2411 35.0058 77.6025 32.9917 78.2333 30.1893L78.4838 29.0762L78.9802 29.63C81.7029 32.6686 83.8414 36.8125 84.2088 39.7621L84.3044 40.5312L83.8468 39.832C83.0591 38.629 82.2678 37.81 81.2544 37.1495C79.4276 35.9588 77.4961 35.5536 72.3807 35.2881C67.7607 35.0483 65.1459 34.6596 62.5532 33.8268C58.1418 32.4101 55.9181 30.5232 50.678 23.7512C48.3505 20.7433 46.912 19.0791 45.481 17.7388C42.2294 14.6936 39.0344 13.0965 34.9445 12.4716Z" fill="#F50DB4"/>
<path d="M37.1255 27.038C34.8461 23.9468 33.4358 19.2074 33.7412 15.6645L33.8356 14.5681L34.3544 14.6614C35.3288 14.8365 37.0087 15.4524 37.7954 15.923C39.9541 17.2145 40.8887 18.9148 41.8395 23.2808C42.118 24.5597 42.4834 26.0069 42.6515 26.4968C42.9222 27.2854 43.945 29.1275 44.7766 30.3239C45.3756 31.1855 44.9777 31.5938 43.6537 31.476C41.6316 31.2962 38.8925 29.4341 37.1255 27.038Z" fill="#F50DB4"/>
<path d="M72.1667 50.0436C61.5145 45.8189 57.7628 42.1519 57.7628 35.9644C57.7628 35.0539 57.7946 34.3089 57.8334 34.3089C57.8722 34.3089 58.2843 34.6094 58.7492 34.9767C60.9092 36.6833 63.3281 37.4122 70.0244 38.3745C73.9648 38.9408 76.1823 39.3981 78.2278 40.0664C84.7294 42.1903 88.752 46.5006 89.7112 52.3715C89.99 54.0773 89.8266 57.2764 89.3746 58.9624C89.0178 60.2941 87.9291 62.6945 87.6403 62.7865C87.5603 62.8121 87.4817 62.5098 87.4612 62.0986C87.3517 59.8941 86.2208 57.7479 84.3214 56.1402C82.162 54.3124 79.2606 52.8571 72.1667 50.0436Z" fill="#F50DB4"/>
<path d="M64.6885 51.7987C64.555 51.0164 64.3236 50.0174 64.1741 49.5786L63.9023 48.7809L64.4071 49.3391C65.1058 50.1115 65.6579 51.0999 66.1258 52.4163C66.4829 53.4211 66.5231 53.7199 66.5204 55.3527C66.5177 56.9556 66.473 57.2917 66.1433 58.196C65.6233 59.6221 64.978 60.6334 63.8951 61.7188C61.9493 63.6695 59.4476 64.7495 55.8375 65.1975C55.21 65.2753 53.381 65.4065 51.773 65.4888C47.7208 65.6965 45.0537 66.1253 42.6573 66.9542C42.3127 67.0735 42.0051 67.1459 41.9738 67.1151C41.8769 67.0201 43.5085 66.062 44.8562 65.4225C46.7565 64.5208 48.6482 64.0287 52.8865 63.3335C54.9802 62.99 57.1424 62.5733 57.6915 62.4075C62.8763 60.8415 65.5415 56.8006 64.6885 51.7987Z" fill="#F50DB4"/>
<path d="M69.5716 60.3411C68.1563 57.3442 67.8313 54.4507 68.6067 51.7522C68.6897 51.4638 68.823 51.2278 68.9033 51.2278C68.9834 51.2278 69.3175 51.4057 69.6453 51.623C70.2975 52.0555 71.6055 52.7838 75.0903 54.6554C79.4389 56.9908 81.9182 58.7991 83.6042 60.8652C85.0808 62.6747 85.9946 64.7353 86.4344 67.2482C86.6834 68.6717 86.5375 72.0967 86.1667 73.5301C84.9976 78.0495 82.2802 81.5996 78.4045 83.6711C77.8366 83.9745 77.3269 84.2237 77.2717 84.2248C77.2165 84.2259 77.4235 83.7077 77.7315 83.0732C79.0353 80.3885 79.1838 77.7771 78.198 74.8704C77.5945 73.0907 76.3639 70.9191 73.8792 67.2488C70.9905 62.9816 70.2822 61.8459 69.5716 60.3411Z" fill="#F50DB4"/>
<path d="M29.5607 76.511C33.5137 73.2233 38.4322 70.8876 42.9124 70.1707C44.8432 69.8617 48.0597 69.9844 49.8477 70.4352C52.7137 71.1576 55.2774 72.7758 56.6107 74.7037C57.9138 76.588 58.4728 78.23 59.0548 81.8834C59.2845 83.3246 59.5342 84.7718 59.6097 85.0994C60.0469 86.9928 60.8974 88.5062 61.9515 89.2663C63.6256 90.4733 66.5084 90.5484 69.3443 89.4587C69.8256 89.2738 70.2434 89.146 70.2728 89.1748C70.3756 89.2754 68.9477 90.217 67.9402 90.7127C66.5847 91.3797 65.5068 91.6375 64.0746 91.6375C61.4773 91.6375 59.321 90.336 57.5216 87.6822C57.1675 87.16 56.3717 85.5956 55.753 84.206C53.8533 79.9378 52.9152 78.6376 50.7094 77.2146C48.7898 75.9765 46.3141 75.7547 44.4517 76.6542C42.0053 77.8357 41.3228 80.9152 43.075 82.8668C43.7713 83.6424 45.07 84.3115 46.1319 84.4415C48.1185 84.6849 49.8257 83.1962 49.8257 81.2205C49.8257 79.9377 49.3252 79.2056 48.065 78.6454C46.344 77.8805 44.494 78.7746 44.5028 80.3673C44.5067 81.0464 44.8069 81.4729 45.498 81.7809C45.9414 81.9785 45.9516 81.9941 45.5901 81.9202C44.0109 81.5976 43.641 79.7224 44.9107 78.4774C46.4351 76.9829 49.5873 77.6423 50.6697 79.6824C51.1245 80.5393 51.1773 82.2458 50.7808 83.2762C49.8935 85.5826 47.3062 86.7955 44.6815 86.1355C42.8946 85.6861 42.1669 85.1995 40.0125 83.0136C36.2687 79.2148 34.8153 78.4788 29.4181 77.6488L28.3839 77.4898L29.5607 76.511Z" fill="#F50DB4"/>
<path fill-rule="evenodd" clip-rule="evenodd" d="M11.9946 8.52217C24.497 23.4693 33.108 29.6362 34.0649 30.9391C34.855 32.0149 34.5576 32.9821 33.2041 33.7401C32.4514 34.1615 30.9039 34.5885 30.129 34.5885C29.2527 34.5885 28.9518 34.2555 28.9518 34.2555C28.4437 33.7808 28.1575 33.8639 25.5481 29.3014C21.9254 23.7643 18.8937 19.171 18.811 19.0941C18.6198 18.9162 18.6231 18.9222 25.1787 30.4765C26.2379 32.8846 25.3894 33.7686 25.3894 34.1116C25.3894 34.8093 25.1962 35.1761 24.3224 36.1361C22.8657 37.7369 22.2146 39.5354 21.7445 43.2578C21.2175 47.4304 19.7358 50.378 15.6294 55.4226C13.2256 58.3756 12.8323 58.9169 12.2257 60.1071C11.4618 61.6059 11.2517 62.4454 11.1665 64.338C11.0766 66.3391 11.2518 67.6318 11.8725 69.545C12.4158 71.22 12.983 72.326 14.433 74.5382C15.6843 76.4472 16.4048 77.8659 16.4048 78.4209C16.4048 78.8625 16.4903 78.863 18.4293 78.4318C23.0695 77.3996 26.8374 75.5842 28.9565 73.3596C30.268 71.9826 30.5759 71.2222 30.5858 69.3353C30.5924 68.101 30.5483 67.8426 30.2096 67.1326C29.6583 65.9769 28.6546 65.0161 26.4423 63.5264C23.5437 61.5745 22.3057 60.0032 21.9637 57.8422C21.6832 56.069 22.0086 54.818 23.6122 51.5075C25.2719 48.0808 25.6832 46.6206 25.9614 43.1666C26.1411 40.9351 26.39 40.055 27.0409 39.3486C27.7197 38.612 28.3308 38.3626 30.0108 38.1365C32.7497 37.7679 34.4937 37.0699 35.9273 35.7687C37.1709 34.6399 37.6913 33.5522 37.7711 31.9148L37.8318 30.6737L37.1368 29.8756C34.6201 26.9851 10.3092 6.25 10.1543 6.25C10.1212 6.25 10.9494 7.27255 11.9946 8.52217ZM17.8175 66.6022C18.3865 65.6096 18.0842 64.3334 17.1324 63.7101C16.2331 63.121 14.836 63.3984 14.836 64.1661C14.836 64.4003 14.9675 64.5707 15.2638 64.721C15.7628 64.974 15.7991 65.2584 15.4065 65.8396C15.0088 66.4283 15.0409 66.9459 15.497 67.2976C16.232 67.8646 17.2726 67.5528 17.8175 66.6022Z" fill="#F50DB4"/>
<path fill-rule="evenodd" clip-rule="evenodd" d="M39.5602 38.7875C38.2744 39.1765 37.0246 40.5188 36.6377 41.9263C36.4016 42.785 36.5355 44.2912 36.8891 44.7564C37.4603 45.5077 38.0126 45.7057 39.5082 45.6953C42.4363 45.6752 44.9819 44.4382 45.2778 42.8917C45.5204 41.624 44.4024 39.8673 42.8625 39.096C42.0678 38.6982 40.3778 38.5403 39.5602 38.7875ZM42.9832 41.4241C43.4348 40.7921 43.2372 40.109 42.4693 39.647C41.0068 38.7674 38.7951 39.4953 38.7951 40.8562C38.7951 41.5337 39.9484 42.2728 41.0056 42.2728C41.7093 42.2728 42.6722 41.8595 42.9832 41.4241Z" fill="#F50DB4"/>
<defs>
<filter id="filter0_d_27438_17274" x="4.15332" y="0.25" width="91.6951" height="97.3875" filterUnits="userSpaceOnUse" color-interpolation-filters="sRGB">
<feFlood flood-opacity="0" result="BackgroundImageFix"/>
<feColorMatrix in="SourceAlpha" type="matrix" values="0 0 0 0 0 0 0 0 0 0 0 0 0 0 0 0 0 0 127 0" result="hardAlpha"/>
<feOffset/>
<feGaussianBlur stdDeviation="3"/>
<feComposite in2="hardAlpha" operator="out"/>
<feColorMatrix type="matrix" values="0 0 0 0 1 0 0 0 0 0 0 0 0 0 0.605405 0 0 0 0.15 0"/>
<feBlend mode="normal" in2="BackgroundImageFix" result="effect1_dropShadow_27438_17274"/>
<feBlend mode="normal" in="SourceGraphic" in2="effect1_dropShadow_27438_17274" result="shape"/>
</filter>
</defs>
</svg>
