<svg width="74" height="72" viewBox="0 0 74 72" fill="none" xmlns="http://www.w3.org/2000/svg">
<path d="M24.3747 21.5043C24.671 21.5043 24.9274 21.7105 24.991 21.9998C25.1664 22.7982 25.1791 24.1098 24.6141 25.1601C24.322 25.703 23.8683 26.1865 23.2031 26.4658C22.5432 26.7429 21.7375 26.7931 20.7823 26.5871C19.5609 26.3237 18.3363 25.6271 17.1951 24.7335C16.0477 23.8349 14.9472 22.7077 13.9724 21.5319C12.9967 20.3551 12.137 19.1177 11.4739 17.9903C10.8173 16.8739 10.3306 15.8269 10.132 15.0366C10.059 14.7459 10.2005 14.444 10.4706 14.3141C10.7407 14.1843 11.0649 14.2624 11.2463 14.501C12.087 15.6072 14.0213 17.3714 16.4539 18.8598C18.8877 20.3489 21.7272 21.5043 24.3747 21.5043Z" fill="white" stroke="black" stroke-width="1.26191" stroke-linejoin="round"/>
<mask id="path-2-outside-1_1930_115608" maskUnits="userSpaceOnUse" x="0.0805664" y="18.0469" width="56" height="43" fill="black">
<rect fill="white" x="0.0805664" y="18.0469" width="56" height="43"/>
<path fill-rule="evenodd" clip-rule="evenodd" d="M48.4887 52.6749C51.8537 49.2159 53.8899 44.7033 53.8899 39.7671C53.8899 28.8759 43.9775 20.0469 31.7499 20.0469C19.5224 20.0469 9.60998 28.8759 9.60998 39.7671C9.60998 40.805 9.69999 41.8241 9.87343 42.8186C5.25341 44.2149 2.08057 47.1039 2.08057 50.4413C2.08057 55.1444 8.38116 58.9569 16.1533 58.9569C18.6361 58.9569 20.9687 58.5679 22.9937 57.885C25.6793 58.9161 28.6397 59.4874 31.7499 59.4874C38.4356 59.4874 44.4292 56.8479 48.4887 52.6749Z"/>
</mask>
<path fill-rule="evenodd" clip-rule="evenodd" d="M48.4887 52.6749C51.8537 49.2159 53.8899 44.7033 53.8899 39.7671C53.8899 28.8759 43.9775 20.0469 31.7499 20.0469C19.5224 20.0469 9.60998 28.8759 9.60998 39.7671C9.60998 40.805 9.69999 41.8241 9.87343 42.8186C5.25341 44.2149 2.08057 47.1039 2.08057 50.4413C2.08057 55.1444 8.38116 58.9569 16.1533 58.9569C18.6361 58.9569 20.9687 58.5679 22.9937 57.885C25.6793 58.9161 28.6397 59.4874 31.7499 59.4874C38.4356 59.4874 44.4292 56.8479 48.4887 52.6749Z" fill="white"/>
<path d="M48.4887 52.6749L49.3932 53.5549L48.4887 52.6749ZM9.87343 42.8186L10.2385 44.0265L11.3086 43.7031L11.1166 42.6018L9.87343 42.8186ZM22.9937 57.885L23.446 56.707L23.0214 56.544L22.5905 56.6893L22.9937 57.885ZM52.628 39.7671C52.628 44.3432 50.743 48.548 47.5842 51.795L49.3932 53.5549C52.9645 49.8838 55.1518 45.0634 55.1518 39.7671H52.628ZM31.7499 21.3088C43.4219 21.3088 52.628 29.7062 52.628 39.7671H55.1518C55.1518 28.0457 44.5332 18.785 31.7499 18.785V21.3088ZM10.8719 39.7671C10.8719 29.7062 20.078 21.3088 31.7499 21.3088V18.785C18.9667 18.785 8.34807 28.0457 8.34807 39.7671H10.8719ZM11.1166 42.6018C10.9555 41.6784 10.8719 40.7318 10.8719 39.7671H8.34807C8.34807 40.8781 8.44444 41.9697 8.63029 43.0354L11.1166 42.6018ZM3.34248 50.4413C3.34248 47.9707 5.77784 45.3747 10.2385 44.0265L9.50835 41.6106C4.72899 43.0551 0.818657 46.2371 0.818657 50.4413H3.34248ZM16.1533 57.695C12.4585 57.695 9.17438 56.7862 6.85568 55.3831C4.5135 53.9658 3.34248 52.1807 3.34248 50.4413H0.818657C0.818657 53.405 2.79793 55.8776 5.54909 57.5424C8.32373 59.2214 12.076 60.2188 16.1533 60.2188V57.695ZM22.5905 56.6893C20.7028 57.3258 18.5071 57.695 16.1533 57.695V60.2188C18.7651 60.2188 21.2345 59.8099 23.3969 59.0808L22.5905 56.6893ZM31.7499 58.2255C28.7946 58.2255 25.9875 57.6827 23.446 56.707L22.5414 59.0631C25.3711 60.1496 28.4849 60.7493 31.7499 60.7493V58.2255ZM47.5842 51.795C43.7692 55.7165 38.1051 58.2255 31.7499 58.2255V60.7493C38.7662 60.7493 45.0891 57.9792 49.3932 53.5549L47.5842 51.795Z" fill="black" mask="url(#path-2-outside-1_1930_115608)"/>
<path d="M39.0719 21.5043C38.7762 21.5043 38.5201 21.7097 38.456 21.9984C38.2783 22.7979 38.2654 24.1112 38.8376 25.1627C39.1334 25.7063 39.592 26.1886 40.2622 26.4668C40.9266 26.7426 41.7385 26.793 42.7026 26.5874C43.9355 26.3246 45.1727 25.6291 46.3268 24.7356C47.487 23.8374 48.6 22.7104 49.586 21.5347C50.5728 20.3579 51.4423 19.1205 52.1131 17.993C52.7773 16.8766 53.2698 15.8293 53.4709 15.0382C53.5446 14.7481 53.4043 14.4461 53.135 14.3153C52.8657 14.1845 52.5416 14.2609 52.3592 14.4982C51.5085 15.6046 49.5517 17.3692 47.0903 18.8581C44.6282 20.3475 41.7536 21.5043 39.0719 21.5043Z" fill="white" stroke="black" stroke-width="1.26191" stroke-linejoin="round"/>
<path d="M9.27317 46.8448L9.50259 46.4782C9.93019 45.7949 9.38096 45.0323 8.64133 45.3527C7.81405 45.7111 6.82196 46.2689 5.87019 47.1255C5.44297 47.51 5.12141 47.8905 4.88077 48.2545C3.88061 49.7674 5.42411 51.2381 7.23768 51.2541C8.19162 51.2626 9.28694 51.2174 10.3799 51.0555C11.8292 50.8408 13.0434 50.1513 13.916 49.4901C14.561 49.0012 14.1621 48.1301 13.3534 48.1626L10.1134 48.2925C9.35325 48.323 8.8696 47.4897 9.27317 46.8448Z" fill="black"/>
<path d="M22.3604 55.8761C23.8648 55.9852 25.2756 55.8261 26.3472 55.4561C26.8819 55.2714 27.362 55.024 27.7263 54.7048C28.0935 54.3831 28.3749 53.9571 28.4127 53.4357C28.4505 52.9142 28.2335 52.4521 27.9166 52.0807C27.6022 51.7123 27.1628 51.3982 26.6604 51.1384C25.6534 50.6176 24.2803 50.2565 22.7758 50.1474C21.2714 50.0383 19.8606 50.1974 18.789 50.5675C18.2544 50.7521 17.7742 50.9995 17.4099 51.3187C17.0428 51.6404 16.7613 52.0665 16.7235 52.5879C16.6857 53.1093 16.9027 53.5714 17.2196 53.9428C17.534 54.3112 17.9735 54.6253 18.4759 54.8852C19.4829 55.4059 20.8559 55.767 22.3604 55.8761Z" fill="white" stroke="black" stroke-width="1.26191"/>
<line y1="-0.630955" x2="10.458" y2="-0.630955" transform="matrix(0.99738 0.0723377 -0.0723344 0.99738 17.2944 53.4453)" stroke="black" stroke-width="1.26191"/>
<line y1="-0.630955" x2="5.19898" y2="-0.630955" transform="matrix(-0.0723344 0.99738 -0.99738 -0.0723377 23.6921 50.0703)" stroke="black" stroke-width="1.26191"/>
<line y1="-0.630955" x2="5.19898" y2="-0.630955" transform="matrix(-0.0723344 0.99738 -0.99738 -0.0723377 19.9366 50.5742)" stroke="black" stroke-width="1.26191"/>
<path d="M23.6113 12.1879C23.4573 11.9346 23.1478 11.8226 22.8674 11.9188C22.587 12.015 22.4114 12.2934 22.4453 12.5878L23.4514 21.3197C23.618 22.7653 24.9556 23.7808 26.3928 23.5526C28.1885 23.2675 29.1214 21.2523 28.1769 19.6986L23.6113 12.1879Z" fill="url(#paint0_linear_1930_115608)" stroke="black" stroke-width="1.26191" stroke-linejoin="round"/>
<mask id="path-11-outside-2_1930_115608" maskUnits="userSpaceOnUse" x="53.3934" y="34.8259" width="22.6706" height="24.8274" fill="black">
<rect fill="white" x="53.3934" y="34.8259" width="22.6706" height="24.8274"/>
<path fill-rule="evenodd" clip-rule="evenodd" d="M57.6261 54.012C57.135 53.9721 56.7516 53.8134 56.5049 53.5249C55.2906 52.1043 57.8521 48.0728 62.2261 44.5205C66.6002 40.9681 71.1305 39.24 72.3449 40.6606C73.078 41.5183 72.435 43.3274 70.8479 45.4082C71.665 45.4935 72.234 45.7574 72.4517 46.2109C73.1324 47.6291 70.1196 50.3641 65.7223 52.3195C62.4196 53.7883 59.2752 54.3996 57.6261 54.012Z"/>
</mask>
<path fill-rule="evenodd" clip-rule="evenodd" d="M57.6261 54.012C57.135 53.9721 56.7516 53.8134 56.5049 53.5249C55.2906 52.1043 57.8521 48.0728 62.2261 44.5205C66.6002 40.9681 71.1305 39.24 72.3449 40.6606C73.078 41.5183 72.435 43.3274 70.8479 45.4082C71.665 45.4935 72.234 45.7574 72.4517 46.2109C73.1324 47.6291 70.1196 50.3641 65.7223 52.3195C62.4196 53.7883 59.2752 54.3996 57.6261 54.012Z" fill="url(#paint1_linear_1930_115608)"/>
<path d="M57.6261 54.012L57.9148 52.7835C57.8534 52.7691 57.791 52.7593 57.7282 52.7542L57.6261 54.012ZM56.5049 53.5249L55.5457 54.3449L55.5457 54.3449L56.5049 53.5249ZM62.2261 44.5205L61.4306 43.5409L62.2261 44.5205ZM72.3449 40.6606L71.3857 41.4806L71.3857 41.4806L72.3449 40.6606ZM70.8479 45.4082L69.8445 44.6428C69.5678 45.0056 69.5085 45.4895 69.6893 45.9084C69.8702 46.3272 70.2631 46.6159 70.7169 46.6633L70.8479 45.4082ZM72.4517 46.2109L71.314 46.757L72.4517 46.2109ZM65.7223 52.3195L66.2351 53.4726L65.7223 52.3195ZM57.7282 52.7542C57.5875 52.7428 57.5078 52.7177 57.4715 52.7021C57.44 52.6886 57.4475 52.6855 57.4642 52.705L55.5457 54.3449C56.0816 54.9718 56.8316 55.2135 57.524 55.2697L57.7282 52.7542ZM57.4642 52.705C57.5255 52.7768 57.4073 52.7335 57.5045 52.2864C57.5986 51.8541 57.859 51.248 58.335 50.4988C59.279 49.0131 60.9099 47.2151 63.0217 45.5L61.4306 43.5409C59.1683 45.3782 57.3314 47.3721 56.2048 49.1453C55.6454 50.0257 55.2198 50.9159 55.0384 51.75C54.8602 52.5693 54.8772 53.5627 55.5457 54.3449L57.4642 52.705ZM63.0217 45.5C65.1329 43.7855 67.244 42.5441 68.9202 41.9047C69.7645 41.5827 70.4326 41.4388 70.9004 41.4263C71.3906 41.4132 71.4384 41.5422 71.3857 41.4806L73.3041 39.8407C72.6442 39.0687 71.6703 38.881 70.8329 38.9034C69.973 38.9264 69.0075 39.1702 68.0207 39.5466C66.0346 40.3042 63.6935 41.7031 61.4306 43.5409L63.0217 45.5ZM71.3857 41.4806C71.3132 41.3958 71.4919 41.4945 71.2668 42.1842C71.0603 42.8169 70.5933 43.6612 69.8445 44.6428L71.8512 46.1735C72.6896 45.0744 73.3376 43.9737 73.6661 42.9673C73.976 42.0178 74.1096 40.7831 73.3041 39.8407L71.3857 41.4806ZM70.7169 46.6633C71.0333 46.6963 71.2227 46.7572 71.3185 46.8042C71.4057 46.8471 71.3576 46.8477 71.314 46.757L73.5893 45.6649C73.0698 44.5825 71.8893 44.2481 70.9789 44.1531L70.7169 46.6633ZM71.314 46.757C71.2372 46.5968 71.3566 46.582 71.1885 46.902C71.0285 47.2068 70.6953 47.6281 70.1431 48.1294C69.05 49.1216 67.321 50.2275 65.2095 51.1665L66.2351 53.4726C68.5208 52.4561 70.4969 51.2168 71.8394 49.9981C72.5049 49.394 73.0722 48.7434 73.423 48.0755C73.7658 47.4227 74.0066 46.5342 73.5893 45.6649L71.314 46.757ZM65.2095 51.1665C63.6302 51.8688 62.1053 52.3583 60.8007 52.6257C59.4622 52.9 58.4759 52.9154 57.9148 52.7835L57.3374 55.2404C58.4254 55.4961 59.8358 55.3997 61.3075 55.0981C62.813 54.7896 64.5117 54.239 66.2351 53.4726L65.2095 51.1665Z" fill="black" mask="url(#path-11-outside-2_1930_115608)"/>
<ellipse cx="14.8446" cy="37.3595" rx="3.31248" ry="4.96883" fill="black"/>
<ellipse cx="14.9235" cy="37.3605" rx="1.4985" ry="2.60272" fill="white"/>
<ellipse cx="27.7795" cy="37.3595" rx="3.31248" ry="4.96883" fill="black"/>
<ellipse cx="27.8581" cy="37.3605" rx="1.4985" ry="2.60272" fill="white"/>
<path d="M34.2463 54.3156C34.2463 51.2381 35.3257 47.5016 37.9302 45.6216C40.1969 43.9853 43.0541 43.828 45.7611 44.284" stroke="black" stroke-width="1.26191"/>
<defs>
<linearGradient id="paint0_linear_1930_115608" x1="27.4989" y1="4.1016" x2="19.0152" y2="20.2113" gradientUnits="userSpaceOnUse">
<stop stop-color="#FF24A7"/>
<stop offset="1" stop-color="white"/>
</linearGradient>
<linearGradient id="paint1_linear_1930_115608" x1="66.7203" y1="38.9751" x2="63.2492" y2="55.4808" gradientUnits="userSpaceOnUse">
<stop stop-color="#FF24A7"/>
<stop offset="1" stop-color="white"/>
</linearGradient>
</defs>
</svg>
