<svg xmlns="http://www.w3.org/2000/svg" width="12" height="12" viewBox="0 0 12 12" fill="none">
  <path d="M8.25 6.375H9V7.125H8.25V6.375Z" fill="#9B9B9B"/>
  <path d="M10.5 3H1.5V1.875H9.75V1.125H1.5C1.30109 1.125 1.11032 1.20402 0.96967 1.34467C0.829018 1.48532 0.75 1.67609 0.75 1.875V9.75C0.75 9.94891 0.829018 10.1397 0.96967 10.2803C1.11032 10.421 1.30109 10.5 1.5 10.5H10.5C10.6989 10.5 10.8897 10.421 11.0303 10.2803C11.171 10.1397 11.25 9.94891 11.25 9.75V3.75C11.25 3.55109 11.171 3.36032 11.0303 3.21967C10.8897 3.07902 10.6989 3 10.5 3ZM1.5 9.75V3.75H10.5V4.875H7.5C7.30109 4.875 7.11032 4.95402 6.96967 5.09467C6.82902 5.23532 6.75 5.42609 6.75 5.625V7.875C6.75 8.07391 6.82902 8.26468 6.96967 8.40533C7.11032 8.54598 7.30109 8.625 7.5 8.625H10.5V9.75H1.5ZM10.5 5.625V7.875H7.5V5.625H10.5Z" fill="#9B9B9B"/>
</svg>