<svg width="56" height="56" viewBox="0 0 56 56" fill="none" xmlns="http://www.w3.org/2000/svg">
<path fill-rule="evenodd" clip-rule="evenodd" d="M51.2317 22.6595C48.6915 21.1955 44.35 23.6479 40.2231 28.4319C41.8911 27.1368 43.4403 26.6369 44.4834 27.2381C46.5916 28.4531 45.834 33.7031 42.791 38.9644C39.7479 44.2257 35.572 47.5056 33.4639 46.2906C32.4208 45.6895 32.0799 44.1002 32.3694 42.0108C30.2824 47.9704 30.3255 52.9497 32.8657 54.4137C36.3795 56.4388 43.3392 50.9721 48.4109 42.2033C53.4825 33.4345 54.7454 24.6845 51.2317 22.6595Z" fill="url(#paint0_linear_3867_2580)"/>
<path fill-rule="evenodd" clip-rule="evenodd" d="M12.8513 42.8789C9.33754 40.8538 10.6004 32.1039 15.6721 23.3351C20.7438 14.5663 27.7035 9.09955 31.2172 11.1246C32.9635 12.131 33.5296 14.7991 33.0346 18.3041C35.4533 10.3517 35.0779 3.82331 31.5058 1.76463C26.2351 -1.27298 16.0013 6.57153 8.64725 19.2865C1.29323 32.0014 -0.395471 44.7707 4.87517 47.8083C8.44725 49.867 14.2988 46.9273 19.9887 40.8602C17.1954 43.0406 14.5976 43.8853 12.8513 42.8789Z" fill="url(#paint1_linear_3867_2580)"/>
<path d="M37.8593 32.9465L28.3161 27.4465C24.8023 25.4214 23.5985 20.9365 25.6271 17.429L35.1704 22.929C38.6841 24.954 39.888 29.439 37.8593 32.9465Z" fill="#00C6D2"/>
<path d="M25.0691 40.3938L15.5259 34.8938C17.5545 31.3863 22.0475 30.1845 25.5612 32.2096L35.1044 37.7096C33.0758 41.2171 28.5829 42.4189 25.0691 40.3938Z" fill="#00C6D2"/>
<defs>
<linearGradient id="paint0_linear_3867_2580" x1="32.791" y1="54.5877" x2="49.8749" y2="23.6947" gradientUnits="userSpaceOnUse">
<stop stop-color="#009EFD"/>
<stop offset="1" stop-color="#12EFCF"/>
</linearGradient>
<linearGradient id="paint1_linear_3867_2580" x1="34.9718" y1="2.6049" x2="8.29844" y2="50.0447" gradientUnits="userSpaceOnUse">
<stop stop-color="#009EFD"/>
<stop offset="1" stop-color="#12EFCF"/>
</linearGradient>
</defs>
</svg>
