<svg width="845" height="163" viewBox="0 0 845 163" fill="none" xmlns="http://www.w3.org/2000/svg">
<path d="M90.6882 74.4638L102.623 54.2118L134.793 104.317L134.808 113.933L134.703 47.7638C134.627 46.1458 133.768 44.6658 132.398 43.7928L74.4802 10.4788C73.1262 9.8128 71.4072 9.8208 70.0552 10.4998C69.8722 10.5918 69.7012 10.6908 69.5372 10.7998L69.3352 10.9268L13.1162 43.5048L12.8982 43.6048C12.6172 43.7328 12.3342 43.8978 12.0672 44.0878C11.0012 44.8518 10.2932 45.9828 10.0642 47.2498C10.0302 47.4418 10.0042 47.6378 9.99316 47.8358L10.0812 101.757L40.0462 55.3138C43.8182 49.1558 52.0382 47.1708 59.6692 47.2798L68.6242 47.5158L15.8572 132.139L22.0772 135.72L75.4762 47.6018L99.0792 47.5158L45.8182 137.858L68.0132 150.625L70.6652 152.149C71.7872 152.605 73.1092 152.628 74.2402 152.219L132.972 118.183L121.743 124.69L90.6882 74.4638ZM95.2412 140.049L72.8242 104.864L86.5092 81.6418L115.95 128.047L95.2412 140.049Z" fill="#2D374B"/>
<path d="M72.8232 104.865L95.2412 140.049L115.949 128.048L86.5082 81.6431L72.8232 104.865Z" fill="#28A0F0"/>
<path d="M134.808 113.934L134.793 104.318L102.623 54.2129L90.6885 74.4649L121.744 124.691L132.973 118.184C134.074 117.29 134.741 115.977 134.811 114.561L134.808 113.934Z" fill="#28A0F0"/>
<path d="M0 123.002L15.857 132.139L68.624 47.516L59.669 47.28C52.039 47.172 43.819 49.156 40.046 55.314L10.081 101.757L0 117.246V123.002Z" fill="white"/>
<path d="M99.0791 47.5161L75.4762 47.6021L22.0771 135.72L40.7421 146.466L45.8172 137.858L99.0791 47.5161Z" fill="white"/>
<path d="M144.754 47.394C144.557 42.458 141.884 37.94 137.698 35.309L79.021 1.565C74.88 -0.52 69.707 -0.522999 65.558 1.564C65.068 1.811 8.496 34.621 8.496 34.621C7.713 34.996 6.959 35.443 6.25 35.951C2.513 38.63 0.235 42.792 0 47.364V117.247L10.081 101.758L9.993 47.836C10.005 47.639 10.03 47.444 10.064 47.253C10.292 45.984 11.001 44.853 12.067 44.088C12.334 43.898 69.871 10.592 70.054 10.5C71.407 9.821 73.125 9.813 74.479 10.479L132.397 43.793C133.767 44.666 134.626 46.146 134.702 47.764V114.559C134.632 115.975 134.072 117.288 132.971 118.182L121.742 124.689L115.948 128.047L95.24 140.048L74.239 152.218C73.108 152.627 71.785 152.604 70.664 152.148L45.817 137.857L40.741 146.465L63.071 159.321C63.809 159.741 64.467 160.113 65.007 160.417C65.843 160.886 66.413 161.199 66.614 161.297C68.201 162.068 70.484 162.516 72.542 162.516C74.428 162.516 76.268 162.17 78.009 161.488L139.008 126.163C142.509 123.45 144.569 119.359 144.754 114.928V47.394Z" fill="#96BEDC"/>
<path d="M207.771 56.4551C209.529 56.4551 211.009 56.8141 212.212 57.5311C213.415 58.2491 214.595 59.6481 215.753 61.7311L238.73 103.45C238.96 103.913 239.019 104.295 238.904 104.596C238.789 104.898 238.453 105.047 237.898 105.047H229.082C228.295 105.047 227.764 104.746 227.484 104.145L222.556 95.1901H189.931L185.14 104.145C184.816 104.747 184.285 105.047 183.544 105.047H174.521C173.917 105.047 173.56 104.898 173.445 104.596C173.328 104.295 173.386 103.913 173.617 103.45L196.387 61.7311C197.543 59.6481 198.678 58.2491 199.789 57.5311C200.898 56.8141 202.193 56.4551 203.676 56.4551H207.771ZM194.304 87.1371H218.183L207.146 66.7981C206.96 66.4751 206.705 66.3121 206.382 66.3121H205.966C205.642 66.3121 205.386 66.4751 205.202 66.7981L194.304 87.1371Z" fill="#2D364D"/>
<path d="M311.623 56.4551C316.945 56.4551 320.764 57.6591 323.078 60.0651C325.391 62.4711 326.549 66.0351 326.549 70.7541V74.7111C326.549 78.6911 325.738 81.8381 324.119 84.1511C322.498 86.4651 319.859 87.9461 316.205 88.5931L328.076 103.31C328.306 103.542 328.375 103.889 328.283 104.351C328.189 104.814 327.82 105.045 327.174 105.045H318.219C317.617 105.045 317.199 104.976 316.969 104.837C316.737 104.698 316.506 104.467 316.276 104.143L305.307 89.7051H282.885V103.518C282.885 104.537 282.375 105.045 281.358 105.045H273.862C272.798 105.045 272.264 104.536 272.264 103.518V58.5371C272.264 57.1481 272.959 56.4541 274.348 56.4541H311.623V56.4551ZM282.885 81.2371H309.473C311.832 81.2371 313.498 80.7281 314.469 79.7101C315.442 78.6921 315.928 77.1421 315.928 75.0591V72.1441C315.928 70.0621 315.442 68.5111 314.469 67.4931C313.498 66.4761 311.832 65.9671 309.473 65.9671H283.787C283.185 65.9671 282.885 66.2441 282.885 66.8001V81.2371Z" fill="#2D364D"/>
<path d="M404.175 56.4551C408.943 56.4551 412.331 57.4041 414.345 59.3021C416.359 61.2001 417.365 64.0691 417.365 67.9091V71.2411C417.365 75.1291 415.885 78.0671 412.924 80.0561C416.115 81.9081 417.713 84.8931 417.713 89.0111V93.0371C417.713 94.8891 417.504 96.5551 417.088 98.0351C416.672 99.5161 415.988 100.776 415.041 101.818C414.092 102.859 412.83 103.657 411.258 104.213C409.684 104.769 407.74 105.046 405.426 105.046H364.194C362.805 105.046 362.11 104.352 362.11 102.964V58.5371C362.11 57.1481 362.805 56.4541 364.194 56.4541H404.175V56.4551ZM372.73 76.6551H401.191C403.505 76.6551 405.078 76.3081 405.912 75.6141C406.744 74.9201 407.162 73.9021 407.162 72.5591V70.2001C407.162 68.7651 406.756 67.7131 405.947 67.0411C405.136 66.3711 403.83 66.0351 402.025 66.0351H373.632C373.03 66.0351 372.73 66.3371 372.73 66.9371V76.6551ZM372.73 84.2211V94.5651C372.73 95.1671 373.031 95.4671 373.632 95.4671H402.093C403.945 95.4671 405.263 95.1311 406.05 94.4601C406.837 93.7901 407.23 92.7141 407.23 91.2321V88.5931C407.23 87.1591 406.802 86.0721 405.947 85.3311C405.09 84.5911 403.506 84.2201 401.191 84.2201H372.73V84.2211Z" fill="#2D364D"/>
<path d="M461.772 56.4551C462.79 56.4551 463.299 56.9651 463.299 57.9821V103.519C463.299 104.538 462.789 105.046 461.772 105.046H454.274C453.21 105.046 452.678 104.537 452.678 103.519V57.9821C452.678 56.9641 453.209 56.4551 454.274 56.4551H461.772Z" fill="#2D364D"/>
<path d="M552.677 56.4551C553.741 56.4551 554.275 56.9651 554.275 57.9821V64.7851C554.275 65.8501 553.742 66.3821 552.677 66.3821H530.88V103.52C530.88 104.539 530.37 105.047 529.353 105.047H521.787C520.769 105.047 520.262 104.538 520.262 103.52V66.3821H498.465C497.399 66.3821 496.867 65.8511 496.867 64.7851V57.9821C496.867 56.9641 497.398 56.4551 498.465 56.4551H552.677Z" fill="#2D364D"/>
<path d="M627.132 56.4551C632.454 56.4551 636.273 57.6591 638.587 60.0651C640.9 62.4711 642.058 66.0351 642.058 70.7541V74.7111C642.058 78.6911 641.247 81.8381 639.628 84.1511C638.007 86.4651 635.368 87.9461 631.714 88.5931L643.585 103.31C643.815 103.542 643.884 103.889 643.792 104.351C643.698 104.814 643.329 105.045 642.683 105.045H633.728C633.126 105.045 632.708 104.976 632.478 104.837C632.246 104.698 632.015 104.467 631.785 104.143L620.816 89.7051H598.394V103.518C598.394 104.537 597.884 105.045 596.867 105.045H589.371C588.307 105.045 587.773 104.536 587.773 103.518V58.5371C587.773 57.1481 588.468 56.4541 589.857 56.4541H627.132V56.4551ZM598.394 81.2371H624.982C627.341 81.2371 629.007 80.7281 629.978 79.7101C630.951 78.6921 631.437 77.1421 631.437 75.0591V72.1441C631.437 70.0621 630.951 68.5111 629.978 67.4931C629.007 66.4761 627.341 65.9671 624.982 65.9671H599.296C598.694 65.9671 598.394 66.2441 598.394 66.8001V81.2371Z" fill="#2D364D"/>
<path d="M685.698 56.4551C686.716 56.4551 687.225 56.9651 687.225 57.9821V85.6791C687.225 87.5311 687.375 89.0701 687.676 90.2951C687.977 91.5221 688.475 92.4931 689.168 93.2101C689.863 93.9291 690.801 94.4381 691.981 94.7371C693.161 95.0391 694.653 95.1881 696.458 95.1881H715.687C717.492 95.1881 718.984 95.0391 720.164 94.7371C721.346 94.4371 722.281 93.9281 722.977 93.2101C723.67 92.4931 724.157 91.5221 724.434 90.2951C724.711 89.0691 724.85 87.5301 724.85 85.6791V57.9821C724.85 56.9641 725.36 56.4551 726.377 56.4551H733.943C734.961 56.4551 735.47 56.9651 735.47 57.9821V86.7201C735.47 90.0521 735.124 92.8871 734.429 95.2241C733.736 97.5611 732.613 99.4581 731.062 100.916C729.511 102.373 727.499 103.427 725.023 104.074C722.548 104.722 719.55 105.046 716.035 105.046H696.043C692.525 105.046 689.541 104.723 687.088 104.074C684.635 103.427 682.633 102.373 681.084 100.916C679.533 99.4581 678.398 97.5611 677.682 95.2241C676.966 92.8871 676.606 90.0521 676.606 86.7201V57.9821C676.606 56.9641 677.137 56.4551 678.204 56.4551H685.698Z" fill="#2D364D"/>
<path d="M784.916 56.4551C785.934 56.4551 786.812 56.5241 787.553 56.6641C788.293 56.8031 788.942 57.0691 789.496 57.4621C790.053 57.8561 790.549 58.3891 790.988 59.0591C791.427 59.7301 791.879 60.6211 792.343 61.7321L806.781 95.0511C806.965 95.4681 807.291 95.6761 807.754 95.6761H808.586C809.049 95.6761 809.373 95.4681 809.559 95.0511L823.997 61.7321C824.46 60.6211 824.911 59.7301 825.351 59.0591C825.79 58.3891 826.289 57.8561 826.843 57.4621C827.4 57.0691 828.034 56.8031 828.753 56.6641C829.47 56.5241 830.337 56.4551 831.357 56.4551H838.785C841.189 56.4551 842.81 57.0001 843.642 58.0871C844.476 59.1751 844.892 61.0371 844.892 63.6751V103.52C844.892 104.539 844.361 105.047 843.296 105.047H836.216C835.196 105.047 834.689 104.538 834.689 103.52V67.2851C834.689 66.8231 834.503 66.5911 834.132 66.5911H833.507C833.044 66.5911 832.743 66.7771 832.605 67.1471L818.584 98.2461C818.029 99.4951 817.461 100.549 816.883 101.404C816.305 102.261 815.68 102.967 815.01 103.521C814.338 104.077 813.574 104.47 812.719 104.702C811.862 104.933 810.856 105.049 809.699 105.049H806.367C805.209 105.049 804.203 104.934 803.347 104.702C802.49 104.471 801.726 104.077 801.056 103.521C800.384 102.966 799.759 102.261 799.181 101.404C798.603 100.549 798.036 99.4951 797.482 98.2461L783.459 67.1471C783.32 66.7771 783.02 66.5911 782.557 66.5911H781.932C781.561 66.5911 781.377 66.8231 781.377 67.2851V103.52C781.377 104.539 780.867 105.047 779.85 105.047H772.77C771.706 105.047 771.172 104.538 771.172 103.52V63.6751C771.172 61.0371 771.59 59.1751 772.422 58.0871C773.256 57.0001 774.897 56.4551 777.352 56.4551H784.916Z" fill="#2D364D"/>
</svg>
