<svg width="19" height="21" viewBox="0 0 19 21" fill="none" xmlns="http://www.w3.org/2000/svg">
<path d="M11.6605 9.66385L13.1292 7.17154L17.0882 13.3377L17.0901 14.5211L17.0771 6.37802C17.0678 6.1789 16.9621 5.99676 16.7935 5.88933L9.66582 1.78955C9.49919 1.70758 9.28764 1.70857 9.12125 1.79213C9.09873 1.80345 9.07769 1.81564 9.05751 1.82905L9.03265 1.84468L2.11407 5.85388L2.08724 5.86619C2.05266 5.88194 2.01783 5.90225 1.98497 5.92563C1.85379 6.01965 1.76666 6.15884 1.73847 6.31476C1.73429 6.33839 1.73109 6.36251 1.72974 6.38688L1.74057 13.0227L5.4282 7.30716C5.8924 6.54932 6.904 6.30504 7.8431 6.31845L8.94515 6.3475L2.45139 16.7616L3.21685 17.2023L9.78839 6.35808L12.6931 6.3475L6.13853 17.4654L8.86996 19.0366L9.19632 19.2241C9.3344 19.2803 9.49709 19.2831 9.63628 19.2327L16.8641 15.0441L15.4822 15.8449L11.6605 9.66385ZM12.2208 17.735L9.46202 13.405L11.1462 10.5472L14.7693 16.258L12.2208 17.735Z" fill="#2E17F2"/>
<path opacity="0.8" d="M9.46191 13.4052L12.2208 17.7351L14.7692 16.2582L11.1461 10.5474L9.46191 13.4052Z" fill="white"/>
<path opacity="0.8" d="M17.0903 14.5214L17.0884 13.338L13.1294 7.17188L11.6606 9.66418L15.4825 15.8452L16.8644 15.0445C16.9999 14.9344 17.082 14.7728 17.0906 14.5986L17.0903 14.5214Z" fill="white"/>
<path d="M0.5 15.6371L2.45144 16.7615L8.9452 6.34742L7.84315 6.31838C6.90417 6.30509 5.89258 6.54925 5.42825 7.30708L1.74062 13.0226L0.5 14.9287V15.6371Z" fill="white"/>
<path d="M12.693 6.34741L9.78833 6.358L3.2168 17.2022L5.5138 18.5247L6.13836 17.4653L12.693 6.34741Z" fill="white"/>
<path opacity="0.8" d="M18.3141 6.33253C18.2899 5.72509 17.9609 5.16908 17.4458 4.8453L10.2247 0.692596C9.71509 0.436006 9.07848 0.435637 8.56788 0.692473C8.50758 0.72287 1.54556 4.76063 1.54556 4.76063C1.4492 4.80678 1.35641 4.86179 1.26916 4.9243C0.809262 5.25399 0.52892 5.76619 0.5 6.32884V14.929L1.74062 13.0228L1.72979 6.38693C1.73126 6.36268 1.73434 6.33869 1.73852 6.31518C1.76658 6.15901 1.85384 6.01983 1.98502 5.92568C2.01788 5.9023 9.09866 1.8035 9.12118 1.79218C9.28769 1.70862 9.49911 1.70764 9.66574 1.7896L16.7934 5.88938C16.962 5.99681 17.0677 6.17895 17.0771 6.37807V14.5982C17.0685 14.7724 16.9995 14.934 16.864 15.044L15.4822 15.8448L14.7691 16.2581L12.2207 17.735L9.63621 19.2327C9.49702 19.283 9.33421 19.2802 9.19625 19.2241L6.13846 17.4653L5.51378 18.5247L8.26182 20.1068C8.35264 20.1585 8.43362 20.2043 8.50007 20.2417C8.60296 20.2994 8.6731 20.3379 8.69784 20.35C8.89314 20.4449 9.1741 20.5 9.42737 20.5C9.65947 20.5 9.88591 20.4574 10.1002 20.3735L17.607 16.0262C18.0378 15.6924 18.2914 15.1889 18.3141 14.6436V6.33253Z" fill="white"/>
</svg>
