<svg width="128" height="128" viewBox="0 0 128 128" fill="none" xmlns="http://www.w3.org/2000/svg">
<path d="M78.4191 58.65L87.8184 42.6992L113.154 82.1627L113.165 89.7364L113.083 37.6207C113.023 36.3463 112.346 35.1807 111.267 34.4931L65.6546 8.25449C64.5882 7.72994 63.2345 7.73624 62.1697 8.27103C62.0256 8.34349 61.8909 8.42147 61.7618 8.50732L61.6027 8.60734L17.3278 34.2663L17.1561 34.345C16.9348 34.4458 16.7119 34.5758 16.5017 34.7254C15.6621 35.3272 15.1046 36.218 14.9242 37.2159C14.8974 37.3671 14.877 37.5215 14.8683 37.6774L14.9376 80.1464L38.5363 43.5672C41.5069 38.7171 47.9805 37.1537 53.9903 37.2395L61.0427 37.4254L19.4865 104.076L24.385 106.896L66.439 37.4931L85.0273 37.4254L43.082 108.58L60.5615 118.636L62.6501 119.836C63.5337 120.195 64.5749 120.213 65.4656 119.891L111.72 93.0837L102.876 98.2088L78.4191 58.65ZM82.0048 110.306L64.3504 82.5935L75.1279 64.3035L98.314 100.853L82.0048 110.306Z" fill="#2D374B"/>
<path d="M64.3511 82.5931L82.0062 110.304L98.3147 100.852L75.1286 64.3031L64.3511 82.5931Z" fill="#28A0F0"/>
<path d="M113.165 89.737L113.153 82.1633L87.8182 42.6999L78.4189 58.6506L102.877 98.2094L111.72 93.0844C112.587 92.3802 113.113 91.3461 113.168 90.2308L113.165 89.737Z" fill="#28A0F0"/>
<path d="M7 96.8775L19.4881 104.074L61.0443 37.4236L53.9919 37.2377C47.9829 37.1527 41.5093 38.7153 38.5379 43.5654L14.9392 80.1446L7 92.344V96.8775V96.8775Z" fill="white"/>
<path d="M85.0284 37.4248L66.44 37.4925L24.386 106.896L39.0855 115.359L43.0823 108.58L85.0284 37.4248Z" fill="white"/>
<path d="M121 37.3282C120.845 33.4405 118.74 29.8821 115.443 27.8099L69.2324 1.23262C65.9712 -0.40956 61.8973 -0.411922 58.6297 1.23183C58.2438 1.42637 13.691 27.268 13.691 27.268C13.0743 27.5634 12.4805 27.9154 11.9221 28.3155C8.9791 30.4256 7.18507 33.7036 7 37.3046V92.3455L14.9392 80.1461L14.8699 37.6763C14.8794 37.5212 14.8991 37.3676 14.9258 37.2172C15.1054 36.2177 15.6638 35.3269 16.5033 34.7244C16.7136 34.5747 62.0264 8.34242 62.1705 8.26996C63.2361 7.73517 64.5891 7.72886 65.6554 8.25342L111.268 34.492C112.347 35.1796 113.024 36.3453 113.084 37.6196V90.2284C113.028 91.3436 112.587 92.3778 111.72 93.0819L102.877 98.2069L98.314 100.852L82.0056 110.304L65.4664 119.889C64.5757 120.211 63.5338 120.193 62.6509 119.834L43.0829 108.578L39.0853 115.358L56.6711 125.484C57.2523 125.814 57.7705 126.107 58.1958 126.347C58.8542 126.716 59.3031 126.963 59.4614 127.04C60.7112 127.647 62.5092 128 64.1299 128C65.6153 128 67.0643 127.727 68.4354 127.19L116.475 99.3678C119.232 97.231 120.854 94.0089 121 90.519V37.3282Z" fill="#96BEDC"/>
</svg>
