<?xml version="1.0" standalone="no"?>
<!DOCTYPE svg PUBLIC "-//W3C//DTD SVG 20010904//EN"
 "http://www.w3.org/TR/2001/REC-SVG-20010904/DTD/svg10.dtd">
<svg version="1.0" xmlns="http://www.w3.org/2000/svg"
 width="596.000000pt" height="596.000000pt" viewBox="0 0 596.000000 596.000000"
 preserveAspectRatio="xMidYMid meet">
<metadata>
Created by potrace 1.15, written by Peter Selinger 2001-2017
</metadata>
<g transform="translate(0.000000,596.000000) scale(0.100000,-0.100000)"
fill="#FF4C2F" stroke="none">
<path d="M1870 4964 c-300 -96 -602 -192 -673 -214 l-127 -41 0 -882 c0 -528
4 -926 10 -992 44 -462 244 -900 578 -1264 76 -83 1282 -1134 1316 -1147 14
-5 1074 899 1248 1065 302 287 538 707 622 1109 44 212 47 291 44 1231 l-3
884 -679 214 c-373 117 -680 212 -682 211 -1 -2 55 -113 126 -248 l129 -245
193 -62 c106 -34 266 -85 356 -113 l163 -51 -4 -812 c-3 -780 -4 -816 -24
-907 -76 -343 -233 -634 -474 -880 -46 -47 -280 -254 -519 -459 -239 -206
-447 -385 -462 -399 l-26 -24 -459 395 c-561 484 -645 566 -779 772 -103 159
-179 330 -225 507 -45 180 -49 247 -49 1049 l0 757 143 45 c78 25 238 76 355
113 116 37 212 71 212 74 0 3 56 113 125 244 69 132 125 241 125 243 0 6 -12
2 -560 -173z"/>
<path d="M2954 5108 c-9 -18 -261 -499 -559 -1068 l-542 -1035 8 -84 c18 -172
82 -354 186 -519 37 -60 48 -71 58 -60 6 7 204 381 440 831 235 449 430 817
434 817 3 0 201 -364 439 -808 238 -444 437 -815 443 -825 10 -17 12 -16 28 5
103 135 188 358 212 555 l12 100 -568 1059 c-312 582 -569 1061 -571 1062 -1
2 -10 -11 -20 -30z"/>
<path d="M2700 2561 l-275 -549 155 -135 c85 -74 210 -181 277 -237 l123 -102
27 22 c16 12 139 119 274 238 l247 216 -274 548 c-151 301 -275 548 -277 548
-1 0 -126 -247 -277 -549z"/>
</g>
</svg>
