<svg xmlns="http://www.w3.org/2000/svg" viewBox="0 0 1736 2036.92">
    <defs>
        <style>
            .cls-2{fill:#fff}
        </style>
        <linearGradient id="linear-gradient" x1="868.25" y1="-1245.53" x2="868.25" y2="791.39" gradientTransform="translate(-.25 1245.53)" gradientUnits="userSpaceOnUse">
            <stop offset="0" stop-color="#f9ba16"/>
            <stop offset=".04" stop-color="#faa612"/>
            <stop offset=".11" stop-color="#fc8b0c"/>
            <stop offset=".19" stop-color="#fd7508"/>
            <stop offset=".28" stop-color="#fe6404"/>
            <stop offset=".4" stop-color="#ff5902"/>
            <stop offset=".56" stop-color="#ff5200"/>
            <stop offset="1" stop-color="#ff5000"/>
        </linearGradient>
    </defs>
    <g id="Layer_2" data-name="Layer 2">
        <g id="Layer_1-2" data-name="Layer 1">
            <path d="M1736 659l-148.2-256.1 17.6-82.9-134.9-137-111.9 15.4L1177.4 0h-310l-310 2.5-180.8 198-111.9-16.1-134.1 138.5 17.2 82.5L0 660.5 40.5 814l184 700.6a358.61 358.61 0 0 0 138.1 199.8s223.9 157.8 444.5 301a98.76 98.76 0 0 0 123.1 0c247.9-162.5 444.1-301.7 444.1-301.7a359 359 0 0 0 137.8-199.8l183.3-701z" fill="url(#linear-gradient)"/>
            <path class="cls-2" d="M915.5 1213.3a266.26 266.26 0 0 0-35.9-13.3h-22.2a253.36 253.36 0 0 0-35.9 13.3l-54.9 23c-17.6 7.2-45.2 20.4-62.1 29.1L603.4 1318a19.39 19.39 0 0 0-2.5 35.9l87.5 62.1c15.4 10.8 39.8 29.8 53.8 42.3l24.8 21.2 51.7 45.2 23.3 20.8a40.33 40.33 0 0 0 51.7 0L918 1524l51.7-45.2 24.8-21.5c14.3-12.6 38.4-31.6 53.8-42.3l87.9-62.8a19 19 0 0 0-2.5-35.8l-102.2-51.3c-16.9-8.6-44.8-21.5-62.4-28.7l-53.6-23.1z"/>
            <path class="cls-2" d="M1536.9 698.5l2.9-9a239.82 239.82 0 0 0-2.5-35.9 307.9 307.9 0 0 0-32.6-61.3l-56.7-83.6c-10.4-15.8-28.7-40.5-40.5-55.2l-76.1-94.7a259.16 259.16 0 0 0-22.6-26.5l-33.7 6.1-118.7 20.4-50.9 9.7a131.88 131.88 0 0 1-50.2-7.2l-92.2-29.8c-17.9-5.7-47.7-14-66-18.3a141.51 141.51 0 0 0-29.1 0 141.51 141.51 0 0 0-29.1 0c-18.3 4.3-48.1 12.6-66 18.3l-92.2 29.8a133.86 133.86 0 0 1-50.2 7.2l-51.3-9.7-117-22.6-33.7-6.1a259.16 259.16 0 0 0-22.6 26.5l-77.8 96.9c-11.8 14.7-30.1 39.5-40.5 55.2l-56.7 83.9a461.89 461.89 0 0 0-26.9 44.8 203.06 203.06 0 0 0-7.9 53.1l3.2 9a127.14 127.14 0 0 0 5.4 17.2 578.09 578.09 0 0 0 46.6 49.9l196.6 181.9a52.81 52.81 0 0 1 9.7 56L425 1082a101.22 101.22 0 0 0 0 63.9l6.5 17.9a172.65 172.65 0 0 0 53.1 74.6l31.2 25.5a59.06 59.06 0 0 0 57.4 6.8l111.6-53.1a284 284 0 0 0 56.3-37.7l89.3-80.7a35.89 35.89 0 0 0 2.4-50.7l-.6-.6L678 915.5a51.14 51.14 0 0 1-12.2-54.5l51.3-127a89.25 89.25 0 0 0 0-59.9 88.69 88.69 0 0 0-44.5-40.9l-245-92.6c-17.6-6.8-16.9-13.6 2.2-15.4l127-11.8a184.69 184.69 0 0 1 66.4 8.3l126.6 45.2a40 40 0 0 1 24.8 44.8L728.3 814c-4.3 18.3-8.6 38.7-10 45.2a35.78 35.78 0 0 0 31.2 18.3l88.3 17.2a204.2 204.2 0 0 0 67.1 0l80.7-16.9a35.71 35.71 0 0 0 31.2-18.7c0-6.5-5.7-26.5-10-44.8l-47-202.7a39.36 39.36 0 0 1 24.8-44.8l126.6-45.2a184.14 184.14 0 0 1 66.4-8.3l127 11.8c18.7 0 19.7 8.6 2.2 15.4l-244.7 92.9a88.54 88.54 0 0 0-44.5 40.2 89.25 89.25 0 0 0 0 59.9l53.1 127.4a51.39 51.39 0 0 1-12.9 54.2L904 1047.9a35.77 35.77 0 0 0 1.2 50.7l.6.6 89.7 79.6a285.94 285.94 0 0 0 56.3 35.9l111.6 53.1a59.06 59.06 0 0 0 57.4-6.8l31.2-25.5a173.23 173.23 0 0 0 53.1-74.6l6.5-17.9a101.22 101.22 0 0 0 0-63.9l-34.4-74.6a52.92 52.92 0 0 1 11.8-54.9l196.2-182.2a581.78 581.78 0 0 0 46.6-50.2 123.28 123.28 0 0 0 5.1-18.7z"/>
        </g>
    </g>
</svg>
