<svg width="106" height="30" viewBox="0 0 106 30" fill="none" xmlns="http://www.w3.org/2000/svg">
<path d="M7.60538 7.66406H14.783C16.3278 7.66406 17.4686 8.03906 18.2529 8.67188C19.1085 9.375 19.5363 10.3125 19.5363 11.4844C19.5363 12.9375 18.7758 13.875 17.4448 14.3672V14.4375C19.061 14.9297 20.1067 16.2891 20.1067 18.0234C20.1067 19.5 19.5601 20.5781 18.5856 21.3047C17.7063 21.9844 16.4942 22.3594 14.9256 22.3594H7.60538V7.66406ZM14.2363 13.4766C15.3058 13.4766 16.0188 12.9609 16.0188 12C16.0188 11.0859 15.3296 10.5469 14.2601 10.5469H11.2417V13.4766H14.2363ZM14.5453 19.4297C15.7574 19.4297 16.4942 18.75 16.4942 17.6953C16.4942 16.5234 15.6148 15.9375 14.4978 15.9375H11.2417V19.4297H14.5453ZM21.5327 7.66406H24.9314V10.3828H21.5327V7.66406ZM21.5327 11.8359H24.9314V22.3359H21.5327V11.8359ZM27.4269 19.5703V13.9219H26.0009V11.8359H27.4269V8.50781H30.7305V11.8359H32.6556V13.9219H30.7305V18.8438C30.7305 19.6641 31.1821 19.875 31.9188 19.875C32.204 19.875 33.0596 19.8516 33.1785 19.8516V22.2891C32.8933 22.3828 31.7287 22.4531 30.8256 22.4531C28.8529 22.4531 27.4269 21.8203 27.4269 19.5703ZM35.8879 10.7344H32.0852V7.66406H43.4457V10.7344H39.5717V22.3359H35.8879V10.7344ZM41.1641 17.1094C41.1641 13.9453 43.4457 11.5547 46.8682 11.5547C50.2906 11.5547 52.5484 13.9453 52.5484 17.1094C52.5484 20.2734 50.2906 22.6641 46.8682 22.6641C43.4457 22.6641 41.1641 20.2734 41.1641 17.1094ZM49.1022 17.1094C49.1022 15.2109 48.3179 13.8984 46.8444 13.8984C45.3709 13.8984 44.5865 15.1875 44.5865 17.1094C44.5865 19.0312 45.3471 20.2969 46.8444 20.2969C48.3179 20.2734 49.1022 19.0078 49.1022 17.1094ZM53.7368 11.8359H56.9928V13.4766H57.0641C57.8247 12.2344 58.7516 11.7188 59.726 11.6719C60.035 11.6484 60.2489 11.6953 60.3915 11.7656V14.6484H60.2964C58.5139 14.4141 57.1354 15.375 57.1354 17.6484V22.3594H53.7368V11.8359ZM61.3897 11.8359H64.6457V13.4766H64.717C65.4776 12.2344 66.4045 11.7188 67.3789 11.6719C67.6879 11.6484 67.9018 11.6953 68.0444 11.7656V14.6484H67.9493C66.1668 14.4141 64.7883 15.375 64.7883 17.6484V22.3594H61.3897V11.8359ZM68.1395 17.0625C68.1395 13.9219 70.3735 11.5312 73.6058 11.5312C75.1269 11.5312 76.339 12.0234 77.2421 12.8438C78.5018 13.9922 79.1435 15.8203 79.1197 17.9531C79.096 17.9531 71.4668 17.9531 71.4668 17.9531C71.6807 19.3594 72.465 20.25 73.8673 20.25C74.7704 20.25 75.3408 19.8516 75.626 19.1953H78.9296C78.6919 20.1328 78.074 21.0469 77.1471 21.6797C76.2439 22.2891 75.1744 22.6406 73.8197 22.6406C70.3022 22.6406 68.1395 20.25 68.1395 17.0625ZM75.6735 15.9609C75.5547 14.7188 74.7466 13.8984 73.6534 13.8984C72.3699 13.8984 71.7045 14.6953 71.4668 15.9609H75.6735ZM80.2843 11.8359H83.5404V13.2656H83.6117C84.396 12.1406 85.4179 11.5312 86.8915 11.5312C89.2206 11.5312 90.5991 13.1719 90.5991 15.5156V22.3594H87.2242V16.1719C87.2242 15.0703 86.6538 14.2969 85.5605 14.2969C84.4435 14.2969 83.683 15.2109 83.683 16.5234V22.3359H80.2843V11.8359ZM92.6906 19.5703V13.9219H91.2646V11.8359H92.6906V8.50781H95.9942V11.8359H97.9193V13.9219H95.9942V18.8438C95.9942 19.6641 96.4457 19.875 97.1825 19.875C97.4677 19.875 98.3233 19.8516 98.4422 19.8516V22.2891C98.157 22.3828 96.9924 22.4531 96.0892 22.4531C94.0928 22.4531 92.6906 21.8203 92.6906 19.5703ZM0 0V30H106V0H0ZM103.148 27.1875H2.85202V2.8125H103.148V27.1875Z" fill="#101010"/>
</svg>
