<svg width="47" height="42" viewBox="0 0 47 42" fill="none" xmlns="http://www.w3.org/2000/svg">
<path d="M31.9175 17.2308C31.9175 17.2308 26.6015 30.1916 29.461 29.1624C32.3205 28.1333 32.2594 26.8468 32.2594 26.8468C32.2594 26.8468 30.3051 30.6913 31.0735 34.2857C31.842 37.8801 34.8244 32.2952 34.8244 32.2952C34.8244 32.2952 33.6423 37.2824 35.9464 40.05C38.2533 42.8184 40.9847 35.9413 37.0161 27.5787C40.7187 29.8681 45.3955 29.3566 31.9167 17.2334L31.9175 17.2308Z" fill="#59B270"/>
<path d="M31.4153 18.4993C31.4153 18.4993 35.8688 27.4474 36.9659 36.8212" stroke="#3A3A01" stroke-width="0.58" stroke-miterlimit="10"/>
<path d="M29.8747 13.2053C29.8747 13.2053 17.3737 19.7059 18.1308 16.7877C18.888 13.8695 20.1845 13.8052 20.1845 13.8052C20.1845 13.8052 16.5138 16.1068 12.8289 15.6989C9.14479 15.2883 14.4638 11.8067 14.4638 11.8067C14.4638 11.8067 9.57036 13.4576 6.566 11.4509C3.56165 9.44418 10.2032 6.08112 18.9892 9.18392C16.3303 5.75547 16.3901 1.09175 29.8766 13.2087L29.8747 13.2053Z" fill="#59B270"/>
<path d="M28.652 13.8229C28.652 13.8229 19.2301 10.2984 9.70675 10.1255" stroke="#3A3A01" stroke-width="0.58" stroke-miterlimit="10"/>
<path d="M31.4955 13.9216C33.369 12.3707 33.6111 9.60096 32.0328 7.73549C30.4544 5.87003 27.6558 5.61233 25.7823 7.16323C23.9087 8.71413 23.6667 11.4839 25.245 13.3494C26.8233 15.2148 29.6219 15.4725 31.4955 13.9216Z" fill="#DB2638"/>
<g style="mix-blend-mode:multiply" opacity="0.2">
<path d="M27.8702 14.8633C28.0718 14.7435 28.2679 14.6134 28.4535 14.4601C30.3271 12.9092 30.5691 10.1394 28.9908 8.27396C28.2938 7.44939 27.3565 6.9395 26.3656 6.76054C28.1999 5.68544 30.6112 6.05273 32.0327 7.73598C33.6111 9.60145 33.3717 12.372 31.4955 13.9221C30.4501 14.7881 29.1171 15.0881 27.8702 14.8633Z" fill="#651D13"/>
</g>
<path d="M27.9489 11.7683C28.5837 11.2429 28.6636 10.3061 28.1309 9.67747C27.5962 9.04542 26.6496 8.96015 26.0183 9.48367C25.3835 10.009 25.3036 10.9459 25.8363 11.5745C26.371 12.2065 27.3176 12.2918 27.9489 11.7683Z" fill="#FFF6E7"/>
<path d="M31.9037 21.2253C33.7772 19.6744 34.0193 16.9047 32.441 15.0392C30.8626 13.1737 28.064 12.916 26.1905 14.4669C24.3169 16.0178 24.0749 18.7876 25.6532 20.6531C27.2315 22.5185 30.0301 22.7762 31.9037 21.2253Z" fill="#DB2638"/>
<g style="mix-blend-mode:multiply" opacity="0.2">
<path d="M28.2784 22.167C28.48 22.0472 28.6761 21.9171 28.8617 21.7638C30.7353 20.2129 30.9773 17.4431 29.399 15.5777C28.702 14.7531 27.7647 14.2432 26.7738 14.0642C28.6081 12.9892 31.0194 13.3564 32.4409 15.0397C34.0193 16.9052 33.7799 19.6757 31.9037 21.2258C30.8583 22.0918 29.5253 22.3918 28.2784 22.167Z" fill="#651D13"/>
</g>
<path d="M28.3581 19.0696C28.9929 18.5442 29.0728 17.6074 28.5401 16.9787C28.0054 16.3467 27.0588 16.2614 26.4275 16.7849C25.7927 17.3103 25.7127 18.2471 26.2455 18.8758C26.7801 19.5078 27.7267 19.5931 28.3581 19.0696Z" fill="#FFF6E7"/>
<path d="M38.0726 17.8801C39.9462 16.3292 40.1882 13.5595 38.6099 11.694C37.0316 9.82852 34.233 9.57083 32.3594 11.1217C30.4859 12.6726 30.2438 15.4424 31.8221 17.3079C33.4005 19.1733 36.1991 19.431 38.0726 17.8801Z" fill="#DB2638"/>
<g style="mix-blend-mode:multiply" opacity="0.2">
<path d="M34.4463 18.8242C34.648 18.7044 34.844 18.5743 35.0297 18.421C36.9032 16.8701 37.1453 14.1004 35.567 12.2349C34.8699 11.4103 33.9326 10.9004 32.9418 10.7215C34.7761 9.64638 37.1874 10.0137 38.6089 11.6969C40.1872 13.5624 39.9479 16.333 38.0716 17.8831C37.0262 18.749 35.6933 19.049 34.4463 18.8242Z" fill="#651D13"/>
</g>
<path d="M34.526 15.7268C35.1608 15.2014 35.2408 14.2646 34.708 13.636C34.1734 13.0039 33.2268 12.9186 32.5955 13.4422C31.9607 13.9675 31.8807 14.9044 32.4135 15.533C32.9481 16.165 33.8947 16.2503 34.526 15.7268Z" fill="#FFF6E7"/>
</svg>
