<svg width="384" height="52" viewBox="0 0 384 52" fill="none" xmlns="http://www.w3.org/2000/svg">
<g filter="url(#filter0_d_1_2)">
<path d="M344.865 11.1892C347.154 11.4267 349.429 11.763 351.704 12.0928C354.699 12.5281 357.693 12.97 360.687 13.4052C363.121 13.7614 365.693 14.1769 367.572 15.7664C368.951 16.9337 369.815 18.6221 371.187 19.7895C373.469 21.7351 377.043 22.177 378.534 24.7755C379.424 26.3254 379.299 28.2314 379.147 30.0121L378.006 43.4863C377.947 44.2052 377.531 44.8779 376.872 45.1681C375.632 45.7221 374.781 44.6404 374.412 43.6182C373.126 40.1029 374.742 36.0336 372.862 32.5579C372.347 31.6082 371.543 30.8168 370.527 30.4474C369.241 29.9858 368.093 30.2496 367.071 30.8563C365.482 31.7994 363.483 30.6848 363.556 28.8448C363.576 28.3303 363.589 27.8159 363.569 27.3147C363.549 26.8266 363.444 26.3122 363.266 25.8241C362.692 24.2281 360.37 24.4655 360.054 26.1341C359.856 27.2091 359.295 28.1786 358.313 28.7788C357.396 29.3394 356.222 29.3856 355.279 28.8777C353.894 28.1259 353.92 26.7607 353.59 25.5537C352.99 23.3245 350.966 21.491 348.664 21.313C346.362 21.1415 343.994 22.7969 343.552 25.0591C343.21 26.8134 343.942 28.6337 343.625 30.3947C343.612 30.4804 343.585 30.5727 343.559 30.6585C342.966 32.6107 340.037 32.3271 339.74 30.3155C339.642 29.6758 339.483 29.0492 339.259 28.4425C338.698 26.9321 336.627 26.6485 335.757 28.0072C335.618 28.2248 335.467 28.4293 335.289 28.6205C334.748 29.2075 333.95 29.6098 333.165 29.6692C332.42 29.7285 331.859 29.036 331.965 28.2974C331.965 28.2644 331.971 28.238 331.978 28.205C332.136 26.7409 329.907 26.4969 329.643 27.9478C329.234 30.1638 329.478 32.5513 329.445 34.8399C329.425 36.2183 329.228 37.689 328.766 39.0147C328.153 40.7756 325.528 40.3139 325.481 38.4541L325.33 32.0237C325.303 30.9355 325.165 29.656 324.222 29.1218C323.529 28.7326 322.626 28.8975 321.946 28.4886C320.845 27.8159 321.036 26.2067 321.089 24.914C321.148 23.5026 320.113 21.59 318.715 22.5265C318.306 22.7969 318.035 23.2322 317.904 23.7071C317.356 25.6988 314.889 26.0418 313.28 25.125C311.889 24.3402 311.018 22.8892 310.332 21.4449C306.362 13.0491 311.895 10.9782 318.655 11.829C327.117 12.904 336.126 10.2857 344.865 11.1958V11.1892Z" fill="white"/>
<path opacity="0.05" d="M377.96 43.539L378.131 41.4879C377.663 41.4483 377.228 41.2637 376.892 40.8812C376.417 40.3403 376.311 39.5687 376.265 38.8498C376.054 35.5654 376.595 32.2216 375.896 29.0031C375.817 28.6469 375.704 28.2578 375.401 28.0599C375.131 27.8819 374.774 27.8951 374.451 27.9346C373.027 28.0995 371.246 28.4425 370.448 27.2487C369.934 26.4837 370.118 25.3625 369.492 24.6766C368.7 23.8192 367.282 24.2545 366.148 23.9841C364.888 23.6873 364.057 22.5397 363.206 21.5636C362.356 20.5941 361.122 19.6642 359.876 20.0137C358.24 20.482 357.811 22.7903 356.255 23.4828C354.633 24.2083 352.872 22.7837 351.83 21.346C350.787 19.9016 349.712 18.1605 347.952 17.9164C346.224 17.679 344.693 19.0508 343.731 20.5018C343.44 20.9437 343.163 21.4053 342.886 21.8604C342.121 23.1267 340.565 23.7664 339.18 23.2586C338.369 22.9618 337.406 23.0475 336.759 23.6411C336.357 24.0105 336.093 24.5117 335.691 24.881C335.289 25.257 334.655 25.4812 334.207 25.1646C333.758 24.8546 333.679 24.1424 333.185 23.9247C332.209 23.496 331.338 25.468 330.382 24.9997C329.88 24.7491 329.867 24.0105 329.445 23.6411C328.812 23.0937 327.856 23.7269 327.341 24.393C326.833 25.0591 326.174 25.8769 325.356 25.6791C324.947 25.5801 324.65 25.2372 324.433 24.881C323.14 22.7639 323.701 19.5652 321.399 18.2792C320.772 17.9296 320.034 17.8175 319.321 17.9032C317.284 18.1473 315.78 19.7169 314.606 21.2075C314.151 21.7813 313.544 22.2297 312.838 22.4012C311.348 22.7639 310.55 21.867 309.996 20.8183C310.088 21.036 310.187 21.2536 310.293 21.4779C310.978 22.9222 311.849 24.3732 313.241 25.158C314.856 26.0682 317.323 25.7318 317.864 23.74C317.996 23.2652 318.266 22.8365 318.675 22.5595C320.073 21.623 321.102 23.5356 321.049 24.947C320.997 26.2397 320.805 27.8489 321.907 28.5216C322.586 28.9305 323.49 28.7656 324.182 29.1548C325.125 29.689 325.264 30.9685 325.29 32.0567L325.442 38.4871C325.488 40.3469 328.113 40.8086 328.726 39.0477C329.188 37.7286 329.386 36.2579 329.406 34.8729C329.439 32.5843 329.195 30.1968 329.603 27.9808C329.867 26.5298 332.096 26.7739 331.938 28.238C331.938 28.2842 331.925 28.3238 331.918 28.3699C331.793 29.1152 332.341 29.7549 333.092 29.7022C333.884 29.6494 334.702 29.2471 335.249 28.6535C335.427 28.4623 335.579 28.2578 335.717 28.0402C336.575 26.7013 338.639 26.9388 339.2 28.4227C339.437 29.0426 339.602 29.689 339.701 30.3485C340.004 32.3601 342.933 32.6437 343.519 30.6915C343.546 30.6057 343.566 30.52 343.585 30.4277C343.902 28.6733 343.17 26.8464 343.513 25.0921C343.955 22.8233 346.316 21.1745 348.624 21.346C350.926 21.5174 352.951 23.3509 353.551 25.5867C353.874 26.8003 353.848 28.1589 355.239 28.9107C356.182 29.4252 357.356 29.3724 358.273 28.8118C359.256 28.2182 359.816 27.2421 360.014 26.1671C360.324 24.4985 362.652 24.2545 363.226 25.8571C363.404 26.3452 363.51 26.8596 363.53 27.3477C363.549 27.8489 363.536 28.3633 363.516 28.8778C363.444 30.7244 365.442 31.8324 367.032 30.8893C368.054 30.2826 369.195 30.0253 370.488 30.487C371.503 30.8497 372.308 31.6412 372.822 32.5975C374.702 36.0732 373.086 40.1425 374.372 43.6578C374.748 44.68 375.592 45.7617 376.832 45.2076C377.492 44.9109 377.907 44.2447 377.967 43.5259L377.96 43.539Z" fill="black"/>
<path d="M335.342 39.7466C335.342 40.1622 335.005 40.4985 334.59 40.4985C334.174 40.4985 333.838 40.1622 333.838 39.7466C333.838 39.3311 334.174 38.9948 334.59 38.9948C335.005 38.9948 335.342 39.3311 335.342 39.7466Z" fill="white"/>
<path d="M347.332 35.4072C347.332 35.7567 347.048 36.0337 346.705 36.0337C346.362 36.0337 346.078 35.7501 346.078 35.4072C346.078 35.0642 346.362 34.7806 346.705 34.7806C347.048 34.7806 347.332 35.0642 347.332 35.4072Z" fill="white"/>
<path d="M360.931 38.5924C360.931 39.0343 360.568 39.3971 360.126 39.3971C359.685 39.3971 359.322 39.0343 359.322 38.5924C359.322 38.1505 359.678 37.7878 360.126 37.7878C360.575 37.7878 360.931 38.1439 360.931 38.5924Z" fill="white"/>
<path d="M355.107 46.3751C355.107 46.9555 354.633 47.4304 354.052 47.4304C353.472 47.4304 352.997 46.9555 352.997 46.3751C352.997 45.7947 353.472 45.3199 354.052 45.3199C354.633 45.3199 355.107 45.7947 355.107 46.3751Z" fill="white"/>
<path d="M370.362 44.8184C370.362 45.3196 369.96 45.7219 369.459 45.7219C368.957 45.7219 368.555 45.3196 368.555 44.8184C368.555 44.3171 368.957 43.9148 369.459 43.9148C369.96 43.9148 370.362 44.3171 370.362 44.8184Z" fill="white"/>
<path d="M316.875 43.7633C316.875 44.1261 316.585 44.4163 316.222 44.4163C315.859 44.4163 315.569 44.1261 315.569 43.7633C315.569 43.4006 315.859 43.1104 316.222 43.1104C316.585 43.1104 316.875 43.4006 316.875 43.7633Z" fill="white"/>
<path d="M311.856 29.656C311.856 30.1704 311.44 30.5859 310.926 30.5859C310.411 30.5859 309.996 30.1704 309.996 29.656C309.996 29.1416 310.411 28.7261 310.926 28.7261C311.44 28.7261 311.856 29.1416 311.856 29.656Z" fill="white"/>
<path d="M321.287 36.6073C321.618 36.6073 321.887 36.3386 321.887 36.0072C321.887 35.6757 321.618 35.407 321.287 35.407C320.955 35.407 320.687 35.6757 320.687 36.0072C320.687 36.3386 320.955 36.6073 321.287 36.6073Z" fill="white"/>
</g>
<g filter="url(#filter1_d_1_2)">
<path d="M77.6267 15.6761C74.8369 17.4173 72.7198 21.4272 74.9028 23.8938C76.7825 26.0109 80.2186 25.2591 82.8369 24.1774C85.4552 23.0958 88.6078 21.9021 90.9293 23.5311C91.912 24.217 92.5451 25.3184 93.5344 26.0043C95.5328 27.3828 98.2171 26.6639 100.585 26.1296C102.952 25.5954 105.934 25.5427 107.233 27.5872C107.754 28.4116 107.879 29.4339 108.301 30.3176C109.066 31.9335 110.722 32.9228 112.377 33.5955C114.098 34.2946 116.024 34.7497 117.805 34.2352C119.592 33.7208 121.116 31.9731 120.845 30.1396C120.667 28.9458 119.823 27.64 120.509 26.6507C121.043 25.8724 122.237 25.879 123.081 26.3077C123.925 26.7364 124.565 27.4685 125.357 27.9895C126.768 28.926 128.707 29.0843 130.165 28.2204C131.616 27.3564 132.407 25.424 131.794 23.8477C131.273 22.5022 129.861 21.3679 130.151 19.9565C130.409 18.7166 131.813 18.1692 132.895 17.4964C133.97 16.8303 134.847 15.2013 133.858 14.4033C131.655 12.4379 128.331 12.3719 125.442 13.0117C122.56 13.6448 119.79 14.8649 116.842 15.0892C111.592 15.4981 106.692 12.7676 101.713 11.0792C97.1684 9.54255 93.1123 9.6019 88.7924 11.5475C85.2508 13.1436 80.9309 13.6382 77.6399 15.6893L77.6267 15.6761Z" fill="white"/>
<path opacity="0.05" d="M131.78 23.8345C131.259 22.489 129.848 21.3546 130.138 19.9433C130.395 18.7033 131.8 18.1559 132.882 17.4832C133.64 17.0149 134.293 16.0652 134.273 15.2672C134.115 15.6036 133.917 15.9201 133.666 16.2103C132.525 17.536 130.567 17.9251 128.865 17.5492C128.331 17.4305 127.698 17.2722 127.295 17.6481C126.959 17.9647 126.979 18.4989 127.032 18.9606C127.157 20.1213 127.282 21.2755 127.408 22.4363C127.454 22.8847 127.5 23.353 127.328 23.7619C126.873 24.8435 125.271 24.8369 124.281 24.2038C123.292 23.5772 122.6 22.5484 121.577 21.9746C121.3 21.8163 120.99 21.6976 120.667 21.7042C119.592 21.7372 119.13 23.043 118.886 24.0851C118.642 25.1271 117.95 26.4066 116.901 26.1824C115.569 25.8988 115.549 23.5047 114.197 23.353C113.571 23.2805 113.043 23.7685 112.463 24.0125C110.807 24.7116 108.994 23.3266 108.011 21.8229C107.562 21.137 107.153 20.3785 106.454 19.9564C105.333 19.2771 103.856 19.7124 102.754 20.4181C101.646 21.1238 100.69 22.0867 99.4634 22.555C97.9728 23.1222 96.1921 22.8386 94.9522 21.8361C93.5804 20.7215 92.9077 18.8682 91.4237 17.8987C89.7683 16.8171 87.5391 17.1535 85.7518 17.9976C83.9645 18.8418 82.4212 20.1345 80.6405 20.9919C78.8598 21.8493 76.6503 22.2252 74.9685 21.1898C74.6454 20.9919 74.3618 20.7479 74.1046 20.4775C73.8539 21.691 74.0452 22.8979 74.9026 23.8608C76.7822 25.9779 80.2184 25.2261 82.8367 24.1444C85.455 23.0628 88.6076 21.8691 90.9291 23.4981C91.9118 24.184 92.5449 25.2854 93.5342 25.9713C95.5326 27.3497 98.2169 26.6309 100.585 26.0966C102.952 25.5624 105.933 25.5097 107.233 27.5542C107.754 28.3786 107.879 29.4009 108.301 30.2846C109.066 31.9005 110.721 32.8898 112.377 33.5625C114.098 34.2616 116.024 34.7166 117.805 34.2022C119.592 33.6878 121.116 31.94 120.845 30.1066C120.667 28.9128 119.823 27.6069 120.509 26.6177C121.043 25.8394 122.237 25.846 123.081 26.2747C123.925 26.7034 124.565 27.4355 125.356 27.9565C126.768 28.8864 128.707 29.0513 130.164 28.1873C131.622 27.3234 132.407 25.3909 131.793 23.8147L131.78 23.8345Z" fill="black"/>
<path d="M99.1406 32.8303C99.1406 33.0941 98.923 33.3118 98.6592 33.3118C98.3954 33.3118 98.1777 33.0941 98.1777 32.8303C98.1777 32.5665 98.3954 32.3489 98.6592 32.3489C98.923 32.3489 99.1406 32.5665 99.1406 32.8303Z" fill="white"/>
<path d="M113.439 40.9887C113.439 41.6548 112.898 42.1956 112.232 42.1956C111.566 42.1956 111.025 41.6548 111.025 40.9887C111.025 40.3226 111.566 39.7818 112.232 39.7818C112.898 39.7818 113.439 40.3226 113.439 40.9887Z" fill="white"/>
<path d="M123.813 38.5024C124.44 38.5024 124.948 37.9945 124.948 37.368C124.948 36.7415 124.44 36.2336 123.813 36.2336C123.187 36.2336 122.679 36.7415 122.679 37.368C122.679 37.9945 123.187 38.5024 123.813 38.5024Z" fill="white"/>
<path d="M92.0771 36.392C92.0771 36.7548 91.7803 37.0516 91.4176 37.0516C91.0548 37.0516 90.758 36.7548 90.758 36.392C90.758 36.0293 91.0548 35.7325 91.4176 35.7325C91.7803 35.7325 92.0771 36.0293 92.0771 36.392Z" fill="white"/>
<path d="M83.5361 28.9392C83.5361 29.4932 83.0876 29.9416 82.5336 29.9416C81.9796 29.9416 81.5311 29.4932 81.5311 28.9392C81.5311 28.3852 81.9796 27.9367 82.5336 27.9367C83.0876 27.9367 83.5361 28.3852 83.5361 28.9392Z" fill="white"/>
<path d="M135.889 31.9533C135.889 32.4018 135.526 32.7579 135.084 32.7579C134.642 32.7579 134.28 32.3952 134.28 31.9533C134.28 31.5114 134.642 31.1487 135.084 31.1487C135.526 31.1487 135.889 31.5114 135.889 31.9533Z" fill="white"/>
<path d="M137.386 22.9639C137.386 23.3794 137.05 23.7092 136.641 23.7092C136.232 23.7092 135.896 23.3728 135.896 22.9639C135.896 22.555 136.232 22.2186 136.641 22.2186C137.05 22.2186 137.386 22.555 137.386 22.9639Z" fill="white"/>
</g>
<g filter="url(#filter2_d_1_2)">
<path d="M66.9942 13.2893C66.6403 12.941 66.3874 12.514 66.1739 12.0702C63.6907 6.91825 57.8871 3.61473 52.2014 4.0361C46.7236 4.44061 41.6503 8.27225 39.7626 13.4354C39.5491 14.0197 39.3637 14.6377 38.9311 15.0816C38.1277 15.9187 36.8018 15.8681 35.6445 15.8456C31.5769 15.7557 27.498 16.7052 23.8855 18.5761C21.0314 15.1771 15.9188 14.0085 11.7726 15.5816C7.62632 17.1547 4.62619 21.2504 4.10369 25.6551C3.90144 27.3518 4.03628 29.0653 4.1655 30.7677L5.06441 42.3187C5.0925 42.6896 5.16553 43.066 5.31723 43.4031C6.56448 46.1391 10.0085 43.9087 10.1489 41.5097C10.3231 38.4871 7.73869 35.8522 8.3286 32.6891C8.52524 31.6553 9.16572 30.7227 10.1377 30.3351C11.7557 29.689 13.0816 30.8519 14.4412 31.5992C16.093 32.5093 18.1717 31.4081 18.3178 29.5316C18.3684 28.9136 18.4976 28.3406 19.1437 28.026C19.5875 27.8068 20.1044 27.8181 20.5651 27.9922C23.245 28.9867 28.4194 28.0765 28.6104 30.998C28.6104 31.0205 28.5992 31.043 28.5936 31.0654C27.9924 34.015 32.2286 35.2566 33.4196 32.4925C33.9534 31.2621 34.5545 30.0598 35.2287 28.8968C35.4871 28.453 35.8636 28.0821 36.3355 27.8855C37.6052 27.3574 38.4199 28.4305 39.3581 29.0485C41.3638 30.3688 44.4988 29.262 45.2348 26.981C45.4595 26.2787 45.4988 25.4921 45.9258 24.891C46.5719 23.9752 47.8529 23.8235 48.9709 23.7842C50.8755 23.7168 52.7857 23.7449 54.6847 23.8572C57.8533 24.0483 60.6793 26.0708 61.6681 29.0822C61.8872 29.7508 62.1794 30.3912 62.5333 30.9924C63.1289 32.0037 64.5334 32.1329 65.275 31.2227L65.3087 31.1778C65.938 30.4025 67.1066 30.2901 67.8089 30.9868C68.8988 32.0655 70.6236 32.5486 72.0619 31.9587C73.3765 31.4194 74.2305 30.071 74.3766 28.6664C74.4665 27.8181 75.0732 27.1327 75.8766 26.8405C78.0284 26.0427 80.6578 22.5875 78.5734 19.9975C75.9103 16.694 69.8089 16.0816 66.9942 13.3062V13.2893Z" fill="white"/>
<path opacity="0.05" d="M5.06441 42.3185V42.2398C5.14868 42.1893 5.24419 42.1443 5.34532 42.105C7.28923 41.3241 8.00275 38.8633 7.74992 36.7845C7.4971 34.7058 6.54762 32.7619 6.21615 30.6944C6.08693 29.8685 6.09254 28.9078 6.70493 28.3347C8.27804 26.8459 11.149 29.728 12.8681 28.419C13.4524 27.9695 13.6772 27.1493 14.2952 26.7447C15.1098 26.2166 16.1773 26.638 17.1436 26.7223C18.4751 26.8346 19.8404 26.2054 20.6157 25.1211C20.9134 24.7053 21.1831 24.1885 21.6831 24.0817C22.0034 24.0143 22.3292 24.1323 22.627 24.2615C24.2282 24.9582 25.7114 25.9189 26.998 27.0987C27.3969 27.4639 27.8464 27.874 28.3801 27.8291C29.9082 27.6998 29.3127 24.6267 30.8072 24.284C31.7229 24.0761 32.369 25.1379 33.2062 25.5593C34.1612 26.0425 35.4872 25.4975 35.8299 24.4862C36.0265 23.9075 35.9535 23.2053 36.358 22.7502C37.1052 21.9187 38.4143 22.7052 39.4873 23.0255C41.965 23.7615 44.2347 21.5928 46.4933 20.34C48.8866 19.0141 51.8081 18.6713 54.4431 19.3961C57.0836 20.1265 59.4096 21.9243 60.7804 24.2896C61.1288 24.8907 61.4378 25.5481 61.9884 25.9807C62.539 26.4077 63.4323 26.5032 63.8761 25.9694C63.9885 25.8346 64.0671 25.666 64.2132 25.5649C64.6065 25.284 65.129 25.6604 65.438 26.0312C65.9268 26.6211 66.3706 27.2672 66.9942 27.7055C67.6178 28.1493 68.4999 28.3403 69.146 27.9302C70.4382 27.1156 69.6629 25.1379 69.8483 23.6266C69.8764 23.3794 69.9438 23.121 70.118 22.9468C70.6798 22.3681 71.5899 23.0367 72.3372 23.3569C73.7136 23.9412 75.4159 23.0142 75.989 21.6321C76.5115 20.3849 76.2643 18.9354 75.6351 17.7275C76.7868 18.3399 77.8206 19.0534 78.5734 19.9916C80.6634 22.5816 78.034 26.0425 75.8823 26.8346C75.0789 27.1324 74.4721 27.8122 74.3822 28.6606C74.2361 30.0595 73.3821 31.4079 72.0675 31.9529C70.6348 32.5428 68.9044 32.0652 67.8145 30.9809C67.1122 30.2842 65.9436 30.3966 65.3144 31.1719L65.2807 31.2169C64.539 32.127 63.1345 31.9978 62.539 30.9865C62.185 30.3854 61.8929 29.7393 61.6737 29.0763C60.6849 26.0593 57.859 24.0368 54.6903 23.8514C52.7857 23.739 50.8811 23.7165 48.9765 23.7783C47.8585 23.8176 46.5776 23.9693 45.9315 24.8851C45.5045 25.4863 45.4651 26.2728 45.2404 26.9751C44.5044 29.2617 41.3694 30.3629 39.3637 29.0426C38.4255 28.4246 37.6108 27.3571 36.3411 27.8796C35.8692 28.0763 35.4872 28.4471 35.2343 28.8909C34.5601 30.0539 33.9534 31.2562 33.4253 32.4866C32.2342 35.2507 27.998 34.0091 28.5992 31.0595C28.5992 31.0371 28.6104 31.0146 28.6161 30.9921C28.425 28.0706 23.2506 28.9808 20.5707 27.9864C20.11 27.8122 19.5876 27.801 19.1493 28.0201C18.5032 28.3403 18.374 28.9078 18.3234 29.5258C18.1774 31.4023 16.093 32.5034 14.4469 31.5933C13.0929 30.8461 11.767 29.6831 10.1433 30.3292C9.16572 30.7168 8.52525 31.6495 8.33423 32.6832C7.73869 35.8407 10.3231 38.4812 10.1545 41.5039C10.0197 43.9028 6.5701 46.1333 5.32285 43.3972C5.16554 43.0545 5.09812 42.6837 5.07003 42.3129L5.06441 42.3185Z" fill="black"/>
<path d="M15.7726 36.751C15.7726 37.1498 16.0985 37.4757 16.4974 37.4757C16.8962 37.4757 17.2221 37.1498 17.2221 36.751C17.2221 36.3521 16.8962 36.0262 16.4974 36.0262C16.0985 36.0262 15.7726 36.3521 15.7726 36.751Z" fill="white"/>
<path d="M13.0358 46.8359C13.0358 47.1449 13.283 47.3921 13.592 47.3921C13.901 47.3921 14.1483 47.1449 14.1483 46.8359C14.1483 46.5269 13.901 46.2797 13.592 46.2797C13.283 46.2797 13.0358 46.5269 13.0358 46.8359Z" fill="white"/>
<path d="M30.3857 43.6111C29.911 43.6111 29.5261 43.2262 29.5261 42.7515C29.5261 42.2768 29.911 41.8919 30.3857 41.8919C30.8605 41.8919 31.2453 42.2768 31.2453 42.7515C31.2453 43.2262 30.8605 43.6111 30.3857 43.6111Z" fill="white"/>
<path d="M43.3186 35.1331C42.7136 35.1331 42.2231 34.6426 42.2231 34.0375C42.2231 33.4325 42.7136 32.942 43.3186 32.942C43.9237 32.942 44.4142 33.4325 44.4142 34.0375C44.4142 34.6426 43.9237 35.1331 43.3186 35.1331Z" fill="white"/>
<path d="M53.7793 30.5654C53.7793 30.9531 54.0939 31.2677 54.4816 31.2677C54.8692 31.2677 55.1839 30.9531 55.1839 30.5654C55.1839 30.1778 54.8692 29.8631 54.4816 29.8631C54.0939 29.8631 53.7793 30.1778 53.7793 30.5654Z" fill="white"/>
<path d="M60.3414 37.7903C59.8542 37.7903 59.4593 37.3954 59.4593 36.9083C59.4593 36.4211 59.8542 36.0262 60.3414 36.0262C60.8285 36.0262 61.2234 36.4211 61.2234 36.9083C61.2234 37.3954 60.8285 37.7903 60.3414 37.7903Z" fill="white"/>
<path d="M75.3594 38.4142C74.6984 38.4142 74.1627 37.8784 74.1627 37.2175C74.1627 36.5566 74.6984 36.0208 75.3594 36.0208C76.0203 36.0208 76.556 36.5566 76.556 37.2175C76.556 37.8784 76.0203 38.4142 75.3594 38.4142Z" fill="white"/>
<path d="M78.2639 29.1832C78.2639 29.936 78.8763 30.5484 79.6292 30.5484C80.382 30.5484 81 29.9416 81 29.1832C81 28.4247 80.3876 27.8179 79.6348 27.8179C78.8819 27.8179 78.2695 28.4303 78.2695 29.1832H78.2639Z" fill="white"/>
<path d="M40.5374 47.4033C40.5374 47.7179 40.7902 47.9707 41.1048 47.9707C41.4194 47.9707 41.6723 47.7179 41.6723 47.4033C41.6723 47.0887 41.4194 46.8358 41.1048 46.8358C40.7902 46.8358 40.5374 47.0887 40.5374 47.4033Z" fill="white"/>
</g>
<g filter="url(#filter3_d_1_2)">
<path d="M233.458 26.2741C235.005 26.7191 236.695 26.2794 237.866 25.1775C239.333 23.7894 242.782 22.4332 244.244 24.3669C245.018 25.3947 244.975 27.1164 246.167 27.6038C246.798 27.8634 247.37 27.6621 247.905 27.2383C249.712 25.8079 252.323 26.5655 253.049 28.7534C253.298 29.511 253.616 30.2421 254.003 30.9414C254.654 32.1281 256.466 31.6778 256.434 30.3216C256.397 28.8753 256.238 27.4343 255.958 26.0145C255.809 25.2516 256.275 24.5046 257.022 24.3086L257.054 24.298C257.923 24.0702 258.787 24.6742 258.877 25.5695C258.93 26.0887 259.03 26.5972 259.179 27.1005C259.555 28.3667 261.202 28.5998 261.955 27.5138C262.283 27.0422 262.696 26.6608 263.242 26.4383C264.1 26.0834 265.154 26.6025 265.631 27.323C266.071 27.9799 266.855 28.319 267.602 28.0594C271.978 26.5284 276.666 25.8979 281.291 26.2264C283.479 26.38 285.773 26.735 287.808 25.9032C289.842 25.0715 291.341 22.4756 290.144 20.6373C289.911 20.277 287.665 19.7896 287.14 19.4665C286.133 18.8466 285.249 18.0308 284.544 17.0825C283.368 15.5091 283.802 13.2469 282.261 11.9119C280.428 10.3226 278.637 11.4669 276.645 11.896C274.288 12.3993 271.93 12.8973 269.573 13.3794C268.492 13.6019 267.3 13.8032 266.341 13.2575C265.52 12.786 265.07 11.8695 264.392 11.2073C262.627 9.49084 259.708 9.83519 257.446 10.8153C255.184 11.7953 253.086 13.2946 250.644 13.6072C245.569 14.2535 240.366 11.1066 235.736 14.7091C233.188 16.6905 227.885 24.6742 233.463 26.2688L233.458 26.2741Z" fill="white"/>
<path opacity="0.05" d="M287.58 19.7153C287.548 20.0915 287.485 20.4623 287.373 20.8225C286.616 23.2383 283.999 24.5945 281.503 25.0342C279.167 25.4475 276.762 25.2885 274.41 24.9707C272.953 24.7747 271.459 24.4939 270.225 23.6939C269.531 23.2436 268.757 22.6026 267.984 22.8887C267.676 22.9999 267.438 23.2489 267.157 23.4184C265.806 24.2449 264.069 23.1165 263.173 21.8132C262.797 21.2623 262.315 20.5894 261.653 20.6795C260.969 20.7696 260.561 21.6702 259.873 21.649C258.882 21.6172 258.628 19.7948 257.642 19.9113C256.816 20.012 256.8 21.347 256.053 21.7232C255.433 22.0357 254.713 21.4848 254.358 20.8861C254.008 20.2875 253.78 19.5617 253.198 19.1855C252.779 20.1391 252.361 21.0874 251.942 22.041C251.847 22.2529 251.746 22.4754 251.561 22.6132C250.957 23.0635 250.167 22.3006 249.924 21.5854C249.68 20.8702 249.447 19.9643 248.705 19.8107C247.577 19.5776 247.031 21.3841 245.897 21.5907C245.203 21.7179 244.562 21.1881 244.144 20.6159C243.725 20.0438 243.397 19.3763 242.798 19.0001C241.532 18.2055 239.858 19.1538 238.952 20.3404C238.041 21.5271 237.426 23.0052 236.171 23.8105C234.989 24.568 233.352 24.5363 232.203 23.731C231.715 23.3919 231.344 22.9522 231.053 22.4542C230.809 24.1866 231.371 25.6753 233.458 26.2739C235.005 26.7189 236.695 26.2792 237.866 25.1773C239.333 23.7893 242.782 22.4331 244.244 24.3667C245.018 25.3945 244.976 27.1163 246.167 27.6037C246.798 27.8632 247.37 27.6619 247.905 27.2381C249.712 25.8077 252.323 26.5653 253.049 28.7533C253.298 29.5108 253.616 30.2419 254.003 30.9412C254.654 32.1279 256.466 31.6776 256.435 30.3214C256.397 28.8751 256.239 27.4341 255.958 26.0143C255.809 25.2515 256.276 24.5045 257.023 24.3085L257.054 24.2979C257.923 24.0701 258.787 24.674 258.877 25.5693C258.93 26.0885 259.03 26.5971 259.179 27.1004C259.555 28.3665 261.202 28.5996 261.955 27.5136C262.283 27.0421 262.696 26.6606 263.242 26.4381C264.1 26.0832 265.155 26.6024 265.631 27.3229C266.071 27.9798 266.855 28.3188 267.602 28.0593C271.978 26.5282 276.667 25.8978 281.292 26.2262C283.479 26.3799 285.773 26.7348 287.808 25.9031C289.842 25.0713 291.341 22.4754 290.144 20.6371C289.243 20.4729 288.38 20.1497 287.58 19.7153Z" fill="black"/>
<path d="M256.159 36.7215C256.159 37.5479 255.492 38.2154 254.665 38.2154C253.839 38.2154 253.171 37.5479 253.171 36.7215C253.171 35.895 253.839 35.2275 254.665 35.2275C255.492 35.2275 256.159 35.895 256.159 36.7215Z" fill="white"/>
<path d="M261.759 34.8245C262.295 34.8245 262.729 34.3905 262.729 33.8551C262.729 33.3196 262.295 32.8856 261.759 32.8856C261.224 32.8856 260.79 33.3196 260.79 33.8551C260.79 34.3905 261.224 34.8245 261.759 34.8245Z" fill="white"/>
<path d="M269.642 33.0235C269.832 33.2142 269.832 33.5215 269.642 33.7122C269.451 33.9029 269.144 33.9029 268.953 33.7122C268.762 33.5215 268.762 33.2142 268.953 33.0235C269.144 32.8328 269.451 32.8328 269.642 33.0235Z" fill="white"/>
<path d="M280.258 31.344C280.258 31.9903 279.734 32.5095 279.093 32.5095C278.452 32.5095 277.927 31.985 277.927 31.344C277.927 30.703 278.452 30.1785 279.093 30.1785C279.734 30.1785 280.258 30.703 280.258 31.344Z" fill="white"/>
<path d="M266.871 39.2428C267.155 39.2428 267.385 39.0127 267.385 38.7289C267.385 38.4451 267.155 38.215 266.871 38.215C266.587 38.215 266.357 38.4451 266.357 38.7289C266.357 39.0127 266.587 39.2428 266.871 39.2428Z" fill="white"/>
<path d="M244.414 32.1123C244.414 32.5361 244.069 32.8805 243.645 32.8805C243.222 32.8805 242.877 32.5361 242.877 32.1123C242.877 31.6885 243.222 31.3442 243.645 31.3442C244.069 31.3442 244.414 31.6885 244.414 32.1123Z" fill="white"/>
<path d="M235.286 31.1429C235.286 31.6779 234.852 32.1124 234.317 32.1124C233.781 32.1124 233.347 31.6779 233.347 31.1429C233.347 30.6078 233.781 30.1734 234.317 30.1734C234.852 30.1734 235.286 30.6078 235.286 31.1429Z" fill="white"/>
<path d="M240.446 38.0775C240.446 38.4378 240.154 38.7291 239.794 38.7291C239.434 38.7291 239.142 38.4378 239.142 38.0775C239.142 37.7173 239.434 37.4259 239.794 37.4259C240.154 37.4259 240.446 37.7173 240.446 38.0775Z" fill="white"/>
<path d="M248.642 33.373C248.99 33.373 249.272 33.0907 249.272 32.7425C249.272 32.3944 248.99 32.1121 248.642 32.1121C248.294 32.1121 248.011 32.3944 248.011 32.7425C248.011 33.0907 248.294 33.373 248.642 33.373Z" fill="white"/>
<path d="M287.845 32.4354C287.845 33.1506 287.268 33.7333 286.547 33.7333C285.827 33.7333 285.249 33.1506 285.249 32.4354C285.249 31.7202 285.827 31.1375 286.547 31.1375C287.268 31.1375 287.845 31.7149 287.845 32.4354Z" fill="white"/>
</g>
<defs>
<filter id="filter0_d_1_2" x="305" y="7" width="78.2546" height="44.4304" filterUnits="userSpaceOnUse" color-interpolation-filters="sRGB">
<feFlood flood-opacity="0" result="BackgroundImageFix"/>
<feColorMatrix in="SourceAlpha" type="matrix" values="0 0 0 0 0 0 0 0 0 0 0 0 0 0 0 0 0 0 127 0" result="hardAlpha"/>
<feOffset/>
<feGaussianBlur stdDeviation="2"/>
<feComposite in2="hardAlpha" operator="out"/>
<feColorMatrix type="matrix" values="0 0 0 0 0 0 0 0 0 0 0 0 0 0 0 0 0 0 0.25 0"/>
<feBlend mode="normal" in2="BackgroundImageFix" result="effect1_dropShadow_1_2"/>
<feBlend mode="normal" in="SourceGraphic" in2="effect1_dropShadow_1_2" result="shape"/>
</filter>
<filter id="filter1_d_1_2" x="70" y="6" width="71.3862" height="40.1956" filterUnits="userSpaceOnUse" color-interpolation-filters="sRGB">
<feFlood flood-opacity="0" result="BackgroundImageFix"/>
<feColorMatrix in="SourceAlpha" type="matrix" values="0 0 0 0 0 0 0 0 0 0 0 0 0 0 0 0 0 0 127 0" result="hardAlpha"/>
<feOffset/>
<feGaussianBlur stdDeviation="2"/>
<feComposite in2="hardAlpha" operator="out"/>
<feColorMatrix type="matrix" values="0 0 0 0 0 0 0 0 0 0 0 0 0 0 0 0 0 0 0.25 0"/>
<feBlend mode="normal" in2="BackgroundImageFix" result="effect1_dropShadow_1_2"/>
<feBlend mode="normal" in="SourceGraphic" in2="effect1_dropShadow_1_2" result="shape"/>
</filter>
<filter id="filter2_d_1_2" x="0.000274658" y="0" width="84.9997" height="51.9707" filterUnits="userSpaceOnUse" color-interpolation-filters="sRGB">
<feFlood flood-opacity="0" result="BackgroundImageFix"/>
<feColorMatrix in="SourceAlpha" type="matrix" values="0 0 0 0 0 0 0 0 0 0 0 0 0 0 0 0 0 0 127 0" result="hardAlpha"/>
<feOffset/>
<feGaussianBlur stdDeviation="2"/>
<feComposite in2="hardAlpha" operator="out"/>
<feColorMatrix type="matrix" values="0 0 0 0 0 0 0 0 0 0 0 0 0 0 0 0 0 0 0.25 0"/>
<feBlend mode="normal" in2="BackgroundImageFix" result="effect1_dropShadow_1_2"/>
<feBlend mode="normal" in="SourceGraphic" in2="effect1_dropShadow_1_2" result="shape"/>
</filter>
<filter id="filter3_d_1_2" x="227" y="6" width="67.5703" height="37.2428" filterUnits="userSpaceOnUse" color-interpolation-filters="sRGB">
<feFlood flood-opacity="0" result="BackgroundImageFix"/>
<feColorMatrix in="SourceAlpha" type="matrix" values="0 0 0 0 0 0 0 0 0 0 0 0 0 0 0 0 0 0 127 0" result="hardAlpha"/>
<feOffset/>
<feGaussianBlur stdDeviation="2"/>
<feComposite in2="hardAlpha" operator="out"/>
<feColorMatrix type="matrix" values="0 0 0 0 0 0 0 0 0 0 0 0 0 0 0 0 0 0 0.25 0"/>
<feBlend mode="normal" in2="BackgroundImageFix" result="effect1_dropShadow_1_2"/>
<feBlend mode="normal" in="SourceGraphic" in2="effect1_dropShadow_1_2" result="shape"/>
</filter>
</defs>
</svg>
