<svg width="1072" height="1072" xmlns="http://www.w3.org/2000/svg"><defs><linearGradient x1="50%" y1="0%" x2="50%" y2="100%" id="a"><stop stop-color="#3949AB" offset="0%"/><stop stop-color="#1A237E" offset="100%"/></linearGradient></defs><g fill="none" fill-rule="evenodd"><circle fill="url(#a)" cx="535.714" cy="535.714" r="535.714"/><g transform="rotate(45 169.906 687.237)" fill="#FFF"><path d="M66.814 0h177.9c36.9 0 66.814 29.914 66.814 66.814v177.9c0 36.9-29.913 66.814-66.813 66.814H66.814C29.914 311.528 0 281.615 0 244.715V66.814C0 29.914 29.914 0 66.814 0zm88.95 214.176c32.26 0 58.412-26.152 58.412-58.412s-26.152-58.411-58.412-58.411-58.411 26.151-58.411 58.411c0 32.26 26.151 58.412 58.411 58.412z"/><path d="M397.81 25.058c-23.063 0-41.759 18.696-41.759 41.759v177.9c0 23.064 18.696 41.76 41.759 41.76h177.9c23.063 0 41.76-18.696 41.76-41.76v-177.9c0-23.063-18.697-41.759-41.76-41.759h-177.9zm0-25.055h177.9c36.9 0 66.814 29.914 66.814 66.814v177.9c0 36.901-29.913 66.815-66.814 66.815h-177.9c-36.9 0-66.814-29.914-66.814-66.814V66.817c0-36.9 29.913-66.814 66.814-66.814z" fill-rule="nonzero"/><circle cx="486.76" cy="155.767" r="58.412"/><path d="M66.814 330.999h177.9c36.9 0 66.814 29.914 66.814 66.814v177.9c0 36.9-29.913 66.814-66.813 66.814H66.814C29.914 642.527 0 612.614 0 575.714V397.813c0-36.9 29.914-66.814 66.814-66.814zm88.95 214.176c32.26 0 58.412-26.152 58.412-58.412s-26.152-58.411-58.412-58.411-58.411 26.151-58.411 58.411c0 32.26 26.151 58.412 58.411 58.412zm242.049-214.176h177.9c36.9 0 66.814 29.914 66.814 66.814v177.9c0 36.9-29.913 66.814-66.813 66.814H397.813c-36.9 0-66.814-29.913-66.814-66.813V397.813c0-36.9 29.914-66.814 66.814-66.814zm88.95 214.176c32.26 0 58.412-26.152 58.412-58.412s-26.152-58.411-58.412-58.411-58.411 26.151-58.411 58.411c0 32.26 26.151 58.412 58.411 58.412z"/></g></g></svg>