<svg xmlns="http://www.w3.org/2000/svg" xmlns:xlink="http://www.w3.org/1999/xlink" viewBox="0 0 459 459.16">
    <defs>
        <linearGradient id="a" x1="229.87" y1="12" x2="229.08" y2="471.16" gradientUnits="userSpaceOnUse">
            <stop offset="0" stop-color="#394ba7"/>
            <stop offset=".14" stop-color="#3546a1"/>
            <stop offset="1" stop-color="#1d297e"/>
        </linearGradient>
        <linearGradient id="b" x1="204.65" y1="128.41" x2="253.91" y2="128.41" xlink:href="#a"/>
        <linearGradient id="c" x1="104.1" y1="229.22" x2="153.35" y2="229.22" xlink:href="#a"/>
        <linearGradient id="d" x1="258.4" y1="229.35" x2="401.44" y2="229.35" xlink:href="#a"/>
        <linearGradient id="e" x1="204.51" y1="329.64" x2="254.25" y2="329.64" xlink:href="#a"/>
    </defs>
    <g data-name="Layer 2">
        <g data-name="Layer 1">
            <path d="M105.5.24c-19 .9-35.1 4.4-47.6 10.3-31.4 14.6-50.3 40.7-56.1 77.3C.1 98.14 0 109.34 0 229c0 139.6 0 140.8 5.1 158.3 6.2 21.3 20.5 41.3 37.9 53 13.7 9.2 28.4 14.6 47.3 17.4 12.4 1.9 264.5 1.9 277.8 0 30.8-4.2 53.9-17.1 70.5-39.3 6-8.1 13.1-22.8 15.8-32.9 4.6-16.9 4.6-18.3 4.6-156 0-120.2-.1-131.4-1.8-141.7-4.8-30.5-18.8-53.7-41.6-69.2-8.1-5.5-20.8-11.5-29.1-13.6-18.4-4.9-15.7-4.8-149-5-69-.06-128.4 0-132 .24zm137.1 48.5c6.6 3.9 63.8 61.6 66.9 67.5 3.4 6.5 3.5 17.7.1 24.3s-60.9 64.3-67.6 67.7a28.34 28.34 0 0 1-23 1.3c-5.6-2.1-8.2-4.4-36.7-32.9-34.5-34.4-35.8-36.1-35.8-48.1s1.5-13.8 34.3-46.8c29-29.1 32.6-32.3 39.6-34.9 5.7-2.1 17-1.2 22.2 1.9zm-103.5 99.4c4.3 1.5 8.6 5.3 35.7 32.3 22.2 22 31.6 32 33.4 35.5a30.26 30.26 0 0 1 1.8 22.2c-1.6 5.8-2.4 6.6-32.8 37.2-35.2 35.3-36.9 36.6-48.7 36.6s-13.6-1.4-48.1-36.1C46.6 241.84 46 241 46 229s.7-12.9 33.9-46.3c33.9-34.1 36.6-36.2 48.1-36.2a42.44 42.44 0 0 1 11.1 1.64zm202.9.8c3.8 1.8 12.2 9.6 35.7 33.2 34.1 34.3 35.1 35.6 35.1 47.1 0 12-2.2 14.8-36 48.4-33.5 33.3-34.8 34.2-46.8 34.2s-14.7-1.9-48.3-35.6c-32.8-32.9-34.3-35-34.3-47.1 0-11.6.8-12.7 34.9-47 34.6-34.7 35.8-35.6 47.7-35.6 5.3 0 8.2.6 12 2.4zM242 250c3.8 1.8 12.4 9.8 35.6 33.2 34.1 34.3 34.5 34.8 34.3 47.3-.2 11.6-1.3 13.1-34.8 46.6-19.3 19.4-31.7 31-34.6 32.5-6.5 3.4-19.5 3.4-26 .1-2.9-1.5-15.1-12.9-34.4-32-33.2-33.1-35.6-36.2-35.6-47.3 0-12 .2-12.3 34.4-46.7 17.1-17.3 32.8-32.2 34.8-33.3a28.43 28.43 0 0 1 26.3-.4z" fill="url(#a)"/>
            <path d="M221.1 105a25.11 25.11 0 0 0-13.9 12.6c-2.5 4.7-2.8 6.2-2.4 11.9.7 11.6 6.9 19.5 17.6 22.6 16.1 4.7 31.3-6.7 31.5-23.6.1-5.4-.4-7.4-2.9-11.8a24.66 24.66 0 0 0-29.9-11.7z" fill="url(#b)"/>
            <path d="M118.5 206.64c-9.7 4.4-14.3 11.6-14.4 22.4-.1 8 2 12.8 7.6 18.2 4.7 4.5 10.2 6.6 17.3 6.6 13.2-.1 23.3-9.7 24.3-23.4.7-10-5.8-20.4-15.4-24.4-5.2-2.1-14-1.9-19.4.6z" fill="url(#c)"/>
            <path d="M322 159.14c-4.1 2.2-57 54.8-60.6 60.3a19.56 19.56 0 0 0-1.9 16.8c1.2 3.1 58.1 60.7 62 62.7a18.91 18.91 0 0 0 13.4 1.5c3.5-.9 8.5-5.4 34-30.7 16.4-16.4 30.4-31.1 31.2-32.9 2-4.6 1.7-11.7-.5-16.1-2.4-4.5-57.4-59.4-61.8-61.6-4-2-11.9-2-15.8 0zm19.2 47.6c11.8 5.5 17.5 21.6 11.7 33.1a31.17 31.17 0 0 1-11.9 12c-5.6 3-16.4 3-22.1 0-10-5.3-15.7-16.8-13.6-27.2 3.5-16.8 20.6-25.3 35.9-17.9z" fill="url(#d)"/>
            <path d="M224.4 305.24c-1.5.2-5.1 1.8-8 3.6a24.56 24.56 0 0 0-4.6 38.5c5.3 5.2 10.1 7.2 17.5 7.2 18.4 0 30.6-19.5 22.3-35.8a27.42 27.42 0 0 0-15.2-12.6c-5.2-1.6-6.8-1.7-12-.9z" fill="url(#e)"/>
        </g>
    </g>
</svg>
