<svg xmlns="http://www.w3.org/2000/svg" viewBox="0 0 459 459.24">
    <defs>
        <style>
            .cls-1{fill:url(#linear-gradient)}
        </style>
        <linearGradient id="linear-gradient" x1="229.5" y1="13.62" x2="229.5" y2="441.62" gradientUnits="userSpaceOnUse">
            <stop offset="0" stop-color="#336bf5"/>
            <stop offset="1" stop-color="#1648c1"/>
        </linearGradient>
    </defs>
    <g id="Layer_2" data-name="Layer 2">
        <g id="Layer_1-2" data-name="Layer 1">
            <path class="cls-1" d="M103.5.62c-6.3.4-14.9 1.3-19 2-38.2 6.38-67.1 31.1-78.4 67C-.1 89 0 87.42 0 230.12 0 349.82.1 361 1.8 371.32c3.2 20 9.9 36.1 20.8 49.8 16.6 20.8 37.9 32.3 68.4 36.7 13.1 1.9 263.9 1.9 277 0 19.5-2.8 34.2-8.2 47.6-17.3a82.93 82.93 0 0 0 20.8-19.4c10.9-13.7 17.6-29.8 20.8-49.8 1.7-10.3 1.8-21.5 1.8-141.2 0-142.7.1-141.1-6.1-160.5-11.6-37-40.2-60.7-81.4-67.6C361.9.42 350 .22 238 0c-67.6-.08-128.2.22-134.5.62zm157.5 70c49.7 10.5 90.9 41.9 113.3 86.5 30.5 60.8 19.5 134.7-27.2 183.3-16 16.6-29.1 26.3-47.9 35.3A162 162 0 0 1 95 319.62c-38.2-56.7-36.2-132.5 5.1-187.2C126 98 163.5 75.72 206.7 69.12c13.4-2 41.1-1.3 54.3 1.5z"/>
            <path class="cls-1" d="M183.3 179.22c-5.8 3.1-5.8 3.4-5.8 50.4 0 47.3 0 47.4 6 50.5 4.4 2.3 87.6 2.3 92 0 6-3.1 6-3.2 6-50.5s0-47.4-6-50.5c-4.3-2.2-88.1-2.2-92.2.1z"/>
        </g>
    </g>
</svg>
