<svg xmlns="http://www.w3.org/2000/svg" width="157" height="19" viewBox="0 0 157 19">
    <g fill="none" fill-rule="evenodd">
        <g fill="#0B1426" fill-rule="nonzero">
            <g>
                <g>
                    <path d="M6.567 16.764c5.292 0 8.949-3.613 8.949-8.264v-.047c0-4.652-3.657-8.217-8.949-8.217H0v16.528h6.567zm0-3.282H3.705V3.518h2.862c3.031 0 5.076 2.054 5.076 4.982v.047c0 2.928-2.045 4.935-5.076 4.935zm27.321 3.282v-3.235h-9.14v-3.47h7.937V6.823h-7.938V3.47h9.02V.236h-12.7v16.528h12.821zm9.256 0v-6.399h8.034V7.06h-8.034V3.542h9.117V.236H39.439v16.528h3.705zm18.204 0V.236h-3.705v16.528h3.705zM83.274 17c3.633 0 6.182-1.842 6.182-5.124v-.047c0-2.88-1.924-4.085-5.34-4.958-2.91-.732-3.632-1.086-3.632-2.172V4.65c0-.802.745-1.44 2.165-1.44 1.419 0 2.886.614 4.378 1.63L88.95 2.1C87.243.756 85.151 0 82.697 0c-3.44 0-5.894 1.983-5.894 4.982v.047c0 3.282 2.19 4.203 5.581 5.053 2.815.708 3.392 1.18 3.392 2.101v.048c0 .968-.914 1.558-2.43 1.558-1.924 0-3.512-.78-5.027-2.007l-2.19 2.574C78.15 16.126 80.725 17 83.275 17zm18.733-.118l3.801-10.814 3.8 10.814h3.224l5.75-16.646h-3.873l-3.488 11.192-3.777-11.24h-3.175l-3.777 11.24L97.004.236h-3.97l5.75 16.646h3.223zm21.74-.118l1.54-3.707h7.12l1.54 3.707h3.873L130.603.118h-3.415l-7.217 16.646h3.777zm7.338-6.918h-4.475l2.237-5.36 2.238 5.36zm15.293 6.918v-4.958h2.814c3.777 0 6.808-1.984 6.808-5.809V5.95c0-3.376-2.43-5.714-6.447-5.714h-6.88v16.528h3.705zm2.935-8.193h-2.935V3.518h2.862c1.853 0 3.007.874 3.007 2.503v.047c0 1.417-1.082 2.503-2.934 2.503z" transform="translate(-642 -168) translate(560.5 168.912) translate(82)"/>
                </g>
            </g>
        </g>
    </g>
</svg>
