<svg xmlns="http://www.w3.org/2000/svg" xmlns:xlink="http://www.w3.org/1999/xlink" viewBox="0 0 322.73 326.86"><defs><style>.cls-1{isolation:isolate;}.cls-11,.cls-12,.cls-13,.cls-2,.cls-3,.cls-5,.cls-6,.cls-7,.cls-8,.cls-9{mix-blend-mode:multiply;}.cls-2{fill:url(#未命名的渐变_3);}.cls-3{fill:url(#未命名的渐变_3-2);}.cls-4{fill:url(#未命名的渐变_11);}.cls-5{fill:url(#未命名的渐变_3-3);}.cls-6{fill:url(#未命名的渐变_3-4);}.cls-7{fill:url(#未命名的渐变_3-5);}.cls-8{fill:url(#未命名的渐变_68);}.cls-9{fill:url(#未命名的渐变_3-6);}.cls-10{fill:none;}.cls-11{fill:url(#未命名的渐变_85);}.cls-12{fill:url(#未命名的渐变_34);}.cls-13{opacity:0.64;fill:url(#未命名的渐变_87);}.cls-14{fill:#828282;mix-blend-mode:saturation;}</style><linearGradient id="未命名的渐变_3" x1="242.06" y1="283.73" x2="242.04" y2="283.7" gradientUnits="userSpaceOnUse"><stop offset="0" stop-color="#c9caca"/><stop offset="0.12" stop-color="#d5d6d6"/><stop offset="0.33" stop-color="#f6f6f6"/><stop offset="0.38" stop-color="#fff"/><stop offset="1" stop-color="#898989"/></linearGradient><linearGradient id="未命名的渐变_3-2" x1="171.06" y1="284.11" x2="171.04" y2="284.09" xlink:href="#未命名的渐变_3"/><linearGradient id="未命名的渐变_11" y1="163.43" x2="322.73" y2="163.43" gradientUnits="userSpaceOnUse"><stop offset="0" stop-color="#9ef4ff"/><stop offset="0.13" stop-color="#9bf2ff"/><stop offset="0.24" stop-color="#91eafe"/><stop offset="0.33" stop-color="#80ddfc"/><stop offset="0.42" stop-color="#68cbfa"/><stop offset="0.51" stop-color="#49b4f7"/><stop offset="0.59" stop-color="#2498f3"/><stop offset="0.6" stop-color="#2196f3"/><stop offset="1" stop-color="#e680f4"/></linearGradient><linearGradient id="未命名的渐变_3-3" x1="227.33" y1="260.25" x2="227.33" y2="260.24" xlink:href="#未命名的渐变_3"/><linearGradient id="未命名的渐变_3-4" x1="227.18" y1="260.74" x2="227.02" y2="260.55" xlink:href="#未命名的渐变_3"/><linearGradient id="未命名的渐变_3-5" x1="227.79" y1="259.49" x2="227.78" y2="259.48" xlink:href="#未命名的渐变_3"/><linearGradient id="未命名的渐变_68" x1="269.92" y1="351.42" x2="0.73" y2="45" gradientUnits="userSpaceOnUse"><stop offset="0" stop-color="#2469bf"/><stop offset="0.04" stop-color="#3071c3"/><stop offset="0.12" stop-color="#5188cc"/><stop offset="0.22" stop-color="#87addc"/><stop offset="0.34" stop-color="#cfdef1"/><stop offset="0.41" stop-color="#fff"/><stop offset="0.74" stop-color="#005a7d"/></linearGradient><linearGradient id="未命名的渐变_3-6" x1="227.65" y1="259.97" x2="227.48" y2="259.78" xlink:href="#未命名的渐变_3"/><linearGradient id="未命名的渐变_85" x1="289.37" y1="110.07" x2="139.07" y2="90.28" gradientUnits="userSpaceOnUse"><stop offset="0" stop-color="#715aa9"/><stop offset="1" stop-color="#fff"/></linearGradient><linearGradient id="未命名的渐变_34" x1="213.1" y1="298.29" x2="59.28" y2="269.67" gradientUnits="userSpaceOnUse"><stop offset="0.05" stop-color="#00607d"/><stop offset="0.09" stop-color="#22758e"/><stop offset="0.17" stop-color="#649eb0"/><stop offset="0.25" stop-color="#9bc1cc"/><stop offset="0.32" stop-color="#c6dce2"/><stop offset="0.39" stop-color="#e5eff2"/><stop offset="0.44" stop-color="#f8fbfc"/><stop offset="0.48" stop-color="#fff"/><stop offset="0.95" stop-color="#1faeba"/></linearGradient><linearGradient id="未命名的渐变_87" x1="306.77" y1="170.98" x2="268.03" y2="290.05" gradientUnits="userSpaceOnUse"><stop offset="0" stop-color="#7c3eb6"/><stop offset="0.06" stop-color="#7948bb"/><stop offset="0.35" stop-color="#6b73d2"/><stop offset="0.62" stop-color="#6091e3"/><stop offset="0.84" stop-color="#5aa4ed"/><stop offset="1" stop-color="#58abf1"/></linearGradient></defs><title>资源 6</title><g class="cls-1"><g id="图层_2" data-name="图层 2"><g id="图层_1-2" data-name="图层 1"><path class="cls-2" d="M242,283.74l.1-.05Z"/><path class="cls-3" d="M171,284.12l.11-.05Z"/><path class="cls-4" d="M117.44,321.48A163.92,163.92,0,0,1,0,164.11C0,73.62,73.62,0,164.11,0A163.62,163.62,0,0,1,291.28,60.36C298.71,69.47,306,79.6,306,94.49c0,42.11-54,60-79.17,26.3h0A76.19,76.19,0,0,0,87.93,164.11c0,27.18,15.35,63.21,58.43,82.84,23.37,10.65,53.5,16.43,81.51,12.39,8.08-20,4.71-52.89,17-75.12,19.18-34.64,80.07-28.73,77.77,21.53-1.3,28.51-28.66,64.7-78.09,76.68C218,323,164.07,335.15,117.44,321.48ZM164.11,25.86c-76.23,0-138.25,62-138.25,138.25,0,61,40.65,115.5,98.85,132.56,20.88,6.12,54.5,7.86,80.33-10.26a181.12,181.12,0,0,1-69.4-15.93C81.4,245.77,62.07,199.33,62.07,164.11a102.05,102.05,0,0,1,185.38-58.9c10.36,14.05,32.67,6.73,32.67-10.72,0-5.88-2.86-10.41-8.87-17.77A137.81,137.81,0,0,0,164.11,25.86ZM281.32,187c-15.72,0-15.66,21.15-18.25,35.5-.49,2.71-3.06,19.16-5.13,28,25.86-12.4,37.57-34,38.94-44.65C298.38,194.27,293.5,187,281.32,187Z"/><path class="cls-5" d="M227.32,260.27l0,0Z"/><path class="cls-6" d="M227.32,260.27l-.45.74Z"/><path class="cls-7" d="M227.79,259.47l0,0,0,0Z"/><path class="cls-8" d="M146.36,247c-43.08-19.63-58.43-55.66-58.43-82.84a76.19,76.19,0,0,1,38.2-66h0a0,0,0,0,0,0,0c-45,22.46-81,96.31-25.51,149.72a136.54,136.54,0,0,0,35,22.68A181.12,181.12,0,0,0,205,286.41h0c6.06-4.48,11.71-11.64,17.18-18.63.7-.89,1.35-1.78,1.95-2.63.81-1.19,1.61-2.4,2.37-3.61.6-1,1-1.76,1.28-2.2h0l0,.13.08-.13C199.86,263.38,169.73,257.6,146.36,247Z"/><path class="cls-9" d="M227.34,260.23c.15-.24.29-.49.43-.73C227.63,259.74,227.49,260,227.34,260.23Z"/><path class="cls-10" d="M279.51,90.06c.05.19.09.37.14.55C279.6,90.43,279.56,90.25,279.51,90.06Z"/><path class="cls-11" d="M275.18,81.79a39.2,39.2,0,0,1,2.55,4h0a22.37,22.37,0,0,1,1.17,2.43h0a18.69,18.69,0,0,1,.61,1.83h0c.05.19.09.37.14.55h0a18.08,18.08,0,0,1,.35,2h0a17.39,17.39,0,0,1,.12,1.93c0,17.45-22.31,24.77-32.67,10.72a102,102,0,0,0-105-40.81h0l3.27,25.77h0A76.17,76.17,0,0,1,226.8,120.8h0c12.61,16.86,32.39,20.82,49,15.29h0c23.84-19.14,9.42-41.34-.69-54.28Z"/><path class="cls-10" d="M277.73,85.8c.1.19.21.38.3.57"/><path class="cls-10" d="M277.73,85.79h0"/><path class="cls-10" d="M275.87,136.07h0"/><path class="cls-10" d="M279.92,92c0,.18.06.37.08.56"/><line class="cls-10" x1="280" y1="92.56" x2="280" y2="92.56"/><path class="cls-10" d="M278.89,88.2v0"/><line class="cls-10" x1="278.9" y1="88.23" x2="278.9" y2="88.23"/><line class="cls-10" x1="279.65" y1="90.61" x2="279.65" y2="90.61"/><path class="cls-10" d="M279.51,90.06h0"/><path class="cls-10" d="M279.51,90.06c.05.19.09.37.14.55"/><path class="cls-10" d="M276.9,84.37c-.12-.19-.23-.38-.36-.57"/><path class="cls-12" d="M117.44,321.48a133,133,0,0,0,35.25,5.36c14.46-.23,26-3.26,32.84-7,18.84-10.33,31.72-28.81,42.3-60.5h0a66.65,66.65,0,0,1-5.6,8.44c-5.47,7-11.12,14.15-17.18,18.63h0a73.41,73.41,0,0,1-11.31,6.51c-13.92,6.83-29.45,9.1-46.77,9.22-18.17.13-50.29-2.4-73.1-12.18a119.84,119.84,0,0,1-46.11-34.41q2.61,3.9,5.47,7.67A164.44,164.44,0,0,0,117.44,321.48Z"/><path class="cls-10" d="M258,250.42h0l.2-.1Z"/><path class="cls-13" d="M322.66,205.75c.66-14.42-3.89-25.16-11.15-32.37a11.77,11.77,0,0,0-3.59-2c-10.48-3.41-27.15,1.57-37.3,21h0a12.45,12.45,0,0,1,10.7-5.38c12.18,0,17.06,7.31,15.56,18.82-1.37,10.59-13.05,32.18-38.83,44.59a.31.31,0,0,1-.1,0h0c-4.75,19.32-12,29.95-13.35,32h0C294,270.44,321.36,234.26,322.66,205.75Z"/><path class="cls-14" d="M227.32,258.93l0,0Z"/><path class="cls-14" d="M227.32,258.93l-.45.74Z"/><path class="cls-14" d="M227.79,258.14l0,0,0,0Z"/><path class="cls-14" d="M227.34,258.89c.15-.24.29-.48.43-.73C227.63,258.41,227.49,258.65,227.34,258.89Z"/></g></g></g></svg>