<?xml version="1.0" encoding="UTF-8"?>
<svg width="423px" height="311px" viewBox="0 0 423 311" version="1.1" xmlns="http://www.w3.org/2000/svg" xmlns:xlink="http://www.w3.org/1999/xlink">
    <!-- Generator: Sketch 50.2 (55047) - http://www.bohemiancoding.com/sketch -->
    <title>bird</title>
    <desc>Created with Sketch.</desc>
    <defs></defs>
    <g id="Page-1" stroke="none" stroke-width="1" fill="none" fill-rule="evenodd">
        <g id="bird" transform="translate(25.000000, -16.000000)" fill="#327CCB" fill-rule="nonzero">
            <g id="Group" transform="translate(192.900000, 160.000000) scale(-1, 1) rotate(-180.000000) translate(-192.900000, -160.000000) translate(0.900000, 0.500000)">
                <path d="M171.4,317.5 C168.8,316.4 168.4,314.7 170.6,313.9 C171.4,313.6 172.6,311.5 173.3,309.4 C173.9,307.2 175,305 175.8,304.4 C177.4,303 177.6,297.5 176,297.5 C175.4,297.5 172.6,300.1 169.8,303.2 C157.1,317.3 156.8,317.5 151.2,317.5 C145.4,317.5 144.1,316.1 146.4,312.3 C147.2,311 148.2,308.7 148.5,307.1 C148.9,305.4 150.2,302.7 151.4,301.1 C152.6,299.4 154.1,296.6 154.7,294.9 L155.8,291.7 L151.2,293.7 C148.7,294.8 145.9,296.3 145,297.1 C142.8,299.1 142.5,298.9 138.6,295 C134.5,291 134.4,290.2 137.1,286.8 C138.2,285.4 139.1,283.5 139.1,282.6 C139.1,281.7 141.1,276.9 143.7,272.1 C146.2,267.2 148,262.6 147.7,261.9 C146.7,259.4 142.1,260.3 122.1,267.1 C119.6,267.9 114.5,269.4 110.6,270.4 C106.8,271.5 102.3,272.8 100.6,273.4 C95.2,275.3 87.7,277.6 81.1,279.5 C72.5,282 65.7,284.2 59.6,286.5 C56.9,287.6 53,288.8 51.1,289.1 C49.2,289.5 46,290.6 44.1,291.5 C42.2,292.4 38.4,293.8 35.6,294.4 C32.9,295.1 29.9,296.3 29.1,297 C27.7,298.2 26.7,298.1 21.7,296.1 C14.3,293.1 13.8,292.5 14.8,288.4 C15.9,284.5 21.1,281 27.6,279.9 C29.8,279.6 33.5,278.5 35.8,277.5 C38.2,276.5 42.2,275.3 44.8,274.9 C50.4,274.1 53.4,272.8 52.6,271.4 C51.6,269.9 36.8,270.4 28.5,272.2 C21.9,273.6 20.1,273.7 14.7,272.5 C11.4,271.8 6.8,270.9 4.6,270.6 C0.3,269.9 -1.5,267 1.8,265.8 C2.8,265.5 4.5,264.2 5.6,263 C7.8,260.5 18.8,256.9 26.8,255.9 C33.7,255.1 38.1,253.5 38.1,252 C38.1,250 35.4,249.4 22.9,249 C9.2,248.6 5.7,247.7 5.3,244.6 C5.1,243.3 5.3,241.9 5.8,241.4 C6.2,241 12.5,239.9 19.6,239 C33.7,237.3 40.1,235.9 40.1,234.6 C40.1,233.1 36.9,232.3 28.8,231.8 C24.5,231.5 20.8,230.8 20.5,230.4 C20.2,229.9 21.7,227.9 23.7,225.8 C27.3,222.3 27.7,222.1 35.7,221.7 C46.2,221.1 46.9,220.5 45.3,212.6 C43.7,204.9 43.7,204.6 46.7,203.5 C48.2,202.9 50.5,201.5 52,200.4 C53.4,199.3 57.5,196.2 61,193.5 C64.5,190.7 67.7,188.5 68.1,188.5 C69,188.5 80.4,179.4 83.8,176.1 C85.1,174.8 90.5,171.5 95.8,168.8 C109.9,161.7 117.9,153.8 132.3,132.6 C133.6,130.8 136.4,127.2 138.7,124.6 C140.9,122.1 145.6,116.4 149.1,112 C152.6,107.6 157,102.4 158.9,100.4 C163.6,95.3 173.1,82.4 173.1,81 C173.1,80.4 174.2,78.4 175.6,76.5 C180.1,70.4 179.6,69.5 167.4,59.5 C161.2,54.4 160.9,54.3 149.5,52.4 C143.1,51.4 133.2,50.2 127.5,49.9 C121.7,49.5 116.8,48.8 116.4,48.3 C116.1,47.7 116.3,46.3 116.9,45.2 C118.5,42 120.1,33.1 120.1,28 C120.1,23.2 120.4,22.8 132,8.3 C139,-0.5 141.1,-0.9 149.1,4.5 C150.5,5.5 154.1,7.9 157.1,9.9 C160.1,11.9 163.7,14.3 165.1,15.2 C166.5,16.1 170.7,18.9 174.4,21.3 L181.2,25.8 L192.5,25.1 C198.7,24.7 205.4,24 207.2,23.5 C209.1,22.9 214.6,22.2 219.4,21.8 C227.5,21.2 228.3,21.4 230.2,23.3 C234.1,27.5 237.1,25 237.1,17.7 C237.1,13 238.3,11.8 244.7,10.2 C248.6,9.2 250,8.2 252.6,4.5 C254.3,2 256.4,0 257.1,0 C257.9,0 259,1.8 259.6,4.2 C261.6,12.2 266.8,15 269.6,9.5 C270.8,7.2 271.8,6.5 274.1,6.5 C277.7,6.5 278.8,8.1 276.7,10.4 C275.9,11.3 274.8,13.7 274.4,15.7 C273.9,17.7 272.1,20.9 270.3,22.9 C267.2,26.4 266.8,26.5 260.1,26.5 C254.4,26.5 252.7,26.9 251.1,28.5 C245.5,34.1 250.6,36.2 271.9,37 C279.9,37.4 293.2,41.2 294.7,43.6 C295,44.1 295.9,44.5 296.8,44.5 C298.4,44.5 302,46.6 315.4,55.2 C319.1,57.5 325.1,61.5 328.9,63.8 C332.6,66.2 338.2,69.9 341.5,72.1 C344.7,74.2 348.3,76.6 349.5,77.2 C352.6,79.1 358.5,78.8 361.1,76.7 C363.2,75 363.3,74.4 362.5,69.9 C361.8,66.1 362,63.9 363.2,60.2 C365.8,52.6 366.6,52.4 371.1,57.5 C374.8,61.8 375,62.3 375.1,68.8 C375.1,75.6 376,77.8 381.3,84 C382.6,85.5 383,88.2 383.2,95.4 L383.4,104.8 L378.5,110.2 C375,114 371.2,116.7 365.1,119.7 C357.7,123.4 355.5,124 348.7,124.3 C344.1,124.6 336.4,124 330,123 C311.9,120.1 306.5,121.6 304.2,130.5 C303.4,133.9 301.2,150 298.7,172.5 C297.3,184.8 298.1,182.6 285.7,206 C283.6,209.8 280.3,214.8 278.3,217.1 C276.3,219.4 273,223.5 271.1,226.1 C269.2,228.8 267,231.6 266.3,232.5 C265.5,233.3 260.4,240.1 254.9,247.5 C241.8,265 239.2,268 232.9,272.7 C227.5,276.8 217.9,284.7 215.1,287.5 C214.2,288.4 211.7,290.4 209.6,292 C204.2,296 188.1,309.3 180.9,315.8 C177.6,318.6 175.2,319 171.4,317.5 Z" id="Shape" transform="translate(191.748677, 159.179789) rotate(20.000000) translate(-191.748677, -159.179789) "></path>
            </g>
        </g>
    </g>
</svg>