<svg width="127" height="36" viewBox="0 0 127 36" fill="none" xmlns="http://www.w3.org/2000/svg">
<g id="Group 21">
<path id="Fill 1" fill-rule="evenodd" clip-rule="evenodd" d="M52.2828 5.02991C50.6809 5.02991 49.3457 6.28739 49.3457 7.81456V10.5455H55.7538V15.261H49.3457V33H43.7376V15.261H40V10.5455H43.7376V7.45462C43.7376 2.91931 47.4322 0 51.7039 0C55.1309 0 57 1.88604 57 1.88604L54.8643 5.88268C54.8643 5.88268 53.6181 5.02991 52.2828 5.02991Z" fill="url(#paint0_linear)"/>
<path id="Fill 3" fill-rule="evenodd" clip-rule="evenodd" d="M81 11V33.7722H76.3974L75.5693 31.2219H74.9706C74.0507 32.3607 72.0253 34 68.2511 34C62.1296 34 59 29.7188 59 23.3427V11H65.2595V21.9766C65.2595 24.8001 65.4893 28.7173 69.4478 28.7173C71.4728 28.7173 74.7871 27.6697 74.7871 21.7027V11H81Z" fill="url(#paint1_linear)"/>
<path id="Fill 5" fill-rule="evenodd" clip-rule="evenodd" d="M93.2258 15.7803C91.3261 15.7803 90.5128 16.7273 90.5128 17.6751C90.5128 19.2076 92.5477 19.6583 93.9042 19.9291C97.9294 20.7858 102 22.004 102 26.784C102 31.4291 98.1548 34 93.4974 34C88.2971 34 84.2719 30.8425 84 26.0625H89.5635C89.6987 27.4156 90.6026 29.174 93.361 29.174C95.6679 29.174 96.2104 27.9565 96.2104 27.0095C96.2104 25.3407 94.6274 24.845 93.0902 24.4843C90.4222 23.8977 84.6781 22.8151 84.6781 17.6751C84.6781 13.2548 88.929 11 93.3163 11C98.3817 11 101.728 14.0662 102 17.8545H96.4376C96.2566 17.0881 95.5323 15.7803 93.2258 15.7803Z" fill="url(#paint2_linear)"/>
<path id="Fill 7" fill-rule="evenodd" clip-rule="evenodd" d="M126.94 24.2135H110.631C111.301 27.6404 114.072 28.9035 116.484 28.9035C119.523 28.9035 120.819 27.0099 120.819 27.0099H126.449C124.751 31.519 120.684 34 116.305 34C110.273 34 105 29.3549 105 22.3187C105 15.3293 110.229 11 116.127 11C121.847 11 127.655 15.0135 126.94 24.2135ZM110.988 19.6583H121.042C120.372 16.9975 118.54 15.9159 116.305 15.9159C113.848 15.9159 111.882 17.3136 110.988 19.6583Z" fill="url(#paint3_linear)"/>
<path id="Fill 9" fill-rule="evenodd" clip-rule="evenodd" d="M8.9515 25.0274L11.5502 26.2018C13.2741 26.9808 15.1076 27.3754 16.9996 27.3754C18.8928 27.3754 20.7266 26.9808 22.4498 26.2018L23.9643 25.5174L20.0862 23.7663L19.9553 23.8063C17.605 24.5256 15.0805 24.3668 12.8466 23.3574L3.20479 18.9995L8.9515 16.4032L11.5527 17.5796C13.277 18.358 15.1097 18.7525 16.9996 18.7525C18.8899 18.7525 20.7226 18.358 22.4473 17.5793L23.9611 16.8946L20.0826 15.1431L19.9516 15.1831C17.6036 15.9017 15.0815 15.7429 12.8503 14.7353L3.20515 10.376L12.8495 6.01702C15.4877 4.82541 18.5134 4.82577 21.1505 6.01702L30.7948 10.376L21.2604 14.6852L30.7952 18.9995L21.264 23.3077L30.7952 27.6238L21.1512 31.9823C18.5131 33.175 15.4869 33.175 12.8488 31.9823L3.20479 27.6238L8.9515 25.0274ZM34 19.0002C34 17.7769 33.3053 16.7041 32.1875 16.199L28.8435 14.6874L32.1864 13.1772C33.3049 12.6724 34 11.5985 34 10.376C34 9.15338 33.3053 8.08021 32.1871 7.57476L22.448 3.1737C18.9857 1.60877 15.0143 1.60877 11.552 3.1737L1.8125 7.57476C0.694335 8.08021 0 9.15338 0 10.376C0 11.5982 0.694697 12.6721 1.81323 13.1772L5.1558 14.6874L1.81287 16.199C0.694697 16.7041 0 17.7769 0 19.0002C0 20.2221 0.694697 21.2956 1.81323 21.8011L5.1558 23.3116L1.8125 24.8229C0.694335 25.3284 0 26.4012 0 27.6238C0 28.8463 0.694697 29.9199 1.81323 30.4253L11.552 34.8267C13.2748 35.6054 15.1076 36 16.9996 36C18.8921 36 20.7252 35.6054 22.448 34.8267L32.1864 30.4253C33.3049 29.9206 34 28.8467 34 27.6238C34 26.4012 33.3053 25.3284 32.1871 24.8229L28.8435 23.3116L32.1864 21.8011C33.3049 21.2963 34 20.2228 34 19.0002Z" fill="url(#paint4_linear)"/>
</g>
<defs>
<linearGradient id="paint0_linear" x1="-3.57198" y1="129.369" x2="120.331" y2="134.278" gradientUnits="userSpaceOnUse">
<stop stop-color="#B1FFBF"/>
<stop offset="1" stop-color="#FFF16D"/>
</linearGradient>
<linearGradient id="paint1_linear" x1="-7.80613" y1="73.5759" x2="116.909" y2="91.8987" gradientUnits="userSpaceOnUse">
<stop stop-color="#B1FFBF"/>
<stop offset="1" stop-color="#FFF16D"/>
</linearGradient>
<linearGradient id="paint2_linear" x1="-5.83307" y1="91.7623" x2="121.13" y2="102.354" gradientUnits="userSpaceOnUse">
<stop stop-color="#B1FFBF"/>
<stop offset="1" stop-color="#FFF16D"/>
</linearGradient>
<linearGradient id="paint3_linear" x1="-4.98876" y1="77.1191" x2="121.581" y2="87.6476" gradientUnits="userSpaceOnUse">
<stop stop-color="#B1FFBF"/>
<stop offset="1" stop-color="#FFF16D"/>
<stop offset="1" stop-color="#FFF16D"/>
</linearGradient>
<linearGradient id="paint4_linear" x1="-3.84569" y1="65.1735" x2="114.066" y2="88.235" gradientUnits="userSpaceOnUse">
<stop stop-color="#B1FFBF"/>
<stop offset="1" stop-color="#FFF16D"/>
</linearGradient>
</defs>
</svg>
