<svg width="16" height="16" viewBox="0 0 16 16" fill="none" xmlns="http://www.w3.org/2000/svg">
<g clip-path="url(#clip0_2553_13577)">
<path d="M10.6668 12.001V2.66766C10.6668 1.93128 10.0699 1.33433 9.3335 1.33433H4.00016C3.26378 1.33433 2.66683 1.93128 2.66683 2.66766V12.001M11.3335 7.93433H11.6002C12.3365 7.93433 12.9335 8.53129 12.9335 9.26767V10.8011C12.9335 11.4638 13.4708 12.0011 14.1335 12.0011C14.7962 12.0011 15.3335 11.4646 15.3335 10.8018V4.55238C15.3335 4.19876 15.1046 3.89406 14.8546 3.64401L12.0002 0.667725M2.00016 14.6677H11.3335C11.7017 14.6677 12.0002 14.3692 12.0002 14.001V13.3343C12.0002 12.9661 11.7017 12.6677 11.3335 12.6677H2.00016C1.63197 12.6677 1.3335 12.9661 1.3335 13.3343V14.001C1.3335 14.3692 1.63197 14.6677 2.00016 14.6677ZM5.3335 6.66766H8.00016C8.36835 6.66766 8.66683 6.36918 8.66683 6.00099V4.00099C8.66683 3.6328 8.36835 3.33433 8.00016 3.33433H5.3335C4.96531 3.33433 4.66683 3.6328 4.66683 4.00099V6.00099C4.66683 6.36918 4.96531 6.66766 5.3335 6.66766ZM15.3335 4.66766C15.3335 5.40404 14.7365 6.00099 14.0002 6.00099C13.2638 6.00099 12.6668 5.40404 12.6668 4.66766C12.6668 3.93128 13.2638 3.33433 14.0002 3.33433C14.7365 3.33433 15.3335 3.93128 15.3335 4.66766Z" stroke="black" stroke-opacity="1" stroke-width="1"/>
<ellipse cx="4.66667" cy="9.33427" rx="0.666667" ry="0.666667" fill="none" fill-opacity="1"/>
<ellipse cx="6.66667" cy="9.33427" rx="0.666667" ry="0.666667" fill="none   " fill-opacity="1"/>
<circle cx="8.66667" cy="9.33427" r="0.666667" fill="none" fill-opacity="1"/>
</g>
<defs>
<clipPath id="clip0_2553_13577">
<rect width="16" height="16" fill="none" transform="translate(0 0.000976562)"/>
</clipPath>
</defs>
</svg>
