<?xml version="1.0" encoding="utf-8"?><svg version="1.1" id="Layer_1" xmlns="http://www.w3.org/2000/svg" xmlns:xlink="http://www.w3.org/1999/xlink" x="0px" y="0px" viewBox="0 0 110.9 122.88" style="enable-background:new 0 0 110.9 122.88" xml:space="preserve"><g><path d="M99.06,20.2c0.27,0.13,0.51,0.3,0.74,0.52c0.06,0.06,0.11,0.12,0.16,0.18c2.89,2.29,5.78,4.88,7.88,8 c2.32,3.45,3.61,7.44,2.83,12.17c-0.33,1.98-1.08,3.71-2.22,5.24c-0.82,1.09-1.82,2.05-3,2.89c-0.06,1.53-0.08,3.03-0.08,4.52 c0.01,1.91,0.07,3.88,0.18,5.9c0.25,4.74,0.96,9.52,1.67,14.26c0.76,5.1,1.52,10.16,1.72,15.43c0.27,6.75-0.53,12.3-2.76,16.22 c-2.48,4.38-6.51,6.72-12.45,6.51v0c-7.09-0.13-11.45-4.11-13.42-11.46c-1.72-6.43-1.46-15.61,0.49-27.16 c-0.06-9.15-1.25-16.08-3.61-20.75c-1.54-3.05-3.63-5.07-6.27-6.03v59.91c0.86,0.41,1.64,0.97,2.3,1.64 c1.52,1.52,2.47,3.63,2.47,5.95v5.98c0,1.51-1.23,2.74-2.74,2.74H2.74c-1.51,0-2.74-1.23-2.74-2.74v-5.98 c0-2.32,0.95-4.42,2.47-5.95c0.47-0.47,1-0.89,1.57-1.24V14.52c0-4,1.63-7.63,4.26-10.26C10.93,1.63,14.56,0,18.56,0h37.78 C60.35,0,64,1.64,66.64,4.28c2.64,2.64,4.28,6.29,4.28,10.31v26.36c4.86,1.06,8.57,4.17,11.15,9.27 c2.77,5.47,4.15,13.31,4.19,23.46c0,0.16-0.01,0.32-0.04,0.47l0.01,0c-1.85,10.87-2.15,19.35-0.63,25.02 c1.27,4.77,3.95,7.35,8.24,7.41l0.05,0v0c3.66,0.12,6.09-1.22,7.52-3.75c1.69-2.98,2.28-7.55,2.05-13.31 c-0.19-4.88-0.94-9.85-1.68-14.85c-0.72-4.82-1.44-9.68-1.71-14.78c-0.11-2.01-0.17-4.06-0.18-6.18c-0.01-1.68,0.02-3.34,0.09-4.97 c-5.11-4.48-8.22-8.96-9.18-13.42c-0.91-4.23,0.05-8.29,3-12.17c-2.25-1.54-4.54-2.8-6.86-3.81c-3.17-1.38-6.43-2.31-9.75-2.85 c-1.49-0.24-2.5-1.65-2.26-3.14c0.24-1.49,1.65-2.5,3.14-2.26c3.76,0.61,7.45,1.66,11.06,3.23C92.54,15.82,95.85,17.75,99.06,20.2 L99.06,20.2z M65.44,44.23c-0.12-0.34-0.18-0.7-0.15-1.08c0.02-0.27,0.07-0.52,0.15-0.76v-27.8c0-2.5-1.03-4.78-2.68-6.43 c-1.65-1.65-3.93-2.68-6.43-2.68H18.56c-2.48,0-4.74,1.02-6.38,2.66c-1.64,1.64-2.66,3.9-2.66,6.38v91.22h55.92V44.23L65.44,44.23z M68.42,111.46c-0.08,0.01-0.15,0.01-0.23,0.01H7.26c-0.34,0.15-0.65,0.36-0.91,0.62c-0.53,0.53-0.86,1.26-0.86,2.07v3.24h64.73 v-3.24c0-0.8-0.33-1.53-0.86-2.07C69.09,111.82,68.77,111.61,68.42,111.46L68.42,111.46z M23.04,13.74h29.44 c1.53,0,2.92,0.62,3.92,1.63c0.07,0.07,0.14,0.14,0.2,0.22c0.89,0.99,1.43,2.29,1.43,3.7v18.78c0,1.53-0.62,2.92-1.63,3.92 c-1,1-2.39,1.63-3.92,1.63H23.04c-1.52,0-2.9-0.63-3.91-1.63l-0.01,0.01c-1-1-1.63-2.39-1.63-3.92V19.29 c0-1.53,0.62-2.92,1.63-3.92c0.07-0.07,0.14-0.14,0.22-0.2C20.33,14.28,21.63,13.74,23.04,13.74L23.04,13.74z M52.48,19.22H23.04 c-0.01,0-0.02,0-0.02,0L23,19.24c-0.01,0.01-0.02,0.03-0.02,0.04v18.78c0,0.01,0.01,0.03,0.02,0.04L23,38.12L23,38.12 c0.01,0.01,0.02,0.01,0.04,0.01h29.44c0.01,0,0.03-0.01,0.04-0.02c0.01-0.01,0.02-0.03,0.02-0.04V19.29c0-0.01,0-0.02,0-0.02 l-0.02-0.02C52.51,19.23,52.5,19.22,52.48,19.22L52.48,19.22z M98.15,26.5c-1.91,2.56-2.55,5.12-1.99,7.7 c0.67,3.12,3,6.44,6.88,9.95c0.39-0.35,0.74-0.72,1.03-1.11c0.61-0.81,1.02-1.76,1.19-2.84c0.52-3.16-0.37-5.87-1.97-8.25 C101.97,29.97,100.13,28.16,98.15,26.5L98.15,26.5z"/></g></svg>