<svg width="133" height="30" viewBox="0 0 133 30" fill="none" xmlns="http://www.w3.org/2000/svg">
<path d="M42.3464 19.9947C43.9757 19.9947 45.5753 19.4411 46.538 18.693V13.92H42.1242V15.9848H44.1682V17.2416C43.561 17.5708 42.9981 17.7054 42.3464 17.7054C40.5543 17.7054 39.5026 16.299 39.5026 14.5783C39.5026 12.6032 40.7468 11.4511 42.2427 11.4511C43.3684 11.4511 44.1978 11.9449 44.7607 12.4985L46.5084 11.0023C45.4272 9.74541 43.7683 9.10202 42.2427 9.10202C38.8806 9.10202 36.9106 11.496 36.9106 14.5783C36.9106 18.0346 39.3101 19.9947 42.3464 19.9947ZM48.0681 19.875H50.3787V16.1942C50.3787 15.0571 50.9119 14.5035 51.7117 14.5035C52.4671 14.5035 52.867 14.8476 52.867 16.0596V19.875H55.1774V15.491C55.1774 13.1718 54.0813 12.4237 52.5856 12.4237C51.7413 12.4237 50.9712 12.7529 50.4083 13.4112H50.3787V12.5583H48.0681V19.875ZM60.2582 20.0097C62.5391 20.0097 64.1687 18.4686 64.1687 16.2242C64.1687 13.9649 62.5391 12.4237 60.2582 12.4237C57.918 12.4237 56.3335 13.9948 56.3335 16.2242C56.3335 18.4386 57.918 20.0097 60.2582 20.0097ZM60.2582 17.9448C59.3398 17.9448 58.6737 17.1967 58.6737 16.2242C58.6737 15.2217 59.3254 14.5035 60.2582 14.5035C61.1619 14.5035 61.8285 15.2067 61.8285 16.2242C61.8285 17.2267 61.1322 17.9448 60.2582 17.9448ZM67.7954 20.0097C69.7798 20.0097 70.7429 19.0222 70.7429 17.6606C70.7429 16.2242 69.8689 15.8052 68.2695 15.2516C67.5435 14.9972 67.2768 14.8327 67.2768 14.6082C67.2768 14.3239 67.5881 14.2042 67.8548 14.2042C68.3432 14.2042 68.9653 14.4586 69.4691 14.9673L70.5652 13.3364C69.721 12.708 68.9207 12.4237 67.8251 12.4237C66.3143 12.4237 65.1142 13.2766 65.1142 14.7578C65.1142 16.1643 66.1807 16.7628 67.3956 17.1369C68.2987 17.4212 68.5209 17.5708 68.5209 17.8102C68.5209 18.0795 68.2838 18.2441 67.8251 18.2441C67.1585 18.2441 66.5365 17.9748 65.9293 17.4212L64.848 18.9324C65.6477 19.6506 66.6548 20.0097 67.7954 20.0097ZM73.1632 11.6456C73.9634 11.6456 74.5557 11.0621 74.5557 10.299C74.5557 9.56584 73.9634 8.98234 73.1632 8.98234C72.3635 8.98234 71.786 9.58084 71.786 10.299C71.786 11.0621 72.3635 11.6456 73.1632 11.6456ZM72.0082 19.875H74.3187V12.5583H72.0082V19.875ZM78.3829 20.0097C80.3679 20.0097 81.3304 19.0222 81.3304 17.6606C81.3304 16.2242 80.457 15.8052 78.857 15.2516C78.1316 14.9972 77.8648 14.8327 77.8648 14.6082C77.8648 14.3239 78.1756 14.2042 78.4423 14.2042C78.9313 14.2042 79.5533 14.4586 80.0566 14.9673L81.1527 13.3364C80.3085 12.708 79.5088 12.4237 78.4126 12.4237C76.9018 12.4237 75.7023 13.2766 75.7023 14.7578C75.7023 16.1643 76.7687 16.7628 77.9831 17.1369C78.8867 17.4212 79.1089 17.5708 79.1089 17.8102C79.1089 18.0795 78.8719 18.2441 78.4126 18.2441C77.746 18.2441 77.124 17.9748 76.5168 17.4212L75.4355 18.9324C76.2357 19.6506 77.2428 20.0097 78.3829 20.0097ZM91.308 20.0097C93.1742 20.0097 94.6404 19.1119 95.5441 17.9897L93.7368 16.4187C93.1296 17.1518 92.2854 17.6157 91.308 17.6157C89.5898 17.6157 88.4788 16.284 88.4788 14.5783C88.4788 12.6332 89.7675 11.496 91.2932 11.496C92.3151 11.496 93.1593 12.0496 93.722 12.723L95.5292 11.1519C94.3737 9.73047 92.7743 9.10202 91.2932 9.10202C87.8271 9.10202 85.8719 11.5409 85.8719 14.5783C85.8719 18.1095 88.2864 20.0097 91.308 20.0097ZM96.6821 19.875H98.9932V16.1793C98.9932 15.0421 99.5261 14.5035 100.341 14.5035C101.155 14.5035 101.555 14.8626 101.555 16.0446V19.875H103.866V15.4611C103.866 13.1568 102.755 12.4237 101.259 12.4237C100.37 12.4237 99.5855 12.7529 99.0223 13.3963L98.9932 13.3813V8.86261H96.6821V19.875ZM108.412 20.0097C109.285 20.0097 109.937 19.7104 110.411 19.0969L110.441 19.1119V19.875H112.648V12.5583H110.323V13.3215L110.293 13.3364C109.789 12.7379 109.064 12.4237 108.293 12.4237C106.427 12.4237 104.99 13.9798 104.99 16.2242C104.99 18.4835 106.427 20.0097 108.412 20.0097ZM108.9 17.9448C107.982 17.9448 107.345 17.2566 107.345 16.2242C107.345 15.1768 108.012 14.4885 108.9 14.4885C109.759 14.4885 110.426 15.2217 110.426 16.2242C110.426 17.2716 109.73 17.9448 108.9 17.9448ZM115.428 11.6456C116.227 11.6456 116.82 11.0621 116.82 10.299C116.82 9.56584 116.227 8.98234 115.428 8.98234C114.628 8.98234 114.051 9.58084 114.051 10.299C114.051 11.0621 114.628 11.6456 115.428 11.6456ZM114.273 19.875H116.583V12.5583H114.273V19.875ZM118.263 19.875H120.573V16.1942C120.573 15.0571 121.107 14.5035 121.907 14.5035C122.662 14.5035 123.062 14.8476 123.062 16.0596V19.875H125.373V15.491C125.373 13.1718 124.276 12.4237 122.78 12.4237C121.936 12.4237 121.166 12.7529 120.603 13.4112H120.573V12.5583H118.263V19.875Z" fill="#E9E9E9"/>
<path d="M14.3206 16.7518C15.0738 16.7518 15.7691 16.4983 16.3293 16.0594L11.7324 11.4172C11.2978 11.9731 11.0467 12.6753 11.0467 13.4458C11.037 15.2695 12.505 16.7518 14.3206 16.7518Z" fill="#E9E9E9"/>
<path d="M27.9955 13.436C27.9955 12.6753 27.7444 11.9731 27.3098 11.4075L22.7129 16.0496C23.2634 16.4885 23.9587 16.742 24.7216 16.742C26.5276 16.7518 27.9955 15.2694 27.9955 13.436Z" fill="#E9E9E9"/>
<path d="M30.3131 8.39404L28.2753 10.4518C28.9514 11.271 29.357 12.3048 29.357 13.4556C29.357 16.0399 27.2807 18.1367 24.7214 18.1367C23.5915 18.1367 22.5582 17.7271 21.7469 17.0444L19.5161 19.2972L17.2852 17.0444C16.474 17.7271 15.4503 18.1367 14.3107 18.1367C11.7515 18.1367 9.67513 16.0399 9.67513 13.4556C9.67513 12.3145 10.0808 11.271 10.7568 10.4518L9.71379 9.39856L8.71905 8.39404C7.56018 10.325 6.8938 12.5779 6.8938 14.9965C6.8938 22.0377 12.5434 27.7331 19.5064 27.7331C26.4694 27.7331 32.119 22.0279 32.119 14.9965C32.1383 12.5681 31.472 10.3153 30.3131 8.39404Z" fill="#E9E9E9"/>
<path d="M28.6425 6.19971C26.3537 3.77137 23.1088 2.25 19.5162 2.25C15.9236 2.25 12.6884 3.77137 10.3899 6.19971C10.0809 6.53132 9.78157 6.88242 9.50146 7.24323L19.5066 17.3467L29.5116 7.23348C29.2605 6.88237 28.9612 6.52157 28.6425 6.19971ZM19.5162 3.90791C22.4714 3.90791 25.2141 5.05869 27.2711 7.15548L19.5162 14.9867L11.7613 7.15548C13.828 5.05869 16.5611 3.90791 19.5162 3.90791Z" fill="#E9E9E9"/>
</svg>
