<svg xmlns="http://www.w3.org/2000/svg" width="16" height="16" viewBox="0 0 16 16">
    <g fill="none" fill-rule="evenodd">
        <g fill="#B9B9B9" fill-rule="nonzero">
            <g>
                <g>
                    <g>
                        <g>
                            <path d="M6-.545C2.385-.545-.545 2.385-.545 6c0 3.615 2.93 6.545 6.545 6.545 3.615 0 6.545-2.93 6.545-6.545 0-3.615-2.93-6.545-6.545-6.545zm0 1.09c3.012 0 5.455 2.443 5.455 5.455S9.012 11.455 6 11.455.545 9.012.545 6 2.988.545 6 .545z" transform="translate(-828 -401) translate(320 240) translate(418 161) translate(90) translate(2 2)"/>
                            <g>
                                <path d="M1.636-.055c1.224 0 2.182 1.003 2.182 2.237 0 .684-.221 1.228-.717 1.671l-.142.118c-.09.072-.17.145-.243.22-.385.393-.526.775-.537 1.065v.092c.033.291-.183.56-.482.594-.27.03-.515-.142-.586-.395l-.02-.113v-.022c-.035-.582.181-1.305.845-1.984.07-.071.143-.14.223-.21l.124-.103c.327-.254.444-.513.444-.933 0-.642-.48-1.146-1.09-1.146-.627 0-1.092.465-1.092 1.091 0 .302-.244.546-.545.546-.301 0-.545-.244-.545-.546C-.545.9.408-.055 1.636-.055zM1.636 6.49c.271 0 .496.199.539.458l.007.088v.055c0 .301-.244.545-.546.545-.27 0-.496-.197-.538-.457l-.007-.088v-.055c0-.3.244-.545.545-.545z" transform="translate(-828 -401) translate(320 240) translate(418 161) translate(90) translate(2 2) translate(4.364 2.182)"/>
                            </g>
                        </g>
                    </g>
                </g>
            </g>
        </g>
    </g>
</svg>
