<svg width="28" height="26" viewBox="0 0 28 26" fill="none" xmlns="http://www.w3.org/2000/svg">
<path fill-rule="evenodd" clip-rule="evenodd" d="M27.2007 17.1544L22.019 24.3017C21.2149 25.4631 19.6068 25.9991 17.5519 25.8205C14.8717 25.6418 11.3875 24.2123 8.08186 21.8001C4.68693 19.3879 2.27474 16.5291 1.20266 14.1169C0.398594 12.2407 0.398594 10.6326 1.20266 9.47117L6.3844 2.32395C7.18846 1.16252 8.79658 0.626483 10.8514 0.805164C13.5316 0.983844 17.0159 2.41329 20.3215 4.82548C23.6271 7.23767 26.1286 10.0966 27.2007 12.5087C28.0048 14.3849 28.0048 15.993 27.2007 17.1544ZM7.81384 3.30669C8.34988 2.59197 9.42197 2.41329 10.7621 2.50263C13.1743 2.68131 16.3012 4.02141 19.3387 6.16558C22.3763 8.30975 24.6992 10.9006 25.5926 13.1341C26.1286 14.3849 26.3073 15.3676 25.7712 16.1717L26.486 16.6184L25.7712 16.1717L20.5895 23.3189C20.0535 24.0336 18.9814 24.2123 17.7306 24.123C15.3184 23.9443 12.1022 22.6042 9.0646 20.46C6.02703 18.3159 3.70419 15.725 2.81078 13.4915C2.27474 12.2407 2.09606 11.258 2.6321 10.4539L7.81384 3.30669Z" fill="white"/>
<path fill-rule="evenodd" clip-rule="evenodd" d="M7.10046 3.03877C8.79793 0.715923 14.5157 1.87735 19.7868 5.71898C25.1472 9.56061 28.0954 14.5637 26.398 16.8865L21.2162 24.0337C19.5188 26.3566 13.801 25.1952 8.44057 21.3535C3.08015 17.5119 0.131919 12.5088 1.82938 10.186L7.10046 3.03877Z" fill="white"/>
<path fill-rule="evenodd" clip-rule="evenodd" d="M6.74251 2.59128C7.45724 1.5192 8.97602 1.0725 10.7628 1.25118C13.3537 1.42986 16.7486 2.85931 20.0542 5.18215C23.3598 7.505 25.772 10.2746 26.7547 12.6867C27.4695 14.3842 27.5588 15.903 26.7547 16.9751L21.6623 24.1223C20.9476 25.1944 19.4288 25.6411 17.642 25.4624C15.0512 25.2837 11.6562 23.8543 8.35064 21.5314C5.04505 19.2086 2.63286 16.439 1.65011 14.0268C0.935392 12.3294 0.846052 10.8106 1.65011 9.73851L6.74251 2.59128ZM26.1294 16.439C26.7547 15.635 26.5761 14.3842 26.04 13.0441C25.0573 10.8106 22.7344 8.13038 19.6075 5.89688C16.4806 3.66337 13.2644 2.32326 10.7628 2.14458C9.24404 2.05524 8.08262 2.32326 7.45724 3.12733V3.21667C6.92119 3.93139 7.01053 5.18215 7.63592 6.52226C8.61866 8.75577 10.9415 11.436 14.0684 13.6695C17.1953 15.903 20.4116 17.2431 22.9131 17.4218C24.3426 17.5111 25.504 17.2431 26.1294 16.439ZM18.0887 7.86236C19.6969 8.93445 20.8583 10.2746 21.305 11.436C21.573 12.0614 21.6623 12.5974 21.3943 13.0441C21.1263 13.4015 20.5903 13.5801 19.8755 13.4908C18.6248 13.4015 17.0166 12.6867 15.4085 11.6147C13.8004 10.5426 12.639 9.20247 12.1923 8.04104C11.9243 7.41566 11.8349 6.87962 12.1029 6.43292C12.371 6.07556 12.907 5.89688 13.6217 5.98622C14.9618 6.07556 16.5699 6.79028 18.0887 7.86236Z" fill="#0E0F23"/>
<mask id="mask0" style="mask-type:alpha" maskUnits="userSpaceOnUse" x="1" y="1" width="27" height="25">
<path fill-rule="evenodd" clip-rule="evenodd" d="M6.74251 2.59128C7.45724 1.5192 8.97602 1.0725 10.7628 1.25118C13.3537 1.42986 16.7486 2.85931 20.0542 5.18215C23.3598 7.505 25.772 10.2746 26.7547 12.6867C27.4695 14.3842 27.5588 15.903 26.7547 16.9751L21.6623 24.1223C20.9476 25.1944 19.4288 25.6411 17.642 25.4624C15.0512 25.2837 11.6562 23.8543 8.35064 21.5314C5.04505 19.2086 2.63286 16.439 1.65011 14.0268C0.935392 12.3294 0.846052 10.8106 1.65011 9.73851L6.74251 2.59128ZM26.1294 16.439C26.7547 15.635 26.5761 14.3842 26.04 13.0441C25.0573 10.8106 22.7344 8.13038 19.6075 5.89688C16.4806 3.66337 13.2644 2.32326 10.7628 2.14458C9.24404 2.05524 8.08262 2.32326 7.45724 3.12733V3.21667C6.92119 3.93139 7.01053 5.18215 7.63592 6.52226C8.61866 8.75577 10.9415 11.436 14.0684 13.6695C17.1953 15.903 20.4116 17.2431 22.9131 17.4218C24.3426 17.5111 25.504 17.2431 26.1294 16.439ZM18.0887 7.86236C19.6969 8.93445 20.8583 10.2746 21.305 11.436C21.573 12.0614 21.6623 12.5974 21.3943 13.0441C21.1263 13.4015 20.5903 13.5801 19.8755 13.4908C18.6248 13.4015 17.0166 12.6867 15.4085 11.6147C13.8004 10.5426 12.639 9.20247 12.1923 8.04104C11.9243 7.41566 11.8349 6.87962 12.1029 6.43292C12.371 6.07556 12.907 5.89688 13.6217 5.98622C14.9618 6.07556 16.5699 6.79028 18.0887 7.86236Z" fill="white"/>
</mask>
<g mask="url(#mask0)">
<path fill-rule="evenodd" clip-rule="evenodd" d="M-0.0488281 16.6189C0.129853 16.6189 0.308533 16.9763 0.397873 17.0656C0.844575 17.423 1.29128 17.691 1.73798 17.959C3.07808 18.7631 4.41819 19.2098 5.75829 18.9418C7.90246 18.4951 9.77861 14.8321 11.9228 15.2788C13.0842 15.5468 13.9776 17.2443 15.0497 18.4057C16.0324 19.5672 17.1045 20.0139 18.2659 19.8352C21.5715 19.2098 22.8223 12.688 26.1279 13.0453C28.8974 13.3133 27.8254 16.7083 30.5056 17.8697C30.5056 17.8697 36.9381 12.2413 37.0274 11.3479C37.2061 7.59556 33.6325 -36.4492 33.8111 -36.4492L2.006 -24.835L-0.0488281 16.6189Z" fill="url(#paint0_linear)"/>
</g>
<mask id="mask1" style="mask-type:alpha" maskUnits="userSpaceOnUse" x="1" y="0" width="27" height="26">
<path fill-rule="evenodd" clip-rule="evenodd" d="M6.68001 2.18308C7.39474 1.111 8.91352 0.664296 10.7003 0.842976C13.2912 1.02166 16.6861 2.4511 19.9917 4.77395C23.2973 7.0968 25.7095 9.86635 26.6922 12.2785C27.407 13.976 27.4963 15.4948 26.6922 16.5669L21.5998 23.7141C20.8851 24.7862 19.3663 25.2329 17.5795 25.0542C14.9887 24.8755 11.5937 23.4461 8.28814 21.1232C4.98255 18.8004 2.57036 16.0308 1.58761 13.6186C0.872892 11.9212 0.783552 10.4024 1.58761 9.33031L6.68001 2.18308ZM26.0669 16.0308C26.6922 15.2268 26.5136 13.976 25.9775 12.6359C24.9948 10.4024 22.6719 7.72218 19.545 5.48867C16.4181 3.25516 13.2019 1.91506 10.7003 1.73638C9.18154 1.64704 8.02012 1.91506 7.39474 2.71912V2.80846C6.85869 3.52319 6.94803 4.77395 7.57342 6.11406C8.55616 8.34756 10.879 11.0278 14.0059 13.2613C17.1328 15.4948 20.3491 16.8349 22.8506 17.0136C24.2801 17.1029 25.4415 16.8349 26.0669 16.0308ZM18.0262 7.45416C19.6344 8.52624 20.7958 9.86635 21.2425 11.0278C21.5105 11.6532 21.5998 12.1892 21.3318 12.6359C21.0638 12.9933 20.5278 13.1719 19.813 13.0826C18.5623 12.9933 16.9541 12.2785 15.346 11.2065C13.7379 10.1344 12.5765 8.79426 12.1298 7.63284C11.8618 7.00746 11.7724 6.47142 12.0404 6.02471C12.3085 5.66735 12.8445 5.48867 13.5592 5.57801C14.8993 5.66735 16.5074 6.38208 18.0262 7.45416Z" fill="white"/>
</mask>
<g mask="url(#mask1)">
<path d="M6.20508 5.18359C6.38376 8.48919 9.60001 11.5268 12.0122 13.6709C15.4965 16.6192 21.0356 18.7633 24.1625 18.3166" stroke="white" stroke-width="0.446702" stroke-dasharray="0.84 0.84"/>
</g>
<defs>
<linearGradient id="paint0_linear" x1="17.8014" y1="0.727953" x2="21.2051" y2="17.7797" gradientUnits="userSpaceOnUse">
<stop stop-color="#B4B7B8"/>
<stop offset="0.52" stop-color="#AFAFAF"/>
<stop offset="1" stop-color="#FBFBFB"/>
</linearGradient>
</defs>
</svg>
