<svg width="28" height="27" viewBox="0 0 28 27" fill="none" xmlns="http://www.w3.org/2000/svg">
<g clip-path="url(#clip0)">
<path d="M11.3796 6.28031C11.0931 6.23786 11.0772 6.22725 11.2151 6.21133C11.4751 6.16889 12.08 6.22725 12.5044 6.32275C13.4913 6.5562 14.3773 7.15575 15.3217 8.21159L15.5658 8.4981L15.9213 8.44504C17.4387 8.20098 18.9986 8.39198 20.3038 8.99153C20.6593 9.156 21.2217 9.48496 21.2907 9.56454C21.3172 9.59107 21.3597 9.77147 21.3862 9.94655C21.4817 10.5885 21.4392 11.0714 21.2376 11.4375C21.1262 11.6444 21.1262 11.6974 21.1952 11.8778C21.2482 12.0158 21.4127 12.1113 21.5666 12.1113C21.8955 12.1113 22.2351 11.5913 22.3996 10.8644L22.4685 10.5779L22.5906 10.7159C23.2909 11.4958 23.8374 12.5782 23.917 13.3422L23.9435 13.5491L23.8215 13.3687C23.6146 13.0557 23.4236 12.8488 23.1636 12.6684C22.6967 12.3553 22.2033 12.2598 20.9034 12.1909C19.7255 12.1219 19.057 12.0264 18.3991 11.8089C17.2743 11.4375 16.7012 10.9599 15.3748 9.19314C14.7859 8.4132 14.4145 7.98875 14.0484 7.63326C13.2419 6.85332 12.4301 6.44478 11.3796 6.28031Z" fill="white"/>
<path d="M21.5793 8.01484C21.6058 7.49488 21.6748 7.15 21.8234 6.83697C21.8764 6.71494 21.9348 6.60352 21.9454 6.60352C21.9613 6.60352 21.9295 6.69902 21.8923 6.81044C21.7809 7.11286 21.7703 7.53732 21.8393 8.01484C21.9348 8.6303 21.9772 8.71519 22.6351 9.38371C22.9376 9.69675 23.293 10.0947 23.431 10.2592L23.6644 10.5616L23.431 10.344C23.1445 10.0682 22.4866 9.54819 22.338 9.47922C22.2425 9.42616 22.2266 9.42616 22.1576 9.49513C22.1046 9.54819 22.0886 9.63308 22.0886 10.031C22.0727 10.6465 21.9931 11.0285 21.7862 11.4264C21.6748 11.6333 21.6642 11.5909 21.7597 11.3574C21.8287 11.177 21.8393 11.0975 21.8393 10.5085C21.8393 9.32004 21.7013 9.02823 20.8683 8.55071C20.6614 8.42868 20.3059 8.24829 20.1043 8.15279C19.8868 8.05728 19.7223 7.97239 19.7329 7.97239C19.7594 7.94586 20.5659 8.17931 20.8842 8.31196C21.3618 8.50296 21.4467 8.51888 21.4997 8.50296C21.5368 8.47113 21.5634 8.35971 21.5793 8.01484Z" fill="white"/>
<path d="M11.9439 10.0574C11.3709 9.26149 10.9995 8.03057 11.0791 7.11268L11.1056 6.82617L11.2435 6.8527C11.4876 6.89515 11.9121 7.05962 12.119 7.18165C12.6655 7.51061 12.9149 7.96159 13.143 9.08641C13.212 9.41536 13.3075 9.79737 13.3499 9.9194C13.4189 10.1263 13.6789 10.6038 13.8964 10.9063C14.045 11.1238 13.9495 11.2352 13.6099 11.2087C13.0899 11.1503 12.3949 10.6728 11.9439 10.0574Z" fill="white"/>
<path d="M20.8791 16.0114C18.1679 14.9185 17.2129 13.974 17.2129 12.3717C17.2129 12.1383 17.2288 11.9473 17.2288 11.9473C17.2447 11.9473 17.3402 12.0269 17.4623 12.1277C18.0087 12.568 18.6242 12.759 20.338 13.0031C21.3354 13.1517 21.9138 13.2631 22.4337 13.4435C24.0891 13.99 25.1184 15.1148 25.3625 16.6322C25.4314 17.0726 25.389 17.9056 25.2829 18.3407C25.1874 18.6802 24.9115 19.3116 24.8425 19.3275C24.8266 19.3275 24.8001 19.2585 24.8001 19.1471C24.7735 18.5741 24.487 18.0223 24.0042 17.5979C23.4259 17.1097 22.6884 16.7383 20.8791 16.0114Z" fill="white"/>
<path d="M18.9641 16.4616C18.9376 16.2547 18.8686 15.9947 18.8262 15.8886L18.7572 15.6816L18.8792 15.8302C19.0596 16.0371 19.1923 16.2812 19.3196 16.6261C19.4151 16.886 19.4151 16.9656 19.4151 17.3901C19.4151 17.7986 19.3992 17.8941 19.3196 18.1276C19.1817 18.499 19.0172 18.759 18.7466 19.0455C18.2532 19.5495 17.6112 19.8254 16.6933 19.9474C16.5288 19.9633 16.0619 20.0005 15.6534 20.027C14.6294 20.0801 13.9449 20.1915 13.3242 20.409C13.2446 20.4356 13.1597 20.4621 13.1438 20.4515C13.1172 20.4249 13.5417 20.1756 13.8813 20.0111C14.3588 19.7776 14.8522 19.6556 15.9346 19.4646C16.4705 19.385 17.0169 19.2736 17.1549 19.2205C18.5132 18.8014 19.1817 17.7509 18.9641 16.4616Z" fill="white"/>
<path d="M20.2086 18.6682C19.8531 17.8883 19.7683 17.1508 19.9646 16.4504C19.9911 16.3815 20.0176 16.3125 20.0442 16.3125C20.0707 16.3125 20.1556 16.3549 20.2352 16.408C20.3996 16.5194 20.7392 16.7104 21.62 17.1879C22.7288 17.7928 23.3602 18.2544 23.7953 18.7903C24.1773 19.2572 24.4108 19.7877 24.5222 20.4457C24.5911 20.8171 24.5487 21.7031 24.4532 22.0745C24.1508 23.2365 23.4663 24.1703 22.4689 24.7008C22.3203 24.7804 22.193 24.8388 22.1824 24.8388C22.1717 24.8388 22.2248 24.7008 22.3044 24.5364C22.6333 23.836 22.6758 23.1675 22.4264 22.4141C22.2779 21.9472 21.9595 21.3901 21.3334 20.4403C20.5747 19.3527 20.3996 19.0609 20.2086 18.6682Z" fill="white"/>
<path d="M10.0111 22.8542C11.0245 22.0053 12.2714 21.4057 13.4174 21.2094C13.9108 21.1298 14.7332 21.1563 15.1842 21.2784C15.9111 21.4694 16.569 21.8832 16.9085 22.3873C17.2375 22.8807 17.3861 23.3052 17.5399 24.2496C17.593 24.621 17.662 25.003 17.6779 25.0826C17.7893 25.576 18.0068 25.958 18.2827 26.1649C18.7072 26.478 19.4447 26.4939 20.1716 26.218C20.2936 26.1755 20.405 26.1384 20.405 26.149C20.4315 26.1755 20.0654 26.4249 19.8161 26.5469C19.4765 26.7273 19.2006 26.7804 18.8292 26.7804C18.1713 26.7804 17.6089 26.4408 17.1579 25.7564C17.0624 25.6184 16.8714 25.2205 16.7069 24.8544C16.2294 23.7455 15.98 23.4166 15.4176 23.0452C14.9242 22.7321 14.2928 22.6632 13.8153 22.8966C13.1839 23.199 13.0195 24.0055 13.4598 24.4989C13.6402 24.7059 13.9639 24.8703 14.2398 24.9075C14.7438 24.9764 15.1842 24.5785 15.1842 24.0745C15.1842 23.7455 15.0622 23.5545 14.7332 23.406C14.2928 23.215 13.8153 23.4325 13.8312 23.8569C13.8312 24.0373 13.9108 24.1435 14.0912 24.2283C14.2026 24.2814 14.2026 24.2814 14.1177 24.2708C13.7198 24.1912 13.6243 23.6978 13.9373 23.3794C14.3194 22.9974 15.1258 23.1619 15.4017 23.6925C15.5131 23.91 15.5238 24.3504 15.4283 24.621C15.1948 25.2258 14.5369 25.5388 13.8684 25.3585C13.4174 25.2364 13.2264 25.1144 12.6799 24.552C11.7196 23.5651 11.3535 23.3741 9.98459 23.1672L9.72461 23.1248L10.0111 22.8542Z" fill="white"/>
<path fill-rule="evenodd" clip-rule="evenodd" d="M2.81341 0.831122C6.00214 4.70429 10.9152 10.7263 11.1646 11.0552C11.3715 11.3311 11.2866 11.5911 10.9471 11.7821C10.7561 11.8935 10.3581 11.9997 10.1671 11.9997C9.9496 11.9997 9.68962 11.8882 9.50922 11.7131C9.38719 11.5911 8.85131 10.8112 7.64692 8.93295C6.72903 7.4951 5.94909 6.30662 5.93848 6.2907C5.88542 6.26417 5.88542 6.26417 7.55141 9.24599C8.60725 11.1189 8.94682 11.7927 8.94682 11.8723C8.94682 12.0527 8.89376 12.1482 8.67092 12.3923C8.29952 12.8008 8.13504 13.2677 8.01301 14.2387C7.87506 15.321 7.50897 16.0851 6.45313 17.385C5.83767 18.149 5.74216 18.2869 5.5883 18.6053C5.39729 18.9873 5.34424 19.2101 5.3124 19.6982C5.28587 20.2182 5.33893 20.5472 5.4928 21.0406C5.63074 21.481 5.7793 21.7675 6.1507 22.3299C6.46374 22.8233 6.65475 23.1947 6.65475 23.3274C6.65475 23.4388 6.68128 23.4388 7.17471 23.3274C8.35258 23.0515 9.32352 22.5899 9.8594 22.0115C10.1884 21.6561 10.2679 21.465 10.2679 20.9716C10.2679 20.6586 10.252 20.5896 10.1724 20.3986C10.0345 20.0962 9.77451 19.8521 9.2121 19.4701C8.47461 18.9661 8.15626 18.5522 8.07668 18.0057C8.0077 17.5388 8.0926 17.2258 8.50113 16.3609C8.92559 15.4696 9.03701 15.1035 9.10599 14.1962C9.14843 13.6232 9.21741 13.3897 9.38188 13.2094C9.56228 13.0183 9.71084 12.9494 10.1353 12.8963C10.8356 12.8008 11.2866 12.6204 11.6421 12.2809C11.9552 11.9943 12.0931 11.7078 12.109 11.2834L12.1249 10.9703L11.9445 10.7793C11.2972 10.0418 2.38895 0.242188 2.34651 0.242188C2.33059 0.242188 2.55343 0.502168 2.81341 0.831122ZM7.01554 20.2978C7.1641 20.0378 7.08451 19.7089 6.83514 19.5444C6.60169 19.3958 6.24621 19.4648 6.24621 19.6664C6.24621 19.7195 6.27274 19.7778 6.35763 19.8044C6.47966 19.8733 6.49558 19.9423 6.40007 20.0909C6.30457 20.2394 6.30457 20.3774 6.4266 20.4729C6.61761 20.6267 6.87759 20.5419 7.01554 20.2978Z" fill="white"/>
<path fill-rule="evenodd" clip-rule="evenodd" d="M12.5593 13.0975C12.2304 13.193 11.9174 13.5485 11.8219 13.904C11.7688 14.1215 11.7953 14.5194 11.8908 14.6415C12.0394 14.8325 12.1773 14.8855 12.5593 14.8855C13.3128 14.8855 13.9547 14.5566 14.0237 14.1587C14.0927 13.8297 13.8062 13.3787 13.4083 13.1718C13.2013 13.0657 12.7769 13.0285 12.5593 13.0975ZM13.4348 13.782C13.5462 13.6175 13.5038 13.4424 13.2968 13.3151C12.9254 13.0816 12.3683 13.2726 12.3683 13.6281C12.3683 13.8085 12.6549 13.9995 12.9307 13.9995C13.1058 13.9995 13.3499 13.8881 13.4348 13.782Z" fill="white"/>
</g>
<defs>
<clipPath id="clip0">
<rect width="26.5286" height="26.5286" fill="white" transform="translate(0.599609 0.242188)"/>
</clipPath>
</defs>
</svg>
