<svg width="150" height="112" viewBox="0 0 150 112" fill="none" xmlns="http://www.w3.org/2000/svg">
<path fill-rule="evenodd" clip-rule="evenodd" d="M121.99 30.619C117.137 22.4184 110.554 15.926 102.24 11.1402C93.9247 6.35429 84.8467 3.96191 74.9999 3.96191C65.1539 3.96191 56.0731 6.35502 47.7593 11.1402C39.4443 15.9257 32.8619 22.4184 28.0089 30.619C23.1567 38.8194 20.7305 47.7744 20.7305 57.4833C20.7305 69.146 24.1806 79.6336 31.0826 88.9486C37.9839 98.2644 46.8993 104.71 57.8282 108.288C59.1003 108.52 60.042 108.357 60.6543 107.8C61.2666 107.243 61.5728 106.546 61.5728 105.71C61.5728 105.571 61.5605 104.317 61.5372 101.947C61.5129 99.5772 61.5013 97.5099 61.5013 95.7458L59.8762 96.0229C58.8399 96.2101 57.5325 96.2896 55.9543 96.2672C54.3767 96.2456 52.739 96.0822 51.0434 95.779C49.347 95.4788 47.7692 94.7817 46.3087 93.69C44.849 92.598 43.8127 91.1688 43.2002 89.4048L42.4935 87.801C42.0225 86.7333 41.281 85.5472 40.268 84.2471C39.255 82.9459 38.2306 82.0638 37.1943 81.5991L36.6996 81.25C36.3699 81.0177 36.064 80.738 35.7811 80.4127C35.4985 80.0879 35.2869 79.763 35.1455 79.4371C35.004 79.1115 35.1213 78.8441 35.4987 78.6345C35.8762 78.4249 36.5583 78.3231 37.548 78.3231L38.9607 78.5312C39.903 78.7173 41.0684 79.2737 42.4586 80.2035C43.8481 81.1325 44.9903 82.3402 45.8855 83.8264C46.9695 85.7319 48.2756 87.1834 49.8074 88.1826C51.3379 89.1817 52.8811 89.6804 54.4353 89.6804C55.9896 89.6804 57.3319 89.5644 58.4633 89.3332C59.5929 89.1008 60.6528 88.7513 61.6428 88.287C62.0668 85.1732 63.2211 82.7807 65.1048 81.1083C62.4198 80.8301 60.0061 80.4109 57.8619 79.8537C55.7191 79.2957 53.5048 78.3902 51.2203 77.1344C48.9347 75.8806 47.0386 74.3234 45.5316 72.4657C44.0243 70.6073 42.7873 68.1674 41.8223 65.1483C40.8568 62.1277 40.374 58.6435 40.374 54.6947C40.374 49.0719 42.2352 44.2873 45.9568 40.3376C44.2134 36.1104 44.378 31.3716 46.451 26.1216C47.8172 25.7029 49.8433 26.0171 52.5281 27.0621C55.2135 28.1075 57.1796 29.0031 58.4285 29.7457C59.6775 30.4879 60.6779 31.117 61.4321 31.6271C65.8137 30.4196 70.3361 29.8157 74.9991 29.8157C79.6626 29.8157 84.1857 30.4196 88.5677 31.6271L91.2532 29.9553C93.0893 28.8398 95.2575 27.8175 97.7528 26.8883C100.25 25.9595 102.159 25.7037 103.478 26.1223C105.598 31.3725 105.786 36.1112 104.042 40.3384C107.764 44.288 109.626 49.0738 109.626 54.6954C109.626 58.6443 109.141 62.1397 108.177 65.183C107.212 68.2271 105.964 70.6647 104.434 72.5008C102.902 74.3365 100.993 75.8817 98.7091 77.1352C96.4241 78.3898 94.2088 79.2953 92.0661 79.8533C89.9222 80.4112 87.5085 80.8308 84.8235 81.1094C87.2724 83.1995 88.497 86.4983 88.497 91.0047V105.709C88.497 106.544 88.7915 107.241 89.381 107.798C89.9698 108.355 90.8995 108.518 92.1716 108.285C103.102 104.709 112.018 98.2625 118.918 88.9468C125.819 79.6318 129.27 69.1442 129.27 57.4814C129.267 47.7737 126.84 38.8194 121.99 30.619Z" fill="url(#paint0_linear)"/>
<defs>
<linearGradient id="paint0_linear" x1="127.124" y1="108.39" x2="16.1313" y2="108.39" gradientUnits="userSpaceOnUse">
<stop stop-color="white"/>
<stop offset="0.916667" stop-color="#DCD8FE"/>
</linearGradient>
</defs>
</svg>
