<svg width="150" height="112" viewBox="0 0 150 112" fill="none" xmlns="http://www.w3.org/2000/svg">
<path fill-rule="evenodd" clip-rule="evenodd" d="M53.2193 103.045C97.4349 103.045 121.629 66.9707 121.629 35.7398C121.629 34.725 121.629 33.7101 121.582 32.6952C126.271 29.3737 130.35 25.1758 133.586 20.4243C129.272 22.3156 124.63 23.5612 119.753 24.1609C124.724 21.2546 128.522 16.5954 130.35 11.0596C125.708 13.7814 120.551 15.7189 115.065 16.7799C110.657 12.1668 104.421 9.30664 97.5286 9.30664C84.2593 9.30664 73.4748 19.9168 73.4748 32.972C73.4748 34.8172 73.7095 36.6163 74.0845 38.3693C54.1102 37.4005 36.3864 27.9437 24.5238 13.643C22.4607 17.1489 21.2885 21.2085 21.2885 25.5448C21.2885 33.7562 25.5553 40.9988 31.979 45.2427C28.0404 45.1043 24.3362 44.0434 21.1009 42.2905C21.1009 42.3827 21.1009 42.475 21.1009 42.6134C21.1009 54.0539 29.4001 63.6491 40.372 65.8175C38.3557 66.3709 36.2458 66.6476 34.0421 66.6476C32.4947 66.6476 30.9943 66.5092 29.5408 66.2325C32.5885 75.6433 41.4972 82.4709 52.0002 82.6554C43.7479 89.0215 33.3856 92.8043 22.1325 92.8043C20.21 92.8043 18.2876 92.712 16.4121 92.4811C27.0088 99.1239 39.6686 103.045 53.2193 103.045Z" fill="url(#paint0_linear)"/>
<defs>
<linearGradient id="paint0_linear" x1="131.269" y1="103.045" x2="11.4471" y2="103.045" gradientUnits="userSpaceOnUse">
<stop stop-color="white"/>
<stop offset="0.916667" stop-color="#DCD8FE"/>
</linearGradient>
</defs>
</svg>
