<svg width="150" height="112" viewBox="0 0 150 112" fill="none" xmlns="http://www.w3.org/2000/svg">
<path d="M92.6155 10.542L91.0612 12.2817C109.843 17.925 118.565 26.0718 118.565 26.0718C92.3133 11.9422 61.4847 11.9422 36.0102 22.9319C31.9083 24.7988 29.4904 26.0718 29.4904 26.0718C29.4904 26.0718 38.644 17.5007 58.5487 11.8574L57.4261 10.542C57.4261 10.542 42.2709 10.2026 26.3816 21.956C26.3816 21.956 10.4492 50.2998 10.4492 85.2629C10.4492 85.2629 19.7323 101.005 44.1707 101.769C44.1707 101.769 48.2725 96.889 51.5971 92.7732C37.5645 88.6574 32.2537 79.9591 32.2537 79.9591C33.8945 81.0623 36.5715 82.5473 36.7873 82.6746C55.4399 92.9429 81.9508 96.295 105.741 86.4934C109.627 85.0932 113.902 83.0141 118.436 80.0864C118.436 80.0864 112.909 88.9969 98.4445 93.0278C101.769 97.1436 105.741 101.811 105.741 101.811C130.18 101.047 139.549 85.3054 139.549 85.3054C139.549 50.3423 123.617 21.9984 123.617 21.9984C107.771 10.2026 92.6155 10.542 92.6155 10.542ZM54.4037 75.1644C48.2293 75.1644 43.1344 69.7332 43.1344 63.114C43.1344 56.4948 48.0998 51.0636 54.4037 51.0636C60.7075 51.0636 65.8025 56.4948 65.6729 63.114C65.6729 69.7332 60.7075 75.1644 54.4037 75.1644ZM94.7312 75.1644C88.5569 75.1644 83.462 69.7332 83.462 63.114C83.462 56.4948 88.4274 51.0636 94.7312 51.0636C101.035 51.0636 106.001 56.4948 106.001 63.114C106.001 69.7332 101.035 75.1644 94.7312 75.1644Z" fill="url(#paint0_linear)"/>
<defs>
<linearGradient id="paint0_linear" x1="136.996" y1="101.811" x2="4.97888" y2="101.811" gradientUnits="userSpaceOnUse">
<stop stop-color="white"/>
<stop offset="0.916667" stop-color="#DCD8FE"/>
</linearGradient>
</defs>
</svg>
