<svg width="31" height="31" viewBox="0 0 31 31" fill="none" xmlns="http://www.w3.org/2000/svg">
<path d="M15.3367 3.65932C16.2209 3.65932 16.9873 4.18399 17.3351 4.93858C17.6535 4.76173 18.019 4.66151 18.4081 4.66151C19.6284 4.66151 20.6129 5.64601 20.6129 6.86633C20.6129 6.98423 20.6011 7.10214 20.5834 7.21415C21.3203 7.54428 28.5302 10.9989 28.2944 18.5212C28.0881 25.0413 21.45 27.482 15.6727 27.482C10.2962 27.482 2.94487 26.1555 2.33177 18.362C1.84836 12.2015 7.57853 8.0159 10.0074 7.20236C9.98968 7.09035 9.98379 6.97834 9.98379 6.86633C9.98379 5.64601 10.9683 4.66151 12.1886 4.66151C12.6013 4.66151 12.9904 4.77352 13.3205 4.97396C13.6624 4.20168 14.4347 3.65932 15.3367 3.65932ZM15.3367 2.83398C14.417 2.83398 13.5622 3.25255 12.9904 3.94229C12.731 3.87155 12.4598 3.83617 12.1827 3.83617C10.5851 3.83617 9.27046 5.08007 9.15845 6.6482C7.79665 7.24952 5.96323 8.5052 4.45405 10.2325C2.95077 11.9539 1.21757 14.7718 1.50643 18.4269C1.6656 20.4136 2.24923 22.135 3.23963 23.5499C4.11802 24.7996 5.33244 25.8195 6.84162 26.58C9.11129 27.7237 12.0825 28.3073 15.6727 28.3073C19.0153 28.3073 22.1516 27.5409 24.492 26.1555C27.416 24.4223 29.0136 21.7931 29.1197 18.5448C29.1787 16.6878 28.8132 14.9133 28.0409 13.2745C27.416 11.948 26.5199 10.71 25.388 9.58403C23.8671 8.08075 22.2695 7.1434 21.4382 6.71305C21.3557 5.11544 20.0293 3.83617 18.414 3.83617C18.1605 3.83617 17.9129 3.86565 17.6712 3.9305C17.0993 3.24665 16.2445 2.83398 15.3367 2.83398Z" fill="#838383"/>
<path d="M28.294 18.5206C28.0877 25.0407 21.4497 27.4813 15.6723 27.4813C10.8795 27.4813 4.50675 26.4261 2.75586 20.6664C5.13754 24.9582 10.6791 25.8012 14.9708 25.8012C20.7422 25.8012 27.3862 23.3605 27.5925 16.8404C27.6338 15.5081 27.4392 14.2996 27.0914 13.2148C27.8637 14.6887 28.3589 16.4513 28.294 18.5206Z" fill="#DDDDDD"/>
<path d="M27.5867 16.8419C27.3804 23.362 20.7424 25.8026 14.965 25.8026C10.6792 25.8026 5.13766 24.9596 2.75598 20.6679C2.54376 19.9722 2.39638 19.2059 2.33153 18.3687C1.84812 12.2082 7.57829 8.0226 10.0071 7.20905C9.98944 7.09704 9.98355 6.98503 9.98355 6.87303C9.98355 5.65271 10.9739 4.66821 12.1884 4.66821C12.601 4.66821 12.9901 4.78022 13.3203 4.98065C13.6622 4.20838 14.4345 3.66602 15.3364 3.66602C16.2207 3.66602 16.9871 4.19069 17.3408 4.94528C17.6591 4.76843 18.0247 4.66821 18.4137 4.66821C18.9915 4.66821 19.5161 4.89223 19.9111 5.25183C20.0644 5.39922 20.2 5.56428 20.312 5.74703C20.5065 6.07717 20.6186 6.46036 20.6186 6.87303C20.6186 6.99093 20.6068 7.10883 20.5891 7.22084C21.1197 7.46255 25.0577 9.34313 27.0915 13.2222C27.4393 14.301 27.628 15.5037 27.5867 16.8419Z" fill="#FBF7EC"/>
<path d="M13.0402 7.55064C13.0402 7.55654 13.0402 7.56243 13.0402 7.56833C12.9518 8.42314 12.2561 9.10109 11.4013 9.17183C11.1714 9.18952 10.9474 9.16594 10.7411 9.10698C10.5465 9.04803 10.4109 9.30153 10.576 9.42533C10.9179 9.68472 11.3542 9.8262 11.8258 9.78494C12.7042 9.7083 13.4057 8.98318 13.4588 8.10479C13.4706 7.90436 13.447 7.70392 13.3998 7.52117C13.3468 7.32073 13.0579 7.3502 13.0402 7.55064Z" fill="#3B3B3B"/>
<path d="M17.8683 7.75728C17.8742 7.75728 17.8801 7.75728 17.886 7.76318C18.6524 7.95182 19.183 8.70642 19.1417 9.53764C19.1299 9.76166 19.0768 9.97389 18.9943 10.1684C18.9177 10.3512 19.1299 10.5104 19.2596 10.3689C19.5367 10.0682 19.7253 9.66144 19.743 9.20162C19.7843 8.34091 19.2124 7.58042 18.4166 7.42715C18.2338 7.39178 18.0511 7.38588 17.8742 7.41536C17.6974 7.43894 17.6856 7.71601 17.8683 7.75728Z" fill="#3B3B3B"/>
<path d="M15.7026 8.26976C15.7085 8.27566 15.7085 8.28155 15.7144 8.28745C16.0858 8.94772 15.9266 9.79073 15.3489 10.2741C15.1897 10.4038 15.0187 10.4982 14.836 10.563C14.665 10.622 14.7004 10.8696 14.8772 10.8755C15.2545 10.8872 15.6436 10.7693 15.962 10.4982C16.5574 9.99707 16.693 9.11868 16.2803 8.45252C16.186 8.29924 16.0681 8.16954 15.9384 8.06343C15.8087 7.94553 15.6142 8.11059 15.7026 8.26976Z" fill="#3B3B3B"/>
<path d="M10.4869 17.7023C11.0697 17.7023 11.5421 17.2298 11.5421 16.647C11.5421 16.0642 11.0697 15.5918 10.4869 15.5918C9.90409 15.5918 9.43164 16.0642 9.43164 16.647C9.43164 17.2298 9.90409 17.7023 10.4869 17.7023Z" fill="#3B3B3B"/>
<path d="M20.2056 17.7023C20.7884 17.7023 21.2609 17.2298 21.2609 16.647C21.2609 16.0642 20.7884 15.5918 20.2056 15.5918C19.6228 15.5918 19.1504 16.0642 19.1504 16.647C19.1504 17.2298 19.6228 17.7023 20.2056 17.7023Z" fill="#3B3B3B"/>
<path d="M17.9555 18.008C17.8199 18.3558 17.5959 18.7744 17.2186 19.1163C16.8 19.4995 16.2046 19.7884 15.338 19.7884C14.4714 19.7884 13.876 19.4995 13.4574 19.1163C13.0802 18.7744 12.8561 18.3558 12.7205 18.008C12.5908 17.6779 12.8384 17.3301 13.1863 17.3301H17.4839C17.8376 17.3301 18.0852 17.6838 17.9555 18.008Z" fill="#666666"/>
<path d="M17.2201 19.1237C16.8016 19.5069 16.2062 19.7958 15.3396 19.7958C14.473 19.7958 13.8775 19.5069 13.459 19.1237C13.9542 18.6639 14.6145 18.3868 15.3396 18.3868C16.0647 18.3809 16.7249 18.6639 17.2201 19.1237Z" fill="#C0C0C0"/>
</svg>
