<svg width="42" height="30" viewBox="0 0 42 30" fill="none" xmlns="http://www.w3.org/2000/svg">
<path d="M17.6942 13.0786C17.252 12.9312 16.7362 13.0049 16.3678 13.226L1.40859 21.8478C0.671687 22.2899 0.376925 23.2479 0.819067 23.9848C1.3349 25.0165 3.10347 25.9745 5.16681 26.3429C5.90371 26.4903 6.7143 26.564 7.5249 26.564C9.58823 26.564 11.6516 26.0482 13.5675 25.1639C15.3361 24.3533 17.031 22.511 18.0626 20.3003C19.168 17.9422 19.3891 15.6578 18.6522 13.8892C18.5048 13.5945 18.1363 13.226 17.6942 13.0786Z" fill="white"/>
<path d="M40.9054 21.9215L25.9463 13.226C25.5041 13.0049 25.062 12.9312 24.6198 13.0786C24.1777 13.226 23.8092 13.5208 23.6618 13.9629C22.9249 15.7315 23.146 18.0896 24.2514 20.374C25.283 22.5847 26.9779 24.3533 28.7465 25.2376C30.6624 26.1218 32.7258 26.6377 34.7891 26.6377C35.5997 26.6377 36.3366 26.564 37.1472 26.4166C39.2842 25.9745 41.0528 25.0165 41.4949 24.0585C41.9371 23.2479 41.6423 22.3636 40.9054 21.9215Z" fill="white"/>
<path fill-rule="evenodd" clip-rule="evenodd" d="M15.041 1.06698C15.041 0.698531 15.3358 0.330078 15.7779 0.330078C18.3571 0.330078 20.4204 2.39341 20.4204 4.97258C20.4204 5.34103 20.1257 5.70948 19.6835 5.70948C19.3151 5.70948 18.9466 5.41472 18.9466 4.97258C18.9466 3.20401 17.4728 1.7302 15.7042 1.7302C15.3358 1.7302 15.041 1.43544 15.041 1.06698Z" fill="#686868"/>
<path fill-rule="evenodd" clip-rule="evenodd" d="M26.6127 1.7302C24.8441 1.7302 23.3703 3.20401 23.3703 4.97258C23.3703 5.34103 23.0755 5.70948 22.6334 5.70948C22.2649 5.70948 21.8965 5.41472 21.8965 4.97258C21.9702 2.39341 24.0335 0.330078 26.6127 0.330078C26.9811 0.330078 27.3496 0.62484 27.3496 1.06698C27.3496 1.50913 27.0548 1.7302 26.6127 1.7302Z" fill="#686868"/>
<path d="M28.2309 25.3848H12.7559L19.7565 29.4377C20.6407 29.9536 21.6724 29.9536 22.5567 29.4377L29.5573 25.3848H28.2309Z" fill="#898C8D"/>
<path d="M30.3685 16.4688H11.209V21.1113H31.1054V16.4688H30.3685Z" fill="#898C8D"/>
<path d="M29.7053 12.1948L29.5579 12.1211H12.7565L12.6091 12.1948C11.7248 12.7106 11.209 13.5949 11.209 14.5529V16.3951H31.1054V14.5529C31.1054 13.6686 30.5159 12.7106 29.7053 12.1948Z" fill="#D4D4D4"/>
<path d="M30.3685 21.1113H11.209V22.9536C11.209 23.9116 11.7248 24.8695 12.6091 25.3117L12.7565 25.3854H29.5579L29.7053 25.3117C30.5896 24.7959 31.1054 23.9116 31.1054 22.9536V21.1113H30.3685Z" fill="#D4D4D4"/>
<path d="M22.5567 8.06656C21.6724 7.55073 20.6407 7.55073 19.8301 8.06656L12.7559 12.1195H29.4836L22.5567 8.06656Z" fill="#686868"/>
</svg>
