<?xml version="1.0" encoding="UTF-8"?>
<svg width="64px" height="64px" viewBox="0 0 64 64" version="1.1" xmlns="http://www.w3.org/2000/svg" xmlns:xlink="http://www.w3.org/1999/xlink">
    <title>KNC@2x</title>
    <defs>
        <linearGradient x1="50%" y1="0%" x2="50%" y2="100%" id="linearGradient-1">
            <stop stop-color="#31CB9E" offset="0%"></stop>
            <stop stop-color="#2FC99E" offset="4%"></stop>
            <stop stop-color="#18B2A1" offset="63%"></stop>
            <stop stop-color="#0FAAA2" offset="100%"></stop>
        </linearGradient>
    </defs>
    <g id="Desktop" stroke="none" stroke-width="1" fill="none" fill-rule="evenodd">
        <g id="Group" fill-rule="nonzero">
            <g id="download-(1)">
                <circle id="Oval-2" fill="url(#linearGradient-1)" cx="32" cy="32" r="32"></circle>
                <g id="Group" transform="translate(16.000000, 8.000000)" fill="#FFFFFF">
                    <path d="M14.4336395,27.0063255 L33.2967561,37.1426193 C33.9198548,37.4775346 33.9772405,38.2988634 33.4061396,38.7068876 L33.4061396,38.7068876 L20.6706417,47.806399 C20.0850065,48.2247496 19.2337431,47.9304372 19.0790021,47.2560299 L19.0790021,47.2560299 L14.4336395,27.0063255 Z M13.87156,1.23502399 C14.6135651,0.704721809 15.6592885,1.32608717 15.463325,2.18074325 L15.463325,2.18074325 L10.4573595,23.9999967 L15.4628238,45.8193674 C15.6589126,46.6740237 14.6131892,47.295389 13.8711841,46.7652042 L13.8711841,46.7652042 L1.04547283,37.600681 C0.386664567,37.1299924 0,36.3982013 0,35.622052 L0,35.622052 L0,12.3788802 C0,11.6028483 0.386664567,10.8711745 1.04534753,10.4004858 L1.04534753,10.4004858 Z M34.49494,13.7093062 C35.1647743,13.3490434 36,13.8018949 36,14.525237 L36,14.525237 L36,33.4683727 C36,34.1915975 35.1650248,34.644449 34.4953158,34.2845381 L34.4953158,34.2845381 L15.3576751,24.000736 Z M19.0794156,0.744022142 C19.2341566,0.0696148271 20.0855453,-0.224814954 20.6711805,0.193653201 L20.6711805,0.193653201 L33.397156,9.28753184 C33.9681314,9.69555587 33.910871,10.51665 33.2880228,10.8516827 L33.2880228,10.8516827 L14.4344289,20.9905582 Z" id="Combined-Shape"></path>
                </g>
            </g>
        </g>
    </g>
</svg>