<svg width="100" height="100" viewBox="0 0 100 100" fill="none" xmlns="http://www.w3.org/2000/svg">
<path d="M50 100C77.6142 100 100 77.6142 100 50C100 22.3858 77.6142 0 50 0C22.3858 0 0 22.3858 0 50C0 77.6142 22.3858 100 50 100Z" fill="url(#paint0_linear_953_2091)"/>
<path d="M44.5526 54.6974L74.0262 70.5353C74.9998 71.0586 75.0894 72.342 74.1971 72.9795L54.2979 87.1975C53.3828 87.8512 52.0527 87.3913 51.8109 86.3375L44.5526 54.6974ZM43.6743 14.4297C44.8337 13.6011 46.4676 14.572 46.1614 15.9074L38.3396 50L46.1607 84.0928C46.467 85.4282 44.8331 86.399 43.6737 85.5706L23.6336 71.2511C22.6042 70.5156 22 69.3722 22 68.1595V31.842C22 30.6295 22.6042 29.4862 23.6334 28.7508L43.6743 14.4297ZM75.8983 33.9208C76.945 33.3579 78.25 34.0655 78.25 35.1957V64.7943C78.25 65.9244 76.9453 66.632 75.8989 66.0696L45.9964 50.0012L75.8983 33.9208ZM51.8116 13.6625C52.0534 12.6088 53.3837 12.1487 54.2987 12.8026L74.1831 27.0118C75.0752 27.6493 74.9857 28.9323 74.0125 29.4558L44.5538 45.2977L51.8116 13.6625Z" fill="white"/>
<defs>
<linearGradient id="paint0_linear_953_2091" x1="50" y1="0" x2="50" y2="100" gradientUnits="userSpaceOnUse">
<stop stop-color="#31CB9E"/>
<stop offset="0.04" stop-color="#2FC99E"/>
<stop offset="0.63" stop-color="#18B2A1"/>
<stop offset="1" stop-color="#0FAAA2"/>
</linearGradient>
</defs>
</svg>
