<svg width="100" height="100" viewBox="0 0 100 100" fill="#142533" xmlns="http://www.w3.org/2000/svg">
    <path
        d="M82.9042 0.974667H37.6792V61.9862H98.7403V16.7612C98.7403 8.09847 91.6116 0.974667 82.9538 0.974667C82.9389 0.974667 82.919 0.974667 82.9042 0.974667V0.974667Z" />
    <path d="M23.5805 0.97467H15.7865C7.12876 0.97467 0 8.10343 0 16.7612V24.5552H23.5805V0.97467Z" />
    <path d="M0 38.6539H23.5805V62.2344H0V38.6539Z" />
    <path
        d="M75.3584 99.715H83.1524C91.8151 99.715 98.9389 92.5862 98.9389 83.9284C98.9389 83.9136 98.9389 83.8937 98.9389 83.8788V76.333H75.3584V99.715Z" />
    <path d="M37.6792 76.333H61.2597V99.9136H37.6792V76.333Z" />
    <path d="M0 76.333V84.127C0 92.7848 7.12876 99.9136 15.7865 99.9136H23.5805V76.333H0Z" />
</svg>