<svg xmlns="http://www.w3.org/2000/svg" width="31" height="31" viewBox="0 0 31 31">
    <g fill="none" fill-rule="evenodd">
        <g fill="#CFE2EC">
            <g>
                <path d="M28.202 36.024v7.18c-1.312-.073-2.618.146-3.891-.278-1.781-.594-3.154-2.32-3.246-4.188-.044-.897-.007-1.797-.007-2.714h7.144zm11.5-.006c.005.097.015.19.015.284 0 2.193-.002 4.386.005 6.58 0 .228-.045.32-.302.32-2.208-.01-4.417-.008-6.626-.004-.186 0-.28-.028-.279-.25.008-2.261.005-4.522.006-6.783 0-.038.007-.076.015-.147h7.166zm11.448.004l.031.03c.004.005.007.01.007.014-.012 1.006.075 2.026-.06 3.017-.326 2.4-2.46 4.062-4.678 4.08-.796.006-1.592 0-2.41 0v-7.141h7.11zM28.212 24.569v7.138c-.09.006-.183.018-.276.018-2.197.001-4.394-.001-6.591.005-.211 0-.314-.033-.313-.281.009-2.21.005-4.421.006-6.632 0-.076.012-.152.02-.248h7.154zm18.316-11.567c2.21.002 4.287 1.82 4.588 4.012.049.354.078.714.078 1.072l.004 6.577v6.94H32.532V13.018c.105-.006.207-.016.309-.016 4.562-.001 9.124-.004 13.687 0zm-18.32-.001v7.132h-7.15c-.007-.127-.018-.258-.02-.39-.014-.656-.026-1.313-.038-1.97v-.29c.055-.264.1-.53.165-.79.54-2.168 2.49-3.69 4.724-3.692h2.318z" transform="translate(-467 -200) translate(446 187)"/>
            </g>
        </g>
    </g>
</svg>
