<svg width="24" height="24" viewBox="0 0 24 24" fill="none" xmlns="http://www.w3.org/2000/svg">
<path d="M19.6177 0H4.38292C1.95169 0 0 1.9512 0 4.3824V19.6176C0 22.0488 1.95169 24 4.38292 24H19.6171C22.0141 24 24 22.0488 24 19.6176V4.3824C24 1.9512 22.0489 0 19.6177 0ZM15.9205 5.9916C17.7007 5.9916 19.1387 7.4292 19.1387 9.21C19.1387 9.7572 19.0015 10.2708 18.7617 10.7502C18.3511 10.4424 17.9063 10.1682 17.4268 9.9972C17.5635 9.7572 17.6324 9.4836 17.6324 9.21C17.6324 8.2854 16.8789 7.5324 15.9546 7.5324C15.0297 7.5324 14.2769 8.2854 14.2769 9.21C14.2769 9.4836 14.3452 9.7572 14.4825 9.9972C14.0029 10.1682 13.5234 10.4082 13.147 10.7502C12.873 10.2708 12.77 9.7572 12.77 9.2094C12.7022 7.4292 14.1402 5.9916 15.9205 5.9916ZM8.07953 18.0084C6.29985 18.0084 4.86186 16.5708 4.86186 14.7906H6.40236C6.40236 15.7146 7.15582 16.4682 8.08012 16.4682C9.00442 16.4682 9.75788 15.7146 9.75788 14.7906H11.2984C11.2984 16.5708 9.85979 18.0084 8.07953 18.0084ZM8.07953 13.4892C6.02592 13.4892 4.34816 11.8116 4.34816 9.7572C4.34816 7.7034 6.02592 5.9916 8.08012 5.9916C10.1343 5.9916 11.8462 7.6692 11.8462 9.7572C11.8121 11.8116 10.1337 13.4892 8.07953 13.4892ZM15.9205 18.0084C13.8663 18.0084 12.1543 16.3308 12.1543 14.2764C12.1543 12.1884 13.8321 10.5108 15.9205 10.5108C17.9747 10.5108 19.6524 12.1884 19.6524 14.277C19.6524 16.3308 17.9747 18.0084 15.9205 18.0084ZM18.1455 14.2428C18.1455 15.4752 17.1529 16.4334 15.9205 16.4334C14.6881 16.4334 13.6948 15.441 13.6948 14.2428C13.6948 13.0098 14.6881 12.0168 15.9205 12.0168C17.1529 12.0516 18.1455 13.044 18.1455 14.2428ZM10.271 9.7572C10.271 10.9902 9.27835 11.9832 8.04595 11.9832C6.81296 11.9832 5.82032 10.9902 5.82032 9.7572C5.82032 8.5248 6.81296 7.5318 8.04595 7.5318C9.31252 7.5318 10.271 8.5248 10.271 9.7578V9.7572Z" fill="#868787"/>
</svg>
