<svg xmlns="http://www.w3.org/2000/svg" width="34" height="28" viewBox="0 0 34 28">
    <g fill="none" fill-rule="evenodd">
        <g>
            <g>
                <g>
                    <path fill="#B5B5B5" d="M31.551 0.058L18.597 8.646 21.003 3.579z" transform="translate(-205 -203) translate(186 187) translate(19 16)"/>
                    <g fill="#B5B5B5">
                        <path d="M1.418.058L14.254 8.727 11.965 3.579zM26.635 19.964L23.188 24.682 30.562 26.495 32.669 20.068zM.052 20.068L2.146 26.495 9.52 24.682 6.086 19.964z" transform="translate(-205 -203) translate(186 187) translate(19 16) translate(.26)"/>
                        <path d="M9.117 11.992L7.062 14.77 14.371 15.06 14.124 8.03zM23.591 11.992L18.506 7.948 18.337 15.06 25.646 14.77zM9.52 24.682L13.929 22.764 10.131 20.115zM18.779 22.764L23.188 24.682 22.577 20.115z" transform="translate(-205 -203) translate(186 187) translate(19 16) translate(.26)"/>
                    </g>
                    <g fill="#C7C7C7">
                        <path d="M13.694 2.022L9.286.105 9.637 2.673 9.598 3.753zM.026 2.022L4.123 3.753 4.097 2.673 4.435.105z" transform="translate(-205 -203) translate(186 187) translate(19 16) translate(9.754 22.66)"/>
                    </g>
                    <path fill="#3A3A3A" d="M13.955 18.418L10.287 17.454 12.875 16.396zM19.274 18.418L20.353 16.396 22.954 17.454z" transform="translate(-205 -203) translate(186 187) translate(19 16)"/>
                    <path fill="#6A6A6A" d="M9.78 24.682L10.417 19.964 6.347 20.068zM22.811 19.964L23.448 24.682 26.895 20.068z" transform="translate(-205 -203) translate(186 187) translate(19 16)"/>
                    <path fill="#949394" d="M25.906 14.77L18.597 15.06 19.274 18.418 20.353 16.396 22.954 17.454zM10.287 17.454L12.875 16.396 13.955 18.418 14.631 15.06 7.322 14.77z" transform="translate(-205 -203) translate(186 187) translate(19 16)"/>
                    <path fill="#6A6A6A" d="M7.322 14.77L10.391 20.115 10.287 17.454zM22.954 17.454L22.837 20.115 25.906 14.77z" transform="translate(-205 -203) translate(186 187) translate(19 16)"/>
                    <path fill="#B5B5B5" d="M14.631 15.06L13.955 18.418 14.813 22.381 14.995 17.163zM18.597 15.06L18.246 17.152 18.415 22.381 19.274 18.418z" transform="translate(-205 -203) translate(186 187) translate(19 16)"/>
                    <path fill="#949394" d="M19.274 18.418L18.415 22.381 19.04 22.764 22.837 20.115 22.954 17.454zM10.287 17.454L10.391 20.115 14.189 22.764 14.813 22.381 13.955 18.418zM19.352 26.413L19.391 25.333 19.066 25.077 14.163 25.077 13.851 25.333 13.877 26.413 9.78 24.682 11.21 25.728 14.124 27.529 19.105 27.529 22.018 25.728 23.448 24.682z" transform="translate(-205 -203) translate(186 187) translate(19 16)"/>
                    <path fill="#3A3A3A" d="M19.04 22.764L18.415 22.381 14.813 22.381 14.189 22.764 13.851 25.333 14.163 25.077 19.066 25.077 19.391 25.333z" transform="translate(-205 -203) translate(186 187) translate(19 16)"/>
                    <g fill="#6A6A6A">
                        <path d="M32.097 9.203L33.189 4.462 31.551.058 19.04 8.355 23.852 11.992 30.653 13.77 32.149 12.201 31.499 11.783 32.539 10.935 31.746 10.377 32.786 9.668zM.039 4.462L1.144 9.203.442 9.668 1.483 10.377.689 10.935 1.73 11.783 1.079 12.201 2.575 13.77 9.377 11.992 14.189 8.355 1.678.058z" transform="translate(-205 -203) translate(186 187) translate(19 16)"/>
                    </g>
                    <path fill="#949394" d="M30.653 13.77L23.852 11.992 25.906 14.77 22.837 20.115 26.895 20.068 32.929 20.068zM9.377 11.992L2.575 13.77.312 20.068 6.347 20.068 10.391 20.115 7.322 14.77z" transform="translate(-205 -203) translate(186 187) translate(19 16)"/>
                    <path fill="#C7C7C7" d="M18.597 15.06L19.04 8.355 21.003 3.579 12.225 3.579 14.189 8.355 14.631 15.06 14.8 17.175 14.813 22.381 18.415 22.381 18.428 17.175z" transform="translate(-205 -203) translate(186 187) translate(19 16)"/>
                </g>
            </g>
        </g>
    </g>
</svg>
