<svg width="48" height="48" viewBox="0 0 48 48" fill="none" xmlns="http://www.w3.org/2000/svg">
<path d="M39.2353 0H8.76583C3.90339 0 0 3.9024 0 8.7648V39.2352C0 44.0976 3.90339 48 8.76583 48H39.2342C44.0283 48 48 44.0976 48 39.2352V8.7648C48 3.9024 44.0978 0 39.2353 0ZM31.8409 11.9832C35.4015 11.9832 38.2775 14.8584 38.2775 18.42C38.2775 19.5144 38.0029 20.5416 37.5234 21.5004C36.7022 20.8848 35.8127 20.3364 34.8536 19.9944C35.127 19.5144 35.2648 18.9672 35.2648 18.42C35.2648 16.5708 33.7579 15.0648 31.9093 15.0648C30.0595 15.0648 28.5538 16.5708 28.5538 18.42C28.5538 18.9672 28.6904 19.5144 28.9649 19.9944C28.0059 20.3364 27.0468 20.8164 26.294 21.5004C25.7461 20.5416 25.5399 19.5144 25.5399 18.4188C25.4044 14.8584 28.2804 11.9832 31.8409 11.9832ZM16.1591 36.0168C12.5997 36.0168 9.72371 33.1416 9.72371 29.5812H12.8047C12.8047 31.4292 14.3116 32.9364 16.1602 32.9364C18.0088 32.9364 19.5158 31.4292 19.5158 29.5812H22.5968C22.5968 33.1416 19.7196 36.0168 16.1591 36.0168ZM16.1591 26.9784C12.0518 26.9784 8.69632 23.6232 8.69632 19.5144C8.69632 15.4068 12.0518 11.9832 16.1602 11.9832C20.2686 11.9832 23.6925 15.3384 23.6925 19.5144C23.6242 23.6232 20.2675 26.9784 16.1591 26.9784ZM31.8409 36.0168C27.7325 36.0168 24.3087 32.6616 24.3087 28.5528C24.3087 24.3768 27.6642 21.0216 31.8409 21.0216C35.9493 21.0216 39.3049 24.3768 39.3049 28.554C39.3049 32.6616 35.9493 36.0168 31.8409 36.0168ZM36.291 28.4856C36.291 30.9504 34.3057 32.8668 31.8409 32.8668C29.3761 32.8668 27.3897 30.882 27.3897 28.4856C27.3897 26.0196 29.3761 24.0336 31.8409 24.0336C34.3057 24.1032 36.291 26.088 36.291 28.4856ZM20.542 19.5144C20.542 21.9804 18.5567 23.9664 16.0919 23.9664C13.6259 23.9664 11.6406 21.9804 11.6406 19.5144C11.6406 17.0496 13.6259 15.0636 16.0919 15.0636C18.625 15.0636 20.542 17.0484 20.542 19.5144Z" fill="#D9B432"/>
</svg>
