<svg xmlns="http://www.w3.org/2000/svg" width="36" height="20" viewBox="0 0 36 20">
    <g fill="none" fill-rule="evenodd">
        <g fill="#6A6A6A">
            <g>
                <path d="M24.988 25.017c5.824-5.356 15.268-5.356 21.093 0l.7.645c.292.268.292.702 0 .97l-2.397 2.205c-.146.134-.382.134-.528 0l-.964-.887c-4.064-3.737-10.652-3.737-14.715 0l-1.033.95c-.146.133-.382.133-.528 0l-2.398-2.206c-.29-.267-.29-.702 0-.97l.77-.707zm26.64 4.18l2.152 1.934c.293.264.293.691 0 .955l-9.7 8.716c-.293.264-.77.264-1.063 0l-6.884-6.186c-.073-.066-.192-.066-.266 0l-6.884 6.186c-.293.264-.77.264-1.063 0l-9.7-8.716c-.293-.264-.293-.691 0-.955l2.151-1.933c.294-.264.77-.264 1.063 0l6.885 6.186c.073.066.192.066.265 0l6.884-6.186c.294-.264.77-.264 1.063 0l6.885 6.186c.073.066.192.066.265 0l6.885-6.186c.293-.264.77-.264 1.063 0z" transform="translate(-464 -288) translate(446 267)"/>
            </g>
        </g>
    </g>
</svg>
