<svg width="81" height="26" viewBox="0 0 81 26" fill="none" xmlns="http://www.w3.org/2000/svg">
<g clip-path="url(#clip0)">
<path d="M34.0142 9.27801H36.4158L38.9514 13.1527L41.5179 9.27801L43.7751 9.32941L40.0542 14.643L43.9401 20.2854H41.5694L38.8277 16.1537L36.1685 20.2854H33.8184L37.7042 14.643L34.0142 9.27801ZM52.7363 18.5382C53.4302 18.5382 54.0006 18.4663 54.4473 18.3223C55.2443 18.0551 55.8971 17.5413 56.4056 16.7806C56.8111 16.171 57.1031 15.3898 57.2818 14.4374C57.3848 13.8687 57.4363 13.3411 57.4363 12.8546C57.4363 10.9841 57.0619 9.53153 56.3128 8.49692C55.5708 7.46229 54.3717 6.94499 52.7156 6.94499H49.0772V18.5382H52.7363ZM47.0158 5.1875H53.1485C55.2307 5.1875 56.8454 5.92407 57.9929 7.3972C59.0168 8.72645 59.5287 10.4291 59.5287 12.5052C59.5287 14.1085 59.2263 15.5576 58.6216 16.8527C57.5567 19.1412 55.7254 20.2854 53.128 20.2854H47.0158V5.1875ZM64.4082 17.3563C64.4082 17.8907 64.604 18.3121 64.9957 18.6204C65.3874 18.9288 65.8512 19.0828 66.3872 19.0828C67.0399 19.0828 67.6721 18.9321 68.2836 18.6307C69.3145 18.1305 69.8297 17.3117 69.8297 16.1743V14.6841C69.603 14.8279 69.3109 14.9478 68.9537 15.0438C68.5963 15.1397 68.246 15.2083 67.9023 15.2494L66.7789 15.3932C66.1054 15.4824 65.6004 15.6228 65.2637 15.8146C64.6933 16.1366 64.4082 16.6506 64.4082 17.3563ZM68.9021 13.6152C69.3281 13.5604 69.6134 13.3822 69.7576 13.0807C69.8401 12.9163 69.8813 12.6799 69.8813 12.3716C69.8813 11.7412 69.6546 11.2856 69.201 11.0047C68.7543 10.7169 68.1118 10.573 67.2736 10.573C66.3046 10.573 65.6176 10.8334 65.2121 11.3541C64.9853 11.6419 64.8377 12.0701 64.769 12.6388H63.0373C63.0717 11.2822 63.5115 10.34 64.3566 9.81246C65.2087 9.27801 66.1947 9.0108 67.3148 9.0108C68.6135 9.0108 69.6683 9.25746 70.4791 9.75079C71.283 10.2441 71.685 11.0115 71.685 12.053V18.3942C71.685 18.5862 71.7228 18.7404 71.7985 18.8569C71.8808 18.9732 72.0493 19.0315 72.3035 19.0315C72.386 19.0315 72.4788 19.028 72.5818 19.0213C72.6849 19.0076 72.7948 18.9905 72.9117 18.9699V20.3368C72.623 20.419 72.4031 20.4704 72.252 20.4909C72.1007 20.5115 71.8946 20.5218 71.6335 20.5218C70.9945 20.5218 70.5306 20.2956 70.2421 19.8435C70.0908 19.6037 69.9844 19.2645 69.9225 18.826C69.5446 19.3193 69.0018 19.7475 68.294 20.1107C67.5863 20.4738 66.8063 20.6554 65.9543 20.6554C64.9303 20.6554 64.0921 20.3471 63.4392 19.7304C62.7933 19.107 62.4704 18.3292 62.4704 17.3973C62.4704 16.3765 62.79 15.5851 63.429 15.0232C64.0681 14.4614 64.9063 14.1154 65.9439 13.9852L68.9021 13.6152ZM75.7915 9.32941H77.6776V20.2854H75.7915V9.32941ZM75.7915 5.1875H77.6776V7.28415H75.7915V5.1875Z" fill="white"/>
<path fill-rule="evenodd" clip-rule="evenodd" d="M13.2637 0.238281C20.3887 0.238281 26.2637 5.98828 26.2637 13.1133C26.2637 20.2383 20.3887 25.9883 13.2637 25.9883C6.13867 25.9883 0.263672 20.2383 0.263672 13.1133C0.263672 5.98828 6.13867 0.238281 13.2637 0.238281ZM11.8887 19.7383V17.1133H9.13867V14.4883H6.51367V19.8633H11.8887V19.7383ZM20.0137 14.4883H17.3887V17.1133H14.7637V19.7383H20.1387V14.4883H20.0137ZM14.6387 9.11328H20.0137V6.48828H14.6387V9.11328ZM6.51367 9.11328H11.8887V6.48828H6.51367V9.11328Z" fill="white"/>
</g>
<defs>
<clipPath id="clip0">
<rect width="80.6253" height="25.8723" fill="white" transform="translate(0.138672 0.113281)"/>
</clipPath>
</defs>
</svg>
