<svg width="105" height="24" viewBox="0 0 105 24" fill="none" xmlns="http://www.w3.org/2000/svg">
<path d="M20.7286 7.63295C20.2404 7.34509 19.6061 7.34509 19.0689 7.63295L15.2614 9.84163L12.6744 11.2817L8.86686 13.4904C8.37868 13.7782 7.74434 13.7782 7.2072 13.4904L4.18093 11.7617C3.69275 11.4738 3.35073 10.9456 3.35073 10.3691V6.96078C3.35073 6.38431 3.64378 5.85681 4.18093 5.56821L7.15823 3.88777C7.64641 3.59991 8.28149 3.59991 8.81789 3.88777L11.7959 5.56821C12.2841 5.85681 12.6254 6.38431 12.6254 6.96078V9.16946L15.2132 7.68118V5.4725C15.2132 4.89603 14.9201 4.36853 14.383 4.07993L8.86686 0.911209C8.37868 0.623347 7.74434 0.623347 7.2072 0.911209L1.59387 4.07993C1.05673 4.36853 0.763672 4.89603 0.763672 5.4725V11.8574C0.763672 12.4339 1.05673 12.9621 1.59387 13.25L7.2072 16.4187C7.69538 16.7066 8.32971 16.7066 8.86686 16.4187L12.6744 14.2583L15.2614 12.77L19.0689 10.6095C19.5571 10.3217 20.1922 10.3217 20.7286 10.6095L23.7066 12.29C24.1948 12.5778 24.5361 13.1061 24.5361 13.6818V17.0909C24.5361 17.6666 24.2438 18.1948 23.7066 18.4827L20.7286 20.2114C20.2404 20.4992 19.6061 20.4992 19.0689 20.2114L16.0916 18.5309C15.6034 18.2431 15.2614 17.7148 15.2614 17.1384V14.9304L12.6744 16.4187V18.6266C12.6744 19.2031 12.9674 19.7314 13.5046 20.0192L19.1179 23.1879C19.6061 23.4758 20.2404 23.4758 20.7776 23.1879L26.3916 20.0192C26.8798 19.7314 27.2211 19.2031 27.2211 18.6266V12.2417C27.2211 11.666 26.928 11.1378 26.3916 10.8492L20.7286 7.63295Z" fill="white"/>
<path d="M103.321 8.06145C103.906 8.54147 104.15 9.16616 104.199 9.93405V16.5111H101.319V10.9905C101.27 10.1262 100.831 9.69441 100.001 9.69441C99.3669 9.69441 98.8297 9.98227 98.4387 10.6062C98.0485 11.2302 97.8534 11.9988 97.8534 12.9106V16.5111H95.0215V7.77359H97.6085L97.8044 9.16616C98.1457 8.5897 98.5849 8.1579 99.171 7.82182C99.7571 7.48573 100.44 7.3418 101.222 7.3418C102.051 7.3418 102.783 7.58144 103.321 8.06145Z" fill="white"/>
<path d="M41.2236 7.91961C41.8587 8.30318 42.3959 8.83143 42.7371 9.55183C43.1281 10.2722 43.3233 11.1358 43.3233 12.0958C43.3233 13.0566 43.1281 13.8727 42.6889 14.5924C42.2979 15.3128 41.7118 15.841 40.9803 16.1771C40.248 16.5614 39.3688 16.7528 38.4415 16.7528C37.9043 16.7528 37.4169 16.6571 36.9287 16.465C36.4405 16.3211 36.0006 16.0332 35.6593 15.6971V20.6902H32.8281V7.5353H35.269L35.5131 8.59179C36.5867 7.72746 37.7582 7.29492 38.9786 7.29492C39.8088 7.29492 40.5893 7.48708 41.2236 7.91961ZM39.6619 13.8727C40.1501 13.4402 40.3942 12.8645 40.3942 12.1441C40.3942 11.4244 40.1501 10.848 39.7109 10.3679C39.2717 9.88791 38.6855 9.69576 38.0512 9.69576C37.5141 9.69576 37.0259 9.79146 36.6356 10.0318C36.2446 10.224 35.9523 10.5601 35.7082 10.9919V13.1523C35.8544 13.5849 36.1475 13.9202 36.4887 14.1606C36.8797 14.401 37.3189 14.5449 37.8561 14.5449C38.5884 14.5449 39.1737 14.3045 39.6619 13.8727Z" fill="white"/>
<path d="M44.9859 9.59991C45.4251 8.92774 46.0112 8.35201 46.7917 7.9677C47.573 7.58339 48.4514 7.34375 49.4277 7.34375C50.4041 7.34375 51.2833 7.53591 52.0638 7.9677C52.796 8.35201 53.3821 8.92774 53.8214 9.64814C54.2606 10.3678 54.4557 11.1364 54.4557 12.0482C54.4557 12.9608 54.2606 13.7287 53.8214 14.4491C53.3821 15.1687 52.845 15.7452 52.0638 16.1295C51.3315 16.5131 50.4041 16.7534 49.4277 16.7534C48.4514 16.7534 47.573 16.5613 46.7917 16.177C46.0112 15.7934 45.4251 15.2652 44.9859 14.5448C44.5949 13.8251 44.3516 13.009 44.3516 12.0482C44.3516 11.1364 44.5949 10.3203 44.9859 9.59991ZM47.866 13.7769C48.2563 14.2569 48.7934 14.4491 49.4277 14.4491C50.0628 14.4491 50.5992 14.2087 50.9902 13.7769C51.3805 13.3444 51.5756 12.7204 51.5756 12.0482C51.5756 11.3286 51.3805 10.7521 50.9902 10.3203C50.5503 9.84029 50.0628 9.59991 49.3788 9.59991C48.7444 9.59991 48.2563 9.84029 47.817 10.2721C47.4268 10.7521 47.2317 11.3286 47.2317 12.0482C47.2317 12.7204 47.4268 13.2969 47.866 13.7769Z" fill="white"/>
<path d="M59.0499 0.720703V16.5161H56.2188V0.720703H59.0499Z" fill="white"/>
<path d="M70.6669 7.7793L64.9066 20.7413H62.1734L64.3213 16.085L60.2207 7.7793H63.4428L65.7858 12.9638L68.1288 7.7793H70.6669Z" fill="white"/>
<path d="M81.5048 7.77359V16.5111C81.5048 17.3272 81.2607 18.0958 80.7726 18.768C80.2844 19.4402 79.65 19.9684 78.8198 20.352C77.9904 20.7363 77.1112 20.9285 76.1349 20.9285C75.4026 20.9285 74.7683 20.832 74.2311 20.6881C73.6947 20.4959 73.2547 20.3045 72.9135 20.1124C72.5232 19.872 72.1322 19.5841 71.693 19.1998L73.3527 17.2797C73.7429 17.6633 74.1829 17.9519 74.5731 18.1441C74.9634 18.3355 75.5005 18.4802 76.0866 18.4802C76.8189 18.4802 77.4043 18.288 77.8925 17.9519C78.3806 17.6158 78.6247 17.0876 78.6247 16.4636V15.215C78.3317 15.6475 77.9414 16.0311 77.356 16.3197C76.7699 16.6076 76.0866 16.7515 75.3054 16.7515C74.5242 16.7515 73.7429 16.5593 73.0596 16.1275C72.3763 15.7432 71.8392 15.1668 71.4 14.4471C71.0097 13.7267 70.7656 12.9588 70.7656 12.0945C70.7656 11.2302 70.9607 10.4141 71.4 9.69441C71.8392 8.97401 72.3763 8.39754 73.1086 7.96575C73.7919 7.53395 74.5242 7.3418 75.3054 7.3418C76.0377 7.3418 76.672 7.4375 77.2581 7.62966C77.8435 7.82182 78.2827 8.10968 78.5758 8.44577L78.8688 7.77359H81.5048ZM78.6247 13.151V10.9905C78.4296 10.558 78.1365 10.2219 77.6973 9.98227C77.2581 9.74189 76.7699 9.59796 76.1846 9.59796C75.5005 9.59796 74.9144 9.83834 74.427 10.2701C73.9388 10.7019 73.6947 11.2784 73.6947 11.9988C73.6947 12.671 73.9388 13.2949 74.427 13.7749C74.9144 14.255 75.5005 14.4953 76.1846 14.4953C77.3063 14.4471 78.1365 14.0146 78.6247 13.151Z" fill="white"/>
<path d="M83.8472 9.60005C84.2872 8.87965 84.8726 8.35141 85.6538 7.91961C86.4343 7.5353 87.3135 7.29492 88.2891 7.29492C89.2654 7.29492 90.1446 7.48708 90.9251 7.91961C91.6574 8.30318 92.2435 8.87965 92.6827 9.60005C93.0737 10.3197 93.317 11.0883 93.317 12.0001C93.317 12.9127 93.1219 13.6806 92.6827 14.401C92.2924 15.1206 91.7063 15.6971 90.9251 16.0807C90.1936 16.465 89.2654 16.7054 88.2891 16.7054C87.3135 16.7054 86.4343 16.5132 85.6538 16.1289C84.8726 15.7453 84.2872 15.2171 83.8472 14.4967C83.408 13.7763 83.2129 12.9602 83.2129 11.9519C83.2129 11.1358 83.408 10.3197 83.8472 9.60005ZM86.6784 13.7763C87.0686 14.2563 87.6058 14.4485 88.2409 14.4485C88.8752 14.4485 89.4123 14.2088 89.8026 13.7763C90.1936 13.3445 90.3887 12.7205 90.3887 12.0484C90.3887 11.328 90.1936 10.7522 89.8026 10.3197C89.4123 9.88791 88.8752 9.64753 88.2409 9.64753C87.6058 9.64753 87.1176 9.88791 86.6784 10.3197C86.2392 10.7522 86.044 11.3762 86.044 12.0484C86.093 12.7205 86.2881 13.2963 86.6784 13.7763Z" fill="white"/>
</svg>
