<svg width="130" height="26" viewBox="0 0 130 26" fill="none" xmlns="http://www.w3.org/2000/svg">
<path d="M11.7051 16.6414L15.1148 21.9927L18.2644 20.1674L13.7865 13.1094L11.7051 16.6414Z" fill="white" fill-opacity="0.5"/>
<path d="M21.1304 18.0208L21.1281 16.5583L16.2352 8.9375L14.4199 12.0178L19.1434 19.6569L20.8513 18.6673C21.0188 18.5313 21.1202 18.3316 21.1309 18.1162L21.1304 18.0208Z" fill="white" fill-opacity="0.5"/>
<path d="M0.626953 19.4005L3.03874 20.7902L11.0644 7.91934L9.70238 7.88344C8.54189 7.86702 7.29166 8.16878 6.7178 9.10538L2.16023 16.1692L0.626953 18.525V19.4005Z" fill="white"/>
<path d="M15.698 7.91797L12.1081 7.93105L3.98633 21.3335L6.82521 22.9679L7.59709 21.6587L15.698 7.91797Z" fill="white"/>
<path d="M22.6435 7.89986C22.6135 7.14911 22.207 6.46194 21.5703 6.06177L12.6458 0.929437C12.0159 0.612316 11.2291 0.61186 10.5981 0.929285C10.5236 0.966853 1.91916 5.95713 1.91916 5.95713C1.80007 6.01417 1.68539 6.08216 1.57755 6.15942C1.00917 6.56689 0.662696 7.19991 0.626953 7.8953V18.5242L2.16024 16.1684L2.14685 7.96709C2.14868 7.93712 2.15248 7.90746 2.15765 7.87841C2.19233 7.6854 2.30016 7.51338 2.4623 7.39703C2.50291 7.36813 11.2541 2.30241 11.2819 2.28842C11.4877 2.18514 11.749 2.18393 11.9549 2.28522L20.764 7.35216C20.9724 7.48494 21.1031 7.71004 21.1146 7.95613V18.1154C21.104 18.3308 21.0188 18.5305 20.8513 18.6665L19.1435 19.6561L18.2622 20.1669L15.1126 21.9922L11.9184 23.8432C11.7464 23.9054 11.5452 23.9019 11.3747 23.8326L7.59555 21.6589L6.82351 22.9682L10.2198 24.9235C10.3321 24.9874 10.4321 25.044 10.5143 25.0902C10.6414 25.1616 10.7281 25.2092 10.7587 25.2241C11.0001 25.3413 11.3473 25.4095 11.6603 25.4095C11.9472 25.4095 12.227 25.3569 12.4918 25.2531L21.7695 19.8803C22.302 19.4677 22.6154 18.8455 22.6435 18.1715V7.89986Z" fill="white" fill-opacity="0.8"/>
<path d="M32.2317 9.2793C32.4991 9.2793 32.7242 9.3339 32.9072 9.44295C33.0902 9.55216 33.2696 9.76494 33.4458 10.0818L36.9405 16.4271C36.9755 16.4975 36.9844 16.5556 36.967 16.6014C36.9495 16.6473 36.8984 16.67 36.8139 16.67H35.4731C35.3534 16.67 35.2726 16.6242 35.23 16.5328L34.4805 15.1707H29.5183L28.7897 16.5328C28.7404 16.6243 28.6596 16.67 28.5469 16.67H27.1745C27.0827 16.67 27.0284 16.6473 27.0109 16.6014C26.9931 16.5556 27.0019 16.4975 27.037 16.4271L30.5003 10.0818C30.6761 9.76494 30.8487 9.55216 31.0177 9.44295C31.1864 9.3339 31.3833 9.2793 31.6089 9.2793H32.2317ZM30.1835 13.9459H33.8154L32.1367 10.8524C32.1084 10.8033 32.0696 10.7785 32.0205 10.7785H31.9572C31.9079 10.7785 31.869 10.8033 31.841 10.8524L30.1835 13.9459Z" fill="white"/>
<path d="M48.0235 9.2775C48.8329 9.2775 49.4138 9.46062 49.7657 9.82656C50.1175 10.1925 50.2937 10.7346 50.2937 11.4523V12.0542C50.2937 12.6595 50.1703 13.1382 49.9241 13.49C49.6775 13.8419 49.2761 14.0672 48.7204 14.1656L50.5259 16.404C50.5609 16.4393 50.5714 16.492 50.5574 16.5623C50.5431 16.6327 50.487 16.6679 50.3887 16.6679H49.0267C48.9351 16.6679 48.8716 16.6574 48.8366 16.6362C48.8013 16.6151 48.7662 16.5799 48.7312 16.5307L47.0628 14.3347H43.6525V16.4356C43.6525 16.5906 43.575 16.6679 43.4203 16.6679H42.2802C42.1183 16.6679 42.0371 16.5904 42.0371 16.4356V9.59416C42.0371 9.3829 42.1428 9.27734 42.3541 9.27734H48.0235V9.2775ZM43.6525 13.0467H47.6965C48.0553 13.0467 48.3086 12.9693 48.4563 12.8145C48.6043 12.6597 48.6782 12.4239 48.6782 12.1071V11.6637C48.6782 11.3471 48.6043 11.1112 48.4563 10.9563C48.3086 10.8017 48.0553 10.7242 47.6965 10.7242H43.7897C43.6982 10.7242 43.6525 10.7664 43.6525 10.8509V13.0467Z" fill="white"/>
<path d="M62.103 9.2775C62.8282 9.2775 63.3435 9.42184 63.6498 9.71051C63.9562 9.99919 64.1092 10.4356 64.1092 11.0196V11.5264C64.1092 12.1177 63.8841 12.5646 63.4337 12.8671C63.9191 13.1488 64.1621 13.6028 64.1621 14.2291V14.8415C64.1621 15.1232 64.1303 15.3766 64.0671 15.6017C64.0038 15.8269 63.8997 16.0186 63.7557 16.177C63.6114 16.3354 63.4194 16.4567 63.1803 16.5413C62.9409 16.6259 62.6453 16.668 62.2933 16.668H56.022C55.8108 16.668 55.7051 16.5625 55.7051 16.3513V9.59416C55.7051 9.3829 55.8108 9.27734 56.022 9.27734H62.103V9.2775ZM57.3203 12.3498H61.6492C62.0011 12.3498 62.2404 12.2971 62.3672 12.1915C62.4938 12.086 62.5573 11.9311 62.5573 11.7269V11.3681C62.5573 11.1498 62.4956 10.9898 62.3725 10.8876C62.2492 10.7857 62.0506 10.7346 61.776 10.7346H57.4575C57.366 10.7346 57.3203 10.7805 57.3203 10.8718V12.3498ZM57.3203 13.5006V15.0739C57.3203 15.1654 57.3661 15.2111 57.4575 15.2111H61.7864C62.068 15.2111 62.2685 15.16 62.3882 15.0579C62.5079 14.956 62.5677 14.7924 62.5677 14.5669V14.1656C62.5677 13.9475 62.5026 13.7821 62.3725 13.6694C62.2422 13.5569 62.0013 13.5004 61.6492 13.5004H57.3203V13.5006Z" fill="white"/>
<path d="M70.8656 9.2793C71.0204 9.2793 71.0978 9.35687 71.0978 9.51155V16.4376C71.0978 16.5925 71.0203 16.6698 70.8656 16.6698H69.7252C69.5633 16.6698 69.4824 16.5924 69.4824 16.4376V9.51155C69.4824 9.35671 69.5632 9.2793 69.7252 9.2793H70.8656Z" fill="white"/>
<path d="M84.6935 9.2793C84.8554 9.2793 84.9366 9.35687 84.9366 9.51155V10.5463C84.9366 10.7082 84.8555 10.7892 84.6935 10.7892H81.3783V16.4377C81.3783 16.5927 81.3007 16.67 81.1461 16.67H79.9953C79.8405 16.67 79.7634 16.5925 79.7634 16.4377V10.7892H76.4481C76.286 10.7892 76.2051 10.7084 76.2051 10.5463V9.51155C76.2051 9.35671 76.2858 9.2793 76.4481 9.2793H84.6935Z" fill="white"/>
<path d="M96.0196 9.2775C96.829 9.2775 97.4099 9.46062 97.7618 9.82656C98.1136 10.1925 98.2898 10.7346 98.2898 11.4523V12.0542C98.2898 12.6595 98.1664 13.1382 97.9202 13.49C97.6736 13.8419 97.2722 14.0672 96.7165 14.1656L98.522 16.404C98.557 16.4393 98.5675 16.492 98.5535 16.5623C98.5392 16.6327 98.4831 16.6679 98.3848 16.6679H97.0228C96.9312 16.6679 96.8677 16.6574 96.8327 16.6362C96.7974 16.6151 96.7623 16.5799 96.7273 16.5307L95.0589 14.3347H91.6486V16.4356C91.6486 16.5906 91.5711 16.6679 91.4164 16.6679H90.2763C90.1144 16.6679 90.0332 16.5904 90.0332 16.4356V9.59416C90.0332 9.3829 90.1389 9.27734 90.3502 9.27734H96.0196V9.2775ZM91.6486 13.0467H95.6926C96.0514 13.0467 96.3048 12.9693 96.4524 12.8145C96.6004 12.6597 96.6743 12.4239 96.6743 12.1071V11.6637C96.6743 11.3471 96.6004 11.1112 96.4524 10.9563C96.3048 10.8017 96.0514 10.7242 95.6926 10.7242H91.7858C91.6943 10.7242 91.6486 10.7664 91.6486 10.8509V13.0467Z" fill="white"/>
<path d="M104.924 9.2793C105.079 9.2793 105.156 9.35687 105.156 9.51155V13.7242C105.156 14.0058 105.179 14.2399 105.225 14.4262C105.271 14.6129 105.346 14.7605 105.452 14.8696C105.557 14.979 105.7 15.0564 105.879 15.1018C106.059 15.1478 106.286 15.1704 106.56 15.1704H109.485C109.76 15.1704 109.987 15.1478 110.166 15.1018C110.346 15.0562 110.488 14.9788 110.594 14.8696C110.699 14.7605 110.773 14.6129 110.815 14.4262C110.858 14.2398 110.879 14.0057 110.879 13.7242V9.51155C110.879 9.35671 110.956 9.2793 111.111 9.2793H112.262C112.417 9.2793 112.494 9.35687 112.494 9.51155V13.8825C112.494 14.3893 112.441 14.8205 112.336 15.1759C112.23 15.5314 112.059 15.8199 111.824 16.0416C111.588 16.2633 111.282 16.4236 110.905 16.522C110.529 16.6205 110.073 16.6698 109.538 16.6698H106.497C105.962 16.6698 105.508 16.6207 105.135 16.522C104.762 16.4236 104.458 16.2633 104.222 16.0416C103.986 15.8199 103.814 15.5314 103.705 15.1759C103.596 14.8205 103.541 14.3893 103.541 13.8825V9.51155C103.541 9.35671 103.622 9.2793 103.784 9.2793H104.924Z" fill="white"/>
<path d="M120.014 9.2793C120.169 9.2793 120.303 9.28979 120.415 9.31108C120.528 9.33223 120.627 9.37268 120.711 9.43246C120.796 9.49238 120.871 9.57345 120.938 9.67536C121.005 9.77741 121.073 9.91293 121.144 10.0819L123.34 15.1496C123.368 15.213 123.417 15.2447 123.488 15.2447H123.614C123.685 15.2447 123.734 15.213 123.762 15.1496L125.958 10.0819C126.029 9.91293 126.097 9.77741 126.164 9.67536C126.231 9.57345 126.307 9.49238 126.391 9.43246C126.476 9.37268 126.572 9.33223 126.682 9.31108C126.791 9.28979 126.923 9.2793 127.078 9.2793H128.207C128.573 9.2793 128.82 9.36219 128.946 9.52752C129.073 9.693 129.136 9.9762 129.136 10.3774V16.4377C129.136 16.5927 129.056 16.67 128.894 16.67H127.817C127.662 16.67 127.585 16.5925 127.585 16.4377V10.9265C127.585 10.8562 127.556 10.8209 127.5 10.8209H127.405C127.334 10.8209 127.289 10.8492 127.268 10.9055L125.135 15.6356C125.051 15.8255 124.964 15.9858 124.876 16.1159C124.788 16.2462 124.693 16.3536 124.591 16.4379C124.489 16.5224 124.373 16.5822 124.243 16.6175C124.113 16.6526 123.96 16.6703 123.784 16.6703H123.277C123.101 16.6703 122.948 16.6528 122.818 16.6175C122.687 16.5824 122.571 16.5224 122.469 16.4379C122.367 16.3534 122.272 16.2462 122.184 16.1159C122.096 15.9858 122.01 15.8255 121.925 15.6356L119.793 10.9055C119.771 10.8492 119.726 10.8209 119.655 10.8209H119.56C119.504 10.8209 119.476 10.8562 119.476 10.9265V16.4377C119.476 16.5927 119.398 16.67 119.244 16.67H118.167C118.005 16.67 117.924 16.5925 117.924 16.4377V10.3774C117.924 9.9762 117.987 9.693 118.114 9.52752C118.241 9.36219 118.49 9.2793 118.864 9.2793H120.014Z" fill="white"/>
</svg>
