<svg width="116" height="37" viewBox="0 0 116 37" fill="none" xmlns="http://www.w3.org/2000/svg">
<path d="M38.5316 19.0337C38.5316 19.221 38.3751 19.3735 38.1883 19.3735H31.5738C31.739 21.0115 32.9688 22.5057 34.6985 22.5057C35.8806 22.5057 36.7585 22.0526 37.419 21.1073C37.5146 20.9766 37.6581 20.8939 37.8406 20.9723C37.9405 21.0158 38.0101 21.1073 38.0275 21.2119C38.0448 21.3208 38.0144 21.3818 37.984 21.4427C37.3191 22.6059 35.9936 23.1766 34.6942 23.1766C32.4691 23.1766 30.8828 21.1814 30.8828 19.0468C30.8828 16.9122 32.4691 14.917 34.6942 14.917C36.9193 14.9126 38.5272 16.9035 38.5316 19.0337ZM37.8232 18.7113C37.6798 17.0734 36.4282 15.5792 34.6985 15.5792C32.9688 15.5792 31.739 17.0734 31.5738 18.7113H37.8232ZM46.5584 15.0782C46.7497 15.0782 46.8887 15.2437 46.8887 15.4093C46.8887 15.6009 46.7453 15.7403 46.5584 15.7403H44.7853V22.7148C44.7853 22.8803 44.6419 23.0459 44.455 23.0459C44.2638 23.0459 44.1248 22.8803 44.1248 22.7148V15.7403H42.4212C42.2299 15.7403 42.0909 15.5966 42.0909 15.4093C42.0909 15.2437 42.2343 15.0782 42.4212 15.0782H44.1248V12.5254C44.1248 12.3642 44.2334 12.2161 44.3899 12.1899C44.6115 12.1551 44.7853 12.3076 44.7853 12.5167V15.0782H46.5584ZM57.3754 18.45V22.6756C57.3754 22.8673 57.2102 23.0067 57.0451 23.0067C56.8539 23.0067 56.7148 22.8629 56.7148 22.6756V18.45C56.7148 17.0254 55.9108 15.6009 54.3246 15.6009C52.2907 15.6009 51.4128 17.3827 51.5301 19.208C51.5301 19.2559 51.5519 19.4693 51.5519 19.4911V22.6625C51.5519 22.8237 51.4432 22.9718 51.2868 22.998C51.0651 23.0328 50.8913 22.8803 50.8913 22.6712V8.79202C50.8913 8.62648 51.0347 8.46094 51.2216 8.46094C51.4128 8.46094 51.5519 8.62648 51.5519 8.79202V16.6464C52.1212 15.6271 53.1381 14.9388 54.3202 14.9388C56.2628 14.9388 57.3754 16.6464 57.3754 18.45ZM69.2353 19.0337C69.2353 19.221 69.0789 19.3735 68.892 19.3735H62.2732C62.4383 21.0115 63.6682 22.5057 65.3979 22.5057C66.58 22.5057 67.4579 22.0526 68.1184 21.1073C68.214 20.9766 68.3574 20.8939 68.54 20.9723C68.6399 21.0158 68.7095 21.1073 68.7268 21.2119C68.7442 21.3208 68.7138 21.3818 68.6834 21.4427C68.0185 22.6059 66.693 23.1766 65.3935 23.1766C63.1685 23.1766 61.5822 21.1814 61.5822 19.0468C61.5822 16.9122 63.1685 14.917 65.3935 14.917C67.623 14.9126 69.231 16.9035 69.2353 19.0337ZM68.5226 18.7113C68.3792 17.0734 67.1276 15.5792 65.3979 15.5792C63.6682 15.5792 62.4383 17.0734 62.2732 18.7113H68.5226ZM77.3534 15.3875C77.3534 15.6009 77.2361 15.7186 77.0449 15.7447C75.1023 16.0279 74.2287 17.6179 74.2287 19.4693V22.6407C74.2287 22.8019 74.1201 22.95 73.9636 22.9762C73.742 23.011 73.5682 22.8585 73.5682 22.6494V15.4223C73.5682 15.2611 73.6768 15.113 73.8333 15.0869C74.0549 15.052 74.2287 15.2045 74.2287 15.4136V16.886C74.772 15.9625 75.8628 15.0825 76.9971 15.0825C77.1622 15.0782 77.3534 15.2002 77.3534 15.3875ZM88.2182 19.0337C88.2182 19.221 88.0617 19.3735 87.8749 19.3735H81.2604C81.4255 21.0115 82.6554 22.5057 84.3851 22.5057C85.5672 22.5057 86.4451 22.0526 87.1056 21.1073C87.2012 20.9766 87.3447 20.8939 87.5272 20.9723C87.6271 21.0158 87.6967 21.1073 87.7141 21.2119C87.7314 21.3208 87.701 21.3818 87.6706 21.4427C87.0057 22.6059 85.6802 23.1766 84.3808 23.1766C82.1557 23.1766 80.5694 21.1814 80.5694 19.0468C80.5694 16.9122 82.1557 14.917 84.3808 14.917C86.6059 14.9126 88.2138 16.9035 88.2182 19.0337ZM87.5098 18.7113C87.3664 17.0734 86.1148 15.5792 84.3851 15.5792C82.6554 15.5792 81.4255 17.0734 81.2604 18.7113H87.5098ZM98.896 15.4702V22.7148C98.896 22.9065 98.7309 23.0459 98.5658 23.0459C98.3745 23.0459 98.2355 22.9021 98.2355 22.7148V21.3382C97.6922 22.4316 96.7187 23.2114 95.4889 23.2114C93.5245 23.2114 92.4337 21.5037 92.4337 19.7002V15.4528C92.4337 15.2873 92.5771 15.1217 92.764 15.1217C92.9552 15.1217 93.0943 15.2873 93.0943 15.4528V19.7002C93.0943 21.1247 93.8983 22.5493 95.4845 22.5493C97.7096 22.5493 98.2311 20.4626 98.2311 18.1581V15.4528C98.2311 15.2611 98.4223 15.0651 98.657 15.1348C98.8004 15.1827 98.896 15.3221 98.896 15.4702ZM115.628 18.4238V22.6712C115.628 22.8629 115.463 23.0023 115.297 23.0023C115.106 23.0023 114.967 22.8585 114.967 22.6712V18.4238C114.967 16.9993 114.163 15.6009 112.577 15.6009C110.586 15.6009 109.83 17.7355 109.83 19.3953V22.6712C109.83 22.8629 109.665 23.0023 109.5 23.0023C109.309 23.0023 109.17 22.8585 109.17 22.6712V18.4238C109.17 16.9993 108.366 15.6009 106.779 15.6009C104.767 15.6009 103.937 17.191 104.011 19.3038C104.011 19.3517 104.033 19.4476 104.011 19.4693V22.6625C104.011 22.8237 103.903 22.9718 103.742 22.998C103.52 23.0328 103.346 22.8803 103.346 22.6712V15.4223C103.346 15.2611 103.455 15.113 103.611 15.0869C103.833 15.052 104.007 15.2045 104.007 15.4136V16.6247C104.576 15.6053 105.593 14.9388 106.775 14.9388C108.122 14.9388 109.165 15.7926 109.591 17.0516C110.135 15.8187 111.199 14.9388 112.573 14.9388C114.515 14.9388 115.628 16.6203 115.628 18.4238Z" fill="white"/>
<path d="M0 18.388L11.056 24.9355V0L0 18.388Z" fill="white" fill-opacity="0.5"/>
<path d="M11.0586 0V24.9355L22.1102 18.388L11.0586 0Z" fill="white" fill-opacity="0.8"/>
<path d="M0 20.4883L11.056 36.1013V27.0358L0 20.4883Z" fill="white" fill-opacity="0.6"/>
<path d="M11.0586 27.0358V36.1013L22.1189 20.4883L11.0586 27.0358Z" fill="white" fill-opacity="0.9"/>
<path d="M11.056 13.3477L0 18.3879L11.056 24.9354L22.1076 18.3879L11.056 13.3477Z" fill="white"/>
<path d="M11.0586 13.3535V24.9413L22.1102 18.3938L11.0586 13.3535Z" fill="white"/>
</svg>
