<svg width="93" height="25" viewBox="0 0 93 25" fill="none" xmlns="http://www.w3.org/2000/svg">
<g opacity="0.85">
<path d="M3.73687 3.94566C7.30744 0.386829 12.5481 -0.416778 16.8674 1.47744L14.6213 3.71606C11.5691 2.85505 8.17128 3.60126 5.8101 6.01208C2.64266 9.16911 2.35471 14.0481 4.88866 17.5496L8.28646 14.1629L10.3597 16.2294L4.83107 21.6824C4.42794 21.3954 4.0824 21.051 3.73687 20.7066C-0.927913 16.0572 -0.927913 8.5377 3.73687 3.94566Z" fill="white"/>
<path d="M7.36328 23.1757C11.7401 25.0699 16.9808 24.2089 20.4938 20.7075C25.1585 16.058 25.1585 8.59595 20.4938 3.94651C20.1482 3.60211 19.8027 3.25771 19.3996 2.9707L13.9285 8.42375L16.0018 10.4902L19.3996 7.10354C21.9335 10.605 21.588 15.5414 18.4781 18.641C16.0594 21.0519 12.6615 21.7981 9.66688 20.9371L7.36328 23.1757Z" fill="white"/>
<path d="M14.2168 12.3262L12.1435 10.2598L10.0703 12.3262L12.1435 14.3926L14.2168 12.3262Z" fill="white"/>
<path d="M8.22753 6.35742L10.3008 8.42384L8.22753 10.4903L6.1543 8.42384L8.22753 6.35742Z" fill="white"/>
<path d="M18.1347 16.2285L16.0615 14.1621L13.9883 16.2285L16.0615 18.2949L18.1347 16.2285Z" fill="white"/>
<path d="M32.4694 7.62605H37.0996C38.1721 7.62605 39.1233 7.82655 39.9532 8.22756C40.7832 8.62856 41.4267 9.19742 41.8837 9.93415C42.3406 10.6709 42.5691 11.5335 42.5691 12.522C42.5691 13.5105 42.3406 14.3731 41.8837 15.1099C41.4267 15.8466 40.7832 16.4155 39.9532 16.8165C39.1233 17.2175 38.1721 17.418 37.0996 17.418H32.4694V7.62605ZM36.9877 15.2078C37.827 15.2078 38.4984 14.97 39.002 14.4944C39.5149 14.0188 39.7714 13.3613 39.7714 12.522C39.7714 11.6827 39.5149 11.0252 39.002 10.5496C38.4984 10.074 37.827 9.83623 36.9877 9.83623H35.2391V15.2078H36.9877ZM51.2529 17.418L49.2245 14.3825L47.2242 17.418H44.0628L47.6298 12.4661L44.2167 7.62605H47.3361L49.2945 10.4517L51.2249 7.62605H54.2184L50.8052 12.3541L54.4422 17.418H51.2529ZM57.2722 7.62605H61.3987C62.4339 7.62605 63.3525 7.83122 64.1545 8.24154C64.9565 8.65187 65.5766 9.23006 66.0149 9.97611C66.4626 10.7128 66.6864 11.5615 66.6864 12.522C66.6864 13.4826 66.4626 14.3358 66.0149 15.0819C65.5766 15.8186 64.9565 16.3921 64.1545 16.8025C63.3525 17.2128 62.4339 17.418 61.3987 17.418H57.2722V7.62605ZM61.3148 16.201C62.1075 16.201 62.8023 16.0471 63.3991 15.7394C64.0053 15.4316 64.4715 15.0026 64.7979 14.4524C65.1243 13.8929 65.2875 13.2494 65.2875 12.522C65.2875 11.7946 65.1243 11.1558 64.7979 10.6056C64.4715 10.0461 64.0053 9.61241 63.3991 9.30467C62.8023 8.99692 62.1075 8.84305 61.3148 8.84305H58.671V16.201H61.3148ZM76.3301 14.97H71.1264L70.0493 17.418H68.6085L73.0428 7.62605H74.4277L78.876 17.418H77.4072L76.3301 14.97ZM75.8405 13.8509L73.7283 9.05287L71.616 13.8509H75.8405ZM86.0193 17.5299C85.0308 17.5299 84.1402 17.3154 83.3475 16.8864C82.5548 16.4481 81.93 15.8466 81.473 15.0819C81.0254 14.3172 80.8016 13.4639 80.8016 12.522C80.8016 11.5801 81.0254 10.7268 81.473 9.96212C81.93 9.19742 82.5548 8.60058 83.3475 8.1716C84.1402 7.7333 85.0308 7.51415 86.0193 7.51415C86.9985 7.51415 87.8844 7.7333 88.6771 8.1716C89.4698 8.60058 90.0899 9.19742 90.5376 9.96212C90.9852 10.7175 91.209 11.5708 91.209 12.522C91.209 13.4732 90.9852 14.3312 90.5376 15.0959C90.0899 15.8513 89.4698 16.4481 88.6771 16.8864C87.8844 17.3154 86.9985 17.5299 86.0193 17.5299ZM86.0193 16.2849C86.7374 16.2849 87.3808 16.1217 87.9497 15.7953C88.5279 15.4689 88.9802 15.0213 89.3066 14.4524C89.6423 13.8742 89.8102 13.2308 89.8102 12.522C89.8102 11.8133 89.6423 11.1745 89.3066 10.6056C88.9802 10.0274 88.5279 9.57511 87.9497 9.24871C87.3808 8.92232 86.7374 8.75912 86.0193 8.75912C85.3012 8.75912 84.6484 8.92232 84.0609 9.24871C83.4827 9.57511 83.0258 10.0274 82.69 10.6056C82.3636 11.1745 82.2004 11.8133 82.2004 12.522C82.2004 13.2308 82.3636 13.8742 82.69 14.4524C83.0258 15.0213 83.4827 15.4689 84.0609 15.7953C84.6484 16.1217 85.3012 16.2849 86.0193 16.2849Z" fill="white"/>
</g>
</svg>
