<svg width="24" height="24" viewBox="0 0 24 24" fill="none" xmlns="http://www.w3.org/2000/svg">
<rect width="24" height="24" rx="8" fill="#F7F9FB"/>
<path d="M19.6128 4L13.2335 8.73803L14.4132 5.94266L19.6128 4Z" fill="#E2761B" stroke="#E2761B" stroke-width="0.0641141" stroke-linecap="round" stroke-linejoin="round"/>
<path d="M4.88603 4L11.2141 8.78291L10.0921 5.94266L4.88603 4ZM17.3177 14.9827L15.6187 17.5858L19.254 18.586L20.2991 15.0404L17.3177 14.9827ZM4.21283 15.0404L5.25148 18.586L8.88675 17.5858L7.18772 14.9827L4.21283 15.0404Z" fill="#E4761B" stroke="#E4761B" stroke-width="0.0641141" stroke-linecap="round" stroke-linejoin="round"/>
<path d="M8.68189 10.5847L7.66888 12.117L11.2785 12.2773L11.1503 8.3984L8.68189 10.5847ZM15.8178 10.5847L13.3173 8.35352L13.234 12.2773L16.8372 12.117L15.8178 10.5847ZM8.88705 17.5859L11.0541 16.5281L9.18198 15.0663L8.88705 17.5859ZM13.4456 16.5281L15.619 17.5859L15.3177 15.0663L13.4456 16.5281Z" fill="#E4761B" stroke="#E4761B" stroke-width="0.0641141" stroke-linecap="round" stroke-linejoin="round"/>
<path d="M15.6191 17.5857L13.4456 16.5278L13.6187 17.9448L13.5995 18.541L15.6191 17.5857ZM8.88708 17.5857L10.9067 18.541L10.8939 17.9448L11.0541 16.5278L8.88708 17.5857Z" fill="#D7C1B3" stroke="#D7C1B3" stroke-width="0.0641141" stroke-linecap="round" stroke-linejoin="round"/>
<path d="M10.9392 14.1297L9.13123 13.5976L10.4071 13.0142L10.9392 14.1297ZM13.5615 14.1297L14.0937 13.0142L15.3759 13.5976L13.5615 14.1297Z" fill="#233447" stroke="#233447" stroke-width="0.0641141" stroke-linecap="round" stroke-linejoin="round"/>
<path d="M8.88652 17.5856L9.19427 14.9826L7.1875 15.0403L8.88652 17.5856ZM15.3108 14.9826L15.6185 17.5856L17.3175 15.0403L15.3108 14.9826ZM16.8367 12.1167L13.2335 12.277L13.5669 14.1299L14.099 13.0143L15.3813 13.5977L16.8367 12.1167ZM9.13016 13.5977L10.4124 13.0143L10.9382 14.1299L11.278 12.277L7.66836 12.1167L9.13016 13.5977Z" fill="#CD6116" stroke="#CD6116" stroke-width="0.0641141" stroke-linecap="round" stroke-linejoin="round"/>
<path d="M7.66888 12.1167L9.18198 15.0659L9.13069 13.5977L7.66888 12.1167ZM15.3818 13.5977L15.3177 15.0659L16.8372 12.1167L15.3818 13.5977ZM11.2785 12.277L10.9387 14.1299L11.3619 16.3162L11.458 13.4374L11.2785 12.277ZM13.234 12.277L13.0609 13.431L13.1378 16.3162L13.5674 14.1299L13.234 12.277Z" fill="#E4751F" stroke="#E4751F" stroke-width="0.0641141" stroke-linecap="round" stroke-linejoin="round"/>
<path d="M13.5679 14.1298L13.1384 16.3161L13.4461 16.5277L15.3182 15.0659L15.3824 13.5977L13.5679 14.1298ZM9.13123 13.5977L9.18252 15.0659L11.0546 16.5277L11.3624 16.3161L10.9392 14.1298L9.13123 13.5977Z" fill="#F6851B" stroke="#F6851B" stroke-width="0.0641141" stroke-linecap="round" stroke-linejoin="round"/>
<path d="M13.5995 18.5412L13.6187 17.945L13.4584 17.8039H11.0413L10.8939 17.945L10.9067 18.5412L8.88708 17.5859L9.59234 18.163L11.0221 19.1567H13.4777L14.9138 18.163L15.6191 17.5859L13.5995 18.5412Z" fill="#C0AD9E" stroke="#C0AD9E" stroke-width="0.0641141" stroke-linecap="round" stroke-linejoin="round"/>
<path d="M13.4455 16.528L13.1377 16.3164H11.3618L11.054 16.528L10.8937 17.9449L11.0412 17.8039H13.4583L13.6186 17.9449L13.4455 16.528Z" fill="#161616" stroke="#161616" stroke-width="0.0641141" stroke-linecap="round" stroke-linejoin="round"/>
<path d="M19.8824 9.04578L20.4273 6.42992L19.6131 4L13.4453 8.57775L15.8175 10.5845L19.1707 11.5655L19.9144 10.6999L19.5939 10.4691L20.1068 10.0011L19.7093 9.69333L20.2222 9.30224L19.8824 9.04578ZM4.07825 6.42992L4.62322 9.04578L4.277 9.30224L4.78991 9.69333L4.39882 10.0011L4.91173 10.4691L4.59116 10.6999L5.32847 11.5655L8.68164 10.5845L11.0539 8.57775L4.88608 4L4.07825 6.42992Z" fill="#763D16" stroke="#763D16" stroke-width="0.0641141" stroke-linecap="round" stroke-linejoin="round"/>
<path d="M19.1706 11.5657L15.8175 10.5847L16.8369 12.1171L15.3174 15.0663L17.3177 15.0407H20.2991L19.1706 11.5657ZM8.68158 10.5847L5.32841 11.5657L4.21283 15.0407H7.18772L9.18167 15.0663L7.66858 12.1171L8.68158 10.5847ZM13.2337 12.2773L13.4453 8.57796L14.4198 5.94287H10.0921L11.0538 8.57796L11.2782 12.2773L11.3551 13.4442L11.3616 16.3165H13.1375L13.1503 13.4442L13.2337 12.2773Z" fill="#F6851B" stroke="#F6851B" stroke-width="0.0641141" stroke-linecap="round" stroke-linejoin="round"/>
</svg>
