<svg width="16" height="16" viewBox="0 0 16 16" fill="none" xmlns="http://www.w3.org/2000/svg">
<circle cx="8" cy="8" r="8" fill="#E1E1E1"/>
<path d="M7.09618 9.67828H8.18831V9.60573C8.20358 8.72745 8.45561 8.33413 9.10477 7.93317C9.78831 7.52076 10.2084 6.94033 10.2084 6.08115C10.2084 4.8401 9.26897 4 7.86754 4C6.58067 4 5.54964 4.75227 5.5 6.12697H6.66086C6.70668 5.31742 7.28329 4.96229 7.86754 4.96229C8.51671 4.96229 9.04368 5.39379 9.04368 6.06969C9.04368 6.63866 8.68854 7.03962 8.23413 7.3222C7.52387 7.75752 7.10382 8.18902 7.09618 9.60573V9.67828ZM7.67279 12C8.08902 12 8.43652 11.6601 8.43652 11.2363C8.43652 10.82 8.08902 10.4764 7.67279 10.4764C7.25274 10.4764 6.90907 10.82 6.90907 11.2363C6.90907 11.6601 7.25274 12 7.67279 12Z" fill="#737373"/>
</svg>
