<svg width="108" height="23" viewBox="0 0 108 23" fill="none" xmlns="http://www.w3.org/2000/svg">
<g opacity="0.6">
<path d="M12.1777 2.26246C12.8586 2.26246 13.4487 2.66646 13.7165 3.2475C13.9616 3.11132 14.2431 3.03415 14.5427 3.03415C15.4823 3.03415 16.2404 3.79222 16.2404 4.73186C16.2404 4.82264 16.2313 4.91343 16.2177 4.99968C16.7851 5.25388 22.3367 7.91393 22.1551 13.7061C21.9963 18.7266 16.885 20.6059 12.4364 20.6059C8.29656 20.6059 2.63601 19.5846 2.16392 13.5836C1.79169 8.83995 6.20392 5.61703 8.07413 4.9906C8.06051 4.90435 8.05597 4.8181 8.05597 4.73186C8.05597 3.79222 8.81404 3.03415 9.75368 3.03415C10.0714 3.03415 10.371 3.12039 10.6252 3.27473C10.8885 2.68008 11.4832 2.26246 12.1777 2.26246ZM12.1777 1.62695C11.4696 1.62695 10.8113 1.94925 10.371 2.48035C10.1713 2.42588 9.96249 2.39864 9.74914 2.39864C8.51898 2.39864 7.50671 3.35644 7.42047 4.5639C6.37188 5.02691 4.96015 5.99379 3.79808 7.32382C2.64055 8.6493 1.30598 10.8191 1.52841 13.6335C1.65097 15.1632 2.10037 16.4887 2.86297 17.5782C3.53934 18.5405 4.47444 19.3258 5.63651 19.9114C7.38415 20.792 9.67198 21.2414 12.4364 21.2414C15.0102 21.2414 17.4252 20.6513 19.2273 19.5846C21.4788 18.25 22.7089 16.2254 22.7906 13.7243C22.836 12.2944 22.5546 10.928 21.9599 9.66611C21.4788 8.64476 20.7888 7.6915 19.9172 6.82449C18.7461 5.66696 17.5159 4.94521 16.8759 4.61383C16.8123 3.38368 15.791 2.39864 14.5472 2.39864C14.352 2.39864 14.1614 2.42134 13.9753 2.47127C13.5349 1.94471 12.8767 1.62695 12.1777 1.62695Z" fill="#838383"/>
<path d="M22.1527 13.7065C21.9938 18.727 16.8825 20.6063 12.434 20.6063C8.74348 20.6063 3.83646 19.7937 2.48828 15.3588C4.32217 18.6634 8.58915 19.3126 11.8938 19.3126C16.3378 19.3126 21.4536 17.4333 21.6125 12.4128C21.6443 11.3869 21.4945 10.4563 21.2266 9.62109C21.8213 10.7559 22.2026 12.1132 22.1527 13.7065Z" fill="#DDDDDD"/>
<path d="M21.6093 12.413C21.4504 17.4335 16.3391 19.3128 11.8906 19.3128C8.59049 19.3128 4.32352 18.6637 2.48963 15.359C2.32621 14.8234 2.21273 14.2333 2.1628 13.5887C1.79057 8.84507 6.2028 5.62215 8.07301 4.99572C8.05939 4.90947 8.05485 4.82322 8.05485 4.73698C8.05485 3.79733 8.81746 3.03926 9.75256 3.03926C10.0703 3.03926 10.3699 3.12551 10.6241 3.27985C10.8874 2.6852 11.482 2.26758 12.1766 2.26758C12.8575 2.26758 13.4476 2.67158 13.7199 3.25261C13.9651 3.11643 14.2465 3.03926 14.5461 3.03926C14.991 3.03926 15.395 3.21176 15.6991 3.48866C15.8171 3.60214 15.9215 3.72924 16.0078 3.86996C16.1576 4.12417 16.2438 4.41922 16.2438 4.73698C16.2438 4.82776 16.2347 4.91855 16.2211 5.0048C16.6297 5.19091 19.6619 6.63896 21.228 9.62584C21.4958 10.4565 21.6411 11.3826 21.6093 12.413Z" fill="#FBF7EC"/>
<path d="M10.4076 5.25858C10.4076 5.26312 10.4076 5.26766 10.4076 5.2722C10.3395 5.93041 9.80385 6.45243 9.14565 6.5069C8.96861 6.52052 8.79612 6.50236 8.63724 6.45697C8.48744 6.41157 8.38304 6.60677 8.51014 6.70209C8.77342 6.90182 9.10933 7.01077 9.47248 6.97899C10.1488 6.91998 10.689 6.36164 10.7299 5.68528C10.739 5.53094 10.7208 5.37661 10.6845 5.23589C10.6436 5.08155 10.4212 5.10425 10.4076 5.25858Z" fill="#3B3B3B"/>
<path d="M14.127 5.41844C14.1316 5.41844 14.1361 5.41844 14.1406 5.42298C14.7308 5.56824 15.1393 6.14927 15.1075 6.78932C15.0984 6.96181 15.0576 7.12523 14.994 7.27503C14.935 7.41575 15.0984 7.53831 15.1983 7.42936C15.4116 7.19786 15.5569 6.88464 15.5705 6.53058C15.6023 5.86783 15.162 5.28226 14.5492 5.16424C14.4085 5.137 14.2677 5.13246 14.1316 5.15516C13.9954 5.17331 13.9863 5.38666 14.127 5.41844Z" fill="#3B3B3B"/>
<path d="M12.4581 5.81272C12.4627 5.81726 12.4627 5.8218 12.4672 5.82634C12.7532 6.33474 12.6306 6.98387 12.1858 7.35609C12.0632 7.45596 11.9316 7.52858 11.7908 7.57852C11.6592 7.62391 11.6864 7.81456 11.8226 7.8191C12.1131 7.82818 12.4127 7.73739 12.6578 7.52858C13.1163 7.14274 13.2207 6.46638 12.903 5.95344C12.8303 5.83541 12.7396 5.73555 12.6397 5.65384C12.5398 5.56305 12.39 5.69016 12.4581 5.81272Z" fill="#3B3B3B"/>
<path d="M8.44535 13.0743C8.89411 13.0743 9.25789 12.7105 9.25789 12.2618C9.25789 11.813 8.89411 11.4492 8.44535 11.4492C7.9966 11.4492 7.63281 11.813 7.63281 12.2618C7.63281 12.7105 7.9966 13.0743 8.44535 13.0743Z" fill="#3B3B3B"/>
<path d="M15.9258 13.0743C16.3746 13.0743 16.7384 12.7105 16.7384 12.2618C16.7384 11.813 16.3746 11.4492 15.9258 11.4492C15.4771 11.4492 15.1133 11.813 15.1133 12.2618C15.1133 12.7105 15.4771 13.0743 15.9258 13.0743Z" fill="#3B3B3B"/>
<path d="M14.1946 13.3111C14.0902 13.5789 13.9177 13.9012 13.6272 14.1645C13.3049 14.4595 12.8464 14.682 12.1791 14.682C11.5118 14.682 11.0534 14.4595 10.7311 14.1645C10.4406 13.9012 10.2681 13.5789 10.1637 13.3111C10.0638 13.0569 10.2545 12.7891 10.5223 12.7891H13.8314C14.1038 12.7891 14.2945 13.0614 14.1946 13.3111Z" fill="#666666"/>
<path d="M13.6266 14.1671C13.3043 14.4622 12.8458 14.6846 12.1785 14.6846C11.5112 14.6846 11.0528 14.4622 10.7305 14.1671C11.1118 13.813 11.6202 13.5997 12.1785 13.5997C12.7369 13.5951 13.2453 13.813 13.6266 14.1671Z" fill="#C0C0C0"/>
<path d="M32.4743 17.1621H36.9297C39.4502 17.1621 40.6863 15.8776 40.6863 14.1632C40.6863 12.4971 39.504 11.519 38.3324 11.4599V11.3524C39.4072 11.0998 40.2564 10.3474 40.2564 9.00918C40.2564 7.36999 39.074 6.15538 36.6878 6.15538H32.4743V17.1621ZM34.4682 15.4961V12.2714H36.6663C37.897 12.2714 38.6602 13.0238 38.6602 14.0073C38.6602 14.8834 38.0583 15.4961 36.6126 15.4961H34.4682ZM34.4682 10.8365V7.79994H36.4836C37.6552 7.79994 38.2625 8.418 38.2625 9.26715C38.2625 10.2345 37.4778 10.8365 36.4406 10.8365H34.4682ZM44.0225 17.3287C45.3177 17.3287 46.0916 16.7214 46.4463 16.0281H46.5108V17.1621H48.3811V11.6372C48.3811 9.45525 46.6022 8.79958 45.0275 8.79958C43.2916 8.79958 41.9587 9.57349 41.5288 11.0783L43.3453 11.3363C43.5388 10.772 44.087 10.2883 45.0383 10.2883C45.9411 10.2883 46.4356 10.7505 46.4356 11.562V11.5943C46.4356 12.1532 45.8498 12.1801 44.3933 12.3359C42.7918 12.5079 41.2601 12.9862 41.2601 14.8458C41.2601 16.4688 42.4478 17.3287 44.0225 17.3287ZM44.5277 15.8991C43.7162 15.8991 43.1357 15.5283 43.1357 14.8135C43.1357 14.0665 43.786 13.7548 44.6567 13.6311C45.1672 13.5613 46.1884 13.4323 46.441 13.2281V14.2008C46.441 15.1198 45.6993 15.8991 44.5277 15.8991ZM53.2503 17.3233C55.6688 17.3233 57.2058 15.6197 57.2058 13.0668C57.2058 10.5086 55.6688 8.79958 53.2503 8.79958C50.8318 8.79958 49.2948 10.5086 49.2948 13.0668C49.2948 15.6197 50.8318 17.3233 53.2503 17.3233ZM53.2611 15.7648C51.9228 15.7648 51.2672 14.5717 51.2672 13.0615C51.2672 11.5513 51.9228 10.342 53.2611 10.342C54.5778 10.342 55.2334 11.5513 55.2334 13.0615C55.2334 14.5717 54.5778 15.7648 53.2611 15.7648ZM64.2369 9.18116H66.1555C66.1179 7.32162 64.5325 6.0049 62.1892 6.0049C59.8783 6.0049 58.1423 7.3055 58.1477 9.25102C58.1477 10.8311 59.2709 11.7394 61.0821 12.2069L62.3343 12.5294C63.5221 12.8304 64.3067 13.2012 64.3121 14.0557C64.3067 14.9962 63.4146 15.625 62.114 15.625C60.8671 15.625 59.8998 15.0661 59.8191 13.9106H57.8575C57.9381 16.098 59.5665 17.3287 62.1301 17.3287C64.7689 17.3287 66.3006 16.012 66.306 14.0718C66.3006 12.1639 64.7259 11.2933 63.0706 10.901L62.0388 10.643C61.1359 10.428 60.1577 10.0464 60.1685 9.12741C60.1738 8.29976 60.9155 7.69245 62.1624 7.69245C63.3501 7.69245 64.1348 8.24601 64.2369 9.18116ZM69.0134 17.1621H71.0449L72.5927 11.5835H72.7056L74.2534 17.1621H76.2795L78.6174 8.90706H76.6288L75.1993 14.6791H75.1186L73.6353 8.90706H71.6737L70.1903 14.7114H70.1151L68.664 8.90706H66.6809L69.0134 17.1621ZM81.6633 17.3287C82.9585 17.3287 83.7324 16.7214 84.0871 16.0281H84.1516V17.1621H86.0219V11.6372C86.0219 9.45525 84.243 8.79958 82.6683 8.79958C80.9324 8.79958 79.5995 9.57349 79.1696 11.0783L80.9861 11.3363C81.1796 10.772 81.7278 10.2883 82.6791 10.2883C83.582 10.2883 84.0764 10.7505 84.0764 11.562V11.5943C84.0764 12.1532 83.4906 12.1801 82.0341 12.3359C80.4326 12.5079 78.9009 12.9862 78.9009 14.8458C78.9009 16.4688 80.0886 17.3287 81.6633 17.3287ZM82.1685 15.8991C81.357 15.8991 80.7765 15.5283 80.7765 14.8135C80.7765 14.0665 81.4268 13.7548 82.2975 13.6311C82.808 13.5613 83.8292 13.4323 84.0818 13.2281V14.2008C84.0818 15.1198 83.3401 15.8991 82.1685 15.8991ZM87.2903 20.2578H89.2358V15.8615H89.3164C89.6228 16.4634 90.2623 17.3072 91.6811 17.3072C93.6267 17.3072 95.0831 15.7648 95.0831 13.0453C95.0831 10.2937 93.5837 8.79958 91.6758 8.79958C90.2193 8.79958 89.612 9.6756 89.3164 10.2722H89.2036V8.90706H87.2903V20.2578ZM89.1982 13.0346C89.1982 11.433 89.8861 10.3958 91.1383 10.3958C92.4336 10.3958 93.1 11.4975 93.1 13.0346C93.1 14.5824 92.4228 15.711 91.1383 15.711C89.8968 15.711 89.1982 14.6362 89.1982 13.0346Z" fill="white"/>
</g>
</svg>
