<svg width="88" height="22" viewBox="0 0 88 22" fill="none" xmlns="http://www.w3.org/2000/svg">
<g opacity="0.6">
<g clip-path="url(#clip0)">
<path d="M8.3927 4.88425C8.17209 4.85157 8.15984 4.8434 8.26606 4.83114C8.46624 4.79846 8.93198 4.8434 9.25881 4.91694C10.0187 5.09669 10.701 5.55834 11.4282 6.37134L11.6161 6.59195L11.8898 6.5511C13.0582 6.36317 14.2593 6.51024 15.2643 6.97189C15.5381 7.09854 15.9711 7.35184 16.0242 7.41312C16.0447 7.43354 16.0773 7.57245 16.0978 7.70726C16.1713 8.2016 16.1386 8.57337 15.9834 8.85526C15.8976 9.01459 15.8976 9.05545 15.9507 9.19435C15.9916 9.30057 16.1182 9.37411 16.2367 9.37411C16.49 9.37411 16.7514 8.97374 16.8781 8.41404L16.9312 8.19343L17.0252 8.29965C17.5644 8.9002 17.9852 9.73362 18.0465 10.3219L18.0669 10.4813L17.973 10.3423C17.8136 10.1013 17.6666 9.94198 17.4664 9.80307C17.1069 9.56204 16.7269 9.4885 15.726 9.43539C14.819 9.38228 14.3043 9.30874 13.7977 9.14124C12.9316 8.85526 12.4904 8.48758 11.469 7.12714C11.0155 6.52658 10.7296 6.19975 10.4477 5.92603C9.82668 5.32548 9.20161 5.0109 8.3927 4.88425Z" fill="white"/>
<path d="M16.2502 6.22148C16.2706 5.82111 16.3238 5.55556 16.4381 5.31452C16.479 5.22056 16.5239 5.13477 16.5321 5.13477C16.5444 5.13477 16.5199 5.2083 16.4913 5.2941C16.4055 5.52696 16.3973 5.8538 16.4504 6.22148C16.5239 6.69539 16.5566 6.76076 17.0632 7.27552C17.2961 7.51656 17.5698 7.82296 17.676 7.94961L17.8558 8.18248L17.676 8.01498C17.4554 7.80253 16.9488 7.40217 16.8344 7.34905C16.7609 7.3082 16.7486 7.3082 16.6955 7.36131C16.6547 7.40216 16.6424 7.46753 16.6424 7.77394C16.6302 8.24784 16.5689 8.54199 16.4095 8.8484C16.3238 9.00773 16.3156 8.97505 16.3891 8.79529C16.4422 8.65638 16.4504 8.5951 16.4504 8.14162C16.4504 7.22649 16.3442 7.0018 15.7028 6.63411C15.5434 6.54014 15.2697 6.40124 15.1145 6.3277C14.947 6.25417 14.8203 6.1888 14.8285 6.1888C14.8489 6.16837 15.4699 6.34813 15.715 6.45027C16.0827 6.59734 16.1481 6.6096 16.1889 6.59734C16.2175 6.57283 16.238 6.48703 16.2502 6.22148Z" fill="white"/>
<path d="M8.82847 7.79465C8.38724 7.18184 8.10126 6.23403 8.16254 5.52725L8.18297 5.30664L8.28919 5.32707C8.47712 5.35975 8.80395 5.4864 8.96328 5.58036C9.38408 5.83366 9.5761 6.18092 9.75177 7.04702C9.80488 7.30032 9.87842 7.59446 9.9111 7.68843C9.96421 7.84776 10.1644 8.21545 10.3319 8.44831C10.4463 8.61581 10.3728 8.70161 10.1113 8.68118C9.71091 8.63624 9.17573 8.26856 8.82847 7.79465Z" fill="white"/>
<path d="M15.7078 12.3794C13.6201 11.5378 12.8848 10.8106 12.8848 9.57683C12.8848 9.39707 12.897 9.25 12.897 9.25C12.9093 9.25 12.9828 9.31128 13.0768 9.3889C13.4976 9.72799 13.9715 9.87507 15.2911 10.063C16.0591 10.1774 16.5044 10.2632 16.9048 10.4021C18.1794 10.8229 18.972 11.689 19.1599 12.8574C19.213 13.1965 19.1804 13.8379 19.0987 14.1729C19.0251 14.4344 18.8127 14.9205 18.7596 14.9328C18.7473 14.9328 18.7269 14.8797 18.7269 14.7939C18.7065 14.3527 18.4858 13.9278 18.1141 13.601C17.6688 13.2251 17.1009 12.9391 15.7078 12.3794Z" fill="white"/>
<path d="M14.2365 12.7256C14.2161 12.5662 14.163 12.366 14.1303 12.2843L14.0772 12.125L14.1711 12.2394C14.31 12.3987 14.4122 12.5866 14.5102 12.8522C14.5838 13.0524 14.5838 13.1137 14.5838 13.4405C14.5838 13.7551 14.5715 13.8286 14.5102 14.0084C14.404 14.2943 14.2774 14.4945 14.069 14.7151C13.6891 15.1033 13.1947 15.3157 12.488 15.4097C12.3613 15.4219 12.0018 15.4505 11.6872 15.4709C10.8987 15.5118 10.3717 15.5976 9.89372 15.7651C9.83244 15.7855 9.76707 15.8059 9.75482 15.7978C9.73439 15.7773 10.0612 15.5853 10.3227 15.4587C10.6904 15.2789 11.0703 15.185 11.9037 15.0379C12.3164 14.9766 12.7372 14.8908 12.8434 14.85C13.8893 14.5272 14.404 13.7183 14.2365 12.7256Z" fill="white"/>
<path d="M15.1932 14.4252C14.9195 13.8247 14.8541 13.2568 15.0053 12.7175C15.0257 12.6644 15.0461 12.6113 15.0666 12.6113C15.087 12.6113 15.1524 12.644 15.2136 12.6849C15.3403 12.7707 15.6017 12.9177 16.2799 13.2854C17.1338 13.7512 17.6199 14.1066 17.9549 14.5192C18.2491 14.8787 18.4288 15.2873 18.5146 15.7939C18.5677 16.0798 18.5351 16.7621 18.4615 17.0481C18.2287 17.9428 17.7016 18.6618 16.9336 19.0703C16.8192 19.1316 16.7211 19.1766 16.713 19.1766C16.7048 19.1766 16.7457 19.0703 16.8069 18.9437C17.0602 18.4044 17.0929 17.8897 16.9009 17.3095C16.7865 16.95 16.5414 16.5211 16.0593 15.7898C15.4751 14.9523 15.3403 14.7276 15.1932 14.4252Z" fill="white"/>
<path d="M7.33975 17.6471C8.12006 16.9934 9.08013 16.5318 9.96258 16.3806C10.3425 16.3193 10.9758 16.3398 11.323 16.4337C11.8827 16.5808 12.3893 16.8995 12.6508 17.2876C12.9041 17.6675 13.0185 17.9943 13.1369 18.7215C13.1778 19.0075 13.2309 19.3017 13.2432 19.3629C13.3289 19.7429 13.4964 20.037 13.7089 20.1964C14.0357 20.4374 14.6036 20.4497 15.1633 20.2372C15.2573 20.2045 15.3431 20.1759 15.3431 20.1841C15.3635 20.2045 15.0816 20.3965 14.8896 20.4905C14.6281 20.6294 14.4157 20.6703 14.1297 20.6703C13.6231 20.6703 13.19 20.4088 12.8428 19.8818C12.7692 19.7756 12.6222 19.4692 12.4955 19.1873C12.1278 18.3334 11.9358 18.0801 11.5028 17.7942C11.1228 17.5531 10.6367 17.5 10.269 17.6798C9.78282 17.9126 9.65617 18.5336 9.99526 18.9136C10.1342 19.0729 10.3834 19.1995 10.5958 19.2281C10.9839 19.2812 11.323 18.9748 11.323 18.5867C11.323 18.3334 11.2291 18.1864 10.9758 18.072C10.6367 17.9249 10.269 18.0924 10.2812 18.4192C10.2812 18.5581 10.3425 18.6398 10.4814 18.7052C10.5672 18.7461 10.5672 18.7461 10.5019 18.7379C10.1954 18.6766 10.1219 18.2967 10.3629 18.0515C10.6571 17.7574 11.2781 17.884 11.4905 18.2926C11.5763 18.4601 11.5845 18.7992 11.5109 19.0075C11.3312 19.4733 10.8246 19.7143 10.3098 19.5754C9.96258 19.4814 9.8155 19.3875 9.39471 18.9544C8.65525 18.1945 8.37336 18.0475 7.31932 17.8881L7.11914 17.8554L7.33975 17.6471Z" fill="white"/>
<path fill-rule="evenodd" clip-rule="evenodd" d="M1.79959 0.689808C4.25491 3.67215 8.03799 8.30908 8.23001 8.56237C8.38934 8.77481 8.32397 8.975 8.06251 9.12207C7.91543 9.20787 7.60903 9.28958 7.46195 9.28958C7.29445 9.28958 7.09426 9.20378 6.95536 9.06896C6.8614 8.975 6.44877 8.37445 5.52139 6.92821C4.81461 5.82107 4.21406 4.90594 4.20589 4.89368C4.16503 4.87326 4.16503 4.87326 5.44785 7.16925C6.26084 8.6114 6.52231 9.13024 6.52231 9.19153C6.52231 9.33043 6.48146 9.40397 6.30987 9.5919C6.02389 9.90647 5.89724 10.266 5.80328 11.0136C5.69706 11.847 5.41517 12.4353 4.60217 13.4363C4.12827 14.0246 4.05473 14.1308 3.93625 14.3759C3.78918 14.67 3.74832 14.8416 3.72381 15.2175C3.70338 15.6179 3.74424 15.8712 3.86271 16.2511C3.96893 16.5902 4.08333 16.8108 4.3693 17.2438C4.61034 17.6238 4.75742 17.9098 4.75742 18.0119C4.75742 18.0977 4.77784 18.0977 5.15779 18.0119C6.06474 17.7995 6.81237 17.444 7.225 16.9987C7.47829 16.725 7.53957 16.5779 7.53957 16.198C7.53957 15.9569 7.52732 15.9038 7.46604 15.7568C7.35982 15.5239 7.15963 15.336 6.72658 15.0418C6.15871 14.6537 5.91358 14.335 5.8523 13.9142C5.79919 13.5547 5.86456 13.3137 6.17914 12.6478C6.50597 11.9614 6.59176 11.6795 6.64487 10.9809C6.67755 10.5397 6.73066 10.36 6.85731 10.221C6.99622 10.074 7.11061 10.0209 7.43744 9.98001C7.97671 9.90647 8.32397 9.76757 8.59769 9.5061C8.83873 9.28549 8.94495 9.06488 8.95721 8.73805L8.96946 8.49701L8.83056 8.34993C8.33214 7.78206 1.47276 0.236328 1.44007 0.236328C1.42782 0.236328 1.5994 0.436513 1.79959 0.689808ZM5.03522 15.6791C5.14962 15.479 5.08833 15.2257 4.89632 15.099C4.71656 14.9846 4.44284 15.0377 4.44284 15.193C4.44284 15.2338 4.46327 15.2788 4.52863 15.2992C4.6226 15.3523 4.63485 15.4054 4.56132 15.5198C4.48778 15.6342 4.48778 15.7404 4.58174 15.814C4.72882 15.9324 4.929 15.8671 5.03522 15.6791Z" fill="white"/>
<path fill-rule="evenodd" clip-rule="evenodd" d="M9.3015 10.1363C9.04821 10.2099 8.80717 10.4836 8.73363 10.7573C8.69278 10.9248 8.7132 11.2312 8.78674 11.3252C8.90113 11.4723 9.00735 11.5131 9.3015 11.5131C9.88162 11.5131 10.376 11.2598 10.4291 10.9534C10.4822 10.7001 10.2616 10.3529 9.95516 10.1935C9.79583 10.1118 9.469 10.0832 9.3015 10.1363ZM9.97559 10.6634C10.0614 10.5367 10.0287 10.4019 9.86937 10.3038C9.58339 10.1241 9.15443 10.2712 9.15443 10.5449C9.15443 10.6838 9.37504 10.8309 9.58748 10.8309C9.72229 10.8309 9.91022 10.7451 9.97559 10.6634Z" fill="white"/>
</g>
<path d="M36.4068 7.06749V14.0918C36.4068 15.473 35.4447 16.4619 33.9345 16.4619C32.419 16.4619 31.4623 15.473 31.4623 14.0918V7.06749H29.4684V14.2584C29.4684 16.6231 31.242 18.2408 33.9345 18.2408C36.6164 18.2408 38.4007 16.6231 38.4007 14.2584V7.06749H36.4068ZM41.7395 13.2373C41.7395 12.0442 42.4597 11.3562 43.4862 11.3562C44.4912 11.3562 45.0931 12.0173 45.0931 13.119V18.0742H47.0386V12.8181C47.044 10.8403 45.9154 9.71169 44.2117 9.71169C42.9756 9.71169 42.1264 10.3029 41.7502 11.2219H41.6535V9.81917H39.794V18.0742H41.7395V13.2373ZM48.3285 18.0742H50.274V9.81917H48.3285V18.0742ZM49.3066 8.64756C49.9247 8.64756 50.4299 8.17461 50.4299 7.59418C50.4299 7.00837 49.9247 6.53543 49.3066 6.53543C48.6832 6.53543 48.178 7.00837 48.178 7.59418C48.178 8.17461 48.6832 8.64756 49.3066 8.64756ZM58.1112 12.0012C57.8425 10.6038 56.7246 9.71169 54.7898 9.71169C52.8013 9.71169 51.447 10.6898 51.4523 12.2161C51.447 13.42 52.1886 14.2154 53.7741 14.5433L55.1822 14.8388C55.9399 15.0054 56.2946 15.3118 56.2946 15.7794C56.2946 16.3437 55.682 16.7682 54.7576 16.7682C53.8654 16.7682 53.285 16.3813 53.1184 15.6396L51.2212 15.8224C51.4631 17.3379 52.7368 18.2355 54.763 18.2355C56.8267 18.2355 58.2832 17.1659 58.2885 15.602C58.2832 14.425 57.5254 13.7048 55.9668 13.3663L54.5587 13.0653C53.7203 12.8772 53.3871 12.587 53.3925 12.1087C53.3871 11.5497 54.0052 11.1628 54.8167 11.1628C55.7142 11.1628 56.1872 11.6518 56.3376 12.1946L58.1112 12.0012ZM60.9086 18.0742H62.9401L64.4879 12.4956H64.6008L66.1486 18.0742H68.1747L70.5126 9.81917H68.524L67.0945 15.5913H67.0138L65.5305 9.81917H63.5689L62.0855 15.6235H62.0103L60.5592 9.81917H58.5761L60.9086 18.0742ZM73.5585 18.2408C74.8537 18.2408 75.6276 17.6335 75.9823 16.9402H76.0468V18.0742H77.9171V12.5494C77.9171 10.3674 76.1382 9.71169 74.5635 9.71169C72.8276 9.71169 71.4947 10.4856 71.0648 11.9904L72.8813 12.2484C73.0748 11.6841 73.623 11.2004 74.5743 11.2004C75.4772 11.2004 75.9716 11.6626 75.9716 12.4741V12.5064C75.9716 13.0653 75.3858 13.0922 73.9293 13.248C72.3278 13.42 70.7961 13.8983 70.7961 15.7579C70.7961 17.3809 71.9838 18.2408 73.5585 18.2408ZM74.0637 16.8112C73.2522 16.8112 72.6717 16.4404 72.6717 15.7256C72.6717 14.9786 73.322 14.6669 74.1927 14.5433C74.7032 14.4734 75.7244 14.3444 75.977 14.1402V15.1129C75.977 16.032 75.2353 16.8112 74.0637 16.8112ZM79.1855 21.1699H81.131V16.7736H81.2116C81.518 17.3755 82.1575 18.2193 83.5763 18.2193C85.5219 18.2193 86.9783 16.6769 86.9783 13.9574C86.9783 11.2058 85.4789 9.71169 83.571 9.71169C82.1145 9.71169 81.5072 10.5877 81.2116 11.1843H81.0988V9.81917H79.1855V21.1699ZM81.0934 13.9467C81.0934 12.3451 81.7813 11.3079 83.0335 11.3079C84.3288 11.3079 84.9952 12.4096 84.9952 13.9467C84.9952 15.4945 84.318 16.6231 83.0335 16.6231C81.792 16.6231 81.0934 15.5483 81.0934 13.9467Z" fill="white"/>
</g>
<defs>
<clipPath id="clip0">
<rect width="20.427" height="20.427" fill="white" transform="translate(0.09375 0.236328)"/>
</clipPath>
</defs>
</svg>
