<svg width="106" height="21" viewBox="0 0 106 21" fill="none" xmlns="http://www.w3.org/2000/svg">
<g opacity="0.6">
<path fill-rule="evenodd" clip-rule="evenodd" d="M20.9574 13.4078L16.9675 18.9112C16.3484 19.8055 15.1101 20.2183 13.5279 20.0807C11.4641 19.9431 8.78125 18.8424 6.23594 16.985C3.62185 15.1276 1.76446 12.9263 0.938956 11.0689C0.319827 9.62428 0.319827 8.38603 0.938956 7.49173L4.92889 1.98837C5.54802 1.09407 6.78628 0.681318 8.3685 0.818902C10.4323 0.956486 13.1151 2.05716 15.6605 3.91454C18.2058 5.77193 20.1319 7.97327 20.9574 9.83066C21.5766 11.2753 21.5766 12.5135 20.9574 13.4078ZM6.02957 2.74508C6.44232 2.19474 7.26782 2.05716 8.29971 2.12595C10.1571 2.26353 12.5648 3.29542 14.9037 4.94642C17.2427 6.59743 19.0313 8.5924 19.7192 10.3122C20.1319 11.2753 20.2695 12.032 19.8568 12.6511L20.4071 12.9951L19.8568 12.6511L15.8668 18.1545C15.4541 18.7048 14.6286 18.8424 13.6655 18.7736C11.8081 18.636 9.33159 17.6042 6.99266 15.9532C4.65373 14.3021 2.86513 12.3072 2.17721 10.5874C1.76446 9.62428 1.62688 8.86757 2.03963 8.24844L6.02957 2.74508Z" fill="white"/>
<path fill-rule="evenodd" clip-rule="evenodd" d="M5.47894 2.53976C6.78599 0.751163 11.1887 1.64546 15.2474 4.60352C19.3749 7.56157 21.6451 11.4139 20.338 13.2025L16.3481 18.7059C15.041 20.4945 10.6383 19.6002 6.51082 16.6421C2.3833 13.6841 0.113159 9.83171 1.42021 8.04312L5.47894 2.53976Z" fill="white"/>
<path fill-rule="evenodd" clip-rule="evenodd" d="M5.20382 2.19418C5.75416 1.36867 6.92363 1.02471 8.29947 1.16229C10.2944 1.29988 12.9085 2.40055 15.4538 4.18914C17.9991 5.97774 19.8565 8.11029 20.6132 9.96768C21.1636 11.2747 21.2324 12.4442 20.6132 13.2697L16.6921 18.7731C16.1418 19.5986 14.9723 19.9425 13.5965 19.8049C11.6015 19.6674 8.98739 18.5667 6.44208 16.7781C3.89678 14.9895 2.03939 12.8569 1.28268 10.9996C0.732342 9.69251 0.66355 8.52304 1.28268 7.69754L5.20382 2.19418ZM20.1317 12.8569C20.6132 12.2378 20.4757 11.2747 20.0629 10.2428C19.3062 8.52304 17.5176 6.45928 15.1099 4.73948C12.7022 3.01968 10.2256 1.9878 8.29947 1.85022C7.13 1.78142 6.23571 1.9878 5.75416 2.60693V2.67572C5.34141 3.22606 5.4102 4.18914 5.89175 5.22103C6.64846 6.94083 8.43705 9.00459 10.8448 10.7244C13.2525 12.4442 15.729 13.4761 17.6552 13.6137C18.7559 13.6824 19.6502 13.4761 20.1317 12.8569ZM13.9404 6.25291C15.1787 7.07841 16.073 8.11029 16.4169 9.00459C16.6233 9.48613 16.6921 9.89888 16.4857 10.2428C16.2793 10.518 15.8666 10.6556 15.3163 10.5868C14.3532 10.518 13.1149 9.96768 11.8767 9.14217C10.6384 8.31667 9.7441 7.28479 9.40014 6.39049C9.19376 5.90895 9.12497 5.49619 9.33135 5.15223C9.53772 4.87707 9.95048 4.73948 10.5008 4.80827C11.5327 4.87707 12.7709 5.4274 13.9404 6.25291Z" fill="#0E0F23"/>
<mask id="mask0" style="mask-type:alpha" maskUnits="userSpaceOnUse" x="0" y="1" width="22" height="19">
<path fill-rule="evenodd" clip-rule="evenodd" d="M5.20187 2.19222C5.75221 1.36672 6.92167 1.02276 8.29751 1.16034C10.2925 1.29793 12.9066 2.3986 15.4519 4.18719C17.9972 5.97578 19.8546 8.10834 20.6113 9.96572C21.1616 11.2728 21.2304 12.4422 20.6113 13.2677L16.6901 18.7711C16.1398 19.5966 14.9703 19.9406 13.5945 19.803C11.5995 19.6654 8.98543 18.5647 6.44013 16.7761C3.89482 14.9875 2.03744 12.855 1.28072 10.9976C0.730388 9.69056 0.661596 8.52109 1.28072 7.69559L5.20187 2.19222ZM20.1297 12.855C20.6113 12.2359 20.4737 11.2728 20.061 10.2409C19.3042 8.52109 17.5156 6.45733 15.1079 4.73753C12.7002 3.01773 10.2237 1.98585 8.29751 1.84826C7.12805 1.77947 6.23375 1.98585 5.75221 2.60497V2.67377C5.33946 3.2241 5.40825 4.18719 5.88979 5.21907C6.6465 6.93887 8.4351 9.00263 10.8428 10.7224C13.2505 12.4422 15.7271 13.4741 17.6532 13.6117C18.7539 13.6805 19.6482 13.4741 20.1297 12.855ZM13.9385 6.25095C15.1767 7.07646 16.071 8.10834 16.415 9.00263C16.6214 9.48418 16.6901 9.89693 16.4838 10.2409C16.2774 10.5161 15.8646 10.6536 15.3143 10.5849C14.3512 10.5161 13.113 9.96572 11.8747 9.14022C10.6364 8.31471 9.74215 7.28283 9.39819 6.38854C9.19181 5.90699 9.12302 5.49424 9.32939 5.15028C9.53577 4.87511 9.94852 4.73753 10.4989 4.80632C11.5307 4.87511 12.769 5.42545 13.9385 6.25095Z" fill="white"/>
</mask>
<g mask="url(#mask0)">
<path fill-rule="evenodd" clip-rule="evenodd" d="M-0.0234375 12.9953C0.114147 12.9953 0.251731 13.2705 0.320523 13.3392C0.664483 13.6144 1.00844 13.8208 1.3524 14.0272C2.38428 14.6463 3.41616 14.9903 4.44805 14.7839C6.09905 14.4399 7.54369 11.6194 9.1947 11.9634C10.089 12.1698 10.7769 13.4768 11.6024 14.3711C12.3591 15.2654 13.1846 15.6094 14.0789 15.4718C16.6242 14.9903 17.5873 9.96844 20.1326 10.2436C22.2652 10.45 21.4397 13.0641 23.5034 13.9584C23.5034 13.9584 28.4565 9.62448 28.5253 8.93656C28.6628 6.04729 25.9112 -27.8672 26.0487 -27.8672L1.55878 -18.9242L-0.0234375 12.9953Z" fill="url(#paint0_linear)"/>
</g>
<mask id="mask1" style="mask-type:alpha" maskUnits="userSpaceOnUse" x="0" y="0" width="22" height="20">
<path fill-rule="evenodd" clip-rule="evenodd" d="M5.16086 1.88168C5.71119 1.05617 6.88066 0.712211 8.2565 0.849795C10.2515 0.987379 12.8656 2.08805 15.4109 3.87664C17.9562 5.66524 19.8136 7.79779 20.5703 9.65518C21.1206 10.9622 21.1894 12.1317 20.5703 12.9572L16.6491 18.4606C16.0988 19.2861 14.9293 19.63 13.5535 19.4924C11.5585 19.3549 8.94442 18.2542 6.39911 16.4656C3.85381 14.677 1.99642 12.5444 1.23971 10.6871C0.689373 9.38001 0.620581 8.21054 1.23971 7.38504L5.16086 1.88168ZM20.0887 12.5444C20.5703 11.9253 20.4327 10.9622 20.0199 9.93034C19.2632 8.21054 17.4746 6.14678 15.0669 4.42698C12.6592 2.70718 10.1827 1.6753 8.2565 1.53772C7.08703 1.46892 6.19274 1.6753 5.71119 2.29443V2.36322C5.29844 2.91356 5.36723 3.87664 5.84878 4.90853C6.60549 6.62833 8.39408 8.69209 10.8018 10.4119C13.2095 12.1317 15.686 13.1636 17.6122 13.3012C18.7129 13.3699 19.6072 13.1636 20.0887 12.5444ZM13.8974 5.94041C15.1357 6.76591 16.03 7.79779 16.374 8.69209C16.5803 9.17363 16.6491 9.58638 16.4428 9.93034C16.2364 10.2055 15.8236 10.3431 15.2733 10.2743C14.3102 10.2055 13.0719 9.65518 11.8337 8.82967C10.5954 8.00417 9.70113 6.97229 9.35717 6.07799C9.15079 5.59645 9.082 5.18369 9.28838 4.83973C9.49475 4.56457 9.90751 4.42698 10.4578 4.49577C11.4897 4.56457 12.728 5.1149 13.8974 5.94041Z" fill="white"/>
</mask>
<g mask="url(#mask1)">
<path d="M4.78906 4.18945C4.92665 6.73476 7.40316 9.07369 9.26055 10.7247C11.9434 12.9948 16.2085 14.6458 18.6163 14.3019" stroke="white" stroke-width="0.34396" stroke-dasharray="0.65 0.65"/>
</g>
<path d="M36.3505 8.18116H38.2692C38.2315 6.32162 36.6461 5.0049 34.3029 5.0049C31.9919 5.0049 30.256 6.3055 30.2613 8.25102C30.2613 9.83109 31.3846 10.7394 33.1958 11.2069L34.448 11.5294C35.6357 11.8304 36.4204 12.2012 36.4258 13.0557C36.4204 13.9962 35.5282 14.625 34.2276 14.625C32.9808 14.625 32.0134 14.0661 31.9328 12.9106H29.9711C30.0517 15.098 31.6802 16.3287 34.2438 16.3287C36.8826 16.3287 38.4143 15.012 38.4196 13.0718C38.4143 11.1639 36.8396 10.2933 35.1843 9.90096L34.1524 9.64299C33.2495 9.42801 32.2714 9.04643 32.2821 8.12741C32.2875 7.29976 33.0291 6.69245 34.276 6.69245C35.4637 6.69245 36.2484 7.24601 36.3505 8.18116ZM44.6848 12.6903C44.6848 13.9479 43.7873 14.5713 42.9274 14.5713C41.9923 14.5713 41.3688 13.9102 41.3688 12.8622V7.90706H39.4233V13.1632C39.4233 15.1464 40.5519 16.2696 42.175 16.2696C43.4111 16.2696 44.2818 15.6193 44.658 14.6949H44.7439V16.1621H46.6304V7.90706H44.6848V12.6903ZM54.4675 10.0891C54.1988 8.69172 53.081 7.79958 51.1462 7.79958C49.1577 7.79958 47.8033 8.77771 47.8087 10.304C47.8033 11.5079 48.545 12.3033 50.1304 12.6311L51.5385 12.9267C52.2963 13.0933 52.651 13.3997 52.651 13.8672C52.651 14.4316 52.0383 14.8561 51.1139 14.8561C50.2218 14.8561 49.6413 14.4692 49.4747 13.7275L47.5776 13.9102C47.8194 15.4258 49.0932 16.3233 51.1193 16.3233C53.1831 16.3233 54.6395 15.2538 54.6449 13.6899C54.6395 12.5129 53.8817 11.7927 52.3232 11.4542L50.9151 11.1532C50.0767 10.9651 49.7435 10.6749 49.7488 10.1965C49.7435 9.63761 50.3615 9.25066 51.173 9.25066C52.0706 9.25066 52.5435 9.73973 52.694 10.2825L54.4675 10.0891ZM57.5068 11.3252C57.5068 10.1321 58.2484 9.44414 59.291 9.44414C60.3122 9.44414 60.9141 10.0944 60.9141 11.2069V16.1621H62.8596V10.906C62.8596 8.91207 61.731 7.79958 60.0166 7.79958C58.7482 7.79958 57.9421 8.37463 57.5605 9.30978H57.4638V5.15538H55.5612V16.1621H57.5068V11.3252ZM64.1549 16.1621H66.1004V7.90706H64.1549V16.1621ZM65.133 6.73545C65.751 6.73545 66.2562 6.2625 66.2562 5.68207C66.2562 5.09626 65.751 4.62332 65.133 4.62332C64.5096 4.62332 64.0044 5.09626 64.0044 5.68207C64.0044 6.2625 64.5096 6.73545 65.133 6.73545ZM73.4807 8.18116H75.3994C75.3618 6.32162 73.7763 5.0049 71.4331 5.0049C69.1221 5.0049 67.3862 6.3055 67.3916 8.25102C67.3916 9.83109 68.5148 10.7394 70.326 11.2069L71.5782 11.5294C72.766 11.8304 73.5506 12.2012 73.556 13.0557C73.5506 13.9962 72.6585 14.625 71.3579 14.625C70.111 14.625 69.1436 14.0661 69.063 12.9106H67.1014C67.182 15.098 68.8104 16.3287 71.374 16.3287C74.0128 16.3287 75.5445 15.012 75.5499 13.0718C75.5445 11.1639 73.9698 10.2933 72.3145 9.90096L71.2826 9.64299C70.3797 9.42801 69.4016 9.04643 69.4123 8.12741C69.4177 7.29976 70.1594 6.69245 71.4062 6.69245C72.594 6.69245 73.3786 7.24601 73.4807 8.18116ZM78.2572 16.1621H80.2887L81.8366 10.5835H81.9494L83.4972 16.1621H85.5234L87.8612 7.90706H85.8727L84.4431 13.6791H84.3625L82.8792 7.90706H80.9175L79.4342 13.7114H79.359L77.9079 7.90706H75.9247L78.2572 16.1621ZM90.9072 16.3287C92.2024 16.3287 92.9763 15.7214 93.331 15.0281H93.3955V16.1621H95.2658V10.6372C95.2658 8.45525 93.4869 7.79958 91.9122 7.79958C90.1763 7.79958 88.8434 8.57349 88.4135 10.0783L90.23 10.3363C90.4235 9.77197 90.9717 9.28828 91.9229 9.28828C92.8258 9.28828 93.3203 9.75048 93.3203 10.562V10.5943C93.3203 11.1532 92.7345 11.1801 91.278 11.3359C89.6764 11.5079 88.1447 11.9862 88.1447 13.8458C88.1447 15.4688 89.3325 16.3287 90.9072 16.3287ZM91.4124 14.8991C90.6008 14.8991 90.0204 14.5283 90.0204 13.8135C90.0204 13.0665 90.6707 12.7548 91.5413 12.6311C92.0519 12.5613 93.073 12.4323 93.3256 12.2281V13.2008C93.3256 14.1198 92.584 14.8991 91.4124 14.8991ZM96.5341 19.2578H98.4797V14.8615H98.5603C98.8666 15.4634 99.5062 16.3072 100.925 16.3072C102.871 16.3072 104.327 14.7648 104.327 12.0453C104.327 9.29365 102.828 7.79958 100.92 7.79958C99.4632 7.79958 98.8559 8.6756 98.5603 9.27216H98.4474V7.90706H96.5341V19.2578ZM98.4421 12.0346C98.4421 10.433 99.13 9.39577 100.382 9.39577C101.677 9.39577 102.344 10.4975 102.344 12.0346C102.344 13.5824 101.667 14.711 100.382 14.711C99.1407 14.711 98.4421 13.6362 98.4421 12.0346Z" fill="white"/>
</g>
<defs>
<linearGradient id="paint0_linear" x1="13.7213" y1="0.759235" x2="16.3421" y2="13.8891" gradientUnits="userSpaceOnUse">
<stop stop-color="#B4B7B8"/>
<stop offset="0.52" stop-color="#AFAFAF"/>
<stop offset="1" stop-color="#FBFBFB"/>
</linearGradient>
</defs>
</svg>
