<svg width="114" height="32" viewBox="0 0 114 32" fill="none" xmlns="http://www.w3.org/2000/svg">
<g clip-path="url(#clip0)">
<path fill-rule="evenodd" clip-rule="evenodd" d="M0 21.5633V15.9999C0 7.1634 7.1634 0 15.9999 0C20.3585 0 24.31 1.7428 27.1956 4.56956L23.7943 6.69496C21.6856 4.92676 18.9671 3.86205 15.9999 3.86205C9.29636 3.86205 3.86205 9.29636 3.86205 15.9999H7.72408L0 21.5633ZM8.14708 25.2554C10.2638 27.0532 13.0053 28.1378 16.0001 28.1378C22.7037 28.1378 28.138 22.7035 28.138 16H24.276L31.9997 10.3448L32 16C32 24.8365 24.8366 31.9999 16.0001 31.9999C11.6145 31.9999 7.64104 30.2354 4.75084 27.3776L8.14708 25.2554ZM22.1378 21.3103H17.7241L16.0001 18.9814L14.2762 21.3103H9.8624L13.861 16.0918L9.86204 10.6897H14L16.0001 13.3L18.0003 10.6897H22.1382L18.1392 16.0918L22.1378 21.3103Z" fill="white"/>
</g>
<path d="M52.685 9.90358L49.5925 10.8772C49.4588 10.0945 49.0675 9.37861 48.4184 8.72956C47.7694 8.08051 46.834 7.75598 45.6122 7.75598C44.6005 7.75598 43.7605 8.04233 43.0924 8.61502C42.4433 9.18772 42.1188 9.87495 42.1188 10.6767C42.1188 12.0703 42.911 12.9389 44.4955 13.2825L47.4162 13.8838C49.1725 14.2274 50.5279 14.9242 51.4823 15.9741C52.4368 17.0241 52.9141 18.2745 52.9141 19.7253C52.9141 21.4052 52.265 22.856 50.9669 24.0778C49.6879 25.2804 47.9412 25.8817 45.7268 25.8817C43.3405 25.8817 41.4793 25.2613 40.143 24.0205C38.8067 22.7606 38.0527 21.3002 37.8809 19.6394L41.0879 18.7231C41.2025 19.8685 41.6606 20.8325 42.4624 21.6152C43.2642 22.3979 44.3523 22.7892 45.7268 22.7892C46.9103 22.7892 47.8171 22.5315 48.4471 22.0161C49.0961 21.4815 49.4206 20.8039 49.4206 19.983C49.4206 19.3149 49.182 18.7422 48.7048 18.2649C48.2275 17.7686 47.5594 17.425 46.7003 17.2341L43.8369 16.6327C42.2524 16.3082 40.9925 15.6496 40.0571 14.6569C39.1408 13.6643 38.6826 12.4234 38.6826 10.9344C38.6826 9.23544 39.3603 7.77507 40.7157 6.55332C42.0711 5.33158 43.6937 4.7207 45.5836 4.7207C47.7407 4.7207 49.392 5.24567 50.5374 6.29561C51.6828 7.32646 52.3987 8.52912 52.685 9.90358Z" fill="white"/>
<path d="M62.1926 11.5071H65.6288L68.9218 21.157L71.6993 11.5071H75.0782L70.6112 25.4522H67.2896L63.8248 15.4301L60.4459 25.4522H57.0384L52.5141 11.5071H56.0648L58.8996 21.157L62.1926 11.5071Z" fill="white"/>
<path d="M75.2364 21.6724C75.2364 20.4889 75.6182 19.5439 76.3818 18.8376C77.1645 18.1122 78.1858 17.654 79.4457 17.4631L83.025 16.9191C83.7123 16.8236 84.0559 16.4896 84.0559 15.9169C84.0559 15.2869 83.8363 14.781 83.3973 14.3992C82.9582 13.9983 82.2996 13.7979 81.4215 13.7979C80.5815 13.7979 79.9134 14.0365 79.4171 14.5138C78.9207 14.9719 78.6344 15.5733 78.558 16.3178L75.5227 15.6305C75.6564 14.3706 76.2577 13.3016 77.3267 12.4234C78.3958 11.5262 79.7511 11.0776 81.3929 11.0776C83.4164 11.0776 84.9054 11.5644 85.8599 12.538C86.8334 13.5116 87.3202 14.7619 87.3202 16.2891V23.2187C87.3202 24.135 87.3775 24.8795 87.492 25.4522H84.3995C84.304 25.1659 84.2563 24.5741 84.2563 23.6769C83.34 25.1468 81.9083 25.8817 79.9611 25.8817C78.5485 25.8817 77.4031 25.4713 76.525 24.6505C75.6659 23.8105 75.2364 22.8178 75.2364 21.6724ZM80.5911 23.276C81.6219 23.276 82.4523 22.9992 83.0823 22.4456C83.7313 21.8729 84.0559 20.947 84.0559 19.668V19.0381L80.4193 19.5821C79.1784 19.7921 78.558 20.4221 78.558 21.472C78.558 21.9683 78.7394 22.3979 79.1021 22.7606C79.4648 23.1042 79.9611 23.276 80.5911 23.276Z" fill="white"/>
<path d="M93.1968 30.8928H89.9038V11.5071H93.1109V13.397C93.4736 12.7671 94.0463 12.2421 94.829 11.8221C95.6117 11.4021 96.5185 11.1921 97.5493 11.1921C99.5537 11.1921 101.129 11.8794 102.274 13.2538C103.419 14.6092 103.992 16.3464 103.992 18.4654C103.992 20.5843 103.391 22.3406 102.188 23.7341C100.985 25.1086 99.401 25.7958 97.4348 25.7958C96.4803 25.7958 95.6308 25.6145 94.8863 25.2518C94.1418 24.8891 93.5786 24.4309 93.1968 23.8773V30.8928ZM100.67 18.4654C100.67 17.1673 100.327 16.1269 99.6396 15.3442C98.9524 14.5424 98.0456 14.1415 96.9193 14.1415C95.8121 14.1415 94.9054 14.5424 94.199 15.3442C93.5118 16.1269 93.1682 17.1673 93.1682 18.4654C93.1682 19.7826 93.5118 20.842 94.199 21.6438C94.9054 22.4456 95.8121 22.8465 96.9193 22.8465C98.0266 22.8465 98.9238 22.4456 99.611 21.6438C100.317 20.842 100.67 19.7826 100.67 18.4654Z" fill="white"/>
<path d="M113.914 11.4212V14.8001C113.533 14.7428 113.17 14.7142 112.826 14.7142C110.326 14.7142 109.075 16.0791 109.075 18.809V25.4522H105.754V11.5071H108.989V13.7406C109.314 12.9961 109.839 12.4139 110.564 11.9939C111.29 11.5549 112.111 11.3353 113.027 11.3353C113.332 11.3353 113.628 11.364 113.914 11.4212Z" fill="white"/>
<defs>
<clipPath id="clip0">
<rect width="32" height="32" fill="white"/>
</clipPath>
</defs>
</svg>
