<svg xmlns="http://www.w3.org/2000/svg" width="22" height="32" viewBox="0 0 22 32">
    <g fill="none" fill-rule="evenodd">
        <g fill="#CFE2EC">
            <g>
                <path d="M41.72 23.872c.356-2.267.363-4.428-1.761-5.298-1.229-.503-3.09-.38-4.291.227-1.95.985-1.717 3.062-1.392 5.071h7.443zM31.308 27.96c0 3.304-.031 6.369.034 9.431.009.443.371 1.082.749 1.284 3.26 1.735 6.517 3.9 10.17.808.347-.292.865-.368 1.242-.634.416-.294 1.08-.683 1.089-1.045.084-3.272.05-6.546.05-9.844H31.308zm-4.3-3.865l2.953-.228c1.374-7.739 3.558-10.169 8.741-9.837 4.461.286 6.697 3.279 7.164 9.776l3.127.324c0 5.427.034 10.857-.059 16.285-.008.47-.774 1.086-1.32 1.36-2.786 1.397-5.59 2.761-8.446 4-.672.292-1.673.305-2.342.017-2.858-1.234-5.677-2.57-8.438-4.01-.61-.317-1.306-1.202-1.32-1.839-.105-5.202-.06-10.407-.06-15.848z" transform="translate(-473 -441) translate(446 427)"/>
            </g>
        </g>
    </g>
</svg>
