<svg width="288" height="288" viewBox="0 0 288 288" version="1.1" xmlns="http://www.w3.org/2000/svg" xmlns:xlink="http://www.w3.org/1999/xlink">
<title>logo_solid_square_white</title>
<desc>Created using Figma</desc>
<g id="Canvas" transform="translate(60 145)">
<g id="logo_solid_square_white">
<g id="background">
<use xlink:href="#path0_fill" transform="translate(-60 -145)" fill="#3375BB"/>
</g>
<g id="logo">
<use xlink:href="#path1_stroke" transform="translate(11.2 -85.7)" fill="#FFFFFF"/>
</g>
</g>
</g>
<defs>
<path id="path0_fill" d="M 288 0L -1.2207e-05 0L -1.2207e-05 288L 288 288L 288 0Z"/>
<path id="path1_stroke" d="M 72.4 -7.62939e-07L 76.6355 -5.46695C 74.1422 -7.39862 70.6578 -7.39862 68.1645 -5.46695L 72.4 -7.62939e-07ZM 144.9 21.3L 151.815 21.4125C 151.845 19.5591 151.13 17.7711 149.83 16.4498C 148.53 15.1284 146.754 14.3843 144.9 14.3843L 144.9 21.3ZM 72.4 169.4L 68.5688 175.157C 70.8895 176.702 73.9105 176.702 76.2313 175.157L 72.4 169.4ZM 0 21.3L 0 14.3843C -1.85365 14.3843 -3.62972 15.1284 -4.92975 16.4498C -6.22977 17.7711 -6.94493 19.5591 -6.91479 21.4125L 0 21.3ZM 68.1645 5.46695C 99.5499 29.7826 135.462 28.2157 144.9 28.2157L 144.9 14.3843C 135.138 14.3843 103.85 15.6174 76.6355 -5.46695L 68.1645 5.46695ZM 137.985 21.1875C 137.464 53.3107 136.105 75.9691 133.501 92.7573C 130.933 109.367 127.26 119.322 122.533 126.314C 117.743 133.578 111.735 137.889 102.832 143.208C 93.8514 148.587 82.5075 154.381 68.5688 163.643L 76.2313 175.157C 89.4926 166.319 100.549 160.688 109.934 155.076C 119.396 149.405 127.719 143.159 133.992 134.061C 140.327 124.69 144.448 112.476 147.17 94.8708C 149.858 77.4434 151.286 53.8393 151.815 21.4125L 137.985 21.1875ZM 76.2313 163.643C 62.2932 154.381 50.957 148.588 41.9868 143.21C 33.0938 137.892 27.0986 133.583 22.3207 126.32C 17.6046 119.329 13.9431 109.373 11.3835 92.7609C 8.7891 75.9718 7.43568 53.3117 6.91479 21.1875L -6.91479 21.4125C -6.38568 53.8383 -4.96409 77.4407 -2.2866 94.8672C 0.425666 112.47 4.53296 124.684 10.8543 134.055C 17.1139 143.154 25.425 149.402 34.8789 155.075C 44.2556 160.687 55.3068 166.319 68.5688 175.157L 76.2313 163.643ZM 0 28.2157C 9.34002 28.2157 45.2509 29.782 76.6355 5.46695L 68.1645 -5.46695C 40.9491 15.618 9.65998 14.3843 0 14.3843L 0 28.2157Z"/>
</defs>
</svg>
