<svg width="68" height="68" viewBox="0 0 68 68" fill="none" xmlns="http://www.w3.org/2000/svg">
<circle cx="34" cy="34" r="34" fill="url(#paint0_radial_1737_14903)"/>
<path fill-rule="evenodd" clip-rule="evenodd" d="M29.9633 29.0222C29.9049 29.2474 29.8031 29.4588 29.6635 29.6445C29.4037 29.9832 29.0599 30.2473 28.6665 30.4105C28.3127 30.5636 27.938 30.6626 27.5549 30.7042C27.4761 30.7142 27.3946 30.7204 27.3155 30.7264L27.3154 30.7264L27.3025 30.7274C27.0599 30.7367 26.8266 30.8237 26.6367 30.9758C26.4469 31.1279 26.3106 31.337 26.2476 31.5726C26.2188 31.6898 26.1974 31.8087 26.1835 31.9286C26.1614 32.1095 26.1501 32.2946 26.1378 32.4949V32.4949C26.129 32.6386 26.1197 32.7901 26.1057 32.9534C26.0233 33.6186 25.8317 34.2655 25.5388 34.8678C25.4789 34.9944 25.4179 35.1171 25.358 35.2377C25.0368 35.8838 24.7466 36.4674 24.83 37.2491C24.8952 37.8513 25.2023 38.2549 25.6103 38.6711C25.8041 38.8703 26.0611 39.0404 26.3279 39.217C27.0745 39.7113 27.8976 40.2563 27.6264 41.6293C27.4045 42.7418 25.5682 43.9092 22.9874 44.317C23.2377 44.2789 22.6863 43.3337 22.6251 43.2287L22.6214 43.2225C22.5502 43.1105 22.4774 43.0002 22.4046 42.8901L22.4046 42.8901C22.1945 42.5722 21.9854 42.2558 21.8221 41.905C21.3909 40.9891 21.1911 39.9294 21.3678 38.9257C21.5279 38.0173 22.1257 37.2917 22.7013 36.593L22.7013 36.593C22.7951 36.4791 22.8883 36.3659 22.979 36.2528C23.7488 35.2925 24.5565 34.0342 24.7353 32.7876C24.7504 32.6793 24.7638 32.5612 24.778 32.4369L24.778 32.4369C24.8033 32.2145 24.8309 31.9724 24.8741 31.7311C24.9383 31.3144 25.0682 30.9107 25.259 30.5351C25.3893 30.2888 25.5608 30.0669 25.766 29.8791C25.8729 29.7793 25.9435 29.6464 25.9664 29.5016C25.9893 29.3568 25.9631 29.2085 25.8922 29.0803L21.778 21.6469L27.6874 28.9726C27.7547 29.0575 27.8398 29.1264 27.9366 29.1746C28.0334 29.2228 28.1395 29.2489 28.2475 29.2512C28.3555 29.2536 28.4627 29.232 28.5615 29.188C28.6602 29.1441 28.7482 29.0788 28.819 28.9969C28.8939 28.9092 28.9363 28.7982 28.9392 28.6828C28.9421 28.5673 28.9052 28.4543 28.8348 28.363C28.56 28.0103 28.274 27.6527 27.9894 27.2968C27.8742 27.1528 27.7592 27.009 27.6453 26.866L26.1582 25.0171L23.1735 21.3257L19.8594 17.3845L23.5564 20.9951L26.7335 24.5237L28.3184 26.2923C28.464 26.457 28.6096 26.6202 28.7552 26.7835L28.7553 26.7836C29.1355 27.2098 29.5157 27.6361 29.8959 28.0883L29.9822 28.194L30.0011 28.3577C30.0268 28.5798 30.0139 28.8046 29.9633 29.0222ZM45.1511 31.5065L45.1574 31.516L45.1574 31.5052C45.1519 30.7161 44.666 29.4217 43.6872 28.1765L43.664 28.1458C43.3611 27.7698 43.0311 27.4166 42.6765 27.0893L42.6627 27.0761L42.6791 27.0901C42.662 27.0742 42.6447 27.0584 42.6274 27.0426C42.5919 27.0095 42.5554 26.9766 42.5182 26.9438L42.4688 26.8989L42.5024 26.9299L42.4661 26.8981C42.0118 26.5001 41.5153 26.1536 40.9854 25.8649L40.9475 25.8459C39.2827 24.9352 37.1162 24.4661 34.4449 24.9943C34.0861 24.5568 33.6997 24.1429 33.288 23.7551C32.6576 23.1516 31.9155 22.6782 31.1037 22.3616C30.2992 22.0657 29.4376 21.9602 28.5859 22.0531C29.4069 22.1273 30.2066 22.3567 30.9428 22.7292C31.6538 23.1119 32.2941 23.6143 32.8358 24.2146C33.3849 24.8274 33.9009 25.4693 34.3818 26.1374L34.5025 26.2952C34.973 26.9108 35.452 27.5375 36.0487 28.0951C36.3772 28.4056 36.7437 28.673 37.1393 28.8906C37.2445 28.9445 37.3507 28.9952 37.4548 29.0396C37.559 29.084 37.6568 29.1252 37.7619 29.1632C37.9649 29.2425 38.1752 29.308 38.3856 29.3682C39.2269 29.6091 40.0883 29.6957 40.9296 29.7422C41.0466 29.7484 41.1633 29.7541 41.2795 29.7599L41.2801 29.7599C41.5806 29.7748 41.8783 29.7895 42.1717 29.8109C42.5736 29.8348 42.9723 29.8978 43.3622 29.9989C43.9479 30.1523 44.4635 30.5028 44.823 30.992C44.9452 31.1549 45.0549 31.3269 45.1511 31.5065ZM41.6563 34.8727C38.9507 33.7698 36.1205 32.6162 36.5419 29.3782C37.4452 30.3471 38.8632 30.5503 40.4055 30.7713C41.8045 30.9718 43.3058 31.1869 44.6179 32.0015C47.7141 33.9222 47.2618 37.6537 46.2101 39.0271C46.305 36.7676 44.0285 35.8397 41.6563 34.8727ZM30.7369 33.2514C31.451 33.1828 32.9728 32.8098 32.2924 31.6065C32.146 31.3617 31.9338 31.1633 31.6802 31.0342C31.4267 30.9051 31.142 30.8504 30.8589 30.8765C30.5716 30.9074 30.3008 31.0264 30.0831 31.2173C29.8654 31.4082 29.7115 31.6617 29.6421 31.9435C29.4307 32.7306 29.6547 33.3571 30.7369 33.2514ZM30.5462 23.7279C30.0982 23.2081 29.4031 22.9355 28.7216 22.8362C28.6961 23.0067 28.6799 23.1784 28.6732 23.3507C28.6427 24.7696 29.1443 26.3279 30.1151 27.4108C30.4256 27.7609 30.8001 28.0478 31.2183 28.256C31.4602 28.3743 32.1017 28.668 32.3394 28.4039C32.3575 28.3797 32.3689 28.3511 32.3724 28.321C32.3759 28.291 32.3714 28.2605 32.3594 28.2327C32.32 28.1196 32.2439 28.017 32.1683 27.9151C32.1148 27.8429 32.0615 27.771 32.0218 27.696C31.9816 27.6204 31.9386 27.5467 31.8956 27.4731C31.8149 27.3347 31.7344 27.1966 31.6726 27.0463C31.5097 26.6529 31.4248 26.2346 31.3402 25.8176L31.3401 25.8173C31.3232 25.7338 31.3063 25.6504 31.2887 25.5672C31.1594 24.9238 30.9943 24.2477 30.5462 23.7279ZM40.1208 35.0485C39.4258 36.9968 40.5468 38.6424 41.6611 40.2783C42.9075 42.1082 44.1457 43.9259 42.8247 46.1416C45.3919 45.0766 46.6108 41.8596 45.5454 39.3072C44.8741 37.6927 43.2561 36.8175 41.7543 36.0052C41.1716 35.69 40.6064 35.3842 40.1208 35.0485ZM32.5942 39.6997C32.129 39.8904 31.6903 40.1408 31.2891 40.4446C32.2014 40.1122 33.159 39.9223 34.1286 39.8815C34.3044 39.871 34.4812 39.8628 34.6596 39.8546L34.6599 39.8546L34.6601 39.8545L34.6602 39.8545C34.9685 39.8403 35.2814 39.8258 35.601 39.7991C36.125 39.7633 36.6419 39.6567 37.1375 39.4821C37.6569 39.2996 38.1296 39.0037 38.5215 38.6158C38.9175 38.2154 39.1953 37.7125 39.324 37.1631C39.4372 36.6441 39.4213 36.105 39.2777 35.5937C39.134 35.0823 38.8671 34.6144 38.5005 34.2314C38.6774 34.682 38.7862 35.1567 38.8234 35.6397C38.8554 36.0893 38.7945 36.5407 38.6446 36.9656C38.4982 37.3682 38.2589 37.7303 37.9463 38.022C37.6233 38.3166 37.2494 38.5494 36.843 38.7088C36.2783 38.9373 35.6396 39.0308 34.9744 39.1282L34.9743 39.1282L34.9743 39.1282L34.9743 39.1282H34.9742C34.6708 39.1727 34.3618 39.2179 34.0519 39.2771C33.5532 39.3689 33.0649 39.5105 32.5942 39.6997ZM40.6161 47.7774L40.616 47.7775L40.6159 47.7775L40.6158 47.7776C40.4983 47.8726 40.3788 47.9692 40.2501 48.056C40.0861 48.1645 39.9141 48.2606 39.7358 48.3433C39.3645 48.5253 38.9563 48.6182 38.5432 48.6148C37.4242 48.5937 36.6333 47.757 36.1706 46.8114C36.0492 46.5636 35.9424 46.3081 35.8355 46.0526C35.6645 45.6437 35.4934 45.2347 35.263 44.8569C34.7277 43.979 33.8116 43.2722 32.7389 43.4032C32.3014 43.4581 31.8913 43.6557 31.6483 44.0371C31.0089 45.0334 31.927 46.429 33.0975 46.2314C33.1971 46.2162 33.2945 46.1892 33.3878 46.1511C33.4808 46.1114 33.5676 46.0583 33.6455 45.9937C33.809 45.8569 33.9322 45.678 34.002 45.476C34.0789 45.2655 34.096 45.0376 34.0514 44.8178C34.0034 44.5882 33.8684 44.3862 33.6749 44.2547C33.8999 44.3606 34.0752 44.5499 34.164 44.783C34.256 45.0228 34.2797 45.2837 34.2323 45.5362C34.1864 45.7994 34.0709 46.0454 33.8979 46.2483C33.806 46.3527 33.6997 46.4434 33.5824 46.5177C33.466 46.5911 33.3414 46.6504 33.2111 46.6942C32.947 46.7849 32.6658 46.8141 32.3887 46.7797C31.9997 46.7241 31.6328 46.5642 31.3265 46.317C31.2482 46.2548 31.1742 46.1884 31.1031 46.1194C30.9294 45.9621 30.7699 45.7896 30.6264 45.6039C30.5427 45.5106 30.4577 45.4185 30.3684 45.3302C29.9935 44.935 29.5511 44.6105 29.0622 44.372C28.7251 44.2233 28.3723 44.1134 28.0105 44.0445C27.8286 44.0065 27.6445 43.979 27.4605 43.9557C27.4405 43.9537 27.4019 43.947 27.354 43.9386L27.3539 43.9386C27.2003 43.9118 26.9503 43.8682 26.9062 43.9093C27.4751 43.3832 28.0952 42.916 28.7572 42.5147C29.4369 42.1095 30.1668 41.7958 30.9279 41.5818C31.7171 41.3587 32.5425 41.2951 33.3563 41.3948C33.7752 41.4454 34.1854 41.552 34.5762 41.7118C34.9857 41.8761 35.3636 42.1106 35.6931 42.4048C36.0193 42.7135 36.2828 43.0826 36.4693 43.4919C36.6376 43.8751 36.7632 44.2759 36.8437 44.6868C36.8868 44.9079 36.9193 45.1509 36.953 45.4024L36.953 45.4025C37.1064 46.5486 37.2834 47.8709 38.5968 48.1014C38.6803 48.1177 38.7645 48.1296 38.8492 48.1373L39.1111 48.1437C39.2911 48.1308 39.47 48.105 39.6464 48.0665C40.0118 47.9802 40.3679 47.8581 40.7097 47.702C40.6785 47.7269 40.6474 47.7521 40.6161 47.7774Z" fill="white"/>
<defs>
<radialGradient id="paint0_radial_1737_14903" cx="0" cy="0" r="1" gradientUnits="userSpaceOnUse" gradientTransform="translate(-34.5 -21) rotate(38.9967) scale(185.928)">
<stop stop-color="#4C82FB"/>
<stop offset="1" stop-color="#0E111A"/>
</radialGradient>
</defs>
</svg>
