<svg xmlns="http://www.w3.org/2000/svg" width="34" height="34" viewBox="0 0 34 34">
    <g fill="none" fill-rule="evenodd">
        <g fill="#CFE2EC">
            <g>
                <path d="M24.975 16.975c6.634-6.633 17.416-6.633 24.05 0 6.633 6.634 6.633 17.416 0 24.05-6.634 6.633-17.416 6.633-24.05 0-6.633-6.634-6.633-17.416 0-24.05zM41.864 23H32.5c-.828 0-1.5.672-1.5 1.5v9c0 .828.672 1.5 1.5 1.5h9.364c.828 0 1.5-.672 1.5-1.5v-9c0-.828-.672-1.5-1.5-1.5z" transform="translate(-206 -279) translate(186 267)"/>
            </g>
        </g>
    </g>
</svg>
