<svg width="24" height="24" viewBox="0 0 24 24" fill="none" xmlns="http://www.w3.org/2000/svg">
<rect width="24" height="24" rx="8" fill="#3396FF"/>
<path d="M12 24C18.6274 24 24 18.6274 24 12C24 5.37258 18.6274 0 12 0C5.37258 0 0 5.37258 0 12C0 18.6274 5.37258 24 12 24Z" fill="#3396FF"/>
<path d="M7.33957 8.93036C9.91346 6.42035 14.0867 6.42035 16.6606 8.93036L16.9704 9.23244C17.0991 9.35791 17.0991 9.5614 16.9704 9.68687L15.9107 10.7203C15.8463 10.783 15.742 10.783 15.6777 10.7203L15.2514 10.3046C13.4557 8.55352 10.5444 8.55352 8.74877 10.3046L8.29223 10.7497C8.22787 10.8125 8.12357 10.8125 8.05921 10.7497L6.99954 9.71635C6.87082 9.59087 6.87082 9.38739 6.99954 9.26191L7.33957 8.93036ZM18.8522 11.0674L19.7953 11.9871C19.924 12.1126 19.924 12.3161 19.7953 12.4416L15.5426 16.5886C15.414 16.7141 15.2053 16.7141 15.0766 16.5886L12.0584 13.6454C12.0262 13.614 11.974 13.614 11.9419 13.6454L8.92363 16.5886C8.79497 16.7141 8.5863 16.7141 8.45758 16.5886L4.20486 12.4415C4.07616 12.316 4.07616 12.1126 4.20486 11.9871L5.14799 11.0674C5.27669 10.9419 5.48534 10.9419 5.61404 11.0674L8.63232 14.0107C8.6645 14.0421 8.71665 14.0421 8.74883 14.0107L11.767 11.0674C11.8957 10.9419 12.1043 10.9419 12.233 11.0674L15.2513 14.0107C15.2835 14.0421 15.3357 14.0421 15.3678 14.0107L18.3861 11.0674C18.5148 10.9419 18.7234 10.9419 18.8522 11.0674Z" fill="white"/>
</svg>
