<svg width="18" height="20" viewBox="0 0 18 20" fill="none" xmlns="http://www.w3.org/2000/svg">
<path d="M17.3333 11.375V17.875C17.3333 18.7742 16.6075 19.5 15.7083 19.5H3.25C1.08333 19.5 0 18.0483 0 16.25C0 14.4517 1.08333 13 3.25 13H15.7083C16.6075 13 17.3333 12.2742 17.3333 11.375Z" fill="currentColor"/>
<path opacity="0.4" d="M17.3333 1.625V11.375C17.3333 12.2742 16.6075 13 15.7083 13H3.25C1.08333 13 0 14.4517 0 16.25V3.25C0 1.08333 1.08333 0 3.25 0H15.7083C16.6075 0 17.3333 0.725833 17.3333 1.625Z" fill="currentColor"/>
<path d="M11.9167 5.14575H5.41675C4.96825 5.14575 4.60425 4.78175 4.60425 4.33325C4.60425 3.88475 4.96825 3.52075 5.41675 3.52075H11.9167C12.3652 3.52075 12.7292 3.88475 12.7292 4.33325C12.7292 4.78175 12.3652 5.14575 11.9167 5.14575ZM10.5626 7.58325C10.5626 7.13475 10.1986 6.77075 9.75008 6.77075H5.41675C4.96825 6.77075 4.60425 7.13475 4.60425 7.58325C4.60425 8.03175 4.96825 8.39575 5.41675 8.39575H9.75008C10.1986 8.39575 10.5626 8.03175 10.5626 7.58325Z" fill="currentColor"/>
</svg>
