<svg width="24" height="24" viewBox="0 0 24 24" fill="none" xmlns="http://www.w3.org/2000/svg">
<path d="M8.1471 8.66815C7.96382 9.18914 8.2376 9.76006 8.75859 9.94333C9.27958 10.1266 9.85049 9.85283 10.0338 9.33184L8.1471 8.66815ZM14.9204 9.99999L13.9204 9.99851V9.99999H14.9204ZM11.6042 12.0513C11.0803 12.226 10.7971 12.7923 10.9717 13.3162C11.1464 13.8402 11.7127 14.1233 12.2367 13.9487L11.6042 12.0513ZM12.0002 16C11.4479 16 11.0002 16.4477 11.0002 17C11.0002 17.5523 11.4479 18 12.0002 18V16ZM12.0102 18C12.5625 18 13.0102 17.5523 13.0102 17C13.0102 16.4477 12.5625 16 12.0102 16V18ZM21 12C21 16.9706 16.9706 21 12 21V23C18.0751 23 23 18.0751 23 12H21ZM12 21C7.02944 21 3 16.9706 3 12H1C1 18.0751 5.92487 23 12 23V21ZM3 12C3 7.02944 7.02944 3 12 3V1C5.92487 1 1 5.92487 1 12H3ZM12 3C16.9706 3 21 7.02944 21 12H23C23 5.92487 18.0751 1 12 1V3ZM10.0338 9.33184C10.1905 8.88628 10.4999 8.51058 10.9071 8.27126L9.8937 6.547C9.0793 7.02563 8.46057 7.77704 8.1471 8.66815L10.0338 9.33184ZM10.9071 8.27126C11.3143 8.03194 11.793 7.94446 12.2585 8.02431L12.5967 6.0531C11.6656 5.8934 10.7081 6.06836 9.8937 6.547L10.9071 8.27126ZM12.2585 8.02431C12.7241 8.10416 13.1463 8.34619 13.4505 8.70752L14.9805 7.41952C14.3722 6.69685 13.5277 6.2128 12.5967 6.0531L12.2585 8.02431ZM13.4505 8.70752C13.7547 9.06886 13.9211 9.52619 13.9204 9.99851L15.9204 10.0015C15.9218 9.05685 15.5889 8.14219 14.9805 7.41952L13.4505 8.70752ZM13.9204 9.99999C13.9204 10.4691 13.5553 10.9582 12.8657 11.4179C12.5514 11.6275 12.2299 11.789 11.983 11.8987C11.861 11.9529 11.7608 11.9929 11.6933 12.0186C11.6597 12.0314 11.6345 12.0406 11.6191 12.0461C11.6114 12.0488 11.6062 12.0506 11.6037 12.0515C11.6024 12.0519 11.6018 12.0521 11.6019 12.0521C11.6019 12.0521 11.6021 12.052 11.6025 12.0519C11.6027 12.0518 11.6029 12.0517 11.6032 12.0516C11.6034 12.0516 11.6036 12.0515 11.6037 12.0515C11.6039 12.0514 11.6042 12.0513 11.9204 13C12.2367 13.9487 12.2369 13.9486 12.2372 13.9485C12.2374 13.9484 12.2377 13.9483 12.2379 13.9483C12.2384 13.9481 12.2389 13.9479 12.2394 13.9477C12.2406 13.9474 12.2419 13.9469 12.2433 13.9464C12.2463 13.9454 12.25 13.9442 12.2544 13.9427C12.2632 13.9396 12.2748 13.9356 12.2891 13.9305C12.3177 13.9203 12.3569 13.906 12.4053 13.8876C12.502 13.8508 12.6361 13.7971 12.7953 13.7263C13.111 13.586 13.5395 13.3725 13.9751 13.082C14.7855 12.5418 15.9204 11.5309 15.9204 9.99999H13.9204ZM12.0002 18H12.0102V16H12.0002V18Z" fill="currentColor"/>
</svg>
