<svg width="19" height="18" viewBox="0 0 19 18" fill="none" xmlns="http://www.w3.org/2000/svg">
<g clip-path="url(#clip0_4054_133249)">
<path fill-rule="evenodd" clip-rule="evenodd" d="M14.4506 4.36502L13.2518 5.56373L14.563 6.87493L18 3.43797L14.5631 -3.00459e-07L13.2517 1.31098L14.4511 2.51071L5.95378 2.51071C3.90556 2.51071 2.24515 4.17111 2.24515 6.21933C2.24515 8.26755 3.90556 9.92795 5.95377 9.92795L13.371 9.92795C14.3951 9.92795 15.2253 10.7582 15.2253 11.7823C15.2253 12.8064 14.3951 13.6366 13.371 13.6366L4.87424 13.6366L6.07295 12.4379L4.76175 11.1267L1.32458 14.5638L4.76186 18L6.07284 16.6886L4.87475 15.4909L13.371 15.4909C15.4192 15.4909 17.0796 13.8305 17.0796 11.7823C17.0796 9.73405 15.4192 8.07364 13.371 8.07364L5.95377 8.07364C4.92967 8.07364 4.09946 7.24344 4.09946 6.21933C4.09946 5.19522 4.92967 4.36502 5.95378 4.36502L14.4506 4.36502Z" fill="currentColor"/>
</g>
<defs>
<clipPath id="clip0_4054_133249">
<rect width="19" height="18" fill="white"/>
</clipPath>
</defs>
</svg>
