<svg width="327" height="215" viewBox="0 0 327 215" fill="none" xmlns="http://www.w3.org/2000/svg">
<g clip-path="url(#clip0_1198_17450)">
<rect width="327" height="215" rx="16" fill="#F9F9F9"/>
<g filter="url(#filter0_d_1198_17450)">
<g filter="url(#filter1_d_1198_17450)">
<rect x="43.958" y="14" width="226.921" height="249" rx="19.6256" fill="white"/>
</g>
<g clip-path="url(#clip1_1198_17450)">
<path d="M57.2491 204.494V197.881H54.9418V196.899H60.7044V197.881H58.3861V204.494H57.2491ZM62.7512 204.626C61.029 204.626 60.0576 203.335 60.0576 201.767C60.0576 200.211 61.029 198.908 62.7512 198.908C64.4844 198.908 65.4669 200.211 65.4669 201.767C65.4669 203.335 64.4844 204.626 62.7512 204.626ZM62.7622 203.754C63.822 203.754 64.3188 202.86 64.3188 201.767C64.3188 200.685 63.822 199.78 62.7622 199.78C61.6914 199.78 61.1946 200.674 61.1946 201.767C61.1946 202.871 61.6914 203.754 62.7622 203.754ZM70.2964 204.494L67.7131 201.723V204.494H66.6202V196.899H67.7131V201.557L70.0204 199.04H71.4334L69.0048 201.579L71.7425 204.494H70.2964ZM74.3712 204.626C72.914 204.626 71.7549 203.644 71.7549 201.778C71.7549 199.979 72.9361 198.908 74.4043 198.908C75.8615 198.908 76.9103 200.012 76.9103 201.679V202.021H72.8588C72.914 203.257 73.5874 203.776 74.3822 203.776C75.1329 203.776 75.5966 203.401 75.7732 202.694L76.8771 202.838C76.6012 203.754 75.8836 204.626 74.3712 204.626ZM72.8698 201.182H75.7622C75.729 200.409 75.1881 199.747 74.4043 199.747C73.5984 199.747 72.9802 200.321 72.8698 201.182ZM78.0801 204.494V199.04H79.162V199.813H79.173C79.4821 199.338 80.0893 198.908 80.9172 198.908C82.1316 198.908 82.8491 199.637 82.8491 200.961V204.494H81.7562V201.436C81.7562 200.453 81.5354 199.824 80.6192 199.824C79.7029 199.824 79.173 200.564 79.173 201.447V204.494H78.0801ZM86.3208 204.626C84.9629 204.626 83.9694 203.997 83.8479 202.694L84.9298 202.562C84.985 203.423 85.5922 203.82 86.3428 203.82C87.0825 203.82 87.5792 203.489 87.5792 202.959C87.5792 202.43 87.0714 202.319 86.387 202.165L85.5811 201.977C84.698 201.767 84.0908 201.348 84.0908 200.509C84.0908 199.581 85.0071 198.908 86.2987 198.908C87.5461 198.908 88.3962 199.537 88.5397 200.553L87.4468 200.707C87.3695 200.056 86.8948 199.714 86.2545 199.714C85.6032 199.714 85.1837 200.034 85.1837 200.453C85.1837 200.851 85.4266 200.994 86.111 201.149L86.9169 201.337C88.065 201.602 88.6721 201.977 88.6721 202.849C88.6721 203.942 87.6565 204.626 86.3208 204.626Z" fill="#222222"/>
</g>
<path d="M105.107 204.494V196.899H106.763L110.461 203.379V196.899H111.554V204.494H109.92L106.2 197.981V204.494H105.107ZM113.386 204.494V196.899H118.244V197.881H114.512V200.089H118.067V201.072H114.512V204.494H113.386ZM121.088 204.494V197.881H118.781V196.899H124.543V197.881H122.225V204.494H121.088ZM126.345 204.626C124.987 204.626 123.994 203.997 123.872 202.694L124.954 202.562C125.009 203.423 125.616 203.82 126.367 203.82C127.107 203.82 127.604 203.489 127.604 202.959C127.604 202.43 127.096 202.319 126.411 202.165L125.605 201.977C124.722 201.767 124.115 201.348 124.115 200.509C124.115 199.581 125.031 198.908 126.323 198.908C127.57 198.908 128.42 199.537 128.564 200.553L127.471 200.707C127.394 200.056 126.919 199.714 126.279 199.714C125.627 199.714 125.208 200.034 125.208 200.453C125.208 200.851 125.451 200.994 126.135 201.149L126.941 201.337C128.089 201.602 128.696 201.977 128.696 202.849C128.696 203.942 127.681 204.626 126.345 204.626Z" fill="#7D7D7D"/>
<g clip-path="url(#clip2_1198_17450)">
<path d="M144.419 204.494L147.334 196.899H148.791L151.716 204.494H150.535L149.795 202.518H146.34L145.589 204.494H144.419ZM146.671 201.568H149.453L148.062 197.87L146.671 201.568ZM154.805 204.626C153.204 204.626 152.123 203.467 152.123 201.756C152.123 200.078 153.204 198.908 154.816 198.908C156.229 198.908 157.013 199.736 157.3 200.763L156.196 201.028C156.053 200.343 155.633 199.78 154.816 199.78C153.944 199.78 153.271 200.476 153.271 201.756C153.271 203.059 153.922 203.754 154.838 203.754C155.6 203.754 156.075 203.28 156.251 202.507L157.344 202.772C157.013 203.798 156.251 204.626 154.805 204.626ZM160.118 204.549C159.422 204.549 158.959 204.273 158.793 203.721C158.727 203.556 158.705 203.379 158.705 203.147V199.935H157.744V199.04H158.705V197.318H159.798V199.04H160.924V199.935H159.798V202.993C159.798 203.467 160.019 203.633 160.449 203.633C160.67 203.633 160.791 203.622 160.968 203.589V204.472C160.692 204.516 160.449 204.549 160.118 204.549ZM162.049 204.494V199.04H163.142V204.494H162.049ZM162.049 198.19V196.899H163.142V198.19H162.049ZM166.126 204.494L164.073 199.04H165.254L166.7 203.302H166.711L168.158 199.04H169.339L167.274 204.494H166.126ZM170.253 204.494V199.04H171.346V204.494H170.253ZM170.253 198.19V196.899H171.346V198.19H170.253ZM174.639 204.549C173.944 204.549 173.48 204.273 173.315 203.721C173.249 203.556 173.226 203.379 173.226 203.147V199.935H172.266V199.04H173.226V197.318H174.319V199.04H175.445V199.935H174.319V202.993C174.319 203.467 174.54 203.633 174.971 203.633C175.191 203.633 175.313 203.622 175.49 203.589V204.472C175.214 204.516 174.971 204.549 174.639 204.549ZM176.957 206.613C176.703 206.613 176.537 206.58 176.361 206.558V205.62C176.504 205.653 176.67 205.675 176.824 205.675C177.354 205.675 177.652 205.487 177.862 204.958L178.05 204.483L175.996 199.04H177.2L178.624 203.335L180.048 199.04H181.262L178.966 205.09C178.558 206.172 177.928 206.613 176.957 206.613Z" fill="#7D7D7D"/>
</g>
<path d="M65.9344 100.64V97.8015C61.5653 97.4507 58.9502 94.708 58.695 90.7215L62.0117 90.1794C62.1712 92.9221 63.4788 94.7718 65.9344 95.1545V87.4367L65.3923 87.2773C61.6609 86.2248 59.4923 84.3751 59.4923 81.186C59.4923 77.9649 61.8842 75.5092 65.9344 75.1584V72.3201H68.0074V75.1903C71.7706 75.5411 73.8435 77.7735 74.2262 81.1222L70.9095 81.6324C70.6863 79.6233 69.7614 78.2519 68.0074 77.8373V84.7578L69.0279 85.0448C72.6317 86.0335 74.8003 87.7556 74.8003 91.1999C74.8003 95.0907 71.9619 97.4188 68.0074 97.7696V100.64H65.9344ZM62.809 80.9627C62.809 82.653 63.8615 83.514 65.9344 84.1838V77.7735C63.9571 78.0606 62.809 79.4 62.809 80.9627ZM68.0074 95.1864C70.2079 94.8675 71.4836 93.528 71.4836 91.5188C71.4836 89.6372 70.3355 88.6805 68.0074 87.9789V95.1864ZM78.3121 97.4507V94.708L80.0024 93.5918C85.7747 89.8605 89.5061 86.48 89.5061 81.8557C89.5061 79.4 88.1347 77.8692 85.711 77.8692C83.3191 77.8692 81.6926 79.3681 81.6926 82.0789C81.6926 82.6849 81.7564 83.1951 81.8521 83.6735L78.4716 83.2589C78.4397 83.0038 78.3759 82.5573 78.3759 81.9195C78.3759 77.7098 81.4056 75.1584 85.7429 75.1584C90.2077 75.1584 92.8866 77.5822 92.8866 81.6962C92.8866 86.9583 89.0277 90.6897 84.1802 93.7194L82.7132 94.6442V94.6761H92.8228V97.4507H78.3121ZM96.9186 101.565L98.0986 97.4507H96.6635V93.3686H100.172V96.781L98.7046 101.565H96.9186ZM111.57 97.8334C107.105 97.8334 103.788 95.5053 103.788 91.2956C103.788 88.0427 106.02 86.4162 107.806 85.7783V85.7465C106.403 85.2362 104.426 83.5778 104.426 80.9627C104.426 77.3908 107.519 75.1265 111.57 75.1265C115.62 75.1265 118.713 77.3908 118.713 80.9627C118.713 83.5778 116.704 85.2362 115.301 85.7465V85.7783C117.087 86.3843 119.319 88.0427 119.319 91.2956C119.319 95.5053 116.034 97.8334 111.57 97.8334ZM111.57 95.1226C114.344 95.1226 116.034 93.4961 116.034 91.1042C116.034 88.7762 114.121 87.2135 111.57 87.2135C109.018 87.2135 107.105 88.7762 107.105 91.1042C107.105 93.4961 108.795 95.1226 111.57 95.1226ZM111.57 84.694C113.77 84.694 115.46 83.1951 115.46 81.2178C115.46 79.2087 113.93 77.7735 111.57 77.7735C109.21 77.7735 107.647 79.2087 107.647 81.2178C107.647 83.1951 109.337 84.694 111.57 84.694ZM122.63 97.4507V94.708L124.321 93.5918C130.093 89.8605 133.824 86.48 133.824 81.8557C133.824 79.4 132.453 77.8692 130.029 77.8692C127.637 77.8692 126.011 79.3681 126.011 82.0789C126.011 82.6849 126.075 83.1951 126.17 83.6735L122.79 83.2589C122.758 83.0038 122.694 82.5573 122.694 81.9195C122.694 77.7098 125.724 75.1584 130.061 75.1584C134.526 75.1584 137.205 77.5822 137.205 81.6962C137.205 86.9583 133.346 90.6897 128.498 93.7194L127.031 94.6442V94.6761H137.141V97.4507H122.63ZM140.663 97.4507V94.708L142.353 93.5918C148.125 89.8605 151.857 86.48 151.857 81.8557C151.857 79.4 150.485 77.8692 148.062 77.8692C145.67 77.8692 144.043 79.3681 144.043 82.0789C144.043 82.6849 144.107 83.1951 144.203 83.6735L140.822 83.2589C140.79 83.0038 140.727 82.5573 140.727 81.9195C140.727 77.7098 143.756 75.1584 148.093 75.1584C152.558 75.1584 155.237 77.5822 155.237 81.6962C155.237 86.9583 151.378 90.6897 146.531 93.7194L145.064 94.6442V94.6761H155.173V97.4507H140.663Z" fill="#222222"/>
<path d="M158.918 97.4507V93.3686H162.427V97.4507H158.918ZM173.509 97.8334C168.949 97.8334 165.919 95.2183 165.664 91.0086L168.885 90.4983C169.076 93.5599 170.99 95.1864 173.573 95.1864C176.38 95.1864 178.038 93.5918 178.038 91.1999C178.038 88.9356 176.475 87.3729 173.414 87.3729C172.553 87.3729 172.01 87.4048 171.405 87.4367V84.7897C171.915 84.8216 172.489 84.8216 173.382 84.8216C175.933 84.8216 177.591 83.4503 177.591 81.2178C177.591 79.3043 176.188 77.8373 173.669 77.8373C171.022 77.8373 169.395 79.5276 169.204 82.2703L166.015 81.7281C166.206 77.7735 169.236 75.1584 173.733 75.1584C177.942 75.1584 180.908 77.2633 180.908 80.9946C180.908 83.8648 178.963 85.2681 177.177 85.9059V85.9378C179.664 86.5437 181.387 88.3616 181.387 91.2318C181.387 95.2821 178.197 97.8334 173.509 97.8334ZM191.845 97.8334C187.635 97.8334 185.499 95.2821 184.925 92.2523L188.146 91.6783C188.465 93.7194 189.708 95.2183 192.005 95.2183C195.8 95.2183 197.075 91.168 197.075 86.5119L197.043 86.48C196.342 88.0427 194.46 89.5735 191.686 89.5735C187.348 89.5735 184.669 86.5119 184.669 82.4616C184.669 78.3795 187.572 75.1584 192.164 75.1584C197.809 75.1584 200.296 79.7827 200.296 86.0335C200.296 93.815 197.043 97.8334 191.845 97.8334ZM192.068 86.9583C194.652 86.9583 196.501 85.0448 196.501 82.4616C196.501 79.7189 194.556 77.8054 192.1 77.8054C189.804 77.8054 187.859 79.4319 187.859 82.4297C187.859 85.5551 189.836 86.9583 192.068 86.9583Z" fill="#7D7D7D"/>
<path d="M64.2797 114.265L66.2685 117.213C66.6027 117.708 66.3193 118.462 65.799 118.462H61.5779C61.0576 118.462 60.7742 117.707 61.1084 117.213L63.0972 114.265C63.4056 113.808 63.9713 113.808 64.2797 114.265Z" fill="#40B66B"/>
<path d="M74.9968 120.796V119.813C73.4844 119.692 72.5791 118.743 72.4908 117.363L73.6389 117.175C73.6941 118.124 74.1467 118.765 74.9968 118.897V116.226L74.8091 116.17C73.5175 115.806 72.7668 115.166 72.7668 114.062C72.7668 112.947 73.5948 112.097 74.9968 111.975V110.993H75.7143V111.987C77.017 112.108 77.7345 112.881 77.867 114.04L76.7189 114.216C76.6416 113.521 76.3215 113.046 75.7143 112.903V115.298L76.0676 115.398C77.315 115.74 78.0657 116.336 78.0657 117.528C78.0657 118.875 77.0832 119.681 75.7143 119.802V120.796H74.9968ZM73.9149 113.985C73.9149 114.57 74.2792 114.868 74.9968 115.1V112.881C74.3123 112.98 73.9149 113.444 73.9149 113.985ZM75.7143 118.908C76.476 118.798 76.9176 118.334 76.9176 117.639C76.9176 116.987 76.5202 116.656 75.7143 116.413V118.908ZM80.8269 119.692V114.548H78.9833V113.742H79.1047C80.297 113.742 81.0035 113.422 81.0035 112.174V112.097H81.9529V119.692H80.8269ZM86.0798 119.824C84.5895 119.824 83.6511 118.974 83.4193 117.716L84.5674 117.528C84.722 118.29 85.2298 118.886 86.1129 118.886C87.0513 118.886 87.6805 118.191 87.6805 117.164C87.6805 116.193 87.1506 115.475 86.2123 115.475C85.4506 115.475 84.9538 116.016 84.7661 116.446L83.6622 116.281L83.9602 112.097H88.2877V113.113H84.9096L84.7661 115.21H84.7772C85.1194 114.846 85.6603 114.548 86.4 114.548C87.9455 114.548 88.8286 115.696 88.8286 117.12C88.8286 118.61 87.7357 119.824 86.0798 119.824ZM92.6828 119.824C90.7288 119.824 89.8677 118.224 89.8677 116.071C89.8677 113.366 90.9827 111.975 92.7932 111.975C94.2504 111.975 94.99 112.87 95.1887 113.907L94.0737 114.106C93.9633 113.4 93.5218 112.892 92.738 112.892C91.4353 112.892 90.9717 114.283 90.9717 115.894L90.9827 115.905C91.2366 115.365 91.8769 114.835 92.8373 114.835C94.3497 114.835 95.277 115.894 95.277 117.296C95.277 118.71 94.2724 119.824 92.6828 119.824ZM92.7048 118.919C93.4886 118.919 94.162 118.345 94.162 117.319C94.162 116.226 93.4776 115.751 92.7159 115.751C91.8217 115.751 91.1814 116.402 91.1814 117.296C91.1814 118.246 91.8548 118.919 92.7048 118.919ZM96.4891 119.692V118.279H97.7034V119.692H96.4891ZM101.491 119.824C99.5918 119.824 98.6645 118.069 98.6645 115.905C98.6645 113.642 99.5918 111.987 101.491 111.987C103.378 111.987 104.306 113.642 104.306 115.905C104.306 118.169 103.378 119.824 101.491 119.824ZM101.491 118.908C102.672 118.908 103.124 117.661 103.124 115.905C103.124 114.161 102.672 112.914 101.491 112.914C100.309 112.914 99.8567 114.161 99.8567 115.905C99.8567 117.661 100.309 118.908 101.491 118.908ZM107.013 119.692V114.548H105.17V113.742H105.291C106.483 113.742 107.19 113.422 107.19 112.174V112.097H108.139V119.692H107.013Z" fill="#7D7D7D"/>
<path d="M114.607 121.271C113.68 120.023 113.051 118.467 113.051 116.678C113.051 114.89 113.68 113.344 114.607 112.097H115.535C114.674 113.422 114.122 114.779 114.122 116.678C114.122 118.577 114.674 119.946 115.535 121.271H114.607ZM118.822 119.824C116.923 119.824 115.996 118.069 115.996 115.905C115.996 113.642 116.923 111.987 118.822 111.987C120.71 111.987 121.637 113.642 121.637 115.905C121.637 118.169 120.71 119.824 118.822 119.824ZM118.822 118.908C120.003 118.908 120.456 117.661 120.456 115.905C120.456 114.161 120.003 112.914 118.822 112.914C117.641 112.914 117.188 114.161 117.188 115.905C117.188 117.661 117.641 118.908 118.822 118.908ZM122.639 119.692V118.279H123.854V119.692H122.639ZM127.684 119.824C125.73 119.824 124.869 118.224 124.869 116.071C124.869 113.366 125.984 111.975 127.794 111.975C129.251 111.975 129.991 112.87 130.19 113.907L129.075 114.106C128.964 113.4 128.523 112.892 127.739 112.892C126.436 112.892 125.973 114.283 125.973 115.894L125.984 115.905C126.238 115.365 126.878 114.835 127.838 114.835C129.351 114.835 130.278 115.894 130.278 117.296C130.278 118.71 129.273 119.824 127.684 119.824ZM127.706 118.919C128.49 118.919 129.163 118.345 129.163 117.319C129.163 116.226 128.479 115.751 127.717 115.751C126.823 115.751 126.182 116.402 126.182 117.296C126.182 118.246 126.856 118.919 127.706 118.919ZM133.897 119.824C132.44 119.824 131.7 118.941 131.501 117.893L132.616 117.694C132.727 118.4 133.157 118.919 133.952 118.919C135.266 118.919 135.707 117.517 135.707 115.905L135.696 115.894C135.453 116.435 134.802 116.965 133.842 116.965C132.34 116.965 131.413 115.905 131.413 114.503C131.413 113.09 132.417 111.975 134.007 111.975C135.961 111.975 136.822 113.576 136.822 115.74C136.822 118.434 135.696 119.824 133.897 119.824ZM133.974 116.06C134.868 116.06 135.509 115.398 135.509 114.503C135.509 113.554 134.835 112.892 133.985 112.892C133.19 112.892 132.517 113.455 132.517 114.492C132.517 115.574 133.201 116.06 133.974 116.06ZM139.424 116.424C138.265 116.424 137.768 115.464 137.768 114.216C137.768 113.002 138.265 112.02 139.424 112.02C140.594 112.02 141.102 112.991 141.102 114.216C141.102 115.453 140.594 116.424 139.424 116.424ZM139.424 115.729C139.976 115.729 140.186 115.133 140.186 114.216C140.186 113.3 139.976 112.715 139.424 112.715C138.894 112.715 138.685 113.289 138.685 114.216C138.685 115.144 138.894 115.729 139.424 115.729ZM139.557 119.692L143.465 112.097H144.403L140.495 119.692H139.557ZM144.547 119.769C143.387 119.769 142.891 118.809 142.891 117.561C142.891 116.347 143.387 115.365 144.547 115.365C145.717 115.365 146.224 116.336 146.224 117.561C146.224 118.798 145.717 119.769 144.547 119.769ZM144.547 119.074C145.098 119.074 145.308 118.478 145.308 117.561C145.308 116.645 145.098 116.06 144.547 116.06C144.017 116.06 143.807 116.634 143.807 117.561C143.807 118.489 144.017 119.074 144.547 119.074ZM146.767 121.271C147.628 119.946 148.18 118.577 148.18 116.678C148.18 114.779 147.628 113.422 146.767 112.097H147.694C148.621 113.344 149.25 114.89 149.25 116.678C149.25 118.467 148.621 120.023 147.694 121.271H146.767Z" fill="#7D7D7D"/>
<rect x="56.8772" y="35.8916" width="23.6805" height="23.6805" rx="11.8403" fill="#FFEFFF"/>
<path d="M71.1246 43.784C70.8769 43.784 70.7065 43.5358 70.7841 43.3006C70.9212 42.8854 71.006 42.524 71.006 42.2657C71.006 40.9245 69.9814 39.8373 68.7175 39.8373C67.4535 39.8373 66.4289 40.9245 66.4289 42.2657C66.4289 42.5239 66.5138 42.8853 66.6508 43.3005C66.7284 43.5358 66.558 43.784 66.3102 43.784C66.204 43.784 66.1038 43.736 66.0351 43.6549C65.7591 43.3292 65.502 43.0762 65.2879 42.9483C64.1653 42.2777 62.7429 42.6521 62.1109 43.7846C61.4789 44.917 61.8767 46.3787 62.9994 47.0493C63.3072 47.2332 63.8761 47.3674 64.5397 47.4655C64.6716 47.485 64.7706 47.5974 64.7706 47.7308C64.7706 47.8642 64.6716 47.9766 64.5397 47.9961C63.8761 48.0941 63.3072 48.2284 62.9994 48.4123C61.8767 49.0829 61.4789 50.5445 62.1109 51.677C62.7429 52.8094 64.1653 53.1839 65.2879 52.5133C65.502 52.3854 65.7591 52.1324 66.0351 51.8066C66.1038 51.7256 66.204 51.6775 66.3102 51.6775C66.558 51.6775 66.7284 51.9258 66.6508 52.1611C66.5138 52.5763 66.4289 52.9376 66.4289 53.1959C66.4289 54.537 67.4535 55.6243 68.7175 55.6243C69.9814 55.6243 71.006 54.537 71.006 53.1959C71.006 52.9376 70.9212 52.5762 70.7841 52.161C70.7065 51.9257 70.8769 51.6775 71.1246 51.6775C71.2307 51.6775 71.331 51.7256 71.3996 51.8066C71.6756 52.1324 71.9327 52.3854 72.1468 52.5132C73.2695 53.1838 74.6919 52.8094 75.3238 51.677C75.9558 50.5445 75.558 49.0828 74.4353 48.4122C74.1275 48.2284 73.5587 48.0941 72.895 47.996C72.7631 47.9766 72.6641 47.8641 72.6641 47.7308C72.6641 47.5974 72.7631 47.485 72.895 47.4655C73.5587 47.3675 74.1275 47.2332 74.4353 47.0493C75.558 46.3787 75.9558 44.9171 75.3238 43.7846C74.6919 42.6521 73.2695 42.2777 72.1468 42.9483C71.9327 43.0762 71.6756 43.3292 71.3996 43.655C71.331 43.736 71.2307 43.784 71.1246 43.784Z" fill="#FC72FF"/>
<path d="M88.0473 51.3643C86.7888 51.3643 86.1486 50.5694 86.1486 49.322V45.7783H87.2415V48.9467C87.2415 49.874 87.4622 50.448 88.3454 50.448C89.1954 50.448 89.7253 49.7084 89.7253 48.8694V45.7783H90.8182V51.2318H89.7364V50.4591H89.7253C89.361 51.011 88.787 51.3643 88.0473 51.3643ZM92.3167 51.2318V45.7783H93.3985V46.5511H93.4096C93.7187 46.0764 94.3258 45.6459 95.1538 45.6459C96.3681 45.6459 97.0857 46.3745 97.0857 47.6992V51.2318H95.9928V48.1739C95.9928 47.1914 95.772 46.5621 94.8557 46.5621C93.9394 46.5621 93.4096 47.3018 93.4096 48.1849V51.2318H92.3167ZM98.5371 51.2318V45.7783H99.63V51.2318H98.5371ZM98.5371 44.9283V43.6367H99.63V44.9283H98.5371ZM103.476 51.3643C101.875 51.3643 100.793 50.2051 100.793 48.494C100.793 46.816 101.875 45.6459 103.487 45.6459C104.9 45.6459 105.683 46.4738 105.971 47.5005L104.867 47.7654C104.723 47.081 104.304 46.518 103.487 46.518C102.615 46.518 101.941 47.2135 101.941 48.494C101.941 49.7967 102.592 50.4922 103.509 50.4922C104.27 50.4922 104.745 50.0175 104.922 49.2447L106.015 49.5097C105.683 50.5363 104.922 51.3643 103.476 51.3643ZM109.394 51.3643C107.672 51.3643 106.701 50.0727 106.701 48.5051C106.701 46.9485 107.672 45.6459 109.394 45.6459C111.128 45.6459 112.11 46.9485 112.11 48.5051C112.11 50.0727 111.128 51.3643 109.394 51.3643ZM109.405 50.4922C110.465 50.4922 110.962 49.598 110.962 48.5051C110.962 47.4232 110.465 46.518 109.405 46.518C108.335 46.518 107.838 47.4122 107.838 48.5051C107.838 49.609 108.335 50.4922 109.405 50.4922ZM113.263 51.2318V45.7783H114.312V46.7829C114.533 46.2089 115.129 45.6459 115.979 45.6459C116.112 45.6459 116.211 45.6569 116.288 45.6679V46.7167C116.2 46.7057 116.09 46.6946 115.913 46.6946C114.997 46.6946 114.345 47.2797 114.345 48.3505V51.2318H113.263ZM117.166 51.2318V45.7783H118.248V46.5511H118.259C118.568 46.0764 119.175 45.6459 120.003 45.6459C121.218 45.6459 121.935 46.3745 121.935 47.6992V51.2318H120.842V48.1739C120.842 47.1914 120.621 46.5621 119.705 46.5621C118.789 46.5621 118.259 47.3018 118.259 48.1849V51.2318H117.166ZM123.287 51.2318V49.8188H124.502V51.2318H123.287ZM128.194 51.3643C126.737 51.3643 125.578 50.3818 125.578 48.5161C125.578 46.7167 126.759 45.6459 128.228 45.6459C129.685 45.6459 130.733 46.7498 130.733 48.4168V48.759H126.682C126.737 49.9954 127.411 50.5142 128.205 50.5142C128.956 50.5142 129.42 50.1389 129.596 49.4324L130.7 49.5759C130.424 50.4922 129.707 51.3643 128.194 51.3643ZM126.693 47.92H129.585C129.552 47.1472 129.011 46.4849 128.228 46.4849C127.422 46.4849 126.803 47.0589 126.693 47.92ZM133.616 51.287C132.921 51.287 132.457 51.011 132.291 50.4591C132.225 50.2935 132.203 50.1168 132.203 49.885V46.6725H131.243V45.7783H132.203V44.0562H133.296V45.7783H134.422V46.6725H133.296V49.7305C133.296 50.2051 133.517 50.3707 133.947 50.3707C134.168 50.3707 134.29 50.3597 134.466 50.3266V51.2097C134.19 51.2539 133.947 51.287 133.616 51.287ZM135.547 51.2318V43.6367H136.64V46.5401H136.651C136.993 46.0102 137.556 45.6459 138.384 45.6459C139.599 45.6459 140.316 46.3745 140.316 47.6992V51.2318H139.223V48.1739C139.223 47.1914 139.002 46.5621 138.086 46.5621C137.17 46.5621 136.64 47.3018 136.64 48.1849V51.2318H135.547Z" fill="#222222"/>
<rect x="20.5086" y="133.24" width="62.3535" height="47.5736" rx="16.7277" fill="#FFEFFF"/>
<rect x="20.5086" y="133.24" width="62.3535" height="47.5736" rx="16.7277" stroke="white" stroke-width="1.8399"/>
<path d="M60.9505 152.909V154.196H42.4204V152.909C42.4204 150.85 43.4499 149.821 45.5088 149.821H57.8621C59.921 149.821 60.9505 150.85 60.9505 152.909ZM60.9505 155.74V161.145C60.9505 163.204 59.921 164.233 57.8621 164.233H45.5088C43.4499 164.233 42.4204 163.204 42.4204 161.145V155.74H60.9505ZM50.3986 160.116C50.3986 159.689 50.0527 159.343 49.6265 159.343H46.5382C46.112 159.343 45.7661 159.689 45.7661 160.116C45.7661 160.542 46.112 160.888 46.5382 160.888H49.6265C50.0527 160.888 50.3986 160.542 50.3986 160.116Z" fill="#FC72FF"/>
<rect x="95.2906" y="133.24" width="62.3535" height="47.5736" rx="16.7277" fill="#FFEFFF"/>
<rect x="95.2906" y="133.24" width="62.3535" height="47.5736" rx="16.7277" stroke="white" stroke-width="1.8399"/>
<path d="M136.166 150.51L132.789 164.017C132.305 165.942 130.658 166.806 129.217 166.806C129.207 166.806 129.196 166.806 129.196 166.806C127.745 166.796 126.087 165.911 125.634 163.965L124.749 160.208L130.288 154.669C130.689 154.268 130.689 153.609 130.288 153.207C129.886 152.806 129.227 152.806 128.826 153.207L123.287 158.746L119.53 157.86C117.584 157.408 116.699 155.75 116.689 154.309C116.678 152.857 117.543 151.19 119.478 150.706L132.985 147.329C133.88 147.103 134.817 147.36 135.476 148.019C136.135 148.678 136.392 149.614 136.166 150.51Z" fill="#FC72FF"/>
<rect x="170.073" y="133.24" width="62.3535" height="47.5736" rx="16.7277" fill="#FFEFFF"/>
<rect x="170.073" y="133.24" width="62.3535" height="47.5736" rx="16.7277" stroke="white" stroke-width="1.8399"/>
<path d="M201.249 146.733C195.564 146.733 190.955 151.342 190.955 157.027C190.955 162.713 195.564 167.322 201.249 167.322C206.935 167.322 211.544 162.713 211.544 157.027C211.544 151.342 206.935 146.733 201.249 146.733ZM204.883 158.602L201.795 161.691C201.724 161.762 201.639 161.818 201.545 161.857C201.451 161.896 201.35 161.917 201.249 161.917C201.148 161.917 201.048 161.896 200.954 161.857C200.859 161.818 200.775 161.762 200.704 161.691L197.615 158.602C197.314 158.301 197.314 157.812 197.615 157.51C197.917 157.208 198.406 157.208 198.708 157.51L200.478 159.281V152.909C200.478 152.483 200.824 152.137 201.25 152.137C201.677 152.137 202.022 152.483 202.022 152.909V159.281L203.793 157.51C204.095 157.208 204.584 157.208 204.885 157.51C205.187 157.812 205.185 158.301 204.883 158.602Z" fill="#FC72FF"/>
<rect x="244.855" y="133.24" width="62.3535" height="47.5736" rx="16.7277" fill="#FFEFFF"/>
<rect x="244.855" y="133.24" width="62.3535" height="47.5736" rx="16.7277" stroke="white" stroke-width="1.8399"/>
<path fill-rule="evenodd" clip-rule="evenodd" d="M266.276 147.272C266.947 146.601 267.857 146.224 268.806 146.224H271.855C272.708 146.224 273.399 146.915 273.399 147.768C273.399 148.621 272.708 149.312 271.855 149.312H268.806C268.676 149.312 268.552 149.364 268.46 149.455C268.368 149.547 268.317 149.672 268.317 149.801V152.851C268.317 153.704 267.625 154.395 266.772 154.395C265.92 154.395 265.228 153.704 265.228 152.851V149.801C265.228 148.852 265.605 147.943 266.276 147.272ZM278.444 147.768C278.444 146.915 279.135 146.224 279.988 146.224H283.037C283.986 146.224 284.896 146.601 285.567 147.272C286.238 147.943 286.615 148.852 286.615 149.801V152.851C286.615 153.704 285.923 154.395 285.07 154.395C284.218 154.395 283.526 153.704 283.526 152.851V149.801C283.526 149.672 283.475 149.547 283.383 149.455C283.291 149.364 283.167 149.312 283.037 149.312H279.988C279.135 149.312 278.444 148.621 278.444 147.768ZM266.772 159.439C267.625 159.439 268.317 160.131 268.317 160.984V164.033C268.317 164.163 268.368 164.287 268.46 164.379C268.552 164.471 268.676 164.522 268.806 164.522H271.855C272.708 164.522 273.399 165.214 273.399 166.066C273.399 166.919 272.708 167.611 271.855 167.611H268.806C267.857 167.611 266.947 167.234 266.276 166.563C265.605 165.892 265.228 164.982 265.228 164.033V160.984C265.228 160.131 265.92 159.439 266.772 159.439ZM285.07 159.439C285.923 159.439 286.615 160.131 286.615 160.984V164.033C286.615 164.982 286.238 165.892 285.567 166.563C284.896 167.234 283.986 167.611 283.037 167.611H279.988C279.135 167.611 278.444 166.919 278.444 166.066C278.444 165.214 279.135 164.522 279.988 164.522H283.037C283.167 164.522 283.291 164.471 283.383 164.379C283.475 164.287 283.526 164.163 283.526 164.033V160.984C283.526 160.131 284.218 159.439 285.07 159.439Z" fill="#FC72FF"/>
</g>
</g>
<defs>
<filter id="filter0_d_1198_17450" x="-1" y="4" width="329.717" height="269" filterUnits="userSpaceOnUse" color-interpolation-filters="sRGB">
<feFlood flood-opacity="0" result="BackgroundImageFix"/>
<feColorMatrix in="SourceAlpha" type="matrix" values="0 0 0 0 0 0 0 0 0 0 0 0 0 0 0 0 0 0 127 0" result="hardAlpha"/>
<feOffset/>
<feGaussianBlur stdDeviation="5"/>
<feComposite in2="hardAlpha" operator="out"/>
<feColorMatrix type="matrix" values="0 0 0 0 0.133333 0 0 0 0 0.133333 0 0 0 0 0.133333 0 0 0 0.04 0"/>
<feBlend mode="normal" in2="BackgroundImageFix" result="effect1_dropShadow_1198_17450"/>
<feBlend mode="normal" in="SourceGraphic" in2="effect1_dropShadow_1198_17450" result="shape"/>
</filter>
<filter id="filter1_d_1198_17450" x="28.9741" y="1.74047" width="256.889" height="278.968" filterUnits="userSpaceOnUse" color-interpolation-filters="sRGB">
<feFlood flood-opacity="0" result="BackgroundImageFix"/>
<feColorMatrix in="SourceAlpha" type="matrix" values="0 0 0 0 0 0 0 0 0 0 0 0 0 0 0 0 0 0 127 0" result="hardAlpha"/>
<feMorphology radius="1.36217" operator="dilate" in="SourceAlpha" result="effect1_dropShadow_1198_17450"/>
<feOffset dy="2.72434"/>
<feGaussianBlur stdDeviation="6.81085"/>
<feComposite in2="hardAlpha" operator="out"/>
<feColorMatrix type="matrix" values="0 0 0 0 0.408333 0 0 0 0 0.408333 0 0 0 0 0.408333 0 0 0 0.05 0"/>
<feBlend mode="normal" in2="BackgroundImageFix" result="effect1_dropShadow_1198_17450"/>
<feBlend mode="normal" in="SourceGraphic" in2="effect1_dropShadow_1198_17450" result="shape"/>
</filter>
<clipPath id="clip0_1198_17450">
<rect width="327" height="215" rx="16" fill="white"/>
</clipPath>
<clipPath id="clip1_1198_17450">
<rect width="35" height="27.8974" fill="white" transform="translate(54.4067 187.045)"/>
</clipPath>
<clipPath id="clip2_1198_17450">
<rect width="38" height="27.8974" fill="white" transform="translate(143.845 187.045)"/>
</clipPath>
</defs>
</svg>
