<?xml version="1.0" encoding="UTF-8"?>
<svg width="1300px" height="440px" viewBox="0 0 1300 440" version="1.1" xmlns="http://www.w3.org/2000/svg" xmlns:xlink="http://www.w3.org/1999/xlink">
    <title>ichi_logo_dark_horizontal</title>
    <defs>
        <linearGradient x1="50%" y1="0%" x2="50%" y2="100%" id="linearGradient-1">
            <stop stop-color="#006EF5" offset="0%"></stop>
            <stop stop-color="#0062DB" offset="100%"></stop>
        </linearGradient>
        <polygon id="path-2" points="0 0 210.249145 0 210.249145 240 0 240"></polygon>
        <polygon id="path-4" points="0 0 96.7397016 0 96.7397016 237.741111 0 237.741111"></polygon>
    </defs>
    <g id="ichi_logo_dark_horizontal" stroke="none" stroke-width="1" fill="none" fill-rule="evenodd">
        <g id="Group" transform="translate(20.000000, 20.000000)">
            <path d="M146.704018,178.287107 L146.704018,94.2459518 C174.313465,99.1399536 205.240364,102.144192 240.004907,102.144192 C274.769451,102.144192 305.686535,99.1399536 333.305797,94.2459518 L333.305797,178.287107 L146.704018,178.287107 Z M240.004907,297.846117 C205.240364,297.846117 174.313465,300.850355 146.704018,305.754048 L146.704018,221.703202 L333.305797,221.703202 L333.305797,305.754048 C305.686535,300.850355 274.769451,297.846117 240.004907,297.846117 L240.004907,297.846117 Z M396.435538,78.0618271 C396.818321,77.9261518 397.191289,77.7807854 397.574072,77.6451101 C425.428893,67.9733997 448.209386,56.4894549 466.337593,45.1314944 C474.945302,39.7432469 480,30.2556672 480,20.1963131 C480,3.91527749 461.616604,-5.59168437 447.993457,3.57608925 C427.362437,17.463425 398.212044,32.329561 358.716696,42.9122342 C357.519272,43.2320402 356.380738,43.5809196 355.1735,43.8910345 C349.706574,45.296243 344.00409,46.5948494 338.144566,47.8159271 C336.368061,48.1938797 334.54248,48.5330679 332.73653,48.8819472 C327.878131,49.8413654 322.882323,50.7135637 317.75892,51.5276155 C316.198344,51.7698928 314.677027,52.0412434 313.087005,52.2738297 C306.422656,53.2429389 299.552193,54.1054462 292.436356,54.822587 C291.209488,54.9388801 289.933545,55.0261 288.687046,55.1423931 C282.533074,55.7141675 276.192618,56.1696489 269.695123,56.5282193 C267.859728,56.6251302 266.024333,56.7317323 264.159493,56.809261 C256.327165,57.1484492 248.327983,57.3810355 240.004907,57.3810355 C231.701462,57.3810355 223.731725,57.1484492 215.928842,56.809261 C213.975667,56.7317323 212.071567,56.6251302 210.167468,56.5185282 C203.915346,56.1696489 197.820264,55.7335497 191.892036,55.1811574 C190.370719,55.0454821 188.819957,54.9388801 187.328085,54.7935137 C180.447807,54.0957551 173.822718,53.2623211 167.364482,52.3222851 C165.234639,52.0121702 163.19313,51.6632908 161.102546,51.3241026 C156.774154,50.6263439 152.543912,49.8801298 148.411819,49.0854602 C145.928637,48.6105966 143.435641,48.1357331 141.021163,47.6221052 C136.830181,46.7305247 132.766793,45.7807976 128.781924,44.8019972 C125.091504,43.8910345 121.518863,42.9413075 117.995297,41.9625071 C80.2470095,31.4670538 52.1762601,17.0757813 32.1145077,3.61485362 C18.4422861,-5.57230219 0,3.88620421 0,20.2156953 C0,30.2653583 5.04488294,39.7335558 13.6329619,45.1218033 C31.7415397,56.4603817 54.4729578,67.9249442 82.2688887,77.5869636 C82.7301912,77.7517122 83.1718638,77.9261518 83.6527962,78.0909004 C89.2178714,80.0000456 95.0381352,81.8025889 100.985993,83.5663677 L100.985993,178.287107 L80.7868316,178.287107 C71.7963398,178.287107 64.503834,185.487589 64.503834,194.36463 C64.503834,209.463352 76.9099274,221.703202 92.1918004,221.703202 L100.985993,221.703202 L100.985993,316.423941 C95.0381352,318.18772 89.2178714,319.999954 83.6527962,321.899409 C83.1718638,322.064157 82.7301912,322.238597 82.2688887,322.413036 C54.4729578,332.075056 31.7415397,343.529927 13.6329619,354.878197 C5.04488294,360.256753 0,369.724951 0,379.784305 C0,396.104105 18.4422861,405.562611 32.1145077,396.385146 C52.1762601,382.914528 80.2470095,368.532946 117.995297,358.027802 C121.518863,357.049001 125.091504,356.099274 128.781924,355.188312 C132.766793,354.209511 136.830181,353.259784 141.021163,352.368204 C143.435641,351.854576 145.928637,351.379712 148.411819,350.904849 C152.543912,350.110179 156.774154,349.363965 161.102546,348.675897 C163.19313,348.336709 165.234639,347.978139 167.364482,347.668024 C173.822718,346.727988 180.447807,345.894554 187.328085,345.206486 C188.819957,345.051429 190.370719,344.944827 191.892036,344.809151 C197.820264,344.26645 203.915346,343.82066 210.167468,343.471781 C212.071567,343.37487 213.975667,343.268268 215.928842,343.181048 C223.731725,342.84186 231.701462,342.609273 240.004907,342.609273 C248.327983,342.609273 256.327165,342.84186 264.159493,343.181048 C266.024333,343.258577 267.859728,343.365179 269.695123,343.46209 C276.192618,343.82066 282.533074,344.276141 288.687046,344.847916 C289.933545,344.964209 291.209488,345.051429 292.436356,345.167722 C299.552193,345.884863 306.422656,346.74737 313.087005,347.72617 C314.677027,347.958757 316.198344,348.220416 317.75892,348.472384 C322.882323,349.276745 327.878131,350.158635 332.73653,351.108362 C334.54248,351.457241 336.368061,351.80612 338.144566,352.174382 C344.00409,353.39546 349.706574,354.694066 355.1735,356.099274 C356.380738,356.409389 357.519272,356.76796 358.716696,357.078075 C398.212044,367.670439 427.362437,382.536575 447.993457,396.423911 C461.616604,405.591684 480,396.084723 480,379.803687 C480,369.734642 474.945302,360.247062 466.337593,354.858815 C448.209386,343.500854 425.428893,332.016909 397.574072,322.345199 C397.191289,322.209523 396.818321,322.064157 396.435538,321.938173 C390.850833,320.019337 385.001125,318.197411 379.014007,316.423941 L379.014007,221.703202 L399.213168,221.703202 C408.20366,221.703202 415.496166,214.50272 415.496166,205.625679 C415.496166,190.526957 403.099888,178.287107 387.798385,178.287107 L379.014007,178.287107 L379.014007,83.5663677 C385.001125,81.8025889 390.850833,79.9806635 396.435538,78.0618271 L396.435538,78.0618271 Z" id="Fill-4" fill="url(#linearGradient-1)"></path>
            <g id="Group-11" transform="translate(628.000000, 88.000000)">
                <path d="M87.4011098,1.57629558 L9.34139313,1.57629558 C4.27595394,1.57629558 0,5.86228793 0,10.9370662 L0,28.2878048 C0,33.3625831 4.27340722,37.6485754 9.19877644,37.6460227 C9.20132317,37.6460227 28.4163753,38.1693273 28.4163753,38.1693273 L28.4163753,202.658004 L9.34139313,202.91838 C4.27595394,202.91838 0,207.204373 0,212.279151 L0,229.956636 C0,234.635745 3.62399194,238.551595 8.61812278,239.268905 L8.97721123,239.319959 L87.7652917,239.319959 L88.1218335,239.268905 C93.1159643,238.551595 96.7399562,234.635745 96.7399562,229.956636 L96.7399562,212.279151 C96.7399562,207.204373 92.4614556,202.91838 87.4698715,202.91838 L68.3261277,202.658004 L68.3261277,38.1667746 L87.4011098,37.6485754 C92.4614556,37.6485754 96.7399562,33.3625831 96.7399562,28.2878048 L96.7399562,10.9370662 C96.7399562,5.86228793 92.4614556,1.57629558 87.4011098,1.57629558" id="Fill-1" fill="#090f16"></path>
                <g id="Group-5" transform="translate(102.809001, 0.000000)">
                    <mask id="mask-3" fill="white">
                        <use xlink:href="#path-2"></use>
                    </mask>
                    <g id="Clip-4"></g>
                    <path d="M193.252294,176.912694 C191.260754,174.913926 188.520476,173.770314 185.731811,173.770314 C183.215645,173.770314 180.862469,174.694393 179.074667,176.379179 C163.544729,189.124837 144.749886,195.858874 124.707148,195.858874 C85.7982593,195.858874 45.0353535,168.289655 44.1745599,122.136742 C43.6906819,99.5555102 50.8571705,80.0171031 64.8998209,65.6402664 C78.6725183,51.5340164 97.770421,43.7635812 118.671406,43.7635812 C139.38648,43.7635812 159.660971,51.3323527 177.19009,65.5585798 C179.082308,67.1821004 181.471137,68.0781 183.918541,68.0781 C186.954239,68.0781 189.857508,66.7200608 191.734445,64.517076 L205.993567,49.2467924 C210.205853,45.0169595 210.063237,38.2522903 205.507143,33.6931584 C181.886254,11.9645302 151.69481,0 120.494862,0 C87.5860614,0 55.7850865,13.1591963 33.2516496,36.1029123 C10.9881657,58.7683835 -0.502664628,88.4716634 0.0168675968,121.970816 C0.732497769,195.851216 63.1094721,240.000255 123.003388,240.000255 C154.295018,240.000255 184.078985,228.102095 206.974057,206.391336 C211.206717,202.143634 211.346787,195.381518 207.335692,191.358454 L193.252294,176.912694 Z" id="Fill-3" fill="#090f16" mask="url(#mask-3)"></path>
                </g>
                <path d="M494.957077,0.594014544 L475.034035,0.594014544 C469.619694,0.594014544 465.058507,4.93871912 464.419278,10.7027279 L464.391264,10.9579984 L463.459162,105.99522 L381.439286,105.701659 L380.507184,10.9579984 L380.47917,10.7027279 C379.839941,4.93871912 375.276207,0.594014544 369.861867,0.594014544 L349.941371,0.594014544 C344.249437,0.594014544 339.619488,5.38033715 339.619488,11.2643231 L339.619488,229.303654 C339.619488,235.287195 344.152662,239.973962 349.941371,239.973962 L369.861867,239.973962 C375.429011,239.973962 379.895969,235.700734 380.484263,229.80909 L380.507184,229.587004 L381.431646,146.013982 L463.466802,146.013982 L464.391264,229.587004 L464.414185,229.80909 C464.999932,235.700734 469.46689,239.973962 475.034035,239.973962 L494.957077,239.973962 C500.74324,239.973962 505.276413,235.287195 505.276413,229.303654 L505.276413,11.2643231 C505.276413,5.38033715 500.646464,0.594014544 494.957077,0.594014544" id="Fill-6" fill="#090f16"></path>
                <g id="Group-10" transform="translate(535.260298, 1.577317)">
                    <mask id="mask-5" fill="white">
                        <use xlink:href="#path-4"></use>
                    </mask>
                    <g id="Clip-9"></g>
                    <path d="M87.4011098,36.0722799 C92.4614556,36.0722799 96.7399562,31.7862875 96.7399562,26.7115092 L96.7399562,9.36077066 C96.7399562,4.28599235 92.4614556,0 87.4011098,0 L9.34139313,0 C4.27595394,0 0,4.28599235 0,9.36077066 L0,26.7115092 C0,31.7837348 4.27340722,36.0722799 9.19877644,36.0697271 C9.20132317,36.0697271 28.4163753,36.5930318 28.4163753,36.5930318 L28.4163753,201.081709 L9.34139313,201.339532 C4.27595394,201.339532 0,205.628077 0,210.702856 L0,228.38034 C0,233.059449 3.62399194,236.975299 8.61812278,237.690057 L8.97721123,237.741111 L87.7652917,237.741111 L88.1218335,237.690057 C93.1159643,236.975299 96.7399562,233.059449 96.7399562,228.38034 L96.7399562,210.702856 C96.7399562,205.628077 92.4614556,201.339532 87.4698715,201.339532 L68.323581,201.081709 L68.323581,36.590479 L87.4011098,36.0722799 Z" id="Fill-8" fill="#090f16" mask="url(#mask-5)"></path>
                </g>
            </g>
        </g>
    </g>
</svg>