<svg width="21" height="21" viewBox="0 0 21 21" fill="none" xmlns="http://www.w3.org/2000/svg">
<path fill-rule="evenodd" clip-rule="evenodd" d="M0 13.8186V10.2534C0 4.59058 4.59058 0 10.2534 0C13.0465 0 15.5788 1.11685 17.428 2.92835L15.2483 4.29038C13.897 3.15725 12.1548 2.47495 10.2534 2.47495C5.95746 2.47495 2.47495 5.95746 2.47495 10.2534H4.94988L0 13.8186ZM5.22096 16.1846C6.57745 17.3367 8.3343 18.0318 10.2535 18.0318C14.5494 18.0318 18.0319 14.5493 18.0319 10.2534H15.5569L20.5066 6.62936L20.5068 10.2534C20.5068 15.9162 15.9163 20.5067 10.2535 20.5067C7.44302 20.5067 4.89667 19.376 3.04452 17.5446L5.22096 16.1846ZM14.1868 13.6564H11.3583L10.2535 12.164L9.1487 13.6564H6.3202L8.88265 10.3122L6.31997 6.85035H8.9717L10.2535 8.52317L11.5353 6.85035H14.187L11.6243 10.3122L14.1868 13.6564Z" fill="url(#paint0_linear_403:14)"/>
<defs>
<linearGradient id="paint0_linear_403:14" x1="20.1013" y1="20.5067" x2="-0.868933" y2="20.5067" gradientUnits="userSpaceOnUse">
<stop stop-color="white"/>
<stop offset="0.916667" stop-color="#DCD8FE"/>
</linearGradient>
</defs>
</svg>
