<svg width="24" height="24" viewBox="0 0 24 24" fill="none" xmlns="http://www.w3.org/2000/svg">
<path d="M2 7C2 5.89543 2.89543 5 4 5H20C21.1046 5 22 5.89543 22 7V18C22 19.1046 21.1046 20 20 20H4C2.89543 20 2 19.1046 2 18V7Z" stroke="currentColor" stroke-width="2"/>
<path d="M4 19H20C21.1046 19 22 18.1046 22 17V14C22 12.8954 21.1046 12 20 12H16C15.4477 12 14.9935 12.4624 14.7645 12.965C14.4438 13.6688 13.789 14.5 12 14.5C10.29 14.5 9.48213 13.7406 9.1936 13.0589C8.96576 12.5206 8.49905 12 7.91447 12H4C2.89543 12 2 12.8954 2 14V17C2 18.1046 2.89543 19 4 19Z" fill="currentColor"/>
<path d="M22 13V11C22 9.89543 21.1034 9 19.9989 9C14.0294 9 9.97062 9 4.00115 9C2.89658 9 2 9.89543 2 11V13" stroke="currentColor" stroke-width="2"/>
</svg>
