<svg width="16" height="16" viewBox="0 0 16 16" fill="none" xmlns="http://www.w3.org/2000/svg">
<path d="M4.87322 3.76996C5.06311 3.55295 5.33743 3.42847 5.62579 3.42847L10.8215 3.42847C11.1099 3.42847 11.3842 3.55295 11.5741 3.76996L13.9134 6.44344C14.2565 6.83557 14.241 7.42544 13.8778 7.79903L8.94064 12.8772C8.54796 13.2811 7.89932 13.2811 7.50665 12.8772L2.56951 7.79903C2.2063 7.42544 2.19081 6.83557 2.53392 6.44344L4.87322 3.76996Z" fill="#4C82FB"/>
<path d="M8.00921 10.3998C7.8023 10.3998 7.63351 10.3113 7.48105 10.1066L6.14702 8.45813C6.04901 8.33642 6 8.20366 6 8.06536C6 7.78323 6.2178 7.55089 6.50094 7.55089C6.66974 7.55089 6.80042 7.61727 6.93654 7.7943L7.98743 9.14962L10.2417 5.48749C10.356 5.2994 10.5139 5.19983 10.6827 5.19983C10.955 5.19983 11.2 5.39345 11.2 5.68111C11.2 5.80834 11.1401 5.94664 11.0584 6.07387L8.51016 10.1066C8.39037 10.3003 8.21068 10.3998 8.00921 10.3998Z" fill="white"/>
</svg>
