<svg width="65" height="12" viewBox="0 0 65 12" fill="none" xmlns="http://www.w3.org/2000/svg">
<g clip-path="url(#clip0_4269_27404)">
<path fill-rule="evenodd" clip-rule="evenodd" d="M11.6095 0L12.8065 1.19703L8.80619 5.19735C8.59532 4.64821 8.15829 4.21118 7.60914 4.00032L11.6095 0ZM6.1184 4.00032L2.11808 0L0.921051 1.19703L4.92137 5.19735C5.13223 4.64821 5.56926 4.21118 6.1184 4.00032ZM4.92137 6.68808L0.921051 10.6884L2.11808 11.8854L6.1184 7.88514C5.56926 7.67427 5.13223 7.23724 4.92137 6.68808ZM7.60914 7.88514L11.6095 11.8854L12.8065 10.6884L8.80619 6.68808C8.59532 7.23724 8.15829 7.67427 7.60914 7.88514Z" fill="#5E5E5E"/>
<path d="M23.6922 9.8053C23.6185 9.8053 23.5707 9.76846 23.5486 9.69478L23.1838 8.51229C23.169 8.48282 23.1507 8.46808 23.1286 8.46808H20.211C20.1889 8.46808 20.1705 8.48282 20.1558 8.51229L19.7911 9.69478C19.769 9.76846 19.7211 9.8053 19.6474 9.8053H18.5423C18.4981 9.8053 18.4649 9.79425 18.4428 9.77215C18.4207 9.74267 18.417 9.70215 18.4318 9.65059L20.8299 2.17985C20.852 2.10617 20.8999 2.06934 20.9736 2.06934H22.3549C22.4286 2.06934 22.4766 2.10617 22.4987 2.17985L24.9078 9.65059C24.9151 9.6653 24.9189 9.68372 24.9189 9.70583C24.9189 9.77215 24.8783 9.8053 24.7972 9.8053H23.6922ZM20.4984 7.3961C20.491 7.44029 20.5057 7.4624 20.5426 7.4624H22.7861C22.8303 7.4624 22.845 7.44029 22.8303 7.3961L21.6919 3.69389C21.6845 3.66442 21.6735 3.64968 21.6588 3.64968C21.644 3.64968 21.633 3.66442 21.6256 3.69389L20.4984 7.3961Z" fill="#5E5E5E"/>
<path d="M29.6695 9.89374C29.1168 9.89374 28.6307 9.78691 28.2107 9.57325C27.7907 9.35222 27.4665 9.04647 27.2381 8.65599C27.0097 8.2655 26.8956 7.81239 26.8956 7.29666V4.56698C26.8956 4.05125 27.0097 3.59814 27.2381 3.20765C27.4665 2.81717 27.7907 2.5151 28.2107 2.30144C28.6307 2.08779 29.1168 1.98096 29.6695 1.98096C30.2147 1.98096 30.6973 2.0841 31.1173 2.29039C31.537 2.49668 31.8613 2.78772 32.0897 3.16346C32.3181 3.53921 32.4322 3.97388 32.4322 4.46753C32.4322 4.50435 32.4175 4.5375 32.388 4.56698C32.3659 4.58908 32.3366 4.60014 32.2998 4.60014L31.2829 4.6554C31.1945 4.6554 31.1503 4.61487 31.1503 4.53382C31.1503 4.09915 31.0141 3.74917 30.7415 3.48395C30.4762 3.2187 30.1189 3.08609 29.6695 3.08609C29.22 3.08609 28.8589 3.2187 28.5865 3.48395C28.3139 3.74917 28.1775 4.09915 28.1775 4.53382V7.35193C28.1775 7.77925 28.3139 8.12553 28.5865 8.39075C28.8589 8.65599 29.22 8.7886 29.6695 8.7886C30.1189 8.7886 30.4762 8.65967 30.7415 8.4018C31.0141 8.13658 31.1503 7.78662 31.1503 7.35193C31.1503 7.27087 31.1945 7.23037 31.2829 7.23037L32.2998 7.27456C32.3366 7.27456 32.3659 7.28561 32.388 7.30771C32.4175 7.32982 32.4322 7.35561 32.4322 7.38508C32.4322 7.88607 32.3181 8.32814 32.0897 8.71125C31.8613 9.087 31.537 9.37801 31.1173 9.5843C30.6973 9.7906 30.2147 9.89374 29.6695 9.89374Z" fill="#5E5E5E"/>
<path d="M39.3659 9.8053C39.2922 9.8053 39.2406 9.77215 39.2112 9.70583L37.7524 6.52303C37.7377 6.49358 37.7156 6.47884 37.6861 6.47884H36.36C36.3232 6.47884 36.3046 6.49726 36.3046 6.53408V9.67267C36.3046 9.70951 36.2899 9.74267 36.2604 9.77215C36.2383 9.79425 36.2088 9.8053 36.172 9.8053H35.1554C35.1185 9.8053 35.0853 9.79425 35.0558 9.77215C35.0337 9.74267 35.0227 9.70951 35.0227 9.67267V2.20196C35.0227 2.16511 35.0337 2.13564 35.0558 2.11354C35.0853 2.08407 35.1185 2.06934 35.1554 2.06934H38.1945C38.644 2.06934 39.0417 2.16511 39.388 2.35667C39.7343 2.54086 40.0032 2.8061 40.1947 3.15238C40.3863 3.49128 40.4821 3.88177 40.4821 4.32381C40.4821 4.83219 40.3495 5.26686 40.0842 5.62787C39.8263 5.98151 39.4655 6.22834 39.0013 6.36831C38.9865 6.36831 38.9754 6.37568 38.968 6.39042C38.9606 6.40516 38.9606 6.41989 38.968 6.43463L40.5263 9.65059C40.5411 9.68004 40.5484 9.70215 40.5484 9.71688C40.5484 9.77583 40.508 9.8053 40.4269 9.8053H39.3659ZM36.36 3.17448C36.3232 3.17448 36.3046 3.19288 36.3046 3.22973V5.42895C36.3046 5.46579 36.3232 5.48421 36.36 5.48421H38.0177C38.3714 5.48421 38.6549 5.38107 38.8686 5.17478C39.0897 4.96111 39.2002 4.68114 39.2002 4.33486C39.2002 3.98859 39.0897 3.70863 38.8686 3.49497C38.6549 3.2813 38.3714 3.17448 38.0177 3.17448H36.36Z" fill="#5E5E5E"/>
<path d="M45.6352 9.91584C45.0825 9.91584 44.5926 9.80534 44.1653 9.5843C43.7381 9.3559 43.4065 9.03542 43.1707 8.62283C42.9423 8.21024 42.8282 7.73504 42.8282 7.19721V4.67748C42.8282 4.14702 42.9459 3.67919 43.1817 3.27397C43.4175 2.86138 43.7455 2.54458 44.1653 2.32355C44.5926 2.09515 45.0825 1.98096 45.6352 1.98096C46.1952 1.98096 46.6851 2.09515 47.1051 2.32355C47.5322 2.54458 47.8638 2.86138 48.0996 3.27397C48.3354 3.67919 48.4533 4.14702 48.4533 4.67748V7.19721C48.4533 7.73504 48.3354 8.21024 48.0996 8.62283C47.8638 9.03542 47.5322 9.3559 47.1051 9.5843C46.6851 9.80534 46.1952 9.91584 45.6352 9.91584ZM45.6352 8.8107C46.0994 8.8107 46.4714 8.66704 46.7514 8.37969C47.0314 8.09237 47.1714 7.71294 47.1714 7.24142V4.66643C47.1714 4.18755 47.0314 3.80443 46.7514 3.5171C46.4714 3.22976 46.0994 3.08609 45.6352 3.08609C45.1783 3.08609 44.8099 3.22976 44.5301 3.5171C44.2501 3.80443 44.1101 4.18755 44.1101 4.66643V7.24142C44.1101 7.71294 44.2501 8.09237 44.5301 8.37969C44.8099 8.66704 45.1783 8.8107 45.6352 8.8107Z" fill="#5E5E5E"/>
<path d="M53.5933 9.89374C53.0185 9.89374 52.5175 9.80165 52.0901 9.61746C51.6629 9.43327 51.3314 9.1754 51.0956 8.84386C50.8672 8.51233 50.7531 8.12184 50.7531 7.67241V7.39614C50.7531 7.35929 50.764 7.32982 50.7861 7.30771C50.8156 7.27824 50.8488 7.2635 50.8857 7.2635H51.8693C51.9061 7.2635 51.9356 7.27824 51.9575 7.30771C51.9869 7.32982 52.0017 7.35929 52.0017 7.39614V7.60611C52.0017 7.94502 52.1528 8.22866 52.4549 8.45706C52.7571 8.67809 53.1695 8.7886 53.6926 8.7886C54.1421 8.7886 54.4811 8.69283 54.7095 8.50127C54.9377 8.30971 55.052 8.06289 55.052 7.76083C55.052 7.55454 54.9893 7.3814 54.864 7.24142C54.7387 7.09405 54.5583 6.96144 54.3225 6.84357C54.0941 6.72567 53.748 6.57833 53.2838 6.4015C52.7606 6.20995 52.3371 6.02944 52.0128 5.85999C51.6886 5.69054 51.416 5.46214 51.1949 5.17481C50.9815 4.88009 50.8745 4.5154 50.8745 4.08073C50.8745 3.43237 51.1103 2.92033 51.5819 2.54458C52.0533 2.16883 52.6834 1.98096 53.4716 1.98096C54.0242 1.98096 54.5105 2.07674 54.9303 2.26828C55.3577 2.45984 55.6893 2.72877 55.9251 3.07504C56.1608 3.41395 56.2787 3.80812 56.2787 4.25755V4.44542C56.2787 4.48224 56.264 4.5154 56.2345 4.54487C56.2124 4.56698 56.1829 4.57803 56.1461 4.57803H55.1514C55.1145 4.57803 55.0815 4.56698 55.052 4.54487C55.0299 4.5154 55.0187 4.48224 55.0187 4.44542V4.32384C55.0187 3.97757 54.8752 3.68656 54.5878 3.45079C54.3078 3.20765 53.9173 3.08609 53.4164 3.08609C53.0112 3.08609 52.6943 3.17083 52.4659 3.34028C52.2448 3.50974 52.1343 3.74917 52.1343 4.05862C52.1343 4.27965 52.1933 4.46016 52.3112 4.60014C52.4291 4.74012 52.6059 4.86904 52.8417 4.98694C53.0775 5.09744 53.4421 5.2411 53.9358 5.41793C54.4589 5.61685 54.8752 5.79736 55.1846 5.95944C55.5015 6.12155 55.7703 6.34993 55.9914 6.64464C56.2198 6.93197 56.3339 7.29298 56.3339 7.72767C56.3339 8.39075 56.0872 8.91752 55.5935 9.30801C55.1072 9.69849 54.4404 9.89374 53.5933 9.89374Z" fill="#5E5E5E"/>
<path d="M61.3381 9.89374C60.7636 9.89374 60.2625 9.80165 59.8352 9.61746C59.408 9.43327 59.0764 9.1754 58.8406 8.84386C58.6122 8.51233 58.4981 8.12184 58.4981 7.67241V7.39614C58.4981 7.35929 58.5091 7.32982 58.5312 7.30771C58.5606 7.27824 58.5937 7.2635 58.6305 7.2635H59.6141C59.6509 7.2635 59.6804 7.27824 59.7025 7.30771C59.732 7.32982 59.7467 7.35929 59.7467 7.39614V7.60611C59.7467 7.94502 59.8979 8.22866 60.2 8.45706C60.5019 8.67809 60.9145 8.7886 61.4377 8.7886C61.8872 8.7886 62.2259 8.69283 62.4543 8.50127C62.6827 8.30971 62.7971 8.06289 62.7971 7.76083C62.7971 7.55454 62.7343 7.3814 62.6091 7.24142C62.4838 7.09405 62.3034 6.96144 62.0676 6.84357C61.8392 6.72567 61.4928 6.57833 61.0288 6.4015C60.5057 6.20995 60.0821 6.02944 59.7579 5.85999C59.4337 5.69054 59.1611 5.46214 58.94 5.17481C58.7263 4.88009 58.6196 4.5154 58.6196 4.08073C58.6196 3.43237 58.8554 2.92033 59.327 2.54458C59.7983 2.16883 60.4282 1.98096 61.2166 1.98096C61.7693 1.98096 62.2554 2.07674 62.6754 2.26828C63.1027 2.45984 63.4343 2.72877 63.6701 3.07504C63.9059 3.41395 64.0238 3.80812 64.0238 4.25755V4.44542C64.0238 4.48224 64.0091 4.5154 63.9796 4.54487C63.9575 4.56698 63.928 4.57803 63.8912 4.57803H62.8964C62.8596 4.57803 62.8265 4.56698 62.7971 4.54487C62.775 4.5154 62.7638 4.48224 62.7638 4.44542V4.32384C62.7638 3.97757 62.6202 3.68656 62.3328 3.45079C62.0528 3.20765 61.6623 3.08609 61.1615 3.08609C60.7562 3.08609 60.4394 3.17083 60.211 3.34028C59.9899 3.50974 59.8794 3.74917 59.8794 4.05862C59.8794 4.27965 59.9383 4.46016 60.0562 4.60014C60.1741 4.74012 60.3509 4.86904 60.5867 4.98694C60.8225 5.09744 61.1872 5.2411 61.6808 5.41793C62.204 5.61685 62.6202 5.79736 62.9297 5.95944C63.2463 6.12155 63.5154 6.34993 63.7364 6.64464C63.9648 6.93197 64.079 7.29298 64.079 7.72767C64.079 8.39075 63.8322 8.91752 63.3385 9.30801C62.8522 9.69849 62.1855 9.89374 61.3381 9.89374Z" fill="#5E5E5E"/>
</g>
<defs>
<clipPath id="clip0_4269_27404">
<rect width="63.1579" height="12" fill="white" transform="translate(0.921051)"/>
</clipPath>
</defs>
</svg>
