<svg xmlns="http://www.w3.org/2000/svg" width="48" height="48" fill="none" viewBox="0 0 16 16">
  <g fill="currentColor">
    <path d="M1.634 12.476a8.024 8.024 0 0 0 5.674 3.296c-.578-.87-1.42-1.672-2.47-2.282-1.05-.61-2.161-.943-3.204-1.014ZM6.25 11.062C4.226 9.887 2.036 9.587.47 10.116c.152.5.351.984.596 1.445 1.361-.031 2.847.338 4.23 1.142 1.383.803 2.44 1.911 3.088 3.11a8.114 8.114 0 0 0 1.551-.2c-.317-1.622-1.663-3.376-3.686-4.551ZM15.89 6.291A8.018 8.018 0 0 0 5.91.493c1.73.212 3.652.862 5.536 1.957 1.885 1.095 3.402 2.442 4.443 3.841ZM13.37 10.128c-.885-1.471-2.403-2.88-4.273-3.967-1.87-1.086-3.845-1.706-5.561-1.747-1.51-.036-2.642.403-3.107 1.203l-.01.014c-.042.15-.078.3-.11.452.649-.257 1.401-.4 2.238-.415 1.86-.035 3.942.56 5.863 1.676 1.921 1.116 3.47 2.63 4.362 4.263.4.736.648 1.46.747 2.152.115-.102.228-.209.337-.319l.008-.016c.465-.8.285-2.002-.493-3.296Z"/>
    <path d="M7.674 8.61C4.811 6.946 1.647 6.686.125 7.847c.003.363.03.726.083 1.085a6.304 6.304 0 0 1 1.376-.254c1.7-.128 3.575.345 5.276 1.334 1.7.99 3.042 2.384 3.773 3.923.202.422.357.865.46 1.32a8.06 8.06 0 0 0 .985-.464c.255-1.898-1.54-4.517-4.404-6.181ZM14.844 7.665c-.897-1.47-2.428-2.883-4.31-3.976C8.65 2.595 6.666 1.965 4.945 1.915c-1.313-.038-2.329.28-2.856.88 2.188-.37 5.074.253 7.872 1.878 2.797 1.625 4.77 3.824 5.53 5.909.261-.755.034-1.796-.649-2.917Z"/>
  </g>
</svg>
