<svg width="63" height="14" viewBox="0 0 63 14" fill="none" xmlns="http://www.w3.org/2000/svg">
<path fill-rule="evenodd" clip-rule="evenodd" d="M45.7768 7.44028H45.587L43.1178 0.279785H40.2256V0.575835L43.7088 10.5754H47.5498L51.0341 0.575835V0.279785H48.2677L45.7757 7.44028H45.7768Z" fill="#131313" fill-opacity="0.35"/>
<path d="M39.456 0.279785H36.5801V10.5743H39.456V0.279785Z" fill="#131313" fill-opacity="0.35"/>
<path fill-rule="evenodd" clip-rule="evenodd" d="M59.5772 0.278916H59.5794L57.0873 7.44158H56.8976L54.4283 0.280001H51.5361V0.578219L55.3197 11.442H51.7368V13.8267H55.2384C56.7338 13.8267 57.8985 13.3224 58.4635 11.7132C58.5394 11.4984 62.3436 0.57605 62.3436 0.57605V0.277832H59.5772V0.278916Z" fill="#131313" fill-opacity="0.35"/>
<path fill-rule="evenodd" clip-rule="evenodd" d="M21.9234 0C20.6156 0 19.3934 0.66584 18.6311 1.91727H18.4543V0.290627H15.7129V13.8232H18.6257V9.26429H18.8046C18.8241 9.2914 18.8436 9.3196 18.8632 9.34237C19.3544 9.93989 20.5017 10.8508 21.9288 10.8508C24.5261 10.8508 26.3024 8.60604 26.3024 5.42649C26.3024 2.24694 24.4382 0 21.9234 0ZM21.0537 8.61905C19.6982 8.61905 18.7623 7.56282 18.7623 5.42758C18.7623 3.29233 19.6982 2.2361 21.0537 2.2361C22.4092 2.2361 23.3907 3.3151 23.3907 5.42758C23.3907 7.54005 22.432 8.61905 21.0537 8.61905Z" fill="#131313" fill-opacity="0.35"/>
<path fill-rule="evenodd" clip-rule="evenodd" d="M33.5271 0.278809C32.177 0.278809 31.3105 0.50437 30.8041 1.91738H30.6306V0.279893H26.4609V2.64395H27.3914C27.6983 2.64395 27.849 2.75239 27.8881 3.00398V4.96897H27.8989V10.5755H30.8117V5.11428C30.8117 3.70019 31.1956 2.83373 32.6097 2.83373H35.6612V0.278809H33.5282H33.5271Z" fill="#131313" fill-opacity="0.35"/>
<path d="M5.42215 10.8477C8.41627 10.8477 10.8443 8.41968 10.8443 5.42557C10.8443 2.43146 8.41627 0.00341797 5.42215 0.00341797C2.42804 0.00341797 0 2.43146 0 5.42557C0 8.41968 2.42804 10.8477 5.42215 10.8477Z" fill="#131313" fill-opacity="0.35"/>
<path d="M5.4223 13.9999C7.46862 13.9999 9.12779 13.6507 9.12779 13.2224C9.12779 12.794 7.4697 12.4448 5.4223 12.4448C3.37489 12.4448 1.7168 12.794 1.7168 13.2224C1.7168 13.6507 3.37489 13.9999 5.4223 13.9999Z" fill="#131313" fill-opacity="0.35"/>
</svg>
