<svg xmlns="http://www.w3.org/2000/svg" width="20" height="20" fill="none" viewBox="0 0 20 20">
  <g filter="url(#a)">
    <path fill="url(#b)" d="M17.654 4.868c0-.69-.56-1.25-1.25-1.25h-2.932c-.69 0-1.25.56-1.25 1.25v5.704a2.5 2.5 0 0 1-.67 1.703l-1.741 1.873c-.898.999-1.115 2.687-.058 3.748 1.013 1.017 2.918.988 3.87 0l3.167-3.32a3.125 3.125 0 0 0 .864-2.158v-7.55Z"/>
    <path fill="url(#c)" d="M17.654 4.868c0-.69-.56-1.25-1.25-1.25h-2.932c-.69 0-1.25.56-1.25 1.25v5.704a2.5 2.5 0 0 1-.67 1.703l-1.741 1.873c-.898.999-1.115 2.687-.058 3.748 1.013 1.017 2.918.988 3.87 0l3.167-3.32a3.125 3.125 0 0 0 .864-2.158v-7.55Z"/>
    <path fill="url(#d)" d="M17.654 4.868c0-.69-.56-1.25-1.25-1.25h-2.932c-.69 0-1.25.56-1.25 1.25v5.704a2.5 2.5 0 0 1-.67 1.703l-1.741 1.873c-.898.999-1.115 2.687-.058 3.748 1.013 1.017 2.918.988 3.87 0l3.167-3.32a3.125 3.125 0 0 0 .864-2.158v-7.55Z"/>
    <path fill="url(#e)" d="M17.654 4.868c0-.69-.56-1.25-1.25-1.25h-2.932c-.69 0-1.25.56-1.25 1.25v5.704a2.5 2.5 0 0 1-.67 1.703l-1.741 1.873c-.898.999-1.115 2.687-.058 3.748 1.013 1.017 2.918.988 3.87 0l3.167-3.32a3.125 3.125 0 0 0 .864-2.158v-7.55Z"/>
    <path fill="url(#f)" d="M17.654 4.868c0-.69-.56-1.25-1.25-1.25h-2.932c-.69 0-1.25.56-1.25 1.25v5.704a2.5 2.5 0 0 1-.67 1.703l-1.741 1.873c-.898.999-1.115 2.687-.058 3.748 1.013 1.017 2.918.988 3.87 0l3.167-3.32a3.125 3.125 0 0 0 .864-2.158v-7.55Z"/>
  </g>
  <g filter="url(#g)">
    <path fill="url(#h)" d="M10.954 2.602c0-.69-.56-1.25-1.25-1.25H6.773c-.69 0-1.25.56-1.25 1.25v5.704a2.5 2.5 0 0 1-.67 1.703l-1.742 1.873c-.898 1-1.115 2.687-.058 3.748 1.014 1.018 2.919.988 3.871 0l3.167-3.32a3.125 3.125 0 0 0 .864-2.157V2.602Z"/>
    <path fill="url(#i)" d="M10.954 2.602c0-.69-.56-1.25-1.25-1.25H6.773c-.69 0-1.25.56-1.25 1.25v5.704a2.5 2.5 0 0 1-.67 1.703l-1.742 1.873c-.898 1-1.115 2.687-.058 3.748 1.014 1.018 2.919.988 3.871 0l3.167-3.32a3.125 3.125 0 0 0 .864-2.157V2.602Z"/>
    <path fill="url(#j)" d="M10.954 2.602c0-.69-.56-1.25-1.25-1.25H6.773c-.69 0-1.25.56-1.25 1.25v5.704a2.5 2.5 0 0 1-.67 1.703l-1.742 1.873c-.898 1-1.115 2.687-.058 3.748 1.014 1.018 2.919.988 3.871 0l3.167-3.32a3.125 3.125 0 0 0 .864-2.157V2.602Z"/>
    <path fill="url(#k)" d="M10.954 2.602c0-.69-.56-1.25-1.25-1.25H6.773c-.69 0-1.25.56-1.25 1.25v5.704a2.5 2.5 0 0 1-.67 1.703l-1.742 1.873c-.898 1-1.115 2.687-.058 3.748 1.014 1.018 2.919.988 3.871 0l3.167-3.32a3.125 3.125 0 0 0 .864-2.157V2.602Z"/>
    <path fill="url(#l)" d="M10.954 2.602c0-.69-.56-1.25-1.25-1.25H6.773c-.69 0-1.25.56-1.25 1.25v5.704a2.5 2.5 0 0 1-.67 1.703l-1.742 1.873c-.898 1-1.115 2.687-.058 3.748 1.014 1.018 2.919.988 3.871 0l3.167-3.32a3.125 3.125 0 0 0 .864-2.157V2.602Z"/>
  </g>
  <path fill="url(#m)" d="M17.654 5.776h-5.431v.673h5.431v-.673Z"/>
  <path fill="url(#n)" d="M17.654 5.776h-5.431v.673h5.431v-.673Z"/>
  <path fill="url(#o)" d="M10.955 3.51H5.523v.674h5.432V3.51Z"/>
  <path fill="url(#p)" d="M10.955 3.51H5.523v.674h5.432V3.51Z"/>
  <path fill="url(#q)" d="M17.606 4.523c.031.11.048.225.048.345v.328h-5.431v-.328c0-.12.016-.236.048-.345h5.335Z"/>
  <path fill="url(#r)" d="M17.606 4.523c.031.11.048.225.048.345v.328h-5.431v-.328c0-.12.016-.236.048-.345h5.335Z"/>
  <path fill="url(#s)" d="M10.907 2.257c.031.11.048.225.048.345v.329H5.523v-.329c0-.12.017-.235.049-.345h5.335Z"/>
  <path fill="url(#t)" d="M10.907 2.257c.031.11.048.225.048.345v.329H5.523v-.329c0-.12.017-.235.049-.345h5.335Z"/>
  <g filter="url(#u)">
    <path fill="url(#v)" d="M17.654 12.236h-3.116a.173.173 0 0 0-.176.17c0 1.255.904 2.3 2.096 2.518l.332-.349a3.125 3.125 0 0 0 .864-2.157v-.182Z"/>
  </g>
  <g filter="url(#w)">
    <path fill="url(#x)" d="M10.955 9.97H7.839a.173.173 0 0 0-.176.17c0 1.255.903 2.3 2.096 2.518l.332-.349a3.125 3.125 0 0 0 .864-2.156V9.97Z"/>
  </g>
  <g filter="url(#y)">
    <path fill="url(#z)" d="M13.243 18.21v-.05a3.424 3.424 0 0 0-3.856-3.397c-.511.986-.496 2.268.366 3.133.892.895 2.474.98 3.49.314Z"/>
  </g>
  <g filter="url(#A)">
    <path fill="url(#B)" d="M6.544 15.944v-.05a3.424 3.424 0 0 0-3.857-3.396c-.51.985-.495 2.267.366 3.132.892.896 2.475.98 3.49.314Z"/>
  </g>
  <defs>
    <linearGradient id="b" x1="17.248" x2="13.193" y1="4.4" y2="16.827" gradientUnits="userSpaceOnUse">
      <stop stop-color="#FDF2FF"/>
      <stop offset="1" stop-color="#FFECFB"/>
    </linearGradient>
    <linearGradient id="c" x1="17.654" x2="15.615" y1="11.854" y2="11.854" gradientUnits="userSpaceOnUse">
      <stop stop-color="#FFCCF1"/>
      <stop offset="1" stop-color="#FFC5EF" stop-opacity="0"/>
    </linearGradient>
    <linearGradient id="f" x1="14.99" x2="13.818" y1="16.932" y2="15.721" gradientUnits="userSpaceOnUse">
      <stop offset=".209" stop-color="#EDB0DF"/>
      <stop offset="1" stop-color="#ECAAED" stop-opacity="0"/>
    </linearGradient>
    <linearGradient id="h" x1="10.549" x2="6.493" y1="2.134" y2="14.562" gradientUnits="userSpaceOnUse">
      <stop stop-color="#FDF2FF"/>
      <stop offset="1" stop-color="#FFECFB"/>
    </linearGradient>
    <linearGradient id="i" x1="10.954" x2="8.915" y1="9.588" y2="9.588" gradientUnits="userSpaceOnUse">
      <stop stop-color="#FFCCF1"/>
      <stop offset="1" stop-color="#FFC5EF" stop-opacity="0"/>
    </linearGradient>
    <linearGradient id="l" x1="8.29" x2="7.119" y1="14.666" y2="13.456" gradientUnits="userSpaceOnUse">
      <stop offset=".209" stop-color="#EDB0DF"/>
      <stop offset="1" stop-color="#ECAAED" stop-opacity="0"/>
    </linearGradient>
    <linearGradient id="m" x1="12.773" x2="16.915" y1="6.449" y2="6.449" gradientUnits="userSpaceOnUse">
      <stop stop-color="#E95FDB"/>
      <stop offset="1" stop-color="#FF46CB"/>
    </linearGradient>
    <linearGradient id="n" x1="12.223" x2="12.793" y1="6.449" y2="6.449" gradientUnits="userSpaceOnUse">
      <stop stop-color="#9F4977"/>
      <stop offset="1" stop-color="#CA5284" stop-opacity="0"/>
    </linearGradient>
    <linearGradient id="o" x1="6.074" x2="10.216" y1="4.184" y2="4.184" gradientUnits="userSpaceOnUse">
      <stop stop-color="#E95FDB"/>
      <stop offset="1" stop-color="#FF46CB"/>
    </linearGradient>
    <linearGradient id="p" x1="5.523" x2="6.094" y1="4.184" y2="4.184" gradientUnits="userSpaceOnUse">
      <stop stop-color="#9F4977"/>
      <stop offset="1" stop-color="#CA5284" stop-opacity="0"/>
    </linearGradient>
    <linearGradient id="q" x1="12.773" x2="16.915" y1="5.196" y2="5.196" gradientUnits="userSpaceOnUse">
      <stop stop-color="#E95FDB"/>
      <stop offset="1" stop-color="#FF46CB"/>
    </linearGradient>
    <linearGradient id="r" x1="12.223" x2="12.793" y1="5.196" y2="5.196" gradientUnits="userSpaceOnUse">
      <stop stop-color="#9F4977"/>
      <stop offset="1" stop-color="#CA5284" stop-opacity="0"/>
    </linearGradient>
    <linearGradient id="s" x1="6.074" x2="10.216" y1="2.931" y2="2.931" gradientUnits="userSpaceOnUse">
      <stop stop-color="#E95FDB"/>
      <stop offset="1" stop-color="#FF46CB"/>
    </linearGradient>
    <linearGradient id="t" x1="5.523" x2="6.094" y1="2.931" y2="2.931" gradientUnits="userSpaceOnUse">
      <stop stop-color="#9F4977"/>
      <stop offset="1" stop-color="#CA5284" stop-opacity="0"/>
    </linearGradient>
    <radialGradient id="d" cx="0" cy="0" r="1" gradientTransform="matrix(2.8125 0 0 6.01563 12.02 8.026)" gradientUnits="userSpaceOnUse">
      <stop stop-color="#FFD1F5"/>
      <stop offset="1" stop-color="#FECAFF" stop-opacity="0"/>
    </radialGradient>
    <radialGradient id="e" cx="0" cy="0" r="1" gradientTransform="matrix(1.54348 -1.53472 2.30642 2.31958 11.806 16.12)" gradientUnits="userSpaceOnUse">
      <stop stop-color="#FFC0FC"/>
      <stop offset="1" stop-color="#FFBCFC" stop-opacity="0"/>
    </radialGradient>
    <radialGradient id="j" cx="0" cy="0" r="1" gradientTransform="matrix(2.8125 0 0 6.01563 5.322 5.76)" gradientUnits="userSpaceOnUse">
      <stop stop-color="#FFD1F5"/>
      <stop offset="1" stop-color="#FECAFF" stop-opacity="0"/>
    </radialGradient>
    <radialGradient id="k" cx="0" cy="0" r="1" gradientTransform="matrix(1.54347 -1.53473 2.30643 2.31957 5.107 13.854)" gradientUnits="userSpaceOnUse">
      <stop stop-color="#FFC0FC"/>
      <stop offset="1" stop-color="#FFBCFC" stop-opacity="0"/>
    </radialGradient>
    <radialGradient id="v" cx="0" cy="0" r="1" gradientTransform="matrix(-.42911 2.50572 -2.20218 -.37713 16.437 12.236)" gradientUnits="userSpaceOnUse">
      <stop offset=".147" stop-color="#FF52CF"/>
      <stop offset="1" stop-color="#FB3FFF"/>
    </radialGradient>
    <radialGradient id="x" cx="0" cy="0" r="1" gradientTransform="matrix(-.42911 2.50572 -2.20218 -.37713 9.738 9.97)" gradientUnits="userSpaceOnUse">
      <stop offset=".147" stop-color="#FF52CF"/>
      <stop offset="1" stop-color="#FB3FFF"/>
    </radialGradient>
    <radialGradient id="z" cx="0" cy="0" r="1" gradientTransform="rotate(167.471 5.464 9.437) scale(4.54024 4.83245)" gradientUnits="userSpaceOnUse">
      <stop offset=".268" stop-color="#FF4EE3"/>
      <stop offset=".92" stop-color="#D12396"/>
    </radialGradient>
    <radialGradient id="B" cx="0" cy="0" r="1" gradientTransform="rotate(167.471 2.239 7.937) scale(4.54024 4.83245)" gradientUnits="userSpaceOnUse">
      <stop offset=".268" stop-color="#FF4EE3"/>
      <stop offset=".92" stop-color="#D12396"/>
    </radialGradient>
    <filter id="a" width="8.808" height="15.23" x="9.045" y="3.418" color-interpolation-filters="sRGB" filterUnits="userSpaceOnUse">
      <feFlood flood-opacity="0" result="BackgroundImageFix"/>
      <feBlend in="SourceGraphic" in2="BackgroundImageFix" result="shape"/>
      <feColorMatrix in="SourceAlpha" result="hardAlpha" values="0 0 0 0 0 0 0 0 0 0 0 0 0 0 0 0 0 0 127 0"/>
      <feOffset dx=".2" dy="-.2"/>
      <feGaussianBlur stdDeviation=".3"/>
      <feComposite in2="hardAlpha" k2="-1" k3="1" operator="arithmetic"/>
      <feColorMatrix values="0 0 0 0 0.522043 0 0 0 0 0.119948 0 0 0 0 0.5875 0 0 0 1 0"/>
      <feBlend in2="shape" result="effect1_innerShadow_6126_86420"/>
    </filter>
    <filter id="g" width="8.808" height="15.23" x="2.346" y="1.152" color-interpolation-filters="sRGB" filterUnits="userSpaceOnUse">
      <feFlood flood-opacity="0" result="BackgroundImageFix"/>
      <feBlend in="SourceGraphic" in2="BackgroundImageFix" result="shape"/>
      <feColorMatrix in="SourceAlpha" result="hardAlpha" values="0 0 0 0 0 0 0 0 0 0 0 0 0 0 0 0 0 0 127 0"/>
      <feOffset dx=".2" dy="-.2"/>
      <feGaussianBlur stdDeviation=".3"/>
      <feComposite in2="hardAlpha" k2="-1" k3="1" operator="arithmetic"/>
      <feColorMatrix values="0 0 0 0 0.545098 0 0 0 0 0.219608 0 0 0 0 0.512549 0 0 0 1 0"/>
      <feBlend in2="shape" result="effect1_innerShadow_6126_86420"/>
    </filter>
    <filter id="u" width="3.541" height="2.688" x="14.112" y="12.236" color-interpolation-filters="sRGB" filterUnits="userSpaceOnUse">
      <feFlood flood-opacity="0" result="BackgroundImageFix"/>
      <feBlend in="SourceGraphic" in2="BackgroundImageFix" result="shape"/>
      <feColorMatrix in="SourceAlpha" result="hardAlpha" values="0 0 0 0 0 0 0 0 0 0 0 0 0 0 0 0 0 0 127 0"/>
      <feOffset dx="-.25"/>
      <feGaussianBlur stdDeviation=".25"/>
      <feComposite in2="hardAlpha" k2="-1" k3="1" operator="arithmetic"/>
      <feColorMatrix values="0 0 0 0 0.976471 0 0 0 0 0.145098 0 0 0 0 0.743686 0 0 0 1 0"/>
      <feBlend in2="shape" result="effect1_innerShadow_6126_86420"/>
    </filter>
    <filter id="w" width="3.541" height="2.688" x="7.413" y="9.97" color-interpolation-filters="sRGB" filterUnits="userSpaceOnUse">
      <feFlood flood-opacity="0" result="BackgroundImageFix"/>
      <feBlend in="SourceGraphic" in2="BackgroundImageFix" result="shape"/>
      <feColorMatrix in="SourceAlpha" result="hardAlpha" values="0 0 0 0 0 0 0 0 0 0 0 0 0 0 0 0 0 0 127 0"/>
      <feOffset dx="-.25"/>
      <feGaussianBlur stdDeviation=".25"/>
      <feComposite in2="hardAlpha" k2="-1" k3="1" operator="arithmetic"/>
      <feColorMatrix values="0 0 0 0 0.976471 0 0 0 0 0.145098 0 0 0 0 0.743686 0 0 0 1 0"/>
      <feBlend in2="shape" result="effect1_innerShadow_6126_86420"/>
    </filter>
    <filter id="y" width="4.448" height="4.112" x="9.045" y="14.536" color-interpolation-filters="sRGB" filterUnits="userSpaceOnUse">
      <feFlood flood-opacity="0" result="BackgroundImageFix"/>
      <feBlend in="SourceGraphic" in2="BackgroundImageFix" result="shape"/>
      <feColorMatrix in="SourceAlpha" result="hardAlpha" values="0 0 0 0 0 0 0 0 0 0 0 0 0 0 0 0 0 0 127 0"/>
      <feOffset dx=".25" dy="-.2"/>
      <feGaussianBlur stdDeviation=".25"/>
      <feComposite in2="hardAlpha" k2="-1" k3="1" operator="arithmetic"/>
      <feColorMatrix values="0 0 0 0 0.906118 0 0 0 0 0.329412 0 0 0 0 1 0 0 0 1 0"/>
      <feBlend in2="shape" result="effect1_innerShadow_6126_86420"/>
    </filter>
    <filter id="A" width="4.448" height="4.112" x="2.346" y="12.27" color-interpolation-filters="sRGB" filterUnits="userSpaceOnUse">
      <feFlood flood-opacity="0" result="BackgroundImageFix"/>
      <feBlend in="SourceGraphic" in2="BackgroundImageFix" result="shape"/>
      <feColorMatrix in="SourceAlpha" result="hardAlpha" values="0 0 0 0 0 0 0 0 0 0 0 0 0 0 0 0 0 0 127 0"/>
      <feOffset dx=".25" dy="-.2"/>
      <feGaussianBlur stdDeviation=".25"/>
      <feComposite in2="hardAlpha" k2="-1" k3="1" operator="arithmetic"/>
      <feColorMatrix values="0 0 0 0 0.906118 0 0 0 0 0.329412 0 0 0 0 1 0 0 0 1 0"/>
      <feBlend in2="shape" result="effect1_innerShadow_6126_86420"/>
    </filter>
  </defs>
</svg>
