<svg width="32" height="35" viewBox="0 0 32 35" fill="none" xmlns="http://www.w3.org/2000/svg">
<path d="M18.0172 10.2979C17.9837 10.4442 17.9524 10.5976 17.9225 10.7588L17.901 10.8779C17.8675 11.0661 17.839 11.208 17.8131 11.3174C17.8062 11.3466 17.7996 11.3721 17.7936 11.3945C17.683 11.3982 17.5292 11.3996 17.3073 11.4004L15.0944 8.10254C15.4664 7.92837 15.8386 7.76226 16.2115 7.60645L18.0172 10.2979ZM15.7565 6.92969C15.3844 7.0875 15.012 7.25236 14.6412 7.42773L13.8326 6.22266L14.8356 5.55664L15.7565 6.92969Z" fill="#2362DD"/>
<path d="M8.42322 2.72687C15.8607 -1.90807 25.3955 -0.457058 31.1381 5.7337C26.2681 4.21906 19.8806 4.98885 13.8373 8.12335L13.8285 8.11749C13.1509 7.65865 12.2406 7.50094 11.4496 7.70929C10.6979 7.90733 9.92013 8.4688 9.44177 9.11261L9.41931 9.14288C9.12272 9.55183 8.81314 10.1966 8.53943 10.8841C8.41184 11.2046 8.28752 11.5476 8.17029 11.8997C4.4614 15.0166 1.84462 18.7598 0.606812 22.471C-1.37818 15.0958 1.57878 6.99226 8.42322 2.72687Z" fill="#0080FF"/>
<path d="M20.9821 8.35278C21.3826 8.3347 21.4274 8.34071 21.7496 8.45728C22.5528 8.74785 23.0415 9.26834 23.6324 10.4631C23.8495 10.902 24.1718 11.7361 24.3287 12.2629C24.7272 13.6006 25.0231 14.8783 25.2067 16.05L25.193 16.053C25.3442 16.7753 25.5797 17.1826 26.1276 17.8879C26.3155 18.1298 26.6048 18.4815 26.7711 18.6692C27.8641 19.9022 28.2454 20.895 28.0543 22.009C27.9289 22.7393 27.3095 23.4103 26.5983 23.5872C26.3853 23.64 25.9167 23.6381 25.6031 23.5823C25.4489 23.5549 25.3306 23.551 25.3112 23.5725C25.2928 23.5983 25.2273 24.1791 25.1647 24.8684C24.9487 27.2446 24.7671 28.4432 24.3961 29.9485C24.0273 31.4449 23.4055 33.0682 22.9518 33.718C22.5861 34.2418 21.9693 34.697 21.4254 34.8459C20.881 34.9949 20.2343 34.8799 19.7653 34.55C19.1566 34.1219 18.8851 33.5564 18.6471 32.22C18.5255 31.5371 18.4709 31.3818 18.3014 31.2424L18.1647 31.1301L16.6979 31.1282C15.2967 31.1261 15.225 31.1298 15.0826 31.2073C14.8672 31.3246 14.784 31.5371 14.651 32.3127C14.4368 33.5616 14.2071 34.0683 13.6461 34.5334C13.2969 34.8229 12.9394 34.9556 12.4449 34.9788C12.0595 34.9968 12.0166 34.9907 11.7067 34.8743C10.9333 34.5837 10.4631 34.0633 9.89417 32.8684C9.68518 32.4295 9.37338 31.5955 9.22229 31.0686C8.64443 29.0534 8.29243 27.1746 8.19397 25.5881C8.1494 24.8698 8.14245 24.8284 8.08069 24.8284C8.05607 24.8304 7.88565 24.9884 7.69983 25.1809C7.30009 25.5951 7.12368 25.7303 6.7467 25.9124C6.49166 26.0355 6.43732 26.0462 6.09729 26.0471C5.7567 26.048 5.70539 26.0378 5.48401 25.9231C5.22242 25.7874 4.97009 25.5413 4.83362 25.2883C4.52506 24.7162 4.57379 23.5604 4.95374 22.428C5.11887 21.936 5.51505 21.034 5.7594 20.593C5.82796 20.4693 6.00542 20.1438 6.15491 19.8704C6.30443 19.5968 6.56179 19.1699 6.7262 18.9211C7.80658 17.2867 7.8241 17.246 7.97034 16.0081H8.04749C8.18472 15.0399 8.34247 14.2639 8.56799 13.3831C8.95113 11.8866 9.59767 10.2634 10.069 9.61353C10.4489 9.0899 11.0891 8.63452 11.6539 8.4856C12.2195 8.33663 12.8914 8.45161 13.3785 8.78149C14.0108 9.20967 14.2925 9.77511 14.5397 11.1116C14.666 11.7946 14.7229 11.9498 14.899 12.0891L15.0406 12.2014L16.5641 12.2034C18.0206 12.2054 18.0948 12.2019 18.2428 12.1243C18.4665 12.0069 18.5528 11.7945 18.691 11.0188C18.9135 9.77004 19.1513 9.26322 19.734 8.7981C20.0968 8.50854 20.4684 8.37602 20.9821 8.35278ZM12.277 21.2571C11.9447 21.2572 11.6754 21.5264 11.6754 21.8586C11.6755 22.1909 11.9448 22.4601 12.277 22.4602H21.3073C21.6395 22.4601 21.9088 22.1909 21.9088 21.8586C21.9088 21.5263 21.6395 21.2572 21.3073 21.2571H12.277Z" fill="url(#paint0_linear_256_2202)"/>
<defs>
<linearGradient id="paint0_linear_256_2202" x1="16.3464" y1="22.5678" x2="16.3464" y2="12.1365" gradientUnits="userSpaceOnUse">
<stop stop-color="#AD81F1"/>
<stop offset="0.134615" stop-color="#AD81F1"/>
<stop offset="0.932692" stop-color="#CBAAFF"/>
<stop offset="1" stop-color="#CBAAFF"/>
</linearGradient>
</defs>
</svg>
