<svg id="svg" version="1.1" xmlns="http://www.w3.org/2000/svg" xmlns:xlink="http://www.w3.org/1999/xlink" width="400" height="400" viewBox="0, 0, 400,400"><g id="svgg"><path id="path0" d="M190.613 1.623 C 189.226 2.037,184.623 6.615,78.418 113.208 C -3.069 194.992,0.837 190.885,1.479 194.093 C 1.856 195.979,3.996 197.826,6.465 198.397 C 7.639 198.668,9.000 199.141,9.490 199.447 C 9.979 199.754,11.395 200.269,12.637 200.593 C 13.879 200.916,15.109 201.359,15.370 201.576 C 15.632 201.792,16.856 202.233,18.091 202.555 C 19.326 202.876,20.755 203.410,21.268 203.740 C 21.781 204.071,22.910 204.471,23.777 204.629 C 24.645 204.788,25.905 205.234,26.577 205.620 C 27.250 206.006,28.430 206.448,29.200 206.601 C 29.970 206.753,31.000 207.132,31.490 207.442 C 31.979 207.751,33.329 208.256,34.490 208.563 C 35.650 208.871,37.140 209.409,37.800 209.759 C 38.460 210.109,39.620 210.513,40.377 210.657 C 41.135 210.800,42.305 211.234,42.977 211.620 C 43.650 212.006,44.830 212.443,45.600 212.590 C 46.370 212.737,47.720 213.194,48.600 213.607 C 50.843 214.658,54.000 215.557,54.000 215.145 C 54.000 214.955,54.184 214.800,54.408 214.800 C 54.632 214.800,55.529 214.350,56.400 213.800 C 58.390 212.544,60.205 212.531,63.600 213.751 C 65.030 214.264,94.280 224.906,128.600 237.398 C 194.514 261.391,208.972 266.651,224.800 272.392 C 230.190 274.348,240.000 277.914,246.600 280.318 C 253.200 282.723,266.828 287.684,276.885 291.345 C 286.942 295.005,295.581 298.000,296.084 298.000 C 296.774 298.000,280.718 281.714,230.718 231.700 C 194.263 195.235,164.254 164.908,164.030 164.307 C 163.609 163.171,163.688 162.516,165.196 154.600 C 165.616 152.400,166.504 147.630,167.171 144.000 C 167.838 140.370,169.276 132.630,170.366 126.800 C 171.456 120.970,172.528 115.210,172.749 114.000 C 172.970 112.790,173.794 108.380,174.579 104.200 C 176.640 93.235,177.649 87.827,180.400 73.000 C 181.746 65.740,183.546 56.110,184.398 51.600 C 185.250 47.090,186.496 40.430,187.166 36.800 C 187.836 33.170,189.302 25.340,190.425 19.400 C 191.547 13.460,192.566 7.970,192.690 7.200 C 192.913 5.803,193.974 4.400,194.807 4.400 C 195.049 4.400,195.120 4.194,194.964 3.942 C 194.763 3.616,195.018 3.562,195.840 3.754 C 196.690 3.952,196.840 3.916,196.400 3.618 C 196.070 3.395,195.957 3.209,196.149 3.206 C 196.341 3.203,196.272 2.928,195.996 2.595 C 195.623 2.146,195.358 2.103,194.964 2.430 C 194.340 2.948,193.600 2.594,193.600 1.776 C 193.600 1.132,192.455 1.073,190.613 1.623 " stroke="none" fill="#fbbf2d" fill-rule="evenodd"></path><path id="path1" d="M193.701 2.100 C 193.793 2.375,194.161 2.602,194.519 2.605 C 194.877 2.607,195.392 2.832,195.665 3.105 C 196.058 3.498,196.016 3.600,195.456 3.600 C 195.069 3.600,194.864 3.780,195.000 4.000 C 195.136 4.220,195.049 4.400,194.807 4.400 C 193.974 4.400,192.913 5.803,192.690 7.200 C 192.566 7.970,191.547 13.460,190.425 19.400 C 189.302 25.340,187.836 33.170,187.166 36.800 C 186.496 40.430,185.250 47.090,184.398 51.600 C 183.546 56.110,181.746 65.740,180.400 73.000 C 177.649 87.827,176.640 93.235,174.579 104.200 C 173.794 108.380,172.970 112.790,172.749 114.000 C 172.528 115.210,171.456 120.970,170.366 126.800 C 169.276 132.630,167.838 140.370,167.171 144.000 C 166.504 147.630,165.616 152.400,165.196 154.600 C 163.597 162.990,163.578 163.177,164.168 164.531 C 164.909 166.231,296.960 298.196,297.553 297.829 C 298.730 297.102,301.585 305.277,266.599 209.200 C 258.067 185.770,249.421 162.010,247.385 156.400 C 245.349 150.790,237.617 129.550,230.202 109.200 C 209.876 53.416,211.722 59.370,213.627 55.748 C 214.979 53.178,214.976 51.676,213.615 49.400 C 213.220 48.740,212.771 47.490,212.616 46.622 C 212.461 45.755,212.011 44.405,211.616 43.622 C 210.930 42.265,210.226 40.365,208.942 36.400 C 208.621 35.410,208.033 33.970,207.635 33.200 C 207.237 32.430,206.781 31.080,206.622 30.200 C 206.463 29.320,206.010 28.060,205.615 27.400 C 205.220 26.740,204.771 25.490,204.616 24.622 C 204.461 23.755,203.999 22.405,203.588 21.622 C 203.177 20.840,202.547 19.300,202.188 18.200 C 201.828 17.100,201.270 15.390,200.947 14.400 C 200.623 13.410,200.008 11.934,199.579 11.121 C 199.151 10.307,198.799 9.407,198.798 9.121 C 198.792 7.798,197.845 5.409,196.985 4.549 C 196.463 4.027,196.146 3.600,196.280 3.600 C 196.414 3.600,196.209 3.252,195.824 2.827 C 195.422 2.382,194.858 2.156,194.497 2.295 C 194.082 2.454,193.967 2.377,194.158 2.068 C 194.317 1.811,194.242 1.600,193.990 1.600 C 193.739 1.600,193.609 1.825,193.701 2.100 " stroke="none" fill="#fafaf9" fill-rule="evenodd"></path><path id="path2" d="M214.855 55.867 C 214.173 59.266,214.186 59.333,217.220 67.660 C 218.771 71.917,221.639 79.810,223.594 85.200 C 225.548 90.590,229.114 100.400,231.518 107.000 C 233.921 113.600,237.457 123.320,239.374 128.600 C 241.291 133.880,243.560 140.090,244.414 142.400 C 245.985 146.644,255.853 173.728,260.664 187.000 C 262.100 190.960,263.865 195.820,264.587 197.800 C 274.602 225.286,288.146 262.494,291.232 271.000 C 293.387 276.940,296.393 285.220,297.913 289.400 C 301.771 300.009,301.863 301.200,298.824 301.200 C 297.657 301.200,296.665 300.860,279.600 294.605 C 274.430 292.711,265.790 289.557,260.400 287.598 C 255.010 285.639,245.110 282.036,238.400 279.592 C 231.690 277.148,221.790 273.548,216.400 271.593 C 211.010 269.637,201.110 266.037,194.400 263.592 C 187.690 261.147,178.960 257.970,175.000 256.532 C 171.040 255.093,166.180 253.326,164.200 252.605 C 162.220 251.884,157.270 250.082,153.200 248.600 C 149.130 247.118,144.180 245.316,142.200 244.595 C 139.006 243.431,131.090 240.554,120.200 236.599 C 118.220 235.880,112.820 233.910,108.200 232.223 C 103.580 230.535,95.390 227.556,90.000 225.602 C 84.610 223.648,75.722 220.419,70.249 218.425 C 59.713 214.587,57.518 214.142,55.634 215.462 C 54.951 215.940,54.511 216.011,54.044 215.720 C 53.137 215.152,53.548 238.151,54.506 241.600 C 54.843 242.810,55.222 246.089,55.350 248.886 C 55.504 252.260,55.839 254.750,56.345 256.286 C 56.764 257.559,57.232 259.950,57.384 261.600 C 57.536 263.250,57.982 265.332,58.375 266.226 C 58.768 267.120,59.223 268.918,59.385 270.221 C 59.548 271.525,60.000 273.224,60.388 273.996 C 60.777 274.768,61.226 276.298,61.386 277.395 C 61.546 278.492,61.971 279.932,62.330 280.595 C 62.688 281.258,63.190 282.610,63.445 283.600 C 63.700 284.590,64.312 286.390,64.805 287.600 C 65.299 288.810,66.066 290.700,66.510 291.800 C 67.955 295.378,71.773 303.753,72.436 304.800 C 72.645 305.130,73.102 306.025,73.450 306.789 C 74.191 308.409,77.286 313.976,78.572 316.000 C 79.061 316.770,79.915 318.120,80.470 319.000 C 82.771 322.651,86.289 327.767,88.996 331.400 C 95.211 339.741,108.675 353.874,115.267 358.975 C 116.880 360.224,119.577 362.360,121.261 363.722 C 125.546 367.191,134.638 373.464,137.200 374.721 C 137.750 374.990,139.100 375.773,140.200 376.459 C 143.594 378.576,149.533 381.699,154.200 383.820 C 155.520 384.419,157.490 385.335,158.579 385.855 C 159.667 386.375,160.815 386.800,161.131 386.800 C 161.447 386.800,162.267 387.141,162.953 387.557 C 163.639 387.973,164.830 388.447,165.600 388.610 C 166.370 388.773,167.627 389.242,168.393 389.653 C 169.159 390.063,170.419 390.501,171.193 390.627 C 171.967 390.753,173.256 391.204,174.058 391.630 C 174.860 392.055,176.390 392.518,177.458 392.659 C 178.526 392.799,180.062 393.245,180.870 393.650 C 181.679 394.055,183.389 394.494,184.670 394.626 C 185.952 394.758,187.847 395.213,188.883 395.637 C 189.918 396.061,192.168 396.512,193.883 396.641 C 195.597 396.769,198.064 397.227,199.364 397.659 C 201.133 398.246,203.649 398.539,209.364 398.824 C 213.564 399.034,217.990 399.371,219.200 399.573 C 222.067 400.053,231.984 400.047,234.800 399.564 C 236.010 399.356,240.420 399.027,244.600 398.831 C 250.416 398.560,252.763 398.288,254.600 397.675 C 255.920 397.235,258.403 396.769,260.117 396.641 C 261.832 396.512,264.082 396.061,265.117 395.637 C 266.153 395.213,268.048 394.758,269.330 394.626 C 270.611 394.494,272.321 394.055,273.130 393.650 C 273.938 393.245,275.456 392.801,276.501 392.664 C 277.547 392.527,279.077 392.076,279.901 391.662 C 280.726 391.247,282.120 390.779,283.000 390.620 C 283.880 390.462,285.140 390.007,285.800 389.610 C 286.460 389.212,287.630 388.757,288.400 388.600 C 289.170 388.443,290.361 387.973,291.047 387.557 C 291.733 387.141,292.553 386.800,292.869 386.800 C 293.185 386.800,294.333 386.375,295.421 385.855 C 298.136 384.559,301.520 382.991,303.200 382.251 C 304.868 381.516,310.080 378.695,313.319 376.775 C 314.594 376.019,316.421 374.950,317.378 374.400 C 329.839 367.242,350.909 349.190,358.929 338.800 C 360.203 337.150,362.398 334.360,363.807 332.600 C 365.217 330.840,366.709 328.950,367.123 328.400 C 368.707 326.296,374.107 318.183,374.308 317.606 C 374.424 317.273,374.910 316.460,375.389 315.800 C 376.659 314.050,379.913 308.080,382.476 302.800 C 386.507 294.494,386.800 293.849,386.800 293.269 C 386.800 292.953,387.141 292.133,387.557 291.447 C 387.973 290.761,388.443 289.570,388.600 288.800 C 388.757 288.030,389.219 286.852,389.625 286.182 C 390.032 285.511,390.492 284.167,390.647 283.194 C 390.803 282.221,391.260 280.866,391.663 280.183 C 392.066 279.500,392.516 278.054,392.662 276.970 C 392.808 275.887,393.265 274.349,393.676 273.553 C 394.088 272.758,394.524 271.138,394.646 269.953 C 394.768 268.769,395.209 266.964,395.627 265.941 C 396.045 264.919,396.496 262.759,396.630 261.141 C 396.764 259.524,397.229 257.129,397.664 255.820 C 398.229 254.118,398.549 251.610,398.788 247.020 C 398.972 243.489,399.319 239.971,399.561 239.203 C 400.149 237.332,400.155 216.296,399.568 214.397 C 399.331 213.629,398.987 210.120,398.804 206.600 C 398.565 201.996,398.247 199.526,397.673 197.800 C 397.233 196.480,396.769 194.002,396.642 192.293 C 396.507 190.489,396.095 188.560,395.661 187.693 C 395.250 186.872,394.800 185.073,394.662 183.695 C 394.524 182.317,394.074 180.517,393.661 179.695 C 393.249 178.873,392.813 177.432,392.693 176.494 C 392.573 175.556,392.125 174.116,391.698 173.294 C 391.272 172.472,390.792 171.080,390.632 170.200 C 390.472 169.320,389.995 168.005,389.571 167.277 C 389.147 166.550,388.800 165.680,388.800 165.344 C 388.800 164.755,387.185 160.705,385.633 157.400 C 385.219 156.520,384.310 154.540,383.613 153.000 C 382.915 151.460,382.078 149.750,381.753 149.200 C 381.428 148.650,380.813 147.480,380.386 146.600 C 379.959 145.720,379.442 144.730,379.236 144.400 C 379.030 144.070,377.761 141.820,376.415 139.400 C 375.070 136.980,373.640 134.550,373.238 134.000 C 372.835 133.450,371.856 132.010,371.062 130.800 C 361.483 116.203,347.997 101.601,333.568 90.200 C 329.580 87.049,321.777 81.600,321.254 81.600 C 321.058 81.600,320.681 81.339,320.416 81.020 C 319.986 80.501,317.133 78.733,314.400 77.291 C 313.850 77.001,312.500 76.241,311.400 75.602 C 310.300 74.964,308.680 74.074,307.800 73.626 C 306.920 73.177,305.930 72.633,305.600 72.416 C 305.057 72.059,302.141 70.689,296.600 68.189 C 295.500 67.692,293.790 66.917,292.800 66.467 C 291.810 66.016,290.465 65.517,289.812 65.358 C 289.158 65.199,288.078 64.758,287.412 64.379 C 286.745 63.999,285.509 63.567,284.665 63.420 C 283.821 63.272,282.471 62.817,281.665 62.409 C 280.859 62.002,279.398 61.541,278.418 61.385 C 277.439 61.229,275.999 60.779,275.218 60.385 C 274.438 59.990,272.833 59.542,271.651 59.389 C 270.469 59.236,268.759 58.787,267.851 58.390 C 266.943 57.994,264.940 57.548,263.400 57.400 C 261.860 57.252,259.520 56.784,258.200 56.359 C 256.802 55.910,253.629 55.431,250.600 55.211 C 247.740 55.004,244.230 54.560,242.800 54.225 C 240.771 53.750,237.469 53.615,227.755 53.608 L 215.310 53.600 214.855 55.867 " stroke="none" fill="#043c84" fill-rule="evenodd"></path><path id="path3" d="M56.400 213.800 C 55.630 214.325,54.775 214.764,54.500 214.777 C 54.225 214.790,54.000 215.070,54.000 215.400 C 54.000 216.155,54.768 216.150,55.776 215.387 C 57.432 214.135,59.887 214.651,70.249 218.425 C 75.722 220.419,84.610 223.648,90.000 225.602 C 95.390 227.556,103.580 230.535,108.200 232.223 C 112.820 233.910,118.220 235.880,120.200 236.599 C 131.090 240.554,139.006 243.431,142.200 244.595 C 144.180 245.316,149.130 247.118,153.200 248.600 C 157.270 250.082,162.220 251.884,164.200 252.605 C 166.180 253.326,171.040 255.093,175.000 256.532 C 178.960 257.970,187.690 261.147,194.400 263.592 C 201.110 266.037,211.010 269.637,216.400 271.593 C 221.790 273.548,231.690 277.148,238.400 279.592 C 245.110 282.036,255.010 285.639,260.400 287.598 C 265.790 289.557,274.430 292.711,279.600 294.605 C 296.656 300.856,297.657 301.200,298.811 301.200 C 299.996 301.200,301.211 299.979,301.188 298.811 C 301.178 298.318,301.097 298.335,300.768 298.900 C 300.233 299.819,298.847 299.775,297.600 298.800 C 297.050 298.370,296.278 298.014,295.885 298.009 C 295.242 298.001,288.547 295.598,246.600 280.318 C 240.000 277.914,230.190 274.348,224.800 272.392 C 208.972 266.651,194.514 261.391,128.600 237.398 C 94.280 224.906,65.030 214.264,63.600 213.751 C 60.268 212.554,58.208 212.568,56.400 213.800 " stroke="none" fill="#748074" fill-rule="evenodd"></path><path id="path4" d="M213.840 55.296 C 212.378 57.791,212.197 59.178,213.012 61.666 C 213.396 62.840,220.455 82.340,228.697 105.000 C 236.940 127.660,245.349 150.790,247.385 156.400 C 249.421 162.010,258.067 185.770,266.599 209.200 C 301.942 306.257,298.775 297.127,297.369 297.914 C 296.520 298.388,298.447 299.706,299.724 299.525 C 301.231 299.310,300.956 297.730,297.992 289.598 C 296.429 285.309,293.387 276.940,291.232 271.000 C 288.146 262.494,274.602 225.286,264.587 197.800 C 263.865 195.820,262.100 190.960,260.664 187.000 C 255.937 173.959,245.998 146.679,244.415 142.400 C 242.836 138.130,238.015 124.894,231.593 107.200 C 229.636 101.810,226.036 91.910,223.592 85.200 C 221.147 78.490,218.048 69.955,216.704 66.234 L 214.260 59.467 214.739 56.676 C 215.323 53.266,215.169 53.028,213.840 55.296 " stroke="none" fill="#6c94bc" fill-rule="evenodd"></path></g></svg>
