<svg width="256" height="256" viewBox="0 0 256 256" fill="none" xmlns="http://www.w3.org/2000/svg">
<g clip-path="url(#clip0_8029_395)">
<mask id="mask0_8029_395" style="mask-type:luminance" maskUnits="userSpaceOnUse" x="0" y="0" width="256" height="256">
<path d="M256 0H0V256H256V0Z" fill="white"/>
</mask>
<g mask="url(#mask0_8029_395)">
<path d="M128 256C198.693 256 256 198.693 256 128C256 57.3075 198.693 0 128 0C57.3075 0 0 57.3075 0 128C0 198.693 57.3075 256 128 256Z" fill="url(#paint0_radial_8029_395)"/>
<path d="M205.01 201.16H167.906C165.48 201.16 163.155 200.195 161.44 198.48L94.2099 131.25C92.4248 129.465 92.4248 126.57 94.2099 124.785L161.44 57.555C163.155 55.84 165.48 54.875 167.906 54.875H205.01C207.045 54.875 208.066 57.335 206.626 58.775L139 126.4C138.105 127.295 138.105 128.74 139 129.63L206.626 197.254C208.066 198.694 207.045 201.16 205.01 201.16Z" fill="white"/>
<path d="M98.565 94.1249L67.905 124.785C66.12 126.57 66.12 129.465 67.905 131.25L98.565 161.91C100.28 163.626 101.245 165.95 101.245 168.374V196.586C101.245 199.11 99.2 201.155 96.6751 201.155H65.5901C63.065 201.155 61.02 199.11 61.02 196.586V59.4449C61.02 56.92 63.065 54.875 65.5901 54.875H96.6751C99.2 54.875 101.245 56.92 101.245 59.4449V87.66C101.245 90.0849 100.28 92.4099 98.565 94.1249Z" fill="white"/>
</g>
</g>
<defs>
<radialGradient id="paint0_radial_8029_395" cx="0" cy="0" r="1" gradientUnits="userSpaceOnUse" gradientTransform="translate(220.53 47.54) scale(285.59)">
<stop offset="0.01" stop-color="#F5BB7E"/>
<stop offset="0.58" stop-color="#FF5100"/>
<stop offset="0.69" stop-color="#FC4808"/>
<stop offset="0.88" stop-color="#F4301F"/>
<stop offset="1" stop-color="#EE1E32"/>
</radialGradient>
<clipPath id="clip0_8029_395">
<rect width="256" height="256" fill="white"/>
</clipPath>
</defs>
</svg>
