<svg width="75" height="75" viewBox="0 0 75 75" fill="none" xmlns="http://www.w3.org/2000/svg">
<path fill-rule="evenodd" clip-rule="evenodd" d="M37.5 75C58.2104 75 75 58.2107 75 37.5C75 16.7893 58.2104 0 37.5 0C16.7896 0 0 16.7893 0 37.5C0 58.2107 16.7896 75 37.5 75ZM37.4155 55.6311C36.5762 55.8892 35.7417 56.1458 34.8823 56.3052L33.501 56.5754L32.271 56.8174L30.8813 57.092C30.813 47.8315 30.813 38.571 30.8813 29.3108C32.1411 29.3108 33.4863 29.3108 34.7461 29.23C35.4829 29.1799 36.2026 29.1797 36.9141 29.2019C37.5015 29.2202 38.083 29.2544 38.6631 29.2883L39.0542 29.3108C39.0542 32.1555 39.0615 35.0115 39.0693 37.874C39.0747 39.8674 39.0801 41.8638 39.0825 43.8621C39.084 44.825 39.0845 45.7883 39.0845 46.752C39.084 49.5525 39.0762 52.355 39.0542 55.1553C38.5 55.2976 37.9565 55.4646 37.4155 55.6311ZM28.4805 57.2734C28.4805 55.27 28.4731 53.2759 28.4653 51.2876V51.27V51.2524V51.2349C28.4502 47.2937 28.4351 43.3762 28.4805 39.4587H20.1543C20.2222 45.0068 20.2222 50.656 20.1543 56.2041C22.8955 57.0112 25.6538 57.3542 28.4805 57.2734ZM58.9585 41.7588L55.417 39.6404C59.4082 36.8352 63.7007 34.5476 67.9121 32.3032L68 32.2563C67.8315 35.6357 67.5596 39.022 67.2876 42.4072C67.0918 44.8423 66.8965 47.2769 66.7397 49.7078L64.186 46.8633L63.6919 47.5088C58.5498 53.5007 53.2544 59.3718 46.6479 63.1042C38.3047 68.2085 28.0376 69.8022 19.1836 65.5657C14.4331 63.3665 10.9258 58.3428 9.29102 52.6938C16.9531 62.3779 29.5361 63.6287 39.6499 59.2104C47.3804 55.8411 53.5952 49.0017 58.9585 41.7588ZM20.583 36.3594L17.0415 34.241C22.4048 26.998 28.6196 20.1587 36.3501 16.7893C46.4639 12.3711 59.0469 13.6218 66.709 23.3059C65.0742 17.657 61.5669 12.6333 56.8164 10.4341C47.9624 6.19751 37.6953 7.79126 29.3521 12.8955C22.7456 16.6279 17.4502 22.499 12.3081 28.491L11.814 29.1365L9.26025 26.292C9.10352 28.7271 8.90771 31.1655 8.71191 33.6045C8.43994 36.9856 8.16797 40.3679 8 43.7434L8.08789 43.6965C12.2993 41.4521 16.5918 39.1646 20.583 36.3594ZM49.083 47.5288L48.9468 47.7104C47.0586 50.2153 44.5273 51.8687 42.0654 53.4773L41.6592 53.7427C41.6138 46.103 41.6289 38.4634 41.644 30.8237C41.6519 27.0039 41.6592 23.1841 41.6592 19.3643H49.6958C49.8369 24.1443 49.833 28.9568 49.8291 33.7554C49.8267 36.4912 49.8247 39.2224 49.8491 41.9402V42.0007V46.4998L49.083 47.5288Z" fill="#12B2FF"/>
</svg>