<?xml version="1.0" encoding="utf-8"?>
<!-- Generator: Adobe Illustrator 27.0.0, SVG Export Plug-In . SVG Version: 6.00 Build 0)  -->
<svg version="1.1" id="Layer_1" xmlns="http://www.w3.org/2000/svg" xmlns:xlink="http://www.w3.org/1999/xlink" x="0px" y="0px"
	 viewBox="0 0 257 256" style="enable-background:new 0 0 257 256;" xml:space="preserve">
<style type="text/css">
	.st0{fill:#0D1118;}
	.st1{fill:#FF7033;}
	.st2{fill:#EEEEEE;}
</style>
<g>
	<path class="st2" d="M19.5,105.0681381h27.4138451l7.3932304,7.3932343v31.0121841l-7.3932304,7.3932343H19.5V105.0681381z
		 M43.9695702,145.3710022l4.0565147-4.0565186v-26.694046l-4.0565147-4.0565109H25.7809906v34.8070755H43.9695702z"/>
	<path class="st2" d="M63.4666061,105.0681381h30.7505569v5.4957886H69.7475967v14.5902405H92.319725v5.4303818H69.7475967
		v14.7864532h24.4695663v5.4957886H63.4666061V105.0681381z"/>
	<path class="st2" d="M113.9104233,127.3132324l-15.1134949-22.2450943h7.0658722l11.6459579,17.2725601l11.515152-17.2725601
		h7.0658722l-15.1131668,22.5067215l15.7678909,23.2919312h-7.0658722l-12.2352829-18.319397l-12.2346191,18.319397H98.14254
		L113.9104233,127.3132324z"/>
	<path class="st1" d="M143.9861145,151.717392v-47.4344559l6.8035736-6.8045731h7.9174652v5.3649673h-5.1036682
		l-3.5332642,3.4678574v43.3779449l3.5332642,3.4675293h5.1036682v5.364975h-7.9174652L143.9861145,151.717392z"/>
	<path class="st2" d="M163.7441101,144.5203857v-5.8885498h6.2803345v3.8602905l2.8791962,2.8788757h13.0852356l2.8791962-2.8788757
		v-12.1695404l-2.8791962-2.8131332h-21.5906982v-22.4413147h29.8345337v5.4303818h-23.6843567v11.5151443h18.1889038
		l6.4111481,6.4118118v16.0949097l-6.346405,6.346405h-18.7115021L163.7441101,144.5203857z"/>
	<path class="st2" d="M211.1782379,111.6107559l-10.1412811,5.2341614v-5.7577438l10.9915619-6.0190353h5.4307098v45.7986526
		h-6.2809906V111.6107559z"/>
	<path class="st1" d="M222.7789459,158.521637v-5.364975h5.1036835l3.5332642-3.4675293v-43.3779449l-3.5332642-3.4678574
		h-5.1036835V97.478363h7.9174805L237.5,104.2829361v47.4344559l-6.8035736,6.804245H222.7789459z"/>
</g>
</svg>
