<?xml version="1.0" encoding="UTF-8"?>
<!DOCTYPE svg PUBLIC "-//W3C//DTD SVG 1.1//EN" "http://www.w3.org/Graphics/SVG/1.1/DTD/svg11.dtd">
<!-- Creator: CorelDRAW X7 -->
<svg xmlns="http://www.w3.org/2000/svg" xml:space="preserve" width="320px" height="320px" version="1.1" style="shape-rendering:geometricPrecision; text-rendering:geometricPrecision; image-rendering:optimizeQuality; fill-rule:evenodd; clip-rule:evenodd"
viewBox="0 0 320 320"
 xmlns:xlink="http://www.w3.org/1999/xlink">
 <defs>
  <style type="text/css">
   <![CDATA[
    .fil1 {fill:#1C413A}
    .fil0 {fill:#333333;fill-rule:nonzero;fill-opacity:0.501961}
   ]]>
  </style>
 </defs>
 <g id="Layer_x0020_1">
  <metadata id="CorelCorpID_0Corel-Layer"/>
  <g id="_1861183291904">
   <path class="fil0" d="M198 136c0,0 0,10 0,10l0 120c10,-3 20,-8 29,-16 2,-2 3,-4 5,-2l8 7c1,2 2,2 -1,5 -12,12 -26,19 -41,23l0 12c-1,0 0,7 -1,11 -1,4 -2,4 -9,3 -5,0 -10,0 -12,-3 -1,-4 1,-9 0,-11 0,-3 0,-7 0,-10 0,0 0,0 0,0 -26,0 -48,-9 -66,-27 -18,-18 -27,-40 -27,-65 0,-26 9,-48 27,-66 7,-7 15,-13 24,-17l0 -90c0,-3 1,-5 4,-6l12 0c4,1 5,2 5,5l0 44c6,0 13,0 19,0 9,-2 9,5 8,10 0,6 3,11 -8,11l-19 0 0 18c6,-1 13,-2 21,-2 24,0 45,9 63,25 0,1 4,4 2,6l-8 8c-1,1 -3,0 -3,-1 -15,-14 -33,-22 -54,-22 -8,0 -15,1 -21,3l0 111 0 6c-1,6 -3,4 -11,5 -9,-1 -10,-1 -10,-4l0 -7 0 -102c-5,3 -9,7 -13,10 -15,15 -22,33 -22,55 0,21 7,39 22,54 15,15 33,22 55,22 0,0 0,0 0,0 1,-41 2,-82 2,-123 0,0 0,-13 0,-13 0,-7 2,-4 10,-6 9,0 9,-1 10,9z"/>
   <path class="fil1" d="M229 242l12 11c0,0 -1,1 -1,1 -13,13 -27,21 -43,25l0 28 -21 0 0 -26c0,0 -1,0 -2,0 -25,0 -47,-9 -65,-27 -18,-18 -27,-40 -27,-65 0,-26 9,-48 27,-66 7,-7 15,-13 24,-17l0 -96 20 0 0 49 28 0 0 21 -28 0 0 18c7,-1 14,-2 21,-2 26,0 48,9 66,27 0,1 1,2 2,2l-12 11c0,0 -1,-1 -1,-1 -15,-15 -33,-23 -55,-23 -7,0 -14,1 -21,3l0 124 -20 0 0 -115c-5,3 -9,7 -13,11 -15,14 -22,32 -22,54 0,21 7,39 22,54 15,15 33,22 54,22 1,0 2,0 2,0l0 -138 21 0 0 135c12,-3 22,-10 32,-19 0,0 0,0 0,-1z"/>
  </g>
 </g>
</svg>
