<svg width="64" height="64" viewBox="0 0 64 64" fill="none" xmlns="http://www.w3.org/2000/svg">
<path fill-rule="evenodd" clip-rule="evenodd" d="M25.4706 16.1333C25.4706 21.1539 21.3595 25.2667 16.2353 25.2667C11.1111 25.2667 7 21.1539 7 16.1333C7 11.1128 11.1111 7 16.2353 7C21.3595 7 25.4706 11.1128 25.4706 16.1333ZM28.4706 16.1333C28.4706 22.8344 22.9927 28.2667 16.2353 28.2667C9.47793 28.2667 4 22.8344 4 16.1333C4 9.43228 9.47793 4 16.2353 4C22.9927 4 28.4706 9.43228 28.4706 16.1333ZM16.2353 60C22.9927 60 28.4706 54.5677 28.4706 47.8666C28.4706 41.1656 22.9927 35.7333 16.2353 35.7333C9.47793 35.7333 4 41.1656 4 47.8666C4 54.5677 9.47793 60 16.2353 60ZM60.0001 16.1333C60.0001 22.8344 54.5222 28.2667 47.7648 28.2667C41.0074 28.2667 35.5295 22.8344 35.5295 16.1333C35.5295 9.43228 41.0074 4 47.7648 4C54.5222 4 60.0001 9.43228 60.0001 16.1333ZM47.7648 60C54.5222 60 60.0001 54.5677 60.0001 47.8666C60.0001 41.1656 54.5222 35.7333 47.7648 35.7333C41.0074 35.7333 35.5295 41.1656 35.5295 47.8666C35.5295 54.5677 41.0074 60 47.7648 60Z" fill="url(#paint0_linear_1608_47222)"/>
<path fill-rule="evenodd" clip-rule="evenodd" d="M25.4706 16.1333C25.4706 21.1539 21.3595 25.2667 16.2353 25.2667C11.1111 25.2667 7 21.1539 7 16.1333C7 11.1128 11.1111 7 16.2353 7C21.3595 7 25.4706 11.1128 25.4706 16.1333ZM28.4706 16.1333C28.4706 22.8344 22.9927 28.2667 16.2353 28.2667C9.47793 28.2667 4 22.8344 4 16.1333C4 9.43228 9.47793 4 16.2353 4C22.9927 4 28.4706 9.43228 28.4706 16.1333ZM16.2353 60C22.9927 60 28.4706 54.5677 28.4706 47.8666C28.4706 41.1656 22.9927 35.7333 16.2353 35.7333C9.47793 35.7333 4 41.1656 4 47.8666C4 54.5677 9.47793 60 16.2353 60ZM60.0001 16.1333C60.0001 22.8344 54.5222 28.2667 47.7648 28.2667C41.0074 28.2667 35.5295 22.8344 35.5295 16.1333C35.5295 9.43228 41.0074 4 47.7648 4C54.5222 4 60.0001 9.43228 60.0001 16.1333ZM47.7648 60C54.5222 60 60.0001 54.5677 60.0001 47.8666C60.0001 41.1656 54.5222 35.7333 47.7648 35.7333C41.0074 35.7333 35.5295 41.1656 35.5295 47.8666C35.5295 54.5677 41.0074 60 47.7648 60Z" fill="url(#paint1_radial_1608_47222)" fill-opacity="0.6"/>
<defs>
<linearGradient id="paint0_linear_1608_47222" x1="32" y1="4" x2="32" y2="76.9155" gradientUnits="userSpaceOnUse">
<stop stop-color="#F160F9"/>
<stop offset="1" stop-color="#FF20CF"/>
</linearGradient>
<radialGradient id="paint1_radial_1608_47222" cx="0" cy="0" r="1" gradientUnits="userSpaceOnUse" gradientTransform="translate(32.0857 4) rotate(90.2394) scale(80.4996 33.2163)">
<stop offset="0.0112696" stop-color="#FDB6E8"/>
<stop offset="1" stop-color="#F28CBD" stop-opacity="0.15"/>
</radialGradient>
</defs>
</svg>
