<svg width="64" height="64" viewBox="0 0 64 64" fill="none" xmlns="http://www.w3.org/2000/svg">
<path fill-rule="evenodd" clip-rule="evenodd" d="M39.7449 10.4953C36.7353 7.55056 31.8382 7.55056 28.8286 10.4953L8.33459 30.5478L17.1446 30.5478V34.5478L1.43115 34.5478L1.42859 19.1276L5.42859 19.127L5.43003 27.7935L26.0312 7.63623C30.5955 3.17024 37.978 3.17025 42.5424 7.63624C47.131 12.126 47.131 19.4238 42.5424 23.9136L24.2574 41.8047C21.2721 44.7256 21.2721 49.443 24.2574 52.3639C27.2669 55.3086 32.1641 55.3086 35.1736 52.3639L55.6677 32.3114H46.8577V28.3114H62.5718L62.5692 43.7279L58.5692 43.7272L58.5707 35.0672L37.9711 55.223C33.4068 59.689 26.0242 59.689 21.4599 55.223C16.8713 50.7332 16.8713 43.4354 21.4599 38.9456L39.7449 21.0545C42.7302 18.1336 42.7302 13.4162 39.7449 10.4953Z" fill="url(#paint0_linear_1608_47213)"/>
<path fill-rule="evenodd" clip-rule="evenodd" d="M39.7449 10.4953C36.7353 7.55056 31.8382 7.55056 28.8286 10.4953L8.33459 30.5478L17.1446 30.5478V34.5478L1.43115 34.5478L1.42859 19.1276L5.42859 19.127L5.43003 27.7935L26.0312 7.63623C30.5955 3.17024 37.978 3.17025 42.5424 7.63624C47.131 12.126 47.131 19.4238 42.5424 23.9136L24.2574 41.8047C21.2721 44.7256 21.2721 49.443 24.2574 52.3639C27.2669 55.3086 32.1641 55.3086 35.1736 52.3639L55.6677 32.3114H46.8577V28.3114H62.5718L62.5692 43.7279L58.5692 43.7272L58.5707 35.0672L37.9711 55.223C33.4068 59.689 26.0242 59.689 21.4599 55.223C16.8713 50.7332 16.8713 43.4354 21.4599 38.9456L39.7449 21.0545C42.7302 18.1336 42.7302 13.4162 39.7449 10.4953Z" fill="url(#paint1_radial_1608_47213)" fill-opacity="0.6"/>
<defs>
<linearGradient id="paint0_linear_1608_47213" x1="32" y1="6.28674" x2="32" y2="71.7619" gradientUnits="userSpaceOnUse">
<stop stop-color="#F160F9"/>
<stop offset="1" stop-color="#FF20CF"/>
</linearGradient>
<radialGradient id="paint1_radial_1608_47213" cx="0" cy="0" r="1" gradientUnits="userSpaceOnUse" gradientTransform="translate(32.0874 6.28674) rotate(90.272) scale(72.2855 33.8941)">
<stop offset="0.0112696" stop-color="#FDB6E8"/>
<stop offset="1" stop-color="#F28CBD" stop-opacity="0.15"/>
</radialGradient>
</defs>
</svg>
