<svg width="26" height="35" viewBox="0 0 26 35" fill="none" xmlns="http://www.w3.org/2000/svg">
    <path
        d="M23.375 15.022H21.25V8.64697C21.25 3.97197 17.425 0.146973 12.75 0.146973C8.075 0.146973 4.25 3.97197 4.25 8.64697V15.022H2.125C1.0625 15.022 0 16.0845 0 17.147V32.022C0 33.0845 1.0625 34.147 2.125 34.147H23.375C24.4375 34.147 25.5 33.0845 25.5 32.022V17.147C25.5 16.0845 24.4375 15.022 23.375 15.022ZM14.875 29.897H10.625L11.475 25.222C10.4125 24.797 9.5625 23.522 9.5625 22.4595C9.5625 20.7595 11.05 19.272 12.75 19.272C14.45 19.272 15.9375 20.7595 15.9375 22.4595C15.9375 23.7345 15.3 24.797 14.025 25.222L14.875 29.897ZM17 15.022H8.5V8.64697C8.5 6.30947 10.4125 4.39697 12.75 4.39697C15.0875 4.39697 17 6.30947 17 8.64697V15.022Z"
        fill="#FC72FF" />
</svg>