<svg width="30" height="34" viewBox="0 0 30 34" fill="none" xmlns="http://www.w3.org/2000/svg">
    <path fill-rule="evenodd" clip-rule="evenodd"
        d="M14.875 0C13.4088 0 10.9586 0.563125 8.65301 1.19C6.29426 1.8275 3.91639 2.58187 2.51814 3.03875C1.93353 3.23181 1.41524 3.58586 1.02281 4.06024C0.630378 4.53462 0.379722 5.11007 0.299637 5.7205C-0.966864 15.2341 1.97201 22.2849 5.53776 26.9493C7.04987 28.9445 8.85282 30.7016 10.8864 32.1619C11.7066 32.742 12.4674 33.1861 13.1134 33.49C13.7084 33.7705 14.348 34 14.875 34C15.402 34 16.0395 33.7705 16.6366 33.49C17.4154 33.1115 18.1605 32.6672 18.8636 32.1619C20.8972 30.7017 22.7002 28.9446 24.2123 26.9493C27.778 22.2849 30.7169 15.2341 29.4504 5.7205C29.3704 5.10978 29.1199 4.53399 28.7274 4.05925C28.335 3.5845 27.8167 3.23006 27.2319 3.03663C25.2021 2.3711 23.1566 1.75467 21.097 1.18788C18.7914 0.56525 16.3413 0 14.875 0ZM14.875 10.625C15.6278 10.6239 16.3566 10.8892 16.9325 11.374C17.5084 11.8588 17.8941 12.5317 18.0214 13.2736C18.1486 14.0155 18.0092 14.7786 17.6278 15.4275C17.2464 16.0765 16.6476 16.5696 15.9375 16.8194L16.7556 21.0481C16.7854 21.2019 16.7808 21.3604 16.7421 21.5122C16.7035 21.664 16.6317 21.8054 16.532 21.9263C16.4323 22.0471 16.3071 22.1444 16.1654 22.2111C16.0237 22.2779 15.8689 22.3125 15.7123 22.3125H14.0378C13.8813 22.3122 13.7268 22.2774 13.5853 22.2105C13.4439 22.1436 13.319 22.0462 13.2195 21.9254C13.12 21.8046 13.0484 21.6634 13.0099 21.5117C12.9713 21.3601 12.9668 21.2018 12.9965 21.0481L13.8125 16.8194C13.1024 16.5696 12.5036 16.0765 12.1222 15.4275C11.7408 14.7786 11.6014 14.0155 11.7286 13.2736C11.8559 12.5317 12.2416 11.8588 12.8175 11.374C13.3934 10.8892 14.1223 10.6239 14.875 10.625Z"
        fill=" #FC72FF" />
</svg>