<svg width="38" height="26" viewBox="0 0 38 26" fill="none" xmlns="http://www.w3.org/2000/svg">
    <path fill-rule="evenodd" clip-rule="evenodd"
        d="M0 21.9427V3.59824C0 1.61099 1.61099 0 3.59824 0H34.4018C36.389 0 38 1.61099 38 3.59824V21.9427C38 23.93 36.389 25.541 34.4018 25.541H3.59825C1.61099 25.541 0 23.93 0 21.9427ZM3.86568 5.17063C3.86568 4.59758 4.33023 4.13303 4.90328 4.13303H33.4646C34.0376 4.13303 34.5022 4.59758 34.5022 5.17063C34.5022 5.74368 34.0376 6.20823 33.4646 6.20823H4.90328C4.33023 6.20823 3.86568 5.74368 3.86568 5.17063ZM3.86568 9.96736C3.86568 9.39431 4.33023 8.92976 4.90328 8.92976H13.0406C14.4572 8.92976 15.3706 10.0688 15.6856 11.0752C16.1475 12.5511 17.5001 13.6019 19.0767 13.6019C20.6532 13.6019 22.0059 12.5511 22.4678 11.0752C22.7827 10.0688 23.6961 8.92976 25.1127 8.92976H33.0968C33.6699 8.92976 34.1344 9.39431 34.1344 9.96736C34.1344 10.5404 33.6699 11.005 33.0968 11.005H25.1127C25.0181 11.005 24.9043 11.0409 24.7755 11.1584C24.6406 11.2814 24.518 11.4719 24.4482 11.695C23.7289 13.9935 21.605 15.6771 19.0767 15.6771C16.5483 15.6771 14.4244 13.9935 13.7051 11.695C13.6353 11.4719 13.5127 11.2814 13.3778 11.1584C13.249 11.0409 13.1352 11.005 13.0406 11.005H4.90328C4.33023 11.005 3.86568 10.5404 3.86568 9.96736Z"
        fill=" #FC72FF" />
</svg>