<svg width="36" height="36" viewBox="0 0 36 36" fill="none" xmlns="http://www.w3.org/2000/svg">
<circle cx="16" cy="16" r="12" fill="url(#paint0_linear_12096_24287)"/>
<path d="M21.2518 20.7814L17.1941 10.9711C16.9652 10.4639 16.625 10.2165 16.1765 10.2165H15.8178C15.3693 10.2165 15.0291 10.4639 14.8003 10.9711L13.0343 15.2454H11.6982C11.2992 15.2484 10.9745 15.5701 10.9714 15.9722V15.9814C10.9745 16.3804 11.2992 16.7052 11.6982 16.7082H12.4157L10.7301 20.7814C10.6992 20.8711 10.6807 20.9639 10.6807 21.0598C10.6807 21.2887 10.7518 21.468 10.8786 21.6072C11.0054 21.7464 11.1879 21.8144 11.4167 21.8144C11.5683 21.8113 11.7137 21.7649 11.8343 21.6753C11.9642 21.5856 12.0539 21.4557 12.125 21.3072L13.9807 16.7052H15.2673C15.6662 16.7021 15.991 16.3804 15.9941 15.9783V15.9598C15.991 15.5608 15.6662 15.2361 15.2673 15.233H14.5807L15.9972 11.7041L19.857 21.3041C19.9281 21.4526 20.0178 21.5825 20.1477 21.6722C20.2683 21.7619 20.4167 21.8082 20.5652 21.8113C20.7941 21.8113 20.9734 21.7433 21.1033 21.6041C21.2332 21.4649 21.3013 21.2856 21.3013 21.0567C21.3044 20.9639 21.2889 20.868 21.2518 20.7814Z" fill="white"/>
<path d="M23.9997 30.6668C27.6816 30.6668 30.6663 27.6821 30.6663 24.0002C30.6663 20.3183 27.6816 17.3335 23.9997 17.3335C20.3178 17.3335 17.333 20.3183 17.333 24.0002C17.333 27.6821 20.3178 30.6668 23.9997 30.6668Z" fill="#0E111A" stroke="#209853" stroke-width="1.5" stroke-linecap="round" stroke-linejoin="round"/>
<path d="M26.6663 22.6667L22.9997 26L21.333 24.4848" stroke="#209853" stroke-width="2" stroke-linecap="round" stroke-linejoin="round"/>
<defs>
<linearGradient id="paint0_linear_12096_24287" x1="17.435" y1="-0.456255" x2="-0.420973" y2="14.5677" gradientUnits="userSpaceOnUse">
<stop stop-color="#B6509E"/>
<stop offset="1" stop-color="#2EBAC6"/>
</linearGradient>
</defs>
</svg>
