<svg stroke="currentColor" width="20" height="20" viewBox="0 0 20 20" fill="none" xmlns="http://www.w3.org/2000/svg">
<path d="M15 6.66602C15 5.33993 14.4732 4.06816 13.5355 3.13048C12.5979 2.1928 11.3261 1.66602 10 1.66602C8.67392 1.66602 7.40215 2.1928 6.46447 3.13048C5.52678 4.06816 5 5.33993 5 6.66602C5 12.4993 2.5 14.166 2.5 14.166H17.5C17.5 14.166 15 12.4993 15 6.66602Z" stroke-linecap="round" stroke-linejoin="round"/>
<path d="M11.4419 17.5C11.2954 17.7526 11.0851 17.9622 10.8321 18.1079C10.5791 18.2537 10.2922 18.3304 10.0003 18.3304C9.70828 18.3304 9.42142 18.2537 9.1684 18.1079C8.91539 17.9622 8.7051 17.7526 8.55859 17.5" stroke-linecap="round" stroke-linejoin="round"/>
</svg>
