<svg width="32" height="32" viewBox="0 0 32 32" fill="none" xmlns="http://www.w3.org/2000/svg">
<path d="M16 11C16 9.93913 15.5786 8.92172 14.8284 8.17157C14.0783 7.42143 13.0609 7 12 7H6V22H13C13.7956 22 14.5587 22.3161 15.1213 22.8787C15.6839 23.4413 16 24.2044 16 25M16 11V25M16 11C16 9.93913 16.4214 8.92172 17.1716 8.17157C17.9217 7.42143 18.9391 7 20 7H26V22H19C18.2044 22 17.4413 22.3161 16.8787 22.8787C16.3161 23.4413 16 24.2044 16 25" stroke="#99A1BD" stroke-width="2" stroke-linecap="round" stroke-linejoin="round"/>
</svg>
