<svg width="14" height="14" viewBox="0 0 14 14" fill="none" xmlns="http://www.w3.org/2000/svg">
<path d="M11.6665 4.08334H2.33317C1.68884 4.08334 1.1665 4.60568 1.1665 5.25001V11.0833C1.1665 11.7277 1.68884 12.25 2.33317 12.25H11.6665C12.3108 12.25 12.8332 11.7277 12.8332 11.0833V5.25001C12.8332 4.60568 12.3108 4.08334 11.6665 4.08334Z" stroke="white" stroke-width="1.5" stroke-linecap="round" stroke-linejoin="round"/>
<path d="M9.33317 12.25V2.91667C9.33317 2.60725 9.21025 2.3105 8.99146 2.09171C8.77267 1.87292 8.47592 1.75 8.1665 1.75H5.83317C5.52375 1.75 5.22701 1.87292 5.00821 2.09171C4.78942 2.3105 4.6665 2.60725 4.6665 2.91667V12.25" stroke="white" stroke-width="1.5" stroke-linecap="round" stroke-linejoin="round"/>
</svg>
