<svg width="20" height="20" viewBox="0 0 20 20" fill="none" xmlns="http://www.w3.org/2000/svg">
<path fill-rule="evenodd" clip-rule="evenodd" d="M10 3.33333C6.3181 3.33333 3.33333 6.3181 3.33333 10C3.33333 13.6819 6.3181 16.6667 10 16.6667C13.6819 16.6667 16.6667 13.6819 16.6667 10C16.6667 6.3181 13.6819 3.33333 10 3.33333ZM0 10C0 4.47715 4.47715 0 10 0C15.5228 0 20 4.47715 20 10C20 15.5228 15.5228 20 10 20C4.47715 20 0 15.5228 0 10Z" fill="#99A1BD" fill-opacity="0.24"/>
<path fill-rule="evenodd" clip-rule="evenodd" d="M8.33334 1.66667C8.33334 0.746192 9.07954 0 10 0C11.3132 0 12.6136 0.258658 13.8268 0.761205C15.0401 1.26375 16.1425 2.00035 17.0711 2.92893C17.9997 3.85752 18.7363 4.95991 19.2388 6.17317C19.7414 7.38642 20 8.68678 20 10C20 10.9205 19.2538 11.6667 18.3333 11.6667C17.4129 11.6667 16.6667 10.9205 16.6667 10C16.6667 9.12452 16.4942 8.25762 16.1592 7.44878C15.8242 6.63994 15.3331 5.90501 14.7141 5.28595C14.095 4.6669 13.3601 4.17583 12.5512 3.8408C11.7424 3.50577 10.8755 3.33333 10 3.33333C9.07954 3.33333 8.33334 2.58714 8.33334 1.66667Z" fill="#4C82FB"/>
</svg>
