<svg width="24" height="24" viewBox="0 0 24 24" fill="none" xmlns="http://www.w3.org/2000/svg">
<path d="M13 6C13 5.44772 12.5523 5 12 5C11.4477 5 11 5.44772 11 6H13ZM12 12H11C11 12.3788 11.214 12.725 11.5528 12.8944L12 12ZM15.5528 14.8944C16.0468 15.1414 16.6474 14.9412 16.8944 14.4472C17.1414 13.9532 16.9412 13.3526 16.4472 13.1056L15.5528 14.8944ZM21 12C21 16.9706 16.9706 21 12 21V23C18.0751 23 23 18.0751 23 12H21ZM12 21C7.02944 21 3 16.9706 3 12H1C1 18.0751 5.92487 23 12 23V21ZM3 12C3 7.02944 7.02944 3 12 3V1C5.92487 1 1 5.92487 1 12H3ZM12 3C16.9706 3 21 7.02944 21 12H23C23 5.92487 18.0751 1 12 1V3ZM11 6V12H13V6H11ZM11.5528 12.8944L15.5528 14.8944L16.4472 13.1056L12.4472 11.1056L11.5528 12.8944Z" fill="currentColor"/>
</svg>
