<svg width="24" height="24" viewBox="0 0 24 24" fill="none" xmlns="http://www.w3.org/2000/svg">
<path d="M16.4552 10.6203V10.6203C15.9047 10.6203 15.4356 10.2418 15.216 9.73692C14.9005 9.01124 14.4417 8.35296 13.8639 7.80314C13.0592 7.03747 12.0559 6.51286 10.9679 6.28892C9.87997 6.06498 8.75102 6.15069 7.70936 6.53632C6.66769 6.92194 5.75508 7.59201 5.07521 8.47039C4.39534 9.34877 3.97548 10.4002 3.86335 11.5053C3.75121 12.6104 3.95129 13.7248 4.44085 14.7218C4.93041 15.7189 5.68982 16.5586 6.63278 17.1456C7.57575 17.7326 8.66447 18.0434 9.77522 18.0426H16.4552C17.4395 18.0426 18.3834 17.6516 19.0794 16.9556C19.7754 16.2596 20.1663 15.3157 20.1663 14.3314C20.1663 13.3472 19.7754 12.4033 19.0794 11.7073C18.3834 11.0113 17.4395 10.6203 16.4552 10.6203Z" stroke="currentColor" stroke-linecap="round" stroke-linejoin="round" stroke-width="2"/>
</svg>
