<svg width="20" height="15" viewBox="0 0 20 15" fill="none" xmlns="http://www.w3.org/2000/svg">
<path d="M14.6775 6.02818V6.02818C14.0997 6.02818 13.6073 5.63089 13.3769 5.10099C13.0457 4.33934 12.5642 3.64843 11.9577 3.07137C11.1131 2.26775 10.0601 1.71714 8.91822 1.4821C7.77635 1.24706 6.59145 1.33702 5.49816 1.74175C4.40487 2.14649 3.44702 2.84977 2.73345 3.77169C2.01989 4.69361 1.57923 5.79719 1.46153 6.95704C1.34384 8.11689 1.55383 9.2865 2.06765 10.333C2.58148 11.3794 3.37852 12.2608 4.36823 12.8769C5.35793 13.493 6.50061 13.8191 7.66641 13.8183H14.6775C15.7105 13.8183 16.7013 13.4079 17.4317 12.6774C18.1622 11.947 18.5725 10.9563 18.5725 9.92323C18.5725 8.8902 18.1622 7.89948 17.4317 7.16902C16.7013 6.43855 15.7105 6.02818 14.6775 6.02818Z" stroke="currentColor" stroke-width="1.5" stroke-linecap="round" stroke-linejoin="round"/>
</svg>
