<svg width="25" height="24" viewBox="0 0 25 24" fill="none" xmlns="http://www.w3.org/2000/svg">
<path d="M16.9557 10.6203V10.6203C16.4052 10.6203 15.9361 10.2418 15.7165 9.73692C15.4009 9.01124 14.9422 8.35296 14.3644 7.80314C13.5597 7.03747 12.5563 6.51286 11.4684 6.28892C10.3805 6.06498 9.25151 6.15069 8.20985 6.53632C7.16818 6.92194 6.25556 7.59201 5.5757 8.47039C4.89583 9.34877 4.47597 10.4002 4.36384 11.5053C4.2517 12.6104 4.45178 13.7248 4.94134 14.7218C5.4309 15.7189 6.1903 16.5586 7.13327 17.1456C8.07624 17.7326 9.16496 18.0434 10.2757 18.0426H16.9557C17.94 18.0426 18.8839 17.6516 19.5799 16.9556C20.2758 16.2596 20.6668 15.3157 20.6668 14.3314C20.6668 13.3472 20.2758 12.4033 19.5799 11.7073C18.8839 11.0113 17.94 10.6203 16.9557 10.6203Z" stroke="currentColor" stroke-width="2" stroke-linecap="round" stroke-linejoin="round"/>
</svg>
