<svg width="36" height="36" viewBox="0 0 36 36" fill="none" xmlns="http://www.w3.org/2000/svg">
<path d="M12 0C18.628 0 24 5.37305 24 12C24 18.628 18.628 24 12 24C5.37305 24 0 18.6275 0 12C0 5.37305 5.37305 0 12 0Z" fill="#F5AC37"/>
<path fill-rule="evenodd" clip-rule="evenodd" d="M6.28506 18.6151V18.6599L6.28289 18.6615V18.6691H11.488C12.0772 18.6772 12.6641 18.6302 13.243 18.5265C13.8527 18.4072 14.4467 18.2192 15.0132 17.9644C15.2588 17.8506 15.4944 17.7131 15.7322 17.5744C15.7924 17.5393 15.8527 17.5041 15.9134 17.4692C16.1931 17.2699 16.4609 17.0539 16.7158 16.8244C17.4135 16.1937 17.9535 15.4069 18.291 14.5294C18.3137 14.4311 18.4098 14.3679 18.5086 14.3868H19.9261C20.039 14.3868 20.0763 14.349 20.0763 14.2216V13.3138C20.0838 13.2269 20.0838 13.1389 20.0763 13.0519C20.0763 13.0292 20.0821 13.0066 20.0879 12.9839C20.0996 12.9388 20.1111 12.8939 20.0763 12.8489H18.892C18.7489 12.8489 18.7489 12.8338 18.7489 12.7063C18.79 12.2495 18.79 11.791 18.7489 11.3342C18.7414 11.1992 18.7716 11.1992 18.8764 11.1992H19.9116C20.032 11.1992 20.0768 11.1689 20.0768 11.0491V9.81892C20.0731 9.73744 20.0712 9.69614 20.0496 9.6752C20.0273 9.65368 19.9843 9.65368 19.897 9.65368H18.5545C18.4498 9.6715 18.3493 9.60076 18.3304 9.496C18.1765 9.0937 17.9805 8.70867 17.7445 8.34849C17.5069 7.99317 17.2391 7.65944 16.9421 7.3511C16.5473 6.9569 16.104 6.61453 15.6223 6.33103C14.896 5.90929 14.1016 5.6139 13.2749 5.46108C12.8737 5.3871 12.4681 5.34228 12.0599 5.32608H6.43518C6.28506 5.32608 6.28506 5.35632 6.28506 5.4762V9.51868C6.28506 9.66124 6.25481 9.66124 6.14249 9.66124H4.53004C4.41016 9.66124 4.41016 9.68338 4.41016 9.766V11.0858C4.41016 11.2057 4.44742 11.2057 4.5376 11.2057H6.16517C6.28506 11.2057 6.28506 11.2278 6.28506 11.318V12.7279C6.28506 12.8554 6.24725 12.8554 6.15005 12.8554H4.41016V14.2804C4.41016 14.4003 4.44742 14.4003 4.5376 14.4003H6.16517C6.28506 14.4003 6.28506 14.4149 6.28506 14.5127V16.2752V16.8676V18.6151ZM16.6429 9.53272C16.6559 9.5662 16.6559 9.60346 16.6429 9.63748H16.6791C16.664 9.6823 16.5889 9.69742 16.5889 9.69742H7.93423C7.79167 9.69742 7.79167 9.66718 7.79167 9.55486V6.89264C7.79167 6.79489 7.80679 6.75007 7.91911 6.75007H11.9465C12.3752 6.74629 12.8029 6.79111 13.2214 6.88507C14.0509 7.08164 14.8225 7.4726 15.4716 8.02503C15.6012 8.12169 15.7168 8.23563 15.8167 8.36253C16.0284 8.57259 16.2141 8.80641 16.3718 9.06022C16.4766 9.20872 16.5668 9.36694 16.6429 9.53272ZM17.002 12.8473H12.4422H7.97203C7.88083 12.8473 7.83589 12.8473 7.81374 12.8248C7.79221 12.803 7.79221 12.7599 7.79221 12.675V11.3401C7.79221 11.2348 7.82245 11.1976 7.93477 11.1976H17.0096C17.1073 11.1976 17.1521 11.2348 17.1521 11.325C17.1894 11.7894 17.1894 12.256 17.1521 12.7198C17.1451 12.8473 17.0992 12.8473 17.002 12.8473ZM16.6429 14.4074C16.5155 14.3933 16.3869 14.3933 16.2595 14.4074H7.94233C7.83001 14.4074 7.79221 14.4074 7.79221 14.5575V17.1603C7.79221 17.2802 7.79221 17.3104 7.94233 17.3104H11.7823C11.9659 17.3245 12.1495 17.3115 12.3293 17.2732C12.8866 17.2332 13.4347 17.1122 13.9575 16.913C14.1475 16.8471 14.3311 16.7612 14.5045 16.6581H14.5569C15.457 16.1899 16.1882 15.4544 16.6494 14.5515C16.6494 14.5515 16.7018 14.4381 16.6429 14.4084V14.4074Z" fill="#FEFEFD"/>
<circle cx="24" cy="24" r="12" fill="#EDF0F4"/>
<path d="M23.9666 16.8L23.8711 17.1242V26.5326L23.9666 26.6278L28.3337 24.0464L23.9666 16.8Z" fill="#343434"/>
<path d="M23.9669 16.8L19.5996 24.0464L23.9669 26.6278V22.0613V16.8Z" fill="#8C8C8C"/>
<path d="M23.9669 27.4547L23.9131 27.5203V30.8717L23.9669 31.0287L28.3367 24.8745L23.9669 27.4547Z" fill="#3C3C3B"/>
<path d="M23.9669 31.0287V27.4547L19.5996 24.8745L23.9669 31.0287Z" fill="#8C8C8C"/>
<path d="M23.9668 26.6278L28.334 24.0464L23.9668 22.0613V26.6278Z" fill="#141414"/>
<path d="M19.5996 24.0464L23.9669 26.6278V22.0613L19.5996 24.0464Z" fill="#393939"/>
</svg>
