<svg width="22" height="22" viewBox="0 0 22 22" fill="none" xmlns="http://www.w3.org/2000/svg">
<path fill-rule="evenodd" clip-rule="evenodd" d="M11 0C4.92487 0 0 4.92487 0 11C0 17.0751 4.92487 22 11 22C17.0751 22 22 17.0751 22 11C22 4.92487 17.0751 0 11 0ZM16.1887 7.07626C16.3085 6.71693 16.2149 6.32076 15.9471 6.05293C15.6793 5.7851 15.2831 5.69158 14.9238 5.81135L8.56378 7.93135C8.26517 8.03089 8.03086 8.2652 7.93132 8.56381L5.81132 14.9238C5.69155 15.2831 5.78507 15.6793 6.0529 15.9471C6.32073 16.215 6.7169 16.3085 7.07623 16.1887L13.4362 14.0687C13.7348 13.9692 13.9692 13.7349 14.0687 13.4363L16.1887 7.07626Z" fill="currentColor"/>
</svg>
