<svg width="21" height="20" viewBox="0 0 21 20" fill="none" xmlns="http://www.w3.org/2000/svg"><path d="M10.5 0.833008L10.5 19.1663M14.6667 4.16634L8.41667 4.16634C7.64312 4.16634 6.90125 4.47363 6.35427 5.02061C5.80729 5.56759 5.5 6.30946 5.5 7.08301C5.5 7.85656 5.80729 8.59842 6.35427 9.1454C6.90125 9.69238 7.64312 9.99967 8.41667 9.99967L12.5833 9.99967C13.3569 9.99967 14.0987 10.307 14.6457 10.8539C15.1927 11.4009 15.5 12.1428 15.5 12.9163C15.5 13.6899 15.1927 14.4318 14.6457 14.9787C14.0987 15.5257 13.3569 15.833 12.5833 15.833L5.5 15.833" stroke="currentColor" stroke-linecap="round" stroke-linejoin="round"/></svg>
