<svg width="24" height="24" viewBox="0 0 24 24" fill="none" xmlns="http://www.w3.org/2000/svg">
<path d="M11 5.00022C11.5523 5.00022 12 4.55251 12 4.00022C12 3.44794 11.5523 3.00022 11 3.00022V5.00022ZM4 4.00022V3.00022V4.00022ZM2 6.00022H1H2ZM2 20.0002H1H2ZM21 13.0002C21 12.4479 20.5523 12.0002 20 12.0002C19.4477 12.0002 19 12.4479 19 13.0002H21ZM18.5 2.50023L17.7929 1.79312V1.79312L18.5 2.50023ZM20 1.87891V0.878906V1.87891ZM21.5 5.50023L20.7929 4.79312L21.5 5.50023ZM12 15.0002L12.2425 15.9704C12.4184 15.9264 12.5789 15.8355 12.7071 15.7073L12 15.0002ZM8 16.0002L7.02986 15.7577C6.94466 16.0985 7.04451 16.459 7.29289 16.7073C7.54127 16.9557 7.90176 17.0556 8.24254 16.9704L8 16.0002ZM9 12.0002L8.29289 11.2931C8.16473 11.4213 8.07382 11.5819 8.02986 11.7577L9 12.0002ZM11 3.00022H4V5.00022H11V3.00022ZM4 3.00022C3.20435 3.00022 2.44129 3.31629 1.87868 3.8789L3.29289 5.29312C3.48043 5.10558 3.73478 5.00022 4 5.00022V3.00022ZM1.87868 3.8789C1.31607 4.44151 1 5.20457 1 6.00022H3C3 5.73501 3.10536 5.48065 3.29289 5.29312L1.87868 3.8789ZM1 6.00022V20.0002H3V6.00022H1ZM1 20.0002C1 20.7959 1.31607 21.5589 1.87868 22.1215L3.29289 20.7073C3.10536 20.5198 3 20.2654 3 20.0002H1ZM1.87868 22.1215C2.44129 22.6842 3.20435 23.0002 4 23.0002V21.0002C3.73478 21.0002 3.48043 20.8949 3.29289 20.7073L1.87868 22.1215ZM4 23.0002H18V21.0002H4V23.0002ZM18 23.0002C18.7956 23.0002 19.5587 22.6842 20.1213 22.1215L18.7071 20.7073C18.5196 20.8949 18.2652 21.0002 18 21.0002V23.0002ZM20.1213 22.1215C20.6839 21.5589 21 20.7959 21 20.0002H19C19 20.2654 18.8946 20.5198 18.7071 20.7073L20.1213 22.1215ZM21 20.0002V13.0002H19V20.0002H21ZM19.2071 3.20733C19.4174 2.99705 19.7026 2.87891 20 2.87891V0.878906C19.1722 0.878906 18.3783 1.20776 17.7929 1.79312L19.2071 3.20733ZM20 2.87891C20.2974 2.87891 20.5826 2.99705 20.7929 3.20733L22.2071 1.79312C21.6217 1.20776 20.8278 0.878906 20 0.878906V2.87891ZM20.7929 3.20733C21.0032 3.41762 21.1213 3.70283 21.1213 4.00023H23.1213C23.1213 3.1724 22.7925 2.37848 22.2071 1.79312L20.7929 3.20733ZM21.1213 4.00023C21.1213 4.29762 21.0032 4.58283 20.7929 4.79312L22.2071 6.20733C22.7925 5.62197 23.1213 4.82805 23.1213 4.00023H21.1213ZM20.7929 4.79312L11.2929 14.2931L12.7071 15.7073L22.2071 6.20733L20.7929 4.79312ZM11.7575 14.0301L7.75746 15.0301L8.24254 16.9704L12.2425 15.9704L11.7575 14.0301ZM8.97014 16.2428L9.97014 12.2428L8.02986 11.7577L7.02986 15.7577L8.97014 16.2428ZM9.70711 12.7073L19.2071 3.20733L17.7929 1.79312L8.29289 11.2931L9.70711 12.7073Z" fill="currentColor"/>
</svg>
