<svg width="32" height="32" viewBox="0 0 32 32" fill="none" xmlns="http://www.w3.org/2000/svg">
<path d="M15 9.00022C15.5523 9.00022 16 8.55251 16 8.00022C16 7.44794 15.5523 7.00022 15 7.00022V9.00022ZM8 8.00022V7.00022V8.00022ZM6 10.0002H5H6ZM6 24.0002H5H6ZM25 17.0002C25 16.4479 24.5523 16.0002 24 16.0002C23.4477 16.0002 23 16.4479 23 17.0002H25ZM22.5 6.50023L21.7929 5.79312V5.79312L22.5 6.50023ZM24 5.87891V4.87891V5.87891ZM25.5 9.50023L24.7929 8.79312L25.5 9.50023ZM16 19.0002L16.2425 19.9704C16.4184 19.9264 16.5789 19.8355 16.7071 19.7073L16 19.0002ZM12 20.0002L11.0299 19.7577C10.9447 20.0985 11.0445 20.459 11.2929 20.7073C11.5413 20.9557 11.9018 21.0556 12.2425 20.9704L12 20.0002ZM13 16.0002L12.2929 15.2931C12.1647 15.4213 12.0738 15.5819 12.0299 15.7577L13 16.0002ZM15 7.00022H8V9.00022H15V7.00022ZM8 7.00022C7.20435 7.00022 6.44129 7.31629 5.87868 7.8789L7.29289 9.29312C7.48043 9.10558 7.73478 9.00022 8 9.00022V7.00022ZM5.87868 7.8789C5.31607 8.44151 5 9.20457 5 10.0002H7C7 9.73501 7.10536 9.48065 7.29289 9.29312L5.87868 7.8789ZM5 10.0002V24.0002H7V10.0002H5ZM5 24.0002C5 24.7959 5.31607 25.5589 5.87868 26.1215L7.29289 24.7073C7.10536 24.5198 7 24.2654 7 24.0002H5ZM5.87868 26.1215C6.44129 26.6842 7.20435 27.0002 8 27.0002V25.0002C7.73478 25.0002 7.48043 24.8949 7.29289 24.7073L5.87868 26.1215ZM8 27.0002H22V25.0002H8V27.0002ZM22 27.0002C22.7956 27.0002 23.5587 26.6842 24.1213 26.1215L22.7071 24.7073C22.5196 24.8949 22.2652 25.0002 22 25.0002V27.0002ZM24.1213 26.1215C24.6839 25.5589 25 24.7959 25 24.0002H23C23 24.2654 22.8946 24.5198 22.7071 24.7073L24.1213 26.1215ZM25 24.0002V17.0002H23V24.0002H25ZM23.2071 7.20733C23.4174 6.99705 23.7026 6.87891 24 6.87891V4.87891C23.1722 4.87891 22.3783 5.20776 21.7929 5.79312L23.2071 7.20733ZM24 6.87891C24.2974 6.87891 24.5826 6.99705 24.7929 7.20733L26.2071 5.79312C25.6217 5.20776 24.8278 4.87891 24 4.87891V6.87891ZM24.7929 7.20733C25.0032 7.41762 25.1213 7.70283 25.1213 8.00023H27.1213C27.1213 7.1724 26.7925 6.37848 26.2071 5.79312L24.7929 7.20733ZM25.1213 8.00023C25.1213 8.29762 25.0032 8.58283 24.7929 8.79312L26.2071 10.2073C26.7925 9.62197 27.1213 8.82805 27.1213 8.00023H25.1213ZM24.7929 8.79312L15.2929 18.2931L16.7071 19.7073L26.2071 10.2073L24.7929 8.79312ZM15.7575 18.0301L11.7575 19.0301L12.2425 20.9704L16.2425 19.9704L15.7575 18.0301ZM12.9701 20.2428L13.9701 16.2428L12.0299 15.7577L11.0299 19.7577L12.9701 20.2428ZM13.7071 16.7073L23.2071 7.20733L21.7929 5.79312L12.2929 15.2931L13.7071 16.7073Z" fill="#99A1BD"/>
</svg>
