<svg width="14" height="14" viewBox="0 0 14 14" fill="currentColor" xmlns="http://www.w3.org/2000/svg">
<path d="M11.5 7.66667C11.5 7.39052 11.2761 7.16667 11 7.16667C10.7239 7.16667 10.5 7.39052 10.5 7.66667H11.5ZM1 11.6667H0.5H1ZM2.33333 3V2.5V3ZM6.33333 3.5C6.60948 3.5 6.83333 3.27614 6.83333 3C6.83333 2.72386 6.60948 2.5 6.33333 2.5V3.5ZM9 0.5C8.72386 0.5 8.5 0.723858 8.5 1C8.5 1.27614 8.72386 1.5 9 1.5V0.5ZM13 1H13.5C13.5 0.723858 13.2761 0.5 13 0.5V1ZM12.5 5C12.5 5.27614 12.7239 5.5 13 5.5C13.2761 5.5 13.5 5.27614 13.5 5H12.5ZM5.31311 7.97978C5.11785 8.17504 5.11785 8.49162 5.31311 8.68689C5.50838 8.88215 5.82496 8.88215 6.02022 8.68689L5.31311 7.97978ZM10.5 7.66667V11.6667H11.5V7.66667H10.5ZM10.5 11.6667C10.5 11.8877 10.4122 12.0996 10.2559 12.2559L10.963 12.963C11.3068 12.6192 11.5 12.1529 11.5 11.6667H10.5ZM10.2559 12.2559C10.0996 12.4122 9.88768 12.5 9.66667 12.5V13.5C10.1529 13.5 10.6192 13.3068 10.963 12.963L10.2559 12.2559ZM9.66667 12.5H2.33333V13.5H9.66667V12.5ZM2.33333 12.5C2.11232 12.5 1.90036 12.4122 1.74408 12.2559L1.03697 12.963C1.38079 13.3068 1.8471 13.5 2.33333 13.5V12.5ZM1.74408 12.2559C1.5878 12.0996 1.5 11.8877 1.5 11.6667H0.5C0.5 12.1529 0.693154 12.6192 1.03697 12.963L1.74408 12.2559ZM1.5 11.6667V4.33333H0.5V11.6667H1.5ZM1.5 4.33333C1.5 4.11232 1.5878 3.90036 1.74408 3.74408L1.03697 3.03697C0.693154 3.38079 0.5 3.8471 0.5 4.33333H1.5ZM1.74408 3.74408C1.90036 3.5878 2.11232 3.5 2.33333 3.5V2.5C1.8471 2.5 1.38079 2.69315 1.03697 3.03697L1.74408 3.74408ZM2.33333 3.5H6.33333V2.5H2.33333V3.5ZM9 1.5H13V0.5H9V1.5ZM12.5 1V5H13.5V1H12.5ZM6.02022 8.68689L13.3536 1.35355L12.6464 0.646447L5.31311 7.97978L6.02022 8.68689Z"/>
</svg>
