<svg width="14" height="14" viewBox="0 0 14 14" fill="none" xmlns="http://www.w3.org/2000/svg">
<path d="M8.23683 8.23666C8.07662 8.4086 7.88342 8.5465 7.66875 8.64215C7.45409 8.7378 7.22236 8.78923 6.98738 8.79337C6.75241 8.79752 6.51901 8.7543 6.3011 8.66628C6.0832 8.57826 5.88525 8.44726 5.71907 8.28108C5.5529 8.11491 5.42189 7.91696 5.33388 7.69905C5.24586 7.48115 5.20264 7.24775 5.20678 7.01277C5.21093 6.7778 5.26236 6.54607 5.35801 6.33141C5.45366 6.11674 5.59156 5.92354 5.7635 5.76333M10.4652 10.465C9.46801 11.2251 8.25381 11.6462 7.00016 11.6667C2.91683 11.6667 0.583496 6.99999 0.583496 6.99999C1.3091 5.64777 2.31549 4.46635 3.53516 3.53499L10.4652 10.465ZM5.77516 2.47333C6.17669 2.37934 6.58778 2.33236 7.00016 2.33333C11.0835 2.33333 13.4168 6.99999 13.4168 6.99999C13.0627 7.66243 12.6404 8.28609 12.1568 8.86083L5.77516 2.47333Z" stroke="currentColor" stroke-linecap="round" stroke-linejoin="round"/>
<path d="M0.583496 0.583328L13.4168 13.4167" stroke="currentColor" stroke-linecap="round" stroke-linejoin="round"/>
</svg>
