<svg width="24" height="24" viewBox="0 0 24 24" fill="none" xmlns="http://www.w3.org/2000/svg">
<path d="M3.35903 8.61833C3.59191 8.61833 3.71806 8.48248 3.71806 8.2496V5.63935C3.71806 4.3779 4.3779 3.71806 5.63935 3.71806H8.2593C8.49218 3.71806 8.62803 3.59191 8.62803 3.35903C8.62803 3.12615 8.49218 3 8.2593 3H5.61995C3.90243 3 3 3.89272 3 5.60054V8.2496C3 8.48248 3.12615 8.61833 3.35903 8.61833ZM20.641 8.61833C20.8739 8.61833 21 8.48248 21 8.2496V5.60054C21 3.91213 20.1073 3 18.3898 3H15.7407C15.5078 3 15.372 3.12615 15.372 3.35903C15.372 3.59191 15.5078 3.71806 15.7407 3.71806H18.3606C19.5833 3.71806 20.2819 4.3779 20.2819 5.63935V8.2496C20.2819 8.48248 20.4081 8.61833 20.641 8.61833ZM11.2092 13.3051H11.2965C12.0825 13.3051 12.4803 12.917 12.4803 12.1213V9.14232C12.4803 8.91914 12.3736 8.8124 12.1504 8.8124C11.9369 8.8124 11.8205 8.91914 11.8205 9.14232V12.2086C11.8205 12.4706 11.607 12.6356 11.3935 12.6356H11.0636C10.8792 12.6356 10.7434 12.7714 10.7434 12.9558C10.7434 13.1887 10.8889 13.3051 11.2092 13.3051ZM8.51159 11.0733C8.8027 11.0733 8.98706 10.8889 8.98706 10.5978V9.30728C8.98706 9.00647 8.8027 8.8221 8.51159 8.8221C8.23019 8.8221 8.04582 9.01617 8.04582 9.30728V10.5978C8.04582 10.8889 8.23019 11.0733 8.51159 11.0733ZM15.4011 11.0733C15.6825 11.0733 15.8668 10.8889 15.8668 10.5978V9.30728C15.8668 9.01617 15.6825 8.8221 15.4011 8.8221C15.11 8.8221 14.9159 9.00647 14.9159 9.30728V10.5978C14.9159 10.8889 15.11 11.0733 15.4011 11.0733ZM11.9175 16.2744C12.9849 16.2744 14.0523 15.828 14.8383 15.042C14.8965 14.9935 14.9547 14.9062 14.9547 14.7801C14.9547 14.586 14.8092 14.4598 14.6345 14.4598C14.5278 14.4598 14.4404 14.4889 14.3143 14.6248C13.7321 15.207 12.8296 15.6243 11.9175 15.6243C11.0054 15.6243 10.1127 15.207 9.52075 14.6248C9.40431 14.4987 9.31698 14.4598 9.20054 14.4598C9.02588 14.4598 8.88032 14.586 8.88032 14.7801C8.88032 14.8965 8.93854 14.9838 8.99677 15.042C9.76334 15.8377 10.8501 16.2744 11.9175 16.2744ZM5.61995 21H8.2593C8.49218 21 8.62803 20.8739 8.62803 20.641C8.62803 20.4081 8.49218 20.2819 8.2593 20.2819H5.63935C4.3779 20.2819 3.71806 19.6221 3.71806 18.3509V15.7504C3.71806 15.5175 3.59191 15.372 3.35903 15.372C3.12615 15.372 3 15.5175 3 15.7504V18.3898C3 20.1073 3.90243 21 5.61995 21ZM15.7407 21H18.3898C20.1073 21 21 20.0782 21 18.3898V15.7504C21 15.5175 20.8739 15.372 20.641 15.372C20.4081 15.372 20.2819 15.5175 20.2819 15.7504V18.3509C20.2819 19.6221 19.5833 20.2819 18.3606 20.2819H15.7407C15.5078 20.2819 15.372 20.4081 15.372 20.641C15.372 20.8739 15.5078 21 15.7407 21Z" fill="currentColor"/>
</svg>
