<svg xmlns="http://www.w3.org/2000/svg" fill="none" viewBox="0 0 65 64"><path fill="#426CFF" d="M1.78 19.98c.82 0 1.27-.49 1.27-1.31V9.38c0-4.48 2.35-6.83 6.83-6.83h9.32c.83 0 1.31-.45 1.31-1.27C20.51.45 20.03 0 19.2 0H9.82C3.7 0 .5 3.17.5 9.25v9.42c0 .82.45 1.3 1.28 1.3Zm61.44 0c.83 0 1.28-.49 1.28-1.31V9.25c0-6-3.17-9.25-9.28-9.25H45.8c-.83 0-1.31.45-1.31 1.28 0 .82.48 1.27 1.31 1.27h9.32c4.34 0 6.83 2.35 6.83 6.83v9.29c0 .82.45 1.3 1.27 1.3ZM29.7 36.64h.3c2.8 0 4.22-1.38 4.22-4.2v-10.6c0-.8-.38-1.17-1.18-1.17-.75 0-1.17.38-1.17 1.17v10.9a1.5 1.5 0 0 1-1.52 1.52h-1.17a1.1 1.1 0 0 0-1.14 1.14c0 .83.52 1.24 1.66 1.24Zm-9.6-7.93c1.04 0 1.7-.66 1.7-1.7v-4.58c0-1.07-.66-1.73-1.7-1.73-1 0-1.65.7-1.65 1.73V27c0 1.04.66 1.7 1.66 1.7Zm24.5 0c1 0 1.66-.66 1.66-1.7v-4.58c0-1.04-.66-1.73-1.66-1.73-1.03 0-1.72.66-1.72 1.73V27c0 1.04.69 1.7 1.72 1.7ZM32.21 47.2c3.8 0 7.59-1.59 10.38-4.38.2-.18.42-.49.42-.94a1.1 1.1 0 0 0-1.14-1.13c-.38 0-.7.1-1.14.58a12.47 12.47 0 0 1-8.52 3.56c-3.25 0-6.42-1.49-8.53-3.56-.4-.45-.72-.58-1.13-.58a1.1 1.1 0 0 0-1.14 1.13c0 .42.2.73.41.94a14.58 14.58 0 0 0 10.39 4.38ZM9.8 64h9.39c.83 0 1.31-.45 1.31-1.28 0-.82-.48-1.27-1.31-1.27H9.88c-4.48 0-6.83-2.35-6.83-6.87v-9.25c0-.82-.45-1.34-1.27-1.34-.83 0-1.28.52-1.28 1.34v9.39C.5 60.82 3.7 64 9.82 64Zm35.99 0h9.42c6.1 0 9.28-3.28 9.28-9.28v-9.39c0-.82-.45-1.34-1.28-1.34-.82 0-1.27.52-1.27 1.34v9.25c0 4.52-2.49 6.87-6.83 6.87H45.8c-.83 0-1.31.45-1.31 1.27 0 .83.48 1.28 1.31 1.28Z"/></svg>