<svg width="60" height="60" viewBox="0 0 60 60" fill="currentColor" xmlns="http://www.w3.org/2000/svg">
<path d="M13.1251 9.76853C12.8252 9.76471 12.534 9.66762 12.2918 9.49073C12.0497 9.31384 11.8686 9.06594 11.7738 8.78146C11.679 8.49697 11.6751 8.19001 11.7627 7.90321C11.8503 7.61641 12.025 7.364 12.2626 7.18103C17.4361 3.52093 23.6665 1.65707 30.0001 1.87478C34.9876 1.87478 42.1501 2.71853 47.8126 6.78728C48.1222 7.00944 48.3315 7.34503 48.3947 7.72086C48.4579 8.0967 48.37 8.48228 48.1501 8.79353C47.9217 9.10149 47.5815 9.30745 47.2028 9.36707C46.824 9.42669 46.437 9.33519 46.1251 9.11229C41.3166 6.05642 35.6935 4.53294 30.0001 4.74353C24.316 4.55042 18.7229 6.2086 14.0626 9.46853C13.7972 9.67975 13.4637 9.78647 13.1251 9.76853Z" fill="currentColor"/>
<path d="M52.9314 22.9878C52.6996 22.9857 52.4715 22.9285 52.2662 22.8209C52.0608 22.7133 51.8839 22.5584 51.7502 22.369C48.5064 17.794 42.7127 11.7003 30.0002 11.7003C25.7734 11.5939 21.5835 12.51 17.7868 14.3708C13.9902 16.2315 10.6992 18.9819 8.19391 22.3878C7.96893 22.6945 7.63199 22.9 7.25633 22.9597C6.88067 23.0194 6.49663 22.9284 6.18766 22.7065C6.02558 22.5937 5.88871 22.4485 5.78574 22.28C5.68277 22.1115 5.61594 21.9234 5.5895 21.7277C5.56305 21.5321 5.57757 21.333 5.63212 21.1432C5.68668 20.9534 5.78008 20.7771 5.90641 20.6253C8.68394 16.8731 12.3224 13.8432 16.5153 11.7908C20.7083 9.73838 25.3331 8.72347 30.0002 8.83154C40.5189 8.83154 48.3939 12.7315 54.0752 20.719C54.2932 21.0326 54.3781 21.4197 54.3114 21.7957C54.2446 22.1717 54.0316 22.506 53.7189 22.7253C53.4868 22.8861 53.2136 22.9771 52.9314 22.9878Z" fill="currentColor"/>
<path d="M23.0249 58.1249C22.734 58.1234 22.4502 58.0351 22.2098 57.8715C21.9693 57.7078 21.7831 57.4762 21.6749 57.2061C21.5999 57.0295 21.5619 56.8394 21.5632 56.6475C21.5644 56.4556 21.605 56.266 21.6822 56.0903C21.7595 55.9147 21.8719 55.7567 22.0126 55.6262C22.1532 55.4956 22.319 55.3952 22.4999 55.3311C30.6937 52.1811 35.6249 45.7311 35.6249 38.0624C35.6809 37.3094 35.5739 36.5531 35.311 35.8452C35.0481 35.1374 34.6356 34.4945 34.1017 33.9606C33.5678 33.4267 32.9249 33.0142 32.2171 32.7513C31.5092 32.4884 30.7529 32.3814 29.9999 32.4374C26.5124 32.4374 24.8249 34.3124 24.3749 38.7186C24.1657 40.7795 23.1658 42.679 21.5854 44.0181C20.0051 45.3573 17.9672 46.0318 15.8999 45.8999C14.7882 45.916 13.6853 45.7005 12.6615 45.2669C11.6377 44.8333 10.7154 44.1913 9.95344 43.3817C9.19144 42.572 8.60642 41.6126 8.23565 40.5644C7.86488 39.5162 7.71648 38.4023 7.79992 37.2936C7.90353 31.4965 10.2959 25.9758 14.455 21.9361C18.6141 17.8964 24.2023 15.6658 29.9999 15.7311C35.9446 15.731 41.6478 18.0835 45.8636 22.2748C50.0794 26.466 52.4652 32.1553 52.4999 38.0999C52.3676 42.2856 51.4848 46.4136 49.8937 50.2874C49.7409 50.6329 49.4604 50.9058 49.1109 51.0491C48.7614 51.1924 48.37 51.1949 48.0187 51.0561C47.8444 50.9843 47.6861 50.8787 47.5529 50.7453C47.4198 50.612 47.3144 50.4535 47.2429 50.2791C47.1714 50.1047 47.1352 49.9179 47.1364 49.7294C47.1376 49.5409 47.1762 49.3546 47.2499 49.1811C48.6897 45.6563 49.4959 41.905 49.6312 38.0999C49.6064 32.9131 47.5259 27.9477 43.846 24.2923C40.166 20.637 35.1868 18.5899 29.9999 18.5999C27.4901 18.5502 24.9951 18.996 22.6578 19.9119C20.3206 20.8279 18.1869 22.1958 16.3791 23.9375C14.5712 25.6791 13.1247 27.7603 12.1223 30.0618C11.1199 32.3633 10.5813 34.8399 10.5374 37.3499C10.4606 38.0794 10.5391 38.8169 10.7679 39.5138C10.9966 40.2107 11.3704 40.8513 11.8646 41.3934C12.3588 41.9354 12.9623 42.3666 13.6352 42.6586C14.3081 42.9506 15.0352 43.0967 15.7687 43.0874C16.4439 43.1545 17.1257 43.0872 17.7748 42.8894C18.4239 42.6916 19.0274 42.3671 19.5504 41.9348C20.0733 41.5024 20.5055 40.9708 20.8219 40.3705C21.1383 39.7702 21.3326 39.1132 21.3937 38.4374C22.0687 32.6061 24.9374 29.6436 29.9437 29.6436C31.0782 29.5863 32.2121 29.7688 33.2713 30.1792C34.3305 30.5896 35.2914 31.2187 36.0911 32.0255C36.8908 32.8323 37.5114 33.7986 37.9125 34.8614C38.3135 35.9242 38.486 37.0597 38.4187 38.1936C38.4187 47.0811 32.7937 54.5436 23.4187 58.1249C23.2879 58.1399 23.1557 58.1399 23.0249 58.1249Z" fill="currentColor"/>
<path d="M37.0689 56.7755C36.7097 56.7697 36.3643 56.6369 36.0939 56.4005C35.9601 56.268 35.8539 56.1103 35.7814 55.9365C35.7089 55.7627 35.6716 55.5763 35.6716 55.388C35.6716 55.1997 35.7089 55.0133 35.7814 54.8395C35.8539 54.6657 35.9601 54.508 36.0939 54.3755C40.3122 50.0029 42.6886 44.1761 42.7314 38.1005C42.7314 35.1755 41.8314 25.6318 30.1689 25.6318C28.4695 25.572 26.7752 25.8512 25.1849 26.4532C23.5947 27.0552 22.1402 27.9679 20.9064 29.138C19.8024 30.2302 18.9297 31.5336 18.3402 32.9703C17.7507 34.407 17.4565 35.9477 17.4751 37.5005C17.4702 37.8802 17.3159 38.2426 17.0457 38.5093C16.7755 38.776 16.411 38.9255 16.0314 38.9255C15.8427 38.928 15.6553 38.893 15.4803 38.8225C15.3052 38.752 15.1459 38.6474 15.0116 38.5148C14.8773 38.3823 14.7706 38.2243 14.6979 38.0502C14.6251 37.8761 14.5876 37.6892 14.5876 37.5005C14.5584 35.5796 14.9113 33.6721 15.6259 31.8888C16.3405 30.1056 17.4025 28.4822 18.7501 27.113C20.2439 25.6792 22.0076 24.5564 23.9388 23.8097C25.87 23.0629 27.9303 22.7072 30.0001 22.763C41.4001 22.763 45.4501 31.013 45.4501 38.1005C45.4256 44.8635 42.8084 51.3595 38.1376 56.2505C38.0087 56.4109 37.8462 56.541 37.6615 56.6317C37.4769 56.7224 37.2746 56.7715 37.0689 56.7755Z" fill="currentColor"/>
<path d="M16.2376 52.0121C15.2602 52.0098 14.2837 51.9534 13.3126 51.8433C13.1255 51.8224 12.9443 51.7648 12.7794 51.6738C12.6145 51.5829 12.4692 51.4604 12.3516 51.3132C12.2341 51.1661 12.1467 50.9973 12.0945 50.8164C12.0422 50.6355 12.026 50.4461 12.047 50.2589C12.0679 50.0718 12.1255 49.8906 12.2164 49.7257C12.3074 49.5609 12.4299 49.4155 12.577 49.298C12.7242 49.1805 12.893 49.0931 13.0739 49.0408C13.2548 48.9885 13.4442 48.9724 13.6313 48.9933C18.3001 49.5183 21.9751 48.6933 24.5813 46.5183C25.7827 45.444 26.7542 44.1376 27.4373 42.6779C28.1205 41.2182 28.5011 39.6353 28.5563 38.0246C28.5656 37.8347 28.6133 37.6487 28.6965 37.4778C28.7797 37.3069 28.8967 37.1546 29.0404 37.0301C29.1841 36.9057 29.3516 36.8117 29.5326 36.7538C29.7137 36.6959 29.9046 36.6753 30.0938 36.6933C30.4718 36.7221 30.8238 36.8966 31.0757 37.1799C31.3275 37.4633 31.4595 37.8333 31.4438 38.2121C31.3648 40.2175 30.8786 42.1859 30.0147 43.9974C29.1509 45.809 27.9274 47.4258 26.4188 48.7496C23.5246 51.02 19.9124 52.1775 16.2376 52.0121Z" fill="currentColor"/>
</svg>
