<svg width="24" height="24" color="black" viewBox="0 0 24 24" xmlns="http://www.w3.org/2000/svg">
<path fill-rule="evenodd" clip-rule="evenodd" d="M2 3C2.55228 3 3 3.44772 3 4L3 10C3 10.5523 2.55228 11 2 11C1.44772 11 1 10.5523 1 10V4C1 3.44772 1.44772 3 2 3ZM22 3C22.5523 3 23 3.44772 23 4V10C23 10.5523 22.5523 11 22 11C21.4477 11 21 10.5523 21 10V4C21 3.44772 21.4477 3 22 3ZM8 9V12H10V9H8ZM14 9V12H16V9H14ZM8 16H16V14H8V16ZM6 6H18V17C18 18.1046 17.1046 19 16 19H8C6.89543 19 6 18.1046 6 17V6ZM4 6C4 4.89543 4.89543 4 6 4H18C19.1046 4 20 4.89543 20 6V17C20 19.2091 18.2091 21 16 21H8C5.79086 21 4 19.2091 4 17V6Z" fill="currentColor" />
</svg>
