<svg width="24" height="21" viewBox="0 0 24 21" fill="none" xmlns="http://www.w3.org/2000/svg">
<path d="M20.84 3.10987C20.3292 2.59888 19.7228 2.19352 19.0554 1.91696C18.3879 1.64039 17.6725 1.49805 16.95 1.49805C16.2275 1.49805 15.5121 1.64039 14.8446 1.91696C14.1772 2.19352 13.5708 2.59888 13.06 3.10987L12 4.16987L10.94 3.10987C9.9083 2.07818 8.50903 1.49858 7.05 1.49858C5.59096 1.49858 4.19169 2.07818 3.16 3.10987C2.1283 4.14156 1.54871 5.54084 1.54871 6.99987C1.54871 8.45891 2.1283 9.85818 3.16 10.8899L4.22 11.9499L12 19.7299L19.78 11.9499L20.84 10.8899C21.351 10.3791 21.7563 9.77269 22.0329 9.10523C22.3095 8.43777 22.4518 7.72236 22.4518 6.99987C22.4518 6.27738 22.3095 5.56198 22.0329 4.89452C21.7563 4.22706 21.351 3.62063 20.84 3.10987V3.10987Z" stroke-linecap="round" stroke-linejoin="round"/>
</svg>
