<svg width="32" height="32" viewBox="0 0 32 32" fill="none" xmlns="http://www.w3.org/2000/svg">
<path d="M12.1471 12.6682C11.9638 13.1891 12.2376 13.7601 12.7586 13.9433C13.2796 14.1266 13.8505 13.8528 14.0338 13.3318L12.1471 12.6682ZM18.9204 14L17.9204 13.9985V14H18.9204ZM15.6042 16.0513C15.0803 16.226 14.7971 16.7923 14.9717 17.3162C15.1464 17.8402 15.7127 18.1233 16.2367 17.9487L15.6042 16.0513ZM16.0002 20C15.4479 20 15.0002 20.4477 15.0002 21C15.0002 21.5523 15.4479 22 16.0002 22V20ZM16.0102 22C16.5625 22 17.0102 21.5523 17.0102 21C17.0102 20.4477 16.5625 20 16.0102 20V22ZM25 16C25 20.9706 20.9706 25 16 25V27C22.0751 27 27 22.0751 27 16H25ZM16 25C11.0294 25 7 20.9706 7 16H5C5 22.0751 9.92487 27 16 27V25ZM7 16C7 11.0294 11.0294 7 16 7V5C9.92487 5 5 9.92487 5 16H7ZM16 7C20.9706 7 25 11.0294 25 16H27C27 9.92487 22.0751 5 16 5V7ZM14.0338 13.3318C14.1905 12.8863 14.4999 12.5106 14.9071 12.2713L13.8937 10.547C13.0793 11.0256 12.4606 11.777 12.1471 12.6682L14.0338 13.3318ZM14.9071 12.2713C15.3143 12.0319 15.793 11.9445 16.2585 12.0243L16.5967 10.0531C15.6656 9.8934 14.7081 10.0684 13.8937 10.547L14.9071 12.2713ZM16.2585 12.0243C16.7241 12.1042 17.1463 12.3462 17.4505 12.7075L18.9805 11.4195C18.3722 10.6969 17.5277 10.2128 16.5967 10.0531L16.2585 12.0243ZM17.4505 12.7075C17.7547 13.0689 17.9211 13.5262 17.9204 13.9985L19.9204 14.0015C19.9218 13.0568 19.5889 12.1422 18.9805 11.4195L17.4505 12.7075ZM17.9204 14C17.9204 14.4691 17.5553 14.9582 16.8657 15.4179C16.5514 15.6275 16.2299 15.789 15.983 15.8987C15.861 15.9529 15.7608 15.9929 15.6933 16.0186C15.6597 16.0314 15.6345 16.0406 15.6191 16.0461C15.6114 16.0488 15.6062 16.0506 15.6037 16.0515C15.6024 16.0519 15.6018 16.0521 15.6019 16.0521C15.6019 16.0521 15.6021 16.052 15.6025 16.0519C15.6027 16.0518 15.6029 16.0517 15.6032 16.0516C15.6034 16.0516 15.6036 16.0515 15.6037 16.0515C15.6039 16.0514 15.6042 16.0513 15.9204 17C16.2367 17.9487 16.2369 17.9486 16.2372 17.9485C16.2374 17.9484 16.2377 17.9483 16.2379 17.9483C16.2384 17.9481 16.2389 17.9479 16.2394 17.9477C16.2406 17.9474 16.2419 17.9469 16.2433 17.9464C16.2463 17.9454 16.25 17.9442 16.2544 17.9427C16.2632 17.9396 16.2748 17.9356 16.2891 17.9305C16.3177 17.9203 16.3569 17.906 16.4053 17.8876C16.502 17.8508 16.6361 17.7971 16.7953 17.7263C17.111 17.586 17.5395 17.3725 17.9751 17.082C18.7855 16.5418 19.9204 15.5309 19.9204 14H17.9204ZM16.0002 22H16.0102V20H16.0002V22Z" fill="#99A1BD"/>
</svg>
