<svg width="16" height="17" viewBox="0 0 16 17" fill="none" xmlns="http://www.w3.org/2000/svg"><path d="M7.25004 11.2054C7.25004 11.6196 7.58583 11.9554 8.00004 11.9554C8.41426 11.9554 8.75004 11.6196 8.75004 11.2054H7.25004ZM8.75004 8.53874C8.75004 8.12453 8.41426 7.78874 8.00004 7.78874C7.58583 7.78874 7.25004 8.12453 7.25004 8.53874H8.75004ZM8.00004 5.12207C7.58583 5.12207 7.25004 5.45786 7.25004 5.87207C7.25004 6.28628 7.58583 6.62207 8.00004 6.62207V5.12207ZM8.00671 6.62207C8.42092 6.62207 8.75671 6.28628 8.75671 5.87207C8.75671 5.45786 8.42092 5.12207 8.00671 5.12207V6.62207ZM13.9167 8.53874C13.9167 11.8064 11.2677 14.4554 8.00004 14.4554V15.9554C12.0962 15.9554 15.4167 12.6349 15.4167 8.53874H13.9167ZM8.00004 14.4554C4.73236 14.4554 2.08337 11.8064 2.08337 8.53874H0.583374C0.583374 12.6349 3.90393 15.9554 8.00004 15.9554V14.4554ZM2.08337 8.53874C2.08337 5.27105 4.73236 2.62207 8.00004 2.62207V1.12207C3.90393 1.12207 0.583374 4.44263 0.583374 8.53874H2.08337ZM8.00004 2.62207C11.2677 2.62207 13.9167 5.27105 13.9167 8.53874H15.4167C15.4167 4.44263 12.0962 1.12207 8.00004 1.12207V2.62207ZM8.75004 11.2054V8.53874H7.25004V11.2054H8.75004ZM8.00004 6.62207H8.00671V5.12207H8.00004V6.62207Z" fill="#6B7594"/></svg>
