<svg width="19" height="19" viewBox="0 0 19 19" fill="none" xmlns="http://www.w3.org/2000/svg">
<path d="M12.2962 6.12548L15.2397 3.18199M16.9217 1.5L15.2397 3.18199L16.9217 1.5ZM8.8397 9.58197C9.27394 10.0104 9.61913 10.5206 9.85541 11.083C10.0917 11.6454 10.2144 12.249 10.2164 12.859C10.2185 13.4691 10.0998 14.0735 9.86732 14.6375C9.63481 15.2014 9.29304 15.7139 8.86168 16.1452C8.43032 16.5766 7.9179 16.9184 7.35391 17.1509C6.78992 17.3834 6.18551 17.502 5.57548 17.5C4.96545 17.4979 4.36185 17.3752 3.79943 17.139C3.23701 16.9027 2.72689 16.5575 2.29843 16.1232C1.45586 15.2509 0.989636 14.0825 1.00017 12.8697C1.01071 11.6569 1.49717 10.4968 2.35477 9.63916C3.21237 8.78156 4.3725 8.2951 5.58529 8.28456C6.79807 8.27402 7.96648 8.74025 8.83885 9.58281L8.8397 9.58197ZM8.8397 9.58197L12.2962 6.12548L8.8397 9.58197ZM12.2962 6.12548L14.8192 8.64847L17.7627 5.70498L15.2397 3.18199L12.2962 6.12548Z" stroke="url(#paint0_linear_726_11717)" stroke-width="2" stroke-linecap="round" stroke-linejoin="round"/>
<defs>
<linearGradient id="paint0_linear_726_11717" x1="3.79378" y1="2.71212" x2="20.1763" y2="21.8948" gradientUnits="userSpaceOnUse">
<stop stop-color="#FFE49D" stop-opacity="0.97"/>
<stop offset="0.979167" stop-color="#78E683"/>
</linearGradient>
</defs>
</svg>
