<svg width="24" height="24" viewBox="0 0 24 24" fill="none" xmlns="http://www.w3.org/2000/svg">
<path d="M15.1086 8.80327L18.42 5.49185M20.3123 3.59961L18.42 5.49185L20.3123 3.59961ZM11.22 12.6918C11.7086 13.1738 12.0969 13.7477 12.3627 14.3805C12.6285 15.0132 12.7666 15.6922 12.7689 16.3785C12.7712 17.0648 12.6377 17.7448 12.3761 18.3792C12.1146 19.0137 11.7301 19.5902 11.2448 20.0755C10.7595 20.5608 10.183 20.9453 9.54854 21.2068C8.91405 21.4684 8.23409 21.6019 7.54781 21.5996C6.86152 21.5973 6.18247 21.4593 5.54975 21.1934C4.91703 20.9276 4.34314 20.5393 3.86112 20.0508C2.91323 19.0693 2.38873 17.7549 2.40059 16.3905C2.41244 15.0261 2.95971 13.721 3.92451 12.7562C4.88931 11.7914 6.19445 11.2441 7.55884 11.2322C8.92322 11.2204 10.2377 11.7449 11.2191 12.6928L11.22 12.6918ZM11.22 12.6918L15.1086 8.80327L11.22 12.6918ZM15.1086 8.80327L17.947 11.6416L21.2584 8.33021L18.42 5.49185L15.1086 8.80327Z" stroke="currentColor"/>
</svg>
