<svg width="20" height="20" viewBox="0 0 20 20" fill="none" xmlns="http://www.w3.org/2000/svg"><path d="M6 8V4.33333C6 3.44928 6.42143 2.60143 7.17157 1.97631C7.92172 1.35119 8.93913 1 10 1C11.0609 1 12.0783 1.35119 12.8284 1.97631C13.5786 2.60143 14 3.44928 14 4.33333V8M4.55556 8H15.4444C16.3036 8 17 8.81403 17 9.81818V16.1818C17 17.186 16.3036 18 15.4444 18H4.55556C3.69645 18 3 17.186 3 16.1818V9.81818C3 8.81403 3.69645 8 4.55556 8Z" stroke="currentColor" stroke-width="2" stroke-linecap="round" stroke-linejoin="round"/><path d="M6 8V4.33333C6 3.44928 6.42143 2.60143 7.17157 1.97631C7.92172 1.35119 8.93913 1 10 1C11.0609 1 12.0783 1.35119 12.8284 1.97631C13.5786 2.60143 14 3.44928 14 4.33333V8M4.55556 8H15.4444C16.3036 8 17 8.81403 17 9.81818V16.1818C17 17.186 16.3036 18 15.4444 18H4.55556C3.69645 18 3 17.186 3 16.1818V9.81818C3 8.81403 3.69645 8 4.55556 8Z" stroke="currentColor" stroke-opacity="0.6" stroke-width="2" stroke-linecap="round" stroke-linejoin="round"/></svg>
