<svg width="24" height="24" viewBox="0 0 24 24" fill="none" xmlns="http://www.w3.org/2000/svg">
<path d="M7.19961 9.59922V5.19922C7.19961 4.13835 7.70532 3.12094 8.6055 2.37079C9.50567 1.62065 10.7266 1.19922 11.9996 1.19922C13.2726 1.19922 14.4935 1.62065 15.3937 2.37079C16.2939 3.12094 16.7996 4.13835 16.7996 5.19922V9.59922M5.46628 9.59922H18.5329C19.5639 9.59922 20.3996 10.5761 20.3996 11.781V19.4174C20.3996 20.6224 19.5639 21.5992 18.5329 21.5992H5.46628C4.43534 21.5992 3.59961 20.6224 3.59961 19.4174V11.781C3.59961 10.5761 4.43534 9.59922 5.46628 9.59922Z" stroke="currentColor"/>
</svg>
