<svg width="32" height="32" viewBox="0 0 32 32" fill="none" xmlns="http://www.w3.org/2000/svg">
<path d="M11.1996 13.6002V9.2002C11.1996 8.13933 11.7053 7.12191 12.6055 6.37177C13.5057 5.62162 14.7266 5.2002 15.9996 5.2002C17.2726 5.2002 18.4935 5.62162 19.3937 6.37177C20.2939 7.12191 20.7996 8.13933 20.7996 9.2002V13.6002M9.46628 13.6002H22.5329C23.5639 13.6002 24.3996 14.577 24.3996 15.782V23.4184C24.3996 24.6234 23.5639 25.6002 22.5329 25.6002H9.46628C8.43534 25.6002 7.59961 24.6234 7.59961 23.4184V15.782C7.59961 14.577 8.43534 13.6002 9.46628 13.6002Z" stroke="#99A1BD" stroke-width="2" stroke-linecap="round" stroke-linejoin="round"/>
</svg>
