<svg width="16" height="16" viewBox="0 0 16 16" fill="none" xmlns="http://www.w3.org/2000/svg">
<path d="M10.3939 3.72332C10.5176 3.59969 10.6643 3.50162 10.8259 3.43472C10.9874 3.36781 11.1605 3.33337 11.3354 3.33337C11.5102 3.33337 11.6833 3.36781 11.8448 3.43472C12.0064 3.50162 12.1531 3.59969 12.2768 3.72332C12.4004 3.84695 12.4985 3.99371 12.5654 4.15524C12.6323 4.31677 12.6667 4.48989 12.6667 4.66473C12.6667 4.83956 12.6323 5.01269 12.5654 5.17421C12.4985 5.33574 12.4004 5.48251 12.2768 5.60614L5.92225 11.9606L3.33337 12.6667L4.03943 10.0778L10.3939 3.72332Z" stroke="currentColor" stroke-linecap="round" stroke-linejoin="round"/>
</svg>
