<svg width="25" height="24" viewBox="0 0 25 24" fill="none" xmlns="http://www.w3.org/2000/svg">
<path d="M16.0909 5.58492C16.2763 5.39948 16.4964 5.25238 16.7387 5.15201C16.981 5.05165 17.2407 5 17.503 5C17.7652 5 18.0249 5.05165 18.2672 5.15201C18.5095 5.25238 18.7296 5.39948 18.9151 5.58492C19.1005 5.77036 19.2476 5.99051 19.348 6.2328C19.4483 6.47509 19.5 6.73478 19.5 6.99703C19.5 7.25928 19.4483 7.51897 19.348 7.76126C19.2476 8.00355 19.1005 8.2237 18.9151 8.40914L9.38331 17.9409L5.5 19L6.55909 15.1167L16.0909 5.58492Z" stroke="currentColor" stroke-width="2" stroke-linecap="round" stroke-linejoin="round"/>
</svg>
