<svg width="13" height="13" viewBox="0 0 13 13" fill="none" xmlns="http://www.w3.org/2000/svg">
<path d="M9.32139 1.6262C9.46709 1.4805 9.64007 1.36492 9.83044 1.28607C10.0208 1.20721 10.2248 1.16663 10.4309 1.16663C10.637 1.16663 10.841 1.20721 11.0314 1.28607C11.2217 1.36492 11.3947 1.4805 11.5404 1.6262C11.6861 1.77191 11.8017 1.94488 11.8806 2.13525C11.9594 2.32563 12 2.52967 12 2.73572C12 2.94178 11.9594 3.14582 11.8806 3.33619C11.8017 3.52656 11.6861 3.69954 11.5404 3.84524L4.05117 11.3345L1 12.1666L1.83214 9.11545L9.32139 1.6262Z" stroke="currentColor" stroke-width="1.5" stroke-linecap="round" stroke-linejoin="round"/>
</svg>
