<svg stroke="white" width="18" height="18" viewBox="0 0 18 18" fill="none" xmlns="http://www.w3.org/2000/svg">
<path d="M6.75 1.5H2.25C1.83579 1.5 1.5 1.83579 1.5 2.25V6.75C1.5 7.16421 1.83579 7.5 2.25 7.5H6.75C7.16421 7.5 7.5 7.16421 7.5 6.75V2.25C7.5 1.83579 7.16421 1.5 6.75 1.5Z" stroke-width="2" stroke-linecap="round" stroke-linejoin="round"/>
<path d="M6.75 10.5H2.25C1.83579 10.5 1.5 10.8358 1.5 11.25V15.75C1.5 16.1642 1.83579 16.5 2.25 16.5H6.75C7.16421 16.5 7.5 16.1642 7.5 15.75V11.25C7.5 10.8358 7.16421 10.5 6.75 10.5Z" stroke-width="2" stroke-linecap="round" stroke-linejoin="round"/>
<path d="M15.75 1.5H11.25C10.8358 1.5 10.5 1.83579 10.5 2.25V6.75C10.5 7.16421 10.8358 7.5 11.25 7.5H15.75C16.1642 7.5 16.5 7.16421 16.5 6.75V2.25C16.5 1.83579 16.1642 1.5 15.75 1.5Z" stroke-width="2" stroke-linecap="round" stroke-linejoin="round"/>
<path d="M10.5 10.5V13.5" stroke-width="2" stroke-linecap="round" stroke-linejoin="round"/>
<path d="M10.5 16.5H13.5V10.5" stroke-width="2" stroke-linecap="round" stroke-linejoin="round"/>
<path d="M13.5 12H16.5" stroke-width="2" stroke-linecap="round" stroke-linejoin="round"/>
<path d="M16.5 15V16.5" stroke-width="2" stroke-linecap="round" stroke-linejoin="round"/>
</svg>
