<svg width="25" height="25" viewBox="0 0 25 25" fill="none" xmlns="http://www.w3.org/2000/svg">
<path d="M8.5 3.49902H5.5C4.96957 3.49902 4.46086 3.70974 4.08579 4.08481C3.71071 4.45988 3.5 4.96859 3.5 5.49902V8.49902M21.5 8.49902V5.49902C21.5 4.96859 21.2893 4.45988 20.9142 4.08481C20.5391 3.70974 20.0304 3.49902 19.5 3.49902H16.5M16.5 21.499H19.5C20.0304 21.499 20.5391 21.2883 20.9142 20.9132C21.2893 20.5382 21.5 20.0295 21.5 19.499V16.499M3.5 16.499V19.499C3.5 20.0295 3.71071 20.5382 4.08579 20.9132C4.46086 21.2883 4.96957 21.499 5.5 21.499H8.5" stroke="currentColor" stroke-width="1.5" stroke-linecap="round" stroke-linejoin="round"/>
<path d="M10.7579 6.69238H7.274C6.95332 6.69238 6.69336 6.95235 6.69336 7.27303V10.7569C6.69336 11.0776 6.95332 11.3375 7.274 11.3375H10.7579C11.0786 11.3375 11.3385 11.0776 11.3385 10.7569V7.27303C11.3385 6.95235 11.0786 6.69238 10.7579 6.69238Z" stroke="currentColor" stroke-width="1.5" stroke-linecap="round" stroke-linejoin="round"/>
<path d="M10.7579 13.6602H7.274C6.95332 13.6602 6.69336 13.9202 6.69336 14.2409V17.7247C6.69336 18.0454 6.95332 18.3054 7.274 18.3054H10.7579C11.0786 18.3054 11.3385 18.0454 11.3385 17.7247V14.2409C11.3385 13.9202 11.0786 13.6602 10.7579 13.6602Z" stroke="currentColor" stroke-width="1.5" stroke-linecap="round" stroke-linejoin="round"/>
<path d="M17.7256 6.69238H14.2418C13.9211 6.69238 13.6611 6.95235 13.6611 7.27303V10.7569C13.6611 11.0776 13.9211 11.3375 14.2418 11.3375H17.7256C18.0463 11.3375 18.3063 11.0776 18.3063 10.7569V7.27303C18.3063 6.95235 18.0463 6.69238 17.7256 6.69238Z" stroke="currentColor" stroke-width="1.5" stroke-linecap="round" stroke-linejoin="round"/>
<path d="M13.6611 13.6602V15.9828" stroke="currentColor" stroke-width="1.5" stroke-linecap="round" stroke-linejoin="round"/>
<path d="M13.6611 18.3054H15.9837V13.6602" stroke="currentColor" stroke-width="1.5" stroke-linecap="round" stroke-linejoin="round"/>
<path d="M15.9836 14.8214H18.3062" stroke="currentColor" stroke-width="1.5" stroke-linecap="round" stroke-linejoin="round"/>
<path d="M18.3064 17.1441V18.3054" stroke="currentColor" stroke-width="1.5" stroke-linecap="round" stroke-linejoin="round"/>
</svg>
