<svg width="23" height="22" viewBox="0 0 23 22" fill="none" xmlns="http://www.w3.org/2000/svg">
<rect x="0.666656" width="22" height="22" rx="11" fill="currentColor"/>
<path d="M12.6667 12V14M12.6666 16H14.6666L14.6666 12M14.6667 13L16.6667 13M16.6667 15V16M7.16666 6L10.1667 6C10.4428 6 10.6667 6.22386 10.6667 6.5V9.5C10.6667 9.77614 10.4428 10 10.1667 10H7.16666C6.89051 10 6.66666 9.77614 6.66666 9.5L6.66666 6.5C6.66666 6.22386 6.89051 6 7.16666 6ZM7.16666 12H10.1667C10.4428 12 10.6667 12.2238 10.6667 12.5L10.6667 15.5C10.6667 15.7761 10.4428 16 10.1667 16H7.16666C6.89051 16 6.66666 15.7761 6.66666 15.5L6.66666 12.5C6.66666 12.2238 6.89051 12 7.16666 12ZM13.1667 6L16.1667 6C16.4428 6 16.6667 6.22386 16.6667 6.5V9.5C16.6667 9.77614 16.4428 10 16.1667 10L13.1667 10C12.8905 10 12.6667 9.77614 12.6667 9.5V6.5C12.6667 6.22386 12.8905 6 13.1667 6Z" stroke="white" stroke-width="1.25" stroke-linecap="round" stroke-linejoin="round"/>
</svg>
