<!-- <svg width="24" height="24" viewBox="0 0 24 24" fill="none" xmlns="http://www.w3.org/2000/svg">
<path d="M22 11.8199C22 12.3799 21.93 12.94 21.77 13.47H18.6699C15.7999 13.47 13.47 15.8 13.47 18.67V21.77C12.94 21.93 12.3801 22 11.8201 22C6.39007 22 2 17.6101 2 12.1801V11.8199C2 6.38995 6.39007 2 11.8201 2H12.1799C17.6099 2 22 6.38995 22 11.8199ZM14.97 18.67V21.17C15.49 20.89 15.9699 20.53 16.3999 20.1L20.1001 16.4C20.5301 15.97 20.8899 15.49 21.1699 14.97H18.6699C16.6299 14.97 14.97 16.63 14.97 18.67Z" fill="currentColor"/>
</svg> -->

<!-- 
<svg width="24" height="24" viewBox="0 0 24 24" fill="none" xmlns="http://www.w3.org/2000/svg">
<path d="M12 2C6.48 2 2 6.48 2 12C2 17.52 6.48 22 12 22C17.52 22 22 17.52 22 12C22 6.48 17.52 2 12 2ZM15.5 12.75H12.75V15.5C12.75 15.91 12.41 16.25 12 16.25C11.59 16.25 11.25 15.91 11.25 15.5V12.75H8.5C8.09 12.75 7.75 12.41 7.75 12C7.75 11.59 8.09 11.25 8.5 11.25H11.25V8.5C11.25 8.09 11.59 7.75 12 7.75C12.41 7.75 12.75 8.09 12.75 8.5V11.25H15.5C15.91 11.25 16.25 11.59 16.25 12C16.25 12.41 15.91 12.75 15.5 12.75Z" fill="currentColor"/>
</svg> -->



<svg width="24" height="24" viewBox="0 0 24 24" fill="none" xmlns="http://www.w3.org/2000/svg">
<path d="M7 10C5.343 10 4 8.657 4 7C4 5.343 5.343 4 7 4C8.657 4 10 5.343 10 7C10 8.657 8.657 10 7 10ZM20 7C20 5.343 18.657 4 17 4C15.343 4 14 5.343 14 7C14 8.657 15.343 10 17 10C18.657 10 20 8.657 20 7ZM10 17C10 15.343 8.657 14 7 14C5.343 14 4 15.343 4 17C4 18.657 5.343 20 7 20C8.657 20 10 18.657 10 17ZM20 17C20 15.343 18.657 14 17 14C15.343 14 14 15.343 14 17C14 18.657 15.343 20 17 20C18.657 20 20 18.657 20 17Z" fill="currentColor"/>
</svg>
