<svg width="24" height="24" fill="none" xmlns="http://www.w3.org/2000/svg"><g clip-path="url(#a)"  stroke-width="1.75" stroke-linecap="round" stroke-linejoin="round"><path d="M11.839 14.699a3 3 0 1 0 0-6 3 3 0 0 0 0 6Z"/><path d="M19.239 14.699a1.649 1.649 0 0 0 .33 1.82l.06.06a2.003 2.003 0 0 1 0 2.83 2 2 0 0 1-2.83 0l-.06-.06a1.65 1.65 0 0 0-1.82-.33 1.65 1.65 0 0 0-1 1.51v.17a2 2 0 0 1-4 0v-.09a1.65 1.65 0 0 0-1.08-1.51 1.65 1.65 0 0 0-1.82.33l-.06.06a1.998 1.998 0 0 1-2.83 0 2 2 0 0 1 0-2.83l.06-.06a1.65 1.65 0 0 0 .33-1.82 1.65 1.65 0 0 0-1.51-1h-.17a2 2 0 1 1 0-4h.09a1.65 1.65 0 0 0 1.51-1.08 1.65 1.65 0 0 0-.33-1.82l-.06-.06a2 2 0 1 1 2.83-2.83l.06.06a1.65 1.65 0 0 0 1.82.33h.08a1.65 1.65 0 0 0 1-1.51v-.17a2 2 0 0 1 4 0v.09a1.65 1.65 0 0 0 1 1.51 1.65 1.65 0 0 0 1.82-.33l.06-.06a2 2 0 0 1 3.416 1.415 2 2 0 0 1-.586 1.415l-.06.06a1.65 1.65 0 0 0-.33 1.82v.08a1.65 1.65 0 0 0 1.51 1h.17a2 2 0 0 1 0 4h-.09a1.65 1.65 0 0 0-1.51 1v0Z"/></g><defs><clipPath id="a"><path fill="#fff" d="M0 0h24v24H0z"/></clipPath></defs></svg>