<svg width="24" height="24" viewBox="0 0 24 24" fill="none" xmlns="http://www.w3.org/2000/svg"> <path d="M19.2389 14.6987L20.1538 15.1025L20.158 15.0927L19.2389 14.6987ZM19.5689 16.5187L18.854 17.218L18.8618 17.2258L19.5689 16.5187ZM19.6289 16.5787L18.9218 17.2858L18.9222 17.2862L19.6289 16.5787ZM19.6289 19.4087L18.9222 18.7012L18.9214 18.702L19.6289 19.4087ZM16.7989 19.4087L17.5064 18.702L17.506 18.7016L16.7989 19.4087ZM16.7389 19.3487L17.446 18.6416L17.4381 18.6339L16.7389 19.3487ZM14.9189 19.0187L15.3128 19.9379L15.3226 19.9336L14.9189 19.0187ZM13.9189 20.5287L12.9189 20.5247V20.5287H13.9189ZM9.91887 20.6087H10.9189C10.9189 20.6009 10.9188 20.5931 10.9186 20.5853L9.91887 20.6087ZM8.83887 19.0987L8.4351 20.0136C8.45438 20.0221 8.47391 20.03 8.49369 20.0373L8.83887 19.0987ZM7.01887 19.4287L6.31956 18.7138L6.31175 18.7216L7.01887 19.4287ZM6.95887 19.4887L6.25175 18.7816L6.25137 18.782L6.95887 19.4887ZM4.12887 19.4887L4.83637 18.782L4.83558 18.7812L4.12887 19.4887ZM3.54229 18.0737H4.54229H3.54229ZM4.12887 16.6587L4.83558 17.3662L4.83598 17.3658L4.12887 16.6587ZM4.18887 16.5987L4.89602 17.3059L4.90373 17.298L4.18887 16.5987ZM4.51887 14.7787L3.59967 15.1727L3.604 15.1825L4.51887 14.7787ZM3.00887 13.7787L3.01286 12.7787H3.00887V13.7787ZM0.838867 11.7787H-0.161133H0.838867ZM2.83887 9.77873V10.7787V9.77873ZM2.92887 9.77873V10.7787C2.93666 10.7787 2.94446 10.7786 2.95225 10.7785L2.92887 9.77873ZM4.43887 8.69873L3.524 8.29497C3.5155 8.31424 3.5076 8.33378 3.50033 8.35355L4.43887 8.69873ZM4.10887 6.87873L4.82377 6.17942L4.81597 6.17162L4.10887 6.87873ZM4.04887 6.81873L4.75597 6.11162L4.75558 6.11123L4.04887 6.81873ZM4.04887 3.98873L4.75558 4.69623L4.75637 4.69544L4.04887 3.98873ZM6.87887 3.98873L6.17137 4.69544L6.17176 4.69584L6.87887 3.98873ZM6.93887 4.04873L6.23172 4.75588L6.2396 4.76359L6.93887 4.04873ZM8.75887 4.37873V3.37873C8.61982 3.37873 8.48231 3.40773 8.3551 3.46387L8.75887 4.37873ZM8.83887 4.37873V5.37873C8.9743 5.37873 9.10832 5.35122 9.2328 5.29787L8.83887 4.37873ZM9.83887 2.86873L10.8389 2.87272V2.86873H9.83887ZM11.8389 0.69873V-0.30127V0.69873ZM13.8389 2.78873H12.8389L12.8389 2.79272L13.8389 2.78873ZM14.8389 4.29873L15.2427 3.38382L15.2328 3.37959L14.8389 4.29873ZM16.6589 3.96873L17.3582 4.68364L17.366 4.67584L16.6589 3.96873ZM16.7189 3.90873L17.426 4.61584L17.4264 4.61544L16.7189 3.90873ZM18.1339 3.32216V4.32216V3.32216ZM19.5489 3.90873L18.8414 4.61544L18.8422 4.61623L19.5489 3.90873ZM19.5489 6.73873L18.8422 6.03123L18.8418 6.03163L19.5489 6.73873ZM19.4889 6.79873L18.7817 6.09158L18.774 6.09947L19.4889 6.79873ZM19.1589 8.61873H20.1589C20.1589 8.47969 20.1299 8.34217 20.0737 8.21497L19.1589 8.61873ZM19.1589 8.69873H18.1589C18.1589 8.83416 18.1864 8.96818 18.2397 9.09266L19.1589 8.69873ZM20.6689 9.69873L20.6649 10.6987H20.6689V9.69873ZM20.7489 13.6987V12.6987L20.7449 12.6987L20.7489 13.6987ZM13.8389 11.6987C13.8389 12.8033 12.9434 13.6987 11.8389 13.6987V15.6987C14.048 15.6987 15.8389 13.9079 15.8389 11.6987H13.8389ZM11.8389 13.6987C10.7343 13.6987 9.83887 12.8033 9.83887 11.6987H7.83887C7.83887 13.9079 9.62973 15.6987 11.8389 15.6987V13.6987ZM9.83887 11.6987C9.83887 10.5942 10.7343 9.69873 11.8389 9.69873V7.69873C9.62973 7.69873 7.83887 9.48959 7.83887 11.6987H9.83887ZM11.8389 9.69873C12.9434 9.69873 13.8389 10.5942 13.8389 11.6987H15.8389C15.8389 9.48959 14.048 7.69873 11.8389 7.69873V9.69873ZM18.324 14.295C18.1102 14.7794 18.0464 15.3167 18.1409 15.8377L20.1088 15.4809C20.0856 15.3531 20.1013 15.2213 20.1537 15.1025L18.324 14.295ZM18.1409 15.8377C18.2354 16.3587 18.4837 16.8395 18.854 17.218L20.2837 15.8195C20.1929 15.7266 20.132 15.6087 20.1088 15.4809L18.1409 15.8377ZM18.8618 17.2258L18.9218 17.2858L20.336 15.8716L20.276 15.8116L18.8618 17.2258ZM18.9222 17.2862C19.0151 17.3791 19.0889 17.4894 19.1392 17.6108L20.9868 16.8449C20.8358 16.4807 20.6145 16.1499 20.3356 15.8712L18.9222 17.2862ZM19.1392 17.6108C19.1895 17.7322 19.2154 17.8623 19.2154 17.9937H21.2154C21.2154 17.5995 21.1377 17.2091 20.9868 16.8449L19.1392 17.6108ZM19.2154 17.9937C19.2154 18.1251 19.1895 18.2553 19.1392 18.3767L20.9868 19.1426C21.1377 18.7784 21.2154 18.388 21.2154 17.9937H19.2154ZM19.1392 18.3767C19.0889 18.4981 19.0151 18.6084 18.9222 18.7012L20.3356 20.1162C20.6145 19.8376 20.8358 19.5067 20.9868 19.1426L19.1392 18.3767ZM18.9214 18.702C18.8285 18.795 18.7182 18.8688 18.5968 18.9191L19.3627 20.7666C19.7269 20.6156 20.0577 20.3944 20.3364 20.1154L18.9214 18.702ZM18.5968 18.9191C18.4754 18.9694 18.3453 18.9953 18.2139 18.9953V20.9953C18.6081 20.9953 18.9985 20.9176 19.3627 20.7666L18.5968 18.9191ZM18.2139 18.9953C18.0825 18.9953 17.9523 18.9694 17.8309 18.9191L17.065 20.7666C17.4292 20.9176 17.8196 20.9953 18.2139 20.9953V18.9953ZM17.8309 18.9191C17.7095 18.8688 17.5992 18.795 17.5064 18.702L16.0914 20.1154C16.37 20.3944 16.7009 20.6156 17.065 20.7666L17.8309 18.9191ZM17.506 18.7016L17.446 18.6416L16.0318 20.0558L16.0918 20.1158L17.506 18.7016ZM17.4381 18.6339C17.0596 18.2636 16.5789 18.0152 16.0579 17.9208L15.701 19.8887C15.8288 19.9119 15.9468 19.9728 16.0396 20.0636L17.4381 18.6339ZM16.0579 17.9208C15.5369 17.8263 14.9995 17.8901 14.5151 18.1039L15.3226 19.9336C15.4415 19.8812 15.5733 19.8655 15.701 19.8887L16.0579 17.9208ZM14.5249 18.0996C14.0499 18.3032 13.6448 18.6412 13.3594 19.0721L15.0269 20.1764C15.0969 20.0707 15.1963 19.9878 15.3128 19.9379L14.5249 18.0996ZM13.3594 19.0721C13.0741 19.503 12.9209 20.0079 12.9189 20.5247L14.9189 20.5327C14.9194 20.406 14.9569 20.2821 15.0269 20.1764L13.3594 19.0721ZM12.9189 20.5287V20.6987H14.9189V20.5287H12.9189ZM12.9189 20.6987C12.9189 20.9639 12.8135 21.2183 12.626 21.4058L14.0402 22.8201C14.6028 22.2574 14.9189 21.4944 14.9189 20.6987H12.9189ZM12.626 21.4058C12.4384 21.5934 12.1841 21.6987 11.9189 21.6987V23.6987C12.7145 23.6987 13.4776 23.3827 14.0402 22.8201L12.626 21.4058ZM11.9189 21.6987C11.6537 21.6987 11.3993 21.5934 11.2118 21.4058L9.79755 22.8201C10.3602 23.3827 11.1232 23.6987 11.9189 23.6987V21.6987ZM11.2118 21.4058C11.0242 21.2183 10.9189 20.9639 10.9189 20.6987H8.91887C8.91887 21.4944 9.23494 22.2574 9.79755 22.8201L11.2118 21.4058ZM10.9189 20.6987V20.6087H8.91887V20.6987H10.9189ZM10.9186 20.5853C10.9062 20.0537 10.7341 19.5382 10.4247 19.1057L8.79801 20.2692C8.87388 20.3753 8.91609 20.5017 8.91914 20.6321L10.9186 20.5853ZM10.4247 19.1057C10.1154 18.6732 9.68311 18.3437 9.18405 18.1602L8.49369 20.0373C8.6161 20.0823 8.72213 20.1631 8.79801 20.2692L10.4247 19.1057ZM9.24263 18.1839C8.75822 17.9701 8.22087 17.9063 7.69987 18.0008L8.05669 19.9687C8.18448 19.9455 8.31628 19.9612 8.4351 20.0136L9.24263 18.1839ZM7.69987 18.0008C7.17887 18.0952 6.69812 18.3436 6.3196 18.7139L7.71813 20.1436C7.81097 20.0528 7.92889 19.9919 8.05669 19.9687L7.69987 18.0008ZM6.31175 18.7216L6.25175 18.7816L7.66598 20.1958L7.72598 20.1358L6.31175 18.7216ZM6.25137 18.782C6.1585 18.875 6.04821 18.9487 5.92681 18.9991L6.69269 20.8466C7.05688 20.6957 7.38775 20.4744 7.66637 20.1954L6.25137 18.782ZM5.92681 18.9991C5.8054 19.0494 5.67528 19.0753 5.54387 19.0753V21.0753C5.93812 21.0753 6.3285 20.9976 6.69269 20.8466L5.92681 18.9991ZM5.54387 19.0753C5.41246 19.0753 5.28233 19.0494 5.16093 18.9991L4.39505 20.8466C4.75924 20.9976 5.14962 21.0753 5.54387 21.0753V19.0753ZM5.16093 18.9991C5.03953 18.9487 4.92924 18.875 4.83637 18.782L3.42137 20.1954C3.69999 20.4744 4.03086 20.6957 4.39505 20.8466L5.16093 18.9991ZM4.83558 18.7812C4.7426 18.6884 4.66885 18.5781 4.61852 18.4567L2.77097 19.2226C2.92195 19.5867 3.14322 19.9176 3.42215 20.1962L4.83558 18.7812ZM4.61852 18.4567C4.5682 18.3353 4.54229 18.2051 4.54229 18.0737H2.54229C2.54229 18.468 2.62 18.8584 2.77097 19.2226L4.61852 18.4567ZM4.54229 18.0737C4.54229 17.9423 4.5682 17.8122 4.61852 17.6908L2.77097 16.9249C2.62 17.2891 2.54229 17.6795 2.54229 18.0737H4.54229ZM4.61852 17.6908C4.66885 17.5694 4.7426 17.4591 4.83558 17.3662L3.42215 15.9512C3.14322 16.2298 2.92195 16.5607 2.77097 16.9249L4.61852 17.6908ZM4.83598 17.3658L4.89598 17.3058L3.48176 15.8916L3.42176 15.9516L4.83598 17.3658ZM4.90373 17.298C5.27399 16.9195 5.52236 16.4387 5.61683 15.9177L3.64892 15.5609C3.62574 15.6887 3.56482 15.8066 3.474 15.8995L4.90373 17.298ZM5.61683 15.9177C5.71129 15.3967 5.64752 14.8594 5.43373 14.375L3.604 15.1825C3.65644 15.3013 3.67209 15.4331 3.64892 15.5609L5.61683 15.9177ZM5.43801 14.3848C5.23442 13.9098 4.89637 13.5047 4.46548 13.2193L3.36118 14.8868C3.46687 14.9568 3.54979 15.0561 3.59973 15.1727L5.43801 14.3848ZM4.46548 13.2193C4.03459 12.9339 3.52966 12.7808 3.01286 12.7787L3.00488 14.7787C3.13164 14.7792 3.25549 14.8168 3.36118 14.8868L4.46548 13.2193ZM3.00887 12.7787H2.83887V14.7787H3.00887V12.7787ZM2.83887 12.7787C2.57365 12.7787 2.3193 12.6734 2.13176 12.4858L0.717547 13.9001C1.28016 14.4627 2.04322 14.7787 2.83887 14.7787V12.7787ZM2.13176 12.4858C1.94422 12.2983 1.83887 12.0439 1.83887 11.7787H-0.161133C-0.161133 12.5744 0.154938 13.3374 0.717547 13.9001L2.13176 12.4858ZM1.83887 11.7787C1.83887 11.5135 1.94422 11.2592 2.13176 11.0716L0.717547 9.65741C0.154938 10.22 -0.161133 10.9831 -0.161133 11.7787H1.83887ZM2.13176 11.0716C2.3193 10.8841 2.57365 10.7787 2.83887 10.7787V8.77873C2.04322 8.77873 1.28016 9.0948 0.717547 9.65741L2.13176 11.0716ZM2.83887 10.7787H2.92887V8.77873H2.83887V10.7787ZM2.95225 10.7785C3.48385 10.766 3.99941 10.594 4.43191 10.2846L3.26842 8.65787C3.16233 8.73375 3.03587 8.77595 2.90548 8.779L2.95225 10.7785ZM4.43191 10.2846C4.86442 9.97527 5.19386 9.54297 5.3774 9.04391L3.50033 8.35355C3.45531 8.47596 3.3745 8.582 3.26842 8.65787L4.43191 10.2846ZM5.35373 9.1025C5.56752 8.61808 5.63129 8.08073 5.53683 7.55973L3.56892 7.91655C3.59209 8.04434 3.57644 8.17615 3.524 8.29497L5.35373 9.1025ZM5.53683 7.55973C5.44236 7.03873 5.19399 6.55798 4.82373 6.17947L3.394 7.578C3.48482 7.67084 3.54574 7.78876 3.56892 7.91655L5.53683 7.55973ZM4.81597 6.17162L4.75597 6.11162L3.34176 7.52584L3.40176 7.58584L4.81597 6.17162ZM4.75558 6.11123C4.6626 6.01836 4.58885 5.90807 4.53852 5.78667L2.69097 6.55255C2.84195 6.91674 3.06322 7.24761 3.34215 7.52623L4.75558 6.11123ZM4.53852 5.78667C4.4882 5.66527 4.46229 5.53515 4.46229 5.40373H2.46229C2.46229 5.79798 2.54 6.18836 2.69097 6.55255L4.53852 5.78667ZM4.46229 5.40373C4.46229 5.27232 4.4882 5.14219 4.53852 5.02079L2.69097 4.25491C2.54 4.6191 2.46229 5.00948 2.46229 5.40373H4.46229ZM4.53852 5.02079C4.58885 4.89939 4.6626 4.7891 4.75558 4.69623L3.34215 3.28123C3.06322 3.55985 2.84195 3.89072 2.69097 4.25491L4.53852 5.02079ZM4.75637 4.69544C4.84924 4.60247 4.95953 4.52871 5.08093 4.47838L4.31505 2.63084C3.95085 2.78181 3.61999 3.00309 3.34137 3.28202L4.75637 4.69544ZM5.08093 4.47838C5.20232 4.42806 5.33245 4.40216 5.46387 4.40216V2.40216C5.06962 2.40216 4.67924 2.47986 4.31505 2.63084L5.08093 4.47838ZM5.46387 4.40216C5.59528 4.40216 5.72541 4.42806 5.84681 4.47838L6.61269 2.63084C6.24849 2.47986 5.85811 2.40216 5.46387 2.40216V4.40216ZM5.84681 4.47838C5.9682 4.52871 6.07849 4.60247 6.17137 4.69544L7.58637 3.28202C7.30775 3.00309 6.97688 2.78181 6.61269 2.63084L5.84681 4.47838ZM6.17176 4.69584L6.23176 4.75584L7.64598 3.34163L7.58598 3.28163L6.17176 4.69584ZM6.2396 4.76359C6.61812 5.13385 7.09887 5.38222 7.61987 5.47669L7.97669 3.50878C7.8489 3.48561 7.73097 3.42469 7.63813 3.33387L6.2396 4.76359ZM7.61987 5.47669C8.14087 5.57116 8.67822 5.50738 9.16263 5.29359L8.3551 3.46387C8.23628 3.51631 8.10448 3.53195 7.97669 3.50878L7.61987 5.47669ZM8.75887 5.37873H8.83887V3.37873H8.75887V5.37873ZM9.2328 5.29787C9.70782 5.09428 10.1129 4.75624 10.3983 4.32535L8.73081 3.22105C8.66082 3.32674 8.56145 3.40965 8.44494 3.45959L9.2328 5.29787ZM10.3983 4.32535C10.6837 3.89445 10.8368 3.38953 10.8389 2.87272L8.83887 2.86474C8.83837 2.99151 8.80081 3.11536 8.73081 3.22105L10.3983 4.32535ZM10.8389 2.86873V2.69873H8.83887V2.86873H10.8389ZM10.8389 2.69873C10.8389 2.43351 10.9442 2.17916 11.1318 1.99162L9.71755 0.57741C9.15494 1.14002 8.83887 1.90308 8.83887 2.69873H10.8389ZM11.1318 1.99162C11.3193 1.80409 11.5737 1.69873 11.8389 1.69873V-0.30127C11.0432 -0.30127 10.2802 0.014801 9.71755 0.57741L11.1318 1.99162ZM11.8389 1.69873C12.1041 1.69873 12.3584 1.80409 12.546 1.99162L13.9602 0.57741C13.3976 0.0148013 12.6345 -0.30127 11.8389 -0.30127V1.69873ZM12.546 1.99162C12.7335 2.17916 12.8389 2.43351 12.8389 2.69873H14.8389C14.8389 1.90308 14.5228 1.14002 13.9602 0.57741L12.546 1.99162ZM12.8389 2.69873V2.78873H14.8389V2.69873H12.8389ZM12.8389 2.79272C12.8409 3.30953 12.9941 3.81446 13.2794 4.24535L14.9469 3.14105C14.8769 3.03536 14.8394 2.9115 14.8389 2.78474L12.8389 2.79272ZM13.2794 4.24535C13.5648 4.67624 13.9699 5.01428 14.4449 5.21787L15.2328 3.37959C15.1163 3.32965 15.0169 3.24674 14.9469 3.14105L13.2794 4.24535ZM14.4351 5.21359C14.9195 5.42738 15.4569 5.49116 15.9779 5.39669L15.621 3.42878C15.4933 3.45195 15.3615 3.43631 15.2426 3.38387L14.4351 5.21359ZM15.9779 5.39669C16.4989 5.30222 16.9796 5.05385 17.3581 4.68359L15.9596 3.25387C15.8668 3.34469 15.7488 3.40561 15.621 3.42878L15.9779 5.39669ZM17.366 4.67584L17.426 4.61584L16.0118 3.20162L15.9518 3.26162L17.366 4.67584ZM17.4264 4.61544C17.5192 4.52247 17.6295 4.44871 17.7509 4.39838L16.985 2.55084C16.6209 2.70181 16.29 2.92309 16.0114 3.20202L17.4264 4.61544ZM17.7509 4.39838C17.8723 4.34806 18.0025 4.32216 18.1339 4.32216V2.32216C17.7396 2.32216 17.3492 2.39987 16.985 2.55084L17.7509 4.39838ZM18.1339 4.32216C18.2653 4.32216 18.3954 4.34806 18.5168 4.39838L19.2827 2.55084C18.9185 2.39986 18.5281 2.32216 18.1339 2.32216V4.32216ZM18.5168 4.39838C18.6382 4.44871 18.7485 4.52247 18.8414 4.61544L20.2564 3.20202C19.9777 2.92309 19.6469 2.70181 19.2827 2.55084L18.5168 4.39838ZM18.8422 4.61623C18.9351 4.7091 19.0089 4.81939 19.0592 4.94079L20.9068 4.17491C20.7558 3.81071 20.5345 3.47985 20.2556 3.20123L18.8422 4.61623ZM19.0592 4.94079C19.1095 5.06219 19.1354 5.19232 19.1354 5.32373H21.1354C21.1354 4.92948 21.0577 4.5391 20.9068 4.17491L19.0592 4.94079ZM19.1354 5.32373C19.1354 5.45514 19.1095 5.58527 19.0592 5.70667L20.9068 6.47255C21.0577 6.10836 21.1354 5.71798 21.1354 5.32373H19.1354ZM19.0592 5.70667C19.0089 5.82807 18.9351 5.93836 18.8422 6.03123L20.2556 7.44623C20.5345 7.16761 20.7558 6.83675 20.9068 6.47255L19.0592 5.70667ZM18.8418 6.03163L18.7818 6.09163L20.196 7.50583L20.256 7.44583L18.8418 6.03163ZM18.774 6.09947C18.4037 6.47798 18.1554 6.95873 18.0609 7.47973L20.0288 7.83655C20.052 7.70876 20.1129 7.59084 20.2037 7.498L18.774 6.09947ZM18.0609 7.47973C17.9664 8.00073 18.0302 8.53808 18.244 9.0225L20.0737 8.21497C20.0213 8.09615 20.0056 7.96434 20.0288 7.83655L18.0609 7.47973ZM18.1589 8.61873V8.69873H20.1589V8.61873H18.1589ZM18.2397 9.09266C18.4433 9.56769 18.7814 9.97281 19.2123 10.2582L20.3165 8.59068C20.2109 8.52068 20.1279 8.42131 20.078 8.3048L18.2397 9.09266ZM19.2123 10.2582C19.6431 10.5435 20.1481 10.6967 20.6649 10.6987L20.6729 8.69874C20.5461 8.69823 20.4222 8.66067 20.3165 8.59068L19.2123 10.2582ZM20.6689 10.6987H20.8389V8.69873H20.6689V10.6987ZM20.8389 10.6987C21.1041 10.6987 21.3584 10.8041 21.546 10.9916L22.9602 9.57741C22.3976 9.0148 21.6345 8.69873 20.8389 8.69873V10.6987ZM21.546 10.9916C21.7335 11.1792 21.8389 11.4335 21.8389 11.6987H23.8389C23.8389 10.9031 23.5228 10.14 22.9602 9.57741L21.546 10.9916ZM21.8389 11.6987C21.8389 11.9639 21.7335 12.2183 21.546 12.4058L22.9602 13.8201C23.5228 13.2574 23.8389 12.4944 23.8389 11.6987H21.8389ZM21.546 12.4058C21.3584 12.5934 21.1041 12.6987 20.8389 12.6987V14.6987C21.6345 14.6987 22.3976 14.3827 22.9602 13.8201L21.546 12.4058ZM20.8389 12.6987H20.7489V14.6987H20.8389V12.6987ZM20.7449 12.6987C20.2281 12.7008 19.7231 12.8539 19.2923 13.1393L20.3965 14.8068C20.5022 14.7368 20.6261 14.6992 20.7529 14.6987L20.7449 12.6987ZM19.2923 13.1393C18.8614 13.4246 18.5233 13.8298 18.3197 14.3048L20.158 15.0927C20.2079 14.9761 20.2909 14.8768 20.3965 14.8068L19.2923 13.1393Z" fill="currentColor"/> </svg>