<svg width="25" height="24" viewBox="0 0 25 24" fill="none" xmlns="http://www.w3.org/2000/svg">
<path d="M16.5 18.001C16.5 19.1055 17.3954 20.001 18.5 20.001C19.6046 20.001 20.5 19.1055 20.5 18.001C20.5 16.8964 19.6046 16.001 18.5 16.001C17.3954 16.001 16.5 16.8964 16.5 18.001ZM16.5 18.001H8.5C6.84315 18.001 5.5 16.6578 5.5 15.001C5.5 13.3441 6.84315 12.001 8.5 12.001H16.5C18.1569 12.001 19.5 10.6578 19.5 9.00098C19.5 7.34412 18.1569 6.00098 16.5 6.00098H8.5M8.5 6.00098C8.5 7.10555 7.60457 8.00098 6.5 8.00098C5.39543 8.00098 4.5 7.10555 4.5 6.00098C4.5 4.89641 5.39543 4.00098 6.5 4.00098C7.60457 4.00098 8.5 4.89641 8.5 6.00098Z" stroke="currentColor" stroke-width="2"/>
</svg>
