<svg width="19" height="18" viewBox="0 0 19 18" fill="none" xmlns="http://www.w3.org/2000/svg">
<path d="M2.5 15.001C2.5 15.5533 2.94771 16.001 3.5 16.001V18.001C1.84315 18.001 0.5 16.6579 0.5 15.001H2.5ZM3.5 16.001C4.05229 16.001 4.5 15.5533 4.5 15.001H6.5C6.5 16.6579 5.15685 18.001 3.5 18.001V16.001ZM4.5 15.001C4.5 14.4487 4.05229 14.001 3.5 14.001V12.001C5.15685 12.001 6.5 13.3442 6.5 15.001H4.5ZM3.5 14.001C2.94771 14.001 2.5 14.4487 2.5 15.001H0.5C0.5 13.3442 1.84315 12.001 3.5 12.001V14.001ZM13.5 4.00101H5.5V2.00101H13.5V4.00101ZM5.5 8.00101H13.5V10.001H5.5V8.00101ZM13.5 16.001H5.5V14.001H13.5V16.001ZM17.5 12.001C17.5 14.2101 15.7091 16.001 13.5 16.001V14.001C14.6046 14.001 15.5 13.1056 15.5 12.001H17.5ZM13.5 8.00101C15.7091 8.00101 17.5 9.79187 17.5 12.001H15.5C15.5 10.8964 14.6046 10.001 13.5 10.001V8.00101ZM3.5 6.00101C3.5 7.10558 4.39543 8.00101 5.5 8.00101V10.001C3.29086 10.001 1.5 8.21015 1.5 6.00101H3.5ZM5.5 4.00101C4.39543 4.00101 3.5 4.89644 3.5 6.00101H1.5C1.5 3.79187 3.29086 2.00101 5.5 2.00101V4.00101ZM14.5 3.00101C14.5 3.55329 14.9477 4.00101 15.5 4.00101V6.00101C13.8431 6.00101 12.5 4.65786 12.5 3.00101H14.5ZM15.5 4.00101C16.0523 4.00101 16.5 3.55329 16.5 3.00101H18.5C18.5 4.65786 17.1569 6.00101 15.5 6.00101V4.00101ZM16.5 3.00101C16.5 2.44872 16.0523 2.00101 15.5 2.00101V0.00100708C17.1569 0.00100708 18.5 1.34415 18.5 3.00101H16.5ZM15.5 2.00101C14.9477 2.00101 14.5 2.44872 14.5 3.00101H12.5C12.5 1.34415 13.8431 0.00100708 15.5 0.00100708V2.00101Z" fill="currentColor"/>
</svg>
