<svg width="25" height="24" fill="none" xmlns="http://www.w3.org/2000/svg"><path d="M19.5 18a1 1 0 0 1-1 1v2a3 3 0 0 0 3-3h-2Zm-1 1a1 1 0 0 1-1-1h-2a3 3 0 0 0 3 3v-2Zm-1-1a1 1 0 0 1 1-1v-2a3 3 0 0 0-3 3h2Zm1-1a1 1 0 0 1 1 1h2a3 3 0 0 0-3-3v2ZM8.5 7h8V5h-8v2Zm8 4h-8v2h8v-2Zm-8 8h8v-2h-8v2Zm-4-4a4 4 0 0 0 4 4v-2a2 2 0 0 1-2-2h-2Zm4-4a4 4 0 0 0-4 4h2a2 2 0 0 1 2-2v-2Zm10-2a2 2 0 0 1-2 2v2a4 4 0 0 0 4-4h-2Zm-2-2a2 2 0 0 1 2 2h2a4 4 0 0 0-4-4v2Zm-9-1a1 1 0 0 1-1 1v2a3 3 0 0 0 3-3h-2Zm-1 1a1 1 0 0 1-1-1h-2a3 3 0 0 0 3 3V7Zm-1-1a1 1 0 0 1 1-1V3a3 3 0 0 0-3 3h2Zm1-1a1 1 0 0 1 1 1h2a3 3 0 0 0-3-3v2Z"/></svg>