<svg width="32" height="32" viewBox="0 0 32 32" fill="none" xmlns="http://www.w3.org/2000/svg">
<path d="M22 19C20.3431 19 19 20.3431 19 22C19 23.6569 20.3431 25 22 25C23.6569 25 25 23.6569 25 22C25 20.3431 23.6569 19 22 19ZM22 19V12C22 11.4696 21.7893 10.9609 21.4142 10.5858C21.0391 10.2107 20.5304 10 20 10H17M10 13C11.6569 13 13 11.6569 13 10C13 8.34315 11.6569 7 10 7C8.34315 7 7 8.34315 7 10C7 11.6569 8.34315 13 10 13ZM10 13V25" stroke="#99A1BD" stroke-width="2" stroke-linecap="round" stroke-linejoin="round"/>
</svg>
