<svg width="16" height="16" viewBox="0 0 16 16" fill="none" xmlns="http://www.w3.org/2000/svg">
<path d="M14 4.66675H14.5C14.5 4.39061 14.2761 4.16675 14 4.16675V4.66675ZM8.81818 9.94453L8.4614 10.2948C8.55542 10.3906 8.68398 10.4445 8.81818 10.4445C8.95238 10.4445 9.08095 10.3906 9.17496 10.2948L8.81818 9.94453ZM6.09091 7.16675L6.44769 6.81645C6.35367 6.72069 6.22511 6.66675 6.09091 6.66675C5.95671 6.66675 5.82815 6.72069 5.73413 6.81645L6.09091 7.16675ZM1.64322 10.9831C1.44976 11.1802 1.45266 11.4967 1.6497 11.6902C1.84675 11.8837 2.16332 11.8808 2.35678 11.6837L1.64322 10.9831ZM10.7273 4.16675C10.4511 4.16675 10.2273 4.39061 10.2273 4.66675C10.2273 4.94289 10.4511 5.16675 10.7273 5.16675V4.16675ZM13.5 8.00008C13.5 8.27622 13.7239 8.50008 14 8.50008C14.2761 8.50008 14.5 8.27622 14.5 8.00008H13.5ZM13.6432 4.31645L8.4614 9.59423L9.17496 10.2948L14.3568 5.01704L13.6432 4.31645ZM9.17496 9.59423L6.44769 6.81645L5.73413 7.51704L8.4614 10.2948L9.17496 9.59423ZM5.73413 6.81645L1.64322 10.9831L2.35678 11.6837L6.44769 7.51704L5.73413 6.81645ZM10.7273 5.16675H14V4.16675H10.7273V5.16675ZM13.5 4.66675V8.00008H14.5V4.66675H13.5Z" fill="currentColor"/>
</svg>
