<svg width="24" height="24" viewBox="0 0 24 24" fill="none" xmlns="http://www.w3.org/2000/svg">
<path d="M21 7H22C22 6.44772 21.5523 6 21 6V7ZM13.2273 14.9167L12.5137 15.6173C12.7017 15.8088 12.9589 15.9167 13.2273 15.9167C13.4957 15.9167 13.7528 15.8088 13.9408 15.6173L13.2273 14.9167ZM9.13636 10.75L9.84993 10.0494C9.66189 9.85789 9.40476 9.75 9.13636 9.75C8.86797 9.75 8.61084 9.85789 8.4228 10.0494L9.13636 10.75ZM2.28644 16.2994C1.89951 16.6935 1.90532 17.3266 2.29941 17.7136C2.6935 18.1005 3.32664 18.0947 3.71356 17.7006L2.28644 16.2994ZM16.0909 6C15.5386 6 15.0909 6.44772 15.0909 7C15.0909 7.55228 15.5386 8 16.0909 8V6ZM20 12C20 12.5523 20.4477 13 21 13C21.5523 13 22 12.5523 22 12H20ZM20.2864 6.29941L12.5137 14.2161L13.9408 15.6173L21.7136 7.70059L20.2864 6.29941ZM13.9408 14.2161L9.84993 10.0494L8.4228 11.4506L12.5137 15.6173L13.9408 14.2161ZM8.4228 10.0494L2.28644 16.2994L3.71356 17.7006L9.84993 11.4506L8.4228 10.0494ZM16.0909 8H21V6H16.0909V8ZM20 7V12H22V7H20Z" fill="currentColor"/>
</svg>
