<svg width="25" height="25" viewBox="0 0 25 25" fill="none" xmlns="http://www.w3.org/2000/svg">
<path d="M11.1469 0.751494C11.9218 -0.125173 13.3321 -0.125173 14.1069 0.751494L15.0405 1.80795C15.5157 2.34553 16.2668 2.57954 16.9808 2.41234L18.3838 2.08376C19.5481 1.8111 20.6892 2.60587 20.7785 3.75168L20.886 5.13248C20.9408 5.83511 21.4051 6.44774 22.0852 6.71478L23.4217 7.23959C24.5309 7.67505 24.9667 8.96105 24.3364 9.93835L23.5769 11.116C23.1904 11.7154 23.1904 12.4726 23.5769 13.0719L24.3364 14.2496C24.9667 15.2269 24.5309 16.5129 23.4217 16.9484L22.0852 17.4732C21.4051 17.7403 20.9408 18.3529 20.886 19.0555L20.7785 20.4363C20.6892 21.5821 19.5481 22.3769 18.3838 22.1043L16.9808 21.7757C16.2668 21.6084 15.5157 21.8424 15.0405 22.38L14.1069 23.4365C13.3321 24.3132 11.9218 24.3132 11.1469 23.4365L10.2134 22.38C9.73823 21.8424 8.98708 21.6084 8.27307 21.7757L6.87006 22.1043C5.70578 22.3769 4.56473 21.5821 4.47544 20.4363L4.36784 19.0555C4.31308 18.3529 3.84881 17.7403 3.16869 17.4732L1.83215 16.9484C0.723057 16.5129 0.287214 15.2269 0.917493 14.2496L1.67702 13.0719C2.06351 12.4726 2.06351 11.7154 1.67702 11.116L0.917493 9.93835C0.287214 8.96105 0.723057 7.67505 1.83215 7.23959L3.16869 6.71478C3.84881 6.44774 4.31308 5.83511 4.36784 5.13248L4.47544 3.75168C4.56473 2.60587 5.70578 1.8111 6.87006 2.08376L8.27307 2.41234C8.98708 2.57954 9.73823 2.34553 10.2134 1.80795L11.1469 0.751494Z" fill="currentColor"/>
<path d="M11.1723 14.5346L8.62646 12.0939L7.77783 12.9075L11.1723 16.1618L18.4462 9.18833L17.5976 8.37476L11.1723 14.5346Z" fill="white" stroke="white"/>
</svg>
