<svg width="24" height="24" viewBox="0 0 24 24" fill="none" xmlns="http://www.w3.org/2000/svg"><path fill-rule="evenodd" clip-rule="evenodd" d="M4 3.99902C2.34315 3.99902 1 5.34217 1 6.99902V17.999C1 19.6559 2.34315 20.999 4 20.999H20C21.6569 20.999 23 19.6559 23 17.999V6.99902C23 5.34217 21.6569 3.99902 20 3.99902H4ZM3 12.2666V10.999C3 10.4475 3.44812 9.99902 4.00115 9.99902H19.9989C20.5519 9.99902 21 10.4475 21 10.999V12.2666C20.7058 12.0964 20.3643 11.999 20 11.999H16C15.4477 11.999 14.9935 12.5275 14.7645 13.1018C14.4438 13.9062 13.789 14.8562 12 14.8562C10.29 14.8562 9.48213 13.9883 9.1936 13.2092C8.96576 12.594 8.49905 11.999 7.91447 11.999H4C3.63571 11.999 3.29417 12.0964 3 12.2666ZM19.9989 7.99902C20.3498 7.99902 20.6868 8.05931 21 8.17011V6.99902C21 6.44674 20.5523 5.99902 20 5.99902H4C3.44772 5.99902 3 6.44674 3 6.99902V8.17011C3.31318 8.05931 3.65018 7.99902 4.00115 7.99902H19.9989Z" fill="currentColor"/></svg>
