<svg width="25" height="24" viewBox="0 0 25 24" fill="none" xmlns="http://www.w3.org/2000/svg">
<path fill-rule="evenodd" clip-rule="evenodd" d="M4.8335 4C3.17664 4 1.8335 5.34315 1.8335 7V18C1.8335 19.6569 3.17664 21 4.8335 21H20.8335C22.4904 21 23.8335 19.6569 23.8335 18V7C23.8335 5.34315 22.4904 4 20.8335 4H4.8335ZM3.8335 18V11C3.8335 10.4485 4.28161 10 4.83464 10H20.8323C21.3854 10 21.8335 10.4485 21.8335 11V18C21.8335 18.5523 21.3858 19 20.8335 19H4.8335C4.28121 19 3.8335 18.5523 3.8335 18ZM20.8323 8C21.1833 8 21.5203 8.06029 21.8335 8.17109V7C21.8335 6.44772 21.3858 6 20.8335 6H4.8335C4.28121 6 3.8335 6.44772 3.8335 7V8.17109C4.14668 8.06029 4.48368 8 4.83464 8H20.8323Z" fill="#7C85A2"/>
<path d="M3.8335 12V14H8.18814C8.79459 15.5249 10.3391 16.8571 12.8335 16.8571C14.1045 16.8571 15.1726 16.5103 16.007 15.8503C16.7428 15.2684 17.1507 14.5576 17.3909 14H21.8335V12H16.8335C16.2812 12 15.827 12.5284 15.598 13.1028C15.2773 13.9072 14.6225 14.8571 12.8335 14.8571C11.1235 14.8571 10.3156 13.9893 10.0271 13.2102C9.79925 12.595 9.33254 12 8.74796 12H3.8335Z" fill="#7C85A2"/>
</svg>
