<svg width="23" height="17" viewBox="0 0 23 17" fill="none" xmlns="http://www.w3.org/2000/svg">
<path fill-rule="evenodd" clip-rule="evenodd" d="M3.75 0.00100708C2.09315 0.00100708 0.75 1.34415 0.75 3.00101V14.001C0.75 15.6579 2.09315 17.001 3.75 17.001H19.75C21.4069 17.001 22.75 15.6579 22.75 14.001V3.00101C22.75 1.34415 21.4069 0.00100708 19.75 0.00100708H3.75ZM2.75 8.26857V7.00101C2.75 6.44947 3.19812 6.00101 3.75115 6.00101H19.7489C20.3019 6.00101 20.75 6.44947 20.75 7.00101V8.26857C20.4558 8.0984 20.1143 8.00101 19.75 8.00101H15.75C15.1977 8.00101 14.7435 8.52946 14.5145 9.10382C14.1938 9.90821 13.539 10.8582 11.75 10.8582C10.04 10.8582 9.23213 9.99031 8.9436 9.21121C8.71576 8.59596 8.24905 8.00101 7.66447 8.00101H3.75C3.38571 8.00101 3.04417 8.0984 2.75 8.26857ZM19.7489 4.00101C20.0998 4.00101 20.4368 4.0613 20.75 4.1721V3.00101C20.75 2.44872 20.3023 2.00101 19.75 2.00101H3.75C3.19772 2.00101 2.75 2.44872 2.75 3.00101V4.1721C3.06318 4.0613 3.40018 4.00101 3.75115 4.00101H19.7489Z" fill="currentColor"/>
</svg>
