<?xml version="1.0" encoding="utf-8"?>
<!-- Generator: Adobe Illustrator 26.0.0, SVG Export Plug-In . SVG Version: 6.00 Build 0)  -->
<svg version="1.1" id="Camada_1" xmlns="http://www.w3.org/2000/svg" xmlns:xlink="http://www.w3.org/1999/xlink" x="0px" y="0px"
	 viewBox="0 0 305 305" style="enable-background:new 0 0 305 305;" xml:space="preserve">
<style type="text/css">

		.st0{clip-path:url(#SVGID_00000070077646920106676520000017561611161267928460_);fill:url(#SVGID_00000129912663615510122170000009267239422917985191_);}
	.st1{fill:url(#SVGID_00000096037491481012076760000011191548598560284087_);}
	.st2{fill:url(#SVGID_00000011018672792315556330000015504447407171892622_);}
	.st3{fill:url(#SVGID_00000037657343827491181770000016824476663183612313_);}
	.st4{fill:url(#SVGID_00000029743321138604861860000012487397216676239241_);}
	.st5{fill:url(#SVGID_00000177458865019210412990000012909452240824363906_);}
	.st6{fill:url(#SVGID_00000099645242900897552290000006152087766443614626_);}
	.st7{fill:url(#SVGID_00000138558975736457185800000011186217840646210488_);}
	.st8{fill:url(#SVGID_00000057106094294447305300000013680280440037943452_);}
	.st9{fill:url(#SVGID_00000031175862743465161230000009986029260866616509_);}
	.st10{fill:url(#SVGID_00000125578950386715495470000009517577893847573676_);}
	.st11{fill:url(#SVGID_00000094595930483673402720000004281677092959357094_);}
</style>
<g>
	<g>
		<g>
			<defs>
				<circle id="SVGID_1_" cx="177.7" cy="150.5" r="115.6"/>
			</defs>
			<clipPath id="SVGID_00000125561149445266635410000007272234096852975536_">
				<use xlink:href="#SVGID_1_"  style="overflow:visible;"/>
			</clipPath>

				<linearGradient id="SVGID_00000093863921991099948960000008881573306859206330_" gradientUnits="userSpaceOnUse" x1="-109.0603" y1="352.1149" x2="555.2839" y2="-119.4619">
				<stop  offset="0.1856" style="stop-color:#19EBCE"/>
				<stop  offset="0.2654" style="stop-color:#21DCD0"/>
				<stop  offset="0.4196" style="stop-color:#36B4D4"/>
				<stop  offset="0.6329" style="stop-color:#5873DB"/>
				<stop  offset="0.8947" style="stop-color:#871BE5"/>
				<stop  offset="0.9103" style="stop-color:#8A15E6"/>
			</linearGradient>

				<path style="clip-path:url(#SVGID_00000125561149445266635410000007272234096852975536_);fill:url(#SVGID_00000093863921991099948960000008881573306859206330_);" d="
				M192.6,180.1c11.6,6.7,26.2,14.6,28.3,29.9c15.3-4.1,38-8.9,32.2-22.5c-7.2-31.2-23.9-58.9-36.2-88.4c-0.9-2.1-1.6-4.5-2-6.7
				c-1.5-7.9,1.4-15.4,2.1-23.5c-3,0.4-16.1,0.4-23.5,9.6c-0.2,0.3-1.7-9.1,3.3-19.1c-8.3-2.5-73.1,25.8-94.8,81.9
				c-0.5-12.9,4.7-35,22.5-59.6c27.5-38.1,72.2-43.1,101.1-36.4c-5-2.2-5.7-3.6-17.2-7.6c-6.7-2.4-16.5-4.3-20.9-4.3
				C108.5,33.1,57.3,79.8,53.1,162.1C50,224.6,117.8,266.7,189,266.9c24.6,0.1,40.8-11,54.1-21.1c-72.7-10.4-106.5-34.2-72.9-97.7
				C166.4,155.2,171.2,167.7,192.6,180.1z M206.4,111.5c0.1,0.1,0.1,0.2,0.2,0.3c0-0.1,0.1-0.1,0.1-0.2
				c6.3,12.9,12.1,24.7,17.9,36.5c-2.1-0.8-4.1-1.7-6-2.7C204,137.6,197.9,122.3,206.4,111.5z"/>
		</g>
	</g>
	<g>

			<linearGradient id="SVGID_00000172418381699824866470000002819621924092045957_" gradientUnits="userSpaceOnUse" x1="17.6532" y1="289.0363" x2="137.6544" y2="1.5915">
			<stop  offset="0.1856" style="stop-color:#19EBCE"/>
			<stop  offset="0.2654" style="stop-color:#21DCD0"/>
			<stop  offset="0.4196" style="stop-color:#36B4D4"/>
			<stop  offset="0.6329" style="stop-color:#5873DB"/>
			<stop  offset="0.8947" style="stop-color:#871BE5"/>
			<stop  offset="0.9103" style="stop-color:#8A15E6"/>
		</linearGradient>
		<path style="fill:url(#SVGID_00000172418381699824866470000002819621924092045957_);" d="M161.9,33.5c-10.5,1.3-20.6,4-30.1,7.9
			c-13-7.1-27-12.4-41.8-15.6c7.1-3.5,24.1-5.1,32.4-5.1C140.1,23.4,146.7,25.4,161.9,33.5z"/>

			<linearGradient id="SVGID_00000065039434942305086460000011000700916943968447_" gradientUnits="userSpaceOnUse" x1="-7.0283" y1="278.7324" x2="112.973" y2="-8.7124">
			<stop  offset="0.1856" style="stop-color:#19EBCE"/>
			<stop  offset="0.2654" style="stop-color:#21DCD0"/>
			<stop  offset="0.4196" style="stop-color:#36B4D4"/>
			<stop  offset="0.6329" style="stop-color:#5873DB"/>
			<stop  offset="0.8947" style="stop-color:#871BE5"/>
			<stop  offset="0.9103" style="stop-color:#8A15E6"/>
		</linearGradient>
		<path style="fill:url(#SVGID_00000065039434942305086460000011000700916943968447_);" d="M126.3,43.8c-0.4,0.2-0.7,0.3-1.1,0.5
			c-8,3.9-15.4,8.6-22.3,14c-13.2-3.6-27.1-5.4-41.5-5.4c-3.2,0-6.4,0.1-9.6,0.3c9.5-9.6,35.2-20,47-20.6
			C108.5,35.6,113.2,36.9,126.3,43.8z"/>

			<linearGradient id="SVGID_00000162312882765844321920000014154513998183805355_" gradientUnits="userSpaceOnUse" x1="-20.4758" y1="273.1184" x2="99.5255" y2="-14.3264">
			<stop  offset="0.1856" style="stop-color:#19EBCE"/>
			<stop  offset="0.2654" style="stop-color:#21DCD0"/>
			<stop  offset="0.4196" style="stop-color:#36B4D4"/>
			<stop  offset="0.6329" style="stop-color:#5873DB"/>
			<stop  offset="0.8947" style="stop-color:#871BE5"/>
			<stop  offset="0.9103" style="stop-color:#8A15E6"/>
		</linearGradient>
		<path style="fill:url(#SVGID_00000162312882765844321920000014154513998183805355_);" d="M97.9,62.6c-0.7,0.6-1.4,1.2-2,1.8
			c-0.7,0.7-1.4,1.3-2.1,2c-4.2,4.1-8.1,8.6-11.7,13.3c-21.8,2.5-42.3,9.4-60.5,19.7c6-14.9,31.5-39.1,42.8-41.2
			C69.3,57.8,86.2,59.8,97.9,62.6z"/>

			<linearGradient id="SVGID_00000018220789612615640880000000027355899222877584_" gradientUnits="userSpaceOnUse" x1="-21.6632" y1="272.6227" x2="98.338" y2="-14.8221">
			<stop  offset="0.1856" style="stop-color:#19EBCE"/>
			<stop  offset="0.2654" style="stop-color:#21DCD0"/>
			<stop  offset="0.4196" style="stop-color:#36B4D4"/>
			<stop  offset="0.6329" style="stop-color:#5873DB"/>
			<stop  offset="0.8947" style="stop-color:#871BE5"/>
			<stop  offset="0.9103" style="stop-color:#8A15E6"/>
		</linearGradient>
		<path style="fill:url(#SVGID_00000018220789612615640880000000027355899222877584_);" d="M79,84c-0.9,1.4-1.9,2.8-2.7,4.2
			c-0.6,1-1.2,1.9-1.8,2.9c-3,5.1-5.6,10.4-7.8,15.9c-21.1,9.1-39.8,22.6-55.1,39.4c0.5-14.7,18.1-46.3,26.2-49.3
			C37.8,97.2,57.6,86.9,79,84z"/>

			<linearGradient id="SVGID_00000005230436209181511140000001602657113779658919_" gradientUnits="userSpaceOnUse" x1="-15.6866" y1="275.1178" x2="104.3146" y2="-12.3271">
			<stop  offset="0.1856" style="stop-color:#19EBCE"/>
			<stop  offset="0.2654" style="stop-color:#21DCD0"/>
			<stop  offset="0.4196" style="stop-color:#36B4D4"/>
			<stop  offset="0.6329" style="stop-color:#5873DB"/>
			<stop  offset="0.8947" style="stop-color:#871BE5"/>
			<stop  offset="0.9103" style="stop-color:#8A15E6"/>
		</linearGradient>
		<path style="fill:url(#SVGID_00000005230436209181511140000001602657113779658919_);" d="M64.3,113.6c-0.3,1-0.6,1.9-0.9,2.9
			c-0.3,1-0.6,2.1-0.9,3.1c-1.2,4.5-2.2,9.2-2.9,13.9c-18.1,17.5-32.1,39.2-40.4,63.6c-4.9-14.3-5.9-34.5,4.8-54.9
			C24.1,142,48.4,121.1,64.3,113.6z"/>

			<linearGradient id="SVGID_00000129186731569296212590000009210092200035539848_" gradientUnits="userSpaceOnUse" x1="9.2463" y1="285.5266" x2="129.2475" y2="-1.9182">
			<stop  offset="0.1856" style="stop-color:#19EBCE"/>
			<stop  offset="0.2654" style="stop-color:#21DCD0"/>
			<stop  offset="0.4196" style="stop-color:#36B4D4"/>
			<stop  offset="0.6329" style="stop-color:#5873DB"/>
			<stop  offset="0.8947" style="stop-color:#871BE5"/>
			<stop  offset="0.9103" style="stop-color:#8A15E6"/>
		</linearGradient>
		<path style="fill:url(#SVGID_00000129186731569296212590000009210092200035539848_);" d="M46.2,231.7c0,4.2,0.2,8.4,0.5,12.6
			c-10.5-11.9-18.8-40.1-17.5-55.2c7.8-19.1,20-37.1,29.3-46.9c-0.1,0.9-0.1,1.8-0.2,2.7c-0.1,2-0.2,4-0.2,6.1
			c0,5.8,0.4,11.4,1.2,17C51,187.5,46.2,209,46.2,231.7z"/>

			<linearGradient id="SVGID_00000035523627846021811890000010139554370198057632_" gradientUnits="userSpaceOnUse" x1="45.3772" y1="300.6104" x2="165.3784" y2="13.1656">
			<stop  offset="0.1856" style="stop-color:#19EBCE"/>
			<stop  offset="0.2654" style="stop-color:#21DCD0"/>
			<stop  offset="0.4196" style="stop-color:#36B4D4"/>
			<stop  offset="0.6329" style="stop-color:#5873DB"/>
			<stop  offset="0.8947" style="stop-color:#871BE5"/>
			<stop  offset="0.9103" style="stop-color:#8A15E6"/>
		</linearGradient>
		<path style="fill:url(#SVGID_00000035523627846021811890000010139554370198057632_);" d="M91.4,278c-14.8-7.1-30.8-23.5-39.6-48.5
			c0,0,1.8-38.4,9-53.6c0,0.2,0.1,0.3,0.1,0.5c0.4,2,0.9,3.9,1.4,5.8c3.8,13.9,10,26.7,18.2,38C80.6,240.6,84.5,260.1,91.4,278z"/>

			<linearGradient id="SVGID_00000036944680681586994170000005821050027132438715_" gradientUnits="userSpaceOnUse" x1="88.3136" y1="318.5353" x2="208.3148" y2="31.0905">
			<stop  offset="0.1856" style="stop-color:#19EBCE"/>
			<stop  offset="0.2654" style="stop-color:#21DCD0"/>
			<stop  offset="0.4196" style="stop-color:#36B4D4"/>
			<stop  offset="0.6329" style="stop-color:#5873DB"/>
			<stop  offset="0.8947" style="stop-color:#871BE5"/>
			<stop  offset="0.9103" style="stop-color:#8A15E6"/>
		</linearGradient>
		<path style="fill:url(#SVGID_00000036944680681586994170000005821050027132438715_);" d="M142.7,291.2c-16.6-1-34.4-12-48.8-23.3
			c-5.1-8.7-8.3-29.5-9.6-42.8c0.2,0.2,0.4,0.5,0.6,0.7c1.1,1.3,2.2,2.6,3.4,3.9c8.6,9.7,18.8,18,30.2,24.4c0.4,0.2,0.7,0.4,1.1,0.6
			C125.6,268,133.4,280.2,142.7,291.2z"/>

			<linearGradient id="SVGID_00000109031432935689992980000013065384916601114034_" gradientUnits="userSpaceOnUse" x1="130.9974" y1="336.3548" x2="250.9987" y2="48.91">
			<stop  offset="0.1856" style="stop-color:#19EBCE"/>
			<stop  offset="0.2654" style="stop-color:#21DCD0"/>
			<stop  offset="0.4196" style="stop-color:#36B4D4"/>
			<stop  offset="0.6329" style="stop-color:#5873DB"/>
			<stop  offset="0.8947" style="stop-color:#871BE5"/>
			<stop  offset="0.9103" style="stop-color:#8A15E6"/>
		</linearGradient>
		<path style="fill:url(#SVGID_00000109031432935689992980000013065384916601114034_);" d="M190,286.2c-9.7,3.1-23.1,7.3-49.6-3.7
			c-8.6-10.2-8.9-12.5-14.8-24.6c11.6,5.6,24.3,9.3,37.6,10.8c1.2,0.1,2.4,0.3,3.6,0.4C174,275.5,181.7,281.2,190,286.2z"/>

			<linearGradient id="SVGID_00000158714183003919769260000002069932691344369805_" gradientUnits="userSpaceOnUse" x1="54.4919" y1="304.4156" x2="174.4931" y2="16.9708">
			<stop  offset="0.1856" style="stop-color:#19EBCE"/>
			<stop  offset="0.2654" style="stop-color:#21DCD0"/>
			<stop  offset="0.4196" style="stop-color:#36B4D4"/>
			<stop  offset="0.6329" style="stop-color:#5873DB"/>
			<stop  offset="0.8947" style="stop-color:#871BE5"/>
			<stop  offset="0.9103" style="stop-color:#8A15E6"/>
		</linearGradient>
		<path style="fill:url(#SVGID_00000158714183003919769260000002069932691344369805_);" d="M221.9,41.5c-2.5-1-5-2-7.6-2.8
			c-0.8-0.3-1.6-0.5-2.4-0.8c-10.9-3.4-30.9-5.2-42.9-5.3c-18.3-9.3-30.2-15.2-51.7-16.9c19.9-3.5,35.3-1.4,43.7-0.3
			C179,17.6,199.3,24.4,221.9,41.5z"/>

			<linearGradient id="SVGID_00000073692140071223295290000005409626765242494861_" gradientUnits="userSpaceOnUse" x1="168.9578" y1="352.2023" x2="288.959" y2="64.7575">
			<stop  offset="0.1856" style="stop-color:#19EBCE"/>
			<stop  offset="0.2654" style="stop-color:#21DCD0"/>
			<stop  offset="0.4196" style="stop-color:#36B4D4"/>
			<stop  offset="0.6329" style="stop-color:#5873DB"/>
			<stop  offset="0.8947" style="stop-color:#871BE5"/>
			<stop  offset="0.9103" style="stop-color:#8A15E6"/>
		</linearGradient>
		<path style="fill:url(#SVGID_00000073692140071223295290000005409626765242494861_);" d="M240.8,250.7c-3.2,5.8-29.1,27-52.2,29.9
			c-7.5-4.4-8-5.5-14.5-11.2c0.9,0,1.8,0,2.7,0c3.8,0,7.5-0.2,11.2-0.5c0.3,0,0.7-0.1,1-0.1c8.1-0.8,15.9-2.5,23.4-4.8
			c0.7-0.2,1.3-0.4,2-0.6c2.7-0.9,5.3-1.9,7.9-3C228.7,257.7,234.9,254.5,240.8,250.7z"/>
	</g>
</g>
</svg>
