<?xml version="1.0" encoding="utf-8"?>
<!-- Generator: Adobe Illustrator 26.0.0, SVG Export Plug-In . SVG Version: 6.00 Build 0)  -->
<svg version="1.1" id="Camada_1" xmlns="http://www.w3.org/2000/svg" xmlns:xlink="http://www.w3.org/1999/xlink" x="0px" y="0px"
	 viewBox="0 0 305 305" style="enable-background:new 0 0 305 305;" xml:space="preserve">
<style type="text/css">
	.st0{fill:#1A1A1A;}
	.st1{clip-path:url(#SVGID_00000000193988637600097630000004580714746349012873_);fill:#262626;}
	
		.st2{clip-path:url(#SVGID_00000000193988637600097630000004580714746349012873_);fill:url(#SVGID_00000124162700805625006210000002861971714886456247_);}
	.st3{fill:url(#SVGID_00000147930167884950166880000013512471843421491604_);}
	.st4{fill:url(#SVGID_00000073716095354226414640000018297782727922047881_);}
	.st5{fill:url(#SVGID_00000096059445261790036120000005580531875897606335_);}
	.st6{fill:url(#SVGID_00000123416857758284381230000012664735956523678631_);}
	.st7{fill:url(#SVGID_00000142879357428892461820000001693694835101989002_);}
	.st8{fill:url(#SVGID_00000039811985415291522150000002664417090037035398_);}
	.st9{fill:url(#SVGID_00000021828057490072458390000018446223612192653234_);}
	.st10{fill:url(#SVGID_00000030444709053515064880000017139384130598463654_);}
	.st11{fill:url(#SVGID_00000106131211806489898270000006637029637912153784_);}
	.st12{fill:url(#SVGID_00000055666278905805453190000012762212706596894620_);}
	.st13{fill:url(#SVGID_00000139251411788814116780000015908284597367389372_);}
</style>
<g>
	<g>
		<circle class="st0" cx="152.5" cy="152.5" r="150"/>
		<g>
			<defs>
				<circle id="SVGID_1_" cx="186.4" cy="150.5" r="115.6"/>
			</defs>
			<clipPath id="SVGID_00000089550243724465134410000015218967517477192852_">
				<use xlink:href="#SVGID_1_"  style="overflow:visible;"/>
			</clipPath>
			
				<circle style="clip-path:url(#SVGID_00000089550243724465134410000015218967517477192852_);fill:#262626;" cx="205.1" cy="183.9" r="158.2"/>
			
				<linearGradient id="SVGID_00000116923456687147675540000005327158561054724994_" gradientUnits="userSpaceOnUse" x1="-100.375" y1="352.1149" x2="563.9693" y2="-119.4619">
				<stop  offset="0.1856" style="stop-color:#19EBCE"/>
				<stop  offset="0.2654" style="stop-color:#21DCD0"/>
				<stop  offset="0.4196" style="stop-color:#36B4D4"/>
				<stop  offset="0.6329" style="stop-color:#5873DB"/>
				<stop  offset="0.8947" style="stop-color:#871BE5"/>
				<stop  offset="0.9103" style="stop-color:#8A15E6"/>
			</linearGradient>
			
				<path style="clip-path:url(#SVGID_00000089550243724465134410000015218967517477192852_);fill:url(#SVGID_00000116923456687147675540000005327158561054724994_);" d="
				M201.3,180.1c11.6,6.7,26.2,14.6,28.3,29.9c15.3-4.1,38-8.9,32.2-22.5c-7.2-31.2-23.9-58.9-36.2-88.4c-0.9-2.1-1.6-4.5-2-6.7
				c-1.5-7.9,1.4-15.4,2.1-23.5c-3,0.4-16.1,0.4-23.5,9.6c-0.2,0.3-1.7-9.1,3.3-19.1c-8.3-2.5-73.1,25.8-94.8,81.9
				c-0.5-12.9,4.7-35,22.5-59.6c27.5-38.1,72.2-43.1,101.1-36.4c-5-2.2-5.7-3.6-17.2-7.6c-6.7-2.4-16.5-4.3-20.9-4.3
				C117.2,33.1,66,79.8,61.8,162.1c-3.2,62.6,64.6,104.6,135.8,104.8c24.6,0.1,40.8-11,54.1-21.1c-72.7-10.4-106.5-34.2-72.9-97.7
				C175.1,155.2,179.8,167.7,201.3,180.1z M215.1,111.5c0.1,0.1,0.1,0.2,0.2,0.3c0-0.1,0.1-0.1,0.1-0.2
				c6.3,12.9,12.1,24.7,17.9,36.5c-2.1-0.8-4.1-1.7-6-2.7C212.7,137.6,206.6,122.3,215.1,111.5z"/>
		</g>
	</g>
	<g>
		
			<linearGradient id="SVGID_00000124144734000610915230000009641436959089556120_" gradientUnits="userSpaceOnUse" x1="26.3385" y1="289.0363" x2="146.3398" y2="1.5915">
			<stop  offset="0.1856" style="stop-color:#19EBCE"/>
			<stop  offset="0.2654" style="stop-color:#21DCD0"/>
			<stop  offset="0.4196" style="stop-color:#36B4D4"/>
			<stop  offset="0.6329" style="stop-color:#5873DB"/>
			<stop  offset="0.8947" style="stop-color:#871BE5"/>
			<stop  offset="0.9103" style="stop-color:#8A15E6"/>
		</linearGradient>
		<path style="fill:url(#SVGID_00000124144734000610915230000009641436959089556120_);" d="M170.6,33.5c-10.5,1.3-20.6,4-30.1,7.9
			c-13-7.1-27-12.4-41.8-15.6c7.1-3.5,24.1-5.1,32.4-5.1C148.7,23.4,155.4,25.4,170.6,33.5z"/>
		
			<linearGradient id="SVGID_00000086650986387290510400000008891681465150796468_" gradientUnits="userSpaceOnUse" x1="1.6571" y1="278.7324" x2="121.6583" y2="-8.7124">
			<stop  offset="0.1856" style="stop-color:#19EBCE"/>
			<stop  offset="0.2654" style="stop-color:#21DCD0"/>
			<stop  offset="0.4196" style="stop-color:#36B4D4"/>
			<stop  offset="0.6329" style="stop-color:#5873DB"/>
			<stop  offset="0.8947" style="stop-color:#871BE5"/>
			<stop  offset="0.9103" style="stop-color:#8A15E6"/>
		</linearGradient>
		<path style="fill:url(#SVGID_00000086650986387290510400000008891681465150796468_);" d="M135,43.8c-0.4,0.2-0.7,0.3-1.1,0.5
			c-8,3.9-15.4,8.6-22.3,14c-13.2-3.6-27.1-5.4-41.5-5.4c-3.2,0-6.4,0.1-9.6,0.3c9.5-9.6,35.2-20,47-20.6
			C117.2,35.6,121.9,36.9,135,43.8z"/>
		
			<linearGradient id="SVGID_00000026858182025739758250000003277981868357958555_" gradientUnits="userSpaceOnUse" x1="-11.7905" y1="273.1184" x2="108.2108" y2="-14.3264">
			<stop  offset="0.1856" style="stop-color:#19EBCE"/>
			<stop  offset="0.2654" style="stop-color:#21DCD0"/>
			<stop  offset="0.4196" style="stop-color:#36B4D4"/>
			<stop  offset="0.6329" style="stop-color:#5873DB"/>
			<stop  offset="0.8947" style="stop-color:#871BE5"/>
			<stop  offset="0.9103" style="stop-color:#8A15E6"/>
		</linearGradient>
		<path style="fill:url(#SVGID_00000026858182025739758250000003277981868357958555_);" d="M106.6,62.6c-0.7,0.6-1.4,1.2-2,1.8
			c-0.7,0.7-1.4,1.3-2.1,2c-4.2,4.1-8.1,8.6-11.7,13.3c-21.8,2.5-42.3,9.4-60.5,19.7c6-14.9,31.5-39.1,42.8-41.2
			C78,57.8,94.9,59.8,106.6,62.6z"/>
		
			<linearGradient id="SVGID_00000082356532373619388390000013226878648906315179_" gradientUnits="userSpaceOnUse" x1="-12.9779" y1="272.6227" x2="107.0234" y2="-14.8221">
			<stop  offset="0.1856" style="stop-color:#19EBCE"/>
			<stop  offset="0.2654" style="stop-color:#21DCD0"/>
			<stop  offset="0.4196" style="stop-color:#36B4D4"/>
			<stop  offset="0.6329" style="stop-color:#5873DB"/>
			<stop  offset="0.8947" style="stop-color:#871BE5"/>
			<stop  offset="0.9103" style="stop-color:#8A15E6"/>
		</linearGradient>
		<path style="fill:url(#SVGID_00000082356532373619388390000013226878648906315179_);" d="M87.7,84c-0.9,1.4-1.9,2.8-2.7,4.2
			c-0.6,1-1.2,1.9-1.8,2.9c-3,5.1-5.6,10.4-7.8,15.9c-21.1,9.1-39.8,22.6-55.1,39.4c0.5-14.7,18.1-46.3,26.2-49.3
			C46.5,97.2,66.3,86.9,87.7,84z"/>
		
			<linearGradient id="SVGID_00000084505921866788626770000002784876289292274103_" gradientUnits="userSpaceOnUse" x1="-7.0013" y1="275.1178" x2="112.9999" y2="-12.3271">
			<stop  offset="0.1856" style="stop-color:#19EBCE"/>
			<stop  offset="0.2654" style="stop-color:#21DCD0"/>
			<stop  offset="0.4196" style="stop-color:#36B4D4"/>
			<stop  offset="0.6329" style="stop-color:#5873DB"/>
			<stop  offset="0.8947" style="stop-color:#871BE5"/>
			<stop  offset="0.9103" style="stop-color:#8A15E6"/>
		</linearGradient>
		<path style="fill:url(#SVGID_00000084505921866788626770000002784876289292274103_);" d="M73,113.6c-0.3,1-0.6,1.9-0.9,2.9
			c-0.3,1-0.6,2.1-0.9,3.1c-1.2,4.5-2.2,9.2-2.9,13.9c-18.1,17.5-32.1,39.2-40.4,63.6c-4.9-14.3-5.9-34.5,4.8-54.9
			C32.8,142,57.1,121.1,73,113.6z"/>
		
			<linearGradient id="SVGID_00000049909724351006098250000003350815833530996623_" gradientUnits="userSpaceOnUse" x1="17.9316" y1="285.5266" x2="137.9328" y2="-1.9182">
			<stop  offset="0.1856" style="stop-color:#19EBCE"/>
			<stop  offset="0.2654" style="stop-color:#21DCD0"/>
			<stop  offset="0.4196" style="stop-color:#36B4D4"/>
			<stop  offset="0.6329" style="stop-color:#5873DB"/>
			<stop  offset="0.8947" style="stop-color:#871BE5"/>
			<stop  offset="0.9103" style="stop-color:#8A15E6"/>
		</linearGradient>
		<path style="fill:url(#SVGID_00000049909724351006098250000003350815833530996623_);" d="M54.9,231.7c0,4.2,0.2,8.4,0.5,12.6
			c-10.5-11.9-18.8-40.1-17.5-55.2c7.8-19.1,20-37.1,29.3-46.9c-0.1,0.9-0.1,1.8-0.2,2.7c-0.1,2-0.2,4-0.2,6.1
			c0,5.8,0.4,11.4,1.2,17C59.6,187.5,54.9,209,54.9,231.7z"/>
		
			<linearGradient id="SVGID_00000076596399476764507700000002052418001966988673_" gradientUnits="userSpaceOnUse" x1="54.0625" y1="300.6104" x2="174.0638" y2="13.1656">
			<stop  offset="0.1856" style="stop-color:#19EBCE"/>
			<stop  offset="0.2654" style="stop-color:#21DCD0"/>
			<stop  offset="0.4196" style="stop-color:#36B4D4"/>
			<stop  offset="0.6329" style="stop-color:#5873DB"/>
			<stop  offset="0.8947" style="stop-color:#871BE5"/>
			<stop  offset="0.9103" style="stop-color:#8A15E6"/>
		</linearGradient>
		<path style="fill:url(#SVGID_00000076596399476764507700000002052418001966988673_);" d="M100.1,278
			c-14.8-7.1-30.8-23.5-39.6-48.5c0,0,1.8-38.4,9-53.6c0,0.2,0.1,0.3,0.1,0.5c0.4,2,0.9,3.9,1.4,5.8c3.8,13.9,10,26.7,18.2,38
			C89.3,240.6,93.1,260.1,100.1,278z"/>
		
			<linearGradient id="SVGID_00000031207780726278810440000008579623507795802529_" gradientUnits="userSpaceOnUse" x1="96.9989" y1="318.5353" x2="217.0002" y2="31.0905">
			<stop  offset="0.1856" style="stop-color:#19EBCE"/>
			<stop  offset="0.2654" style="stop-color:#21DCD0"/>
			<stop  offset="0.4196" style="stop-color:#36B4D4"/>
			<stop  offset="0.6329" style="stop-color:#5873DB"/>
			<stop  offset="0.8947" style="stop-color:#871BE5"/>
			<stop  offset="0.9103" style="stop-color:#8A15E6"/>
		</linearGradient>
		<path style="fill:url(#SVGID_00000031207780726278810440000008579623507795802529_);" d="M151.4,291.2c-16.6-1-34.4-12-48.8-23.3
			c-5.1-8.7-8.3-29.5-9.6-42.8c0.2,0.2,0.4,0.5,0.6,0.7c1.1,1.3,2.2,2.6,3.4,3.9c8.6,9.7,18.8,18,30.2,24.4c0.4,0.2,0.7,0.4,1.1,0.6
			C134.3,268,142.1,280.2,151.4,291.2z"/>
		
			<linearGradient id="SVGID_00000023263542764575520390000001536961250659501990_" gradientUnits="userSpaceOnUse" x1="139.6828" y1="336.3548" x2="259.684" y2="48.91">
			<stop  offset="0.1856" style="stop-color:#19EBCE"/>
			<stop  offset="0.2654" style="stop-color:#21DCD0"/>
			<stop  offset="0.4196" style="stop-color:#36B4D4"/>
			<stop  offset="0.6329" style="stop-color:#5873DB"/>
			<stop  offset="0.8947" style="stop-color:#871BE5"/>
			<stop  offset="0.9103" style="stop-color:#8A15E6"/>
		</linearGradient>
		<path style="fill:url(#SVGID_00000023263542764575520390000001536961250659501990_);" d="M198.7,286.2c-9.7,3.1-23.1,7.3-49.6-3.7
			c-8.6-10.2-8.9-12.5-14.8-24.6c11.6,5.6,24.3,9.3,37.6,10.8c1.2,0.1,2.4,0.3,3.6,0.4C182.7,275.5,190.4,281.2,198.7,286.2z"/>
		
			<linearGradient id="SVGID_00000077292330191271333230000001622888904405139605_" gradientUnits="userSpaceOnUse" x1="63.1772" y1="304.4156" x2="183.1785" y2="16.9708">
			<stop  offset="0.1856" style="stop-color:#19EBCE"/>
			<stop  offset="0.2654" style="stop-color:#21DCD0"/>
			<stop  offset="0.4196" style="stop-color:#36B4D4"/>
			<stop  offset="0.6329" style="stop-color:#5873DB"/>
			<stop  offset="0.8947" style="stop-color:#871BE5"/>
			<stop  offset="0.9103" style="stop-color:#8A15E6"/>
		</linearGradient>
		<path style="fill:url(#SVGID_00000077292330191271333230000001622888904405139605_);" d="M230.6,41.5c-2.5-1-5-2-7.6-2.8
			c-0.8-0.3-1.6-0.5-2.4-0.8c-10.9-3.4-30.9-5.2-42.9-5.3c-18.3-9.3-30.2-15.2-51.7-16.9c19.9-3.5,35.3-1.4,43.7-0.3
			C187.7,17.6,208,24.4,230.6,41.5z"/>
		
			<linearGradient id="SVGID_00000156578291009897754210000004066207457139859622_" gradientUnits="userSpaceOnUse" x1="177.6431" y1="352.2023" x2="297.6444" y2="64.7575">
			<stop  offset="0.1856" style="stop-color:#19EBCE"/>
			<stop  offset="0.2654" style="stop-color:#21DCD0"/>
			<stop  offset="0.4196" style="stop-color:#36B4D4"/>
			<stop  offset="0.6329" style="stop-color:#5873DB"/>
			<stop  offset="0.8947" style="stop-color:#871BE5"/>
			<stop  offset="0.9103" style="stop-color:#8A15E6"/>
		</linearGradient>
		<path style="fill:url(#SVGID_00000156578291009897754210000004066207457139859622_);" d="M249.5,250.7c-3.2,5.8-29.1,27-52.2,29.9
			c-7.5-4.4-8-5.5-14.5-11.2c0.9,0,1.8,0,2.7,0c3.8,0,7.5-0.2,11.2-0.5c0.3,0,0.7-0.1,1-0.1c8.1-0.8,15.9-2.5,23.4-4.8
			c0.7-0.2,1.3-0.4,2-0.6c2.7-0.9,5.3-1.9,7.9-3C237.4,257.7,243.6,254.5,249.5,250.7z"/>
	</g>
</g>
</svg>
