<svg xmlns="http://www.w3.org/2000/svg" id="Layer_1" data-name="Layer 1" viewBox="0 0 1353.92 1353.92"><defs><style>.cls-1{fill:#ff4d05}.cls-2{fill:#a7fff1}.cls-3{fill:#00e4ef}.cls-4{fill:#5ecbf1}.cls-5{fill:#8eefea}.cls-6{fill:#c30047}.cls-7{fill:#ff6826}</style></defs><title>Design</title><path d="M1671.77,915.9,1354.19,596.41,1560.92,864,1000,1546l120.29,120.36A681.16,681.16,0,0,1,1000,1677c-373.87,0-677-303.09-677-677s303.09-677,677-677c345.41,0,630.4,258.7,671.79,592.91Z" class="cls-1" transform="translate(-323.04 -323.04)"/><polygon points="464.42 540.93 117.01 540.93 322.55 273.37 464.42 540.93" class="cls-2"/><polygon points="676.96 273.37 464.42 540.93 322.55 273.37 676.96 273.37" class="cls-3"/><polygon points="1031.15 273.37 890.71 540.93 676.96 273.37 1031.15 273.37" class="cls-4"/><polygon points="1237.88 540.93 890.71 540.93 1031.15 273.37 1237.88 540.93" class="cls-3"/><polygon points="1237.88 540.93 676.96 1222.91 890.71 540.93 1237.88 540.93" class="cls-2"/><polygon points="890.71 540.93 676.96 1222.91 676.96 540.93 890.71 540.93" class="cls-4"/><polygon points="676.96 1222.91 117.01 540.93 464.42 540.93 676.96 1222.91" class="cls-5"/><polygon points="890.71 540.93 676.96 540.93 676.96 273.37 890.71 540.93" class="cls-3"/><polygon points="676.96 273.37 676.96 540.93 464.42 540.93 676.96 273.37" class="cls-2"/><polygon points="676.96 540.93 676.96 1222.91 574.38 893.76 560.06 847.8 483.41 601.87 469.12 556 464.42 540.93 676.96 540.93" class="cls-3"/><path d="M1677,1000c0,332.82-240.18,609.54-556.67,666.31L1000,1546l560.92-682L1354.19,596.41,1671.77,915.9l0,.05A683.76,683.76,0,0,1,1677,1000Z" class="cls-6" transform="translate(-323.04 -323.04)"/><path d="M842.93,864A207.19,207.19,0,0,1,1000,791.73V758.94A240.18,240.18,0,0,0,801.65,864q-5,7.35-9.49,15.07A240.41,240.41,0,0,0,1000,1239.89V1207.1A207.6,207.6,0,0,1,842.93,864Z" class="cls-7" transform="translate(-323.04 -323.04)"/><path d="M1240.84,999.42c0,132.81-107.66,240.47-240.47,240.47H1000V1207.1h.37c114.7,0,207.68-93,207.68-207.68s-93-207.69-207.68-207.69H1000V758.94h.37C1133.18,758.94,1240.84,866.61,1240.84,999.42Z" class="cls-6" transform="translate(-323.04 -323.04)"/><path d="M1037.67,999.42a37.3,37.3,0,0,1-37.3,37.3H1000V962.11h.37A37.3,37.3,0,0,1,1037.67,999.42Z" class="cls-6" transform="translate(-323.04 -323.04)"/><path d="M1000,962.11v74.61a37.31,37.31,0,0,1,0-74.61Z" class="cls-7" transform="translate(-323.04 -323.04)"/><rect width="181.07" height="31.37" x="772.73" y="661.52" class="cls-6"/><rect width="181.07" height="31.37" x="399.19" y="661.52" class="cls-7"/><rect width="16.05" height="181.07" x="676.96" y="773.8" class="cls-6"/><rect width="15.32" height="181.07" x="661.64" y="773.8" class="cls-7"/><rect width="16.05" height="181.07" x="676.96" y="398.8" class="cls-6"/><rect width="15.32" height="181.07" x="661.64" y="398.8" class="cls-7"/></svg>