<?xml version="1.0" standalone="no"?>
<!DOCTYPE svg PUBLIC "-//W3C//DTD SVG 20010904//EN"
 "http://www.w3.org/TR/2001/REC-SVG-20010904/DTD/svg10.dtd">
<svg version="1.0" xmlns="http://www.w3.org/2000/svg"
 width="1000.000000pt" height="1000.000000pt" viewBox="0 0 1000.000000 1000.000000"
 preserveAspectRatio="xMidYMid meet">
<metadata>
Created by potrace 1.14, written by Peter Selinger 2001-2017
</metadata>
<g transform="translate(0.000000,1000.000000) scale(0.100000,-0.100000)"
fill="#000000" stroke="none">
<path d="M4990 9305 l0 -395 -97 0 c-54 -1 -127 -3 -163 -6 -67 -5 -351 -40
-405 -49 -644 -115 -1247 -386 -1755 -790 -329 -262 -609 -567 -832 -905 -364
-555 -568 -1133 -635 -1807 -10 -100 -10 -580 0 -700 30 -361 121 -745 259
-1093 106 -268 284 -599 434 -805 35 -49 68 -96 73 -104 6 -10 91 35 357 189
192 111 351 203 352 205 2 2 -23 39 -57 83 -300 395 -500 861 -586 1365 -48
286 -54 636 -15 917 81 586 302 1094 679 1560 94 116 310 335 411 415 41 33
77 62 80 65 9 9 143 105 206 148 290 194 718 375 1039 438 142 28 176 34 215
39 25 3 61 7 80 10 64 9 134 14 247 20 l113 6 2 -405 3 -406 305 176 c344 199
614 355 900 519 107 62 310 179 450 260 140 81 292 168 337 194 45 25 82 48
82 51 0 3 -39 27 -87 54 -48 27 -170 98 -272 157 -277 160 -1228 708 -1280
737 -25 14 -73 43 -108 64 -34 21 -64 38 -66 38 -3 0 -51 27 -108 61 -57 34
-115 67 -130 75 l-28 15 0 -396z"/>
<path d="M8065 7311 c-33 -21 -188 -111 -345 -201 -157 -90 -287 -165 -289
-166 -3 -3 90 -134 127 -179 29 -36 155 -249 207 -350 66 -128 142 -305 169
-395 10 -30 21 -64 26 -75 12 -26 65 -229 84 -320 20 -95 44 -261 53 -365 14
-161 6 -576 -12 -633 -2 -7 -6 -34 -9 -62 -23 -202 -100 -491 -196 -730 -86
-215 -254 -517 -377 -675 -305 -394 -618 -668 -1010 -884 -424 -234 -862 -355
-1385 -382 l-118 -6 0 397 0 397 -57 -33 c-32 -17 -71 -40 -88 -50 -16 -10
-43 -26 -60 -35 -16 -9 -322 -186 -680 -392 -952 -550 -1022 -590 -1112 -641
-45 -25 -82 -48 -82 -51 0 -3 111 -69 247 -147 136 -77 405 -232 597 -343 193
-112 368 -213 390 -225 22 -13 182 -105 355 -205 173 -101 331 -192 350 -202
19 -11 59 -33 87 -50 l53 -29 0 405 0 406 113 1 c61 0 128 2 147 4 19 2 68 6
108 9 878 74 1743 476 2383 1106 64 63 140 142 169 175 29 33 65 74 79 90 211
242 461 642 591 945 17 41 40 93 50 115 35 79 118 333 155 475 44 173 40 151
70 325 23 136 27 168 46 345 9 88 5 631 -6 710 -51 386 -92 573 -186 855 -67
197 -79 229 -182 446 -97 205 -293 531 -379 631 l-23 27 -60 -38z"/>
<path d="M3459 7089 c-113 -17 -203 -96 -244 -215 -23 -64 -28 -387 -9 -482
26 -126 93 -229 209 -318 42 -33 373 -256 390 -263 5 -2 40 -26 77 -53 38 -26
70 -48 73 -48 17 0 321 -217 377 -269 113 -105 199 -246 215 -353 8 -55 9
-173 0 -218 -18 -103 -85 -218 -187 -320 -72 -73 -140 -122 -440 -321 -195
-129 -370 -244 -387 -254 -18 -11 -33 -23 -33 -27 0 -4 -5 -8 -11 -8 -16 0
-94 -63 -145 -117 -87 -92 -145 -232 -141 -341 1 -23 0 -42 -3 -42 -7 0 -4
-99 3 -106 3 -3 1 -18 -3 -34 -4 -16 -7 -30 -5 -32 2 -2 6 -39 9 -81 11 -185
139 -312 313 -311 91 1 113 12 365 182 104 70 199 134 212 142 65 41 543 360
553 369 7 6 14 11 17 11 2 0 67 43 144 95 78 52 145 95 150 95 5 0 15 6 22 14
6 8 40 24 75 36 78 26 124 21 203 -22 51 -28 460 -294 472 -308 3 -3 79 -54
170 -114 91 -60 167 -113 168 -117 2 -5 10 -9 18 -9 8 0 14 -3 14 -8 0 -4 9
-12 20 -17 11 -6 88 -57 172 -115 84 -57 169 -114 188 -127 19 -13 44 -30 55
-38 36 -28 119 -65 165 -73 106 -20 240 38 304 131 57 83 63 116 61 347 -2
226 -7 257 -62 362 -56 107 -130 167 -563 457 -217 145 -420 283 -450 306
-124 95 -227 235 -265 362 -17 57 -17 227 0 292 21 82 85 188 160 265 82 85
87 89 435 319 552 366 590 395 659 497 70 105 84 167 87 380 3 250 -12 319
-88 401 -82 88 -223 126 -323 87 -16 -6 -108 -63 -203 -127 -96 -64 -185 -123
-198 -131 -29 -18 -289 -194 -599 -405 -126 -86 -275 -186 -329 -223 l-99 -66
-71 1 c-39 1 -84 7 -100 13 -42 16 -236 133 -236 142 0 4 -5 8 -11 8 -10 0
-97 57 -109 71 -3 3 -10 8 -15 10 -6 2 -77 49 -158 104 -81 55 -159 107 -172
115 -13 8 -179 119 -369 247 -379 255 -411 270 -527 252z m92 -261 c6 -13 8
-20 4 -15 -5 4 -17 -5 -28 -20 -18 -26 -18 -20 0 25 6 15 5 15 -11 3 -14 -12
-19 -12 -29 -1 -7 7 -7 10 -1 7 6 -4 20 0 30 8 24 18 21 19 35 -7z m-71 -29
c0 -5 6 -7 13 -3 8 5 8 2 -2 -9 -11 -14 -11 -17 0 -18 11 0 11 -2 1 -6 -10 -4
-10 -8 0 -21 12 -15 11 -16 -4 -3 -21 15 -24 2 -5 -19 10 -12 9 -12 -4 -2 -9
7 -23 11 -30 9 -8 -2 -10 -2 -5 1 4 2 2 9 -5 14 -11 8 -10 8 4 4 12 -4 16 -2
11 6 -5 7 -3 8 6 3 8 -5 11 -4 6 3 -4 6 -14 8 -23 5 -11 -4 -14 -3 -9 6 5 7
14 10 20 8 7 -3 13 1 13 8 0 7 -7 11 -16 8 -14 -4 -14 -4 -1 6 19 14 30 14 30
0z m66 -24 c-1 -8 -5 -17 -8 -21 -5 -4 -4 16 1 34 3 9 9 -1 7 -13z m-89 -80
c-12 -9 -13 -15 -5 -23 8 -8 8 -15 -2 -27 -14 -17 -30 -20 -30 -5 0 6 5 9 11
8 6 -2 14 3 17 11 2 8 0 11 -6 7 -6 -3 -9 1 -8 11 2 10 -1 21 -6 24 -6 4 2 7
18 7 24 0 26 -2 11 -13z m29 -12 c0 -10 5 -17 12 -15 8 1 11 -2 7 -8 -3 -6
-10 -8 -14 -6 -4 3 -13 -5 -20 -16 -11 -18 -11 -20 3 -15 9 4 16 2 16 -3 0
-11 -23 -14 -33 -4 -3 4 1 16 9 28 8 13 11 25 8 29 -3 3 -3 10 1 16 9 16 13
13 11 -6z m-16 -88 c0 -2 -9 -3 -19 -2 -11 0 -18 5 -15 9 4 6 34 0 34 -7z
m-23 -34 c0 -11 -5 -18 -9 -15 -4 3 -5 11 -1 19 7 21 12 19 10 -4z m24 -4
c-10 -9 -11 -8 -5 6 3 10 9 15 12 12 3 -3 0 -11 -7 -18z"/>
</g>
</svg>
