<svg  viewBox="0 0 32 32" role="img"  xmlns="http://www.w3.org/2000/svg">
    <title>Twitter</title>
    <path d="M31.2746 5.92398C30.7719 6.14694 30.2551 6.33512 29.727 6.4879C30.3522 5.7808 30.8289 4.9488 31.1199 4.03835C31.1851 3.83427 31.1175 3.61089 30.9498 3.47742C30.7822 3.34385 30.5495 3.32785 30.365 3.43716C29.2434 4.10235 28.0334 4.58039 26.7647 4.85993C25.4866 3.6111 23.7508 2.90039 21.9563 2.90039C18.1684 2.90039 15.0867 5.98199 15.0867 9.76975C15.0867 10.0681 15.1056 10.3647 15.143 10.6573C10.4426 10.2446 6.07276 7.9343 3.07198 4.25337C2.96504 4.12217 2.80029 4.05146 2.63162 4.06498C2.46285 4.0782 2.31121 4.17337 2.22595 4.31964C1.61733 5.36398 1.29557 6.5584 1.29557 7.77368C1.29557 9.4289 1.88654 10.9994 2.93046 12.2265C2.61304 12.1166 2.30502 11.9792 2.01103 11.816C1.8532 11.7282 1.66058 11.7295 1.50378 11.8194C1.34687 11.9093 1.2485 12.0747 1.24437 12.2554C1.24365 12.2859 1.24365 12.3163 1.24365 12.3472C1.24365 14.8179 2.5734 17.0423 4.60644 18.2547C4.43178 18.2373 4.25722 18.212 4.0838 18.1788C3.90502 18.1447 3.72117 18.2073 3.6006 18.3437C3.47983 18.4799 3.43988 18.6699 3.49552 18.8433C4.24804 21.1927 6.18548 22.9208 8.52767 23.4477C6.58507 24.6644 4.36355 25.3017 2.03147 25.3017C1.54486 25.3017 1.05547 25.2731 0.5765 25.2165C0.338565 25.1882 0.111055 25.3287 0.0300229 25.5549C-0.0510093 25.7813 0.0348745 26.0337 0.2373 26.1634C3.23322 28.0844 6.69738 29.0997 10.2551 29.0997C17.249 29.0997 21.6242 25.8016 24.063 23.0349C27.104 19.585 28.8481 15.0186 28.8481 10.5067C28.8481 10.3182 28.8452 10.1278 28.8394 9.93812C30.0392 9.03417 31.0722 7.94018 31.9128 6.68279C32.0404 6.49182 32.0266 6.23943 31.8787 6.06364C31.731 5.88774 31.4848 5.83087 31.2746 5.92398Z" />
</svg>
