<svg width="16" height="16" viewBox="0 0 16 16" fill="none" xmlns="http://www.w3.org/2000/svg">
<path fill-rule="evenodd" clip-rule="evenodd" d="M9.38038 1.57177C8.61802 0.80941 7.38198 0.809409 6.61962 1.57177L1.57177 6.61962C0.80941 7.38198 0.809409 8.61802 1.57177 9.38038L6.61962 14.4282C7.38198 15.1906 8.61802 15.1906 9.38038 14.4282L14.4282 9.38038C15.1906 8.61802 15.1906 7.38198 14.4282 6.61962L9.38038 1.57177ZM8 11.1716C9.65685 11.1716 11 9.82842 11 8.17157C11 6.51472 9.65685 5.17157 8 5.17157C6.34315 5.17157 5 6.51472 5 8.17157C5 9.82842 6.34315 11.1716 8 11.1716Z" fill="#D9D9D9"/>
</svg>
