<svg width="16" height="16" viewBox="0 0 16 16" fill="none" xmlns="http://www.w3.org/2000/svg">
<path fill-rule="evenodd" clip-rule="evenodd" d="M0 8C0 3.58172 3.58172 0 8 0L8 4.41421C7.74408 4.41421 7.48816 4.51184 7.29289 4.70711L4.70711 7.29289C4.51184 7.48816 4.41421 7.74408 4.41421 8L0 8ZM8 8H4.41421C4.41421 8.25592 4.51184 8.51184 4.70711 8.70711L7.29289 11.2929C7.48816 11.4882 7.74408 11.5858 8 11.5858L8 16C12.4183 16 16 12.4183 16 8L11.5858 8C11.5858 7.74408 11.4882 7.48816 11.2929 7.29289L8.70711 4.70711C8.51184 4.51184 8.25592 4.41421 8 4.41421L8 8ZM8 8H11.5858C11.5858 8.25592 11.4882 8.51184 11.2929 8.70711L8.70711 11.2929C8.51184 11.4882 8.25592 11.5858 8 11.5858L8 8Z" fill="#D9D9D9"/>
</svg>
