<svg width="16" height="16" viewBox="0 0 16 16" fill="none" xmlns="http://www.w3.org/2000/svg">
<path d="M13.2323 2.31683C13.5308 2.08434 13.9156 2.46917 13.6832 2.76772L10.3747 7.01637L12.8899 7.68116C13.2654 7.72787 13.2654 8.2721 12.89 8.31882L10.3747 8.9836L13.6832 13.2323C13.9156 13.5308 13.5308 13.9156 13.2323 13.6832L8.98361 10.3746L8.31883 12.8899C8.27212 13.2654 7.72788 13.2654 7.68117 12.8899L7.01639 10.3746L2.76773 13.6832C2.46918 13.9156 2.08435 13.5308 2.31684 13.2323L5.62535 8.9836L3.11005 8.31882C2.73455 8.27211 2.73455 7.72787 3.11005 7.68116L5.62535 7.01637L2.31684 2.76772C2.08435 2.46917 2.46918 2.08434 2.76773 2.31682L7.01639 5.62533L7.68117 3.11004C7.72788 2.73454 8.27212 2.73454 8.31883 3.11004L8.98361 5.62533L13.2323 2.31683Z" fill="#D9D9D9"/>
</svg>
