<svg width="16" height="16" viewBox="0 0 16 16" fill="none" xmlns="http://www.w3.org/2000/svg">
<path fill-rule="evenodd" clip-rule="evenodd" d="M4.4 2C3.07452 2 2 3.07452 2 4.4V11.6C2 12.9255 3.07452 14 4.4 14H11.6C12.9255 14 14 12.9255 14 11.6V4.4C14 3.07452 12.9255 2 11.6 2H4.4ZM8.70711 4.70711C8.31658 4.31658 7.68342 4.31658 7.29289 4.70711L4.70711 7.29289C4.31658 7.68342 4.31658 8.31658 4.70711 8.70711L7.29289 11.2929C7.68342 11.6834 8.31658 11.6834 8.70711 11.2929L11.2929 8.70711C11.6834 8.31658 11.6834 7.68342 11.2929 7.29289L8.70711 4.70711Z" fill="#D9D9D9"/>
</svg>
