<svg width="16" height="16" viewBox="0 0 16 16" fill="none" xmlns="http://www.w3.org/2000/svg">
<path d="M7.4622 0.379548C7.64216 -0.126516 8.35784 -0.126516 8.53781 0.379548L9.74748 3.78121L13.0082 2.23124C13.4933 2.00065 13.9993 2.50672 13.7688 2.99181L12.2188 6.25252L15.6205 7.4622C16.1265 7.64216 16.1265 8.35784 15.6205 8.53781L12.2188 9.74748L13.7688 13.0082C13.9993 13.4933 13.4933 13.9993 13.0082 13.7688L9.74748 12.2188L8.53781 15.6205C8.35784 16.1265 7.64216 16.1265 7.4622 15.6205L6.25252 12.2188L2.99181 13.7688C2.50672 13.9993 2.00065 13.4933 2.23124 13.0082L3.78121 9.74748L0.379548 8.53781C-0.126516 8.35784 -0.126516 7.64216 0.379548 7.4622L3.78121 6.25252L2.23124 2.99181C2.00065 2.50672 2.50672 2.00065 2.99181 2.23124L6.25252 3.78121L7.4622 0.379548Z" fill="#D9D9D9"/>
</svg>
