<svg width="16" height="16" viewBox="0 0 16 16" fill="none" xmlns="http://www.w3.org/2000/svg">
<path fill-rule="evenodd" clip-rule="evenodd" d="M2.34315 2.34315C5.46734 -0.781049 10.5327 -0.781049 13.6569 2.34315L10 6L8.70711 4.70711C8.31658 4.31658 7.68342 4.31658 7.2929 4.70711L6 6L2.34315 2.34315ZM8 8L6 6L4.70711 7.29289C4.31658 7.68342 4.31658 8.31658 4.70711 8.70711L6 10L2.34315 13.6569C5.46734 16.781 10.5327 16.781 13.6569 13.6569L10 10L11.2929 8.70711C11.6834 8.31658 11.6834 7.68342 11.2929 7.29289L10 6L8 8ZM8 8L10 10L8.70711 11.2929C8.31658 11.6834 7.68342 11.6834 7.2929 11.2929L6 10L8 8Z" fill="#D9D9D9"/>
</svg>
