<svg width="16" height="16" viewBox="0 0 16 16" fill="none" xmlns="http://www.w3.org/2000/svg">
<path fill-rule="evenodd" clip-rule="evenodd" d="M8.31882 0.281623C8.27211 -0.0938759 7.72788 -0.0938737 7.68116 0.281626L7.34298 2.99999H3V7.34299L0.281616 7.68117C-0.0938835 7.72788 -0.0938814 8.27212 0.281618 8.31883L3 8.65701V13H7.34298L7.68116 15.7184C7.72788 16.0939 8.27211 16.0939 8.31882 15.7184L8.657 13H13V8.65701L15.7184 8.31883C16.0939 8.27212 16.0939 7.72788 15.7184 7.68117L13 7.34299V2.99999H8.657L8.31882 0.281623ZM8.657 2.99999H7.34298L7.01638 5.62535L4.76772 4.31684C4.46917 4.08435 4.08434 4.46918 4.31683 4.76773L5.62534 7.01639L3 7.34299V8.65701L5.62534 8.98361L4.31683 11.2323C4.08434 11.5308 4.46917 11.9157 4.76772 11.6832L7.01638 10.3747L7.34298 13H8.657L8.98361 10.3747L11.2323 11.6832C11.5308 11.9157 11.9156 11.5308 11.6832 11.2323L10.3746 8.98361L13 8.65701V7.34299L10.3746 7.01639L11.6832 4.76773C11.9156 4.46918 11.5308 4.08435 11.2323 4.31684L8.98361 5.62535L8.657 2.99999Z" fill="#D9D9D9"/>
</svg>
