<svg width="16" height="16" viewBox="0 0 16 16" fill="none" xmlns="http://www.w3.org/2000/svg">
<path fill-rule="evenodd" clip-rule="evenodd" d="M8.53781 0.379548C8.35784 -0.126516 7.64216 -0.126516 7.4622 0.379548L6.25252 3.78121L2.99181 2.23124C2.50672 2.00065 2.00065 2.50672 2.23124 2.99181L3.78121 6.25252L0.379548 7.4622C-0.126516 7.64216 -0.126516 8.35784 0.379548 8.53781L3.78121 9.74748L2.23124 13.0082C2.00065 13.4933 2.50672 13.9993 2.99181 13.7688L6.25252 12.2188L7.4622 15.6205C7.64216 16.1265 8.35784 16.1265 8.53781 15.6205L9.74748 12.2188L13.0082 13.7688C13.4933 13.9993 13.9993 13.4933 13.7688 13.0082L12.2188 9.74748L15.6205 8.53781C16.1265 8.35784 16.1265 7.64216 15.6205 7.4622L12.2188 6.25252L13.7688 2.99181C13.9993 2.50672 13.4933 2.00065 13.0082 2.23124L9.74748 3.78121L8.53781 0.379548ZM10.9999 7.99994L7.99994 4.99994L4.99994 7.99994L7.99994 10.9999L10.9999 7.99994Z" fill="#D9D9D9"/>
</svg>
