<svg width="16" height="16" viewBox="0 0 16 16" fill="none" xmlns="http://www.w3.org/2000/svg">
<path fill-rule="evenodd" clip-rule="evenodd" d="M2.34315 2.34315C5.46734 -0.781049 10.5327 -0.781049 13.6569 2.34315L10.8284 5.17157C10.1046 4.44772 9.10457 4 8 4C6.89543 4 5.89543 4.44772 5.17157 5.17157L2.34315 2.34315ZM8 8L5.17157 5.17157C4.44772 5.89543 4 6.89543 4 8C4 9.10457 4.44772 10.1046 5.17157 10.8284L2.34315 13.6569C5.46734 16.781 10.5327 16.781 13.6569 13.6569L10.8284 10.8284C11.5523 10.1046 12 9.10457 12 8C12 6.89543 11.5523 5.89543 10.8284 5.17157L8 8ZM8 8L10.8284 10.8284C10.1046 11.5523 9.10457 12 8 12C6.89543 12 5.89543 11.5523 5.17157 10.8284L8 8Z" fill="#D9D9D9"/>
</svg>
