<svg width="16" height="16" viewBox="0 0 16 16" fill="none" xmlns="http://www.w3.org/2000/svg">
<path d="M8 8C8 8 13.1678 6.70089 14.2197 5.649C15.2716 4.59712 15.2583 2.87836 14.19 1.81004C13.1216 0.741719 11.4029 0.728395 10.351 1.78028C9.29911 2.83216 8 8 8 8Z" fill="#D9D9D9"/>
<path d="M8 8C8 8 13.1678 9.29911 14.2197 10.351C15.2716 11.4029 15.2583 13.1216 14.19 14.19C13.1216 15.2583 11.4029 15.2716 10.351 14.2197C9.29911 13.1678 8 8 8 8Z" fill="#D9D9D9"/>
<path d="M1.78028 10.351C2.83216 9.29911 8 8 8 8C8 8 6.70089 13.1678 5.649 14.2197C4.59712 15.2716 2.87836 15.2583 1.81004 14.19C0.741719 13.1216 0.728395 11.4029 1.78028 10.351Z" fill="#D9D9D9"/>
<path d="M8 8C8 8 2.83216 6.70089 1.78028 5.649C0.728395 4.59712 0.741719 2.87836 1.81004 1.81004C2.87836 0.741719 4.59712 0.728395 5.649 1.78028C6.70089 2.83216 8 8 8 8Z" fill="#D9D9D9"/>
</svg>
