<svg width="16" height="16" viewBox="0 0 16 16" fill="none" xmlns="http://www.w3.org/2000/svg">
<path fill-rule="evenodd" clip-rule="evenodd" d="M15.4055 4.96811C14.5941 2.98825 13.0118 1.40593 11.0319 0.5945C10.9114 0.68356 10.796 0.782639 10.6869 0.891746C10.2922 1.28636 9.86718 2.18783 9.47419 3.22087C9.00818 3.07729 8.51312 3 8 3C7.48688 3 6.99182 3.07729 6.52581 3.22087C6.13282 2.18783 5.70776 1.28636 5.31315 0.891746C5.20404 0.782638 5.08865 0.683558 4.96811 0.594498C2.98825 1.40593 1.40593 2.98825 0.594501 4.96812C0.68356 5.08865 0.78264 5.20404 0.891747 5.31315C1.28636 5.70776 2.18783 6.13282 3.22087 6.52581C3.07729 6.99182 3 7.48688 3 8C3 8.51312 3.07729 9.00818 3.22087 9.47419C2.18783 9.86718 1.28636 10.2922 0.891747 10.6869C0.782642 10.796 0.683564 10.9113 0.594506 11.0319C1.40594 13.0117 2.98825 14.5941 4.96812 15.4055C5.08866 15.3164 5.20404 15.2174 5.31315 15.1083C5.70776 14.7136 6.13282 13.8122 6.52581 12.7791C6.99182 12.9227 7.48688 13 8 13C8.51312 13 9.00818 12.9227 9.47419 12.7791C9.86718 13.8122 10.2922 14.7136 10.6869 15.1083C10.796 15.2174 10.9113 15.3164 11.0319 15.4055C13.0117 14.5941 14.5941 13.0117 15.4055 11.0319C15.3164 10.9113 15.2174 10.796 15.1083 10.6869C14.7136 10.2922 13.8122 9.86718 12.7791 9.47419C12.9227 9.00818 13 8.51312 13 8C13 7.48688 12.9227 6.99182 12.7791 6.52581C13.8122 6.13282 14.7136 5.70776 15.1083 5.31315C15.2174 5.20404 15.3164 5.08865 15.4055 4.96811ZM8 8C8 8 8.66996 5.33492 9.47419 3.22087C11.0501 3.70641 12.2936 4.94995 12.7791 6.52581C10.6651 7.33004 8 8 8 8ZM8 8C8 8 5.33492 8.66996 3.22087 9.47419C3.70641 11.0501 4.94995 12.2936 6.52581 12.7791C7.33004 10.6651 8 8 8 8ZM8 8C8 8 10.6651 8.66996 12.7791 9.47419C12.2936 11.0501 11.0501 12.2936 9.47419 12.7791C8.66996 10.6651 8 8 8 8ZM8 8C8 8 5.33492 7.33004 3.22087 6.52581C3.70641 4.94994 4.94995 3.7064 6.52581 3.22087C7.33004 5.33492 8 8 8 8Z" fill="#D9D9D9"/>
</svg>
