<svg width="16" height="16" viewBox="0 0 16 16" fill="none" xmlns="http://www.w3.org/2000/svg">
<path d="M10.3195 2.46119C10.3195 3.82047 8.00012 7.99888 8.00012 7.99888C8.00012 7.99888 5.68069 3.82047 5.68069 2.46119C5.68069 1.10191 6.71913 0 8.00012 0C9.28111 0 10.3195 1.10191 10.3195 2.46119Z" fill="#D9D9D9"/>
<path d="M2.20488 7.30932C3.34269 7.98896 8.00002 8 8.00002 8C7.97235 8.00007 3.33929 8.01307 2.20488 8.69068C1.06707 9.37032 0.66391 10.8517 1.3044 11.9994C1.9449 13.1472 3.3865 13.5267 4.52431 12.847C5.66058 12.1683 7.9937 8.01126 8.00002 8C8.0094 8.01672 10.3402 12.1687 11.4757 12.847C12.6135 13.5266 14.0551 13.1472 14.6956 11.9994C15.3361 10.8517 14.9329 9.37029 13.7951 8.69065C12.6833 8.02652 8.21072 8.00083 8.00717 8C8.21072 7.99917 12.6833 7.97348 13.7951 7.30935C14.9329 6.62971 15.3361 5.14833 14.6956 4.00059C14.0551 2.85285 12.6135 2.47337 11.4757 3.15301C10.3434 3.82938 8.02234 7.96026 8.00002 8C7.99376 7.98884 5.66059 3.83171 4.52431 3.15299C3.3865 2.47335 1.9449 2.85282 1.3044 4.00056C0.66391 5.1483 1.06707 6.62968 2.20488 7.30932Z" fill="#D9D9D9"/>
<path d="M8.00012 8.00112C8.00012 8.00112 10.3195 12.1795 10.3195 13.5388C10.3195 14.8981 9.28111 16 8.00012 16C6.71913 16 5.68069 14.8981 5.68069 13.5388C5.68069 12.1795 8.00012 8.00112 8.00012 8.00112Z" fill="#D9D9D9"/>
</svg>
