<svg width="16" height="16" viewBox="0 0 16 16" fill="none" xmlns="http://www.w3.org/2000/svg">
<path d="M12 4C12 6.20914 10.2091 8 8 8C5.79086 8 4 6.20914 4 4C4 1.79086 5.79086 0 8 0C10.2091 0 12 1.79086 12 4Z" fill="#D9D9D9"/>
<path d="M8 11C8 13.2091 6.20914 15 4 15C1.79086 15 0 13.2091 0 11C0 8.79086 1.79086 7 4 7C6.20914 7 8 8.79086 8 11Z" fill="#D9D9D9"/>
<path d="M8 11C8 8.79086 9.79086 7 12 7C14.2091 7 16 8.79086 16 11C16 13.2091 14.2091 15 12 15C9.79086 15 8 13.2091 8 11Z" fill="#D9D9D9"/>
</svg>
