<svg width="16" height="16" viewBox="0 0 16 16" fill="none" xmlns="http://www.w3.org/2000/svg">
<path d="M6.24244 4.40581C6.77293 4.14591 7.36943 4 8 4C8.63065 4 9.22722 4.14595 9.75776 4.40591C10.0814 3.6217 10.3195 2.89673 10.3195 2.46119C10.3195 1.10191 9.28111 0 8.00012 0C6.71913 0 5.68069 1.10191 5.68069 2.46119C5.68069 2.89671 5.9188 3.62164 6.24244 4.40581Z" fill="#D9D9D9"/>
<path d="M5.86339 4.61784C4.80568 5.28742 4.08369 6.43949 4.00681 7.76466C3.23255 7.66304 2.55351 7.51757 2.20488 7.30932C1.06707 6.62968 0.66391 5.1483 1.3044 4.00056C1.9449 2.85282 3.3865 2.47335 4.52431 3.15299C4.88694 3.3696 5.37149 3.94049 5.86339 4.61784Z" fill="#D9D9D9"/>
<path d="M4.00681 8.23534C3.23255 8.33696 2.5535 8.48244 2.20488 8.69068C1.06707 9.37032 0.66391 10.8517 1.3044 11.9994C1.9449 13.1472 3.3865 13.5267 4.52431 12.847C4.88694 12.6304 5.37149 12.0595 5.86339 11.3822C4.80568 10.7126 4.0837 9.56051 4.00681 8.23534Z" fill="#D9D9D9"/>
<path d="M6.24244 11.5942C5.9188 12.3784 5.68069 13.1033 5.68069 13.5388C5.68069 14.8981 6.71913 16 8.00012 16C9.28111 16 10.3195 14.8981 10.3195 13.5388C10.3195 13.1033 10.0814 12.3783 9.75776 11.5941C9.22722 11.8541 8.63065 12 8 12C7.36943 12 6.77293 11.8541 6.24244 11.5942Z" fill="#D9D9D9"/>
<path d="M10.1366 11.3821C10.6285 12.0595 11.1131 12.6304 11.4757 12.847C12.6135 13.5266 14.0551 13.1472 14.6956 11.9994C15.3361 10.8517 14.9329 9.37029 13.7951 8.69065C13.4465 8.4824 12.7675 8.33693 11.9932 8.23531C11.9163 9.56048 11.1943 10.7126 10.1366 11.3821Z" fill="#D9D9D9"/>
<path d="M11.9932 7.76469C11.9163 6.43952 11.1943 5.28745 10.1366 4.61786C10.6285 3.94051 11.1131 3.36962 11.4757 3.15301C12.6135 2.47337 14.0551 2.85285 14.6956 4.00059C15.3361 5.14833 14.9329 6.62971 13.7951 7.30935C13.4465 7.5176 12.7675 7.66307 11.9932 7.76469Z" fill="#D9D9D9"/>
</svg>
