<svg width="16" height="16" viewBox="0 0 16 16" fill="none" xmlns="http://www.w3.org/2000/svg">
<path d="M9.17157 1.17157C7.60948 2.73367 7.60948 5.26633 9.17157 6.82843C10.7337 8.39052 13.2663 8.39052 14.8284 6.82843C16.3905 5.26633 16.3905 2.73367 14.8284 1.17157C13.2663 -0.390524 10.7337 -0.390524 9.17157 1.17157Z" fill="#D9D9D9"/>
<path d="M1.17157 14.8284C2.73367 16.3905 5.26633 16.3905 6.82843 14.8284C8.39052 13.2663 8.39052 10.7337 6.82843 9.17157C5.26633 7.60948 2.73367 7.60948 1.17157 9.17157C-0.390524 10.7337 -0.390524 13.2663 1.17157 14.8284Z" fill="#D9D9D9"/>
<path d="M6.82843 1.17157C8.39052 2.73367 8.39052 5.26633 6.82843 6.82843C5.26633 8.39052 2.73367 8.39052 1.17157 6.82843C-0.390524 5.26633 -0.390524 2.73367 1.17157 1.17157C2.73367 -0.390524 5.26633 -0.390524 6.82843 1.17157Z" fill="#D9D9D9"/>
<path d="M9.17157 14.8284C10.7337 16.3905 13.2663 16.3905 14.8284 14.8284C16.3905 13.2663 16.3905 10.7337 14.8284 9.17157C13.2663 7.60948 10.7337 7.60948 9.17157 9.17157C7.60948 10.7337 7.60948 13.2663 9.17157 14.8284Z" fill="#D9D9D9"/>
</svg>
