<svg width="16" height="16" viewBox="0 0 16 16" fill="none" xmlns="http://www.w3.org/2000/svg">
<path fill-rule="evenodd" clip-rule="evenodd" d="M5.34749 1.59629C5.85108 0.646843 6.8496 0.000111103 7.99922 0H8.00078C9.1504 0.000111103 10.1489 0.646843 10.6525 1.59628C11.68 1.28102 12.8433 1.52977 13.6563 2.34259L13.6574 2.3437C14.4702 3.15668 14.719 4.32005 14.4037 5.34749C15.3532 5.85108 15.9999 6.8496 16 7.99922V8.00078C15.9999 9.1504 15.3532 10.1489 14.4037 10.6525C14.719 11.68 14.4702 12.8433 13.6574 13.6563L13.6563 13.6574C12.8433 14.4702 11.68 14.719 10.6525 14.4037C10.1489 15.3532 9.1504 15.9999 8.00078 16H7.99922C6.8496 15.9999 5.85108 15.3532 5.3475 14.4037C4.32005 14.719 3.15668 14.4702 2.3437 13.6574L2.34259 13.6563C1.52977 12.8433 1.28102 11.68 1.59629 10.6525C0.646843 10.1489 0.000111103 9.1504 0 8.00078V7.99922C0.000111103 6.8496 0.646843 5.85108 1.59628 5.34749C1.28102 4.32005 1.52977 3.15668 2.34259 2.3437L2.3437 2.34259C3.15668 1.52977 4.32005 1.28102 5.34749 1.59629ZM7.11693 5.86807C6.98022 6.12611 6.80322 6.3684 6.58593 6.58565C6.36868 6.80294 6.12611 6.98022 5.86807 7.11693C5.95387 7.39605 6.00003 7.69253 6 7.9998C6.00003 8.30706 5.95387 8.60395 5.86807 8.88307C6.12611 9.01978 6.3684 9.19678 6.58565 9.41407C6.80294 9.63132 6.98022 9.87389 7.11693 10.1319C7.39605 10.0461 7.69253 9.99997 7.9998 10C8.30706 9.99997 8.60394 10.0461 8.88307 10.1319C9.01978 9.87389 9.19678 9.6316 9.41407 9.41435C9.63132 9.19706 9.87389 9.01978 10.1319 8.88307C10.0461 8.60395 9.99997 8.30747 10 8.0002C9.99997 7.69294 10.0461 7.39605 10.1319 7.11693C9.87389 6.98022 9.6316 6.80322 9.41435 6.58593C9.19706 6.36868 9.01978 6.12611 8.88307 5.86807C8.60395 5.95387 8.30747 6.00003 8.0002 6C7.69294 6.00003 7.39605 5.95387 7.11693 5.86807Z" fill="#D9D9D9"/>
</svg>
