<svg width="16" height="16" viewBox="0 0 16 16" fill="none" xmlns="http://www.w3.org/2000/svg">
<path fill-rule="evenodd" clip-rule="evenodd" d="M15.9831 8.52372L12.9894 8.33026C12.9964 8.22148 13 8.11137 13 8C13 7.88863 12.9964 7.77852 12.9894 7.66974L15.9831 7.47627C15.9943 7.64941 16 7.82404 16 8C16 8.17596 15.9943 8.35059 15.9831 8.52372ZM15.8477 6.4387L12.9048 7.02091C12.8622 6.80567 12.8058 6.59565 12.7366 6.39168L15.5774 5.42754C15.6887 5.75556 15.7794 6.09313 15.8477 6.4387ZM15.1766 4.46092L12.487 5.78982C12.3902 5.59393 12.2808 5.40497 12.1596 5.22403L14.6525 3.55507C14.8461 3.84425 15.0214 4.14676 15.1766 4.46092ZM14.0148 2.72519L11.7601 4.70411C11.6156 4.5395 11.4605 4.3844 11.2959 4.23992L13.2748 1.98518C13.5372 2.21551 13.7845 2.46275 14.0148 2.72519ZM12.4449 1.34748L10.776 3.84038C10.595 3.71924 10.4061 3.60981 10.2102 3.51302L11.5391 0.823408C11.8532 0.978631 12.1557 1.15388 12.4449 1.34748ZM10.5725 0.422581L9.60832 3.26343C9.40435 3.19421 9.19433 3.13782 8.97909 3.09524L9.5613 0.152272C9.90687 0.220637 10.2444 0.311259 10.5725 0.422581ZM8.52373 0.0168691L8.33026 3.01062C8.22148 3.0036 8.11137 3 8 3C7.88863 3 7.77852 3.0036 7.66974 3.01062L7.47627 0.0168691C7.64941 0.00568084 7.82404 0 8 0C8.17596 0 8.35059 0.00568083 8.52373 0.0168691ZM6.4387 0.152272L7.02091 3.09524C6.80567 3.13782 6.59565 3.19421 6.39168 3.26343L5.42754 0.422581C5.75556 0.311259 6.09313 0.220638 6.4387 0.152272ZM4.46092 0.823408L5.78982 3.51302C5.59393 3.60981 5.40497 3.71925 5.22403 3.84038L3.55507 1.34748C3.84425 1.15388 4.14676 0.978631 4.46092 0.823408ZM2.72519 1.98518L4.70411 4.23992C4.5395 4.3844 4.3844 4.5395 4.23992 4.70412L1.98517 2.7252C2.21551 2.46275 2.46275 2.21551 2.72519 1.98518ZM1.34748 3.55508L3.84038 5.22403C3.71924 5.40497 3.60981 5.59393 3.51302 5.78982L0.823408 4.46092C0.978631 4.14676 1.15388 3.84425 1.34748 3.55508ZM0.422581 5.42754L3.26343 6.39168C3.19421 6.59565 3.13782 6.80567 3.09524 7.02091L0.152272 6.4387C0.220637 6.09313 0.311259 5.75556 0.422581 5.42754ZM0.0168691 7.47627C0.00568083 7.64941 0 7.82404 0 8C0 8.17596 0.00568084 8.35059 0.0168691 8.52373L3.01062 8.33026C3.0036 8.22148 3 8.11137 3 8C3 7.88863 3.0036 7.77852 3.01062 7.66974L0.0168691 7.47627ZM0.152272 9.5613L3.09524 8.97909C3.13782 9.19433 3.19421 9.40435 3.26343 9.60832L0.422581 10.5725C0.311259 10.2444 0.220637 9.90687 0.152272 9.5613ZM0.823408 11.5391L3.51302 10.2102C3.60981 10.4061 3.71925 10.595 3.84038 10.776L1.34748 12.4449C1.15388 12.1557 0.978631 11.8532 0.823408 11.5391ZM1.98518 13.2748L4.23992 11.2959C4.3844 11.4605 4.5395 11.6156 4.70412 11.7601L2.7252 14.0148C2.46275 13.7845 2.21551 13.5372 1.98518 13.2748ZM3.55508 14.6525L5.22403 12.1596C5.40497 12.2808 5.59393 12.3902 5.78982 12.487L4.46092 15.1766C4.14676 15.0214 3.84425 14.8461 3.55508 14.6525ZM5.42754 15.5774L6.39168 12.7366C6.59565 12.8058 6.80567 12.8622 7.02091 12.9048L6.4387 15.8477C6.09313 15.7794 5.75556 15.6887 5.42754 15.5774ZM7.47628 15.9831L7.66974 12.9894C7.77852 12.9964 7.88863 13 8 13C8.11137 13 8.22148 12.9964 8.33026 12.9894L8.52373 15.9831C8.35059 15.9943 8.17596 16 8 16C7.82404 16 7.64941 15.9943 7.47628 15.9831ZM9.5613 15.8477L8.97909 12.9048C9.19433 12.8622 9.40435 12.8058 9.60832 12.7366L10.5725 15.5774C10.2444 15.6887 9.90687 15.7794 9.5613 15.8477ZM11.5391 15.1766L10.2102 12.487C10.4061 12.3902 10.595 12.2808 10.776 12.1596L12.4449 14.6525C12.1557 14.8461 11.8532 15.0214 11.5391 15.1766ZM13.2748 14.0148L11.2959 11.7601C11.4605 11.6156 11.6156 11.4605 11.7601 11.2959L14.0148 13.2748C13.7845 13.5372 13.5372 13.7845 13.2748 14.0148ZM14.6525 12.4449L12.1596 10.776C12.2808 10.595 12.3902 10.4061 12.487 10.2102L15.1766 11.5391C15.0214 11.8532 14.8461 12.1557 14.6525 12.4449ZM15.5774 10.5725L12.7366 9.60832C12.8058 9.40435 12.8622 9.19433 12.9048 8.97909L15.8477 9.5613C15.7794 9.90687 15.6887 10.2444 15.5774 10.5725Z" fill="#D9D9D9"/>
<path d="M8 5C8.64911 6.29822 9.70178 7.35089 11 8C9.70178 8.64911 8.64911 9.70178 8 11C7.35089 9.70178 6.29822 8.64911 5 8C6.29822 7.35089 7.35089 6.29822 8 5Z" fill="#D9D9D9"/>
</svg>
