<svg width="16" height="16" viewBox="0 0 16 16" fill="none" xmlns="http://www.w3.org/2000/svg">
<path fill-rule="evenodd" clip-rule="evenodd" d="M13.6569 2.34315C11.5009 4.02205 8.33735 2.71168 8 0C7.66266 2.71168 4.49913 4.02205 2.34315 2.34315C4.02205 4.49913 2.71168 7.66266 0 8C2.71168 8.33735 4.02205 11.5009 2.34315 13.6569C4.49913 11.9779 7.66266 13.2883 8 16C8.33735 13.2883 11.5009 11.9779 13.6569 13.6569C11.9779 11.5009 13.2883 8.33735 16 8C13.2883 7.66266 11.9779 4.49913 13.6569 2.34315ZM8 11C9.65685 11 11 9.65685 11 8C11 6.34315 9.65685 5 8 5C6.34315 5 5 6.34315 5 8C5 9.65685 6.34315 11 8 11Z" fill="#D9D9D9"/>
</svg>
