<svg width="16" height="16" viewBox="0 0 16 16" fill="none" xmlns="http://www.w3.org/2000/svg">
<path fill-rule="evenodd" clip-rule="evenodd" d="M15.9026 9.25189L12.939 8.78615C12.979 8.53177 13 8.26937 13 8C13 7.73063 12.979 7.46823 12.939 7.21385L15.9026 6.74811C15.9667 7.15599 16 7.57411 16 8C16 8.42589 15.9667 8.84401 15.9026 9.25189ZM15.4706 5.13214L12.6701 6.20789C12.4812 5.7162 12.2158 5.26012 11.8871 4.85468L14.2174 2.96533C14.7416 3.61188 15.167 4.34182 15.4706 5.13214ZM13.0347 1.78258L11.1453 4.11289C10.7399 3.78417 10.2838 3.51876 9.79211 3.32989L10.8679 0.529397C11.6582 0.832983 12.3881 1.25837 13.0347 1.78258ZM9.25189 0.0973803L8.78615 3.06101C8.53177 3.02103 8.26937 3 8 3C7.73063 3 7.46823 3.02103 7.21385 3.06101L6.74811 0.0973805C7.15599 0.0332797 7.57411 0 8 0C8.42589 0 8.84401 0.0332797 9.25189 0.0973803ZM5.13214 0.529397L6.20789 3.32989C5.7162 3.51876 5.26012 3.78417 4.85468 4.11289L2.96533 1.78258C3.61188 1.25837 4.34182 0.832983 5.13214 0.529397ZM1.78258 2.96533L4.11289 4.85468C3.78417 5.26012 3.51876 5.7162 3.32989 6.20789L0.529397 5.13214C0.832983 4.34182 1.25837 3.61188 1.78258 2.96533ZM0.0973804 6.74811C0.0332797 7.15599 0 7.57411 0 8C0 8.42589 0.0332797 8.84401 0.0973805 9.25189L3.06101 8.78615C3.02103 8.53177 3 8.26937 3 8C3 7.73063 3.02103 7.46823 3.06101 7.21386L0.0973804 6.74811ZM0.529397 10.8679L3.32989 9.79211C3.51876 10.2838 3.78417 10.7399 4.11289 11.1453L1.78258 13.0347C1.25837 12.3881 0.832983 11.6582 0.529397 10.8679ZM2.96533 14.2174L4.85468 11.8871C5.26012 12.2158 5.7162 12.4812 6.20789 12.6701L5.13214 15.4706C4.34182 15.167 3.61188 14.7416 2.96533 14.2174ZM6.74811 15.9026L7.21386 12.939C7.46823 12.979 7.73063 13 8 13C8.26937 13 8.53177 12.979 8.78615 12.939L9.25189 15.9026C8.84401 15.9667 8.42589 16 8 16C7.57411 16 7.15599 15.9667 6.74811 15.9026ZM10.8679 15.4706L9.79211 12.6701C10.2838 12.4812 10.7399 12.2158 11.1453 11.8871L13.0347 14.2174C12.3881 14.7416 11.6582 15.167 10.8679 15.4706ZM14.2174 13.0347L11.8871 11.1453C12.2158 10.7399 12.4812 10.2838 12.6701 9.79211L15.4706 10.8679C15.167 11.6582 14.7416 12.3881 14.2174 13.0347Z" fill="#D9D9D9"/>
</svg>
