<svg width="16" height="16" viewBox="0 0 16 16" fill="none" xmlns="http://www.w3.org/2000/svg">
<path fill-rule="evenodd" clip-rule="evenodd" d="M15.8477 9.5613L8.03733 8.01617L14.6525 12.4449C14.0685 13.3173 13.3173 14.0685 12.4449 14.6525L8.01617 8.03733L9.5613 15.8477C9.05633 15.9476 8.53428 16 8 16C7.46572 16 6.94367 15.9476 6.4387 15.8477L7.98383 8.03733L3.55508 14.6525C2.68266 14.0685 1.93154 13.3173 1.34748 12.4449L7.96267 8.01617L0.152272 9.5613C0.0523756 9.05633 0 8.53428 0 8C0 7.46572 0.0523755 6.94367 0.152272 6.4387L7.96267 7.98383L1.34748 3.55508C1.93154 2.68266 2.68266 1.93154 3.55507 1.34748L7.98383 7.96267L6.4387 0.152272C6.94367 0.0523755 7.46572 0 8 0C8.53428 0 9.05633 0.0523755 9.5613 0.152272L8.01617 7.96267L12.4449 1.34748C13.3173 1.93154 14.0685 2.68266 14.6525 3.55507L8.03733 7.98383L15.8477 6.4387C15.9476 6.94367 16 7.46572 16 8C16 8.53428 15.9476 9.05633 15.8477 9.5613Z" fill="#D9D9D9"/>
</svg>
