<svg width="16" height="16" viewBox="0 0 16 16" fill="none" xmlns="http://www.w3.org/2000/svg">
<path fill-rule="evenodd" clip-rule="evenodd" d="M11.923 8.78487L15.8477 9.5613C15.9476 9.05633 16 8.53428 16 8C16 7.46572 15.9476 6.94367 15.8477 6.4387L11.923 7.21513C11.8192 6.6932 11.6138 6.20786 11.3283 5.78059L14.6525 3.55507C14.0685 2.68266 13.3173 1.93154 12.4449 1.34748L10.2194 4.6717C9.79214 4.38621 9.3068 4.18081 8.78487 4.07697L9.5613 0.152272C9.05633 0.0523755 8.53428 0 8 0C7.46572 0 6.94367 0.0523755 6.4387 0.152272L7.21513 4.07697C6.6932 4.18082 6.20786 4.38621 5.78059 4.6717L3.55507 1.34748C2.68266 1.93154 1.93154 2.68266 1.34748 3.55508L4.6717 5.78059C4.38621 6.20786 4.18081 6.6932 4.07697 7.21513L0.152272 6.4387C0.0523755 6.94367 0 7.46572 0 8C0 8.53428 0.0523756 9.05633 0.152272 9.5613L4.07697 8.78487C4.18082 9.3068 4.38621 9.79214 4.6717 10.2194L1.34748 12.4449C1.93154 13.3173 2.68266 14.0685 3.55508 14.6525L5.78059 11.3283C6.20786 11.6138 6.6932 11.8192 7.21513 11.923L6.4387 15.8477C6.94367 15.9476 7.46572 16 8 16C8.53428 16 9.05633 15.9476 9.5613 15.8477L8.78487 11.923C9.3068 11.8192 9.79214 11.6138 10.2194 11.3283L12.4449 14.6525C13.3173 14.0685 14.0685 13.3173 14.6525 12.4449L11.3283 10.2194C11.6138 9.79214 11.8192 9.3068 11.923 8.78487ZM11.923 8.78487C11.9735 8.53108 12 8.26863 12 8C12 7.73137 11.9735 7.46892 11.923 7.21513L8.03733 7.98383L11.3283 5.78059C11.0353 5.34206 10.6579 4.9647 10.2194 4.6717L8.01617 7.96267L8.78487 4.07697C8.53108 4.02648 8.26863 4 8 4C7.73137 4 7.46892 4.02648 7.21513 4.07697L7.98383 7.96267L5.78059 4.6717C5.34206 4.9647 4.9647 5.34207 4.6717 5.78059L7.96267 7.98383L4.07697 7.21513C4.02648 7.46892 4 7.73137 4 8C4 8.26863 4.02648 8.53108 4.07697 8.78487L7.96267 8.01617L4.6717 10.2194C4.9647 10.6579 5.34207 11.0353 5.78059 11.3283L7.98383 8.03733L7.21513 11.923C7.46892 11.9735 7.73137 12 8 12C8.26863 12 8.53108 11.9735 8.78487 11.923L8.01617 8.03733L10.2194 11.3283C10.6579 11.0353 11.0353 10.6579 11.3283 10.2194L8.03733 8.01617L11.923 8.78487Z" fill="#D9D9D9"/>
</svg>
