<svg width="16" height="16" viewBox="0 0 16 16" fill="none" xmlns="http://www.w3.org/2000/svg">
<path fill-rule="evenodd" clip-rule="evenodd" d="M10.9418 8.59077L15.8477 9.5613C15.9476 9.05633 16 8.53428 16 8C16 7.46572 15.9476 6.94367 15.8477 6.4387L10.9418 7.40923C10.98 7.60024 11 7.79778 11 8C11 8.20222 10.98 8.39977 10.9418 8.59077ZM10.4972 9.66303C10.277 9.99308 9.99308 10.277 9.66303 10.4972L12.4449 14.6525C13.3173 14.0685 14.0685 13.3173 14.6525 12.4449L10.4972 9.66303ZM8.59077 10.9418C8.39977 10.98 8.20222 11 8 11C7.79778 11 7.60024 10.98 7.40923 10.9418L6.4387 15.8477C6.94367 15.9476 7.46572 16 8 16C8.53428 16 9.05633 15.9476 9.5613 15.8477L8.59077 10.9418ZM6.33697 10.4972C6.00692 10.277 5.72299 9.99308 5.50276 9.66303L1.34748 12.4449C1.93154 13.3173 2.68266 14.0685 3.55508 14.6525L6.33697 10.4972ZM5.05815 8.59077C5.02001 8.39977 5 8.20222 5 8C5 7.79778 5.02001 7.60024 5.05815 7.40923L0.152272 6.4387C0.0523755 6.94367 0 7.46572 0 8C0 8.53428 0.0523756 9.05633 0.152272 9.5613L5.05815 8.59077ZM5.50276 6.33697C5.72299 6.00692 6.00692 5.72299 6.33697 5.50276L3.55507 1.34748C2.68266 1.93154 1.93154 2.68266 1.34748 3.55508L5.50276 6.33697ZM7.40923 5.05815C7.60024 5.02001 7.79778 5 8 5C8.20222 5 8.39977 5.02001 8.59077 5.05815L9.5613 0.152272C9.05633 0.0523755 8.53428 0 8 0C7.46572 0 6.94367 0.0523755 6.4387 0.152272L7.40923 5.05815ZM9.66303 5.50276L12.4449 1.34748C13.3173 1.93154 14.0685 2.68266 14.6525 3.55507L10.4972 6.33697C10.277 6.00692 9.99308 5.72299 9.66303 5.50276Z" fill="#D9D9D9"/>
</svg>
