<svg width="16" height="16" viewBox="0 0 16 16" fill="none" xmlns="http://www.w3.org/2000/svg">
<path fill-rule="evenodd" clip-rule="evenodd" d="M15.9585 8.81981C15.9166 9.23189 15.5183 9.49613 15.112 9.41574L11.7175 8.74421C10.9132 8.5851 10.4734 9.64707 11.1547 10.1032L14.0293 12.0277C14.3735 12.2581 14.4683 12.7266 14.2068 13.0478C13.861 13.4725 13.4725 13.861 13.0478 14.2068C12.7266 14.4683 12.2581 14.3735 12.0277 14.0293L10.1032 11.1547C9.64707 10.4734 8.5851 10.9132 8.74421 11.7175L9.41574 15.112C9.49613 15.5183 9.23189 15.9166 8.81981 15.9585C8.55027 15.9859 8.27678 16 8 16C7.72322 16 7.44973 15.9859 7.18019 15.9585C6.76811 15.9166 6.50387 15.5183 6.58426 15.112L7.25579 11.7175C7.4149 10.9132 6.35293 10.4734 5.89682 11.1547L3.97232 14.0293C3.74188 14.3735 3.27344 14.4683 2.95224 14.2068C2.52755 13.861 2.13902 13.4725 1.79322 13.0478C1.53168 12.7266 1.62651 12.2581 1.9707 12.0277L4.84532 10.1032C5.52661 9.64707 5.08681 8.5851 4.28253 8.74421L0.888013 9.41574C0.481675 9.49613 0.0834376 9.23189 0.0414916 8.81981C0.0140555 8.55027 0 8.27678 0 8C0 7.72322 0.0140554 7.44973 0.0414915 7.18019C0.0834375 6.76811 0.481675 6.50387 0.888013 6.58426L4.28253 7.25579C5.08681 7.4149 5.52661 6.35293 4.84532 5.89683L1.9707 3.97232C1.6265 3.74188 1.53168 3.27344 1.79322 2.95224C2.13902 2.52755 2.52755 2.13902 2.95224 1.79322C3.27344 1.53168 3.74188 1.62651 3.97231 1.9707L5.89683 4.84533C6.35293 5.52661 7.4149 5.08681 7.25579 4.28253L6.58426 0.888013C6.50387 0.481675 6.76811 0.0834376 7.18019 0.0414915C7.44973 0.0140555 7.72322 0 8 0C8.27678 0 8.55027 0.0140554 8.81981 0.0414915C9.23189 0.0834375 9.49613 0.481675 9.41574 0.888013L8.74421 4.28253C8.5851 5.08681 9.64707 5.52661 10.1032 4.84532L12.0277 1.9707C12.2581 1.6265 12.7266 1.53168 13.0478 1.79322C13.4725 2.13902 13.861 2.52755 14.2068 2.95223C14.4683 3.27344 14.3735 3.74188 14.0293 3.97231L11.1547 5.89683C10.4734 6.35294 10.9132 7.4149 11.7175 7.25579L15.112 6.58426C15.5183 6.50387 15.9166 6.76811 15.9585 7.18019C15.9859 7.44973 16 7.72322 16 8C16 8.27678 15.9859 8.55027 15.9585 8.81981Z" fill="#D9D9D9"/>
</svg>
