<svg width="16" height="16" viewBox="0 0 16 16" fill="none" xmlns="http://www.w3.org/2000/svg">
<path d="M7 2C7 1.44772 7.44772 1 8 1C8.55228 1 9 1.44772 9 2V5C9 5.55228 8.55228 6 8 6C7.44772 6 7 5.55228 7 5V2Z" fill="#D9D9D9"/>
<path d="M7 11C7 10.4477 7.44772 10 8 10C8.55228 10 9 10.4477 9 11V14C9 14.5523 8.55228 15 8 15C7.44772 15 7 14.5523 7 14V11Z" fill="#D9D9D9"/>
<path d="M14 7C14.5523 7 15 7.44772 15 8C15 8.55228 14.5523 9 14 9H11C10.4477 9 10 8.55228 10 8C10 7.44772 10.4477 7 11 7H14Z" fill="#D9D9D9"/>
<path d="M5 7C5.55228 7 6 7.44772 6 8C6 8.55228 5.55228 9 5 9H2C1.44772 9 1 8.55228 1 8C1 7.44772 1.44772 7 2 7H5Z" fill="#D9D9D9"/>
</svg>
