<svg width="16" height="16" viewBox="0 0 16 16" fill="none" xmlns="http://www.w3.org/2000/svg">
<path d="M11.9916 2.34459C12.451 1.88514 13.1959 1.88514 13.6554 2.34459C14.1149 2.80405 14.1149 3.54899 13.6554 4.00845L11.1596 6.50422C10.7002 6.96368 9.95524 6.96368 9.49578 6.50422C9.03632 6.04476 9.03632 5.29983 9.49578 4.84037L11.9916 2.34459Z" fill="#D9D9D9"/>
<path d="M4.84037 9.49578C5.29983 9.03632 6.04476 9.03632 6.50422 9.49578C6.96368 9.95524 6.96368 10.7002 6.50422 11.1596L4.00845 13.6554C3.54899 14.1149 2.80405 14.1149 2.3446 13.6554C1.88514 13.1959 1.88514 12.451 2.3446 11.9916L4.84037 9.49578Z" fill="#D9D9D9"/>
<path d="M13.6554 11.9916C14.1149 12.451 14.1149 13.1959 13.6554 13.6554C13.1959 14.1149 12.451 14.1149 11.9916 13.6554L9.49578 11.1596C9.03632 10.7002 9.03632 9.95524 9.49578 9.49578C9.95524 9.03632 10.7002 9.03632 11.1596 9.49578L13.6554 11.9916Z" fill="#D9D9D9"/>
<path d="M6.50422 4.84037C6.96368 5.29983 6.96368 6.04476 6.50422 6.50422C6.04476 6.96368 5.29983 6.96368 4.84037 6.50422L2.34459 4.00845C1.88513 3.54899 1.88514 2.80405 2.3446 2.34459C2.80405 1.88513 3.54899 1.88514 4.00845 2.34459L6.50422 4.84037Z" fill="#D9D9D9"/>
</svg>
