<svg width="16" height="16" viewBox="0 0 16 16" fill="none" xmlns="http://www.w3.org/2000/svg">
<path d="M5.17158 2.34315C4.39053 1.5621 3.1242 1.5621 2.34315 2.34315C1.5621 3.12419 1.5621 4.39052 2.34315 5.17157L4.46447 7.29289C4.85499 7.68342 4.85499 8.31658 4.46447 8.70711L2.34315 10.8284C1.5621 11.6095 1.5621 12.8758 2.34315 13.6569C3.1242 14.4379 4.39053 14.4379 5.17158 13.6569L7.2929 11.5355C7.68342 11.145 8.31659 11.145 8.70711 11.5355L10.8284 13.6569C11.6095 14.4379 12.8758 14.4379 13.6569 13.6569C14.4379 12.8758 14.4379 11.6095 13.6569 10.8284L11.5355 8.70711C11.145 8.31658 11.145 7.68342 11.5355 7.29289L13.6569 5.17157C14.4379 4.39052 14.4379 3.12419 13.6569 2.34315C12.8758 1.5621 11.6095 1.5621 10.8284 2.34315L8.70711 4.46447C8.31659 4.85499 7.68342 4.85499 7.2929 4.46447L5.17158 2.34315Z" fill="#D9D9D9"/>
</svg>
