<svg width="16" height="16" viewBox="0 0 16 16" fill="none" xmlns="http://www.w3.org/2000/svg">
<path fill-rule="evenodd" clip-rule="evenodd" d="M8 0C9.10457 0 10 0.895431 10 2V5C10 5.55228 10.4477 6 11 6H14C15.1046 6 16 6.89543 16 8C16 9.10457 15.1046 10 14 10H11C10.4477 10 10 10.4477 10 11V14C10 15.1046 9.10457 16 8 16C6.89543 16 6 15.1046 6 14V11C6 10.4477 5.55228 10 5 10H2C0.895431 10 0 9.10457 0 8C0 6.89543 0.895431 6 2 6H5C5.55228 6 6 5.55228 6 5V2C6 0.89543 6.89543 0 8 0ZM8 10C9.10457 10 10 9.10457 10 8C10 6.89543 9.10457 6 8 6C6.89543 6 6 6.89543 6 8C6 9.10457 6.89543 10 8 10Z" fill="#D9D9D9"/>
</svg>
