<svg width="142" height="92" viewBox="0 0 142 92" fill="none" xmlns="http://www.w3.org/2000/svg"><path fill-rule="evenodd" clip-rule="evenodd" d="M42.878 5.405c0 11.822-9.583 21.406-21.405 21.406C9.65 26.81.067 17.227.067 5.405.067-6.416 9.651-16 21.473-16S42.878-6.416 42.878 5.405ZM94.446 32.65c0 11.821-9.584 21.405-21.406 21.405S51.635 44.47 51.635 32.649c0-11.822 9.583-21.406 21.405-21.406 11.822 0 21.406 9.584 21.406 21.406Zm33.081-1.946c11.822 0 21.406-9.584 21.406-21.406 0-11.821-9.584-21.405-21.406-21.405-11.821 0-21.405 9.584-21.405 21.405 0 11.822 9.584 21.406 21.405 21.406Zm16.541 39.891c0 11.822-9.584 21.406-21.406 21.406s-21.405-9.584-21.405-21.406c0-11.821 9.583-21.405 21.405-21.405 11.822 0 21.406 9.584 21.406 21.405Zm-16.552-54.56 8.511-5.258L127.516-4 119 10.776l8.516 5.257ZM119 12.463l8.516 5.258 8.516-5.258-8.516 12.543L119 12.465ZM73.122 31.006c3.69.44 5.536 1.494 5.536 4.569 0 2.372-1.757 4.218-4.393 4.657v2.109c-.088.44-.352.703-.703.703h-1.318c-.44-.088-.703-.352-.703-.703v-2.109c-2.9-.44-4.306-2.021-4.657-4.218v-.087a.6.6 0 0 1 .615-.616h1.494c.263 0 .527.176.615.528.263 1.318 1.054 2.284 3.339 2.284 1.669 0 2.9-.966 2.9-2.372s-.791-1.933-3.252-2.372c-3.69-.44-5.448-1.582-5.448-4.482 0-2.196 1.67-3.954 4.306-4.305V22.57c.088-.44.351-.703.703-.703h1.318c.44.088.703.351.703.703v2.109a4.39 4.39 0 0 1 3.954 3.602v.088a.6.6 0 0 1-.615.615H76.11a.661.661 0 0 1-.615-.44c-.44-1.317-1.318-1.845-2.9-1.845-1.757 0-2.636.791-2.636 2.021s.527 1.933 3.163 2.285ZM60.558 27.93c-2.549 6.766.966 14.41 7.82 16.87.263.177.527.528.527.792v1.23c0 .175 0 .263-.088.351-.088.352-.44.527-.79.352a15.807 15.807 0 0 1-10.281-10.28c-2.636-8.348 1.933-17.223 10.28-19.859.088-.088.264-.088.352-.088.351.088.527.352.527.703v1.23c0 .44-.176.703-.527.879-3.603 1.318-6.502 4.13-7.82 7.82Zm16.34-10.19c.088-.352.44-.528.791-.352 4.833 1.581 8.7 5.36 10.28 10.368 2.637 8.347-1.932 17.222-10.28 19.858-.087.088-.263.088-.351.088-.352-.088-.527-.351-.527-.703v-1.23c0-.44.175-.703.527-.879 3.602-1.318 6.502-4.13 7.82-7.82 2.548-6.766-.966-14.41-7.82-16.87-.264-.176-.527-.528-.527-.88v-1.23c0-.175 0-.263.088-.35Zm-63.914.36.004-.003V11.49c0-.156 0-.18-.191-.18h-2.594c-.144 0-.203 0-.203-.19V8.848h2.772c.155 0 .216 0 .216-.203V6.398c0-.143 0-.179-.191-.179h-2.594c-.144 0-.203 0-.203-.19V3.924c0-.131 0-.167.191-.167h2.57c.178 0 .227 0 .227-.227v-6.44c0-.191 0-.24.239-.24h8.962c.65.026 1.297.098 1.936.216a11.65 11.65 0 0 1 3.74 1.386c.768.452 1.475.997 2.104 1.625.473.492.9 1.023 1.278 1.59.376.574.689 1.187.934 1.828.03.167.19.28.357.251h2.14c.138 0 .207 0 .242.035.035.033.038.099.044.229v1.96c0 .19-.072.239-.264.239h-1.649c-.167 0-.215 0-.203.215.065.728.065 1.459 0 2.187 0 .203 0 .227.228.227h1.887c.056.071.037.143.018.215a.44.44 0 0 0-.018.108c.012.139.012.279 0 .418v1.446c0 .203-.06.263-.24.263h-2.258a.3.3 0 0 0-.347.227 9.556 9.556 0 0 1-2.51 3.657c-.406.366-.833.71-1.278 1.028-.097.055-.193.111-.29.168-.378.22-.753.44-1.145.62-.902.407-1.849.706-2.82.897-.923.165-1.858.24-2.797.227h-8.294V18.1ZM29.492 3.72a.232.232 0 0 0 0-.166 4.726 4.726 0 0 0-.432-.753 6.1 6.1 0 0 0-.884-1.112 2.933 2.933 0 0 0-.55-.538A8.59 8.59 0 0 0 24.04-.665a8.912 8.912 0 0 0-2.03-.215h-6.42c-.179 0-.203.071-.203.227v4.242c0 .179 0 .227.227.227h13.791s.12-.024.144-.095h-.058ZM15.676 8.835h14.388c.155 0 .228 0 .24-.203a13.97 13.97 0 0 0 0-2.222c0-.144-.072-.204-.228-.204h-14.46c-.179 0-.227.06-.227.228V8.56c0 .135 0 .204.034.238.036.036.107.036.253.036Zm13.205 2.486c.203-.022.408-.022.611 0v.002c.094.047.01.228.01.228a7.764 7.764 0 0 1-3.334 3.356h-.083a4.752 4.752 0 0 1-.872.406 9.11 9.11 0 0 1-2.594.574c-.287.061-.58.082-.872.06h-6.119c-.239 0-.239-.048-.239-.24V11.56c0-.239.06-.239.24-.239H28.88ZM134.45 78.773l-8.747-21.146C125.21 56.533 124.476 56 123.51 56h-.774c-.966 0-1.7.533-2.193 1.627l-3.807 9.213h-2.88c-.86.007-1.56.7-1.566 1.567v.02a1.58 1.58 0 0 0 1.566 1.566h1.547l-3.633 8.78a1.826 1.826 0 0 0-.107.6c0 .494.153.88.427 1.18.273.3.666.447 1.16.447.326-.007.64-.107.9-.3.28-.193.473-.473.626-.793l4-9.92h2.774c.86-.007 1.56-.7 1.566-1.567v-.04a1.581 1.581 0 0 0-1.566-1.567h-1.48l3.053-7.606 8.32 20.693c.153.32.347.6.627.793.26.194.58.294.9.3.493 0 .88-.146 1.16-.446.28-.3.426-.687.426-1.18.007-.2-.026-.407-.106-.594Z" fill="url(#a)" fill-opacity=".55"/><defs><linearGradient id="a" x1="164" y1="6.5" x2="41.5" y2="81" gradientUnits="userSpaceOnUse"><stop stop-color="#fff"/><stop offset="1" stop-color="#fff" stop-opacity="0"/></linearGradient></defs></svg>