<svg width="20" height="20" viewBox="0 0 20 20" fill="none" xmlns="http://www.w3.org/2000/svg">
<path d="M17.146 4.52803C15.767 3.18049 13.8805 2.35 11.8 2.35C7.57502 2.35 4.15 5.77502 4.15 10C4.15 14.225 7.57502 17.65 11.8 17.65C13.8805 17.65 15.767 16.8195 17.146 15.472C15.501 17.617 12.912 19 10 19C5.02944 19 1 14.9706 1 10C1 5.02944 5.02944 1 10 1C12.912 1 15.501 2.38301 17.146 4.52803Z" fill="#9B9B9B"/>
<path d="M6.08317 14.3776C7.18644 15.4556 8.69563 16.12 10.36 16.12C13.74 16.12 16.48 13.38 16.48 10C16.48 6.62002 13.74 3.88 10.36 3.88C8.69563 3.88 7.18644 4.54439 6.08317 5.62243C7.39916 3.90641 9.47037 2.8 11.8 2.8C15.7765 2.8 19 6.02355 19 10C19 13.9764 15.7764 17.2 11.8 17.2C9.47037 17.2 7.39916 16.0936 6.08317 14.3776Z" fill="#9B9B9B"/>
<path fill-rule="evenodd" clip-rule="evenodd" d="M15.4 10C15.4 12.9823 12.9823 15.4 10 15.4C7.01766 15.4 4.6 12.9823 4.6 10C4.6 7.01766 7.01766 4.6 10 4.6C12.9823 4.6 15.4 7.01766 15.4 10ZM13.6 10C13.6 11.9882 11.9882 13.6 10 13.6C8.01177 13.6 6.4 11.9882 6.4 10C6.4 8.01178 8.01177 6.4 10 6.4C11.9882 6.4 13.6 8.01178 13.6 10Z" fill="#9B9B9B"/>
</svg>
