<svg xmlns="http://www.w3.org/2000/svg" viewBox="0 0 364 364">
  <defs>
    <style>.cls-1{fill:#0052ff;}.cls-2{fill:#fff;}</style>
  </defs>
  <g id="Layer_2" data-name="Layer 2">
    <g id="Layer_1-2" data-name="Layer 1">
      <rect class="cls-1" width="364" height="364" />
      <path class="cls-2" d="M232.77,192.91a53.51,53.51,0,1,1-.08-22.16,1.38,1.38,0,0,0,1.34,1.09h51.48a1.38,1.38,0,0,0,1.37-1.52A107.12,107.12,0,0,0,178.39,74.9c-57.49,1-104.27,48-105.1,105.51a107.12,107.12,0,0,0,213.63,12.92,1.39,1.39,0,0,0-1.38-1.52H234.11A1.36,1.36,0,0,0,232.77,192.91Z"/>
    </g>
  </g>
</svg>