<svg width="200" height="200" viewBox="0 0 200 200" fill="none" xmlns="http://www.w3.org/2000/svg">
<rect width="200" height="200" fill="#04CD58"/>
<path fill-rule="evenodd" clip-rule="evenodd" d="M100 112C87.3026 112 77 101.708 77 89C77 76.2923 87.3026 66 100 66C112.697 66 123 76.2923 123 89C123 101.708 112.697 112 100 112ZM90 89C90 94.5251 94.4794 99 100 99C105.521 99 110 94.5251 110 89C110 83.4749 105.521 79 100 79C94.4794 79 90 83.4749 90 89Z" fill="black"/>
<path fill-rule="evenodd" clip-rule="evenodd" d="M26 89.0304L70 45H130L174 89.0304L100 163L26 89.0304ZM134 72.9998C115.305 54.2224 84.6953 54.2225 66 72.9999L50 89.0001L66 105C84.6953 123.778 115.305 123.777 134 105L150 89.0001L134 72.9998Z" fill="black"/>
</svg>
