<svg xmlns="http://www.w3.org/2000/svg" viewBox="0 0 363 364">
  <defs>
    <style>.cls-1{fill:#3d3d3d;}.cls-2{fill:#24ddd8;}</style>
  </defs>
  <g id="Layer_2" data-name="Layer 2">
    <g id="Layer_1-2" data-name="Layer 1">
      <rect class="cls-1" width="363" height="364"/>
      <path class="cls-2" d="M218.1,115.8V102.1S187,101,177.94,115.76l-.22-13.45s-28.93-1.57-42.2,15.37c-3.53,4.51-6.09,8.14-7.88,12.7-3.86,9.81-3.27,24.88-3.27,24.88l0,66s-8.86-1.72-14.32,3a1.68,1.68,0,0,1-2,.23,1.4,1.4,0,0,1-.57-.8c-1.52-5.38-12.33-8.91-18.74-2.09-6.87,7.31-3.2,20.58,8.72,21.06,0,0-2.49,19.78,13.62,27.16,13.38,6.13,22,0,22,0s5,6.92,17.61,6.92h86.71c6.24,0,20.32-7.19,20.32-21.73V102.27S225,101.08,218.1,115.8ZM250.17,256c0,10.83-13.41,13.94-15.23,13.94H149.49a18.79,18.79,0,0,1-15.24-7.75c-5.62,4.89-13.89,3.68-13.89,3.68-16-1.09-16.76-19.32-15.67-22.93s.26-6.87-6.28-6.77-8.08-6.93-3.77-9.69,8.41-.16,8.44,3.19c0,2,2,4.43,5.19,4.53,4.23.13,6.21-5.52,12.68-5.88a19.4,19.4,0,0,1,10.77,2.4s.82-52.07.82-85.95c0-7.69,3.83-15.12,7.79-20.3a36.74,36.74,0,0,1,8-7.8,37.65,37.65,0,0,1,22.83-7.12v37.59h0c0-34.3,39.88-37.59,39.88-37.59v36.93h0c0-34.61,39.1-36.93,39.1-36.93Z"/>
      <path class="cls-2" d="M238.24,214.27v31.47a11,11,0,0,1-11,11h-1.9a.65.65,0,0,1-.65-.65v-6.49a6.8,6.8,0,0,0-5.76-6.81,6.65,6.65,0,0,0-7.52,6.59v6.29a1.06,1.06,0,0,1-1.06,1.07h-37.8a1.07,1.07,0,0,1-1.07-1.07v-6a6.82,6.82,0,0,0-6.44-6.91,6.64,6.64,0,0,0-6.84,6.64v6.71a.65.65,0,0,1-.65.65h-1.45a11,11,0,0,1-11-11V214.28a11,11,0,0,1,11-11h1.45a.65.65,0,0,1,.65.65v6.84a6.64,6.64,0,0,0,13.28,0V204.3a1.06,1.06,0,0,1,1.07-1.06h37.8a1.05,1.05,0,0,1,1.06,1.06v6.14a6.82,6.82,0,0,0,6.44,6.91,6.63,6.63,0,0,0,6.84-6.62v-6.84a.65.65,0,0,1,.65-.65h1.91A11,11,0,0,1,238.24,214.27Z"/>
      <rect class="cls-2" x="158.03" y="170.28" width="13.88" height="20.1" rx="3.72"/>
      <rect class="cls-2" x="211.11" y="170.28" width="13.88" height="20.1" rx="3.72"/>
      <path class="cls-2" d="M242.71,116.19s-29.8,2.46-25.51,37.8a92,92,0,0,1,8.33-23.15C229.06,124.34,237.32,119.4,242.71,116.19Z"/>
      <path class="cls-2" d="M202.64,116.19s-29.8,2.46-25.51,37.8a92,92,0,0,1,8.33-23.15C189,124.34,197.25,119.4,202.64,116.19Z"/>
      <path class="cls-2" d="M163.31,116.19s-29.8,2.46-25.51,37.8a92,92,0,0,1,8.33-23.15C149.65,124.34,157.92,119.4,163.31,116.19Z"/>
    </g>
  </g>
</svg>