<svg xmlns="http://www.w3.org/2000/svg" viewBox="0 0 363 364">
  <defs>
    <style>.cls-1{fill:#fcd903;}.cls-2{fill:#020100;}</style>
  </defs>
  <g id="Layer_2" data-name="Layer 2">
    <g id="Layer_1-2" data-name="Layer 1">
      <path class="cls-1" d="M285.85,364H77.15A77.15,77.15,0,0,1,0,286.85V77.15A77.15,77.15,0,0,1,77.15,0h208.7A77.15,77.15,0,0,1,363,77.15v209.7A77.15,77.15,0,0,1,285.85,364ZM74.09,107.52V267.34H137.6V213.41c26.76,0,53-.21,79.21.11,9.71.12,14.67,5.83,14.84,15.73.18,10.13,0,20.27,0,30.4v7.72h63.37c0-15.84.82-31.47-.24-47-1-14.64-9.32-25.25-22.75-31.56-1.29-.61-2.62-1.12-4-1.71.27-.36.35-.54.48-.61a8.62,8.62,0,0,1,1.32-.67c15-5.49,22.36-16.53,23.09-32.17.77-16.55-4.49-30-20-38.08-12.45-6.44-26-8.1-39.64-8.17-52.49-.26-105-.18-157.48-.21A11.44,11.44,0,0,0,74.09,107.52Z"/>
      <path class="cls-2" d="M74.09,107.52a11.44,11.44,0,0,1,1.73-.3c52.5,0,105,0,157.48.21,13.65.07,27.19,1.73,39.64,8.17,15.55,8,20.81,21.53,20,38.08-.73,15.64-8.11,26.68-23.09,32.17a8.62,8.62,0,0,0-1.32.67c-.13.07-.21.25-.48.61,1.37.59,2.7,1.1,4,1.71,13.43,6.31,21.75,16.92,22.75,31.56,1.06,15.5.24,31.13.24,47H231.7v-7.72c0-10.13.13-20.27,0-30.4-.17-9.9-5.13-15.61-14.84-15.73-26.22-.32-52.45-.11-79.21-.11v53.93H74.09Zm63.65,62.39c23.83,0,47.39,0,70.95,0,3.66,0,7.32,0,11-.28,5.58-.49,6.71-2.27,7.14-8.08.41-5.37-2.86-6.48-6.93-7a49.5,49.5,0,0,0-6-.25q-35.89,0-71.78,0c-1.44,0-2.87.13-4.37.2Z"/>
      <path class="cls-1" d="M137.74,169.91v-15.4c1.5-.07,2.93-.2,4.37-.2q35.89,0,71.78,0a49.5,49.5,0,0,1,6,.25c4.07.5,7.34,1.61,6.93,7-.43,5.81-1.56,7.59-7.14,8.08-3.64.32-7.3.28-11,.28C185.13,169.92,161.57,169.91,137.74,169.91Z"/>
    </g>
  </g>
  </svg>