<svg xmlns="http://www.w3.org/2000/svg" xmlns:xlink="http://www.w3.org/1999/xlink" viewBox="0 0 364 364">
  <defs>
    <style>.cls-1{fill:#fff;}.cls-2{fill:#0d0f23;}.cls-3{fill:#2f2f2f;}.cls-4{fill:url(#linear-gradient);}.cls-5{fill:url(#linear-gradient-2);}</style>
    <linearGradient id="linear-gradient" x1="177.18" y1="64.07" x2="177.18" y2="292.45" gradientUnits="userSpaceOnUse">
      <stop offset="0" stop-color="#1bace4"/>
      <stop offset="0.7" stop-color="#fa52a0"/>
    </linearGradient>
    <linearGradient id="linear-gradient-2" x1="164.69" y1="109.21" x2="242.53" y2="187.05" gradientUnits="userSpaceOnUse">
      <stop offset="0" stop-color="#8f82c4"/>
      <stop offset="1" stop-color="#e65ba7"/>
    </linearGradient>
  </defs>
  <g id="Layer_2" data-name="Layer 2">
    <g id="Layer_1-2" data-name="Layer 1">
      <rect class="cls-1" width="364" height="364" />
      <path class="cls-2" d="M306.26,190.34h0a58.84,58.84,0,0,0-2.07-7.38c-1-2.39-10.24-2.92-11.31-3q.81,2.07,1.5,4.2c2.1,6.46,3.42,13.7,2.81,20.39-1,10.66-9.86,16.75-23.12,17.78-1.82.14-3.65,0-5.48,0a101.74,101.74,0,0,1-16.07-1.56l-1.17-.21c-1-.18-1.72-.32-2.06-.4l-.13,0-.11,0a80.19,80.19,0,0,1-5.48,7.6l.22,0c.76,0,2.81.49,2.3,2.4-.56,2.08-3.55,1.64-5.55,1.17-6.58,7.34-16.39,15.73-27.36,16.53-19.84,1.44-30-20.5-47-39.29S122.52,218.3,112,228.86s-20.79,9.39-20.79,9.39.38.39,1.12,1.08l0,0a249,249,0,0,0,42.51,33.08c7.21,4.5,14.53,8.74,22,12.53,5.1,2.45,10.56,4.92,16.42,7.4l.18.08.13.05A135.84,135.84,0,0,0,215.92,302c15.06.83,28.52-2.82,37.92-16.29l1.1-1.57,0-.05.84-1.19c13.11-18.76,26.36-37.44,40-55.84l.74-1C307.51,211.05,307.64,198.11,306.26,190.34Zm-30.21,43.22c-1.38.18-12.9,1.8-23.57-.17,0,0-2.84,0-2.84-2.5,0,0,.22-2.36,4.14-1.36s16.31,1.41,21.63.16c0,0,2.19-.72,2.89,1S277.43,233.39,276.05,233.56Z"/>
      <path class="cls-3" d="M255.81,282.93c13.11-18.76,26.36-37.44,40-55.84C280.76,247.75,260.19,276.75,255.81,282.93Z"/>
      <path class="cls-1" d="M249.64,230.89s.22-2.36,4.14-1.36,16.31,1.41,21.63.16c0,0,2.19-.72,2.89,1s-.87,2.67-2.25,2.84-12.9,1.8-23.57-.17C252.48,233.39,249.64,233.34,249.64,230.89Z"/>
      <path class="cls-3" d="M252.52,220.8c.78.14,1.57.25,2.36.37C254,221.05,253.22,220.92,252.52,220.8Z"/>
      <path class="cls-3" d="M306.26,190.33a58.84,58.84,0,0,0-2.07-7.38.3.3,0,0,1,0,.08A44.32,44.32,0,0,1,306.26,190.33Z"/>
      <path class="cls-4" d="M173.32,292.37c-5.86-2.48-11.32-4.95-16.42-7.4l2,1,2.05,1,1,.49q.76.38,1.53.72,1.16.54,2.31,1.05c2.52,1.13,5.06,2.19,7.63,3.2Zm76.49-72.08-.38-.07,1.22.24Zm53.89-38.72c-6.17-16.66-16.37-30.79-28.17-43.74a252.85,252.85,0,0,0-83.44-60.35c-16.76-7.58-34.22-12.78-49.8-13.41-19.83,0-29.84,4.43-38.43,16.31q-24.23,33.54-48.19,67.27c-4.61,6.48-6.07,13.87-5.31,21.77,1.46,15.06,8.21,28,16.64,40.05.56.81,1.13,1.61,1.71,2.41,1.35,1.89,2.73,3.74,4.15,5.57.5.65,1,1.3,1.51,1.94,1.69,2.15,3.43,4.25,5.2,6.31.63.74,1.26,1.47,1.91,2.2.35.41.71.81,1.08,1.21s.87,1,1.32,1.47c.6.65,1.19,1.3,1.79,1.94,1.07,1.14,2.14,2.26,3.23,3.37l1.71,1.73c.58.58.06.09.63.65.61,0,.93,0,.93,0s9.33,1.13,19.84-9.42,37.05-39.07,54.13-20.29,27.2,40.73,47,39.29c11-.8,20.78-9.19,27.36-16.53l-.72-.18c-1.91-.5-5-1.84-3.91-4s4-.33,4-.33c.4.17.79.3,1.16.42l.54.15.5.12c.32.07.61.12.86.16l.28,0,.35,0a80.19,80.19,0,0,0,5.48-7.6c-1.86-.39-3.72-.83-5.56-1.3-.93-.24-1.86-.49-2.78-.76s-2-.58-3-.89-2-.62-3-1-2-.67-3-1q-3-1-5.87-2.24l-2.28-.94c-1.19-.5-2.36-1-3.54-1.53a243.23,243.23,0,0,1-78.8-55.73c-12.58-13.35-23.67-27.87-29.42-45.7a43.18,43.18,0,0,1-2-8.71c-1.7-16.83,7.61-26.45,26.48-27.06,13.66-.45,26.76,2.92,39.4,7.6,36.7,13.6,67.77,35.63,94.09,64.38.66.72,1.31,1.43,1.95,2.16.52.58,1,1.17,1.55,1.76.37.43.74.85,1.1,1.28s.77.9,1.14,1.36c.56.66,1.11,1.33,1.65,2l1.41,1.79c.32.4.63.81.94,1.22s.78,1,1.16,1.56l.31.42c.48.65.95,1.3,1.4,2l.22.32c.44.63.88,1.26,1.3,1.91q1.47,2.2,2.82,4.48c.16.27.33.55.48.83s.2.33.29.5c.29.51.58,1,.86,1.54l.26.47c.35.65.69,1.3,1,2s.63,1.27.94,1.91l.33.7c.32.71.64,1.42.95,2.14s.58,1.38.86,2.08c.05.12.1.23.14.35,1.07.06,10.33.59,11.31,3C304,182.49,303.87,182,303.7,181.57ZM99,102.88a2.27,2.27,0,0,1,2.17-2.1,2.11,2.11,0,0,1,1.76,2.79,4.47,4.47,0,0,0,.07,2.28c.11.38.29,2.87-1.83,2.87C98.46,108.72,98.89,104.88,99,102.88Zm20.73,40.6c12.15,18.19,35.9,37.84,36.79,38.66s3.51,2,2,3.94-4.56-.5-4.56-.5c-6.44-4.67-24.83-23.05-36.73-38.23S101.1,117,100.53,114.44a8,8,0,0,1-.14-1,2.07,2.07,0,0,1,2.88-2.15,2.36,2.36,0,0,1,1.18,1.63C105.09,115.88,107.61,125.28,119.76,143.48Z"/>
      <path class="cls-1" d="M246.09,230.16c-.63,2.35-4.37,1.48-6.27,1s-5-1.84-3.91-4,4-.33,4-.33a13,13,0,0,0,3.91.95C244.55,227.76,246.6,228.25,246.09,230.16Z"/>
      <path class="cls-1" d="M276.05,233.56c-1.38.18-12.9,1.8-23.57-.17,0,0-2.84,0-2.84-2.5,0,0,.22-2.36,4.14-1.36s16.31,1.41,21.63.16c0,0,2.19-.72,2.89,1S277.43,233.39,276.05,233.56Z"/>
      <path class="cls-1" d="M101.2,108.72c-2.74,0-2.31-3.84-2.17-5.84a2.27,2.27,0,0,1,2.17-2.1,2.11,2.11,0,0,1,1.76,2.79,4.47,4.47,0,0,0,.07,2.28C103.14,106.23,103.32,108.72,101.2,108.72Z"/>
      <path class="cls-1" d="M158.55,186.08c-1.51,2-4.56-.5-4.56-.5-6.44-4.67-24.83-23.05-36.73-38.23S101.1,117,100.53,114.44a8,8,0,0,1-.14-1,2.07,2.07,0,0,1,2.88-2.15,2.36,2.36,0,0,1,1.18,1.63c.64,2.92,3.16,12.32,15.31,30.52s35.9,37.84,36.79,38.66S160.06,184.11,158.55,186.08Z"/>
      <path class="cls-1" d="M294.38,184.17q-.69-2.13-1.5-4.2c0-.12-.09-.23-.14-.35-.28-.7-.56-1.4-.86-2.08s-.63-1.43-.95-2.14l-.33-.7c-.31-.64-.62-1.28-.94-1.91s-.67-1.31-1-2l-.26-.47c-.28-.52-.57-1-.86-1.54-.09-.17-.19-.34-.29-.5l-.48-.83q-1.35-2.28-2.82-4.48c-.42-.64-.85-1.28-1.3-1.91l-.22-.32c-.46-.66-.92-1.31-1.4-2l-.31-.42c-.38-.53-.77-1-1.16-1.56s-.62-.82-.94-1.22l-1.41-1.79c-.55-.67-1.09-1.34-1.65-2-.37-.46-.76-.91-1.14-1.36s-.73-.85-1.1-1.28c-.51-.59-1-1.18-1.55-1.76q-1-1.1-1.95-2.16c-26.32-28.75-57.39-50.78-94.09-64.38-12.64-4.68-25.74-8-39.4-7.6-18.87.61-28.18,10.23-26.48,27.06a43.18,43.18,0,0,0,2,8.71c5.75,17.83,16.84,32.35,29.42,45.7a243.23,243.23,0,0,0,78.8,55.73c1.18.52,2.35,1,3.54,1.53l2.28.94c1.95.79,3.9,1.53,5.87,2.24,1,.35,2,.7,3,1s2,.65,3,1,2,.61,3,.89,1.85.52,2.78.76c1.84.47,3.7.91,5.56,1.3l.11,0,.13,0,.14,0,.38.07.13,0,.71.14.33.06a102.69,102.69,0,0,0,17.61,1.84c1.83,0,3.66.12,5.48,0,13.26-1,22.16-7.12,23.12-17.78C297.8,197.87,296.48,190.63,294.38,184.17ZM247,182.45a11.09,11.09,0,0,1-1,.65,5.7,5.7,0,0,1-.54.3,12.23,12.23,0,0,1-1.15.55l-.62.24c-.42.16-.86.3-1.31.43l-.71.19c-.47.12-1,.22-1.48.31l-.78.13-.81.11-1.27.13q-.65.06-1.32.09l-.15,0A70.87,70.87,0,0,1,220.6,182c-23.73-8.6-43.49-22.66-57.57-43.88-2.77-4.18-4.52-9.23-5.9-14.11-.08-.3-.16-.59-.21-.89s-.07-.36-.1-.54a10.55,10.55,0,0,1-.12-1.56c0-.17,0-.33,0-.49a10,10,0,0,1,.16-1.35,3.12,3.12,0,0,1,.09-.44l.12-.42a2.58,2.58,0,0,1,.13-.42c0-.14.1-.27.16-.4s.11-.27.17-.4a2.4,2.4,0,0,1,.2-.39c.06-.13.14-.25.21-.38a3.17,3.17,0,0,1,.23-.36c.08-.12.16-.24.25-.35a3,3,0,0,1,.27-.35c.09-.11.19-.22.29-.32a1.79,1.79,0,0,1,.3-.32c.16-.16.33-.32.51-.47s.36-.29.55-.43.38-.27.59-.4l.63-.36.67-.32c.22-.1.46-.19.7-.28s.49-.17.74-.24l.52-.14.26-.06c.66-.15,1.32-.27,2-.38s1.35-.19,2-.25a35.2,35.2,0,0,1,4.11-.12l1.16.07q.66,0,1.32.12c.39,0,.78.1,1.17.16.65.1,1.31.22,1.95.34l1,.19,1.23.26c.19,0,.39.08.57.12,1.43.32,2.84.67,4.23,1.07l.16,0c.53.15,1.06.3,1.58.47.33.09.66.19,1,.3,1.75.55,3.48,1.16,5.17,1.83.5.2,1,.39,1.47.6s.88.36,1.32.55c.62.26,1.23.54,1.85.82l1.75.83,1.32.66c.51.25,1,.51,1.52.78,1,.51,1.92,1,2.87,1.58,1.53.87,3,1.78,4.52,2.73,1,.61,1.91,1.24,2.86,1.89h0c.94.64,1.88,1.3,2.81,2s1.62,1.2,2.43,1.81q3.61,2.76,7.08,5.77l1.18,1,1.17,1.07,1.53,1.45c1,1,2.09,2.06,3.1,3.12l1,1c.91,1,1.8,1.94,2.67,2.92.53.59,1.06,1.18,1.58,1.78l1.56,1.8c.52.6,1,1.21,1.54,1.81l2,2.43.29.36c.17.19.31.38.45.57s.38.49.55.74.47.66.69,1,.52.79.75,1.2c.14.22.28.45.4.68s.21.35.31.53.31.56.46.85c.38.72.75,1.44,1.09,2.18.57,1.17,1.08,2.36,1.57,3.55C251.92,173.82,251.21,179.29,247,182.45Z"/>
      <path class="cls-5" d="M247,182.45a11.09,11.09,0,0,1-1,.65,5.7,5.7,0,0,1-.54.3,12.23,12.23,0,0,1-1.15.55l-.62.24c-.42.16-.86.3-1.31.43l-.71.19c-.47.11-1,.22-1.48.31l-.78.13-.81.11-1.27.13-1.32.08h-.15A70.87,70.87,0,0,1,220.6,182c-23.73-8.6-43.49-22.66-57.57-43.88-2.77-4.18-4.52-9.23-5.9-14.11-.08-.3-.16-.59-.21-.89s-.07-.36-.1-.54a10.55,10.55,0,0,1-.12-1.56c0-.17,0-.33,0-.49a10,10,0,0,1,.16-1.35,3.12,3.12,0,0,1,.09-.44l.12-.42a2.58,2.58,0,0,1,.13-.42c0-.14.1-.27.16-.4s.11-.27.17-.4a2.4,2.4,0,0,1,.2-.39c.06-.13.14-.25.21-.38a3.17,3.17,0,0,1,.23-.36c.08-.12.16-.24.25-.35a3,3,0,0,1,.27-.35c.09-.11.19-.22.29-.32a1.79,1.79,0,0,1,.3-.32c.16-.16.33-.32.51-.47s.36-.29.55-.43.38-.27.59-.4l.63-.36.67-.32c.22-.1.46-.19.7-.28s.49-.17.74-.24l.52-.14.26-.06c.66-.15,1.32-.27,2-.38s1.35-.19,2-.25a35.2,35.2,0,0,1,4.11-.12l1.16.07q.66,0,1.32.12c.39,0,.78.1,1.17.16.65.1,1.31.22,1.95.34l1,.19,1.23.26c.19,0,.39.08.57.12,1.43.32,2.84.67,4.23,1.07l.16,0c.53.15,1.06.3,1.58.47.33.09.66.19,1,.3,1.75.55,3.48,1.16,5.17,1.83.5.2,1,.39,1.47.6s.88.36,1.32.55c.62.26,1.23.54,1.85.82l1.75.83,1.32.66c.51.25,1,.51,1.52.78,1,.51,1.92,1,2.87,1.58,1.53.87,3,1.78,4.52,2.73,1,.61,1.91,1.24,2.86,1.89h0c.94.64,1.88,1.3,2.81,2s1.62,1.2,2.43,1.81q3.61,2.76,7.08,5.77l1.18,1,1.17,1.07,1.53,1.45c1,1,2.09,2.06,3.1,3.12l1,1c.91,1,1.8,1.94,2.67,2.92.53.59,1.06,1.18,1.58,1.78l1.56,1.8c.52.6,1,1.21,1.54,1.81l2,2.43.29.36c.17.19.31.38.45.57s.37.49.55.74.47.66.69,1,.52.79.75,1.2c.14.22.28.45.4.68s.21.35.31.53.31.56.46.85c.38.72.75,1.44,1.09,2.18.57,1.17,1.08,2.36,1.57,3.55C251.92,173.82,251.21,179.29,247,182.45Z"/>
      <path d="M156.87,119.18a10,10,0,0,0-.16,1.35A6.73,6.73,0,0,1,156.87,119.18Z"/>
      <path d="M166.45,111.55c-.67.11-1.33.23-2,.38l-.26.06.26-.07C165.12,111.78,165.78,111.65,166.45,111.55Z"/>
      <path d="M226.1,137.19l-1.18-1q-3.46-3-7.08-5.77c2.41,1.83,4.77,3.76,7.08,5.76C225.32,136.49,225.71,136.84,226.1,137.19Z"/>
      <path d="M235.87,185.56A55.12,55.12,0,0,1,220.6,182,70.87,70.87,0,0,0,235.87,185.56Z"/><path d="M242.53,154.94l-.29-.36-2-2.43q1,1.22,2,2.43A4.39,4.39,0,0,1,242.53,154.94Z"/>
    </g>
  </g>
</svg>