<svg xmlns="http://www.w3.org/2000/svg" viewBox="0 0 363 363.93">
  <defs>
    <style>.cls-1{fill:#fff;}.cls-2,.cls-3{fill:#ff007a;}.cls-3{fill-rule:evenodd;}</style>
  </defs>
  <g id="Layer_2" data-name="Layer 2">
    <g id="US">
      <rect class="cls-1" width="363" height="363.93" />
      <path class="cls-2" d="M133.66,88.51c-2.58-.4-2.69-.45-1.48-.64,2.34-.36,7.84.13,11.64,1,8.85,2.11,16.91,7.51,25.51,17.12l2.29,2.55,3.27-.53c13.77-2.22,27.78-.46,39.5,5,3.23,1.5,8.31,4.47,9,5.23a14.12,14.12,0,0,1,.82,3.49c.87,5.78.44,10.21-1.33,13.53-1,1.8-1,2.37-.37,3.91a3.79,3.79,0,0,0,3.38,2.14c2.91,0,6-4.72,7.5-11.29l.58-2.61,1.14,1.3c6.27,7.12,11.19,16.83,12,23.75l.22,1.8-1-1.64a20.33,20.33,0,0,0-6-6.29c-4.21-2.79-8.66-3.74-20.44-4.36-10.64-.56-16.66-1.47-22.63-3.42-10.15-3.33-15.27-7.75-27.34-23.62-5.36-7-8.67-11-12-14.09C150.44,93.72,143.08,90,133.66,88.51Z"/>
      <path class="cls-2" d="M225.74,104.25c.26-4.73.9-7.84,2.19-10.69a11.42,11.42,0,0,1,1.06-2,7.31,7.31,0,0,1-.49,1.85c-.94,2.76-1.09,6.54-.45,10.93.82,5.58,1.28,6.38,7.16,12.41,2.76,2.82,6,6.39,7.13,7.92l2.11,2.78-2.11-2a90.34,90.34,0,0,0-9.85-7.85c-.88-.45-1-.45-1.55.09s-.61,1.25-.68,4.8c-.1,5.53-.86,9.08-2.67,12.63-1,1.92-1.14,1.51-.25-.66.66-1.61.73-2.33.73-7.68,0-10.75-1.29-13.34-8.76-17.77-1.89-1.12-5-2.74-6.92-3.59a28.13,28.13,0,0,1-3.39-1.66c.21-.21,7.5,1.92,10.43,3,4.36,1.68,5.08,1.9,5.61,1.7C225.39,108.33,225.56,107.29,225.74,104.25Z"/>
      <path class="cls-2" d="M138.68,122.64c-5.24-7.24-8.49-18.35-7.79-26.65l.22-2.57,1.19.22a29.77,29.77,0,0,1,7.93,3c5,3,7.12,7,9.31,17.24.64,3,1.48,6.39,1.87,7.54a51.22,51.22,0,0,0,4.89,9c1.38,2,.46,3-2.58,2.7C149.06,132.62,142.75,128.26,138.68,122.64Z"/>
      <path class="cls-2" d="M219.37,176.56c-24.53-9.9-33.17-18.49-33.17-33a22.78,22.78,0,0,1,.17-3.88,18.57,18.57,0,0,1,2.1,1.56c5,4,10.55,5.71,26,8,9.07,1.33,14.18,2.4,18.89,4,15,5,24.23,15.08,26.44,28.84a47.74,47.74,0,0,1-.78,15.44c-.82,3.12-3.32,8.75-4,9-.18.06-.36-.64-.41-1.61a20,20,0,0,0-7.23-14C242.39,186.56,235.7,183.15,219.37,176.56Z"/>
      <path class="cls-2" d="M202.15,180.67a45.44,45.44,0,0,0-1.18-5.2l-.63-1.87,1.16,1.31a21,21,0,0,1,4,7.21c.82,2.36.92,3.06.91,6.88s-.11,4.55-.87,6.67a21,21,0,0,1-5.18,8.25c-4.48,4.57-10.24,7.11-18.55,8.16-1.44.18-5.66.49-9.36.68-9.33.48-15.47,1.49-21,3.43a4.46,4.46,0,0,1-1.57.38c-.23-.22,3.53-2.47,6.64-4,4.37-2.11,8.73-3.26,18.49-4.89,4.82-.81,9.8-1.78,11.06-2.17C198,201.87,204.11,192.4,202.15,180.67Z"/>
      <path class="cls-2" d="M213.39,200.69c-3.25-7-4-13.8-2.22-20.13.19-.67.5-1.22.69-1.22a6.48,6.48,0,0,1,1.7.92c1.51,1,4.52,2.72,12.54,7.11,10,5.47,15.72,9.71,19.61,14.55a31.65,31.65,0,0,1,6.51,15,50.93,50.93,0,0,1-.61,14.72c-2.7,10.6-9,18.91-17.88,23.77a25.08,25.08,0,0,1-2.6,1.3,9.37,9.37,0,0,1,1.05-2.7,24.32,24.32,0,0,0,1.08-19.23c-1.39-4.17-4.23-9.26-9.95-17.86C216.66,206.88,215,204.22,213.39,200.69Z"/>
      <path class="cls-2" d="M121.27,238.59c9.1-7.71,20.42-13.18,30.74-14.86a47.87,47.87,0,0,1,16,.62c6.6,1.69,12.5,5.49,15.57,10s4.29,8.27,5.63,16.83c.53,3.38,1.1,6.77,1.28,7.54,1,4.43,3,8,5.39,9.76,3.85,2.83,10.49,3,17,.45a8.38,8.38,0,0,1,2.14-.66c.24.23-3,2.44-5.37,3.6a18.13,18.13,0,0,1-8.9,2.17c-6,0-11-3.05-15.09-9.27a71.72,71.72,0,0,1-4.07-8.15c-4.38-10-6.54-13.05-11.62-16.38-4.42-2.9-10.12-3.42-14.41-1.31a9.37,9.37,0,0,0-3.17,14.55,12.49,12.49,0,0,0,7,3.69,7.51,7.51,0,0,0,8.51-7.54c0-3-1.16-4.73-4.06-6-4-1.79-8.22.3-8.2,4a3.34,3.34,0,0,0,2.29,3.31c1,.46,1,.5.21.33-3.63-.76-4.48-5.15-1.56-8.07,3.51-3.5,10.77-2,13.26,2.82a12.36,12.36,0,0,1,.26,8.42c-2,5.41-8,8.25-14,6.7-4.11-1.05-5.79-2.19-10.75-7.31-8.62-8.9-12-10.63-24.39-12.57l-2.38-.38Z"/>
      <path class="cls-3" d="M56.26,39.17c28.79,35,73.17,89.56,75.38,92.62,1.82,2.52,1.13,4.79-2,6.56a18.77,18.77,0,0,1-7.08,2,9,9,0,0,1-5.94-2.55c-1.17-1.11-5.9-8.18-16.8-25.14-8.34-13-15.32-23.74-15.51-23.92-.44-.42-.43-.4,14.66,26.67,9.48,17,12.68,23,12.68,23.82,0,1.64-.44,2.5-2.46,4.75-3.35,3.75-4.85,8-5.93,16.69-1.22,9.78-4.63,16.68-14.08,28.51-5.54,6.92-6.44,8.19-7.84,11a20.31,20.31,0,0,0-2.44,9.91,30.85,30.85,0,0,0,1.63,12.2c1.25,3.93,2.55,6.52,5.89,11.71,2.88,4.47,4.54,7.79,4.54,9.1,0,1,.2,1,4.66,0,10.69-2.42,19.36-6.67,24.24-11.89,3-3.22,3.73-5,3.76-9.43,0-2.89-.09-3.5-.87-5.16-1.27-2.71-3.58-5-8.68-8.45-6.67-4.58-9.52-8.26-10.31-13.32-.64-4.16.11-7.09,3.8-14.85,3.82-8,4.77-11.45,5.41-19.55.41-5.23,1-7.29,2.48-8.94s3-2.31,6.84-2.84c6.31-.87,10.32-2.5,13.62-5.55a11.86,11.86,0,0,0,4.25-9l.14-2.9-1.6-1.87C132.92,122.52,52.38,33.84,52,33.84,52,33.84,53.86,36.24,56.26,39.17Zm38,176.2a5.16,5.16,0,0,0-1.58-6.78c-2.07-1.38-5.29-.73-5.29,1.07,0,.55.3,1,1,1.3,1.14.59,1.23,1.26.32,2.62s-.84,2.59.21,3.42C90.57,218.33,93,217.6,94.23,215.37Z"/>
      <path class="cls-3" d="M144.29,150.18a11.14,11.14,0,0,0-6.73,7.36c-.54,2-.23,5.54.58,6.63,1.31,1.76,2.59,2.22,6,2.2,6.74-.05,12.6-3,13.29-6.57.55-3-2-7.09-5.57-8.9A13.16,13.16,0,0,0,144.29,150.18Zm7.88,6.18c1-1.48.59-3.08-1.18-4.16-3.37-2.07-8.46-.36-8.46,2.83,0,1.59,2.65,3.32,5.09,3.32A6.55,6.55,0,0,0,152.17,156.36Z"/>
    </g>
  </g>
</svg>