<svg width="200" height="25" viewBox="0 0 200 25" fill="none" xmlns="http://www.w3.org/2000/svg">
<path fill-rule="evenodd" clip-rule="evenodd" d="M15.716 0.222168H0.117188V5.72217H8.60225C8.45011 6.31367 8.37298 6.9219 8.37268 7.53259L8.32906 21.4781V24.6185H13.8388V21.4919L13.8825 7.55015C13.8839 7.06485 14.078 6.59991 14.4223 6.25725C14.7665 5.91459 15.2329 5.72217 15.7191 5.72217H22.1563V0.222168H15.716ZM25.8502 17.2569V7.5555C25.8524 5.61126 26.6271 3.74729 28.0043 2.37251C29.3816 0.997723 31.2488 0.224392 33.1965 0.222168H47.8893V5.72217H33.1965C32.7094 5.72217 32.2423 5.91532 31.8979 6.25914C31.5534 6.60296 31.3599 7.06927 31.3599 7.5555V9.69439H47.8893V15.1944H31.3599V17.2569C31.3599 17.7431 31.5534 18.2094 31.8979 18.5533C32.2423 18.8971 32.7094 19.0902 33.1965 19.0902H47.8893V24.5902H33.1965C31.2488 24.588 29.3816 23.8147 28.0043 22.4399C26.6271 21.0651 25.8524 19.2011 25.8502 17.2569ZM57.0723 0.222168V17.2569C57.0723 17.7431 57.2658 18.2094 57.6102 18.5533C57.9546 18.8971 58.4218 19.0902 58.9089 19.0902H69.9284V24.5902H58.9089C56.9612 24.588 55.0939 23.8147 53.7166 22.4399C52.3394 21.0651 51.5647 19.2011 51.5625 17.2569V0.222168H57.0723ZM79.1114 7.5555C79.1114 7.06927 79.3049 6.60296 79.6493 6.25914C79.9937 5.91532 80.4609 5.72217 80.948 5.72217H95.6407V0.222168H80.948C79.0003 0.224392 77.133 0.997723 75.7558 2.37251C74.3785 3.74729 73.6038 5.61126 73.6016 7.5555V17.2569C73.6038 19.2011 74.3785 21.0651 75.7558 22.4399C77.133 23.8147 79.0003 24.588 80.948 24.5902H95.6407V19.0902H80.948C80.4609 19.0902 79.9937 18.8971 79.6493 18.5533C79.3049 18.2094 79.1114 17.7431 79.1114 17.2569V15.1944L95.6346 15.2303L95.6469 9.73029L79.1114 9.69439V7.5555ZM99.3139 0.222168H111.92C117.124 0.222168 121.356 4.17988 121.356 9.04508C121.356 13.9103 117.124 17.868 111.92 17.868H106.66C106.173 17.868 105.706 18.0612 105.362 18.405C105.017 18.7488 104.824 19.2151 104.824 19.7013V24.6666H99.3139V0.222168ZM106.663 12.368H111.92C114.082 12.368 115.846 10.8777 115.846 9.04508C115.846 7.21252 114.085 5.72217 111.92 5.72217H104.827V12.5972C105.427 12.4434 106.044 12.3664 106.663 12.368ZM174.357 8.90147C174.357 4.118 170.392 0.222168 165.519 0.222168H152.269V24.6666H157.779V5.72217H165.519C167.355 5.72217 168.847 7.14835 168.847 8.90147C168.847 10.6546 167.359 12.0762 165.528 12.0808L158.595 12.0265L161.437 17.5227C162.55 19.6748 164.234 21.4797 166.306 22.7398C168.378 23.9998 170.758 24.6665 173.184 24.6666H174.296V19.1666H173.184C171.291 19.1705 169.463 18.4766 168.051 17.2179C171.694 16.1462 174.357 12.8263 174.357 8.90147ZM177.961 0.222168H194.97H200V5.72217H193.563C193.076 5.72217 192.61 5.91459 192.266 6.25725C191.921 6.59991 191.727 7.06485 191.726 7.55015L191.682 21.4919V24.6185H186.173V21.4781L186.216 7.53259C186.216 6.9219 186.294 6.31367 186.446 5.72217H177.961V0.222168ZM136.464 0.222168H137.158C143.465 0.222168 148.596 5.3112 148.596 11.5659V13.2465C148.596 19.5012 143.465 24.5902 137.158 24.5902H136.464C130.153 24.5902 125.026 19.5012 125.026 13.2465V11.5659C125.026 5.3112 130.157 0.222168 136.464 0.222168ZM137.158 19.0902C140.407 19.0902 143.05 16.4686 143.05 13.2465V11.5659C143.05 8.34383 140.407 5.72217 137.158 5.72217H136.464C133.215 5.72217 130.572 8.34383 130.572 11.5659V13.2465C130.572 16.4686 133.215 19.0902 136.464 19.0902H137.158Z" fill="white"/>
</svg>
