<svg width="266" height="55" viewBox="0 0 266 55" fill="none" xmlns="http://www.w3.org/2000/svg">
<path fill-rule="evenodd" clip-rule="evenodd" d="M81.716 17.7222H66.1172V23.2222H74.6023C74.4501 23.8137 74.373 24.4219 74.3727 25.0326L74.3291 38.9781V42.1185H79.8388V38.9919L79.8825 25.0502C79.8839 24.5649 80.078 24.0999 80.4223 23.7572C80.7665 23.4146 81.2329 23.2222 81.7191 23.2222H88.1563V17.7222H81.716ZM91.8502 34.7569V25.0555C91.8524 23.1113 92.6271 21.2473 94.0043 19.8725C95.3816 18.4977 97.2488 17.7244 99.1965 17.7222H113.889V23.2222H99.1965C98.7094 23.2222 98.2423 23.4153 97.8979 23.7591C97.5534 24.103 97.3599 24.5693 97.3599 25.0555V27.1944H113.889V32.6944H97.3599V34.7569C97.3599 35.2431 97.5534 35.7094 97.8979 36.0533C98.2423 36.3971 98.7094 36.5902 99.1965 36.5902H113.889V42.0902H99.1965C97.2488 42.088 95.3816 41.3147 94.0043 39.9399C92.6271 38.5651 91.8524 36.7011 91.8502 34.7569ZM123.072 17.7222V34.7569C123.072 35.2431 123.266 35.7094 123.61 36.0533C123.955 36.3971 124.422 36.5902 124.909 36.5902H135.928V42.0902H124.909C122.961 42.088 121.094 41.3147 119.717 39.9399C118.339 38.5651 117.565 36.7011 117.562 34.7569V17.7222H123.072ZM145.111 25.0555C145.111 24.5693 145.305 24.103 145.649 23.7591C145.994 23.4153 146.461 23.2222 146.948 23.2222H161.641V17.7222H146.948C145 17.7244 143.133 18.4977 141.756 19.8725C140.379 21.2473 139.604 23.1113 139.602 25.0555V34.7569C139.604 36.7011 140.379 38.5651 141.756 39.9399C143.133 41.3147 145 42.088 146.948 42.0902H161.641V36.5902H146.948C146.461 36.5902 145.994 36.3971 145.649 36.0533C145.305 35.7094 145.111 35.2431 145.111 34.7569V32.6944L161.635 32.7303L161.647 27.2303L145.111 27.1944V25.0555ZM165.314 17.7222H177.92C183.124 17.7222 187.356 21.6799 187.356 26.5451C187.356 31.4103 183.124 35.368 177.92 35.368H172.66C172.173 35.368 171.706 35.5612 171.362 35.905C171.017 36.2488 170.824 36.7151 170.824 37.2013V42.1666H165.314V17.7222ZM172.663 29.868H177.92C180.082 29.868 181.846 28.3777 181.846 26.5451C181.846 24.7125 180.085 23.2222 177.92 23.2222H170.827V30.0972C171.427 29.9434 172.044 29.8664 172.663 29.868ZM240.357 26.4015C240.357 21.618 236.392 17.7222 231.519 17.7222H218.269V42.1666H223.779V23.2222H231.519C233.355 23.2222 234.847 24.6483 234.847 26.4015C234.847 28.1546 233.359 29.5762 231.528 29.5808L224.595 29.5265L227.437 35.0227C228.55 37.1748 230.234 38.9797 232.306 40.2398C234.378 41.4998 236.758 42.1665 239.184 42.1666H240.296V36.6666H239.184C237.291 36.6705 235.463 35.9766 234.051 34.7179C237.694 33.6462 240.357 30.3263 240.357 26.4015ZM243.961 17.7222H260.97H266V23.2222H259.563C259.076 23.2222 258.61 23.4146 258.266 23.7572C257.921 24.0999 257.727 24.5649 257.726 25.0502L257.682 38.9919V42.1185H252.173V38.9781L252.216 25.0326C252.216 24.4219 252.294 23.8137 252.446 23.2222H243.961V17.7222ZM202.464 17.7222H203.158C209.465 17.7222 214.596 22.8112 214.596 29.0659V30.7465C214.596 37.0012 209.465 42.0902 203.158 42.0902H202.464C196.153 42.0902 191.026 37.0012 191.026 30.7465V29.0659C191.026 22.8112 196.157 17.7222 202.464 17.7222ZM203.158 36.5902C206.407 36.5902 209.05 33.9686 209.05 30.7465V29.0659C209.05 25.8438 206.407 23.2222 203.158 23.2222H202.464C199.215 23.2222 196.572 25.8438 196.572 29.0659V30.7465C196.572 33.9686 199.215 36.5902 202.464 36.5902H203.158Z" fill="white"/>
<path fill-rule="evenodd" clip-rule="evenodd" d="M51.2317 22.1592C48.6915 20.6952 44.35 23.1477 40.2231 27.9316C41.8911 26.6366 43.4403 26.1367 44.4834 26.7378C46.5916 27.9528 45.834 33.2028 42.791 38.4641C39.7479 43.7254 35.572 47.0054 33.4639 45.7904C32.4208 45.1892 32.0799 43.6 32.3694 41.5105C30.2824 47.4701 30.3255 52.4495 32.8657 53.9135C36.3795 55.9385 43.3392 50.4718 48.4109 41.703C53.4825 32.9342 54.7454 24.1843 51.2317 22.1592Z" fill="url(#paint0_linear_2394_19156)"/>
<path fill-rule="evenodd" clip-rule="evenodd" d="M12.8513 42.3789C9.33754 40.3538 10.6004 31.6039 15.6721 22.8351C20.7438 14.0663 27.7035 8.59955 31.2172 10.6246C32.9635 11.631 33.5296 14.2991 33.0346 17.8041C35.4533 9.85172 35.0779 3.32331 31.5058 1.26463C26.2351 -1.77298 16.0013 6.07153 8.64725 18.7865C1.29323 31.5014 -0.395471 44.2707 4.87517 47.3083C8.44725 49.367 14.2988 46.4273 19.9887 40.3602C17.1954 42.5406 14.5976 43.3853 12.8513 42.3789Z" fill="url(#paint1_linear_2394_19156)"/>
<path d="M37.8593 32.4467L28.3161 26.9467C24.8023 24.9217 23.5985 20.4367 25.6271 16.9292L35.1704 22.4292C38.6841 24.4543 39.888 28.9392 37.8593 32.4467Z" fill="#00C6D2"/>
<path d="M25.0691 39.894L15.5259 34.394C17.5545 30.8865 22.0475 29.6848 25.5612 31.7099L35.1044 37.2099C33.0758 40.7174 28.5829 41.9191 25.0691 39.894Z" fill="#00C6D2"/>
<defs>
<linearGradient id="paint0_linear_2394_19156" x1="32.791" y1="54.0874" x2="49.8749" y2="23.1944" gradientUnits="userSpaceOnUse">
<stop stop-color="#009EFD"/>
<stop offset="1" stop-color="#12EFCF"/>
</linearGradient>
<linearGradient id="paint1_linear_2394_19156" x1="34.9718" y1="2.1049" x2="8.29844" y2="49.5447" gradientUnits="userSpaceOnUse">
<stop stop-color="#009EFD"/>
<stop offset="1" stop-color="#12EFCF"/>
</linearGradient>
</defs>
</svg>
