<svg width="64" height="64" viewBox="0 0 64 64" fill="none" xmlns="http://www.w3.org/2000/svg">
<path d="M12.0957 21.501C12.8492 20.5586 13.3605 19.2931 13.2257 18C12.1227 18.0548 10.7767 18.7277 9.99739 19.6709C9.29768 20.4786 8.67839 21.797 8.83984 23.0359C10.078 23.1433 11.3151 22.417 12.0957 21.501Z" fill="white"/>
<path d="M13.2116 23.2777C11.4135 23.1706 9.88463 24.2982 9.02592 24.2982C8.16675 24.2982 6.85179 23.3317 5.42955 23.3577C3.57842 23.3849 1.86079 24.4315 0.921425 26.0962C-1.0107 29.4263 0.411539 34.366 2.29042 37.0782C3.20285 38.4201 4.30249 39.8975 5.75142 39.8444C7.12042 39.7907 7.65701 38.958 9.32109 38.958C10.9839 38.958 11.4673 39.8444 12.9165 39.8176C14.4193 39.7907 15.3588 38.4751 16.2712 37.132C17.318 35.6024 17.7465 34.1254 17.7734 34.0443C17.7465 34.0175 14.8755 32.9161 14.8489 29.6137C14.8218 26.8485 17.1029 25.5332 17.2103 25.4517C15.9221 23.5465 13.9094 23.3317 13.2116 23.2777Z" fill="white"/>
<path d="M28.8684 19.5356C32.7767 19.5356 35.4981 22.2296 35.4981 26.1519C35.4981 30.0881 32.7207 32.7961 28.7704 32.7961H24.4433V39.6775H21.3169V19.5356H28.8684V19.5356ZM24.4433 30.1718H28.0306C30.7525 30.1718 32.3017 28.7064 32.3017 26.1659C32.3017 23.6256 30.7525 22.1739 28.0446 22.1739H24.4433V30.1718Z" fill="white"/>
<path d="M36.3149 35.5039C36.3149 32.9354 38.2831 31.3582 41.7729 31.1628L45.7926 30.9256V29.7951C45.7926 28.1619 44.6898 27.1848 42.8477 27.1848C41.1025 27.1848 40.0137 28.0221 39.7488 29.3344H36.9013C37.0688 26.6821 39.3298 24.728 42.9592 24.728C46.5185 24.728 48.7935 26.6124 48.7935 29.5576V39.6774H45.9041V37.2626H45.8346C44.9833 38.8958 43.1266 39.9286 41.2005 39.9286C38.3251 39.9286 36.3149 38.1419 36.3149 35.5039ZM45.7926 34.178V33.0194L42.1773 33.2426C40.3766 33.3684 39.3578 34.164 39.3578 35.4202C39.3578 36.7042 40.4186 37.5418 42.0378 37.5418C44.1454 37.5418 45.7926 36.0901 45.7926 34.178Z" fill="white"/>
<path d="M51.5214 45.0793V42.6365C51.7444 42.6922 52.2468 42.6922 52.4982 42.6922C53.8939 42.6922 54.6478 42.1061 55.1082 40.5986C55.1082 40.5706 55.3737 39.7053 55.3737 39.6913L50.0697 24.9932H53.3355L57.0488 36.9416H57.1043L60.8176 24.9932H64L58.5 40.4449C57.2443 44.0045 55.7926 45.149 52.7497 45.149C52.4982 45.149 51.7444 45.121 51.5214 45.0793Z" fill="white"/>
</svg>
