<svg width="64" height="64" viewBox="0 0 64 64" fill="none" xmlns="http://www.w3.org/2000/svg">
<path d="M15.135 20.0015H20.8201C22.9137 19.9675 25.2113 20.5123 25.2113 23.0484C25.2113 24.1377 24.5644 25.0227 23.6114 25.4993C24.9047 25.8737 25.7053 26.9973 25.7053 28.3759C25.7053 31.2696 23.5773 32.1545 20.9731 32.1545H15.135V20.0015ZM18.3007 24.7845H20.7521C21.2965 24.7845 22.0454 24.4951 22.0454 23.6271C22.0454 22.7419 21.4155 22.4528 20.7521 22.4528H18.3007V24.7845ZM18.3007 29.6184H20.837C21.8411 29.6184 22.539 29.2611 22.539 28.2568C22.539 27.1844 21.7902 26.827 20.837 26.827H18.3007V29.6184Z" fill="white"/>
<path d="M30.7252 20.0015H33.9418L38.4865 32.1545H35.1844L34.4355 29.9759H30.1973L29.4313 32.1545H26.1803L30.7252 20.0015ZM30.9291 27.6272H33.6864L32.3417 23.372H32.3079L30.9291 27.6272Z" fill="white"/>
<path d="M39.3704 20.0015H42.6218L46.843 27.4908H46.8767V20.0015H49.8559V32.1545H46.6044L42.3833 24.5804H42.3495V32.1545H39.3704V20.0015Z" fill="white"/>
<path d="M52.0164 20.0015H55.1823V24.6654L59.1821 20.0015H63.1141L58.6204 24.7845L63.6759 32.1546H59.7442L56.476 27.0486L55.1825 28.4103V32.1548H52.0165V20.0016L52.0164 20.0015Z" fill="white"/>
<path d="M7.17392 36.564H4.67688V43.0576H2.49711V36.564H0.000366211V34.6885H7.17392V36.564Z" fill="white"/>
<path d="M8.13501 34.6885H12.4016C13.8785 34.6885 15.3319 35.3568 15.3319 37.0443C15.3319 37.9469 14.8986 38.8026 14.0193 39.1428V39.1659C14.91 39.3772 15.1676 40.3731 15.2382 41.1704C15.2616 41.5219 15.2971 42.7526 15.59 43.0577H13.4328C13.2454 42.7765 13.2102 41.9559 13.1868 41.7216C13.1279 40.8775 12.9877 40.0103 11.9679 40.0103H10.3152V43.0577H8.13501V34.6885ZM10.3157 38.3219H12.1437C12.8002 38.3219 13.1518 37.9704 13.1518 37.3376C13.1518 36.7166 12.6595 36.4347 12.0501 36.4347H10.3155C10.3157 36.4347 10.3157 38.3219 10.3157 38.3219Z" fill="white"/>
<path d="M18.8717 34.6885H21.0871L24.2166 43.0576H21.9423L21.4271 41.557H18.5083L17.981 43.0576H15.7419L18.8717 34.6885ZM19.0125 39.9396H20.9115L19.9854 37.0089H19.9619L19.0125 39.9396Z" fill="white"/>
<path d="M24.8264 34.6885H27.0651L29.9722 39.8459H29.9959V34.6885H32.0472V43.0576H29.8085L26.9011 37.8417H26.8777V43.0576H24.8264V34.6885Z" fill="white"/>
<path d="M35.2352 40.2442C35.2822 41.2288 35.8917 41.545 36.8178 41.545C37.474 41.545 38.1539 41.3108 38.1539 40.6896C38.1539 39.9512 36.9582 39.8106 35.7512 39.4703C34.5555 39.1304 33.3012 38.5915 33.3012 37.0557C33.3012 35.2273 35.1416 34.5122 36.7124 34.5122C38.3767 34.5122 40.0527 35.3207 40.0647 37.208H37.8845C37.9196 36.4461 37.2045 36.2 36.5364 36.2C36.0676 36.2 35.4814 36.364 35.4814 36.9151C35.4814 37.5596 36.6886 37.6768 37.9076 38.0169C39.1153 38.3568 40.3341 38.9193 40.3341 40.4313C40.3341 42.5531 38.5289 43.2331 36.6888 43.2331C34.7665 43.2331 33.0672 42.3889 33.0549 40.2441H35.2352V40.2442Z" fill="white"/>
<path d="M41.3538 34.6885H47.5195V36.4349H43.5343V38.1463H46.9803V39.8338H43.5343V43.0576H41.3538V34.6885Z" fill="white"/>
<path d="M48.5161 34.6885H55.1856V36.4349H50.6962V37.9002H54.7987V39.588H50.6962V41.1822H55.3029V43.0574H48.5163L48.5161 34.6885Z" fill="white"/>
<path d="M56.5454 34.6885H60.812C62.2889 34.6885 63.742 35.3568 63.742 37.0443C63.742 37.9469 63.3086 38.8026 62.4294 39.1428V39.1659C63.3201 39.3772 63.5782 40.3731 63.6483 41.1704C63.672 41.5219 63.7069 42.7526 64.0001 43.0577H61.8432C61.6553 42.7765 61.6206 41.9559 61.597 41.7216C61.5384 40.8775 61.398 40.0103 60.3782 40.0103H58.7256V43.0577H56.5454V34.6885ZM58.7256 38.3219H60.5544C61.2106 38.3219 61.5619 37.9704 61.5619 37.3376C61.5619 36.7166 61.0701 36.4347 60.4602 36.4347H58.7256V38.3219Z" fill="white"/>
<path d="M13.1958 20H0V22.6424H13.1958V20Z" fill="#31CB9E"/>
<path d="M13.1958 29.5122H0V32.1545H13.1958V29.5122Z" fill="#31CB9E"/>
<path d="M13.1958 24.7554H0V27.3978H13.1958V24.7554Z" fill="#31CB9E"/>
</svg>
