<svg width="64" height="64" viewBox="0 0 64 64" fill="none" xmlns="http://www.w3.org/2000/svg">
<path d="M29.8708 31.2128V38.6162H27.5212V20.334H33.7499C35.3285 20.334 36.6746 20.8602 37.7759 21.9126C38.9017 22.965 39.4646 24.2499 39.4646 25.7673C39.4646 27.3214 38.9017 28.6063 37.7759 29.6464C36.6868 30.6866 35.3407 31.2005 33.7499 31.2005H29.8708V31.2128ZM29.8708 22.5856V28.9611H33.7989C34.7289 28.9611 35.5121 28.643 36.1239 28.0189C36.748 27.3948 37.0662 26.6361 37.0662 25.7795C37.0662 24.9351 36.748 24.1887 36.1239 23.5646C35.5121 22.916 34.7411 22.5978 33.7989 22.5978H29.8708V22.5856Z" fill="white"/>
<path d="M45.6077 25.6938C47.3453 25.6938 48.7159 26.1589 49.7193 27.0889C50.7228 28.0189 51.2245 29.2916 51.2245 30.9069V38.6162H48.9851V36.8786H48.8872C47.9205 38.3103 46.6233 39.02 45.008 39.02C43.6252 39.02 42.475 38.6162 41.5449 37.7963C40.6149 36.9764 40.1499 35.9608 40.1499 34.7371C40.1499 33.4399 40.6394 32.412 41.6184 31.6533C42.5973 30.8824 43.9067 30.503 45.5342 30.503C46.9293 30.503 48.0795 30.76 48.9729 31.274V30.7355C48.9729 29.9156 48.6547 29.2304 48.0061 28.6552C47.3576 28.0801 46.5989 27.7986 45.73 27.7986C44.4207 27.7986 43.3805 28.3493 42.6218 29.4629L40.5537 28.1657C41.6918 26.5137 43.3805 25.6938 45.6077 25.6938ZM42.5728 34.7738C42.5728 35.3856 42.8298 35.8996 43.356 36.3034C43.87 36.7072 44.4818 36.9153 45.1794 36.9153C46.1706 36.9153 47.0516 36.5481 47.8226 35.8139C48.5935 35.0797 48.9851 34.2231 48.9851 33.2319C48.2509 32.6568 47.2352 32.3631 45.9258 32.3631C44.9713 32.3631 44.1759 32.5956 43.5396 33.0483C42.891 33.5256 42.5728 34.1007 42.5728 34.7738Z" fill="white"/>
<path d="M64 26.0977L56.1682 44.1107H53.7453L56.6577 37.8086L51.4937 26.0977H54.0512L57.7713 35.0797H57.8202L61.4424 26.0977H64Z" fill="white"/>
<path d="M20.5253 29.7195C20.5253 28.9535 20.4568 28.2205 20.3295 27.5156H10.4811V31.5539L16.153 31.5551C15.9229 32.8987 15.1826 34.0441 14.0482 34.8077V37.4277H17.4244C19.3958 35.6031 20.5253 32.9061 20.5253 29.7195Z" fill="#4285F4"/>
<path d="M14.0494 34.8077C13.1095 35.4416 11.8993 35.8124 10.4835 35.8124C7.74847 35.8124 5.42832 33.9695 4.59742 31.4854H1.11475V34.1873C2.84018 37.6112 6.38649 39.9608 10.4835 39.9608C13.3151 39.9608 15.694 39.0295 17.4256 37.4265L14.0494 34.8077Z" fill="#34A853"/>
<path d="M4.26952 29.481C4.26952 28.7835 4.38577 28.1093 4.59747 27.4754V24.7734H1.1148C0.401375 26.1893 0 27.7874 0 29.481C0 31.1747 0.402599 32.7728 1.1148 34.1887L4.59747 31.4867C4.38577 30.8528 4.26952 30.1786 4.26952 29.481Z" fill="#FABB05"/>
<path d="M10.4835 23.1484C12.029 23.1484 13.413 23.6807 14.5058 24.7208L17.4978 21.7313C15.6806 20.0389 13.3115 19 10.4835 19C6.38771 19 2.84018 21.3495 1.11475 24.7735L4.59742 27.4754C5.42832 24.9913 7.74847 23.1484 10.4835 23.1484Z" fill="#E94235"/>
</svg>
