<svg width="64" height="64" viewBox="0 0 64 64" fill="none" xmlns="http://www.w3.org/2000/svg">
<path d="M40.6533 16.2285H23.3474V47.3277H40.6533V16.2285Z" fill="#FF5F00"/>
<path d="M24.4464 31.7782C24.4437 28.7831 25.1224 25.8266 26.4311 23.1326C27.7399 20.4386 29.6444 18.0777 32.0005 16.2286C29.0828 13.9352 25.5787 12.509 21.8888 12.113C18.1989 11.7169 14.472 12.367 11.1341 13.989C7.79616 15.6109 4.98191 18.1393 3.01301 21.285C1.04411 24.4308 0 28.067 0 31.7782C0 35.4893 1.04411 39.1255 3.01301 42.2713C4.98191 45.417 7.79616 47.9454 11.1341 49.5674C14.472 51.1893 18.1989 51.8394 21.8888 51.4434C25.5787 51.0473 29.0828 49.6211 32.0005 47.3277C29.6444 45.4786 27.7399 43.1176 26.4312 40.4237C25.1224 37.7297 24.4437 34.7732 24.4464 31.7782V31.7782Z" fill="#EB001B"/>
<path d="M64 31.7781C64.0001 35.4892 62.9561 39.1254 60.9873 42.2712C59.0185 45.417 56.2044 47.9453 52.8665 49.5673C49.5287 51.1893 45.8018 51.8394 42.112 51.4433C38.4221 51.0473 34.9181 49.6211 32.0005 47.3277C34.3545 45.4767 36.2575 43.1154 37.5661 40.4218C38.8746 37.7283 39.5545 34.7727 39.5545 31.7781C39.5545 28.7835 38.8746 25.828 37.5661 23.1345C36.2575 20.4409 34.3545 18.0796 32.0005 16.2286C34.9181 13.9352 38.4221 12.509 42.112 12.113C45.8018 11.7169 49.5287 12.367 52.8665 13.989C56.2044 15.611 59.0185 18.1393 60.9873 21.2851C62.9561 24.4309 64.0001 28.0671 64 31.7781V31.7781Z" fill="#F79E1B"/>
<path d="M62.113 44.0338V43.3971H62.3698V43.2674H61.7159V43.3971H61.9728V44.0338H62.113ZM63.3824 44.0338V43.2661H63.182L62.9515 43.7941L62.7209 43.2661H62.5204V44.0338H62.6619V43.4547L62.8781 43.954H63.0248L63.241 43.4535V44.0338H63.3824Z" fill="#F79E1B"/>
</svg>
