<svg width="64" height="64" viewBox="0 0 64 64" fill="none" xmlns="http://www.w3.org/2000/svg">
<path d="M24.3 22.3633L15.92 42.3533H10.4533L6.33 26.4033C6.08 25.42 5.86333 25.06 5.1 24.6467C3.85667 23.9733 1.80333 23.34 0 22.9467L0.123334 22.3667H8.92333C10.0433 22.3667 11.0533 23.1133 11.3067 24.4067L13.4833 35.9733L18.8667 22.3667L24.3 22.3633ZM45.7167 35.83C45.74 30.5533 38.42 30.2633 38.47 27.9067C38.4867 27.19 39.17 26.4267 40.6633 26.2333C41.4033 26.1367 43.4467 26.0633 45.76 27.1267L46.6667 22.8867C45.4233 22.4367 43.82 22 41.83 22C36.72 22 33.12 24.7167 33.09 28.6067C33.0567 31.4833 35.6567 33.09 37.6167 34.0467C39.6333 35.0267 40.31 35.6567 40.3 36.53C40.2867 37.87 38.6933 38.4633 37.2033 38.4867C34.6033 38.5267 33.0967 37.7833 31.8933 37.2233L30.9567 41.6033C32.1633 42.1567 34.3967 42.64 36.7067 42.6667C42.1467 42.67 45.7 39.9833 45.7167 35.83ZM59.2167 42.3567H64L59.8233 22.3633H55.41C54.4167 22.3633 53.58 22.94 53.21 23.83L45.45 42.3533H50.88L51.9567 39.3667H58.5933L59.2167 42.3567ZM53.4467 35.2733L56.17 27.7667L57.7367 35.2733H53.4467ZM31.6867 22.3633L27.41 42.3533H22.24L26.5167 22.3633H31.6867Z" fill="white"/>
</svg>
