<svg width="111" height="51" viewBox="0 0 111 51" fill="none" xmlns="http://www.w3.org/2000/svg">
<path d="M11.7939 32.9928L25.2372 40.7026C25.3447 40.7634 25.4662 40.7952 25.5897 40.7948C25.7132 40.7945 25.8345 40.7621 25.9417 40.7007C26.0489 40.6393 26.1383 40.5511 26.2011 40.4447C26.2639 40.3384 26.298 40.2175 26.3 40.094L26.3023 25.8963C26.301 25.7726 26.2673 25.6514 26.2046 25.5446C26.142 25.4379 26.0526 25.3494 25.9452 25.2879C25.8378 25.2263 25.7162 25.1939 25.5925 25.1938C25.4687 25.1938 25.3471 25.226 25.2397 25.2874L11.7939 32.9928Z" fill="#31CB9E"/>
<path d="M24.4563 21.9648L15.5322 15.1431C15.437 15.0716 15.3254 15.025 15.2076 15.0076C15.0898 14.9903 14.9696 15.0026 14.8578 15.0437C14.746 15.0847 14.6462 15.153 14.5676 15.2424C14.4889 15.3318 14.4339 15.4395 14.4075 15.5556L11.1445 30.7433L24.3839 23.1411C24.4863 23.0838 24.5726 23.0018 24.6351 22.9025C24.6975 22.8032 24.734 22.6898 24.7412 22.5727C24.7484 22.4556 24.7261 22.3386 24.6763 22.2324C24.6265 22.1262 24.5509 22.0342 24.4563 21.9648Z" fill="#31CB9E"/>
<path d="M15.5262 50.8536L24.4731 44.0245C24.5656 43.9538 24.6393 43.8614 24.6877 43.7555C24.736 43.6496 24.7576 43.5334 24.7505 43.4172C24.7434 43.3009 24.7078 43.1883 24.6468 43.089C24.5859 42.9898 24.5015 42.9071 24.4011 42.8482L11.1436 35.252L14.4119 50.4407C14.4359 50.5572 14.489 50.6656 14.5665 50.7558C14.6439 50.846 14.743 50.915 14.8545 50.9563C14.966 50.9976 15.0861 51.0099 15.2037 50.9919C15.3212 50.9739 15.4322 50.9264 15.5262 50.8536Z" fill="#31CB9E"/>
<path d="M8.3479 32.9923L11.869 16.6284C11.8996 16.4866 11.8857 16.3389 11.8292 16.2054C11.7728 16.0718 11.6764 15.959 11.5534 15.8822C11.4304 15.8054 11.2867 15.7685 11.1419 15.7764C10.9972 15.7844 10.8583 15.8368 10.7445 15.9266L1.73566 22.8073C1.50742 22.9818 1.32254 23.2067 1.19543 23.4644C1.06833 23.7221 1.00242 24.0056 1.00284 24.2929L1 41.7202C0.999489 42.0075 1.06531 42.2911 1.19233 42.5489C1.31935 42.8066 1.50416 43.0315 1.73234 43.2061L10.7389 50.0794C10.8536 50.1655 10.9916 50.2148 11.1349 50.221C11.2781 50.2271 11.4199 50.1898 11.5416 50.114C11.6632 50.0381 11.7591 49.9272 11.8166 49.7959C11.8741 49.6645 11.8905 49.5189 11.8637 49.378L8.3479 32.9923Z" fill="#31CB9E"/>
<path d="M78.4611 28.221C79.1047 28.2078 79.7404 28.3653 80.3035 28.6773C80.8665 28.9894 81.337 29.4449 81.667 29.9977L80.5532 30.8556C80.3151 30.4964 80.0018 30.1933 79.6348 29.9674C79.2801 29.7557 78.8737 29.6462 78.4607 29.651C78.0883 29.6428 77.7217 29.7449 77.4071 29.9444C77.2579 30.0426 77.1375 30.1787 77.0582 30.3386C76.9788 30.4986 76.9434 30.6768 76.9555 30.855C76.9507 31.0241 76.9868 31.1919 77.0608 31.3441C77.1323 31.4815 77.2292 31.6041 77.3464 31.7053C77.479 31.8191 77.6257 31.9153 77.7829 31.9916C77.9535 32.0771 78.1391 32.1699 78.3398 32.27L79.4536 32.7821C79.8015 32.9402 80.1384 33.1214 80.4621 33.3243C80.741 33.4963 80.9944 33.7065 81.215 33.9488C81.4115 34.1691 81.5692 34.4211 81.6813 34.6942C81.7954 34.9867 81.8517 35.2985 81.8469 35.6124C81.8531 36.0256 81.7654 36.4347 81.5903 36.809C81.4247 37.1589 81.183 37.4674 80.883 37.712C80.5672 37.9659 80.2075 38.1597 79.8218 38.2837C79.3966 38.4222 78.9517 38.4908 78.5045 38.4867C77.7276 38.5015 76.9618 38.3009 76.2919 37.9071C75.6529 37.5241 75.124 36.982 74.7568 36.3336L75.8858 35.4759C76.0279 35.6888 76.1865 35.8902 76.3602 36.0781C76.5338 36.2674 76.7281 36.4365 76.9394 36.5824C77.155 36.7306 77.3907 36.8472 77.6392 36.9289C77.914 37.0171 78.2012 37.0603 78.4897 37.0568C78.9333 37.0779 79.371 36.9479 79.7312 36.6881C79.8862 36.5695 80.0103 36.4152 80.093 36.2384C80.1756 36.0616 80.2144 35.8675 80.206 35.6725C80.2094 35.4986 80.1734 35.3262 80.1007 35.1682C80.0285 35.0203 79.9258 34.8894 79.7995 34.784C79.6572 34.6659 79.5033 34.5625 79.3403 34.4754C79.1646 34.3802 78.9665 34.2824 78.7459 34.182L77.6476 33.6699C77.338 33.5258 77.0365 33.3649 76.7444 33.188C76.4736 33.0258 76.2255 32.8283 76.0067 32.6008C75.7984 32.3837 75.6303 32.1315 75.5101 31.8558C75.3854 31.5581 75.324 31.2377 75.3297 30.9151C75.324 30.5293 75.4092 30.1477 75.5783 29.801C75.7414 29.4729 75.9723 29.1832 76.2557 28.9509C76.5506 28.7103 76.8876 28.5266 77.2495 28.4089C77.6406 28.2814 78.0497 28.2179 78.4611 28.221Z" fill="white"/>
<path d="M90.6972 35.7193L92.6098 30.9328L94.2806 30.9332L91.0127 38.4889H90.471L88.1384 33.5514L85.8349 38.4881H85.2927L82.0127 30.9311L83.6986 30.9313L85.6394 35.7635L87.8831 30.7666H88.4249L90.6972 35.7193Z" fill="white"/>
<path d="M97.9532 30.7683C98.3727 30.7634 98.7901 30.8296 99.1875 30.9642C99.5442 31.0861 99.8701 31.2838 100.143 31.5439C100.419 31.8156 100.632 32.1446 100.768 32.5075C100.926 32.9387 101.003 33.3956 100.994 33.8548L100.993 38.3253L99.5173 38.3251V37.4973C99.2476 37.8146 98.9075 38.0645 98.524 38.227C98.0905 38.4087 97.624 38.4983 97.154 38.4902C96.7946 38.4946 96.4367 38.4438 96.0928 38.3394C95.7956 38.2494 95.5193 38.101 95.2802 37.9028C95.0589 37.7183 94.8815 37.4869 94.7607 37.2254C94.6373 36.9511 94.5758 36.653 94.5804 36.3523C94.5691 36.0546 94.6304 35.7587 94.7589 35.4899C94.8874 35.2212 95.0793 34.9877 95.3181 34.8096C95.8995 34.4063 96.5986 34.2078 97.3052 34.2455L99.3973 34.2457L99.3977 33.764C99.4232 33.5503 99.3998 33.3336 99.3294 33.1302C99.259 32.9268 99.1433 32.7421 98.9911 32.5899C98.839 32.4377 98.6542 32.322 98.4509 32.2516C98.2475 32.1811 98.0308 32.1577 97.8171 32.1832C97.4219 32.174 97.0317 32.2728 96.6885 32.469C96.3352 32.6874 96.0199 32.962 95.755 33.2818L94.8518 32.3485C95.1973 31.8377 95.6695 31.4254 96.2222 31.1519C96.7625 30.8941 97.3545 30.763 97.9532 30.7683ZM97.4851 37.2711C97.7367 37.2727 97.9865 37.2294 98.2228 37.1432C98.4468 37.0621 98.6536 36.9396 98.8324 36.782C99.0078 36.6272 99.149 36.4375 99.2469 36.2251C99.348 36.0057 99.3993 35.7667 99.3973 35.5251V35.3897L97.5007 35.3895C97.162 35.3688 96.8246 35.4472 96.5297 35.6151C96.4189 35.6885 96.3293 35.7897 96.2699 35.9085C96.2104 36.0274 96.1832 36.1598 96.191 36.2925C96.1838 36.4365 96.2148 36.5799 96.2809 36.7081C96.347 36.8363 96.4457 36.9448 96.5672 37.0225C96.8417 37.1948 97.1613 37.2814 97.4851 37.2711H97.4851Z" fill="white"/>
<path d="M106.638 30.7694C107.138 30.7649 107.633 30.865 108.091 31.0632C108.527 31.2516 108.919 31.5284 109.242 31.876C109.569 32.2309 109.824 32.6449 109.995 33.0956C110.179 33.5836 110.271 34.1017 110.265 34.6234C110.27 35.1475 110.178 35.668 109.994 36.1587C109.824 36.6136 109.566 37.0305 109.234 37.3854C108.901 37.7396 108.499 38.0208 108.052 38.2112C107.605 38.4016 107.123 38.4969 106.637 38.4913C106.155 38.4968 105.676 38.4046 105.23 38.2202C104.817 38.0498 104.453 37.781 104.169 37.4373L104.168 41.0347L102.588 41.0345L102.59 30.9343L104.049 30.9345L104.049 32.0033C104.323 31.6092 104.698 31.295 105.133 31.0927C105.604 30.8729 106.119 30.7624 106.638 30.7694ZM106.382 32.2143C106.108 32.215 105.835 32.2633 105.577 32.3571C105.311 32.4525 105.068 32.601 104.862 32.7938C104.641 33.0036 104.467 33.2573 104.35 33.5386C104.211 33.8826 104.145 34.2515 104.154 34.6223C104.145 34.9925 104.209 35.3608 104.342 35.7062C104.456 35.9897 104.628 36.2461 104.846 36.4591C105.05 36.6558 105.294 36.8072 105.561 36.9031C105.824 36.998 106.102 37.0465 106.381 37.0463C106.684 37.048 106.983 36.9892 107.262 36.8734C107.534 36.7611 107.78 36.5946 107.985 36.3841C108.195 36.1659 108.359 35.9074 108.467 35.6241C108.697 34.9869 108.697 34.2894 108.467 33.6521C108.36 33.3702 108.199 33.1119 107.993 32.8919C107.79 32.6801 107.547 32.5111 107.278 32.3952C106.995 32.2733 106.69 32.2117 106.382 32.2143V32.2143Z" fill="white"/>
<path d="M38.0836 38.3148L36.4883 38.3145L36.49 28.3799L38.0853 28.3801L38.0836 38.3148ZM40.1167 33.0316L44.7069 38.3158L42.7349 38.3154L38.1296 33.0314L42.3002 28.3807L44.257 28.3812L40.1167 33.0316Z" fill="white"/>
<path d="M48.2142 39.1599C47.9816 39.7655 47.5949 40.2998 47.0923 40.71C46.6245 41.0407 46.0616 41.2098 45.489 41.1915C45.2827 41.1909 45.0766 41.1783 44.8718 41.1538C44.6688 41.13 44.4677 41.0922 44.2698 41.0409V39.7013C44.4505 39.7211 44.6112 39.7361 44.7518 39.7463C44.892 39.7562 45.0274 39.7612 45.1579 39.7613C45.4742 39.7674 45.7871 39.6951 46.0687 39.5509C46.3906 39.3436 46.6365 39.0372 46.7692 38.678L47.07 37.9856L44.1211 30.9253L45.8218 30.9257L47.9286 36.3149L50.1272 30.9264L51.8127 30.9266L48.2142 39.1599Z" fill="white"/>
<path d="M54.2207 31.8299C54.5109 31.4922 54.8738 31.2246 55.2823 31.0474C55.7258 30.8533 56.2056 30.7559 56.6898 30.7616C57.1756 30.7561 57.6572 30.8517 58.1042 31.0422C58.5511 31.2327 58.9536 31.514 59.2861 31.8683C59.6175 32.2234 59.8758 32.6404 60.046 33.0954C60.23 33.5862 60.3216 34.1067 60.3165 34.6307C60.322 35.1524 60.2301 35.6705 60.0456 36.1585C59.8747 36.6092 59.6192 37.023 59.2928 37.3777C58.9711 37.7241 58.5817 38.0007 58.1486 38.1903C57.693 38.3888 57.2006 38.4888 56.7037 38.4835C56.1823 38.4899 55.6659 38.3819 55.1909 38.1671C54.7517 37.9708 54.3744 37.6586 54.0994 37.2639V38.3175L52.6396 38.3173L52.6413 27.0278L54.2215 27.028L54.2207 31.8299ZM56.4336 32.2065C56.1539 32.2064 55.8762 32.2547 55.613 32.3493C55.3461 32.4455 55.1026 32.5968 54.8981 32.7934C54.6793 33.0063 54.5075 33.2626 54.3938 33.546C54.2603 33.8913 54.1963 34.2596 54.2055 34.6297C54.1965 35.0029 54.2629 35.3741 54.401 35.721C54.5163 36.0054 54.6908 36.262 54.9128 36.4738C55.1177 36.6662 55.3613 36.8125 55.6273 36.9029C55.8865 36.9921 56.1587 37.038 56.4328 37.0385C56.7406 37.0411 57.0456 36.9797 57.3284 36.858C57.5978 36.7421 57.841 36.5732 58.0437 36.3613C58.25 36.1414 58.4111 35.8832 58.5181 35.6014C58.7482 34.9643 58.7484 34.2668 58.5185 33.6296C58.4108 33.3462 58.2469 33.0875 58.0366 32.8692C57.8315 32.6588 57.5856 32.4923 57.3141 32.3799C57.0352 32.2638 56.7358 32.2049 56.4336 32.2066V32.2065Z" fill="white"/>
<path d="M65.1936 30.7634C65.6624 30.7591 66.1276 30.846 66.5631 31.0195C66.9682 31.1779 67.3362 31.418 67.6443 31.7249C67.9524 32.0319 68.194 32.399 68.354 32.8034C68.5269 33.2313 68.6138 33.6891 68.6097 34.1506C68.6101 34.3419 68.5974 34.5331 68.5718 34.7227C68.5543 34.8649 68.5267 35.0057 68.4892 35.144L62.9798 35.1431C63.0612 35.7051 63.3516 36.2158 63.7928 36.5733C64.2494 36.9231 64.813 37.1041 65.3878 37.0854C65.7912 37.0912 66.1913 37.0118 66.5619 36.8522C66.9201 36.6924 67.2505 36.4765 67.5409 36.2128L68.308 37.2967C67.9222 37.6643 67.4736 37.9599 66.9836 38.1694C66.4689 38.3846 65.9156 38.4921 65.3579 38.4853C64.8121 38.4901 64.2704 38.3904 63.7621 38.1917C63.2932 38.0115 62.8659 37.7377 62.5063 37.3869C62.1467 37.0361 61.8623 36.6158 61.6705 36.1515C61.4677 35.6705 61.3652 35.1533 61.3693 34.6313C61.3653 34.11 61.4653 33.5932 61.6633 33.111C61.8502 32.6523 62.1264 32.2353 62.4759 31.8844C62.8245 31.5369 63.2357 31.2585 63.6879 31.0642C64.1636 30.8607 64.6763 30.7583 65.1936 30.7634ZM65.1477 32.103C64.6416 32.0902 64.1486 32.2643 63.7629 32.5921C63.3719 32.9346 63.107 33.3982 63.0105 33.909L67.0295 33.9096C67.0352 33.6577 66.9864 33.4075 66.8863 33.1762C66.7863 32.945 66.6374 32.7381 66.4498 32.5698C66.0875 32.2601 65.6242 32.094 65.1477 32.103Z" fill="white"/>
<path d="M73.7441 30.8546C73.8574 30.8535 73.9706 30.8611 74.0828 30.8773C74.178 30.8923 74.2658 30.9098 74.3461 30.93L74.3456 32.3299L73.8641 32.3297C73.5807 32.3285 73.2988 32.3717 73.0288 32.4577C72.774 32.5366 72.5382 32.6672 72.3362 32.8413C72.1359 33.018 71.9766 33.2363 71.8694 33.481C71.7487 33.7639 71.6895 34.0692 71.6959 34.3766L71.6954 38.3204L70.1152 38.3202L70.1165 30.9294L71.5762 30.9296L71.5758 31.9232C71.8242 31.5827 72.1526 31.3087 72.5321 31.1253C72.9104 30.9445 73.3248 30.8519 73.7441 30.8546Z" fill="white"/>
<g filter="url(#filter0_d_2137_79300)">
<path d="M10.3898 14.3142C11.3827 13.635 12.4169 13.0271 13.4846 12.5005C14.3808 12.0578 15.3106 11.6678 16.2774 11.4917C17.1484 11.3342 18.0333 11.3502 18.905 11.4284C21.5321 11.6646 24.2333 12.5533 25.9058 14.6627C25.4151 16.9695 23.7964 19.0134 21.7299 19.9344C21.0264 20.2476 20.2852 20.4371 19.5447 20.6068C17.7658 21.0184 15.9445 21.3386 14.1519 21.1517C12.3593 20.9648 10.58 20.2202 9.42426 18.7911C8.87614 18.1134 8.47106 17.2073 8.68359 16.3205C8.89612 15.4338 9.65708 14.8131 10.3902 14.3121L10.3898 14.3142Z" fill="#AF0C33"/>
<path d="M25.2188 16.4029C25.2188 16.4029 25.1888 16.41 25.1311 16.4225C25.0714 16.4347 24.9878 16.4549 24.8843 16.4835C24.6673 16.5395 24.3722 16.6339 24.0311 16.76C23.3452 17.0093 22.5393 17.4284 21.8462 17.6702C21.4737 17.7989 21.0586 17.922 20.6043 18.016C20.1484 18.1076 19.6543 18.1766 19.1292 18.2175C18.079 18.2993 16.9107 18.2559 15.715 18.1165C14.5048 17.9775 13.3227 17.7737 12.2976 17.4866C11.266 17.2008 10.3851 16.8329 9.69582 16.4411C9.00018 16.0506 8.49669 15.6472 8.16998 15.3501C8.00562 15.2014 7.8851 15.0781 7.80621 14.9954C7.72326 14.9121 7.68461 14.8653 7.68461 14.8653C7.68461 14.8653 7.51441 14.9119 7.24431 15.0051C6.97186 15.1003 6.59577 15.2395 6.18455 15.449C5.77505 15.661 5.32839 15.9431 4.96204 16.383C4.59976 16.8234 4.30713 17.4379 4.30566 18.3097C4.30566 18.3097 4.37269 18.3888 4.50755 18.5271C4.64006 18.6673 4.83839 18.8666 5.10131 19.1049C5.62513 19.5814 6.41095 20.2035 7.42399 20.771C7.92833 21.0556 8.49033 21.3277 9.08924 21.5737C9.68879 21.8154 10.3249 22.0331 10.985 22.2142C12.3063 22.5833 13.6932 22.8153 15.0661 22.9729C16.4533 23.1323 17.8979 23.1956 19.297 23.0901C19.9953 23.0383 20.6794 22.9428 21.3316 22.8102C21.9842 22.6755 22.6039 22.497 23.1707 22.2984C23.4528 22.1935 23.7283 22.0921 23.9665 21.9904C24.1876 21.8931 24.3975 21.801 24.5961 21.7162C24.9635 21.5517 25.2391 21.435 25.4424 21.3596C25.6435 21.2862 25.7846 21.2403 25.8662 21.2199C25.9548 21.1938 25.9882 21.1915 25.9906 21.1896C25.9906 21.1896 26.0044 21.1517 26.0267 21.0841C26.0473 21.014 26.0784 20.9145 26.1147 20.7936C26.1839 20.547 26.2986 20.1873 26.4319 19.7573C26.5591 19.3265 26.7256 18.8104 26.6595 18.2163C26.6242 17.9211 26.5229 17.5955 26.2981 17.2805C26.0719 16.961 25.7197 16.654 25.2225 16.4055L25.2188 16.4029Z" fill="white"/>
<path d="M28.6231 11.4051C27.8419 9.6494 26.8311 7.99218 25.4783 6.69427C24.1231 5.39826 22.4023 4.48059 20.5567 4.33092C18.6211 4.17418 16.6389 4.8725 15.0169 6.07702C13.395 7.28154 12.1184 8.96615 11.1726 10.8075C10.3359 12.4403 9.65055 14.3105 8.45316 15.5956C8.65623 15.7625 8.90239 15.9458 9.19118 16.1346C9.97388 15.8315 10.7385 15.4116 11.5091 15.0784C13.8097 14.0838 16.3301 13.8197 18.7675 14.0383C19.972 14.1458 21.1716 14.3715 22.2794 14.8564C24.0481 15.6305 25.5058 17.032 26.6629 18.6353C27.8225 20.2366 28.7079 22.043 29.5868 23.8376C29.8642 23.6241 30.2308 23.5498 30.5527 23.6393C30.9695 19.436 30.2927 15.159 28.6193 11.4024L28.6231 11.4051Z" fill="#AF0C33"/>
</g>
<g filter="url(#filter1_d_2137_79300)">
<path d="M32.8246 27.0765C33.442 25.8846 33.0476 24.4201 31.9437 23.8054C30.8397 23.1907 29.4443 23.6587 28.8269 24.8506C28.2095 26.0425 28.6039 27.5071 29.7079 28.1217C30.8118 28.7364 32.2072 28.2684 32.8246 27.0765Z" fill="white"/>
</g>
<defs>
<filter id="filter0_d_2137_79300" x="0.305664" y="0.309082" width="34.3672" height="27.5283" filterUnits="userSpaceOnUse" color-interpolation-filters="sRGB">
<feFlood flood-opacity="0" result="BackgroundImageFix"/>
<feColorMatrix in="SourceAlpha" type="matrix" values="0 0 0 0 0 0 0 0 0 0 0 0 0 0 0 0 0 0 127 0" result="hardAlpha"/>
<feOffset/>
<feGaussianBlur stdDeviation="2"/>
<feComposite in2="hardAlpha" operator="out"/>
<feColorMatrix type="matrix" values="0 0 0 0 0 0 0 0 0 0 0 0 0 0 0 0 0 0 0.25 0"/>
<feBlend mode="normal" in2="BackgroundImageFix" result="effect1_dropShadow_2137_79300"/>
<feBlend mode="normal" in="SourceGraphic" in2="effect1_dropShadow_2137_79300" result="shape"/>
</filter>
<filter id="filter1_d_2137_79300" x="25.5352" y="20.5347" width="12.5811" height="12.8574" filterUnits="userSpaceOnUse" color-interpolation-filters="sRGB">
<feFlood flood-opacity="0" result="BackgroundImageFix"/>
<feColorMatrix in="SourceAlpha" type="matrix" values="0 0 0 0 0 0 0 0 0 0 0 0 0 0 0 0 0 0 127 0" result="hardAlpha"/>
<feOffset dx="1" dy="1"/>
<feGaussianBlur stdDeviation="2"/>
<feComposite in2="hardAlpha" operator="out"/>
<feColorMatrix type="matrix" values="0 0 0 0 0 0 0 0 0 0 0 0 0 0 0 0 0 0 0.25 0"/>
<feBlend mode="normal" in2="BackgroundImageFix" result="effect1_dropShadow_2137_79300"/>
<feBlend mode="normal" in="SourceGraphic" in2="effect1_dropShadow_2137_79300" result="shape"/>
</filter>
</defs>
</svg>
