<svg width="360" height="360" viewBox="0 0 360 360" fill="none" xmlns="http://www.w3.org/2000/svg">
<rect width="360" height="360" rx="16" fill="white"/>
<path d="M167.523 179.952L256.599 230.922C257.311 231.324 258.116 231.534 258.935 231.532C259.753 231.53 260.557 231.315 261.267 230.91C261.978 230.504 262.57 229.921 262.986 229.218C263.402 228.514 263.628 227.715 263.642 226.899L263.657 133.036C263.648 132.218 263.425 131.417 263.01 130.711C262.594 130.006 262.002 129.42 261.29 129.014C260.579 128.607 259.773 128.393 258.953 128.392C258.133 128.392 257.328 128.605 256.616 129.011L167.523 179.952Z" fill="#31CB9E"/>
<path d="M251.423 107.045L192.292 61.946C191.661 61.4731 190.922 61.1653 190.141 61.0505C189.361 60.9356 188.564 61.0175 187.823 61.2886C187.082 61.5597 186.421 62.0114 185.9 62.6026C185.379 63.1938 185.014 63.9056 184.839 64.6733L163.219 165.081L250.943 114.822C251.622 114.443 252.194 113.901 252.608 113.244C253.022 112.588 253.263 111.838 253.311 111.064C253.359 110.29 253.211 109.516 252.881 108.814C252.551 108.112 252.05 107.504 251.423 107.045V107.045Z" fill="#31CB9E"/>
<path d="M192.253 298.032L251.535 252.884C252.148 252.417 252.636 251.806 252.957 251.106C253.277 250.406 253.42 249.638 253.373 248.869C253.326 248.101 253.09 247.356 252.686 246.7C252.283 246.044 251.723 245.497 251.058 245.108L163.213 194.888L184.869 295.303C185.028 296.073 185.38 296.789 185.893 297.386C186.406 297.982 187.063 298.438 187.802 298.712C188.54 298.985 189.337 299.066 190.115 298.947C190.894 298.828 191.63 298.513 192.253 298.032V298.032Z" fill="#31CB9E"/>
<path d="M144.688 179.949L168.019 71.7653C168.221 70.8282 168.129 69.8516 167.755 68.9688C167.381 68.0859 166.743 67.3398 165.928 66.8322C165.113 66.3247 164.16 66.0805 163.201 66.133C162.242 66.1855 161.322 66.5321 160.567 67.1255L100.875 112.615C99.3622 113.768 98.1372 115.255 97.295 116.959C96.4527 118.662 96.016 120.537 96.0188 122.437L96 237.65C95.9966 239.55 96.4327 241.424 97.2744 243.128C98.1161 244.832 99.3406 246.319 100.853 247.474L160.531 292.914C161.291 293.483 162.205 293.809 163.154 293.85C164.104 293.89 165.043 293.644 165.849 293.142C166.655 292.641 167.29 291.908 167.671 291.039C168.052 290.171 168.161 289.208 167.984 288.277L144.688 179.949Z" fill="#31CB9E"/>
</svg>
