<svg width="128" height="128" viewBox="0 0 128 128" fill="none" xmlns="http://www.w3.org/2000/svg">
<g clip-path="url(#clip0_8029_395)">
<mask id="mask0_8029_395" style="mask-type:luminance" maskUnits="userSpaceOnUse" x="0" y="0" width="128" height="128">
<path d="M128 0H0V128H128V0Z" fill="white"/>
</mask>
<g mask="url(#mask0_8029_395)">
<path d="M64 128C99.3464 128 128 99.3464 128 64C128 28.6538 99.3464 0 64 0C28.6538 0 0 28.6538 0 64C0 99.3464 28.6538 128 64 128Z" fill="url(#paint0_radial_8029_395)"/>
<path d="M102.505 100.58H83.9528C82.74 100.58 81.5776 100.098 80.72 99.24L47.105 65.6249C46.2124 64.7325 46.2124 63.2849 47.105 62.3925L80.72 28.7775C81.5776 27.92 82.74 27.4375 83.9528 27.4375H102.505C103.522 27.4375 104.033 28.6675 103.313 29.3875L69.4999 63.2C69.0524 63.6475 69.0524 64.37 69.4999 64.815L103.313 98.6272C104.033 99.3472 103.522 100.58 102.505 100.58Z" fill="white"/>
<path d="M49.2825 47.0625L33.9525 62.3925C33.06 63.2849 33.06 64.7325 33.9525 65.6249L49.2825 80.9552C50.14 81.8128 50.6225 82.9752 50.6225 84.1872V98.2928C50.6225 99.5552 49.6 100.578 48.3375 100.578H32.795C31.5325 100.578 30.51 99.5552 30.51 98.2928V29.7225C30.51 28.46 31.5325 27.4375 32.795 27.4375H48.3375C49.6 27.4375 50.6225 28.46 50.6225 29.7225V43.83C50.6225 45.0425 50.14 46.2049 49.2825 47.0625Z" fill="white"/>
</g>
</g>
<defs>
<radialGradient id="paint0_radial_8029_395" cx="0" cy="0" r="1" gradientUnits="userSpaceOnUse" gradientTransform="translate(110.265 23.77) scale(142.795)">
<stop offset="0.01" stop-color="#F5BB7E"/>
<stop offset="0.58" stop-color="#FF5100"/>
<stop offset="0.69" stop-color="#FC4808"/>
<stop offset="0.88" stop-color="#F4301F"/>
<stop offset="1" stop-color="#EE1E32"/>
</radialGradient>
<clipPath id="clip0_8029_395">
<rect width="128" height="128" fill="white"/>
</clipPath>
</defs>
</svg>
