<svg width="78" height="70" viewBox="0 0 78 70" fill="none" xmlns="http://www.w3.org/2000/svg">
<path d="M75.6096 55.8403L62.3753 37.8597C60.9375 35.9059 58.8086 34.7354 56.5415 34.4774C56.0254 34.4175 55.5646 34.118 55.3065 33.6664C55.0439 33.2148 55.0162 32.6664 55.2236 32.1872C56.1314 30.0951 56.1866 27.6667 55.2097 25.4456L46.2563 4.99512C44.9292 1.95842 41.9294 0 38.6162 0C35.303 0 32.3032 1.96303 30.976 4.99512L22.0226 25.4456C21.0503 27.6667 21.101 30.0951 22.0088 32.1872C22.2162 32.6664 22.1839 33.2148 21.9258 33.6664C21.6632 34.118 21.207 34.4175 20.6909 34.4774C18.4237 34.7354 16.2948 35.9059 14.8571 37.8597L1.62281 55.8403C-0.340217 58.5083 -0.538366 62.0842 1.11592 64.955C2.77482 67.8212 5.9728 69.4386 9.26294 69.0746L31.4507 66.6047C33.8607 66.3374 35.9389 65.0794 37.2937 63.2454C37.6024 62.8261 38.0955 62.5772 38.6162 62.5772C39.1369 62.5772 39.6253 62.8261 39.9387 63.2454C41.2935 65.0794 43.3717 66.3374 45.7817 66.6047L67.9694 69.0746C71.2596 69.4432 74.4576 67.8258 76.1164 64.955C77.7707 62.0842 77.5726 58.5083 75.6096 55.8403ZM27.8103 28.0123L36.7776 7.53876C37.1001 6.80608 37.8236 6.33145 38.6208 6.33145C39.418 6.33145 40.1414 6.80608 40.464 7.53876L49.4313 28.0123C49.7124 28.6574 49.6524 29.4039 49.2654 29.9938C48.8783 30.5836 48.224 30.9384 47.5143 30.9384H29.7227C29.0176 30.9384 28.3587 30.5836 27.9716 29.9938C27.5845 29.4039 27.5246 28.6574 27.8057 28.0123H27.8103ZM32.4137 59.1811C32.0958 59.8124 31.4783 60.2364 30.7779 60.3147L8.56712 62.7846C7.77454 62.8722 7.00039 62.4851 6.59949 61.7939C6.19859 61.1027 6.24927 60.241 6.7239 59.5958L19.972 41.5968C20.3914 41.03 21.0641 40.7075 21.7692 40.7489C22.4742 40.7858 23.1101 41.1775 23.4649 41.7904L23.4788 41.8134L32.3492 57.1766L32.3631 57.1996C32.7179 57.8125 32.7363 58.559 32.4184 59.1857L32.4137 59.1811ZM40.441 52.2322C40.0631 52.8819 39.3719 53.2874 38.6162 53.2874C37.8651 53.2874 37.1693 52.8865 36.7914 52.2368L29.9761 40.4356C29.5982 39.7858 29.5982 38.9795 29.9761 38.3297C30.354 37.68 31.0452 37.2745 31.8009 37.2745H45.4269C46.178 37.2745 46.8738 37.6708 47.2517 38.3251C47.6295 38.9794 47.6295 39.7812 47.2517 40.431L40.441 52.2322ZM70.6375 61.7939C70.2366 62.4851 69.467 62.8768 68.6698 62.7892L46.4591 60.3193C45.7586 60.241 45.1412 59.817 44.8232 59.1857C44.5053 58.5544 44.5237 57.8079 44.8785 57.1996L44.8923 57.1766L53.7628 41.8134L53.7766 41.7904C54.1315 41.1775 54.7674 40.7858 55.4724 40.7489C56.1774 40.7121 56.8502 41.03 57.2695 41.5968L70.5177 59.5958C70.9923 60.241 71.0384 61.1027 70.6421 61.7939H70.6375Z" fill="#E81899"/>
</svg>
