<svg width="16" height="16" viewBox="0 0 16 16" fill="none" xmlns="http://www.w3.org/2000/svg">
<g clip-path="url(#clip0_4255_7161)">
<path d="M8 16C12.4183 16 16 12.4183 16 8C16 3.58172 12.4183 0 8 0C3.58172 0 0 3.58172 0 8C0 12.4183 3.58172 16 8 16Z" fill="url(#paint0_radial_4255_7161)"/>
<path d="M12.8131 12.5725H10.4941C10.3425 12.5725 10.1972 12.5122 10.09 12.405L5.88812 8.20312C5.77655 8.09156 5.77655 7.91062 5.88812 7.79906L10.09 3.59719C10.1972 3.49 10.3425 3.42969 10.4941 3.42969H12.8131C12.9403 3.42969 13.0041 3.58344 12.9141 3.67344L8.68749 7.9C8.63155 7.95594 8.63155 8.04625 8.68749 8.10188L12.9141 12.3284C13.0041 12.4184 12.9403 12.5722 12.8131 12.5722V12.5725Z" fill="white"/>
<path d="M6.16031 5.88281L4.24406 7.79906C4.1325 7.91062 4.1325 8.09156 4.24406 8.20312L6.16031 10.1194C6.2675 10.2266 6.32781 10.3719 6.32781 10.5234V12.2866C6.32781 12.4444 6.2 12.5722 6.04219 12.5722H4.09938C3.94156 12.5722 3.81375 12.4444 3.81375 12.2866V3.71531C3.81375 3.5575 3.94156 3.42969 4.09938 3.42969H6.04219C6.2 3.42969 6.32781 3.5575 6.32781 3.71531V5.47875C6.32781 5.63031 6.2675 5.77562 6.16031 5.88281Z" fill="white"/>
</g>
<defs>
<radialGradient id="paint0_radial_4255_7161" cx="0" cy="0" r="1" gradientUnits="userSpaceOnUse" gradientTransform="translate(13.7831 2.97125) scale(17.8494)">
<stop offset="0.01" stop-color="#F5BB7E"/>
<stop offset="0.58" stop-color="#FF5100"/>
<stop offset="0.69" stop-color="#FC4808"/>
<stop offset="0.88" stop-color="#F4301F"/>
<stop offset="1" stop-color="#EE1E32"/>
</radialGradient>
<clipPath id="clip0_4255_7161">
<rect width="16" height="16" fill="white"/>
</clipPath>
</defs>
</svg>
