<svg width="160" height="53" viewBox="0 0 160 53" fill="none" xmlns="http://www.w3.org/2000/svg">
<path d="M15.8062 26.4896L35.4914 37.8402C35.6488 37.9297 35.8267 37.9765 36.0076 37.976C36.1885 37.9755 36.3661 37.9277 36.5231 37.8373C36.68 37.7469 36.8109 37.6171 36.9029 37.4605C36.9949 37.3039 37.0448 37.126 37.0477 36.9442L37.0511 16.042C37.0491 15.8598 36.9998 15.6814 36.9081 15.5242C36.8163 15.3671 36.6854 15.2368 36.5281 15.1462C36.3709 15.0557 36.1929 15.0079 36.0117 15.0078C35.8305 15.0077 35.6524 15.0552 35.495 15.1455L15.8062 26.4896Z" fill="#31CB9E"/>
<path d="M34.3477 10.2537L21.28 0.210655C21.1406 0.105358 20.9772 0.0368035 20.8047 0.0112356C20.6322 -0.0143323 20.456 0.003899 20.2923 0.0642694C20.1286 0.12464 19.9825 0.225231 19.8674 0.356879C19.7522 0.488527 19.6717 0.64705 19.633 0.818007L14.855 23.1777L34.2416 11.9855C34.3916 11.9012 34.5181 11.7804 34.6095 11.6342C34.7009 11.488 34.7544 11.3211 34.7649 11.1487C34.7755 10.9763 34.7428 10.8041 34.6699 10.6477C34.597 10.4913 34.4862 10.3558 34.3477 10.2537Z" fill="#31CB9E"/>
<path d="M21.2711 52.7836L34.3723 42.7296C34.5077 42.6255 34.6156 42.4895 34.6864 42.3335C34.7573 42.1776 34.7889 42.0065 34.7785 41.8354C34.768 41.6643 34.7159 41.4985 34.6267 41.3524C34.5374 41.2063 34.4138 41.0846 34.2668 40.9978L14.8535 29.8145L19.6395 52.1757C19.6745 52.3471 19.7524 52.5068 19.8658 52.6396C19.9791 52.7724 20.1243 52.874 20.2875 52.9348C20.4508 52.9956 20.6267 53.0136 20.7988 52.9872C20.9709 52.9607 21.1334 52.8906 21.2711 52.7836Z" fill="#31CB9E"/>
<path d="M10.7597 26.4877L15.9158 2.39642C15.9606 2.18776 15.9402 1.97028 15.8575 1.77367C15.7748 1.57706 15.6337 1.41091 15.4536 1.29789C15.2735 1.18487 15.0631 1.13049 14.8511 1.14218C14.639 1.15387 14.4358 1.23105 14.269 1.3632L1.07725 11.4931C0.743022 11.7501 0.472305 12.0811 0.286179 12.4605C0.100052 12.8399 0.00353824 13.2573 0.00415445 13.6804L4.37658e-06 39.3372C-0.00074845 39.7602 0.09563 40.1777 0.281634 40.5571C0.467638 40.9366 0.738248 41.2677 1.07239 41.5248L14.2609 51.6438C14.4289 51.7705 14.631 51.8431 14.8407 51.8522C15.0505 51.8613 15.2581 51.8063 15.4362 51.6946C15.6144 51.5829 15.7548 51.4197 15.839 51.2263C15.9232 51.033 15.9472 50.8185 15.908 50.6111L10.7597 26.4877Z" fill="#31CB9E"/>
<path d="M113.428 19.464C114.37 19.4446 115.301 19.6764 116.125 20.1359C116.95 20.5953 117.639 21.266 118.122 22.0797L116.491 23.3428C116.143 22.8139 115.684 22.3677 115.146 22.0351C114.627 21.7234 114.032 21.5622 113.427 21.5693C112.882 21.5573 112.345 21.7075 111.884 22.0013C111.666 22.1459 111.49 22.3461 111.373 22.5817C111.257 22.8172 111.205 23.0795 111.223 23.3419C111.216 23.5909 111.269 23.8379 111.377 24.0619C111.482 24.2642 111.624 24.4447 111.795 24.5937C111.99 24.7612 112.204 24.9029 112.435 25.0152C112.684 25.1411 112.956 25.2777 113.25 25.4251L114.881 26.179C115.39 26.4118 115.884 26.6785 116.358 26.9772C116.766 27.2305 117.137 27.54 117.46 27.8966C117.748 28.2209 117.979 28.592 118.143 28.9941C118.31 29.4246 118.393 29.8837 118.386 30.3458C118.395 30.9541 118.266 31.5565 118.01 32.1075C117.767 32.6226 117.413 33.0768 116.974 33.4369C116.512 33.8108 115.985 34.096 115.42 34.2786C114.797 34.4825 114.146 34.5835 113.491 34.5775C112.354 34.5993 111.232 34.3039 110.251 33.7241C109.315 33.1602 108.541 32.3621 108.003 31.4076L109.657 30.1449C109.865 30.4583 110.097 30.7548 110.351 31.0315C110.605 31.3101 110.89 31.5592 111.199 31.7739C111.515 31.992 111.86 32.1638 112.224 32.284C112.626 32.4139 113.047 32.4774 113.47 32.4722C114.119 32.5033 114.76 32.312 115.288 31.9296C115.514 31.7549 115.696 31.5278 115.817 31.2675C115.938 31.0072 115.995 30.7213 115.983 30.4342C115.988 30.1782 115.935 29.9244 115.829 29.6919C115.723 29.4741 115.573 29.2814 115.387 29.1262C115.179 28.9524 114.954 28.8002 114.715 28.6719C114.458 28.5318 114.168 28.3878 113.845 28.24L112.236 27.4861C111.783 27.2739 111.342 27.037 110.914 26.7766C110.517 26.5378 110.154 26.2471 109.834 25.912C109.529 25.5925 109.282 25.2212 109.106 24.8152C108.924 24.377 108.834 23.9053 108.842 23.4303C108.834 22.8624 108.959 22.3006 109.206 21.7902C109.445 21.3071 109.783 20.8806 110.198 20.5386C110.63 20.1845 111.123 19.9139 111.653 19.7407C112.226 19.5529 112.825 19.4595 113.428 19.464Z" fill="#141927"/>
<path d="M131.346 30.5024L134.146 23.4556L136.593 23.4562L131.808 34.5799H131.015L127.599 27.3108L124.226 34.5787H123.432L118.629 23.4531L121.098 23.4534L123.94 30.5675L127.225 23.2109H128.018L131.346 30.5024Z" fill="#141927"/>
<path d="M141.971 23.2152C142.585 23.208 143.197 23.3055 143.778 23.5036C144.301 23.683 144.778 23.9742 145.178 24.357C145.582 24.7571 145.894 25.2414 146.092 25.7757C146.324 26.4105 146.436 27.0831 146.423 27.7591L146.422 34.3408L144.261 34.3405V33.1218C143.867 33.589 143.368 33.9568 142.807 34.196C142.172 34.4635 141.489 34.5955 140.801 34.5836C140.275 34.5901 139.75 34.5152 139.247 34.3616C138.812 34.229 138.407 34.0105 138.057 33.7187C137.733 33.4472 137.473 33.1065 137.296 32.7214C137.116 32.3176 137.025 31.8788 137.032 31.4361C137.016 30.9978 137.105 30.5621 137.294 30.1665C137.482 29.7708 137.763 29.4271 138.112 29.1649C138.964 28.5711 139.987 28.279 141.022 28.3344L144.086 28.3347L144.086 27.6255C144.124 27.3109 144.089 26.9918 143.986 26.6924C143.883 26.393 143.714 26.121 143.491 25.897C143.268 25.6729 142.998 25.5026 142.7 25.3989C142.402 25.2951 142.085 25.2607 141.772 25.2982C141.193 25.2847 140.622 25.4302 140.119 25.719C139.602 26.0405 139.14 26.4447 138.752 26.9157L137.43 25.5416C137.936 24.7896 138.627 24.1826 139.436 23.7799C140.228 23.4004 141.094 23.2073 141.971 23.2152ZM141.286 32.7887C141.654 32.7912 142.02 32.7274 142.366 32.6005C142.694 32.4811 142.997 32.3007 143.258 32.0687C143.515 31.8408 143.722 31.5616 143.865 31.2488C144.013 30.9258 144.089 30.5739 144.086 30.2183V30.0189L141.308 30.0186C140.812 29.9881 140.318 30.1035 139.887 30.3507C139.724 30.4588 139.593 30.6077 139.506 30.7827C139.419 30.9578 139.379 31.1527 139.391 31.348C139.38 31.56 139.426 31.7711 139.522 31.9599C139.619 32.1486 139.764 32.3083 139.941 32.4228C140.343 32.6764 140.811 32.8038 141.286 32.7887H141.286Z" fill="#141927"/>
<path d="M154.689 23.2153C155.42 23.2087 156.145 23.3561 156.816 23.6479C157.454 23.9253 158.028 24.3328 158.502 24.8446C158.98 25.3671 159.354 25.9765 159.604 26.6401C159.874 27.3585 160.008 28.1213 160 28.8893C160.007 29.6608 159.873 30.4272 159.603 31.1496C159.354 31.8194 158.975 32.4331 158.49 32.9557C158.003 33.4771 157.413 33.8911 156.759 34.1713C156.104 34.4516 155.399 34.592 154.687 34.5837C153.981 34.5919 153.279 34.4561 152.626 34.1846C152.022 33.9338 151.489 33.538 151.072 33.0319L151.072 38.3282L148.758 38.3279L148.76 23.4581L150.898 23.4584L150.897 25.0319C151.299 24.4518 151.847 23.9892 152.485 23.6913C153.175 23.3678 153.928 23.2051 154.689 23.2153ZM154.314 25.3426C153.912 25.3436 153.513 25.4147 153.135 25.5529C152.746 25.6932 152.389 25.912 152.088 26.1957C151.765 26.5046 151.509 26.8781 151.338 27.2922C151.135 27.7987 151.038 28.3418 151.051 28.8877C151.038 29.4327 151.131 29.975 151.327 30.4835C151.493 30.9008 151.744 31.2783 152.065 31.5918C152.364 31.8815 152.72 32.1043 153.111 32.2455C153.497 32.3853 153.903 32.4567 154.313 32.4564C154.755 32.4589 155.194 32.3723 155.602 32.2018C156 32.0365 156.36 31.7913 156.661 31.4814C156.969 31.1602 157.209 30.7796 157.366 30.3625C157.703 29.4245 157.704 28.3975 157.367 27.4594C157.21 27.0443 156.974 26.6641 156.672 26.3402C156.376 26.0283 156.02 25.7796 155.626 25.609C155.212 25.4294 154.765 25.3387 154.314 25.3426V25.3426Z" fill="#141927"/>
<path d="M54.3019 34.3236L51.9658 34.3233L51.9683 19.6973L54.3044 19.6976L54.3019 34.3236ZM57.279 26.5456L64.0005 34.3252L61.1129 34.3245L54.3692 26.5453L60.4763 19.6985L63.3417 19.6991L57.279 26.5456Z" fill="#141927"/>
<path d="M69.1362 35.5685C68.7956 36.46 68.2293 37.2467 67.4934 37.8506C66.8084 38.3375 65.9841 38.5864 65.1456 38.5595C64.8435 38.5586 64.5418 38.54 64.2419 38.504C63.9446 38.4688 63.6501 38.4133 63.3604 38.3377V36.3655C63.625 36.3946 63.8602 36.4167 64.0661 36.4318C64.2715 36.4464 64.4697 36.4538 64.6607 36.4539C65.1239 36.4628 65.5821 36.3564 65.9944 36.1441C66.4659 35.8389 66.826 35.3879 67.0203 34.859L67.4607 33.8397L63.1426 23.4453L65.6329 23.4459L68.7179 31.3799L71.9374 23.4469L74.4056 23.4472L69.1362 35.5685Z" fill="#141927"/>
<path d="M77.9318 24.7768C78.3567 24.2796 78.8882 23.8857 79.4864 23.6247C80.1359 23.339 80.8385 23.1955 81.5474 23.2039C82.2588 23.1959 82.964 23.3366 83.6185 23.6171C84.273 23.8976 84.8623 24.3117 85.3492 24.8332C85.8346 25.3561 86.2127 25.97 86.462 26.6399C86.7314 27.3624 86.8656 28.1287 86.8581 28.9002C86.8661 29.6682 86.7316 30.431 86.4614 31.1494C86.2112 31.8129 85.837 32.4221 85.3591 32.9443C84.888 33.4543 84.3177 33.8615 83.6836 34.1407C83.0165 34.433 82.2954 34.5801 81.5677 34.5723C80.8043 34.5818 80.0482 34.4228 79.3525 34.1065C78.7095 33.8175 78.1569 33.3578 77.7542 32.7768V34.328L75.6167 34.3276L75.6192 17.707L77.9331 17.7073L77.9318 24.7768ZM81.1723 25.3312C80.7627 25.331 80.3561 25.4022 79.9706 25.5415C79.5799 25.683 79.2232 25.9058 78.9238 26.1952C78.6034 26.5086 78.3519 26.8861 78.1854 27.3032C77.9898 27.8115 77.8961 28.3538 77.9096 28.8986C77.8964 29.4481 77.9937 29.9946 78.1959 30.5053C78.3648 30.924 78.6202 31.3017 78.9454 31.6136C79.2453 31.8968 79.602 32.1122 79.9916 32.2453C80.3711 32.3767 80.7697 32.4442 81.1711 32.445C81.6218 32.4488 82.0685 32.3583 82.4826 32.1792C82.877 32.0086 83.2332 31.7599 83.53 31.448C83.832 31.1243 84.068 30.7442 84.2246 30.3292C84.5616 29.3912 84.5619 28.3644 84.2253 27.4263C84.0676 27.0091 83.8275 26.6283 83.5196 26.3068C83.2192 25.997 82.8592 25.7519 82.4616 25.5865C82.0531 25.4156 81.6147 25.3288 81.1723 25.3313V25.3312Z" fill="#141927"/>
<path d="M94.0006 23.2073C94.6871 23.201 95.3683 23.329 96.0061 23.5844C96.5992 23.8175 97.1381 24.1711 97.5893 24.6229C98.0405 25.0748 98.3942 25.6153 98.6284 26.2107C98.8817 26.8406 99.0089 27.5146 99.0029 28.1941C99.0035 28.4758 98.9849 28.7572 98.9473 29.0363C98.9218 29.2457 98.8814 29.4529 98.8264 29.6565L90.7589 29.6553C90.8782 30.4827 91.3033 31.2345 91.9495 31.7609C92.618 32.2759 93.4432 32.5422 94.285 32.5147C94.8757 32.5233 95.4616 32.4064 96.0042 32.1715C96.5287 31.9361 97.0127 31.6183 97.4378 31.23L98.5612 32.8258C97.9961 33.367 97.3393 33.8021 96.6217 34.1106C95.8681 34.4275 95.0579 34.5858 94.2412 34.5758C93.442 34.5828 92.6488 34.436 91.9044 34.1435C91.2178 33.8782 90.5921 33.475 90.0655 32.9586C89.5389 32.4422 89.1225 31.8233 88.8416 31.1398C88.5447 30.4317 88.3946 29.6702 88.4006 28.9018C88.3948 28.1343 88.5412 27.3734 88.8311 26.6635C89.1048 25.9882 89.5093 25.3744 90.0211 24.8577C90.5314 24.3461 91.1337 23.9363 91.7959 23.6502C92.4923 23.3506 93.2431 23.1998 94.0006 23.2073ZM93.9334 25.1796C93.1924 25.1606 92.4705 25.417 91.9057 25.8996C91.3331 26.4038 90.9451 27.0864 90.8039 27.8384L96.6889 27.8393C96.6974 27.4684 96.6259 27.1001 96.4793 26.7596C96.3328 26.4191 96.1148 26.1145 95.8401 25.8667C95.3096 25.4108 94.6312 25.1663 93.9334 25.1796Z" fill="#141927"/>
<path d="M106.52 23.3419C106.686 23.3404 106.852 23.3516 107.016 23.3754C107.156 23.3974 107.284 23.4233 107.402 23.453L107.401 25.5139L106.696 25.5136C106.281 25.5118 105.868 25.5754 105.473 25.7021C105.1 25.8182 104.755 26.0105 104.459 26.2668C104.165 26.527 103.932 26.8484 103.775 27.2086C103.598 27.625 103.512 28.0745 103.521 28.5272L103.52 34.3332L101.207 34.3329L101.208 23.4521L103.346 23.4524L103.345 24.9151C103.709 24.4139 104.19 24.0105 104.746 23.7405C105.3 23.4743 105.906 23.338 106.52 23.3419Z" fill="#141927"/>
</svg>
