<svg xmlns="http://www.w3.org/2000/svg" viewBox="0 0 284.50208 98.83533"><defs><style>.cls-1{fill:none;stroke:#fff;stroke-miterlimit:10;opacity:0;}.cls-2{fill:#697680;}.cls-3{fill:#fff;}.cls-4{fill:#78d5ff;}.cls-5{fill:#08a1e7;}.cls-6{fill:#1183b7;}</style></defs><g id="text"><circle class="cls-1" cx="43.26998" cy="3.9212" r="3.4212"/><path class="cls-2" d="M212.882,29.97059V11.65973a4.56383,4.56383,0,0,1,4.56383-4.56383h55.15a4.56383,4.56383,0,0,1,4.56383,4.56383v13.747a4.56383,4.56383,0,0,1-4.56383,4.56383Z"/><path class="cls-3" d="M232.98259,20.04093a7.169,7.169,0,0,1-.24951,1.93066,4.798,4.798,0,0,1-.73144,1.55664,3.35474,3.35474,0,0,1-2.81787,1.40918,3.66489,3.66489,0,0,1-1.60987-.33008,3.27012,3.27012,0,0,1-1.16357-.94531l-.08057,1.09668h-1.51611V11.06046h1.6499v5.083a3.16066,3.16066,0,0,1,1.1416-.90039,3.65714,3.65714,0,0,1,1.56055-.3125,3.54329,3.54329,0,0,1,1.64111.36621,3.37972,3.37972,0,0,1,1.19483,1.0166,4.68025,4.68025,0,0,1,.73144,1.55566,7.44919,7.44919,0,0,1,.24951,1.98438Zm-1.64941-.1875a6.30707,6.30707,0,0,0-.13867-1.3418,3.50742,3.50742,0,0,0-.44141-1.124,2.26856,2.26856,0,0,0-.79345-.77149,2.36786,2.36786,0,0,0-1.20411-.28515,2.62483,2.62483,0,0,0-.78466.11132,2.2364,2.2364,0,0,0-.6377.3125,2.48987,2.48987,0,0,0-.49951.47266,2.98344,2.98344,0,0,0-.37012.59277V22.039a3.31843,3.31843,0,0,0,.37891.59278,2.56847,2.56847,0,0,0,.5039.47754,2.23213,2.23213,0,0,0,.64209.3164,2.62561,2.62561,0,0,0,.78516.11133,2.20114,2.20114,0,0,0,1.95752-1.04394,3.53589,3.53589,0,0,0,.45459-1.11426,5.89186,5.89186,0,0,0,.14746-1.33789Z"/><path class="cls-3" d="M240.028,24.93741a4.88542,4.88542,0,0,1-1.86816-.34863,4.23389,4.23389,0,0,1-1.458-.97168,4.43481,4.43481,0,0,1-.94531-1.48047,5.01156,5.01156,0,0,1-.33887-1.86328v-.375a5.51965,5.51965,0,0,1,.37452-2.0918,4.8009,4.8009,0,0,1,.99414-1.56054,4.34987,4.34987,0,0,1,1.40918-.97657,4.07223,4.07223,0,0,1,1.61865-.33886,4.31175,4.31175,0,0,1,1.82373.36132,3.59343,3.59343,0,0,1,1.29785.999,4.25735,4.25735,0,0,1,.771,1.50293,6.61711,6.61711,0,0,1,.25439,1.873v.73926h-6.89355a3.79173,3.79173,0,0,0,.2539,1.24024,3.21549,3.21549,0,0,0,.62451,1.01171,2.86368,2.86368,0,0,0,.94971.68262,2.94164,2.94164,0,0,0,1.22168.25,3.35207,3.35207,0,0,0,1.56982-.35742,3.39779,3.39779,0,0,0,1.14112-.94531l1.00781.78515a3.79593,3.79593,0,0,1-.602.7002,4.145,4.145,0,0,1-.8335.59277,4.69778,4.69778,0,0,1-1.07031.415A5.16833,5.16833,0,0,1,240.028,24.93741Zm-.21386-8.65137a2.449,2.449,0,0,0-1.74805.71875,3.04364,3.04364,0,0,0-.602.86426,4.1238,4.1238,0,0,0-.34326,1.18164h5.19043v-.124a3.68145,3.68145,0,0,0-.18262-.95508,2.67513,2.67513,0,0,0-.45947-.84668,2.29194,2.29194,0,0,0-.7627-.60644A2.40131,2.40131,0,0,0,239.81414,16.286Z"/><path class="cls-3" d="M250.632,12.77237v2.33692h3.67432v1.27539H250.632v5.24414a2.57063,2.57063,0,0,0,.14258.92676,1.47458,1.47458,0,0,0,.39258.585,1.43759,1.43759,0,0,0,.57519.30761,2.63862,2.63862,0,0,0,.69092.08887,5.1738,5.1738,0,0,0,.55322-.03125q.28491-.03076.55713-.07617.27173-.04395.5083-.09375c.15772-.03223.28662-.06055.38818-.084l.23194,1.168a2.33168,2.33168,0,0,1-.49951.21875,5.68192,5.68192,0,0,1-.64209.16016,7.366,7.366,0,0,1-.73584.10254c-.25879.02344-.51612.03613-.77149.03613a3.82151,3.82151,0,0,1-1.1997-.18359,2.47331,2.47331,0,0,1-.96729-.5791,2.74113,2.74113,0,0,1-.64648-1.02539,4.33592,4.33592,0,0,1-.23633-1.52051V16.38468H246.4406V15.10929h2.53272V12.77237Z"/><path class="cls-3" d="M264.027,24.7587a1.80113,1.80113,0,0,1-.15625-.46777,5.09079,5.09079,0,0,1-.08447-.585,4.56239,4.56239,0,0,1-.55762.47265,3.8724,3.8724,0,0,1-.67774.39258,4.155,4.155,0,0,1-.78906.26758,3.90508,3.90508,0,0,1-.89209.09863,4.07968,4.07968,0,0,1-1.38672-.22363,3.23571,3.23571,0,0,1-1.05224-.60156,2.62668,2.62668,0,0,1-.66895-.90039,2.70553,2.70553,0,0,1-.23633-1.12891,2.92462,2.92462,0,0,1,.3169-1.39063,2.76037,2.76037,0,0,1,.896-.99511,4.19536,4.19536,0,0,1,1.396-.59278,7.80958,7.80958,0,0,1,1.82373-.19629h1.80127V18.1503a1.85742,1.85742,0,0,0-.16064-.78515,1.68326,1.68326,0,0,0-.45459-.59278,2.09326,2.09326,0,0,0-.71778-.3789,3.1593,3.1593,0,0,0-.95019-.13379,2.87129,2.87129,0,0,0-.87842.125,2.147,2.147,0,0,0-.65527.33008,1.47351,1.47351,0,0,0-.41456.48535,1.24684,1.24684,0,0,0-.14746.585h-1.65869a2.31538,2.31538,0,0,1,.272-1.03516,2.91654,2.91654,0,0,1,.7583-.91406,3.95226,3.95226,0,0,1,1.20361-.65527,4.84072,4.84072,0,0,1,1.60986-.25,5.54723,5.54723,0,0,1,1.5249.20117,3.46688,3.46688,0,0,1,1.21729.60644,2.8684,2.8684,0,0,1,.80713,1.01172,3.21188,3.21188,0,0,1,.29443,1.418v4.48633a6.24861,6.24861,0,0,0,.08936,1.02051,4.51248,4.51248,0,0,0,.24951.9414v.14258Zm-2.916-1.25781a3.14735,3.14735,0,0,0,.90039-.124,3.37807,3.37807,0,0,0,.7627-.33007,2.76626,2.76626,0,0,0,.59277-.46875,2.28741,2.28741,0,0,0,.39258-.54786V20.07706h-1.53369a4.84356,4.84356,0,0,0-2.24756.42773,1.4239,1.4239,0,0,0-.80273,1.34668,1.76937,1.76937,0,0,0,.1206.66016,1.385,1.385,0,0,0,.36084.52148,1.72908,1.72908,0,0,0,.60645.34375A2.63113,2.63113,0,0,0,261.111,23.50089Z"/><path class="cls-4" d="M277.15972,53.52949V81.20917a3.2949,3.2949,0,0,1-3.32995,3.29,3.35234,3.35234,0,0,1-2.41-.96,3.002,3.002,0,0,1-1.03-2.33008V53.52949a13.18723,13.18723,0,0,0-8.21-12.25,13.83791,13.83791,0,0,0-10.42993,0,12.58916,12.58916,0,0,0-4.25,2.83984,14.47921,14.47921,0,0,0-2.87012,4.25,12.70969,12.70969,0,0,0-1.09,5.16016V81.20917a3.13261,3.13261,0,0,1-.97,2.33008,3.20965,3.20965,0,0,1-2.35.97022,3.38794,3.38794,0,0,1-2.41-.97022,3.03486,3.03486,0,0,1-1.03-2.33008V53.52949a13.18773,13.18773,0,0,0-8.21-12.25,13.83824,13.83824,0,0,0-10.43006,0,12.59053,12.59053,0,0,0-4.25,2.83984,14.2591,14.2591,0,0,0-2.86,4.25,12.38535,12.38535,0,0,0-1.09,5.08984,19.04272,19.04272,0,0,0-1.61-7.58984,21.07731,21.07731,0,0,0-1.8-3.25977,20.53924,20.53924,0,0,1,2.6-3.14013,20.77327,20.77327,0,0,1,6.42005-4.31006,19.287,19.287,0,0,1,7.80993-1.58985,19.804,19.804,0,0,1,9.58008,2.37989,20.43858,20.43858,0,0,1,7.28,6.58008,19.52469,19.52469,0,0,1,7.16992-6.58008,19.80406,19.80406,0,0,1,9.58008-2.37989,19.20638,19.20638,0,0,1,7.79993,1.58985,20.65628,20.65628,0,0,1,6.42,4.31006,20.42983,20.42983,0,0,1,4.36,6.35009A18.80334,18.80334,0,0,1,277.15972,53.52949Z"/><path class="cls-5" d="M209.93975,53.45917v27.8003a1.61433,1.61433,0,0,1-.02.31005,2.35894,2.35894,0,0,1-.04.27979,1.18683,1.18683,0,0,1-.04.2002.56153.56153,0,0,1-.03992.13964,3.18938,3.18938,0,0,1-.84,1.41016,3.24509,3.24509,0,0,1-2.3601.96,3.45232,3.45232,0,0,1-2.40992-.96,3.0841,3.0841,0,0,1-1.03-2.33008V53.58954a13.16994,13.16994,0,0,0-8.22-12.25,13.91486,13.91486,0,0,0-10.46,0,12.56168,12.56168,0,0,0-4.25,2.82959,14.277,14.277,0,0,0-2.87012,4.26026,12.55628,12.55628,0,0,0-1.09985,5.16015V81.26923a3.14847,3.14847,0,0,1-.97009,2.33008,3.22236,3.22236,0,0,1-2.36.96,3.37638,3.37638,0,0,1-2.41-.96,3.05873,3.05873,0,0,1-1.03992-2.33008V53.58954a13.13209,13.13209,0,0,0-8.22-12.25,13.91516,13.91516,0,0,0-10.46008,0,12.66244,12.66244,0,0,0-4.25,2.82959,14.46438,14.46438,0,0,0-2.87,4.26026,12.38545,12.38545,0,0,0-1.09008,5.08984V38.75947a20.78345,20.78345,0,0,1,5.63012-3.5503,19.6346,19.6346,0,0,1,7.80994-1.58984,20.11829,20.11829,0,0,1,9.61,2.37988,20.48271,20.48271,0,0,1,7.29,6.58008,19.68094,19.68094,0,0,1,7.18994-6.58008,20.01273,20.01273,0,0,1,9.59009-2.37988,19.64765,19.64765,0,0,1,7.82,1.58984,20.81736,20.81736,0,0,1,6.43,4.31006,20.49451,20.49451,0,0,1,4.37,6.3501A19.04272,19.04272,0,0,1,209.93975,53.45917Z"/><path class="cls-6" d="M141.54974,8.15937a3.41782,3.41782,0,0,0-2.41-.96,3.245,3.245,0,0,0-2.36.96,3.17022,3.17022,0,0,0-.97,2.33984v32.04a24.91529,24.91529,0,1,0,0,34.1499v4.58008a3.0498,3.0498,0,0,0,1.02991,2.33008,3.4104,3.4104,0,0,0,2.41015.96,3.20621,3.20621,0,0,0,2.35986-.96,3.15668,3.15668,0,0,0,.98-2.33008v-70.77A3.07991,3.07991,0,0,0,141.54974,8.15937Zm-23.87,69.58008a18.125,18.125,0,1,1,18.13-18.12012A18.12545,18.12545,0,0,1,117.67974,77.73945Z"/><path class="cls-5" d="M67.70573,28.89979,47.79718,8.99129a6.11671,6.11671,0,0,0-8.65033,0L19.23838,28.89978a35.83177,35.83177,0,0,0-11.69269,26.221A36.32187,36.32187,0,0,0,42.39225,91.33446,35.92712,35.92712,0,0,0,67.70573,28.89979Z"/><path class="cls-3" d="M40.78091,55.45526,60.26536,66.62575a1.02657,1.02657,0,0,0,1.5335-.887l0-20.582a1.02657,1.02657,0,0,0-1.5335-.887Z"/><path class="cls-3" d="M59.1378,39.45877,46.19327,29.58123a1.0271,1.0271,0,0,0-1.6237.60137L39.84879,52.19281,59.03256,41.17268A1.03433,1.03433,0,0,0,59.1378,39.45877Z"/><path class="cls-3" d="M46.19324,81.32929l12.95958-9.89256a1.01987,1.01987,0,0,0-.10524-1.69888L39.84878,58.7177l4.73579,22.01022A1.00983,1.00983,0,0,0,46.19324,81.32929Z"/><path class="cls-3" d="M35.78952,55.45526l5.09664-23.70909a1.02128,1.02128,0,0,0-1.6237-1.02234L26.21268,40.69157a2.69148,2.69148,0,0,0-1.06744,2.1499l0,25.25763a2.69147,2.69147,0,0,0,1.06743,2.1499l13.04977,9.95271a1.0264,1.0264,0,0,0,1.62371-1.02233Z"/></g></svg>