<svg width="40" height="40" viewBox="0 0 40 40" fill="none" xmlns="http://www.w3.org/2000/svg">
<rect width="40" height="40" fill="#F7F9FB"/>
<path d="M32.6877 6.6665L22.0555 14.5632L24.0216 9.90427L32.6877 6.6665Z" fill="#E2761B" stroke="#E2761B" stroke-width="0.106857" stroke-linecap="round" stroke-linejoin="round"/>
<path d="M8.1433 6.6665L18.6901 14.638L16.8201 9.90427L8.1433 6.6665ZM28.8628 24.9711L26.0311 29.3095L32.0899 30.9764L33.8317 25.0672L28.8628 24.9711ZM7.0213 25.0672L8.75238 30.9764L14.8112 29.3095L11.9795 24.9711L7.0213 25.0672Z" fill="#E4761B" stroke="#E4761B" stroke-width="0.106857" stroke-linecap="round" stroke-linejoin="round"/>
<path d="M14.4697 17.641L12.7814 20.1949L18.7974 20.462L18.5837 13.9972L14.4697 17.641ZM26.3629 17.641L22.1955 13.9224L22.0565 20.462L28.0619 20.1949L26.3629 17.641ZM14.8117 29.3097L18.4234 27.5466L15.3032 25.1103L14.8117 29.3097ZM22.4092 27.5466L26.0316 29.3097L25.5294 25.1103L22.4092 27.5466Z" fill="#E4761B" stroke="#E4761B" stroke-width="0.106857" stroke-linecap="round" stroke-linejoin="round"/>
<path d="M26.0316 29.3095L22.4091 27.5464L22.6976 29.9079L22.6656 30.9017L26.0316 29.3095ZM14.8116 29.3095L18.1776 30.9017L18.1562 29.9079L18.4233 27.5464L14.8116 29.3095Z" fill="#D7C1B3" stroke="#D7C1B3" stroke-width="0.106857" stroke-linecap="round" stroke-linejoin="round"/>
<path d="M18.2319 23.5497L15.2185 22.6628L17.345 21.6904L18.2319 23.5497ZM22.6023 23.5497L23.4892 21.6904L25.6264 22.6628L22.6023 23.5497Z" fill="#233447" stroke="#233447" stroke-width="0.106857" stroke-linecap="round" stroke-linejoin="round"/>
<path d="M14.8106 29.3092L15.3236 24.9708L11.9789 25.067L14.8106 29.3092ZM25.5177 24.9708L26.0306 29.3092L28.8623 25.067L25.5177 24.9708ZM28.0609 20.1943L22.0555 20.4615L22.6112 23.5496L23.4981 21.6903L25.6352 22.6627L28.0609 20.1943ZM15.2167 22.6627L17.3538 21.6903L18.2301 23.5496L18.7964 20.4615L12.7804 20.1943L15.2167 22.6627Z" fill="#CD6116" stroke="#CD6116" stroke-width="0.106857" stroke-linecap="round" stroke-linejoin="round"/>
<path d="M12.7814 20.1943L15.3032 25.1097L15.2177 22.6627L12.7814 20.1943ZM25.6362 22.6627L25.5294 25.1097L28.0619 20.1943L25.6362 22.6627ZM18.7974 20.4615L18.2311 23.5496L18.9363 27.1935L19.0966 22.3956L18.7974 20.4615ZM22.0565 20.4615L21.768 22.3849L21.8963 27.1935L22.6122 23.5496L22.0565 20.4615Z" fill="#E4751F" stroke="#E4751F" stroke-width="0.106857" stroke-linecap="round" stroke-linejoin="round"/>
<path d="M22.613 23.5495L21.8971 27.1933L22.41 27.546L25.5302 25.1096L25.637 22.6626L22.613 23.5495ZM15.2185 22.6626L15.304 25.1096L18.4242 27.546L18.9371 27.1933L18.2319 23.5495L15.2185 22.6626Z" fill="#F6851B" stroke="#F6851B" stroke-width="0.106857" stroke-linecap="round" stroke-linejoin="round"/>
<path d="M22.6656 30.9022L22.6976 29.9085L22.4305 29.6734H18.402L18.1562 29.9085L18.1776 30.9022L14.8116 29.3101L15.987 30.2718L18.3699 31.9281H22.4625L24.8561 30.2718L26.0316 29.3101L22.6656 30.9022Z" fill="#C0AD9E" stroke="#C0AD9E" stroke-width="0.106857" stroke-linecap="round" stroke-linejoin="round"/>
<path d="M22.409 27.5465L21.8961 27.1938H18.9362L18.4233 27.5465L18.1561 29.908L18.4019 29.6729H22.4304L22.6975 29.908L22.409 27.5465Z" fill="#161616" stroke="#161616" stroke-width="0.106857" stroke-linecap="round" stroke-linejoin="round"/>
<path d="M33.1371 15.0761L34.0454 10.7164L32.6883 6.6665L22.4087 14.2961L26.3624 17.6407L31.951 19.2756L33.1905 17.833L32.6562 17.4484L33.5111 16.6683L32.8486 16.1554L33.7034 15.5036L33.1371 15.0761ZM6.79688 10.7164L7.70516 15.0761L7.12813 15.5036L7.98299 16.1554L7.33116 16.6683L8.18601 17.4484L7.65173 17.833L8.88058 19.2756L14.4692 17.6407L18.4229 14.2961L8.14327 6.6665L6.79688 10.7164Z" fill="#763D16" stroke="#763D16" stroke-width="0.106857" stroke-linecap="round" stroke-linejoin="round"/>
<path d="M31.951 19.2761L26.3624 17.6412L28.0614 20.1951L25.5289 25.1105L28.8628 25.0678H33.8317L31.951 19.2761ZM14.4692 17.6412L8.88061 19.2761L7.0213 25.0678H11.9795L15.3027 25.1105L12.7809 20.1951L14.4692 17.6412ZM22.0561 20.4622L22.4087 14.2966L24.0329 9.90479H16.8201L18.4229 14.2966L18.7969 20.4622L18.9252 22.407L18.9358 27.1942H21.8958L21.9171 22.407L22.0561 20.4622Z" fill="#F6851B" stroke="#F6851B" stroke-width="0.106857" stroke-linecap="round" stroke-linejoin="round"/>
</svg>
