<svg width="40" height="40" viewBox="0 0 40 40" fill="none" xmlns="http://www.w3.org/2000/svg">
<g clip-path="url(#clip0_28292_12829)">
<rect width="40" height="40" fill="#FDF2EC"/>
<g filter="url(#filter0_dd_28292_12829)">
<path d="M32.1442 31.5512L26.3485 29.8255L21.978 32.4383L18.9285 32.4369L14.5552 29.8255L8.76223 31.5512L7 25.6025L8.76223 19.0002L7 13.4183L8.76223 6.5L17.8143 11.9082H23.092L32.1442 6.5L33.9064 13.4183L32.1442 19.0002L33.9064 25.6025L32.1442 31.5512Z" fill="#FF5C16"/>
<path d="M8.76337 6.50002L17.8156 11.912L17.4557 15.6262L8.76337 6.50002ZM14.5566 25.605L18.5395 28.6391L14.5566 29.8255V25.605ZM18.2212 20.5889L17.4557 15.6287L12.5557 19.0018L12.5531 19.0004V19.0029L12.5683 22.4749L14.5552 20.5891L18.2212 20.5889ZM32.1442 6.50002L23.092 11.912L23.4508 15.6262L32.1442 6.50002ZM26.3512 25.605L22.3681 28.6391L26.3512 29.8255V25.605ZM28.3532 19.0027V19.0003L28.3521 19.0016L23.4521 15.6287L22.6866 20.5889H26.351L28.3393 22.4745L28.3532 19.0027Z" fill="#FF5C16"/>
<path d="M14.5552 29.8255L8.76223 31.5513L7 25.605H14.5552V29.8255ZM18.2198 20.5875L19.3265 27.7585L17.7928 23.7713L12.5658 22.4745L14.5539 20.5877H18.2198V20.5875ZM26.351 29.8255L32.1442 31.5513L33.9064 25.605H26.351V29.8255ZM22.6866 20.5875L21.58 27.7585L23.1135 23.7713L28.3406 22.4745L26.3512 20.5877H22.6866V20.5875Z" fill="#E34807"/>
<path d="M7 25.6025L8.76223 19.0003H12.5517L12.5656 22.4734L17.793 23.7701L19.3265 27.7572L18.5381 28.6353L14.5552 25.6012H7V25.6025ZM33.9064 25.6025L32.1442 19.0003H28.3545L28.3406 22.4734L23.1137 23.7701L21.58 27.7572L22.3681 28.6353L26.3512 25.6012H33.9064V25.6025ZM23.092 11.9082H17.8143L17.4558 15.6224L19.3266 27.7534H21.58L23.4519 15.6224L23.092 11.9082Z" fill="#FF8D5D"/>
<path d="M8.76223 6.5L7 13.4183L8.76223 19.0002H12.5517L17.4543 15.6262L8.76223 6.5ZM17.1246 22.0279H15.4078L14.4731 22.9441L17.7941 23.7675L17.1246 22.0267V22.0279ZM32.1442 6.5L33.9064 13.4183L32.1442 19.0002H28.3545L23.4521 15.6262L32.1442 6.5ZM23.7843 22.0279H25.5036L26.4383 22.9453L23.1135 23.7701L23.7843 22.0265V22.0279ZM21.9766 30.0718L22.3683 28.6377L21.58 27.7596H19.3249L18.5368 28.6377L18.9283 30.0718" fill="#661800"/>
<path d="M21.9766 30.0716V32.4394H18.9285V30.0716H21.9766Z" fill="#C0C4CD"/>
<path d="M14.5566 29.8231L18.931 32.4383V30.0704L18.5393 28.6366L14.5566 29.8231ZM26.3512 29.8231L21.9766 32.4383V30.0704L22.3683 28.6366L26.3512 29.8231Z" fill="#E7EBF6"/>
</g>
</g>
<defs>
<filter id="filter0_dd_28292_12829" x="1" y="4.5" width="39" height="38.0493" filterUnits="userSpaceOnUse" color-interpolation-filters="sRGB">
<feFlood flood-opacity="0" result="BackgroundImageFix"/>
<feColorMatrix in="SourceAlpha" type="matrix" values="0 0 0 0 0 0 0 0 0 0 0 0 0 0 0 0 0 0 127 0" result="hardAlpha"/>
<feOffset dy="2"/>
<feGaussianBlur stdDeviation="1"/>
<feComposite in2="hardAlpha" operator="out"/>
<feColorMatrix type="matrix" values="0 0 0 0 0 0 0 0 0 0 0 0 0 0 0 0 0 0 0.06 0"/>
<feBlend mode="normal" in2="BackgroundImageFix" result="effect1_dropShadow_28292_12829"/>
<feColorMatrix in="SourceAlpha" type="matrix" values="0 0 0 0 0 0 0 0 0 0 0 0 0 0 0 0 0 0 127 0" result="hardAlpha"/>
<feMorphology radius="2" operator="dilate" in="SourceAlpha" result="effect2_dropShadow_28292_12829"/>
<feOffset dy="4"/>
<feGaussianBlur stdDeviation="2"/>
<feComposite in2="hardAlpha" operator="out"/>
<feColorMatrix type="matrix" values="0 0 0 0 0 0 0 0 0 0 0 0 0 0 0 0 0 0 0.04 0"/>
<feBlend mode="multiply" in2="effect1_dropShadow_28292_12829" result="effect2_dropShadow_28292_12829"/>
<feBlend mode="normal" in="SourceGraphic" in2="effect2_dropShadow_28292_12829" result="shape"/>
</filter>
<clipPath id="clip0_28292_12829">
<rect width="40" height="40" fill="white"/>
</clipPath>
</defs>
</svg>
