<svg width="950" height="950" viewBox="0 0 950 950" fill="none" xmlns="http://www.w3.org/2000/svg">
<path d="M375 850C526.88 850 650 726.88 650 575C650 423.12 526.88 300 375 300C223.12 300 100 423.12 100 575C100 726.88 223.12 850 375 850ZM375 950C167.9 950 0 782.1 0 575C0 367.9 167.9 200 375 200C582.1 200 750 367.9 750 575C750 782.1 582.1 950 375 950Z" fill="#013F2C"/>
<path d="M575 650C726.88 650 850 526.88 850 375C850 223.12 726.88 100 575 100C423.12 100 300 223.12 300 375C300 526.88 423.12 650 575 650ZM575 750C367.9 750 200 582.1 200 375C200 167.9 367.9 0 575 0C782.1 0 950 167.9 950 375C950 582.1 782.1 750 575 750Z" fill="#013F2C"/>
<path d="M587.39 750C613.391 718.49 632.028 681.572 641.94 641.94C681.571 632.032 718.49 613.398 750 587.4C748.563 633.297 738.678 678.536 720.84 720.85C678.526 738.685 633.287 748.567 587.39 750ZM308.06 308.06C268.429 317.968 231.51 336.602 200 362.6C201.437 316.703 211.322 271.463 229.16 229.15C271.474 211.315 316.713 201.433 362.61 200C336.609 231.51 317.972 268.428 308.06 308.06V308.06Z" fill="#013F2C"/>
</svg>
