<svg width="428" height="434" viewBox="0 0 428 434" fill="none" xmlns="http://www.w3.org/2000/svg">
<path fill-rule="evenodd" clip-rule="evenodd" d="M230.051 2.06812C204.752 5.65895 157.848 21.8835 133.944 35.3107C99.426 54.7061 62.9659 87.3584 37.8401 121.375C24.5017 139.436 17.9633 150.717 3.64581 180.371C-2.30455 192.698 -2.30455 192.698 13.8526 177.469C52.0012 141.526 93.3219 116.53 144.121 98.6717C180.827 85.7662 183.721 85.5987 188.905 96.0555C202.662 123.813 237.115 140.51 266.702 133.762C280.917 130.52 313.976 116.87 314.025 114.224C314.041 113.31 306.469 111.811 297.196 110.891C287.925 109.971 273.055 107.286 264.153 104.923C246.424 100.217 187.279 71.9272 187.279 68.1552C187.279 62.3874 258.91 58.6895 295.173 62.585C340.801 67.4881 406.63 84.97 439.818 100.997C455.573 108.604 456.62 109.741 462.433 125.556C467.814 140.202 472.47 145.981 502.302 175.023C520.879 193.112 535.585 208.362 534.984 208.917C527.655 215.648 508.873 221.578 494.885 221.578C485.924 221.578 478.593 222.591 478.593 223.829C478.593 225.067 482.558 230.937 487.402 236.869C504.992 258.411 504.881 254.678 488.662 279.805C480.581 292.324 471.946 306.58 469.47 311.486C464.968 320.408 464.968 320.408 432.433 320.408C399.897 320.408 399.897 320.408 388.668 307.854C379.732 297.861 375.168 294.995 366.294 293.809C323.201 288.047 293.037 337.311 308.312 388.496C321.682 433.296 366.057 472.848 417.902 486.173C439.319 491.68 472.354 494.524 487.688 492.185C499.26 490.418 500.97 488.987 515.217 469.183C553.326 416.199 573 355.243 573 290.152C573 208.62 541.657 137.784 478.593 76.8001C448.825 48.0131 396.863 20.1485 351.704 8.75837C319.897 0.733915 261.917 -2.45335 230.051 2.06812ZM362.82 143.642C362.936 144.985 372.136 154.332 383.266 164.413C403.504 182.743 403.504 182.743 414.415 178.826C429.067 173.563 432.425 173.829 447.117 181.398C460.947 188.525 463.126 187.366 453.397 178.065C449.925 174.743 444.255 165.882 440.8 158.368C434.513 144.71 434.513 144.71 412.721 144.685C400.736 144.674 384.555 143.884 376.768 142.931C368.98 141.978 362.701 142.3 362.82 143.642ZM165.142 180.415C85.2757 197.345 15.6167 269.524 3.69975 347.696C-2.73882 389.938 10.7749 434.554 43.5315 479.211C72.671 518.938 102.868 545.211 141.61 564.545C162.401 574.923 163.634 575.241 155.979 568.257C151.374 564.057 140.817 552.815 132.52 543.278C89.7776 494.148 71.8321 445.03 74.7669 385.205C76.9571 340.542 85.969 309.965 108.797 269.738C123.926 243.082 168.23 196.014 189.976 183.498C203.587 175.666 204.143 174.98 196.72 175.196C192.269 175.328 178.059 177.675 165.142 180.415ZM269.624 202.542C239.103 207.736 212.758 222.981 188.816 249.3C163.518 277.109 151.709 304.255 148.186 342.691C144.299 385.073 154.935 424.893 180.819 464.873C223.909 531.426 297.892 565.317 371.761 552.343C396.706 547.961 408.48 542.775 393.483 542.775C369.833 542.775 311.664 517.376 283.785 494.876C254.618 471.335 231.572 437.574 218.101 398.648C211.056 378.287 209.664 328.46 215.561 307.684C227.213 266.622 254.235 231.06 289.851 209.91C307.187 199.616 307.187 199.616 295.111 199.94C288.47 200.115 277.001 201.288 269.624 202.542Z" fill="#151515"/>
</svg>
