<svg width="8" height="14" viewBox="0 0 8 14" fill="currentColor" xmlns="http://www.w3.org/2000/svg">
<path d="M3.99998 8.66492L0.969975 7.65243L3.99998 6.13742L7.02999 7.65243L3.99998 8.66492ZM3.99998 9.81994C3.93998 9.81994 3.87999 9.81241 3.81999 9.78992L0.684238 8.74447C0.478738 8.67622 0.304736 8.90867 0.428486 9.08642L3.49747 13.4867C3.73747 13.8392 4.26249 13.8392 4.50249 13.4867L7.57148 9.08642C7.69523 8.90867 7.52122 8.67622 7.31572 8.74447L4.17997 9.78992C4.11997 9.81241 4.05998 9.81994 3.99998 9.81994ZM4.25498 5.00491L7.37423 6.56415C7.57148 6.66315 7.77848 6.44792 7.67198 6.25442L4.53998 0.564146C4.30748 0.144146 3.69248 0.144146 3.45998 0.564146L0.327984 6.25442C0.221484 6.44792 0.428486 6.66315 0.625736 6.56415L3.74498 5.00491C3.90998 4.92991 4.08998 4.92991 4.25498 5.00491Z" fill="currentColor"/>
</svg>
