<svg width="13" height="13" viewBox="0 0 13 13" fill="none" xmlns="http://www.w3.org/2000/svg">
<path fill="currentColor" d="M6.5 0.5C3.1868 0.5 0.5 3.1868 0.5 6.5C0.5 9.8132 3.1868 12.5 6.5 12.5C9.8132 12.5 12.5 9.8132 12.5 6.5C12.5 3.1868 9.8144 0.5 6.5 0.5ZM3.4604 6.7016L3.4856 6.6608L5.0468 4.2188C5.0696 4.184 5.1236 4.1876 5.1404 4.226C5.4008 4.8104 5.6264 5.5376 5.5208 5.99C5.4764 6.176 5.3528 6.428 5.2136 6.6608C5.1956 6.6944 5.1764 6.728 5.1548 6.7604C5.1452 6.7748 5.1284 6.7832 5.1104 6.7832H3.506C3.4628 6.7832 3.4376 6.7364 3.4604 6.7016ZM10.4168 7.5416C10.4168 7.5644 10.4036 7.5836 10.3844 7.592C10.2632 7.6436 9.8492 7.8344 9.6776 8.0732C9.2384 8.684 8.9036 9.5576 8.1536 9.5576H5.0264C3.9176 9.5576 3.02 8.6564 3.02 7.544V7.508C3.02 7.4792 3.044 7.4552 3.074 7.4552H4.8164C4.8512 7.4552 4.8764 7.4864 4.874 7.5212C4.8608 7.634 4.8824 7.7504 4.9364 7.856C5.0396 8.066 5.2544 8.1968 5.486 8.1968H6.3488V7.5236H5.4956C5.4524 7.5236 5.426 7.4732 5.4512 7.4372C5.4608 7.4228 5.4704 7.4084 5.4824 7.3916C5.5628 7.2764 5.678 7.0988 5.7932 6.896C5.8712 6.7592 5.9468 6.6128 6.008 6.4664C6.02 6.44 6.0296 6.4124 6.0404 6.386C6.0572 6.3392 6.074 6.2948 6.086 6.2516C6.098 6.2144 6.1088 6.176 6.1184 6.14C6.1472 6.0152 6.1592 5.8832 6.1592 5.7464C6.1592 5.6924 6.1568 5.636 6.152 5.5832C6.1496 5.5244 6.1424 5.4656 6.1352 5.4068C6.1304 5.3552 6.1208 5.3036 6.1112 5.2508C6.098 5.1728 6.0812 5.0948 6.062 5.0168L6.0548 4.9868C6.0404 4.9328 6.0272 4.8824 6.0104 4.8284C5.9612 4.6604 5.906 4.496 5.846 4.3424C5.8244 4.2812 5.8004 4.2224 5.7752 4.1648C5.7392 4.076 5.702 3.9956 5.6684 3.92C5.6504 3.8852 5.636 3.854 5.6216 3.8216C5.6048 3.7856 5.588 3.7496 5.57 3.7148C5.558 3.6884 5.5436 3.6632 5.534 3.6392L5.4284 3.4448C5.414 3.4184 5.438 3.386 5.4668 3.3944L6.1268 3.5732H6.1292C6.1304 3.5732 6.1304 3.5732 6.1316 3.5732L6.218 3.5984L6.314 3.6248L6.3488 3.6344V3.2432C6.3488 3.0536 6.5 2.9 6.6884 2.9C6.782 2.9 6.8672 2.9384 6.9272 3.0008C6.9884 3.0632 7.0268 3.1484 7.0268 3.2432V3.8252L7.0976 3.8444C7.1024 3.8468 7.1084 3.8492 7.1132 3.8528C7.13 3.8648 7.1552 3.884 7.1864 3.908C7.2116 3.9272 7.238 3.9512 7.2692 3.9764C7.3328 4.028 7.4096 4.094 7.4924 4.1696C7.514 4.1888 7.5356 4.208 7.556 4.2284C7.6628 4.328 7.7828 4.4444 7.898 4.574C7.9304 4.6112 7.9616 4.6472 7.994 4.6868C8.0252 4.7264 8.06 4.7648 8.0888 4.8032C8.1284 4.8548 8.1692 4.9088 8.2064 4.9652C8.2232 4.9916 8.2436 5.0192 8.2592 5.0456C8.3072 5.1164 8.348 5.1896 8.3876 5.2628C8.4044 5.2964 8.4212 5.3336 8.4356 5.3696C8.48 5.468 8.5148 5.5676 8.5364 5.6684C8.5436 5.69 8.5484 5.7128 8.5508 5.7344V5.7392C8.558 5.768 8.5604 5.7992 8.5628 5.8316C8.5724 5.9336 8.5676 6.0368 8.546 6.14C8.5364 6.1832 8.5244 6.224 8.51 6.2684C8.4944 6.3104 8.48 6.3536 8.4608 6.3956C8.4236 6.4808 8.3804 6.5672 8.3288 6.6464C8.312 6.6764 8.2916 6.7076 8.2724 6.7376C8.2508 6.7688 8.228 6.7988 8.2088 6.8276C8.1812 6.8648 8.1524 6.9032 8.1224 6.938C8.096 6.974 8.0696 7.01 8.0396 7.0424C7.9988 7.0916 7.9592 7.1372 7.9172 7.1816C7.8932 7.2104 7.8668 7.2404 7.8392 7.2668C7.8128 7.2968 7.7852 7.3232 7.7612 7.3472C7.7192 7.3892 7.6856 7.4204 7.6568 7.448L7.5884 7.5092C7.5788 7.5188 7.5656 7.5236 7.5524 7.5236H7.0268V8.1968H7.688C7.8356 8.1968 7.976 8.1452 8.09 8.048C8.1284 8.0144 8.2976 7.868 8.498 7.6472C8.5052 7.6388 8.5136 7.634 8.5232 7.6316L10.3484 7.1036C10.3832 7.094 10.4168 7.1192 10.4168 7.1552V7.5416Z"/>
</svg>
