<svg stroke="currentColor" width="20" height="18" viewBox="0 0 20 18" fill="none" xmlns="http://www.w3.org/2000/svg">
<path d="M19.1666 1.49996C18.3686 2.06285 17.485 2.49338 16.5499 2.77496C16.048 2.19788 15.381 1.78887 14.6391 1.60323C13.8972 1.41759 13.1162 1.46429 12.4017 1.737C11.6871 2.00972 11.0736 2.49529 10.6441 3.12805C10.2145 3.76082 9.98967 4.51024 9.99992 5.27496V6.10829C8.53545 6.14626 7.08431 5.82147 5.77576 5.16283C4.4672 4.50419 3.34185 3.53215 2.49992 2.33329C2.49992 2.33329 -0.833415 9.83329 6.66658 13.1666C4.95036 14.3316 2.90588 14.9157 0.833252 14.8333C8.33325 19 17.4999 14.8333 17.4999 5.24996C17.4991 5.01783 17.4768 4.78629 17.4333 4.55829C18.2838 3.71953 18.8839 2.66055 19.1666 1.49996V1.49996Z" stroke-linecap="round" stroke-linejoin="round"/>
</svg>
