<svg width="32" height="32" viewBox="0 0 32 32" fill="none" xmlns="http://www.w3.org/2000/svg">
<path d="M27.1992 7.60967C26.2416 8.28514 25.1813 8.80177 24.0592 9.13967C23.457 8.44718 22.6566 7.95636 21.7663 7.73359C20.876 7.51083 19.9387 7.56686 19.0813 7.89412C18.2239 8.22138 17.4877 8.80407 16.9722 9.56338C16.4567 10.3227 16.1869 11.222 16.1992 12.1397V13.1397C14.4419 13.1852 12.7005 12.7955 11.1302 12.0051C9.55996 11.2147 8.20954 10.0483 7.19922 8.60967C7.19922 8.60967 3.19922 17.6097 12.1992 21.6097C10.1397 23.0076 7.68638 23.7086 5.19922 23.6097C14.1992 28.6097 25.1992 23.6097 25.1992 12.1097C25.1983 11.8311 25.1715 11.5533 25.1192 11.2797C26.1398 10.2732 26.86 9.00238 27.1992 7.60967Z" stroke="#99A1BD" stroke-width="1.5" stroke-linecap="round" stroke-linejoin="round"/>
</svg>
