<svg width="24" height="24" viewBox="0 0 24 24" fill="none" xmlns="http://www.w3.org/2000/svg">
<path d="M23.2002 3.60967C22.2426 4.28514 21.1823 4.80177 20.0602 5.13967C19.4579 4.44718 18.6575 3.95636 17.7672 3.73359C16.8769 3.51083 15.9397 3.56686 15.0823 3.89412C14.2249 4.22138 13.4886 4.80407 12.9732 5.56338C12.4577 6.3227 12.1879 7.222 12.2002 8.13967V9.13966C10.4428 9.18523 8.70147 8.79548 7.1312 8.00511C5.56094 7.21474 4.21051 6.0483 3.2002 4.60967C3.2002 4.60967 -0.799804 13.6097 8.2002 17.6097C6.14072 19.0076 3.68735 19.7086 1.2002 19.6097C10.2002 24.6097 21.2002 19.6097 21.2002 8.10966C21.1993 7.83112 21.1725 7.55326 21.1202 7.27967C22.1408 6.27316 22.861 5.00238 23.2002 3.60967Z" stroke="currentColor"/>
</svg>
