<svg width="73" height="73" viewBox="0 0 73 73" fill="none" xmlns="http://www.w3.org/2000/svg">
<g opacity="0.3">
<path d="M23.5605 24.147C24.4523 23.908 24.8262 22.85 24.3198 22.078C23.4258 20.7152 22.7717 19.4959 22.5225 18.5661C21.2286 13.7373 23.8688 8.83428 28.4194 7.61494C32.9701 6.39559 37.708 9.32163 39.0019 14.1504C39.251 15.0801 39.2941 16.4629 39.2014 18.0899C39.1488 19.012 40.0018 19.7415 40.894 19.5025C41.2763 19.4 41.5909 19.1302 41.7599 18.7723C42.4393 17.3331 43.121 16.1742 43.7684 15.5072C47.1635 12.0098 52.6459 11.9856 56.0138 15.4533C59.3816 18.9209 59.3595 24.5672 55.9644 28.0647C55.0336 29.0236 53.115 30.0558 50.8202 31.0491C50.364 31.2465 50.1161 31.7468 50.2448 32.227C50.3734 32.7073 50.8382 33.0165 51.3321 32.9594C53.816 32.6722 55.9937 32.6069 57.2793 32.9719C61.9683 34.3032 64.8106 39.182 63.6278 43.869C62.4449 48.556 57.6849 51.2763 52.996 49.9449C52.1018 49.6911 50.932 49.0282 49.6241 48.1216C49.2987 47.8961 48.8914 47.8197 48.509 47.9222C47.6169 48.1612 47.2429 49.2195 47.7495 49.9918C48.6433 51.3544 49.2973 52.5735 49.5464 53.5032C50.8403 58.332 48.2002 63.235 43.6495 64.4544C39.0989 65.6737 34.3609 62.7477 33.0671 57.9189C32.8179 56.9891 32.7748 55.606 32.8676 53.9788C32.9201 53.057 32.0674 52.3277 31.1755 52.5667C30.7933 52.6691 30.4788 52.9388 30.3098 53.2967C29.6304 54.7358 28.9487 55.8948 28.3013 56.5617C24.9062 60.0592 19.4238 60.0834 16.056 56.6157C12.6881 53.1481 12.7102 47.5018 16.1053 44.0043C17.0362 43.0454 18.9549 42.0131 21.2497 41.0199C21.7059 40.8224 21.9537 40.3222 21.825 39.8421C21.6964 39.3619 21.2317 39.0526 20.7378 39.1097C18.2539 39.397 16.0761 39.4623 14.7905 39.0973C10.1015 37.766 7.25921 32.8872 8.44203 28.2002C9.62484 23.5132 14.3849 20.7929 19.0738 22.1242C19.9679 22.3781 21.1378 23.041 22.4457 23.9476C22.771 24.1731 23.1782 24.2494 23.5605 24.147Z" fill="#FF37C7"/>
</g>
</svg>
