<svg width="70" height="41" viewBox="0 0 70 41" fill="none" xmlns="http://www.w3.org/2000/svg">
<g opacity="0.3">
<path d="M39.3528 -20.2549C39.3528 -22.6698 37.3952 -24.6274 34.9803 -24.6274C32.5653 -24.6274 30.6077 -22.6698 30.6077 -20.2549V-16.5275C30.6077 -14.6738 28.2936 -15.0085 27.5051 -16.6861C26.5628 -18.6909 25.6104 -20.3055 24.7003 -21.2156C20.1009 -25.8151 12.5854 -25.7568 7.91409 -21.0855C3.24277 -16.4142 3.18451 -8.89871 7.78397 -4.29925C8.69404 -3.38919 10.3087 -2.4368 12.3135 -1.49446C13.9911 -0.705931 14.3258 1.6081 12.4721 1.6081H8.74472C6.32981 1.6081 4.37213 3.56577 4.37213 5.98069C4.37213 8.3956 6.32981 10.3533 8.74472 10.3533H12.4721C14.3258 10.3533 13.9911 12.6673 12.3135 13.4558C10.3087 14.3982 8.69404 15.3506 7.78397 16.2606C3.18451 20.8601 3.24277 28.3755 7.91409 33.0469C12.5854 37.7182 20.1009 37.7764 24.7003 33.177C25.6104 32.2669 26.5628 30.6522 27.5051 28.6474C28.2936 26.9698 30.6077 26.6352 30.6077 28.4889V32.2162C30.6077 34.6311 32.5653 36.5888 34.9803 36.5888C37.3952 36.5888 39.3528 34.6311 39.3528 32.2162V28.4889C39.3528 26.6352 41.6669 26.9698 42.4554 28.6474C43.3977 30.6522 44.3501 32.2669 45.2602 33.177C49.8597 37.7764 57.3751 37.7182 62.0464 33.0469C66.7177 28.3755 66.776 20.8601 62.1765 16.2606C61.2665 15.3506 59.6518 14.3982 57.647 13.4558C55.9694 12.6673 55.6348 10.3533 57.4884 10.3533H61.2158C63.6307 10.3533 65.5884 8.3956 65.5884 5.98069C65.5884 3.56577 63.6307 1.6081 61.2158 1.6081H57.4884C55.6348 1.6081 55.9694 -0.705931 57.647 -1.49446C59.6518 -2.4368 61.2665 -3.38919 62.1765 -4.29925C66.776 -8.89871 66.7177 -16.4142 62.0464 -21.0855C57.3751 -25.7568 49.8597 -25.8151 45.2602 -21.2156C44.3501 -20.3055 43.3977 -18.6909 42.4554 -16.6861C41.6669 -15.0085 39.3528 -14.6738 39.3528 -16.5275V-20.2549Z" fill="#FF37C7"/>
</g>
</svg>
