<svg width="60" height="60" viewBox="0 0 60 60" fill="none" xmlns="http://www.w3.org/2000/svg">
<g opacity="0.3">
<path d="M2.76359 12.2591C0.68089 12.8171 -0.580782 14.9752 0.265709 16.9582C5.51995 29.2672 19.1607 36.1582 32.4632 32.5938C45.7656 29.0295 54.1334 16.2413 52.5292 2.95424C52.2708 0.813612 50.0991 -0.424438 48.0164 0.133621L38.5888 2.65976C31.2993 4.61297 26.9734 12.1056 28.9266 19.3951C26.9734 12.1056 19.4807 7.77974 12.1913 9.73295L2.76359 12.2591Z" fill="#FF37C7"/>
<path d="M55.0896 26.5311C57.1723 25.973 59.344 27.2111 59.6024 29.3517C61.2066 42.6388 52.8388 55.4269 39.5364 58.9913C26.2339 62.5557 12.5931 55.6647 7.3389 43.3557C6.4924 41.3726 7.75408 39.2146 9.83678 38.6566L19.2645 36.1304C26.5539 34.1772 34.0466 38.5031 35.9998 45.7926C34.0466 38.5031 38.3725 31.0105 45.6619 29.0572L55.0896 26.5311Z" fill="#FF37C7"/>
</g>
</svg>
