<svg width="337" height="205" viewBox="0 0 337 205" fill="none" xmlns="http://www.w3.org/2000/svg"><g clip-path="url(#a)"><path fill-rule="evenodd" clip-rule="evenodd" d="M164.37 0h-.069c-12.101.002-21.909 9.814-21.907 21.915.003 12.101 9.815 21.909 21.916 21.907h.051c12.101.002 21.913-9.806 21.915-21.907C186.279 9.815 176.471.002 164.37 0Zm55.446 30.857c-6.058 10.475-2.477 23.878 7.998 29.936l.045.026c10.473 6.062 23.877 2.487 29.939-7.986 6.063-10.473 2.487-23.877-7.986-29.94l-.059-.034c-10.475-6.058-23.879-2.477-29.937 7.998Zm-110.962 0c-6.058-10.475-19.461-14.056-29.936-7.998l-.06.034c-10.473 6.063-14.048 19.467-7.986 29.94 6.063 10.473 19.467 14.048 29.94 7.986l.044-.026c10.476-6.058 14.056-19.46 7.998-29.936Zm173.484 46.516c-10.473 6.062-14.048 19.466-7.986 29.939l.025.044c6.059 10.476 19.462 14.057 29.937 7.999 10.475-6.059 14.056-19.462 7.998-29.937l-.034-.06c-6.063-10.472-19.467-14.048-29.94-7.986Zm-236.005 0c-10.473-6.063-23.878-2.487-29.94 7.986l-.035.059c-6.058 10.475-2.477 23.878 7.999 29.937 10.475 6.058 23.878 2.477 29.936-7.999l.026-.044c6.062-10.473 2.487-23.877-7.986-29.94Zm-30.918 71.522C3.314 148.892-6.498 158.7-6.5 170.801v.069c.002 12.101 9.814 21.909 21.915 21.907 12.1-.003 21.909-9.815 21.906-21.916v-.051c.003-12.101-9.805-21.913-21.906-21.915Zm297.841 0c-12.101.002-21.909 9.814-21.907 21.915v.051c-.002 12.101 9.806 21.913 21.907 21.916 12.101.002 21.913-9.806 21.915-21.907v-.069c-.002-12.101-9.814-21.909-21.915-21.906Zm-8.942 77.422c-10.475-6.058-23.878-2.478-29.937 7.998l-.025.044c-6.062 10.473-2.487 23.877 7.986 29.94 10.473 6.062 23.877 2.487 29.94-7.986l.034-.06c6.058-10.475 2.477-23.878-7.998-29.936Zm-279.957 0c-10.476 6.058-14.057 19.461-7.998 29.936l.034.06c6.062 10.473 19.467 14.048 29.94 7.986 10.473-6.063 14.048-19.467 7.986-29.94l-.026-.044c-6.058-10.476-19.461-14.056-29.936-7.998Zm233.441 62.521c-6.062-10.473-19.466-14.048-29.939-7.986l-.045.026c-10.475 6.058-14.056 19.461-7.998 29.936 6.059 10.476 19.462 14.056 29.937 7.998l.059-.034c10.473-6.062 14.049-19.467 7.986-29.94Zm-186.926 0c-6.062 10.473-2.487 23.878 7.986 29.94l.06.034c10.475 6.059 23.878 2.478 29.936-7.998 6.058-10.475 2.478-23.878-7.998-29.936l-.044-.026c-10.473-6.062-23.877-2.487-29.94 7.986Zm115.404 30.918c-.002-12.101-9.814-21.909-21.915-21.906h-.052c-12.1-.003-21.912 9.805-21.915 21.906-.002 12.101 9.806 21.913 21.907 21.915h.069c12.101-.002 21.909-9.814 21.906-21.915Z" fill="url(#b)" fill-opacity=".4"/><path fill-rule="evenodd" clip-rule="evenodd" d="m210.409 67.704-.042-.018c-11.766-5.236-25.548.058-30.783 11.823-5.236 11.766.058 25.548 11.823 30.783l.025.011c11.763 5.24 25.548-.048 30.788-11.811 5.24-11.763-.048-25.547-11.811-30.788ZM154.397 78.85c-4.613-12.024-18.099-18.031-30.123-13.419l-.042.017c-12.022 4.617-18.024 18.106-13.407 30.127 4.618 12.022 18.106 18.024 30.128 13.406l.025-.009c12.023-4.613 18.031-18.099 13.419-30.122Zm85.166 37.918c-12.021 4.618-18.023 18.106-13.406 30.128l.01.025c4.612 12.023 18.098 18.031 30.122 13.419 12.023-4.613 18.031-18.099 13.418-30.122l-.016-.043c-4.618-12.022-18.106-18.024-30.128-13.407Zm-147.014-3.849c-11.763-5.241-25.548.047-30.788 11.811l-.01.021-.008.021c-5.236 11.765.058 25.547 11.823 30.783 11.766 5.235 25.548-.058 30.783-11.824l.011-.025c5.24-11.763-.048-25.547-11.811-30.787Zm163.08 72.608c-11.765-5.236-25.547.058-30.783 11.823l-.011.025c-5.24 11.764.048 25.548 11.811 30.788 11.764 5.24 25.548-.048 30.788-11.811l.019-.042c5.235-11.766-.058-25.548-11.824-30.783Zm-182.722-4.785c-12.024 4.612-18.031 18.099-13.419 30.122l.017.043c4.617 12.021 18.105 18.024 30.127 13.406 12.022-4.617 18.024-18.106 13.406-30.127l-.009-.026c-4.613-12.023-18.099-18.031-30.122-13.418Zm145.463 64.764c-4.617-12.021-18.106-18.023-30.127-13.406l-.026.01c-12.023 4.612-18.031 18.098-13.418 30.122 4.612 12.023 18.099 18.031 30.122 13.418l.043-.016c12.021-4.618 18.023-18.106 13.406-30.128Zm-68.758 16.066c5.235-11.765-.058-25.547-11.824-30.783l-.025-.011c-11.763-5.24-25.547.048-30.787 11.811-5.241 11.764.047 25.548 11.811 30.788l.021.01.021.009c11.765 5.235 25.547-.058 30.783-11.824Z" fill="url(#c)" fill-opacity=".4"/><g filter="url(#filter0_f_11316_176319)"></g><path fill-rule="evenodd" clip-rule="evenodd" d="m155.504 33.035-.004.003v.013h8.745c.99.013 1.976-.066 2.949-.24a13.63 13.63 0 0 0 2.974-.944c.413-.191.809-.422 1.208-.655.101-.06.202-.119.304-.177.47-.335.92-.698 1.349-1.084a10.076 10.076 0 0 0 2.646-3.855.316.316 0 0 1 .366-.24h2.381c.19 0 .253-.064.253-.278v-1.525a2.695 2.695 0 0 0 0-.44c0-.038.009-.076.019-.114.02-.076.039-.151-.019-.227h-1.99c-.241 0-.241-.025-.241-.24a12.86 12.86 0 0 0 0-2.305c-.012-.227.039-.227.215-.227h1.739c.202 0 .277-.05.277-.252v-2.067c-.006-.137-.009-.206-.045-.241-.038-.036-.11-.036-.257-.036h-2.255a.329.329 0 0 1-.377-.265 10.102 10.102 0 0 0-.984-1.928 12.134 12.134 0 0 0-1.348-1.676 11.12 11.12 0 0 0-2.218-1.714 12.316 12.316 0 0 0-3.944-1.461c-.674-.125-1.355-.2-2.041-.227h-9.45c-.252 0-.252.05-.252.252v6.792c0 .24-.051.24-.24.24h-2.709c-.201 0-.201.037-.201.175v2.218c0 .201.062.201.214.201h2.734c.202 0 .202.038.202.189v2.369c0 .214-.064.214-.227.214h-2.923v2.394c0 .202.062.202.214.202h2.734c.202 0 .202.024.202.188v6.968Zm17.402-15.334a.243.243 0 0 1 0 .175h.061c-.026.076-.152.101-.152.101h-14.541c-.239 0-.239-.05-.239-.24v-4.472c0-.164.025-.24.214-.24h6.766a9.403 9.403 0 0 1 2.143.227c1.393.33 2.69.987 3.78 1.915.218.163.412.354.58.567.356.353.668.746.933 1.173.176.25.327.515.455.794Zm.603 5.568h-15.171c-.153 0-.229 0-.266-.037-.036-.037-.036-.11-.036-.252v-2.243c0-.177.051-.24.239-.24h15.247c.164 0 .24.063.24.215.062.78.062 1.564 0 2.343-.012.214-.089.214-.253.214Zm-.603 2.622a2.938 2.938 0 0 0-.644 0h-13.974c-.189 0-.252 0-.252.252v4.373c0 .201 0 .252.252.252h6.452c.308.024.617.002.919-.063a9.603 9.603 0 0 0 2.735-.605c.32-.11.628-.255.919-.428h.088a8.185 8.185 0 0 0 3.516-3.54s.088-.19-.011-.24v-.002ZM203.8 91.41c-.169.013-1.042.065-2.99.065-1.549 0-2.648-.046-3.034-.064-5.986-.264-10.454-1.305-10.454-2.553 0-1.247 4.468-2.288 10.454-2.555v4.07c.391.028 1.512.094 3.061.094 1.859 0 2.789-.077 2.957-.093v-4.069c5.973.267 10.431 1.308 10.431 2.553 0 1.245-4.456 2.286-10.431 2.551l.006.002Zm-.001-5.525v-3.643h8.336v-5.554H189.44v5.554h8.334v3.641c-6.774.311-11.869 1.653-11.869 3.261s5.095 2.948 11.869 3.26v11.672h6.024V92.401c6.759-.312 11.845-1.652 11.845-3.258 0-1.607-5.082-2.947-11.845-3.26l.001.002Z" fill="currentColor"/><path d="m260.151 147.497-9.05-21.881c-.511-1.132-1.269-1.683-2.27-1.683h-.8c-1 0-1.759.551-2.269 1.683l-3.939 9.533h-2.98a1.632 1.632 0 0 0-1.621 1.621v.021c.007.89.731 1.614 1.621 1.621h1.6l-3.759 9.085c-.069.2-.111.407-.111.621 0 .51.159.91.442 1.221.283.31.69.462 1.2.462.338-.007.662-.11.931-.31.29-.2.49-.49.649-.821l4.139-10.265h2.869a1.632 1.632 0 0 0 1.621-1.621v-.041a1.636 1.636 0 0 0-1.621-1.621h-1.531l3.159-7.871 8.609 21.412c.159.331.359.621.649.821.269.2.6.303.931.31.51 0 .911-.152 1.2-.462.29-.31.442-.711.442-1.221a1.442 1.442 0 0 0-.111-.614ZM247.692 42.386l-8.638 5.336-8.644-5.337 8.644-14.997 8.638 14.997Zm-8.638 7.05-8.644-5.337 8.644 12.732 8.644-12.732-8.644 5.337Zm-99.572 41.397c0-3.532-2.119-4.744-6.358-5.248-3.028-.404-3.634-1.211-3.634-2.624s1.01-2.322 3.028-2.322c1.817 0 2.826.606 3.331 2.12a.758.758 0 0 0 .706.504h1.615a.69.69 0 0 0 .706-.706v-.1a5.04 5.04 0 0 0-4.541-4.139v-2.422c0-.404-.303-.707-.808-.808h-1.513c-.404 0-.707.303-.808.808v2.321c-3.028.404-4.945 2.422-4.945 4.946 0 3.33 2.018 4.642 6.257 5.147 2.826.504 3.734 1.11 3.734 2.725s-1.413 2.725-3.33 2.725c-2.624 0-3.533-1.11-3.835-2.624-.101-.404-.404-.606-.707-.606h-1.716a.69.69 0 0 0-.706.707v.1c.404 2.524 2.018 4.34 5.349 4.845v2.422c0 .404.303.707.807.808h1.514c.404 0 .707-.303.808-.808v-2.422c3.028-.505 5.046-2.624 5.046-5.35Z" fill="currentColor"/><path fill-rule="evenodd" clip-rule="evenodd" d="M118.692 82.052c-2.927 7.772 1.11 16.552 8.982 19.378.303.202.606.606.606.908v1.414c0 .201 0 .302-.101.403-.101.404-.505.606-.909.404-5.651-1.817-9.991-6.157-11.808-11.808-3.028-9.588 2.221-19.782 11.808-22.81.101-.1.303-.1.404-.1.404.1.606.403.606.807v1.413c0 .504-.202.807-.606 1.009-4.138 1.514-7.468 4.743-8.982 8.982Zm18.771-11.707c.101-.403.505-.605.909-.403 5.55 1.816 9.991 6.156 11.808 11.909 3.028 9.588-2.22 19.781-11.808 22.809-.101.101-.303.101-.404.101-.404-.101-.606-.404-.606-.807v-1.413c0-.505.202-.808.606-1.01 4.138-1.513 7.468-4.743 8.982-8.982 2.927-7.771-1.11-16.552-8.982-19.378-.303-.202-.606-.605-.606-1.01V70.75c0-.202 0-.303.101-.404Z" fill="currentColor"/><g clip-path="url(#d)"><path d="M167.586 137.561a1.318 1.318 0 1 0-2.635 0h2.635Zm-2.635 38.653a1.318 1.318 0 1 0 2.635 0h-2.635Zm10.102-30.308a1.318 1.318 0 1 0 0-2.635v2.635Zm-19.326 4.832h-1.318 1.318Zm6.149 6.149v1.318-1.318Zm8.785 0v-1.317 1.317Zm0 12.299v1.318-1.318Zm-14.934-1.318a1.318 1.318 0 1 0 0 2.636v-2.636Zm9.224-30.307v38.653h2.635v-38.653h-2.635Zm10.102 5.71h-13.177v2.635h13.177v-2.635Zm-13.177 0c-1.98 0-3.88.786-5.28 2.187l1.863 1.863a4.835 4.835 0 0 1 3.417-1.415v-2.635Zm-5.28 2.187a7.467 7.467 0 0 0-2.187 5.28h2.635c0-1.282.509-2.51 1.415-3.417l-1.863-1.863Zm-2.187 5.28c0 1.98.787 3.88 2.187 5.28l1.863-1.864a4.831 4.831 0 0 1-1.415-3.416h-2.635Zm2.187 5.28c1.4 1.4 3.3 2.187 5.28 2.187v-2.635a4.832 4.832 0 0 1-3.417-1.416l-1.863 1.864Zm5.28 2.187h8.785v-2.635h-8.785v2.635Zm8.785 0c1.281 0 2.51.509 3.416 1.415l1.864-1.863a7.464 7.464 0 0 0-5.28-2.187v2.635Zm3.416 1.415a4.829 4.829 0 0 1 1.416 3.417h2.635c0-1.981-.787-3.88-2.187-5.28l-1.864 1.863Zm1.416 3.417c0 1.281-.509 2.51-1.416 3.416l1.864 1.864c1.4-1.4 2.187-3.3 2.187-5.28h-2.635Zm-1.416 3.416a4.831 4.831 0 0 1-3.416 1.415v2.636c1.98 0 3.88-.787 5.28-2.187l-1.864-1.864Zm-3.416 1.415h-14.934v2.636h14.934v-2.636Z" fill="url(#e)"/><path d="M167.586 137.561a1.318 1.318 0 1 0-2.635 0h2.635Zm-2.635 38.653a1.318 1.318 0 1 0 2.635 0h-2.635Zm10.102-30.308a1.318 1.318 0 1 0 0-2.635v2.635Zm-19.326 4.832h-1.318 1.318Zm6.149 6.149v1.318-1.318Zm8.785 0v-1.317 1.317Zm0 12.299v1.318-1.318Zm-14.934-1.318a1.318 1.318 0 1 0 0 2.636v-2.636Zm9.224-30.307v38.653h2.635v-38.653h-2.635Zm10.102 5.71h-13.177v2.635h13.177v-2.635Zm-13.177 0c-1.98 0-3.88.786-5.28 2.187l1.863 1.863a4.835 4.835 0 0 1 3.417-1.415v-2.635Zm-5.28 2.187a7.467 7.467 0 0 0-2.187 5.28h2.635c0-1.282.509-2.51 1.415-3.417l-1.863-1.863Zm-2.187 5.28c0 1.98.787 3.88 2.187 5.28l1.863-1.864a4.831 4.831 0 0 1-1.415-3.416h-2.635Zm2.187 5.28c1.4 1.4 3.3 2.187 5.28 2.187v-2.635a4.832 4.832 0 0 1-3.417-1.416l-1.863 1.864Zm5.28 2.187h8.785v-2.635h-8.785v2.635Zm8.785 0c1.281 0 2.51.509 3.416 1.415l1.864-1.863a7.464 7.464 0 0 0-5.28-2.187v2.635Zm3.416 1.415a4.829 4.829 0 0 1 1.416 3.417h2.635c0-1.981-.787-3.88-2.187-5.28l-1.864 1.863Zm1.416 3.417c0 1.281-.509 2.51-1.416 3.416l1.864 1.864c1.4-1.4 2.187-3.3 2.187-5.28h-2.635Zm-1.416 3.416a4.831 4.831 0 0 1-3.416 1.415v2.636c1.98 0 3.88-.787 5.28-2.187l-1.864-1.864Zm-3.416 1.415h-14.934v2.636h14.934v-2.636Z" fill="url(#f)" fill-opacity=".6"/></g><rect x="124.101" y="114.719" width="84.335" height="84.335" rx="42.168" stroke="#F5A1F5" stroke-width="2.635" stroke-linecap="round"/><path d="M118.697 114c1.405 3.516 4.399 6.288 8.196 7.589-3.797 1.302-6.791 4.074-8.196 7.59-1.406-3.516-4.4-6.288-8.197-7.59 3.797-1.301 6.791-4.073 8.197-7.589Z" fill="url(#g)"/><path d="M118.697 114c1.405 3.516 4.399 6.288 8.196 7.589-3.797 1.302-6.791 4.074-8.196 7.59-1.406-3.516-4.4-6.288-8.197-7.59 3.797-1.301 6.791-4.073 8.197-7.589Z" fill="url(#h)" fill-opacity=".6"/><path d="M226.373 176c2.293 5.737 7.178 10.26 13.374 12.383-6.196 2.123-11.081 6.646-13.374 12.383-2.292-5.737-7.177-10.26-13.373-12.383 6.196-2.123 11.081-6.646 13.373-12.383Z" fill="url(#i)"/><path d="M226.373 176c2.293 5.737 7.178 10.26 13.374 12.383-6.196 2.123-11.081 6.646-13.374 12.383-2.292-5.737-7.177-10.26-13.373-12.383 6.196-2.123 11.081-6.646 13.373-12.383Z" fill="url(#j)" fill-opacity=".6"/></g><defs><radialGradient id="b" cx="0" cy="0" r="1" gradientUnits="userSpaceOnUse" gradientTransform="rotate(97.3 83.646 80.298) scale(219.749)"><stop stop-color="#F83AFF"/><stop offset="1" stop-color="#F83AFF" stop-opacity="0"/></radialGradient><radialGradient id="c" cx="0" cy="0" r="1" gradientUnits="userSpaceOnUse" gradientTransform="rotate(97.3 83.646 80.298) scale(219.749)"><stop stop-color="#F83AFF"/><stop offset="1" stop-color="#F83AFF" stop-opacity="0"/></radialGradient><radialGradient id="f" cx="0" cy="0" r="1" gradientUnits="userSpaceOnUse" gradientTransform="rotate(90.131 14.527 151.742) scale(55.5639 12.5059)"><stop offset=".011" stop-color="#FDB6E8"/><stop offset="1" stop-color="#F28CBD" stop-opacity=".15"/></radialGradient><radialGradient id="h" cx="0" cy="0" r="1" gradientUnits="userSpaceOnUse" gradientTransform="matrix(-.09863 21.81948 -9.72351 -.04395 118.723 114)"><stop offset=".011" stop-color="#FDB6E8"/><stop offset="1" stop-color="#F28CBD" stop-opacity=".15"/></radialGradient><radialGradient id="j" cx="0" cy="0" r="1" gradientUnits="userSpaceOnUse" gradientTransform="rotate(90.259 25.603 200.697) scale(35.6005 15.8648)"><stop offset=".011" stop-color="#FDB6E8"/><stop offset="1" stop-color="#F28CBD" stop-opacity=".15"/></radialGradient><linearGradient id="e" x1="166.268" y1="137.561" x2="166.268" y2="187.89" gradientUnits="userSpaceOnUse"><stop stop-color="#F160F9"/><stop offset="1" stop-color="#FB36D0"/></linearGradient><linearGradient id="g" x1="118.697" y1="114" x2="118.697" y2="133.764" gradientUnits="userSpaceOnUse"><stop stop-color="#F160F9"/><stop offset="1" stop-color="#FB36D0"/></linearGradient><linearGradient id="i" x1="226.373" y1="176" x2="226.373" y2="208.246" gradientUnits="userSpaceOnUse"><stop stop-color="#F160F9"/><stop offset="1" stop-color="#FB36D0"/></linearGradient><clipPath id="a"><path fill="currentColor" d="M.5 0h336v205H.5z"/></clipPath><clipPath id="d"><path fill="currentColor" d="M145.185 135.804h42.168v42.168h-42.168z"/></clipPath></defs></svg>