<svg width="327" height="104" viewBox="0 0 327 104" fill="none" xmlns="http://www.w3.org/2000/svg">
<path d="M-135.5 52C-115.5 -14.6667 -95.5 -14.6667 -75.5 52C-55.5 118.667 -35.5 118.667 -15.5 52C4.50001 -14.6667 24.5 -14.6667 44.5 52C64.5 118.667 84.5 118.667 104.5 52C124.5 -14.6667 144.5 -14.6667 164.5 52C184.5 118.667 204.5 118.667 224.5 52C244.5 -14.6667 264.5 -14.6667 284.5 52C304.5 118.667 324.5 118.667 344.5 52C364.5 -14.6667 384.5 -14.6667 404.5 52C424.5 118.667 444.5 118.667 464.5 52" stroke="currentColor" stroke-width="2.5"/>
</svg>
