<svg width="24" height="24" viewBox="0 0 24 24" fill="none" xmlns="http://www.w3.org/2000/svg">
<g opacity="0.9">
<path d="M13.2427 13.2169L12.4311 15.3416C12.409 15.4007 12.409 15.465 12.4311 15.5241L13.8274 19.1799L15.4425 18.2896L13.5041 13.2169C13.4601 13.1001 13.2867 13.1001 13.2427 13.2169Z" fill="#00A3FF"/>
<path d="M14.8703 9.6438C14.8263 9.52694 14.653 9.52694 14.6089 9.6438L13.7973 11.7685C13.7753 11.8275 13.7753 11.8919 13.7973 11.951L16.0851 17.9362L17.7001 17.0459L14.8703 9.6438Z" fill="#00A3FF"/>
<path d="M12.0006 4.99142C12.0405 4.99142 12.0804 5.00192 12.1161 5.0203L18.2752 8.41475C18.3467 8.45415 18.3907 8.52768 18.3907 8.60516V15.3927C18.3907 15.4715 18.3467 15.5437 18.2752 15.5831L12.1161 18.9776C12.0817 18.9973 12.0405 19.0065 12.0006 19.0065C11.9607 19.0065 11.9208 18.996 11.885 18.9776L5.72599 15.5858C5.65446 15.5464 5.61043 15.4728 5.61043 15.3954V8.60647C5.61043 8.52768 5.65446 8.45546 5.72599 8.41607L11.885 5.02162C11.9208 5.00192 11.9607 4.99142 12.0006 4.99142ZM12.0006 4C11.7818 4 11.5617 4.05384 11.365 4.16283L5.20735 7.55596C4.8139 7.77263 4.57178 8.17314 4.57178 8.60647V15.3941C4.57178 15.8274 4.8139 16.2279 5.20735 16.4446L11.3664 19.839C11.5631 19.9467 11.7818 20.0018 12.002 20.0018C12.2207 20.0018 12.4408 19.948 12.6375 19.839L18.7966 16.4446C19.19 16.2279 19.4321 15.8274 19.4321 15.3941V8.60647C19.4321 8.17314 19.19 7.77263 18.7966 7.55596L12.6362 4.16283C12.4394 4.05384 12.2193 4 12.0006 4Z" fill="#00A3FF"/>
<path d="M11.4819 8.12061H9.92048C9.80355 8.12061 9.69899 8.1902 9.6591 8.29525L6.31201 17.0538L7.92709 17.9441L11.6126 8.29919C11.647 8.21252 11.5796 8.12061 11.4819 8.12061Z" fill="#00A3FF"/>
<path d="M14.2143 8.12061H12.6529C12.536 8.12061 12.4314 8.1902 12.3915 8.29525L8.56982 18.2961L10.1849 19.1864L14.345 8.29919C14.378 8.21252 14.3106 8.12061 14.2143 8.12061Z" fill="#00A3FF"/>
</g>
</svg>
