<svg width="24" height="24" viewBox="0 0 24 24" fill="none" xmlns="http://www.w3.org/2000/svg">
<path fill-rule="evenodd" clip-rule="evenodd" d="M16.279 11.3421L16.2704 9.48437H16.2771L14.6992 8.55553L11.9954 10.1498L9.30786 8.55553L7.73094 9.48437V11.3421L10.4348 12.9286V16.1094L12.005 17.0296L13.5752 16.1094V12.9286L16.279 11.3421ZM11.9963 3.79688L7.72998 6.31226L9.30017 7.24111L11.9963 5.64687L14.7002 7.24111L16.2704 6.31226L11.9963 3.79688ZM6.60375 15.1726L6.5951 11.9995L5.02586 11.0716V16.1101L9.2999 18.6168V16.7591L6.60375 15.1726ZM6.5951 10.6755V8.82644L8.17298 7.8976L6.5951 6.96875L5.0249 7.8976V9.74663L6.5951 10.6755ZM11.9961 6.96875L10.4259 7.8976L11.9961 8.82644L13.5739 7.8976L11.9961 6.96875ZM9.29968 13.5861L7.72949 12.6572V14.5149L9.29968 15.4351V13.5861ZM11.9958 18.3534L10.4256 17.4245V19.2736L11.9958 20.2024L13.5737 19.2736V17.4245L11.9958 18.3534ZM17.3958 6.96875L15.8256 7.8976L17.3958 8.82644V10.6755L18.9737 9.74663V7.8976L17.3958 6.96875ZM18.9747 11.0707L17.4045 11.9995L17.3958 15.1726L14.7006 16.7582V18.6159L18.9747 16.1091V11.0707ZM16.2699 14.5149L14.6997 15.4351V13.5861L16.2699 12.6572V14.5149Z" fill="#EAB200"/>
</svg>
