<svg width="24" height="24" viewBox="0 0 24 24" fill="none" xmlns="http://www.w3.org/2000/svg">
<path d="M8.96476 8.8968H4.52087C4.39822 8.8968 4.29443 8.79301 4.29443 8.67036V4.22647C4.29443 4.10381 4.39822 4.00003 4.52087 4.00003H8.96476C9.08741 4.00003 9.1912 4.10381 9.1912 4.22647V8.67036C9.20063 8.79301 9.09685 8.8968 8.96476 8.8968Z" fill="black"/>
<path d="M18.579 8.90623H14.1351C14.0125 8.90623 13.9087 8.80244 13.9087 8.67979V4.2359C13.9087 4.11325 14.0125 4.00946 14.1351 4.00946H18.579C18.7017 4.00946 18.8055 4.11325 18.8055 4.2359V8.67979C18.8055 8.80244 18.7017 8.90623 18.579 8.90623Z" fill="black"/>
<path d="M8.96476 18.5299H4.52087C4.39822 18.5299 4.29443 18.4261 4.29443 18.3035V13.8596C4.29443 13.7369 4.39822 13.6331 4.52087 13.6331H8.96476C9.08741 13.6331 9.1912 13.7369 9.1912 13.8596V18.3035C9.20063 18.4167 9.09685 18.5299 8.96476 18.5299Z" fill="black"/>
<path d="M18.579 18.5299H14.1351C14.0125 18.5299 13.9087 18.4261 13.9087 18.3035V13.8596C13.9087 13.7369 14.0125 13.6331 14.1351 13.6331H18.579C18.7017 13.6331 18.8055 13.7369 18.8055 13.8596V18.3035C18.8055 18.4261 18.7017 18.5299 18.579 18.5299Z" fill="black"/>
<path d="M13.7766 13.7369H9.3327C9.21005 13.7369 9.10626 13.6332 9.10626 13.5105V9.06662C9.10626 8.94396 9.21005 8.84018 9.3327 8.84018H13.7766C13.8992 8.84018 14.003 8.94396 14.003 9.06662V13.5105C14.0125 13.6332 13.9087 13.7369 13.7766 13.7369Z" fill="black"/>
</svg>
