<svg width="24" height="24" viewBox="0 0 24 24" fill="none" xmlns="http://www.w3.org/2000/svg">
<path d="M7.21407 16.0001C6.35029 16.0001 5.64303 15.7928 5.0923 15.3783C4.54737 14.9579 4.2749 14.3539 4.2749 13.5782C4.2749 13.4124 4.29229 13.2169 4.32708 12.9801C4.41983 12.4471 4.55317 11.8076 4.72708 11.0556C5.21984 9.01852 6.49522 8 8.54742 8C9.10395 8 9.6083 8.09475 10.0489 8.29016C10.4895 8.47373 10.8373 8.75797 11.0924 9.13695C11.3475 9.51001 11.475 9.95413 11.475 10.4693C11.475 10.6233 11.4576 10.8187 11.4228 11.0556C11.3127 11.7129 11.1851 12.3583 11.0286 12.9801C10.7735 13.9927 10.3387 14.7566 9.71265 15.2599C9.09235 15.7573 8.25756 16.0001 7.21407 16.0001ZM7.37059 14.4013C7.77639 14.4013 8.11843 14.2769 8.40249 14.0341C8.69235 13.7913 8.90105 13.4183 9.02279 12.909C9.1909 12.2103 9.31844 11.6063 9.4054 11.0852C9.43439 10.9312 9.45178 10.7713 9.45178 10.6055C9.45178 9.93045 9.10974 9.59291 8.41988 9.59291C8.01408 9.59291 7.66625 9.71727 7.37639 9.96005C7.09233 10.2028 6.88943 10.5759 6.76769 11.0852C6.63435 11.5826 6.50681 12.1866 6.37348 12.909C6.34449 13.0571 6.3271 13.211 6.3271 13.3768C6.3213 14.0637 6.67493 14.4013 7.37059 14.4013Z" fill="#FF0420"/>
<path d="M11.9672 16.0001C11.8796 16.0001 11.817 15.9757 11.7669 15.9209C11.7293 15.8601 11.7168 15.7931 11.7293 15.7139L13.3509 8.28615C13.3634 8.20092 13.4073 8.13394 13.4824 8.07915C13.5513 8.02435 13.6264 8 13.7078 8H16.8321C17.7024 8 18.3974 8.17656 18.9233 8.5236C19.4555 8.87672 19.7247 9.38206 19.7247 10.0457C19.7247 10.2344 19.6997 10.4353 19.6558 10.6423C19.4617 11.5191 19.0673 12.1644 18.4662 12.5845C17.8777 13.0046 17.07 13.2116 16.0432 13.2116H14.4591L13.9207 15.7139C13.9019 15.7992 13.8643 15.8662 13.7892 15.9209C13.7203 15.9757 13.6452 16.0001 13.5638 16.0001H11.9672ZM16.1246 11.6347C16.4564 11.6347 16.7382 11.5495 16.9824 11.3729C17.2328 11.1964 17.3956 10.9468 17.477 10.618C17.502 10.4901 17.5145 10.3745 17.5145 10.277C17.5145 10.0579 17.4457 9.88739 17.3142 9.77171C17.1827 9.64994 16.951 9.58906 16.6317 9.58906H15.223L14.7785 11.6347H16.1246Z" fill="#FF0420"/>
</svg>
