<svg width="24" height="24" viewBox="0 0 24 24" fill="none" xmlns="http://www.w3.org/2000/svg">
<path d="M15.8793 14.9238L19.6748 12.7103C19.8758 12.5934 20 12.3751 20 12.1404V7.71327C20 7.4786 19.8748 7.26022 19.6748 7.14336L15.8793 4.9298C15.6783 4.81295 15.429 4.81295 15.228 4.9298L11.4325 7.14336C11.2315 7.26022 11.1073 7.4786 11.1073 7.71327V15.625L8.44587 17.1767L5.78441 15.625V12.5206L8.44587 10.9689L10.2009 11.9929V9.91054L8.77108 9.07627C8.67247 9.0188 8.55964 8.98815 8.44587 8.98815C8.33209 8.98815 8.21831 9.0188 8.12065 9.07627L4.32521 11.2898C4.12421 11.4067 4 11.6251 4 11.8597V16.2868C4 16.5206 4.12516 16.7399 4.32521 16.8568L8.12065 19.0703C8.32166 19.1872 8.57102 19.1872 8.77203 19.0703L12.5675 16.8568C12.7685 16.7399 12.8927 16.5215 12.8927 16.2868V8.37514L12.941 8.34736L15.5541 6.82344L18.2156 8.37514V11.4795L15.5541 13.0312L13.801 12.0092V14.0915L15.228 14.9238C15.429 15.0407 15.6783 15.0407 15.8793 14.9238Z" fill="#9558FF"/>
</svg>
