<svg width="24" height="24" viewBox="0 0 24 24" fill="none" xmlns="http://www.w3.org/2000/svg">
<g clip-path="url(#clip0_2121_13838)">
<path fill-rule="evenodd" clip-rule="evenodd" d="M8.33367 18.0688H5.8578C5.33754 18.0688 5.08056 18.0688 4.92387 17.9685C4.75462 17.8588 4.6512 17.677 4.63867 17.4764C4.62925 17.2916 4.75776 17.0659 5.01475 16.6146L11.128 5.83913C11.3881 5.38156 11.5197 5.15278 11.6858 5.06816C11.8645 4.97728 12.0776 4.97728 12.2562 5.06816C12.4223 5.15278 12.554 5.38156 12.8141 5.83913L14.0709 8.03295L14.0773 8.04415C14.3582 8.53503 14.5007 8.78396 14.5629 9.04523C14.6318 9.33043 14.6318 9.63129 14.5629 9.9165C14.5002 10.1797 14.3592 10.4305 14.074 10.9288L10.8628 16.6052L10.8545 16.6197C10.5717 17.1146 10.4284 17.3655 10.2298 17.5547C10.0135 17.7616 9.75339 17.912 9.46819 17.9967C9.20807 18.0688 8.91661 18.0688 8.33367 18.0688ZM14.5861 18.0688H18.1337C18.6571 18.0688 18.9204 18.0688 19.0772 17.9655C19.2464 17.8558 19.3529 17.6708 19.3624 17.4703C19.3714 17.2914 19.2457 17.0745 18.9994 16.6494C18.9909 16.635 18.9824 16.6202 18.9738 16.6052L17.1967 13.5652L17.1765 13.531C16.9268 13.1087 16.8007 12.8955 16.6388 12.8131C16.4603 12.7222 16.2502 12.7222 16.0716 12.8131C15.9086 12.8977 15.777 13.1202 15.5169 13.5684L13.7462 16.6084L13.7401 16.6188C13.4809 17.0663 13.3513 17.2899 13.3607 17.4734C13.3732 17.674 13.4766 17.8588 13.6459 17.9685C13.7994 18.0688 14.0627 18.0688 14.5861 18.0688Z" fill="#E84142"/>
</g>
<defs>
<clipPath id="clip0_2121_13838">
<rect width="24" height="24" rx="8" fill="white"/>
</clipPath>
</defs>
</svg>
