<svg width="24" height="24" viewBox="0 0 24 24" fill="none" xmlns="http://www.w3.org/2000/svg">
<path d="M11.4817 4.29043L7.08715 11.516C6.91315 11.8019 7.00806 12.1725 7.29743 12.3421L11.692 14.9163C11.8818 15.0279 12.1182 15.0279 12.308 14.9163L16.7026 12.3421C16.9919 12.1725 17.0869 11.8019 16.9129 11.516L12.5192 4.29043C12.2838 3.90319 11.7171 3.90319 11.4817 4.29043Z" fill="#6B8AFF"/>
<path d="M15.7897 15.0102C15.7897 14.999 15.7878 14.9888 15.7869 14.9786C15.785 14.9684 15.7831 14.9582 15.7813 14.948C15.7785 14.9359 15.7748 14.9248 15.7711 14.9127C15.7683 14.9035 15.7655 14.8951 15.7608 14.8868C15.7552 14.8738 15.7478 14.8608 15.7404 14.8487C15.7366 14.8422 15.7329 14.8348 15.7283 14.8283C15.7153 14.8098 15.7013 14.7912 15.6846 14.7754C15.6678 14.7597 15.6502 14.7448 15.6316 14.7318C15.625 14.7272 15.6185 14.7244 15.6111 14.7198C15.599 14.7123 15.586 14.7049 15.573 14.6993C15.5646 14.6956 15.5553 14.6928 15.546 14.6891C15.5348 14.6854 15.5228 14.6817 15.5107 14.6789C15.5004 14.6761 15.4902 14.6743 15.48 14.6734C15.4697 14.6715 15.4595 14.6706 15.4484 14.6706C15.4363 14.6706 15.4251 14.6697 15.413 14.6706C15.4046 14.6706 15.3963 14.6724 15.387 14.6734C15.374 14.6752 15.3609 14.6761 15.3479 14.6789C15.3442 14.6789 15.3405 14.6817 15.3368 14.6826C15.2968 14.6928 15.2586 14.7086 15.2233 14.7318L12.3311 16.4363C12.1265 16.5569 11.8735 16.5569 11.6689 16.4363L8.77673 14.7318C8.74139 14.7086 8.70326 14.6928 8.66327 14.6826C8.65955 14.6817 8.65583 14.6799 8.65211 14.6789C8.63909 14.6761 8.62607 14.6752 8.61305 14.6734C8.60468 14.6724 8.59631 14.6715 8.58701 14.6706C8.57492 14.6706 8.56376 14.6706 8.55167 14.6706C8.54144 14.6706 8.53029 14.6724 8.52006 14.6734C8.50983 14.6752 8.4996 14.6771 8.48937 14.6789C8.47728 14.6817 8.46612 14.6854 8.45403 14.6891C8.44473 14.6919 8.43636 14.6956 8.42706 14.6993C8.41404 14.7049 8.40102 14.7123 8.38893 14.7198C8.38242 14.7235 8.37498 14.7272 8.36847 14.7318C8.34987 14.7448 8.33127 14.7587 8.31546 14.7754C8.29965 14.7921 8.28477 14.8098 8.27175 14.8283C8.2671 14.8348 8.26431 14.8413 8.25966 14.8487C8.25222 14.8617 8.24478 14.8738 8.2392 14.8868C8.23548 14.8951 8.23269 14.9044 8.22897 14.9127C8.22525 14.9248 8.22153 14.9359 8.21874 14.948C8.21595 14.9582 8.21409 14.9684 8.21316 14.9786C8.2113 14.9888 8.21037 15 8.21037 15.0102C8.21037 15.0213 8.20944 15.0334 8.21037 15.0445C8.21037 15.0538 8.21223 15.0621 8.21316 15.0714C8.21502 15.0844 8.21595 15.0974 8.21874 15.1095C8.21967 15.115 8.22153 15.1197 8.22339 15.1243C8.23455 15.167 8.25315 15.2069 8.28012 15.244L11.4681 19.7265C11.7275 20.0911 12.2706 20.0911 12.5301 19.7265L15.718 15.244C15.745 15.2069 15.7636 15.167 15.7748 15.1243C15.7757 15.1197 15.7785 15.1141 15.7794 15.1095C15.7822 15.0965 15.7831 15.0844 15.785 15.0714C15.7859 15.0621 15.7869 15.0538 15.7878 15.0445C15.7878 15.0334 15.7878 15.0213 15.7878 15.0102H15.7897Z" fill="#6B8AFF"/>
</svg>
