<svg width="36" height="36" viewBox="0 0 36 36" fill="none" xmlns="http://www.w3.org/2000/svg">
<path d="M16.79 0.854044C17.1949 -0.2846 18.8052 -0.2846 19.2101 0.854043L21.9319 8.50777L29.2685 5.02035C30.3599 4.50153 31.4986 5.64018 30.9798 6.73164L27.4923 14.0682L35.1461 16.79C36.2847 17.1949 36.2847 18.8052 35.1461 19.2101L27.4923 21.9319L30.9798 29.2685C31.4986 30.3599 30.3599 31.4986 29.2685 30.9798L21.9319 27.4923L19.2101 35.1461C18.8052 36.2847 17.1949 36.2847 16.79 35.1461L14.0682 27.4923L6.73164 30.9798C5.64018 31.4986 4.50153 30.3599 5.02035 29.2685L8.50777 21.9319L0.854043 19.2101C-0.2846 18.8052 -0.2846 17.1949 0.854044 16.79L8.50777 14.0682L5.02035 6.73164C4.50153 5.64018 5.64018 4.50153 6.73164 5.02035L14.0682 8.50777L16.79 0.854044Z" fill="#D9D9D9"/>
</svg>
