<svg width="36" height="36" viewBox="0 0 36 36" fill="none" xmlns="http://www.w3.org/2000/svg">
<path fill-rule="evenodd" clip-rule="evenodd" d="M18 3.16162L12.254 7.19574C11.991 7.38034 11.7118 7.54039 11.4199 7.67396L5.04683 10.5904L5.68893 17.5175C5.71869 17.8385 5.71869 18.1615 5.68893 18.4825L5.04683 25.4096L11.4199 28.326C11.7118 28.4596 11.991 28.6197 12.254 28.8043L18 32.8384L23.746 28.8043C24.009 28.6197 24.2882 28.4596 24.5801 28.326L30.9532 25.4096L30.3111 18.4825C30.2813 18.1615 30.2813 17.8385 30.3111 17.5175L30.9532 10.5904L24.5801 7.67396C24.2882 7.54038 24.009 7.38033 23.746 7.19574L18 3.16162ZM19.3038 0.411465C18.5224 -0.137155 17.4776 -0.137155 16.6962 0.411464L10.5302 4.74043C10.4172 4.81972 10.2972 4.88854 10.1716 4.94603L3.31338 8.08442C2.44423 8.48216 1.92184 9.38068 2.00956 10.327L2.70174 17.7944C2.71442 17.9312 2.71442 18.0688 2.70174 18.2056L2.00956 25.673C1.92184 26.6193 2.44423 27.5178 3.31338 27.9156L10.1716 31.054C10.2972 31.1115 10.4172 31.1803 10.5302 31.2596L16.6962 35.5885C17.4776 36.1372 18.5224 36.1372 19.3038 35.5885L25.4698 31.2596C25.5828 31.1803 25.7028 31.1115 25.8284 31.054L32.6866 27.9156C33.5558 27.5178 34.0782 26.6193 33.9904 25.673L33.2983 18.2056C33.2856 18.0688 33.2856 17.9312 33.2983 17.7944L33.9904 10.327C34.0782 9.38069 33.5558 8.48216 32.6866 8.08442L25.8284 4.94603C25.7028 4.88854 25.5828 4.81972 25.4698 4.74043L19.3038 0.411465Z" fill="#D9D9D9"/>
</svg>
