<svg width="36" height="36" viewBox="0 0 36 36" fill="none" xmlns="http://www.w3.org/2000/svg">
<path d="M22.3256 8.9814C22.8579 7.58563 23.219 6.3422 23.219 5.53768C23.219 2.47931 20.8825 0 18.0003 0C15.1181 0 12.7816 2.4793 12.7816 5.53768C12.7816 6.34216 13.1426 7.5855 13.6748 8.98118C13.3006 9.16098 12.9393 9.36339 12.5926 9.58663C11.6988 8.42573 10.8474 7.49306 10.1797 7.09422C7.61962 5.56503 4.37602 6.41884 2.93491 9.00126C1.4938 11.5837 2.4009 14.9168 4.96097 16.446C5.59209 16.823 6.70445 17.1085 8.02244 17.3248C8.00756 17.5479 8 17.7731 8 18C8 18.2269 8.00756 18.4521 8.02244 18.6752C6.70444 18.8915 5.59208 19.177 4.96097 19.554C2.4009 21.0832 1.4938 24.4163 2.93491 26.9987C4.37602 29.5812 7.61962 30.435 10.1797 28.9058C10.8474 28.5069 11.6988 27.5743 12.5926 26.4134C12.9393 26.6366 13.3006 26.839 13.6748 27.0188C13.1426 28.4145 12.7816 29.6578 12.7816 30.4623C12.7816 33.5207 15.1181 36 18.0003 36C20.8825 36 23.219 33.5207 23.219 30.4623C23.219 29.6578 22.8579 28.4144 22.3256 27.0186C22.6997 26.8388 23.0609 26.6365 23.4074 26.4133C24.3012 27.5742 25.1526 28.5069 25.8203 28.9057C28.3804 30.4349 31.624 29.5811 33.0651 26.9987C34.5062 24.4163 33.5991 21.0831 31.0391 19.554C30.4079 19.177 29.2956 18.8914 27.9776 18.6751C27.9924 18.452 28 18.2269 28 18C28 17.7731 27.9924 17.548 27.9776 17.3249C29.2956 17.1086 30.4079 16.823 31.0391 16.446C33.5991 14.9169 34.5062 11.5837 33.0651 9.00132C31.624 6.4189 28.3804 5.56509 25.8203 7.09428C25.1526 7.49311 24.3013 8.42577 23.4074 9.58668C23.0609 9.3635 22.6997 9.16115 22.3256 8.9814Z" fill="#D9D9D9"/>
</svg>
