<svg width="36" height="36" viewBox="0 0 36 36" fill="none" xmlns="http://www.w3.org/2000/svg">
<path fill-rule="evenodd" clip-rule="evenodd" d="M23.3288 6.69196C22.9015 6.79905 22.4544 6.61386 22.228 6.23596L21.4653 4.96334C19.8967 2.34555 16.1033 2.34555 14.5347 4.96334L13.772 6.23597C13.5456 6.61386 13.0985 6.79905 12.6712 6.69196L11.2321 6.33132C8.27179 5.58948 5.58948 8.27179 6.33132 11.2321L6.69196 12.6712C6.79905 13.0985 6.61386 13.5456 6.23597 13.772L4.96334 14.5347C2.34555 16.1033 2.34555 19.8967 4.96334 21.4653L6.23596 22.228C6.61386 22.4544 6.79905 22.9015 6.69196 23.3288L6.33132 24.7679C5.58948 27.7282 8.27179 30.4105 11.2321 29.6687L12.6712 29.308C13.0985 29.2009 13.5456 29.3861 13.772 29.764L14.5347 31.0367C16.1033 33.6544 19.8967 33.6544 21.4653 31.0367L22.228 29.764C22.4544 29.3861 22.9015 29.2009 23.3288 29.308L24.7679 29.6687C27.7282 30.4105 30.4105 27.7282 29.6687 24.7679L29.308 23.3288C29.2009 22.9015 29.3861 22.4544 29.764 22.228L31.0367 21.4653C33.6544 19.8967 33.6544 16.1033 31.0367 14.5347L29.764 13.772C29.3861 13.5456 29.2009 13.0985 29.308 12.6712L29.6687 11.2321C30.4105 8.27179 27.7282 5.58948 24.7679 6.33132L23.3288 6.69196ZM24.0387 3.4213C21.3051 -1.14043 14.6949 -1.14043 11.9613 3.4213C6.80276 2.12858 2.12858 6.80276 3.4213 11.9613C-1.14043 14.6949 -1.14043 21.3051 3.4213 24.0387C2.12858 29.1972 6.80276 33.8714 11.9613 32.5787C14.6948 37.1404 21.3051 37.1404 24.0387 32.5787C29.1972 33.8714 33.8714 29.1972 32.5787 24.0387C37.1404 21.3051 37.1404 14.6948 32.5787 11.9613C33.8714 6.80276 29.1972 2.12858 24.0387 3.4213Z" fill="#D9D9D9"/>
</svg>
