<svg width="36" height="36" viewBox="0 0 36 36" fill="none" xmlns="http://www.w3.org/2000/svg">
<path fill-rule="evenodd" clip-rule="evenodd" d="M15.4282 2.57149C15.4281 1.15133 16.5794 3.65802e-05 17.9995 0H18.0005C19.4206 3.67846e-05 20.5719 1.15133 20.5718 2.5715C20.5718 3.99166 19.4205 5.14289 18.0003 5.14286C16.5802 5.14289 15.4282 3.99166 15.4282 2.57149ZM23.4894 3.34828C24.2006 2.11903 25.7736 1.69906 27.0029 2.41025L27.0037 2.41072C28.2329 3.12198 28.6528 4.69504 27.9416 5.92426C27.2303 7.15347 25.6572 7.57336 24.428 6.8621C23.1988 6.15091 22.7782 4.57753 23.4894 3.34828ZM12.5106 3.34828C13.2218 4.57753 12.8018 6.15057 11.5726 6.86177C10.3433 7.57302 8.7697 7.15347 8.05844 5.92426C7.34719 4.69504 7.76707 3.12198 8.99629 2.41072L8.9971 2.41025C10.2264 1.69906 11.7994 2.11903 12.5106 3.34828ZM30.0757 8.05844C31.305 7.34719 32.878 7.76707 33.5893 8.99629L33.5898 8.9971C34.3009 10.2264 33.881 11.7994 32.6517 12.5106C31.4225 13.2218 29.8494 12.8018 29.1382 11.5726C28.427 10.3433 28.8465 8.7697 30.0757 8.05844ZM5.92426 8.05844C7.15347 8.7697 7.57336 10.3428 6.8621 11.572C6.15091 12.8012 4.57753 13.2218 3.34828 12.5106C2.11903 11.7994 1.69906 10.2264 2.41025 8.9971L2.41072 8.99629C3.12198 7.76707 4.69504 7.34719 5.92426 8.05844ZM2.5715 15.4282C3.99166 15.4282 5.14289 16.5795 5.14286 17.9997C5.14289 19.4198 3.99166 20.5718 2.57149 20.5718C1.15133 20.5719 3.65802e-05 19.4206 0 18.0005V17.9995C3.67846e-05 16.5794 1.15133 15.4281 2.5715 15.4282ZM33.4285 15.4282C34.8487 15.4281 36 16.5794 36 17.9995V18.0005C36 19.4206 34.8487 20.5719 33.4285 20.5718C32.0083 20.5718 30.8571 19.4205 30.8571 18.0003C30.8571 16.5802 32.0083 15.4282 33.4285 15.4282ZM3.34828 23.4894C4.57753 22.7782 6.15057 23.1982 6.86177 24.4274C7.57302 25.6567 7.15347 27.2303 5.92426 27.9416C4.69504 28.6528 3.12198 28.2329 2.41072 27.0037L2.41025 27.0029C1.69906 25.7736 2.11903 24.2006 3.34828 23.4894ZM32.6517 23.4894C33.881 24.2006 34.3009 25.7736 33.5898 27.0029L33.5893 27.0037C32.878 28.2329 31.305 28.6528 30.0757 27.9416C28.8465 27.2303 28.4266 25.6572 29.1379 24.428C29.8491 23.1988 31.4225 22.7782 32.6517 23.4894ZM27.9416 30.0757C28.6528 31.305 28.2329 32.878 27.0037 33.5893L27.0029 33.5898C25.7736 34.3009 24.2006 33.881 23.4894 32.6517C22.7782 31.4225 23.1982 29.8494 24.4274 29.1382C25.6567 28.427 27.2303 28.8465 27.9416 30.0757ZM8.05844 30.0757C8.7697 28.8465 10.3428 28.4266 11.572 29.1379C12.8012 29.8491 13.2218 31.4225 12.5106 32.6517C11.7994 33.881 10.2264 34.3009 8.9971 33.5898L8.99629 33.5893C7.76707 32.878 7.34719 31.305 8.05844 30.0757ZM15.4282 33.4285C15.4282 32.0083 16.5795 30.8571 17.9997 30.8571C19.4198 30.8571 20.5718 32.0083 20.5718 33.4285C20.5719 34.8487 19.4206 36 18.0005 36H17.9995C16.5794 36 15.4281 34.8487 15.4282 33.4285Z" fill="#D9D9D9"/>
</svg>
