<svg width="24" height="24" viewBox="0 0 24 24" fill="none" xmlns="http://www.w3.org/2000/svg">
<path d="M16.6093 12.5376C16.6177 11.8898 16.7898 11.2546 17.1095 10.6912C17.4293 10.1278 17.8864 9.6544 18.4383 9.3151C18.0877 8.81439 17.6252 8.40232 17.0875 8.11162C16.5498 7.82093 15.9517 7.65962 15.3407 7.64051C14.0374 7.50371 12.774 8.42036 12.1098 8.42036C11.4329 8.42036 10.4103 7.65409 9.30925 7.67674C8.59704 7.69975 7.90293 7.90686 7.29455 8.27789C6.68617 8.64891 6.18428 9.1712 5.83777 9.79387C4.33678 12.3926 5.45639 16.2119 6.89421 18.3125C7.61359 19.3411 8.45434 20.4901 9.55443 20.4494C10.6309 20.4047 11.033 19.7629 12.3324 19.7629C13.6198 19.7629 13.997 20.4494 15.1195 20.4235C16.2746 20.4047 17.0024 19.3903 17.6965 18.3519C18.2134 17.619 18.6111 16.809 18.875 15.9518C18.2039 15.668 17.6312 15.1928 17.2283 14.5857C16.8254 13.9785 16.6101 13.2662 16.6093 12.5376Z" fill="#131313"/>
<path d="M14.4894 6.25867C15.1192 5.50257 15.4295 4.53074 15.3544 3.54956C14.3922 3.65063 13.5033 4.11052 12.865 4.8376C12.5529 5.1928 12.3138 5.60603 12.1615 6.05366C12.0092 6.5013 11.9466 6.97457 11.9773 7.44641C12.4586 7.45136 12.9348 7.34704 13.3699 7.14131C13.805 6.93557 14.1878 6.63378 14.4894 6.25867Z" fill="#131313"/>
</svg>
