<svg width="24" height="24" viewBox="0 0 24 24" fill="none" xmlns="http://www.w3.org/2000/svg">
<path fill-rule="evenodd" clip-rule="evenodd" d="M2 12C2 6.477 6.477 2 12 2C17.523 2 22 6.477 22 12C22 17.523 17.523 22 12 22C6.477 22 2 17.523 2 12ZM11.05 7.80001C11.05 7.27534 11.4754 6.85001 12 6.85001C12.5247 6.85001 12.95 7.27534 12.95 7.80001V13.9065L15.5283 11.3283C15.8993 10.9573 16.5008 10.9573 16.8718 11.3283C17.2428 11.6993 17.2428 12.3008 16.8718 12.6718L12.6718 16.8718C12.3008 17.2428 11.6993 17.2428 11.3283 16.8718L7.12829 12.6718C6.75729 12.3008 6.75729 11.6993 7.12829 11.3283C7.49929 10.9573 8.10079 10.9573 8.47179 11.3283L11.05 13.9065V7.80001Z" fill="currentColor"/>
</svg>
