<svg width="24" height="24" viewBox="0 0 13.3333 13.3333" fill="none" xmlns="http://www.w3.org/2000/svg">
<path d="M13.3333 0.666667V4.66667C13.3333 5.03467 13.0353 5.33333 12.6667 5.33333C12.298 5.33333 12 5.03467 12 4.66667V2.27604L8.47135 5.80469C8.34135 5.93469 8.17067 6 8 6C7.82933 6 7.65865 5.93469 7.52865 5.80469C7.26798 5.54402 7.26798 5.12265 7.52865 4.86198L11.0573 1.33333H8.66667C8.298 1.33333 8 1.03467 8 0.666667C8 0.298667 8.298 0 8.66667 0H12.6667C12.7533 0 12.8401 0.0179362 12.9214 0.0512695C13.0847 0.118603 13.2147 0.248613 13.2821 0.411947C13.3161 0.49328 13.3333 0.58 13.3333 0.666667ZM4.86198 7.52865L1.33333 11.0573V8.66667C1.33333 8.29867 1.03533 8 0.666667 8C0.298 8 0 8.29867 0 8.66667V12.6667C0 12.7533 0.0179362 12.8401 0.0512695 12.9214C0.118603 13.0847 0.248613 13.2141 0.411947 13.2821C0.49328 13.3161 0.58 13.3333 0.666667 13.3333H4.66667C5.03533 13.3333 5.33333 13.0347 5.33333 12.6667C5.33333 12.2987 5.03533 12 4.66667 12H2.27604L5.80469 8.47135C6.06535 8.21069 6.06535 7.78931 5.80469 7.52865C5.54402 7.26798 5.12265 7.26798 4.86198 7.52865Z" fill="currentColor"/>
</svg>
