<svg width="14" height="10" viewBox="0 0 14 10" fill="none" xmlns="http://www.w3.org/2000/svg">
<path d="M13.3326 5.66685C13.3326 7.68885 11.6872 9.33352 9.6659 9.33352H2.6659C2.29723 9.33352 1.99923 9.03485 1.99923 8.66685C1.99923 8.29885 2.29723 8.00019 2.6659 8.00019H9.6659C10.9526 8.00019 11.9992 6.95352 11.9992 5.66685C11.9992 4.38019 10.9526 3.33352 9.6659 3.33352H2.27527L3.13725 4.1955C3.39792 4.45617 3.39792 4.87754 3.13725 5.13821C3.00725 5.26821 2.83656 5.33352 2.6659 5.33352C2.49523 5.33352 2.32454 5.26821 2.19454 5.13821L0.195194 3.13886C0.133194 3.07686 0.0845 3.00357 0.0505 2.92157C-0.0168333 2.75891 -0.0168333 2.5748 0.0505 2.41213C0.0845 2.33013 0.133194 2.25685 0.195194 2.19485L2.19454 0.1955C2.45521 -0.0651667 2.87658 -0.0651667 3.13725 0.1955C3.39792 0.456167 3.39792 0.877542 3.13725 1.13821L2.27527 2.00019H9.6659C11.6872 2.00019 13.3326 3.64485 13.3326 5.66685Z" fill="currentColor"/>
</svg>
