<svg xmlns="http://www.w3.org/2000/svg" width="19" height="18" viewBox="0 0 19 18" fill="none">
  <path d="M15.8375 13.6629C15.7753 13.7927 15.644 13.8752 15.5 13.8752H3.5C3.356 13.8752 3.22474 13.7927 3.16249 13.6629C3.10024 13.5332 3.11749 13.3787 3.20749 13.2662C3.22174 13.2489 4.62951 11.4617 4.62951 9.37517V6.74642C4.62951 4.06067 6.815 1.87517 9.50075 1.87517C12.1865 1.87517 14.372 4.06067 14.372 6.74642V9.37517C14.372 11.4609 15.779 13.2482 15.794 13.2662C15.8825 13.3787 15.9005 13.5324 15.8375 13.6629ZM3.3095 6.05642C3.43775 4.77467 3.95526 3.58742 4.80726 2.62292C5.01276 2.38967 4.99025 2.03417 4.75775 1.82867C4.5245 1.62242 4.16901 1.64492 3.96351 1.87817C2.95551 3.02042 2.342 4.42667 2.1905 5.94467C2.159 6.25367 2.38474 6.52967 2.69374 6.56042C2.71249 6.56192 2.732 6.56343 2.75075 6.56343C3.03575 6.56268 3.281 6.34592 3.3095 6.05642ZM16.3063 6.55967C16.6153 6.52892 16.841 6.25292 16.8095 5.94392C16.658 4.42667 16.0445 3.02043 15.0365 1.87743C14.8317 1.64493 14.4755 1.62167 14.2422 1.82792C14.009 2.03342 13.9872 2.38892 14.1927 2.62217C15.044 3.58667 15.5622 4.77393 15.6905 6.05568C15.7197 6.34593 15.9642 6.56192 16.2492 6.56192C16.268 6.56267 16.2868 6.56192 16.3063 6.55967ZM11.123 14.8134C11.0562 14.6972 10.9325 14.6252 10.7975 14.6252H8.20249C8.06824 14.6252 7.9445 14.6972 7.877 14.8134C7.8095 14.9297 7.81101 15.0737 7.87851 15.1892C8.22051 15.7749 8.8265 16.1252 9.5 16.1252C10.1735 16.1252 10.7795 15.7749 11.1215 15.1892C11.189 15.0737 11.1897 14.9297 11.123 14.8134Z" fill="currentColor"/>
</svg>
