<svg width="16" height="16" viewBox="0 0 16 16" fill="none" xmlns="http://www.w3.org/2000/svg">
<path d="M9.33301 13C9.33301 13.6667 8.99967 14 8.33301 14H7.66699C7.00033 14 6.66699 13.6667 6.66699 13V12.5635L9.33301 10.7393V13ZM14 13C14 13.6667 13.6667 14 13 14H12.333C11.6666 13.9999 11.333 13.6666 11.333 13V9.37012L14 7.5459V13ZM3.66699 8C4.33344 8.00011 4.66699 8.33344 4.66699 9V9.08496L2 10.9102V9C2 8.33333 2.33333 8 3 8H3.66699ZM8.33301 2C8.99967 2 9.33301 2.33333 9.33301 3V5.89258L6.66699 7.7168V3C6.66699 2.33333 7.00033 2 7.66699 2H8.33301Z" fill="currentColor" />
<path d="M2 13.3334L14.6667 4.66675" stroke="currentColor" stroke-width="2" stroke-linecap="round"/>
</svg>
