<svg width="23" height="24" viewBox="0 0 23 24" fill="none" xmlns="http://www.w3.org/2000/svg">
<path d="M17.3293 11.0072C17.1985 11.0072 17.0801 10.9215 17.0428 10.7992L16.5817 9.22128C16.1643 7.77178 15.0118 6.64642 13.5353 6.23665L11.9217 5.78407C11.766 5.74126 11.6725 5.58224 11.7161 5.42934C11.741 5.33148 11.822 5.25809 11.9217 5.22751L13.5353 4.77492C15.0118 4.36514 16.1643 3.23979 16.5817 1.79029L17.0428 0.212363C17.0864 0.0594624 17.2484 -0.0322791 17.4103 0.0105331C17.51 0.0411132 17.5848 0.114507 17.6159 0.212363L18.0769 1.79029C18.4943 3.23979 19.6469 4.36514 21.1234 4.77492L22.737 5.22751C22.8927 5.28867 22.9675 5.46603 22.9052 5.61893C22.874 5.69233 22.8117 5.75349 22.737 5.78407L21.1234 6.23665C19.6469 6.64642 18.4943 7.77789 18.0769 9.22128L17.6159 10.7992C17.5785 10.9215 17.4602 11.0072 17.3293 11.0072ZM13.4792 10.946L13.6225 10.4689C13.7471 10.0347 14.096 9.69833 14.5383 9.57601L15.0242 9.44145C15.0741 9.4231 15.0928 9.36806 15.0741 9.32525C15.0616 9.30078 15.0492 9.28855 15.0242 9.27632L14.5383 9.14176C14.096 9.01944 13.7471 8.68307 13.6225 8.24883L13.4792 7.77178C13.4668 7.72285 13.4169 7.69838 13.367 7.71061C13.3359 7.71673 13.3172 7.7412 13.3048 7.77178L13.1677 8.24883C13.0431 8.68307 12.6942 9.01944 12.2519 9.14176L11.766 9.27632C11.7161 9.28855 11.6912 9.33748 11.7036 9.38641C11.7099 9.41699 11.7348 9.43533 11.766 9.44757L12.2519 9.58212C12.6942 9.70444 13.0431 10.0408 13.1677 10.4751L13.3048 10.9521C13.3172 11.001 13.3671 11.0255 13.4169 11.0133C13.448 11.0072 13.4668 10.9827 13.4792 10.9521V10.946Z" fill="#FF37C7"/>
<path d="M12.052 3.55437C10.7236 3.02128 9.0065 2.7541 7.2894 2.7541C3.68035 2.7541 0.0712891 3.93441 0.0712891 6.28327C0.0712891 8.65573 3.68035 9.81244 7.2894 9.81244C8.25257 9.81244 9.21574 9.73005 10.1103 9.56416C10.028 8.85051 10.4168 8.00326 11.3437 7.75821L11.6683 7.66835L11.7529 7.37362L11.4834 7.29801C10.5042 7.02554 9.89331 6.02591 10.1658 5.0266C10.3547 4.31953 10.9118 3.88866 11.4433 3.72561L11.4621 3.71983L12.052 3.55437Z" fill="#FF37C7"/>
<path d="M13.262 10.8024L13.1677 10.4751C13.1667 10.4717 13.166 10.4684 13.165 10.465C13.373 10.3677 13.5718 10.2643 13.7613 10.1552C13.7535 10.168 13.7458 10.181 13.7384 10.194C13.7124 10.2399 13.689 10.2877 13.6688 10.3369C13.6511 10.3798 13.6355 10.4238 13.6225 10.4689L13.528 10.7847C13.4388 10.7899 13.3501 10.7958 13.262 10.8024Z" fill="#FF37C7"/>
<path d="M13.5871 8.13011C13.4269 8.269 13.2485 8.39919 13.0542 8.52072C13.077 8.48029 13.0976 8.43851 13.116 8.39551L13.1191 8.3881C13.138 8.34301 13.1541 8.29643 13.1677 8.24883L13.3048 7.77178C13.3172 7.7412 13.3359 7.71673 13.367 7.71061C13.4169 7.69838 13.4668 7.72285 13.4792 7.77178L13.5871 8.13011Z" fill="#FF37C7"/>
<path d="M13.7319 12.5566C13.751 12.5529 13.7699 12.5488 13.7884 12.5446C14.025 12.5331 14.2649 12.5272 14.5075 12.5272C18.4895 12.5272 21.7256 14.1089 21.7256 16.0564C21.7256 18.004 18.4895 19.5856 14.5075 19.5856C10.5255 19.5856 7.2894 18.004 7.2894 16.0564C7.2894 14.3186 9.8661 12.8721 13.2502 12.5808C13.4142 12.595 13.5774 12.5867 13.7319 12.5566Z" fill="#FF37C7"/>
<path d="M6.24278 22.7842C5.74954 22.1114 5.48487 21.3325 5.48487 20.4708V20.0813C3.19914 19.8688 1.33446 19.2197 0.0712891 18.2518V19.2905C0.0712891 21.4269 3.01869 22.5836 6.24278 22.7842Z" fill="#FF37C7"/>
<path d="M5.521 15.7021C5.521 15.6903 5.521 15.6786 5.53297 15.6669H5.521C3.2112 15.4662 1.33446 14.8171 0.0712891 13.8374V14.8761C0.0712891 16.8472 2.57357 17.9803 5.48487 18.3108V16.0564C5.48487 15.9384 5.49694 15.8201 5.521 15.7021Z" fill="#FF37C7"/>
<path d="M6.1706 13.9436C6.9646 12.8105 8.39618 11.9017 10.2248 11.3469C9.32251 11.5004 8.33603 11.5829 7.2894 11.5829C4.17358 11.5829 1.64724 10.8747 0.0712891 9.65899V10.4617C0.0712891 12.5863 2.97057 13.7429 6.1706 13.9436Z" fill="#FF37C7"/>
<path d="M7.2894 19.3141C8.91348 20.5771 11.4879 21.3561 14.5075 21.3561C17.5271 21.3561 20.1016 20.5771 21.7256 19.3141V20.4708C21.7256 22.8197 18.1166 24 14.5075 24C10.8985 24 7.2894 22.8197 7.2894 20.4708V19.3141Z" fill="#FF37C7"/>
<path d="M21.958 1.83864L21.8646 2.15668C21.8583 2.17502 21.8459 2.19337 21.8272 2.19337C21.796 2.2056 21.7586 2.18726 21.7524 2.15668L21.6589 1.83864C21.5717 1.55119 21.3412 1.32489 21.0484 1.24538L20.7244 1.15365C20.7058 1.14753 20.6871 1.1353 20.6871 1.11695C20.6746 1.08637 20.6933 1.04968 20.7244 1.04356L21.0484 0.951817C21.3475 0.872309 21.578 0.646015 21.6589 0.358562L21.7524 0.0405346C21.7586 0.0221865 21.7711 0.00383054 21.7898 0.00383054C21.8209 -0.00840152 21.8583 0.00995441 21.8646 0.0405346L21.958 0.358562C22.0452 0.646015 22.2757 0.872309 22.5685 0.951817L22.8925 1.04356C22.905 1.04968 22.9174 1.0619 22.9237 1.07414C22.9361 1.10472 22.9237 1.14142 22.8925 1.15365L22.5685 1.24538C22.2695 1.32489 22.039 1.55119 21.958 1.83864Z" fill="#FF37C7"/>
</svg>
