<svg xmlns="http://www.w3.org/2000/svg" width="16" height="16" viewBox="0 0 16 16" fill="none">
  <path d="M12.25 4.16667H6.41667C4.96533 4.16667 4.16667 4.96533 4.16667 6.41667V12.25C4.16667 13.7013 4.96533 14.5 6.41667 14.5H12.25C13.7013 14.5 14.5 13.7013 14.5 12.25V6.41667C14.5 4.96533 13.7013 4.16667 12.25 4.16667ZM13.5 12.25C13.5 13.138 13.138 13.5 12.25 13.5H6.41667C5.52867 13.5 5.16667 13.138 5.16667 12.25V6.41667C5.16667 5.52867 5.52867 5.16667 6.41667 5.16667H12.25C13.138 5.16667 13.5 5.52867 13.5 6.41667V12.25ZM2.5 3.74666V9.58667C2.5 10.3853 2.82206 10.582 2.92806 10.6473C3.16406 10.7913 3.23726 11.0993 3.09326 11.3347C2.9986 11.4887 2.83468 11.5733 2.66602 11.5733C2.57735 11.5733 2.48661 11.5493 2.40527 11.5C1.80461 11.132 1.5 10.4887 1.5 9.58667V3.74666C1.5 2.31866 2.31941 1.5 3.74674 1.5H9.58659C10.7099 1.5 11.2467 1.99265 11.5 2.40531C11.644 2.64065 11.57 2.94865 11.3346 3.09265C11.0986 3.23732 10.792 3.16266 10.6473 2.92733C10.5826 2.82133 10.3853 2.49935 9.58659 2.49935H3.74674C2.86141 2.50002 2.5 2.86133 2.5 3.74666Z" fill="currentColor" stroke="currentColor" stroke-width="0.5"/>
</svg>