<svg width="28" height="28" viewBox="0 0 28 28" fill="none" xmlns="http://www.w3.org/2000/svg">
  <path
  d="M13.9912 11.9609C14.2812 11.9609 14.5273 11.8379 14.8086 11.6094L20.75 6.81055C20.9609 6.62598 21.0928 6.3623 21.0928 6.0459C21.0928 5.43945 20.6094 5 20.0557 5C19.8008 5 19.5371 5.10547 19.291 5.30762L14 9.5791L8.7002 5.30762C8.44531 5.10547 8.19043 5 7.93555 5C7.38184 5 6.89844 5.43945 6.89844 6.0459C6.89844 6.3623 7.03027 6.62598 7.24121 6.81055L13.1738 11.6006C13.4639 11.8379 13.71 11.9609 13.9912 11.9609Z"
    fill="currentColor"
  />
  <path
    d="M14.0928 15C13.8115 15 13.5654 15.1318 13.2754 15.3604L7.34277 20.1592C7.13184 20.335 7 20.5986 7 20.9238C7 21.5215 7.4834 21.9609 8.03711 21.9609C8.29199 21.9609 8.54688 21.8643 8.80176 21.6621L14.1016 17.3906L19.3926 21.6621C19.6387 21.8643 19.9023 21.9609 20.1572 21.9609C20.7109 21.9609 21.1943 21.5215 21.1943 20.9238C21.1943 20.5986 21.0625 20.335 20.8516 20.1592L14.9102 15.3604C14.6289 15.1318 14.3828 15 14.0928 15Z"
    fill="currentColor"
  />
</svg>
