<svg xmlns="http://www.w3.org/2000/svg" width="16" height="16" viewBox="0 0 16 16" fill="none">
<path d="M8.33301 11.1594C8.41301 9.29935 9.96633 7.75268 11.8263 7.67268C12.2597 7.65268 12.6797 7.70602 13.0664 7.82602C13.1997 7.86602 13.333 7.77935 13.333 7.63935V4.66602C13.333 3.33268 12.6663 2.66602 11.333 2.66602H3.33301C1.99967 2.66602 1.33301 3.33268 1.33301 4.66602V10.666C1.33301 11.9993 1.99967 12.666 3.33301 12.666H8.30632C8.43965 12.666 8.533 12.5327 8.48633 12.406C8.36633 12.0127 8.31301 11.5994 8.33301 11.1594ZM8.01904 8.11868C7.81371 8.26802 7.57301 8.34268 7.33301 8.34268C7.09301 8.34268 6.85164 8.26801 6.64697 8.11934L3.3724 5.73735C3.14906 5.57535 3.0997 5.26202 3.26237 5.03869C3.42437 4.81602 3.7356 4.76535 3.96094 4.92868L7.23568 7.31002C7.29434 7.35202 7.37232 7.35268 7.43099 7.31002L10.7057 4.92868C10.9304 4.76535 11.2423 4.81602 11.4043 5.03869C11.567 5.26202 11.5176 5.57468 11.2943 5.73735L8.01904 8.11868Z" fill="currentColor"/>
<path d="M13.2901 9.73728C13.5075 9.51987 13.86 9.51987 14.0774 9.73728C14.2948 9.95469 14.2947 10.3065 14.0758 10.5239L12.0969 12.5028C11.9885 12.6119 11.8461 12.6661 11.7037 12.6661C11.5612 12.6661 11.4187 12.6112 11.3104 12.5028L10.3213 11.5137C10.1038 11.2963 10.1038 10.9438 10.3213 10.7264C10.5387 10.509 10.8912 10.509 11.1086 10.7264L11.7044 11.3222L13.2901 9.73728Z" fill="currentColor"/>
</svg>
