<svg width="20" height="20" viewBox="0 0 20 20" fill="none" xmlns="http://www.w3.org/2000/svg">
<path d="M15.625 3.43689H4.375C2.5 3.43689 1.5625 4.37439 1.5625 6.24939V14.6869C1.5625 16.5619 2.5 17.4994 4.375 17.4994H15.625C17.5 17.4994 18.4375 16.5619 18.4375 14.6869V6.24939C18.4375 4.37439 17.5 3.43689 15.625 3.43689ZM15.5696 7.75502L10.9647 11.1038C10.676 11.3138 10.3375 11.4188 10 11.4188C9.6625 11.4188 9.32308 11.3138 9.03526 11.1047L4.43039 7.75502C4.11633 7.52721 4.04692 7.08658 4.27567 6.77251C4.50348 6.45939 4.94115 6.38814 5.25803 6.61783L9.86313 9.96657C9.94563 10.0256 10.0553 10.0266 10.1378 9.96657L14.7429 6.61783C15.0588 6.38814 15.4974 6.45939 15.7253 6.77251C15.954 7.08751 15.8837 7.52721 15.5696 7.75502Z" fill="#4981FF"/>
</svg>
