<svg width="16" height="16" viewBox="0 0 16 16" fill="currentColor" xmlns="http://www.w3.org/2000/svg">
<path d="M14.6667 2.99998V5.33331C14.6667 5.70131 14.3687 5.99998 14 5.99998C13.6313 5.99998 13.3333 5.70131 13.3333 5.33331V2.99998C13.3333 2.70065 13.2987 2.66665 13 2.66665H10.6667C10.298 2.66665 10 2.36798 10 1.99998C10 1.63198 10.298 1.33331 10.6667 1.33331H13C14.028 1.33331 14.6667 1.97198 14.6667 2.99998ZM5.33334 1.33331H3C1.972 1.33331 1.33334 1.97198 1.33334 2.99998V5.33331C1.33334 5.70131 1.63134 5.99998 2 5.99998C2.36867 5.99998 2.66667 5.70131 2.66667 5.33331V2.99998C2.66667 2.70065 2.70134 2.66665 3 2.66665H5.33334C5.702 2.66665 6 2.36798 6 1.99998C6 1.63198 5.702 1.33331 5.33334 1.33331ZM5.33334 13.3333H3C2.70134 13.3333 2.66667 13.2993 2.66667 13V10.6666C2.66667 10.2986 2.36867 9.99998 2 9.99998C1.63134 9.99998 1.33334 10.2986 1.33334 10.6666V13C1.33334 14.028 1.972 14.6666 3 14.6666H5.33334C5.702 14.6666 6 14.368 6 14C6 13.632 5.702 13.3333 5.33334 13.3333ZM14 9.99998C13.6313 9.99998 13.3333 10.2986 13.3333 10.6666V13C13.3333 13.2993 13.2987 13.3333 13 13.3333H10.6667C10.298 13.3333 10 13.632 10 14C10 14.368 10.298 14.6666 10.6667 14.6666H13C14.028 14.6666 14.6667 14.028 14.6667 13V10.6666C14.6667 10.2986 14.3687 9.99998 14 9.99998Z" fill="currentColor"/>
</svg>
