<svg xmlns="http://www.w3.org/2000/svg" width="20" height="20" viewBox="0 0 20 20" fill="none">
  <path d="M16.5448 8.87234C16.9638 9.56568 16.9638 10.4342 16.5448 11.1276C15.6076 12.6895 13.5123 15.3333 9.99994 15.3333C9.43003 15.3333 8.89368 15.2609 8.3954 15.1352C8.22549 15.0925 8.17206 14.8747 8.29625 14.7512L9.74082 13.3067C9.8292 13.2183 9.93898 13.238 9.99994 13.238C11.7858 13.238 13.238 11.7851 13.238 9.99995C13.238 9.93899 13.2289 9.81858 13.2922 9.75534L15.3813 7.66624C15.478 7.56948 15.641 7.57946 15.7256 7.68689C16.0608 8.11051 16.3337 8.51653 16.5448 8.87234ZM17.2609 3.54664L3.54663 17.2609C3.43539 17.3722 3.28908 17.4285 3.14279 17.4285C2.99651 17.4285 2.8502 17.3729 2.73896 17.2609C2.51572 17.0377 2.51572 16.6758 2.73896 16.4525L5.56188 13.6296C4.59426 12.806 3.89244 11.856 3.45511 11.1268C3.03606 10.4335 3.03606 9.56493 3.45511 8.8716C4.39225 7.30969 6.48756 4.66587 9.99994 4.66587C11.3896 4.66587 12.5501 5.08256 13.5146 5.67684L16.4532 2.73823C16.6765 2.51499 17.0384 2.51499 17.2617 2.73823C17.4849 2.96147 17.4841 3.3234 17.2609 3.54664ZM7.34852 11.843L8.17813 11.0133C8.00899 10.7124 7.9047 10.3702 7.9047 9.99995C7.9047 9.73328 7.95799 9.48186 8.04941 9.24567C8.19418 9.36757 8.377 9.44377 8.58271 9.44377C9.05509 9.44377 9.44376 9.0551 9.44376 8.58272C9.44376 8.37701 9.36756 8.19419 9.24566 8.04943C9.48185 7.958 9.73327 7.90471 9.99994 7.90471C10.3702 7.90471 10.7131 8.009 11.0133 8.17815L11.8429 7.34853C11.3188 6.9813 10.6849 6.76185 9.99994 6.76185C8.21708 6.76185 6.76184 8.21709 6.76184 9.99995C6.76184 10.6857 6.98128 11.3188 7.34852 11.843Z" fill="currentColor"/>
</svg>
