<svg width="50" height="50" viewBox="0 0 50 50" fill="none" xmlns="http://www.w3.org/2000/svg">
<path d="M1.3666 15.5199C2.00355 15.5199 2.34857 15.1484 2.34857 14.5114V7.37231C2.34857 3.92217 4.15325 2.11749 7.60339 2.11749H14.7691C15.406 2.11749 15.7776 1.77247 15.7776 1.13553C15.7776 0.498578 15.406 0.153564 14.7691 0.153564H7.55031C2.85282 0.153564 0.384644 2.5952 0.384644 7.26615V14.5114C0.384644 15.1484 0.729657 15.5199 1.3666 15.5199ZM48.6335 15.5199C49.2704 15.5199 49.6154 15.1484 49.6154 14.5114V7.26615C49.6154 2.64828 47.1738 0.153564 42.4763 0.153564H35.231C34.5941 0.153564 34.2225 0.498578 34.2225 1.13553C34.2225 1.77247 34.5941 2.11749 35.231 2.11749H42.3967C45.7406 2.11749 47.6515 3.92217 47.6515 7.37231V14.5114C47.6515 15.1484 47.9965 15.5199 48.6335 15.5199ZM22.8371 28.3385H23.0759C25.2256 28.3385 26.3137 27.2769 26.3137 25.1007V16.9531C26.3137 16.3427 26.0218 16.0507 25.4114 16.0507C24.8275 16.0507 24.509 16.3427 24.509 16.9531V25.3395C24.509 26.0561 23.9252 26.5073 23.3413 26.5073H22.439C21.9347 26.5073 21.5632 26.8788 21.5632 27.3831C21.5632 28.02 21.9613 28.3385 22.8371 28.3385ZM15.4591 22.2344C16.2553 22.2344 16.7595 21.7302 16.7595 20.934V17.4042C16.7595 16.5815 16.2553 16.0773 15.4591 16.0773C14.6894 16.0773 14.1852 16.6081 14.1852 17.4042V20.934C14.1852 21.7302 14.6894 22.2344 15.4591 22.2344ZM34.3021 22.2344C35.0718 22.2344 35.576 21.7302 35.576 20.934V17.4042C35.576 16.6081 35.0718 16.0773 34.3021 16.0773C33.5059 16.0773 32.9751 16.5815 32.9751 17.4042V20.934C32.9751 21.7302 33.5059 22.2344 34.3021 22.2344ZM24.7744 36.4596C27.6938 36.4596 30.6131 35.2388 32.7628 33.0891C32.9221 32.9564 33.0813 32.7175 33.0813 32.3725C33.0813 31.8417 32.6832 31.4967 32.2055 31.4967C31.9136 31.4967 31.6747 31.5763 31.3297 31.9479C29.7373 33.5403 27.2692 34.6815 24.7744 34.6815C22.2797 34.6815 19.8381 33.5403 18.2192 31.9479C17.9007 31.6029 17.6619 31.4967 17.3434 31.4967C16.8657 31.4967 16.4676 31.8417 16.4676 32.3725C16.4676 32.691 16.6268 32.9298 16.7861 33.0891C18.8827 35.2653 21.8551 36.4596 24.7744 36.4596ZM7.55031 49.3843H14.7691C15.406 49.3843 15.7776 49.0393 15.7776 48.4024C15.7776 47.7654 15.406 47.4204 14.7691 47.4204H7.60339C4.15325 47.4204 2.34857 45.6157 2.34857 42.139V35.0265C2.34857 34.3895 2.00355 33.9914 1.3666 33.9914C0.729657 33.9914 0.384644 34.3895 0.384644 35.0265V42.2452C0.384644 46.9427 2.85282 49.3843 7.55031 49.3843ZM35.231 49.3843H42.4763C47.1738 49.3843 49.6154 46.8631 49.6154 42.2452V35.0265C49.6154 34.3895 49.2704 33.9914 48.6335 33.9914C47.9965 33.9914 47.6515 34.3895 47.6515 35.0265V42.139C47.6515 45.6157 45.7406 47.4204 42.3967 47.4204H35.231C34.5941 47.4204 34.2225 47.7654 34.2225 48.4024C34.2225 49.0393 34.5941 49.3843 35.231 49.3843Z" fill="currentColor"/>
</svg>
