<svg width="24" height="24" viewBox="0 0 24 24" fill="none" xmlns="http://www.w3.org/2000/svg">
<path d="M12.75 6V3.75L17.25 8.25H15C13.42 8.25 12.75 7.58 12.75 6ZM14.75 16.6V17C14.26 17.5 14 18.2 14 19.05V20.7C14 20.87 13.87 21 13.7 21H6C4 21 3 20 3 18V6C3 4 4 3 6 3H11.25V6C11.25 8.42 12.58 9.75 15 9.75H18V12.64C18 12.79 17.9 12.9 17.75 12.93C16.04 13.27 14.75 14.79 14.75 16.6ZM7.75 16C7.75 15.586 7.414 15.25 7 15.25C6.586 15.25 6.25 15.586 6.25 16C6.25 16.414 6.586 16.75 7 16.75C7.414 16.75 7.75 16.414 7.75 16ZM7.75 12C7.75 11.586 7.414 11.25 7 11.25C6.586 11.25 6.25 11.586 6.25 12C6.25 12.414 6.586 12.75 7 12.75C7.414 12.75 7.75 12.414 7.75 12ZM11.75 16C11.75 15.586 11.414 15.25 11 15.25H9.5C9.086 15.25 8.75 15.586 8.75 16C8.75 16.414 9.086 16.75 9.5 16.75H11C11.414 16.75 11.75 16.414 11.75 16ZM14.75 12C14.75 11.586 14.414 11.25 14 11.25H9.5C9.086 11.25 8.75 11.586 8.75 12C8.75 12.414 9.086 12.75 9.5 12.75H14C14.414 12.75 14.75 12.414 14.75 12ZM21.5 19.05V21.15C21.5 22.05 21.0499 22.5 20.1499 22.5H16.8501C15.9501 22.5 15.5 22.05 15.5 21.15V19.05C15.5 18.38 15.751 17.961 16.25 17.79V16.6C16.25 15.359 17.26 14.35 18.5 14.35C19.74 14.35 20.75 15.359 20.75 16.6V17.79C21.249 17.961 21.5 18.38 21.5 19.05ZM19.25 16.6C19.25 16.186 18.913 15.85 18.5 15.85C18.087 15.85 17.75 16.186 17.75 16.6V17.7H19.25V16.6Z" fill="currentColor"/>
</svg>
