<svg width="20" height="20" viewBox="0 0 20 20" fill="none" xmlns="http://www.w3.org/2000/svg">
<path d="M3.58337 11.2503H9.375V17.2503C9.375 17.3887 9.26329 17.5003 9.12496 17.5003H5.83333C4.16667 17.5003 3.33333 16.667 3.33333 15.0003V11.5003C3.33333 11.362 3.44504 11.2503 3.58337 11.2503ZM16.4166 11.2503H10.625V17.2503C10.625 17.3887 10.7367 17.5003 10.875 17.5003H14.1667C15.8333 17.5003 16.6667 16.667 16.6667 15.0003V11.5003C16.6667 11.362 16.555 11.2503 16.4166 11.2503ZM17.5 7.08367V9.75034C17.5 9.88868 17.3883 10.0003 17.25 10.0003H10.625V7.08367H9.375V10.0003H2.75004C2.61171 10.0003 2.5 9.88868 2.5 9.75034V7.08367C2.5 6.39367 3.06 5.83367 3.75 5.83367H4.63745C4.37162 5.31867 4.27251 4.70449 4.50918 4.03699C4.74501 3.37199 5.28329 2.82118 5.95662 2.61035C6.88829 2.31868 7.84666 2.62366 8.43333 3.33616C8.46 3.36866 9.39748 4.61615 10.0008 5.41781C10.6033 4.61615 11.54 3.37115 11.5625 3.34282C12.1533 2.62449 13.1033 2.32198 14.0325 2.60531C14.6825 2.80448 15.2108 3.3195 15.4608 3.952C15.7375 4.652 15.6408 5.29619 15.3642 5.83285H16.2516C16.94 5.83368 17.5 6.39367 17.5 7.08367ZM8.74837 5.83367C8.18421 5.08367 7.5025 4.17698 7.45667 4.11781C7.26583 3.88531 6.98167 3.75033 6.66667 3.75033C6.0925 3.75033 5.625 4.21783 5.625 4.792C5.625 5.36617 6.0925 5.83367 6.66667 5.83367H8.74837ZM14.375 4.792C14.375 4.21783 13.9075 3.75033 13.3333 3.75033C13.0183 3.75033 12.7341 3.88531 12.5324 4.13114C12.4933 4.18281 11.8141 5.08533 11.2516 5.83367H13.3333C13.9075 5.83367 14.375 5.36617 14.375 4.792Z" fill="white"/>
</svg>
