<svg width="122" height="16" viewBox="0 0 122 16" fill="none" xmlns="http://www.w3.org/2000/svg">
<path d="M106.489 15.9999V0.0221535H119.092C119.623 0.0221535 120.104 0.162894 120.535 0.444376C120.98 0.711042 121.332 1.07401 121.591 1.53326C121.864 1.97771 122 2.474 122 3.02215V7.42215C122 7.95549 121.864 8.45178 121.591 8.91104C121.332 9.3703 120.98 9.73327 120.535 9.99993C120.104 10.2666 119.623 10.3999 119.092 10.3999L109.074 10.4222V15.9999H106.489ZM109.462 7.71104H119.006C119.106 7.71104 119.192 7.674 119.264 7.59993C119.35 7.52586 119.393 7.42956 119.393 7.31104V3.08882C119.393 2.98512 119.35 2.89623 119.264 2.82215C119.192 2.73326 119.106 2.68882 119.006 2.68882H109.462C109.362 2.68882 109.268 2.73326 109.182 2.82215C109.11 2.89623 109.074 2.98512 109.074 3.08882V7.31104C109.074 7.42956 109.11 7.52586 109.182 7.59993C109.268 7.674 109.362 7.71104 109.462 7.71104Z" fill="#0080FF"/>
<path d="M89.6009 16V3C89.6009 2.45185 89.7301 1.94815 89.9887 1.48889C90.2472 1.02963 90.599 0.666667 91.0443 0.4C91.4895 0.133333 91.9778 0 92.5092 0H102.203C102.735 0 103.216 0.133333 103.647 0.4C104.092 0.666667 104.444 1.02963 104.702 1.48889C104.975 1.94815 105.112 2.45185 105.112 3V16H102.505V10.5111H92.186V16H89.6009ZM92.186 7.84444H102.505V3.08889C102.505 2.97037 102.462 2.87407 102.376 2.8C102.304 2.72593 102.218 2.68889 102.117 2.68889H92.5738C92.4733 2.68889 92.3799 2.72593 92.2937 2.8C92.2219 2.87407 92.186 2.97037 92.186 3.08889V7.84444Z" fill="#0080FF"/>
<path d="M71.2756 16L65.6314 0H68.3889L72.3096 11.0889L76.2304 0H78.8587L82.801 11.0889L86.7218 0H89.4793L83.8351 16H81.7454L77.5445 4.11111L73.3437 16H71.2756Z" fill="#0080FF"/>
<path d="M52.8371 16C52.3057 16 51.8174 15.8667 51.3722 15.6C50.9413 15.3333 50.5966 14.9704 50.3381 14.5111C50.0796 14.0519 49.9503 13.5481 49.9503 13V11.9333H52.5355V12.9111C52.5355 13.0296 52.5714 13.1259 52.6432 13.2C52.715 13.2741 52.8084 13.3111 52.9233 13.3111H62.4452C62.5601 13.3111 62.6534 13.2741 62.7252 13.2C62.8114 13.1259 62.8545 13.0296 62.8545 12.9111V9.73333C62.8545 9.62963 62.8114 9.54074 62.7252 9.46667C62.6534 9.37778 62.5601 9.33333 62.4452 9.33333H52.8371C52.3057 9.33333 51.8174 9.2 51.3722 8.93333C50.9413 8.66667 50.5966 8.31111 50.3381 7.86667C50.0796 7.40741 49.9503 6.9037 49.9503 6.35556V3C49.9503 2.45185 50.0796 1.94815 50.3381 1.48889C50.5966 1.02963 50.9413 0.666667 51.3722 0.4C51.8174 0.133333 52.3057 0 52.8371 0H62.5529C63.0843 0 63.5654 0.133333 63.9963 0.4C64.4415 0.666667 64.7934 1.02963 65.0519 1.48889C65.3247 1.94815 65.4612 2.45185 65.4612 3V4.06667H62.8545V3.08889C62.8545 2.97037 62.8114 2.87407 62.7252 2.8C62.6534 2.72593 62.5601 2.68889 62.4452 2.68889H52.9233C52.8084 2.68889 52.715 2.72593 52.6432 2.8C52.5714 2.87407 52.5355 2.97037 52.5355 3.08889V6.26667C52.5355 6.37037 52.5714 6.46667 52.6432 6.55556C52.715 6.62963 52.8084 6.66667 52.9233 6.66667H62.5529C63.0843 6.66667 63.5654 6.8 63.9963 7.06667C64.4415 7.33333 64.7934 7.6963 65.0519 8.15556C65.3247 8.6 65.4612 9.0963 65.4612 9.64444V13C65.4612 13.5481 65.3247 14.0519 65.0519 14.5111C64.7934 14.9704 64.4415 15.3333 63.9963 15.6C63.5654 15.8667 63.0843 16 62.5529 16H52.8371Z" fill="#0080FF"/>
<path d="M33.9467 16V0H36.5534V6.66667H40.5173L45.9246 0H48.8328V0.644444L42.8439 8L48.8328 15.3556V16H45.9246L40.5173 9.33333H36.5534V16H33.9467Z" fill="#0080FF"/>
<path d="M20.0474 16C19.516 16 19.0277 15.8667 18.5825 15.6C18.1517 15.3333 17.807 14.9704 17.5485 14.5111C17.2899 14.0519 17.1607 13.5481 17.1607 13V11.9333H19.7458V12.9111C19.7458 13.0296 19.7817 13.1259 19.8535 13.2C19.9253 13.2741 20.0187 13.3111 20.1336 13.3111H29.6555C29.7704 13.3111 29.8638 13.2741 29.9356 13.2C30.0217 13.1259 30.0648 13.0296 30.0648 12.9111V9.73333C30.0648 9.62963 30.0217 9.54074 29.9356 9.46667C29.8638 9.37778 29.7704 9.33333 29.6555 9.33333H20.0474C19.516 9.33333 19.0277 9.2 18.5825 8.93333C18.1517 8.66667 17.807 8.31111 17.5485 7.86667C17.2899 7.40741 17.1607 6.9037 17.1607 6.35556V3C17.1607 2.45185 17.2899 1.94815 17.5485 1.48889C17.807 1.02963 18.1517 0.666667 18.5825 0.4C19.0277 0.133333 19.516 0 20.0474 0H29.7632C30.2946 0 30.7757 0.133333 31.2066 0.4C31.6518 0.666667 32.0037 1.02963 32.2622 1.48889C32.5351 1.94815 32.6715 2.45185 32.6715 3V4.06667H30.0648V3.08889C30.0648 2.97037 30.0217 2.87407 29.9356 2.8C29.8638 2.72593 29.7704 2.68889 29.6555 2.68889H20.1336C20.0187 2.68889 19.9253 2.72593 19.8535 2.8C19.7817 2.87407 19.7458 2.97037 19.7458 3.08889V6.26667C19.7458 6.37037 19.7817 6.46667 19.8535 6.55556C19.9253 6.62963 20.0187 6.66667 20.1336 6.66667H29.7632C30.2946 6.66667 30.7757 6.8 31.2066 7.06667C31.6518 7.33333 32.0037 7.6963 32.2622 8.15556C32.5351 8.6 32.6715 9.0963 32.6715 9.64444V13C32.6715 13.5481 32.5351 14.0519 32.2622 14.5111C32.0037 14.9704 31.6518 15.3333 31.2066 15.6C30.7757 15.8667 30.2946 16 29.7632 16H20.0474Z" fill="#0080FF"/>
<path d="M0 16V0H2.58514V6.66667H13.2704V0H15.8555V16H13.2704V9.33333H2.58514V16H0Z" fill="#0080FF"/>
</svg>
