<svg width="25" height="24" viewBox="0 0 25 24" fill="none" xmlns="http://www.w3.org/2000/svg">
<path d="M20.9341 17.59L14.3441 20.65C13.3341 21.12 12.1541 21.12 11.1441 20.65L4.55414 17.59C3.47414 17.09 3.47414 15.55 4.55414 15.05L4.69416 14.99L10.5141 17.68C11.2141 18.01 11.9641 18.18 12.7441 18.18C13.5241 18.18 14.2742 18.01 14.9742 17.68L20.7941 14.99L20.9341 15.05C22.0141 15.55 22.0141 17.09 20.9341 17.59ZM20.9341 10.72L20.8041 10.66L16.1441 12.83L14.9742 13.37C14.2742 13.69 13.5241 13.86 12.7441 13.86C11.9641 13.86 11.2141 13.69 10.5141 13.37L9.34415 12.83L4.68415 10.66L4.55414 10.72C3.47414 11.23 3.47414 12.77 4.55414 13.27L6.47415 14.16L11.1441 16.32C11.6541 16.56 12.1941 16.68 12.7441 16.68C13.2941 16.68 13.8341 16.56 14.3441 16.32L19.0141 14.16L20.9341 13.27C22.0141 12.77 22.0141 11.23 20.9341 10.72ZM20.9341 6.41L14.3441 3.35001C13.8341 3.12001 13.2941 3 12.7441 3C12.1941 3 11.6541 3.12001 11.1441 3.35001L4.55414 6.41C3.47414 6.91 3.47414 8.45001 4.55414 8.95001L4.68415 9.01001L5.57413 9.42001L6.46414 9.84L11.1441 12.01C11.6541 12.24 12.1941 12.36 12.7441 12.36C13.2941 12.36 13.8341 12.24 14.3441 12.01L19.0241 9.84L19.9142 9.42001L20.8041 9.01001L20.9341 8.95001C22.0141 8.45001 22.0141 6.91 20.9341 6.41Z" fill="#FF4D00"/>
</svg>
