<svg xmlns="http://www.w3.org/2000/svg" width="224" height="52" viewBox="0 0 224 52" fill="none">
	<g clip-path="url(#clip0_6507_58835)">
		<mask id="mask0_6507_58835" mask="alpha" maskUnits="userSpaceOnUse" x="-1" y="0" width="229" height="35">
			<path d="M0 17.3223L2.27128 15.3383L4.54257 13.3855L6.81385 11.4949L9.08514 9.6961L11.3564 8.0176L13.6277 6.4859L15.899 5.125L18.1703 3.9565L20.4416 2.9988L22.7128 2.267L24.9841 1.7726L27.2554 1.5234H29.5267L31.798 1.7726L34.0693 2.267L36.3406 2.9988L38.6118 3.9565L40.8831 5.125L43.1544 6.4859L45.4257 8.0176L47.697 9.6961L49.9683 11.4949L52.2396 13.3855L54.5108 15.3383L56.7821 17.3223L59.0534 19.3064L61.3247 21.2591L63.596 23.1498L65.8673 24.9485L68.1385 26.627L70.4098 28.1588L72.6811 29.5196L74.9524 30.6881L77.2237 31.6458L79.495 32.3777L81.7663 32.872L84.0375 33.1212H86.3088L88.5801 32.872L90.8514 32.3777L93.1227 31.6458L95.394 30.6881L97.6653 29.5196L99.9365 28.1588L102.208 26.627L104.479 24.9485L106.75 23.1498L109.022 21.2591L111.293 19.3064L113.564 17.3223L115.836 15.3383L118.107 13.3855L120.378 11.4949L122.649 9.6961L124.921 8.0176L127.192 6.4859L129.463 5.125L131.735 3.9565L134.006 2.9988L136.277 2.267L138.548 1.7726L140.82 1.5234L143.091 1.5234L145.362 1.7726L147.634 2.267L149.905 2.9988L152.176 3.9565L154.447 5.125L156.719 6.4859L158.99 8.0176L161.261 9.6961L163.533 11.4949L165.804 13.3855L168.075 15.3383L170.346 17.3223L172.618 19.3064L174.889 21.2591L177.16 23.1498L179.432 24.9485L181.703 26.627L183.974 28.1588L186.245 29.5196L188.517 30.6881L190.788 31.6458L193.059 32.3777L195.331 32.872L197.602 33.1212H199.873L202.144 32.872L204.416 32.3777L206.687 31.6458L208.958 30.6881L211.229 29.5196L213.501 28.1588L215.772 26.627L218.043 24.9485L220.315 23.1498L222.586 21.2591L224.857 19.3064L227.128 17.3223" stroke="currentColor" stroke-width="2" />
		</mask>
		<g mask="url(#mask0_6507_58835)">
			<rect width="224" height="76.9609" rx="1.2514" fill="currentColor" fill-opacity="0.12" />
			<g filter="url(#filter0_f_6507_58835)">
				<circle cx="-0.156054" cy="19.1994" r="17.676" fill="currentColor" fill-opacity="0.24" />
			</g>
		</g>
	</g>
	<defs>
		<filter id="filter0_f_6507_58835" x="-20.9605" y="-1.60505" width="41.6085" height="41.6085" filterUnits="userSpaceOnUse" color-interpolation-filters="sRGB">
			<feFlood flood-opacity="0" result="BackgroundImageFix" />
			<feBlend mode="normal" in="SourceGraphic" in2="BackgroundImageFix" result="shape" />
			<feGaussianBlur stdDeviation="1.56425" result="effect1_foregroundBlur_6507_58835" />
		</filter>
		<clipPath id="clip0_6507_58835">
			<rect width="224" height="52" fill="currentColor" />
		</clipPath>
	</defs>
</svg>
