<svg width="16" height="16" viewBox="0 0 16 16" fill="none" xmlns="http://www.w3.org/2000/svg">
  <path
    d="M7.66634 13.3733V8.49992H1.49967C1.40634 8.49992 1.33301 8.57325 1.33301 8.66658C1.33301 9.99992 1.99967 10.6666 3.33301 10.6666H5.99967V12.8333H4.33301C4.05967 12.8333 3.83301 13.0599 3.83301 13.3333C3.83301 13.6066 4.05967 13.8333 4.33301 13.8333H7.69971C7.67971 13.6866 7.66634 13.5333 7.66634 13.3733ZM11.333 1.33325H3.33301C1.99967 1.33325 1.33301 1.99992 1.33301 3.33325V7.33325C1.33301 7.42658 1.40634 7.49992 1.49967 7.49992H7.69971C7.87304 6.35992 8.69963 5.66658 9.95296 5.66658C9.95296 5.66658 12.953 5.66658 13.133 5.66658C13.273 5.66658 13.333 5.54655 13.333 5.46655C13.333 5.38655 13.333 3.33325 13.333 3.33325C13.333 1.99992 12.6663 1.33325 11.333 1.33325ZM13.3804 6.66658H9.95166C9.09433 6.66658 8.66569 7.09785 8.66569 7.96118V13.372C8.66569 14.2353 9.09433 14.6666 9.95166 14.6666H13.3804C14.2377 14.6666 14.6663 14.2353 14.6663 13.372V7.96118C14.6663 7.09785 14.2377 6.66658 13.3804 6.66658ZM11.6663 13.6666C11.2983 13.6666 10.9997 13.3679 10.9997 12.9999C10.9997 12.6319 11.2983 12.3333 11.6663 12.3333C12.0343 12.3333 12.333 12.6319 12.333 12.9999C12.333 13.3679 12.0343 13.6666 11.6663 13.6666Z"
    fill="white"
  />
</svg>
