<svg width="91" height="81" viewBox="0 0 91 81" fill="none" xmlns="http://www.w3.org/2000/svg">
<path fill-rule="evenodd" clip-rule="evenodd" d="M3 0.5C1.61929 0.5 0.5 1.61929 0.5 3C0.5 4.38071 1.61929 5.5 3 5.5L57 5.5C58.3807 5.50001 59.5 4.38072 59.5 3.00001C59.5 1.61929 58.3807 0.500005 57 0.500005L3 0.5ZM7.51953 11.6055H10.5143C13.5091 11.6055 15.0065 13.1029 15.0065 16.0977V19.0924C15.0065 22.0872 13.5091 23.5846 10.5143 23.5846H7.51953C4.52474 23.5846 3.02734 22.0872 3.02734 19.0924V16.0977C3.02734 13.1029 4.52474 11.6055 7.51953 11.6055ZM31.4779 11.6055H28.4831C25.4883 11.6055 23.9909 13.1029 23.9909 16.0977V19.0924C23.9909 22.0872 25.4883 23.5846 28.4831 23.5846H31.4779C34.4726 23.5846 35.97 22.0872 35.97 19.0924V16.0977C35.97 13.1029 34.4726 11.6055 31.4779 11.6055ZM49.4466 11.6055H52.4414C55.4362 11.6055 56.9336 13.1029 56.9336 16.0977V19.0924C56.9336 22.0872 55.4362 23.5846 52.4414 23.5846H49.4466C46.4518 23.5846 44.9544 22.0872 44.9544 19.0924V16.0977C44.9544 13.1029 46.4518 11.6055 49.4466 11.6055ZM10.5143 31.97H7.51953C4.52474 31.97 3.02734 33.4674 3.02734 36.4622V39.457C3.02734 42.4518 4.52474 43.9492 7.51953 43.9492H10.5143C13.5091 43.9492 15.0065 42.4518 15.0065 39.457V36.4622C15.0065 33.4674 13.5091 31.97 10.5143 31.97ZM28.4831 31.97H31.4779C34.4726 31.97 35.97 33.4674 35.97 36.4622V39.457C35.97 42.4518 34.4726 43.9492 31.4779 43.9492H28.4831C25.4883 43.9492 23.9909 42.4518 23.9909 39.457V36.4622C23.9909 33.4674 25.4883 31.97 28.4831 31.97ZM52.4414 31.97H49.4466C46.4518 31.97 44.9544 33.4674 44.9544 36.4622V39.457C44.9544 41.6067 45.726 42.9849 47.2691 43.5915C49.7015 40.0566 52.9858 37.1532 56.8257 35.1779C56.4335 33.0393 54.9721 31.97 52.4414 31.97Z" fill="currentColor"/>
<path fill-rule="evenodd" clip-rule="evenodd" d="M68.7031 80.3125C80.8534 80.3125 90.7031 70.4628 90.7031 58.3125C90.7031 46.1622 80.8534 36.3125 68.7031 36.3125C56.5529 36.3125 46.7031 46.1622 46.7031 58.3125C46.7031 70.4628 56.5529 80.3125 68.7031 80.3125ZM76.9524 58.3122L68.7027 50.0625L60.4531 58.3122L68.7027 66.5619L76.9524 58.3122Z" fill="currentColor"/>
</svg>
