<svg width="16" height="16" viewBox="0 0 16 16" fill="none" xmlns="http://www.w3.org/2000/svg">
  <g opacity="0.8">
    <path
      d="M11.9995 13.8332C11.9008 13.8332 11.8009 13.8038 11.7135 13.7432C11.4869 13.5852 11.4322 13.2732 11.5902 13.0472C11.9888 12.4772 12.1662 11.7425 12.1662 10.6672V6.66715C12.1662 5.79249 11.9015 4.96179 11.4009 4.26579C11.2395 4.04179 11.2902 3.7292 11.5142 3.56787C11.7395 3.40654 12.0516 3.4578 12.2122 3.6818C12.8369 4.54914 13.1668 5.58182 13.1668 6.66715V10.6672C13.1668 11.9605 12.9328 12.8718 12.4095 13.6204C12.3128 13.7584 12.1575 13.8332 11.9995 13.8332ZM3.8335 10.6665V6.6665C3.8335 4.36917 5.70283 2.49984 8.00016 2.49984C8.14683 2.49984 8.29277 2.50511 8.4401 2.52311C8.7121 2.55111 8.96276 2.36124 8.99609 2.08724C9.02943 1.81257 8.83422 1.56377 8.56022 1.53044C8.37422 1.50777 8.18683 1.50049 8.00016 1.50049C5.1515 1.50049 2.8335 3.81849 2.8335 6.66715V10.6672C2.8335 10.9432 3.0575 11.1672 3.3335 11.1672C3.6095 11.1672 3.8335 10.9425 3.8335 10.6665ZM8.27816 14.4159C9.77349 13.4165 10.5002 12.0572 10.5002 10.2606V6.6665C10.5002 5.99984 10.2394 5.37258 9.76676 4.89925C9.3161 4.44992 8.69409 4.1825 8.05876 4.1665C7.79142 4.1605 7.55356 4.37848 7.54622 4.65381C7.53956 4.92981 7.75753 5.15917 8.03353 5.1665C8.4142 5.17584 8.78876 5.33645 9.05876 5.60645C9.34276 5.89045 9.49886 6.2665 9.49886 6.6665V10.2598C9.49886 11.7171 8.93353 12.7732 7.72087 13.5838C7.49153 13.7372 7.42951 14.0478 7.58285 14.2778C7.68018 14.4218 7.83818 14.4998 7.99951 14.4998C8.09618 14.4998 8.19282 14.4725 8.27816 14.4159ZM5.70947 11.6178C6.21947 10.9538 6.50016 10.1258 6.50016 9.28646V6.6665C6.50016 6.5105 6.52086 6.3638 6.56152 6.24447C6.64886 5.98247 6.50681 5.69913 6.24414 5.61247C5.98214 5.5238 5.69948 5.6672 5.61214 5.9292C5.53814 6.15253 5.50016 6.40115 5.50016 6.66715V9.28711C5.50016 9.90711 5.29283 10.5191 4.91683 11.0091C4.74816 11.2284 4.79012 11.5418 5.00879 11.7104C5.10012 11.7798 5.20683 11.8138 5.31283 11.8138C5.46283 11.8131 5.61147 11.7458 5.70947 11.6178ZM8.50016 9.99984V7.33317C8.50016 7.05717 8.27616 6.83317 8.00016 6.83317C7.72416 6.83317 7.50016 7.05717 7.50016 7.33317V9.99984C7.50016 10.2758 7.72416 10.4998 8.00016 10.4998C8.27616 10.4998 8.50016 10.2758 8.50016 9.99984Z"
      fill="white"
    />
  </g>
</svg>
