<svg width="16" height="16" viewBox="0 0 16 16" fill="none" xmlns="http://www.w3.org/2000/svg">
<path d="M8 7.3335C7.63133 7.3335 7.33333 7.03483 7.33333 6.66683V2.00016C7.33333 1.63216 7.63133 1.3335 8 1.3335C8.36867 1.3335 8.66667 1.63216 8.66667 2.00016V6.66683C8.66667 7.03483 8.36867 7.3335 8 7.3335ZM14 8.66683C14 6.5375 12.8506 4.5462 11.002 3.47087C10.6833 3.28553 10.2753 3.39343 10.0907 3.71143C9.90532 4.03009 10.0134 4.43822 10.3314 4.62288C11.772 5.46088 12.6667 7.01083 12.6667 8.66683C12.6667 11.2402 10.5727 13.3335 8 13.3335C5.42733 13.3335 3.33333 11.2402 3.33333 8.66683C3.33333 7.01083 4.22795 5.46088 5.66862 4.62288C5.98729 4.43822 6.09534 4.02943 5.90934 3.71143C5.72334 3.39343 5.31538 3.2842 4.99805 3.47087C3.14938 4.54687 2 6.5375 2 8.66683C2 11.9748 4.69133 14.6668 8 14.6668C11.3087 14.6668 14 11.9748 14 8.66683Z" fill="currentColor"/>
</svg>
