<svg width="24" height="24" viewBox="0 0 24 24" fill="none" xmlns="http://www.w3.org/2000/svg">
<path d="M9 2H3C2.44772 2 2 2.44772 2 3V9C2 9.55228 2.44772 10 3 10H9C9.55228 10 10 9.55228 10 9V3C10 2.44772 9.55228 2 9 2Z" stroke="currentColor" stroke-width="2" stroke-linecap="round" stroke-linejoin="round"/>
<path d="M9 13.9999H3C2.44772 13.9999 2 14.4476 2 14.9999V20.9999C2 21.5522 2.44772 21.9999 3 21.9999H9C9.55228 21.9999 10 21.5522 10 20.9999V14.9999C10 14.4476 9.55228 13.9999 9 13.9999Z" stroke="currentColor" stroke-width="2" stroke-linecap="round" stroke-linejoin="round"/>
<path d="M21 2H15C14.4477 2 14 2.44772 14 3V9C14 9.55228 14.4477 10 15 10H21C21.5523 10 22 9.55228 22 9V3C22 2.44772 21.5523 2 21 2Z" stroke="currentColor" stroke-width="2" stroke-linecap="round" stroke-linejoin="round"/>
<path d="M14 13.9999V17.9999" stroke="currentColor" stroke-width="2" stroke-linecap="round" stroke-linejoin="round"/>
<path d="M14 21.9999H18V13.9999" stroke="currentColor" stroke-width="2" stroke-linecap="round" stroke-linejoin="round"/>
<path d="M18 16H22" stroke="currentColor" stroke-width="2" stroke-linecap="round" stroke-linejoin="round"/>
<path d="M22 20.0001V22.0001" stroke="currentColor" stroke-width="2" stroke-linecap="round" stroke-linejoin="round"/>
</svg>
