<svg width="24" height="24" viewBox="0 0 24 24" fill="currentColor" xmlns="http://www.w3.org/2000/svg">
<path d="M21 17.5001V21.0001H16.5V16.0001H19.5C20.5 16.0001 21 16.5001 21 17.5001ZM4.5 14.0001C3.5 14.0001 3 14.5001 3 15.5001V21.0001H7.5V14.0001H4.5ZM15 12.5001C15 11.5001 14.5 11.0001 13.5 11.0001H10.5C9.5 11.0001 9 11.5001 9 12.5001V21.0001H15V12.5001ZM11.626 2.76006L10.871 4.28301C10.814 4.39801 10.704 4.47702 10.578 4.49602L8.83501 4.7481C8.51501 4.7941 8.388 5.18606 8.619 5.41106L9.879 6.63409C9.971 6.72309 10.013 6.85206 9.991 6.97906L9.703 8.65105C9.644 8.99105 10.002 9.25002 10.308 9.09002L11.819 8.299C11.932 8.24 12.068 8.24 12.181 8.299L13.693 9.09099C13.999 9.25099 14.356 8.99203 14.297 8.65203L14.009 6.97808C13.987 6.85208 14.029 6.72311 14.121 6.63311L15.381 5.41009C15.613 5.18509 15.485 4.793 15.165 4.747L13.422 4.49505C13.295 4.47705 13.185 4.39703 13.129 4.28203L12.374 2.75909C12.221 2.45109 11.779 2.45106 11.626 2.76006Z" fill="currentColor"/>
</svg>
