<svg xmlns="http://www.w3.org/2000/svg" width="16" height="16" viewBox="0 0 16 16" fill="none">
	<path d="M14.6667 8C14.6667 11.676 11.676 14.6667 8.00004 14.6667C5.45204 14.6667 3.16399 13.248 2.02999 10.9634C1.86599 10.6334 2.00077 10.2333 2.33077 10.07C2.65944 9.90532 3.06067 10.0413 3.224 10.3706C4.13133 12.1986 5.96137 13.334 8.00004 13.334C10.9407 13.334 13.3334 10.9413 13.3334 8.00065C13.3334 5.05998 10.9407 2.66732 8.00004 2.66732C6.07537 2.66732 4.33143 3.71065 3.39343 5.33398H5.33337C5.70204 5.33398 6.00004 5.63265 6.00004 6.00065C6.00004 6.36865 5.70204 6.66732 5.33337 6.66732H2.00004C1.63137 6.66732 1.33337 6.36865 1.33337 6.00065V2.66732C1.33337 2.29932 1.63137 2.00065 2.00004 2.00065C2.36871 2.00065 2.66671 2.29932 2.66671 2.66732V4.00602C3.90204 2.35736 5.86471 1.33398 8.00004 1.33398C11.676 1.33332 14.6667 4.324 14.6667 8Z" fill="currentColor" />
</svg>
