<svg xmlns="http://www.w3.org/2000/svg" width="24" height="24" viewBox="0 0 24 24" fill="none">
<path d="M21.421 5.66925L18.1411 18.7894C17.6711 20.6594 16.071 21.4993 14.671 21.4993C14.661 21.4993 14.6511 21.4993 14.6511 21.4993C13.2411 21.4893 11.6311 20.6293 11.1911 18.7393L10.3311 15.0894L15.7111 9.70928C16.1011 9.31928 16.1011 8.67936 15.7111 8.28936C15.3211 7.89936 14.681 7.89936 14.291 8.28936L8.91104 13.6692L5.26107 12.8094C3.37107 12.3694 2.51106 10.7594 2.50106 9.35943C2.49106 7.94943 3.33109 6.32943 5.21109 5.85943L18.3311 2.5794C19.2011 2.3594 20.1111 2.60932 20.7511 3.24932C21.3911 3.88932 21.641 4.79925 21.421 5.66925Z" fill="currentColor"/>
</svg>
