<svg width="20" height="22" viewBox="0 0 20 22" fill="none" xmlns="http://www.w3.org/2000/svg">
<path d="M18.4573 15.2559L16.7042 14.2441C16.4715 14.1094 16.4935 13.9429 16.7531 13.8732L17.7155 13.6151C17.9752 13.5456 18.358 13.3503 18.5668 13.1804C18.5668 13.1804 18.8105 12.9821 18.7056 12.5912C18.6181 12.2636 18.3218 12.048 17.9981 12.048C17.9356 12.048 17.9356 12.048 17.9356 12.048C17.8656 12.0617 17.5958 12.1299 17.3361 12.1998L14.9577 12.8369C14.6981 12.9063 14.2955 12.8535 14.0625 12.7193L13.5501 12.4233C13.3171 12.2888 13.1269 11.9588 13.1269 11.6904V10.3121C13.1269 10.0436 13.3173 9.71362 13.5501 9.57916L14.0231 9.30585C14.2556 9.17188 14.6587 9.11883 14.9181 9.18826L17.3359 9.83585C17.5955 9.90577 18.025 9.92777 18.2903 9.88499C18.2903 9.88499 18.6008 9.83488 18.7054 9.44397C18.8103 9.05332 18.5665 8.85481 18.5665 8.85481C18.3578 8.68515 17.9749 8.48958 17.7153 8.42015L16.7135 8.15172C16.4539 8.0823 16.4318 7.91533 16.6646 7.78136L18.4568 6.74629C18.6895 6.61183 19.009 6.32361 19.1662 6.10628C19.1662 6.10628 19.3505 5.8513 19.1484 5.50098C19.0124 5.26556 18.7663 5.13428 18.513 5.13428C18.3886 5.13428 18.3886 5.13428 18.3886 5.13428C18.2556 5.18831 17.9566 5.34281 17.7239 5.47678L15.9566 6.49742C15.7239 6.63163 15.5904 6.5292 15.6598 6.26958L15.918 5.30712C15.9877 5.04774 16.0097 4.61797 15.9669 4.35296C15.9669 4.35296 15.917 4.04249 15.5261 3.93786C15.4625 3.92075 15.3987 3.91268 15.3359 3.91268C15.0125 3.91268 14.9105 4.05667 14.9105 4.05667C14.7553 4.2762 14.5717 4.66857 14.5023 4.92795L13.8647 7.30661C13.7953 7.56598 13.5479 7.88868 13.3154 8.02265L12.8172 8.31063C12.5842 8.4446 12.2036 8.4446 11.9708 8.31063L10.7776 7.62172C10.5449 7.48727 10.3544 7.15748 10.3544 6.88881V6.33632C10.3544 6.06716 10.5099 5.69215 10.6998 5.5022L12.4554 3.74669C12.6453 3.55674 12.8793 3.19566 12.9749 2.94508C12.9749 2.94508 13.0868 2.65099 12.8008 2.36497C12.5145 2.0787 12.2204 2.19091 12.2204 2.19091C11.9694 2.28625 11.6085 2.5202 11.4186 2.7104L10.6996 3.42913C10.5097 3.61957 10.3542 3.55503 10.3542 3.28636V1.22306C10.3542 0.953907 10.2642 0.533425 10.1544 0.288226C10.1549 0.287003 10.0266 0 9.62175 0C9.21692 0 9.08857 0.287003 9.08857 0.287003C8.97881 0.532203 8.88884 0.952929 8.88884 1.22184V3.28514C8.88884 3.5538 8.73361 3.61834 8.54366 3.42839L7.82444 2.70917C7.63449 2.51898 7.32988 2.26718 7.14824 2.1491C7.14824 2.1491 7.14824 2.1491 6.96074 2.1491C6.77323 2.1491 6.58548 2.22049 6.44247 2.36374C6.1562 2.65001 6.26817 2.94386 6.26817 2.94386C6.36424 3.19444 6.59795 3.55552 6.78815 3.74547L8.54366 5.50098C8.73361 5.69093 8.88884 6.06618 8.88884 6.3351V6.88759C8.88884 7.15626 8.69865 7.48604 8.46567 7.6205L7.27243 8.30941C7.0397 8.44337 6.65907 8.44337 6.42609 8.30941L5.92787 8.02167C5.69514 7.88746 5.44774 7.56501 5.37831 7.30538L4.74099 4.92673C4.67131 4.66735 4.48772 4.27498 4.33273 4.05545C4.33273 4.05545 4.23078 3.91146 3.90711 3.91146C3.84428 3.91146 3.78048 3.91953 3.71692 3.93664C3.32577 4.04152 3.27614 4.35174 3.27614 4.35174C3.23361 4.61674 3.25561 5.04652 3.32528 5.30589L3.58344 6.26836C3.65287 6.52798 3.51939 6.63066 3.28666 6.4962L1.51917 5.47555C1.28643 5.34159 0.987452 5.18684 0.854462 5.13306C0.854462 5.13306 0.854462 5.13306 0.730273 5.13306C0.477006 5.13306 0.230584 5.26433 0.0949057 5.49976C-0.107512 5.85032 0.0768153 6.10505 0.0768153 6.10505C0.234252 6.32263 0.553524 6.61061 0.786501 6.74507L2.57868 7.78014C2.81166 7.9141 2.78941 8.08107 2.52979 8.1505L1.52772 8.41893C1.2681 8.48835 0.885265 8.68393 0.67698 8.85359C0.67698 8.85359 0.433002 9.05209 0.537878 9.443C0.64251 9.83365 0.952982 9.88377 0.952982 9.88377C1.21823 9.92655 1.64776 9.90455 1.90738 9.83463L4.32515 9.18704C4.58477 9.11761 4.98741 9.17042 5.22038 9.30463L5.69367 9.57794C5.9264 9.7124 6.11684 10.0424 6.11684 10.3109V11.6889C6.11684 11.9576 5.9264 12.2876 5.69367 12.4221L5.18102 12.7179C4.94829 12.8523 4.54541 12.9051 4.28579 12.8355L1.90738 12.1984C1.64776 12.1287 1.37811 12.0605 1.30819 12.0468C1.30819 12.0468 1.30819 12.0468 1.24536 12.0468C0.92169 12.0468 0.625642 12.2629 0.538123 12.59C0.433247 12.9809 0.677224 13.1792 0.677224 13.1792C0.885509 13.3491 1.26859 13.5444 1.52797 13.6138L2.49067 13.872C2.7503 13.9417 2.7723 14.1081 2.53957 14.2428L0.786745 15.2547C0.554013 15.3891 0.23474 15.6774 0.0770596 15.8952C0.0770596 15.8952 -0.107268 16.1497 0.0951502 16.5002C0.297568 16.8508 0.610485 16.8183 0.610485 16.8183C0.877687 16.7912 1.28692 16.6584 1.51965 16.524L3.29766 15.4977C3.53039 15.3632 3.66387 15.4654 3.59444 15.725L3.32577 16.7266C3.25634 16.9865 3.23434 17.4158 3.27688 17.6813C3.27688 17.6813 3.3265 17.992 3.71765 18.0961C4.10855 18.2008 4.30706 17.9573 4.30706 17.9573C4.47647 17.7487 4.67229 17.3659 4.74172 17.1063L5.38955 14.6885C5.45923 14.4286 5.70663 14.1064 5.93936 13.972L6.42682 13.6904C6.65956 13.5559 7.04044 13.5559 7.27317 13.6904L8.46616 14.3793C8.69889 14.5137 8.88933 14.8435 8.88933 15.1122V15.6977C8.88933 15.9666 8.7341 16.3418 8.54415 16.532L6.78863 18.2875C6.59844 18.4777 6.36473 18.8383 6.26865 19.0896C6.26865 19.0896 6.15669 19.3835 6.44296 19.6695C6.72923 19.956 7.02283 19.8436 7.02283 19.8436C7.27414 19.7477 7.63498 19.5145 7.82493 19.3241L8.54415 18.6051C8.7341 18.4149 8.88933 18.4794 8.88933 18.7481V20.7784C8.88933 21.0473 8.9793 21.4676 9.08906 21.713C9.08906 21.713 9.21765 22 9.62224 22C10.0271 22 10.1554 21.713 10.1554 21.713C10.2652 21.4678 10.3552 21.0473 10.3552 20.7784V18.7484C10.3552 18.4794 10.5106 18.4149 10.7006 18.6051L11.4196 19.3241C11.6095 19.5145 11.9703 19.7477 12.2214 19.8436C12.2214 19.8436 12.5155 19.956 12.8018 19.6693C13.0878 19.3832 12.9758 19.0896 12.9758 19.0896C12.88 18.8383 12.6463 18.4777 12.4563 18.2875L10.7008 16.532C10.5109 16.3418 10.3554 15.9663 10.3554 15.6979V15.1122C10.3554 14.8435 10.5458 14.5137 10.7786 14.3793L11.9716 13.6904C12.2045 13.5559 12.5852 13.5559 12.8181 13.6904L13.3056 13.972C13.5383 14.1064 13.7857 14.4286 13.8552 14.6885L14.5033 17.1063C14.5727 17.3659 14.7683 17.7487 14.9377 17.9573C14.9377 17.9573 15.1364 18.201 15.5271 18.0961C15.918 17.9917 15.9679 17.6813 15.9679 17.6813C16.0104 17.4158 15.9884 16.9865 15.919 16.7266L15.6505 15.725C15.5809 15.4654 15.7143 15.3632 15.9473 15.4977L17.7251 16.524C17.9578 16.6584 18.367 16.7909 18.6342 16.8183C18.6342 16.8183 18.9469 16.8506 19.1496 16.5002C19.3518 16.1497 19.1674 15.8952 19.1674 15.8952C19.0095 15.6786 18.69 15.3904 18.4573 15.2559ZM11.6613 11.5804C11.6613 11.8493 11.6447 12.092 11.6244 12.1204C11.6244 12.1204 11.6244 12.1204 11.6083 12.1483C11.5924 12.1759 11.5924 12.1759 11.5924 12.1759C11.5785 12.2074 11.3765 12.3431 11.1438 12.4771L10.1395 13.0567C9.90705 13.1914 9.68825 13.2985 9.65402 13.2946C9.65402 13.2946 9.65402 13.2946 9.62175 13.2946C9.58973 13.2946 9.58973 13.2946 9.58973 13.2946C9.55526 13.2985 9.33671 13.1914 9.10397 13.0567L8.03688 12.4409C7.80415 12.3064 7.60955 12.1879 7.60442 12.1776C7.60442 12.1776 7.60442 12.1776 7.59928 12.1685C7.59391 12.1588 7.59391 12.1588 7.59391 12.1588C7.58755 12.149 7.58217 11.9209 7.58217 11.6522V10.3116C7.58217 10.0432 7.77261 9.71313 8.00534 9.57867L9.19858 8.89001C9.43131 8.7558 9.81195 8.7558 10.0449 8.89001L11.2382 9.57867C11.4709 9.71313 11.6613 10.0432 11.6613 10.3116V11.5804Z" fill="#131313" fill-opacity="0.63"/>
</svg>
