<svg width="18" height="17" viewBox="0 0 18 17" fill="none" xmlns="http://www.w3.org/2000/svg">
<path d="M8.80054 0.829883L10.4189 4.09404C10.5406 4.33988 10.7756 4.50989 11.0481 4.54906L14.7838 5.08902C15.4688 5.18818 15.7422 6.0282 15.2464 6.50987L12.5456 9.13071C12.3481 9.32238 12.258 9.5982 12.3047 9.86904L12.9221 13.4557C13.0471 14.1832 12.283 14.7382 11.628 14.3957L8.38805 12.6999C8.14471 12.5724 7.85469 12.5724 7.61219 12.6999L4.37468 14.394C3.71885 14.7374 2.95216 14.1815 3.07799 13.4524L3.69556 9.86904C3.74223 9.5982 3.65218 9.32238 3.45468 9.13071L0.753871 6.50987C0.257205 6.0282 0.530481 5.18818 1.21631 5.08902L4.95217 4.54906C5.22384 4.50989 5.45885 4.33988 5.58135 4.09404L7.19969 0.829883C7.52553 0.167383 8.47221 0.167383 8.80054 0.829883Z" fill="currentColor" />
</svg>
