<svg width="18" height="28" viewBox="0 0 18 28" fill="none" xmlns="http://www.w3.org/2000/svg">
<path d="M13.4575 11.0791C16.9875 14.5747 15.8466 19.5946 10.4137 24.531C10.0446 23.4329 11.643 22.295 10.2439 21.3476C9.97812 21.3694 9.71948 21.3472 9.6856 21.3997C8.66878 22.9752 7.61945 24.542 6.70652 26.1486C6.39751 26.6924 6.80746 27.2891 7.70731 27.2918C9.6019 27.2975 11.5339 27.3461 13.6915 26.7421C12.8355 26.2756 12.2382 25.95 11.7915 25.7066C13.1998 24.1838 14.7629 22.7632 15.9199 21.1889C18.6517 17.4714 18.8292 13.7037 15.636 10.042C15.1301 9.46189 15.2278 9.01563 15.5023 8.42332C16.6536 5.93896 16.2223 3.56806 14.1131 1.42524C13.3461 0.646065 12.4497 -0.176145 10.4036 0.0330396C12.4966 1.07649 13.5701 2.36604 14.0472 3.90694C14.5146 5.41627 14.5545 6.90113 13.5304 8.29045C11.5862 8.04005 9.76807 7.6377 7.94196 7.61804C6.11371 7.59834 4.20734 7.80247 2.46416 8.19993C0.674514 8.60796 -0.150305 9.78657 0.0224616 10.9341C0.194822 12.0793 1.36974 12.9427 3.28944 13.1905C6.30605 13.5797 9.10739 13.0959 11.6972 11.9503C12.3043 11.6818 12.874 11.3695 13.4575 11.0791ZM11.9839 10.0025C9.53403 11.5065 7.01797 11.98 4.2009 11.79C3.28194 11.728 2.3581 11.5443 2.30393 10.7278C2.25747 10.0274 3.03649 9.7144 3.83235 9.55393C6.46508 9.02309 9.04855 9.12512 11.9839 10.0025Z" fill="#CECECE"/>
</svg>
