<svg width="16" height="16" viewBox="0 0 16 16" fill="none" xmlns="http://www.w3.org/2000/svg">
<path d="M4.19532 7.8047L1.5293 5.13869C1.4673 5.07669 1.41861 5.0034 1.38461 4.9214C1.31727 4.75873 1.31727 4.57463 1.38461 4.41196C1.41861 4.32996 1.4673 4.25668 1.5293 4.19468L4.19532 1.52866C4.45598 1.26799 4.87736 1.26799 5.13802 1.52866C5.39869 1.78933 5.39869 2.2107 5.13802 2.47137L3.60938 4.00001H11.3333C11.702 4.00001 12 4.29868 12 4.66668C12 5.03468 11.702 5.33335 11.3333 5.33335H3.60938L5.13802 6.86199C5.39869 7.12266 5.39869 7.54403 5.13802 7.8047C5.00802 7.9347 4.83734 8.00001 4.66667 8.00001C4.496 8.00001 4.32532 7.9347 4.19532 7.8047ZM14.6154 11.0786C14.5814 10.9966 14.5327 10.9233 14.4707 10.8613L11.8047 8.19533C11.544 7.93466 11.1227 7.93466 10.862 8.19533C10.6013 8.45599 10.6013 8.87737 10.862 9.13803L12.3906 10.6667H4.66667C4.298 10.6667 4 10.9653 4 11.3333C4 11.7013 4.298 12 4.66667 12H12.3906L10.862 13.5287C10.6013 13.7893 10.6013 14.2107 10.862 14.4714C10.992 14.6014 11.1627 14.6667 11.3333 14.6667C11.504 14.6667 11.6747 14.6014 11.8047 14.4714L14.4707 11.8054C14.5327 11.7434 14.5814 11.6701 14.6154 11.5881C14.6827 11.4254 14.6827 11.2413 14.6154 11.0786Z" fill="currentColor"/>
</svg>
