<svg width="164" height="320" viewBox="0 0 164 320" fill="none" xmlns="http://www.w3.org/2000/svg">
<rect x="0.24707" y="136.485" width="250.328" height="51.2034" rx="11.3785" fill="#FF4D00"/>
<path d="M20.1598 166.993C19.3798 166.993 18.7905 166.759 18.3918 166.291C17.9932 165.823 17.7938 165.147 17.7938 164.263V160.389H18.8858V164.133C18.8858 164.705 19.0115 165.156 19.2628 165.485C19.5228 165.806 19.9128 165.966 20.4328 165.966C20.9528 165.966 21.3905 165.793 21.7458 165.446C22.1012 165.091 22.2788 164.584 22.2788 163.925V160.389H23.3708V166.837H22.4608L22.3438 165.862H22.2788C22.1055 166.174 21.8325 166.443 21.4598 166.668C21.0872 166.885 20.6538 166.993 20.1598 166.993ZM25.6538 166.837V160.389H26.5638L26.6808 161.364H26.7458C26.9191 161.052 27.1921 160.788 27.5648 160.571C27.9374 160.346 28.3664 160.233 28.8518 160.233C29.6404 160.233 30.2298 160.467 30.6198 160.935C31.0184 161.403 31.2178 162.079 31.2178 162.963V166.837H30.1258V163.093C30.1258 162.521 30.0001 162.075 29.7488 161.754C29.4974 161.425 29.1074 161.26 28.5788 161.26C28.0674 161.26 27.6341 161.438 27.2788 161.793C26.9234 162.14 26.7458 162.642 26.7458 163.301V166.837H25.6538ZM36.1267 159.245C35.8667 159.245 35.65 159.158 35.4767 158.985C35.3034 158.812 35.2167 158.604 35.2167 158.361C35.2167 158.11 35.3034 157.902 35.4767 157.737C35.65 157.564 35.8667 157.477 36.1267 157.477C36.378 157.477 36.5904 157.564 36.7637 157.737C36.9457 157.902 37.0367 158.11 37.0367 158.361C37.0367 158.604 36.9457 158.812 36.7637 158.985C36.5904 159.158 36.378 159.245 36.1267 159.245ZM33.6047 166.837V165.901H35.6587V161.65C35.6587 161.433 35.5504 161.325 35.3337 161.325H33.8257V160.389H35.5937C36.365 160.389 36.7507 160.775 36.7507 161.546V165.901H38.8047V166.837H33.6047ZM44.0646 166.993C43.2413 166.993 42.5739 166.802 42.0626 166.421C41.5599 166.031 41.2783 165.498 41.2176 164.822H42.3486C42.4006 165.177 42.5739 165.468 42.8686 165.693C43.1719 165.918 43.5793 166.031 44.0906 166.031C44.5759 166.031 44.9356 165.927 45.1696 165.719C45.4123 165.511 45.5336 165.273 45.5336 165.004C45.5336 164.64 45.3906 164.393 45.1046 164.263C44.8186 164.124 44.3896 164.02 43.8176 163.951C43.1329 163.873 42.5653 163.687 42.1146 163.392C41.6639 163.097 41.4386 162.655 41.4386 162.066C41.4386 161.537 41.6596 161.1 42.1016 160.753C42.5436 160.406 43.1459 160.233 43.9086 160.233C44.6626 160.233 45.2563 160.406 45.6896 160.753C46.1229 161.091 46.3699 161.576 46.4306 162.209H45.3516C45.3256 161.897 45.1739 161.65 44.8966 161.468C44.6279 161.277 44.2899 161.182 43.8826 161.182C43.4579 161.182 43.1286 161.264 42.8946 161.429C42.6606 161.585 42.5436 161.793 42.5436 162.053C42.5436 162.313 42.6736 162.53 42.9336 162.703C43.2023 162.868 43.6226 162.976 44.1946 163.028C44.6453 163.08 45.0569 163.167 45.4296 163.288C45.8023 163.409 46.0969 163.6 46.3136 163.86C46.5389 164.12 46.6516 164.484 46.6516 164.952C46.6603 165.342 46.5519 165.693 46.3266 166.005C46.1099 166.308 45.8066 166.551 45.4166 166.733C45.0266 166.906 44.5759 166.993 44.0646 166.993ZM49.5065 166.837L48.0765 160.389H49.1555L50.0785 165.212L51.1835 160.389H52.4055L53.5105 165.212L54.4335 160.389H55.5255L54.0825 166.837H52.9645L51.7945 161.832L50.6245 166.837H49.5065ZM59.0435 166.993C58.5321 166.993 58.1075 166.902 57.7695 166.72C57.4315 166.538 57.1801 166.3 57.0155 166.005C56.8508 165.702 56.7685 165.372 56.7685 165.017C56.7685 164.358 57.0068 163.86 57.4835 163.522C57.9688 163.175 58.6145 163.002 59.4205 163.002H61.1885V162.872C61.1885 161.745 60.6728 161.182 59.6415 161.182C59.2255 161.182 58.8745 161.273 58.5885 161.455C58.3111 161.637 58.1335 161.923 58.0555 162.313H56.9375C56.9808 161.88 57.1238 161.507 57.3665 161.195C57.6178 160.883 57.9385 160.645 58.3285 160.48C58.7185 160.315 59.1561 160.233 59.6415 160.233C60.5601 160.233 61.2275 160.476 61.6435 160.961C62.0681 161.438 62.2805 162.075 62.2805 162.872V166.837H61.3445L61.2535 165.836H61.1625C60.9718 166.148 60.7161 166.421 60.3955 166.655C60.0835 166.88 59.6328 166.993 59.0435 166.993ZM59.2385 166.031C59.6545 166.031 60.0055 165.931 60.2915 165.732C60.5861 165.533 60.8071 165.268 60.9545 164.939C61.1105 164.61 61.1885 164.25 61.1885 163.86H59.5115C58.9221 163.86 58.5061 163.96 58.2635 164.159C58.0295 164.358 57.9125 164.623 57.9125 164.952C57.9125 165.29 58.0251 165.554 58.2505 165.745C58.4758 165.936 58.8051 166.031 59.2385 166.031ZM64.4984 169.697V160.389H65.3824L65.5124 161.455H65.5904C65.755 161.108 66.0194 160.818 66.3834 160.584C66.7474 160.35 67.1764 160.233 67.6704 160.233C68.1904 160.233 68.6584 160.363 69.0744 160.623C69.499 160.883 69.8327 161.269 70.0754 161.78C70.318 162.283 70.4394 162.898 70.4394 163.626C70.4394 164.345 70.3137 164.956 70.0624 165.459C69.8197 165.962 69.4817 166.343 69.0484 166.603C68.6237 166.863 68.134 166.993 67.5794 166.993C67.0854 166.993 66.665 166.889 66.3184 166.681C65.9804 166.464 65.7377 166.213 65.5904 165.927V169.697H64.4984ZM67.4494 165.953C67.9954 165.953 68.446 165.762 68.8014 165.381C69.1567 164.991 69.3344 164.402 69.3344 163.613C69.3344 162.824 69.1567 162.239 68.8014 161.858C68.446 161.468 67.9954 161.273 67.4494 161.273C66.9034 161.273 66.4527 161.468 66.0974 161.858C65.742 162.239 65.5644 162.824 65.5644 163.613C65.5644 164.402 65.742 164.991 66.0974 165.381C66.4527 165.762 66.9034 165.953 67.4494 165.953ZM73.0343 162.755V161.819H77.3243V162.755H73.0343ZM82.3372 166.837L79.5032 160.389H80.7512L82.9742 165.641L85.2102 160.389H86.4452L83.5982 166.837H82.3372ZM91.8871 166.837V164.731H87.5321V163.886L91.6791 157.737H92.9791V163.743H94.2791V164.731H92.9791V166.837H91.8871ZM88.7541 163.743H91.9391V159.011L88.7541 163.743ZM96.4191 162.755V161.819H100.709V162.755H96.4191ZM106.424 166.993C105.601 166.993 104.933 166.802 104.422 166.421C103.919 166.031 103.638 165.498 103.577 164.822H104.708C104.76 165.177 104.933 165.468 105.228 165.693C105.531 165.918 105.939 166.031 106.45 166.031C106.935 166.031 107.295 165.927 107.529 165.719C107.772 165.511 107.893 165.273 107.893 165.004C107.893 164.64 107.75 164.393 107.464 164.263C107.178 164.124 106.749 164.02 106.177 163.951C105.492 163.873 104.925 163.687 104.474 163.392C104.023 163.097 103.798 162.655 103.798 162.066C103.798 161.537 104.019 161.1 104.461 160.753C104.903 160.406 105.505 160.233 106.268 160.233C107.022 160.233 107.616 160.406 108.049 160.753C108.482 161.091 108.729 161.576 108.79 162.209H107.711C107.685 161.897 107.533 161.65 107.256 161.468C106.987 161.277 106.649 161.182 106.242 161.182C105.817 161.182 105.488 161.264 105.254 161.429C105.02 161.585 104.903 161.793 104.903 162.053C104.903 162.313 105.033 162.53 105.293 162.703C105.562 162.868 105.982 162.976 106.554 163.028C107.005 163.08 107.416 163.167 107.789 163.288C108.162 163.409 108.456 163.6 108.673 163.86C108.898 164.12 109.011 164.484 109.011 164.952C109.02 165.342 108.911 165.693 108.686 166.005C108.469 166.308 108.166 166.551 107.776 166.733C107.386 166.906 106.935 166.993 106.424 166.993ZM113.933 166.993C113.387 166.993 112.897 166.863 112.464 166.603C112.039 166.343 111.706 165.962 111.463 165.459C111.22 164.948 111.099 164.328 111.099 163.6C111.099 162.881 111.22 162.27 111.463 161.767C111.706 161.264 112.039 160.883 112.464 160.623C112.897 160.363 113.387 160.233 113.933 160.233C114.444 160.233 114.865 160.333 115.194 160.532C115.532 160.731 115.783 160.991 115.948 161.312V157.477H117.04V166.837H116.143L116.026 165.836H115.948C115.775 166.191 115.519 166.473 115.181 166.681C114.843 166.889 114.427 166.993 113.933 166.993ZM114.076 165.953C114.622 165.953 115.073 165.762 115.428 165.381C115.783 164.991 115.961 164.402 115.961 163.613C115.961 162.824 115.783 162.239 115.428 161.858C115.073 161.468 114.622 161.273 114.076 161.273C113.53 161.273 113.079 161.468 112.724 161.858C112.377 162.239 112.204 162.824 112.204 163.613C112.204 164.402 112.377 164.991 112.724 165.381C113.079 165.762 113.53 165.953 114.076 165.953ZM119.492 166.837V157.477H120.584V163.119L123.275 160.389H124.666L121.793 163.262V163.34L125.017 166.837H123.665L120.584 163.483V166.837H119.492Z" fill="#FFF8F3"/>
<rect x="17" y="194.515" width="250.328" height="51.2034" rx="11.3785" fill="#FF4D00" fill-opacity="0.12"/>
<rect opacity="0.24" x="41" y="217" width="149" height="8" rx="4" fill="#FF4D00"/>
<rect x="17" y="79" width="250.328" height="51.2034" rx="11.3785" fill="#FF4D00" fill-opacity="0.12"/>
<rect opacity="0.24" x="41" y="101.485" width="149" height="8" rx="4" fill="#FF4D00"/>
<rect x="64" y="20" width="250.328" height="51.2034" rx="11.3785" fill="#FF4D00" fill-opacity="0.12"/>
<rect x="64" y="253" width="250.328" height="51.2034" rx="11.3785" fill="#FF4D00" fill-opacity="0.12"/>
</svg>
