<svg width="16" height="16" viewBox="0 0 16 16" fill="none" xmlns="http://www.w3.org/2000/svg">
<path fill-rule="evenodd" clip-rule="evenodd" d="M6.17629 5.96209C6.14642 6.07744 6.09424 6.18577 6.02274 6.28089C5.88965 6.45439 5.71351 6.58971 5.51197 6.67329C5.33069 6.75176 5.13872 6.80248 4.94247 6.82376C4.9021 6.82889 4.86029 6.83207 4.81977 6.83516L4.81316 6.83566C4.68886 6.84041 4.56934 6.885 4.4721 6.96292C4.37486 7.04083 4.305 7.14798 4.27275 7.26866C4.25799 7.3287 4.24701 7.38962 4.23989 7.45106C4.22859 7.5437 4.22278 7.63855 4.21649 7.74114C4.21198 7.81477 4.20722 7.8924 4.20002 7.97607C4.1578 8.31685 4.05967 8.64825 3.90961 8.9568C3.87894 9.02167 3.84768 9.08455 3.81697 9.14631C3.65243 9.47729 3.50379 9.77629 3.54647 10.1768C3.57987 10.4853 3.7372 10.692 3.94625 10.9053C4.04553 11.0073 4.17719 11.0945 4.31386 11.1849C4.69634 11.4382 5.11804 11.7174 4.9791 12.4208C4.86542 12.9907 3.92469 13.5888 2.60251 13.7977C2.73076 13.7782 2.44826 13.294 2.41688 13.2402L2.41501 13.237C2.37856 13.1796 2.34122 13.1231 2.30394 13.0667L2.30393 13.0667L2.30392 13.0667C2.19628 12.9038 2.08917 12.7417 2.00553 12.562C1.78463 12.0928 1.68226 11.5499 1.77277 11.0357C1.85477 10.5703 2.16103 10.1986 2.45592 9.84066L2.45592 9.84066C2.50399 9.78231 2.55176 9.72433 2.5982 9.66638C2.99259 9.17438 3.40638 8.52976 3.49797 7.89109C3.5057 7.83561 3.51259 7.77511 3.51985 7.71146L3.51985 7.71145L3.51985 7.71144C3.53283 7.59752 3.54697 7.47346 3.56909 7.34985C3.60197 7.13638 3.66854 6.92955 3.76629 6.73715C3.83301 6.61098 3.92086 6.49728 4.02599 6.40104C4.0808 6.34995 4.11696 6.28186 4.12868 6.20767C4.1404 6.13348 4.12701 6.05749 4.09064 5.99186L1.9829 2.18366L5.01035 5.93666C5.04483 5.98014 5.08841 6.01548 5.138 6.04015C5.1876 6.06482 5.24199 6.07822 5.29732 6.07941C5.35264 6.0806 5.40756 6.06954 5.45815 6.04702C5.50875 6.0245 5.5538 5.99107 5.59009 5.9491C5.62844 5.90418 5.65019 5.84733 5.65166 5.78817C5.65313 5.72901 5.63424 5.67115 5.59817 5.62435C5.45741 5.44365 5.31091 5.26048 5.16509 5.07815L5.16498 5.07801C5.106 5.00426 5.04713 4.93066 4.9888 4.85741L4.22696 3.91023L2.69787 2.01912L1 0L2.89399 1.84971L4.52167 3.65747L5.33363 4.56351C5.40823 4.6479 5.48283 4.73153 5.55742 4.81517C5.75222 5.03355 5.94701 5.25194 6.14181 5.48363L6.18599 5.53776L6.19569 5.62165C6.20882 5.7354 6.20226 5.85058 6.17629 5.96209ZM13.9623 7.23486L13.9656 7.23973C13.965 6.83596 13.7161 6.16969 13.2123 5.52885L13.2005 5.51316C13.0453 5.32049 12.8762 5.13959 12.6946 4.97191C12.6606 4.9389 12.624 4.90642 12.5868 4.87395C12.3541 4.67004 12.0997 4.49252 11.8282 4.34461L11.8088 4.33487C10.9559 3.86831 9.84599 3.628 8.47746 3.89862C8.29364 3.67447 8.09568 3.46241 7.8848 3.26374C7.56182 2.95457 7.18162 2.71203 6.76573 2.54984C6.35358 2.39828 5.9122 2.3442 5.47587 2.3918C5.89647 2.42984 6.30614 2.54736 6.6833 2.73819C7.04755 2.93423 7.37559 3.19163 7.65312 3.49918C7.93441 3.81313 8.19879 4.14195 8.44514 4.48425L8.50697 4.56508C8.74801 4.88046 8.99339 5.2015 9.29912 5.48718C9.46742 5.64626 9.65516 5.78321 9.85784 5.89474C9.91172 5.92234 9.96614 5.94832 10.0195 5.97105C10.0728 5.99379 10.1229 6.01489 10.1768 6.03438C10.2808 6.07497 10.3885 6.10853 10.4963 6.13938C10.9273 6.26278 11.3686 6.30717 11.7996 6.33098C11.8596 6.33415 11.9194 6.33711 11.979 6.34006L11.9791 6.34007C12.1331 6.34769 12.2856 6.35524 12.4359 6.36616C12.6419 6.37845 12.8461 6.41071 13.0459 6.4625C13.3459 6.54108 13.6101 6.72066 13.7942 6.97127C13.8568 7.05473 13.913 7.14285 13.9623 7.23486ZM12.7007 4.97253C12.679 4.95243 12.657 4.93253 12.635 4.91271L12.5929 4.87457L12.6251 4.90433C12.6505 4.92782 12.6757 4.95124 12.7007 4.97253ZM12.1619 8.95859C10.7758 8.39358 9.32588 7.80256 9.54176 6.14374C10.0045 6.64012 10.731 6.74421 11.5211 6.85743C12.2378 6.96013 13.0069 7.07034 13.6791 7.48765C15.2653 8.47163 15.0336 10.3833 14.4949 11.0869C14.5434 9.92936 13.3772 9.45398 12.1619 8.95859ZM6.57757 8.12833C6.9434 8.09315 7.72303 7.90209 7.37443 7.28561C7.29943 7.1602 7.19074 7.05858 7.06084 6.99242C6.93094 6.92627 6.7851 6.89826 6.64007 6.91161C6.49288 6.92748 6.35412 6.98844 6.2426 7.08623C6.13109 7.18403 6.05222 7.31391 6.01669 7.45827C5.9084 7.8615 6.02316 8.18246 6.57757 8.12833ZM6.47242 3.2507C6.24289 2.98441 5.88675 2.84477 5.53762 2.79389C5.52456 2.88123 5.51628 2.96923 5.51283 3.05748C5.49721 3.78437 5.75421 4.58271 6.25151 5.13749C6.41059 5.31683 6.60245 5.46382 6.8167 5.57048C6.94062 5.6311 7.26928 5.78157 7.39105 5.64626C7.40032 5.63386 7.40616 5.61921 7.40795 5.60381C7.40975 5.5884 7.40745 5.57279 7.40129 5.55858C7.38111 5.50063 7.34213 5.44805 7.30343 5.39586L7.30343 5.39586C7.27598 5.35885 7.24868 5.32203 7.22834 5.28362C7.20774 5.24489 7.18572 5.20713 7.16372 5.16939L7.16371 5.16939L7.16371 5.16938C7.12238 5.09852 7.0811 5.02775 7.04946 4.95076C6.96597 4.74921 6.9225 4.53489 6.87916 4.32126L6.87915 4.32122L6.87914 4.32118L6.87913 4.32114L6.87912 4.32109L6.87912 4.32105L6.87911 4.32101C6.87044 4.27828 6.86178 4.23558 6.8528 4.19301C6.78653 3.86339 6.70194 3.517 6.47242 3.2507ZM11.3762 9.04902C11.0202 10.0472 11.5944 10.8902 12.1653 11.7283C12.8039 12.6658 13.4382 13.597 12.7614 14.7321C14.0766 14.1865 14.7011 12.5384 14.1553 11.2308C13.8113 10.4037 12.9824 9.95532 12.213 9.53913L12.213 9.53913L12.213 9.5391C11.9145 9.37764 11.625 9.22103 11.3762 9.04902ZM7.52759 11.4317C7.28926 11.5293 7.06451 11.6576 6.85896 11.8132C7.32634 11.643 7.81695 11.5457 8.31368 11.5247C8.4038 11.5194 8.49449 11.5152 8.58597 11.511C8.74391 11.5037 8.90422 11.4962 9.06799 11.4825C9.33646 11.4642 9.60124 11.4096 9.85516 11.3202C10.1212 11.2266 10.3634 11.0751 10.5642 10.8763C10.7671 10.6712 10.9094 10.4136 10.9753 10.1321C11.0333 9.86622 11.0252 9.59006 10.9516 9.32808C10.878 9.0661 10.7412 8.82639 10.5534 8.63017C10.6441 8.86103 10.6998 9.10422 10.7188 9.35165C10.7353 9.58199 10.7041 9.81325 10.6272 10.0309C10.5522 10.2372 10.4296 10.4227 10.2695 10.5722C10.104 10.7231 9.91248 10.8423 9.7043 10.924C9.41496 11.041 9.08777 11.089 8.74697 11.1389C8.5915 11.1616 8.43319 11.1848 8.27435 11.2152C8.01888 11.2622 7.76872 11.3347 7.52759 11.4317ZM11.6846 15.5321L11.6365 15.5708L11.6365 15.5708C11.5763 15.6195 11.515 15.669 11.4491 15.7134C11.3651 15.769 11.277 15.8182 11.1856 15.8606C10.9954 15.9538 10.7863 16.0015 10.5746 15.9997C10.0014 15.9889 9.59621 15.5602 9.35914 15.0758C9.29698 14.9488 9.24224 14.818 9.18748 14.6871L9.18747 14.687L9.18747 14.687C9.09985 14.4775 9.01221 14.268 8.89417 14.0745C8.61993 13.6247 8.15064 13.2626 7.60108 13.3298C7.37694 13.3579 7.16681 13.4591 7.04235 13.6545C6.71477 14.1649 7.18513 14.8799 7.7848 14.7787C7.83581 14.7709 7.88572 14.7571 7.93351 14.7375C7.98114 14.7172 8.0256 14.69 8.06551 14.6569C8.14928 14.5868 8.21242 14.4951 8.24816 14.3917C8.28755 14.2838 8.29632 14.1671 8.27348 14.0545C8.24888 13.9368 8.17972 13.8334 8.0806 13.766C8.19584 13.8202 8.28566 13.9172 8.33113 14.0366C8.37831 14.1595 8.39043 14.2931 8.36615 14.4225C8.34262 14.5574 8.28344 14.6834 8.19482 14.7873C8.14774 14.8408 8.09331 14.8873 8.03318 14.9253C7.97359 14.963 7.90974 14.9933 7.84299 15.0157C7.70766 15.0622 7.5636 15.0772 7.42166 15.0596C7.22237 15.0311 7.0344 14.9492 6.87748 14.8225C6.84852 14.7995 6.82071 14.7754 6.79376 14.7504C6.687 14.6579 6.59009 14.5543 6.50463 14.4414C6.46632 14.3991 6.42735 14.3572 6.38665 14.317C6.19456 14.1145 5.96792 13.9483 5.71747 13.8261C5.54476 13.7499 5.36401 13.6936 5.17868 13.6583C5.08547 13.6388 4.99119 13.6247 4.8969 13.6128C4.88667 13.6118 4.86698 13.6084 4.8425 13.6041L4.84234 13.6041L4.84231 13.6041L4.8423 13.6041L4.84229 13.6041L4.84226 13.604C4.76354 13.5903 4.63554 13.568 4.61296 13.589C4.90439 13.3195 5.22207 13.0802 5.56122 12.8746C5.90945 12.667 6.28334 12.5063 6.67328 12.3966C7.07757 12.2823 7.50043 12.2498 7.91735 12.3008C8.13195 12.3267 8.34214 12.3814 8.54234 12.4632C8.7521 12.5474 8.94571 12.6675 9.11453 12.8183C9.28162 12.9764 9.41665 13.1655 9.51216 13.3752C9.59839 13.5715 9.66272 13.7768 9.70397 13.9874C9.72607 14.1006 9.74273 14.2251 9.75997 14.3539L9.75998 14.354L9.75998 14.354L9.75998 14.354C9.83856 14.9412 9.92923 15.6186 10.6021 15.7367C10.6449 15.745 10.688 15.7511 10.7314 15.7551L10.8656 15.7583C10.9578 15.7517 11.0495 15.7385 11.1398 15.7188C11.327 15.6746 11.5095 15.612 11.6846 15.5321ZM6.54021 14.4811C6.55627 14.4995 6.57251 14.5178 6.58893 14.5359C6.58221 14.5283 6.57549 14.5208 6.56877 14.5132L6.56875 14.5132L6.56874 14.5132L6.56874 14.5132C6.55924 14.5025 6.54973 14.4918 6.54021 14.4811Z" fill="currentColor"/>
</svg>
