<svg width="16" height="16" viewBox="0 0 16 16" fill="none" xmlns="http://www.w3.org/2000/svg">
<path d="M4.00537 4.33317C4.00537 2.8625 5.20137 1.6665 6.67204 1.6665C8.1427 1.6665 9.3387 2.8625 9.3387 4.33317C9.3387 5.80384 8.1427 6.99984 6.67204 6.99984C5.20137 6.99984 4.00537 5.80384 4.00537 4.33317ZM10.336 9.11051C10.3327 9.07851 10.3074 9.0192 10.2587 8.98454C9.70471 8.5812 8.96202 8.33317 7.99935 8.33317H5.33268C2.62602 8.33317 1.66602 10.3132 1.66602 12.0132C1.66602 13.5332 2.47268 14.3332 3.99935 14.3332H9.13932C9.23932 14.3332 9.33269 14.2532 9.33935 14.1465C9.33935 14.1398 9.33935 14.1398 9.33935 14.1331V14.1265C9.33269 14.0731 9.33268 14.0132 9.33268 13.9532V12.3798C9.33268 11.6998 9.57268 11.1465 9.99935 10.7931V10.4998C9.99935 10.0405 10.114 9.61318 10.3147 9.23918C10.3414 9.18918 10.3394 9.14251 10.336 9.11051ZM14.9993 12.3805V13.9518C14.9993 14.6498 14.666 14.9992 13.9993 14.9992H11.3327C10.666 14.9992 10.3327 14.6498 10.3327 13.9518V12.3805C10.3327 11.8152 10.5627 11.4905 10.9993 11.3825V10.4992C10.9993 9.58052 11.7467 8.83252 12.666 8.83252C13.5853 8.83252 14.3327 9.58052 14.3327 10.4992V11.3825C14.7693 11.4905 14.9993 11.8152 14.9993 12.3805ZM13.3327 10.4998C13.3327 10.1325 13.034 9.83317 12.666 9.83317C12.298 9.83317 11.9993 10.1325 11.9993 10.4998V11.3332H13.3327V10.4998Z" fill="currentColor"/>
</svg>
