<svg viewBox="0 0 16 16" fill="none" xmlns="http://www.w3.org/2000/svg">
<path d="M12.5303 4.53033C12.8232 4.23744 12.8232 3.76256 12.5303 3.46967C12.2374 3.17678 11.7626 3.17678 11.4697 3.46967L12.5303 4.53033ZM3.46967 11.4697C3.17678 11.7626 3.17678 12.2374 3.46967 12.5303C3.76256 12.8232 4.23744 12.8232 4.53033 12.5303L3.46967 11.4697ZM4.53033 3.46967C4.23744 3.17678 3.76256 3.17678 3.46967 3.46967C3.17678 3.76256 3.17678 4.23744 3.46967 4.53033L4.53033 3.46967ZM11.4697 12.5303C11.7626 12.8232 12.2374 12.8232 12.5303 12.5303C12.8232 12.2374 12.8232 11.7626 12.5303 11.4697L11.4697 12.5303ZM11.4697 3.46967L3.46967 11.4697L4.53033 12.5303L12.5303 4.53033L11.4697 3.46967ZM3.46967 4.53033L11.4697 12.5303L12.5303 11.4697L4.53033 3.46967L3.46967 4.53033Z" fill="currentColor"/>
</svg>
