<svg xmlns="http://www.w3.org/2000/svg" width="78" height="80" viewBox="0 0 78 80">
    <g fill="none" fill-rule="evenodd">
        <g>
            <g>
                <g>
                    <g>
                        <g>
                            <path d="M0 0L96 0 96 96 0 96z" transform="translate(-359 -3032) translate(281 2489) translate(38.5 505) translate(30 32)"/>
                            <path stroke="#105D81" stroke-linecap="round" stroke-linejoin="round" stroke-width="4" d="M24 84h-8c-2.208 0-4-1.792-4-4V56c0-2.208 1.792-4 4-4h8c2.208 0 4 1.792 4 4v24c0 2.208-1.792 4-4 4zM52 68h9.332c1.732 0 3.416-.56 4.8-1.6l9.664-7.248c2.412-1.808 5.788-1.568 7.92.564h0c2.368 2.368 2.368 6.204 0 8.568l-8.292 8.292c-2.232 2.232-5.08 3.756-8.176 4.376l-11.72 2.344c-2.324.464-4.72.408-7.02-.168l-10.6-2.648c-1.268-.32-2.568-.48-3.876-.48H28" transform="translate(-359 -3032) translate(281 2489) translate(38.5 505) translate(30 32)"/>
                            <path stroke="#105D81" stroke-linecap="round" stroke-linejoin="round" stroke-width="4" d="M52 68h5.94c3.348 0 6.06-2.712 6.06-6.06v-1.212c0-2.78-1.892-5.204-4.588-5.876l-9.168-2.292c-1.492-.372-3.02-.56-4.556-.56h0c-3.708 0-7.336 1.096-10.42 3.156L28 60" transform="translate(-359 -3032) translate(281 2489) translate(38.5 505) translate(30 32)"/>
                            <path stroke="#08A1E7" stroke-linecap="round" stroke-linejoin="round" stroke-width="4" d="M68.675 20.62c4.433 4.434 4.433 11.622 0 16.055s-11.62 4.433-16.054 0c-4.433-4.433-4.433-11.62 0-16.054 4.433-4.433 11.621-4.433 16.054 0" transform="translate(-359 -3032) translate(281 2489) translate(38.5 505) translate(30 32)"/>
                            <path stroke="#08A1E7" stroke-linecap="round" stroke-linejoin="round" stroke-width="4" d="M58.524 17.5c-.372-2.26-1.404-4.432-3.148-6.176-4.432-4.432-11.62-4.432-16.052 0s-4.432 11.62 0 16.052c2.76 2.76 6.584 3.796 10.148 3.12" transform="translate(-359 -3032) translate(281 2489) translate(38.5 505) translate(30 32)"/>
                        </g>
                    </g>
                </g>
            </g>
        </g>
    </g>
</svg>
