<svg xmlns="http://www.w3.org/2000/svg" width="577" height="519" viewBox="0 0 577 519">
    <g fill="none" fill-rule="evenodd">
        <g>
            <g>
                <g>
                    <path fill="#1D272B" fill-opacity=".6" stroke="#303E46" stroke-dasharray="4 3" stroke-linecap="round" stroke-linejoin="round" d="M20 0h535c11.046 0 20 8.954 20 20v477c0 11.046-8.954 20-20 20H20c-11.046 0-20-8.954-20-20V20C0 8.954 8.954 0 20 0z" transform="translate(-319 -1836) translate(320 1525) translate(0 312)"/>
                    <g>
                        <path fill="#105D81" fill-rule="nonzero" d="M267.633 9.79l12 24-10.001-.001V332.79h-4V33.789l-10 .001 12-24z" transform="translate(-319 -1836) translate(320 1525) translate(0 312) translate(21 53.71)"/>
                        <path fill="#105D81" fill-rule="nonzero" d="M459.017 318.79l24 12-24 12-.001-10H75.748v10l-24-12 24-12v10h383.268v-10z" transform="translate(-319 -1836) translate(320 1525) translate(0 312) translate(21 53.71)"/>
                        <path stroke="#105D81" stroke-dasharray="4 10" stroke-linecap="round" stroke-linejoin="round" stroke-width="4" d="M51.749 170.29L483.017 170.29" transform="translate(-319 -1836) translate(320 1525) translate(0 312) translate(21 53.71)"/>
                        <path stroke="#08A1E7" stroke-linecap="round" stroke-width="6" d="M51.383 290.884c116.217 0 285.113-224.008 432-224.008" transform="translate(-319 -1836) translate(320 1525) translate(0 312) translate(21 53.71)"/>
                        <path fill="#C9D2D7" fill-rule="nonzero" d="M289.063 10.29V9.24h-5.292V1.05h-1.12v9.24h6.412zm3.08 0V6.678h2.142c.625 0 1.169-.114 1.631-.343.462-.229.824-.553 1.085-.973.261-.42.392-.92.392-1.498 0-.579-.13-1.078-.392-1.498-.261-.42-.623-.744-1.085-.973-.462-.229-1.006-.343-1.631-.343h-3.262v9.24h1.12zm1.974-4.662h-1.974V2.1h1.974c.728 0 1.26.15 1.596.448.336.299.504.737.504 1.316 0 .57-.168 1.006-.504 1.309-.336.303-.868.455-1.596.455zm11.676 4.662V4.257l2.338-.001V3.29h-2.338V2.226c0-.367.086-.647.257-.84l.079-.077c.224-.191.537-.287.938-.287.159 0 .303.016.434.049.13.033.252.086.364.161l.294-.91c-.121-.103-.29-.182-.504-.238-.215-.056-.443-.084-.686-.084-.383 0-.719.051-1.008.154-.29.103-.53.247-.721.434-.191.187-.334.41-.427.672-.093.261-.14.546-.14.854V3.29h-1.4v.966l1.4.001v6.033h1.12zm6.762.14c.457 0 .87-.063 1.239-.189.369-.126.69-.306.966-.539.275-.233.502-.509.679-.826l-.882-.518c-.196.336-.455.602-.777.798-.322.196-.74.294-1.253.294-.476 0-.884-.105-1.225-.315-.34-.21-.604-.516-.791-.917-.133-.287-.219-.611-.257-.974l-.011-.132h5.28c.012-.068.023-.143.031-.224l.011-.126c.01-.13.014-.275.014-.434 0-.597-.121-1.136-.364-1.617-.243-.48-.595-.861-1.057-1.141-.462-.28-1.02-.42-1.673-.42-.644 0-1.218.145-1.722.434-.504.29-.9.707-1.19 1.253-.29.546-.434 1.197-.434 1.953s.145 1.407.434 1.953c.29.546.693.964 1.211 1.253.518.29 1.108.434 1.771.434zm1.9-4.312h-4.174c.034-.212.084-.408.15-.588l.073-.175c.182-.397.439-.7.77-.91.331-.21.726-.315 1.183-.315.597 0 1.08.182 1.449.546.369.364.553.882.553 1.554l-.004-.112zm6.178 4.312c.457 0 .87-.063 1.239-.189.369-.126.69-.306.966-.539.275-.233.502-.509.679-.826l-.882-.518c-.196.336-.455.602-.777.798-.322.196-.74.294-1.253.294-.476 0-.884-.105-1.225-.315-.34-.21-.604-.516-.791-.917-.133-.287-.219-.611-.257-.974l-.011-.132h5.28c.012-.068.023-.143.031-.224l.011-.126c.01-.13.014-.275.014-.434 0-.597-.121-1.136-.364-1.617-.243-.48-.595-.861-1.057-1.141-.462-.28-1.02-.42-1.673-.42-.644 0-1.218.145-1.722.434-.504.29-.9.707-1.19 1.253-.29.546-.434 1.197-.434 1.953s.145 1.407.434 1.953c.29.546.693.964 1.211 1.253.518.29 1.108.434 1.771.434zm1.9-4.312h-4.174c.034-.212.084-.408.15-.588l.073-.175c.182-.397.439-.7.77-.91.331-.21.726-.315 1.183-.315.597 0 1.08.182 1.449.546.369.364.553.882.553 1.554l-.004-.112zm5.772 4.312c.55 0 1.036-.089 1.456-.266.42-.177.747-.432.98-.763.233-.331.35-.716.35-1.155 0-.43-.13-.793-.392-1.092-.261-.299-.719-.513-1.372-.644l-1.75-.364c-.383-.075-.644-.198-.784-.371s-.21-.362-.21-.567c0-.205.063-.39.189-.553.126-.163.308-.292.546-.385.238-.093.525-.14.861-.14.383 0 .751.096 1.106.287.355.191.611.492.77.903l.938-.616c-.233-.495-.588-.877-1.064-1.148-.476-.27-1.06-.406-1.75-.406-.55 0-1.029.096-1.435.287-.406.191-.719.446-.938.763-.22.317-.329.667-.329 1.05 0 .485.147.891.441 1.218.294.327.782.56 1.463.7l1.68.35c.355.075.595.194.721.357.126.163.189.343.189.539 0 .308-.14.558-.42.749-.28.191-.667.287-1.162.287-.56 0-1.038-.121-1.435-.364s-.698-.579-.903-1.008l-.952.686c.308.532.749.943 1.323 1.232.574.29 1.202.434 1.883.434zM378.136 17.29V8.05h-1.932v9.24h1.932zm4.13 0v-3.71c0-.467.077-.84.231-1.12.154-.28.355-.483.602-.609s.502-.189.763-.189c.373 0 .677.114.91.343.233.229.35.642.35 1.239v4.046h1.918v-4.592c0-.57-.11-1.043-.329-1.421-.22-.378-.518-.66-.896-.847-.378-.187-.81-.28-1.295-.28-.42 0-.805.075-1.155.224-.35.15-.646.371-.889.665-.121.147-.226.314-.315.502l-.022.051-.069-1.302h-1.722v7h1.918zm9.982.14c.579 0 1.087-.089 1.526-.266.439-.177.798-.425 1.078-.742s.471-.686.574-1.106l-1.736-.56c-.047.261-.133.485-.259.672-.126.187-.287.329-.483.427-.196.098-.434.147-.714.147-.345 0-.646-.08-.903-.238-.257-.159-.453-.401-.588-.728-.135-.327-.203-.737-.203-1.232s.065-.908.196-1.239c.13-.331.322-.579.574-.742.252-.163.555-.245.91-.245.383 0 .686.107.91.322.224.215.383.532.476.952l1.792-.644c-.112-.383-.301-.73-.567-1.043-.266-.313-.616-.56-1.05-.742-.434-.182-.964-.273-1.589-.273-.7 0-1.32.145-1.862.434-.541.29-.961.705-1.26 1.246-.299.541-.448 1.195-.448 1.96 0 .765.15 1.419.448 1.96.299.541.723.957 1.274 1.246.55.29 1.185.434 1.904.434zm6.58-.14v-3.626c0-.42.084-.768.252-1.043.168-.275.383-.48.644-.616.261-.135.532-.203.812-.203.215 0 .39.01.525.028.135.019.25.047.343.084l.224-1.61c-.084-.047-.191-.084-.322-.112-.13-.028-.275-.042-.434-.042-.541 0-.992.13-1.351.392-.36.261-.632.635-.819 1.12l-.126-1.372h-1.666v7h1.918zm7.238.14c.476 0 .922-.068 1.337-.203.415-.135.775-.334 1.078-.595.303-.261.53-.574.679-.938l-1.526-.588c-.14.28-.336.5-.588.658-.252.159-.583.238-.994.238-.373 0-.693-.08-.959-.238-.266-.159-.471-.399-.616-.721-.072-.161-.127-.344-.163-.548l-.015-.103h4.945c.012-.087.023-.183.031-.286l.011-.162c.01-.168.014-.345.014-.532 0-.625-.13-1.183-.392-1.673-.261-.49-.64-.877-1.134-1.162-.495-.285-1.097-.427-1.806-.427-.69 0-1.304.145-1.841.434-.537.29-.954.705-1.253 1.246-.299.541-.448 1.195-.448 1.96 0 .765.15 1.419.448 1.96.299.541.721.957 1.267 1.246.546.29 1.188.434 1.925.434zm1.396-4.368h-3.141l.026-.137c.015-.065.031-.127.05-.187l.059-.173c.13-.331.324-.581.581-.749.257-.168.562-.252.917-.252.485 0 .861.159 1.127.476.2.238.324.552.374.942l.007.08zm5.408 4.368c.383 0 .754-.065 1.113-.196.36-.13.665-.32.917-.567.042-.041.081-.084.118-.128l.086-.117.022.067c.016.044.035.087.056.129l.068.119c.15.229.355.399.616.511.261.112.555.168.882.168.364 0 .667-.06.91-.182l.112-1.19c-.14.047-.29.07-.448.07-.336 0-.504-.177-.504-.532V12.74c0-.579-.128-1.06-.385-1.442-.257-.383-.614-.67-1.071-.861-.457-.191-.994-.287-1.61-.287-.905 0-1.626.187-2.163.56-.537.373-.884.868-1.043 1.484l1.638.504c.121-.41.313-.705.574-.882.261-.177.565-.266.91-.266.373 0 .674.112.903.336.229.224.343.537.343.938v.269l-2.408.487c-.547.106-.984.293-1.31.56l-.132.119c-.336.331-.504.758-.504 1.281 0 .41.093.756.28 1.036.187.28.453.492.798.637.345.145.756.217 1.232.217zm.49-1.358c-.243 0-.45-.06-.623-.182-.173-.121-.259-.299-.259-.532 0-.243.082-.418.245-.525.163-.107.404-.194.721-.259l1.47-.294v.434c0 .202-.027.38-.08.533l-.046.111c-.084.177-.2.317-.35.42-.15.103-.317.177-.504.224-.187.047-.378.07-.574.07zm8.4 1.358c.672 0 1.239-.1 1.701-.301.462-.2.812-.476 1.05-.826s.357-.749.357-1.197c0-.467-.15-.866-.448-1.197-.299-.331-.793-.567-1.484-.707l-1.428-.294c-.345-.075-.583-.166-.714-.273-.13-.107-.196-.236-.196-.385 0-.15.047-.273.14-.371.093-.098.233-.175.42-.231.187-.056.41-.084.672-.084.364 0 .712.086 1.043.259.331.173.6.422.805.749l1.148-1.12c-.299-.43-.707-.754-1.225-.973-.518-.22-1.127-.329-1.827-.329-.681 0-1.25.105-1.708.315-.457.21-.8.483-1.029.819-.229.336-.343.695-.343 1.078 0 .541.17.982.511 1.323.34.34.917.595 1.729.763l1.232.252c.308.065.513.152.616.259.103.107.154.236.154.385 0 .233-.11.404-.329.511-.22.107-.511.161-.875.161-.513 0-.957-.107-1.33-.322-.373-.215-.672-.49-.896-.826l-1.106 1.12c.364.457.838.812 1.421 1.064.583.252 1.23.378 1.939.378zm7.882 0c.476 0 .922-.068 1.337-.203.415-.135.775-.334 1.078-.595.303-.261.53-.574.679-.938l-1.526-.588c-.14.28-.336.5-.588.658-.252.159-.583.238-.994.238-.373 0-.693-.08-.959-.238-.266-.159-.471-.399-.616-.721-.072-.161-.127-.344-.163-.548l-.015-.103h4.945c.012-.087.023-.183.031-.286l.011-.162c.01-.168.014-.345.014-.532 0-.625-.13-1.183-.392-1.673-.261-.49-.64-.877-1.134-1.162-.495-.285-1.097-.427-1.806-.427-.69 0-1.304.145-1.841.434-.537.29-.954.705-1.253 1.246-.299.541-.448 1.195-.448 1.96 0 .765.15 1.419.448 1.96.299.541.721.957 1.267 1.246.546.29 1.188.434 1.925.434zm1.396-4.368h-3.141l.026-.137c.015-.065.031-.127.05-.187l.059-.173c.13-.331.324-.581.581-.749.257-.168.562-.252.917-.252.485 0 .861.159 1.127.476.2.238.324.552.374.942l.007.08zm10.168 4.228v-5.572h2.128V10.29h-2.212v-.7c0-.343.082-.598.247-.766l.075-.067c.215-.163.504-.245.868-.245.177 0 .331.019.462.056.13.037.247.089.35.154l.266-1.274c-.13-.103-.329-.189-.595-.259-.266-.07-.562-.105-.889-.105-.373 0-.721.049-1.043.147-.322.098-.6.245-.833.441-.233.196-.415.443-.546.742-.13.299-.196.644-.196 1.036v.84h-1.218v1.428h1.218v5.572h1.918zm6.524.14c.476 0 .922-.068 1.337-.203.415-.135.775-.334 1.078-.595.303-.261.53-.574.679-.938l-1.526-.588c-.14.28-.336.5-.588.658-.252.159-.583.238-.994.238-.373 0-.693-.08-.959-.238-.266-.159-.471-.399-.616-.721-.072-.161-.127-.344-.163-.548l-.015-.103h4.945c.012-.087.023-.183.031-.286l.011-.162c.01-.168.014-.345.014-.532 0-.625-.13-1.183-.392-1.673-.261-.49-.64-.877-1.134-1.162-.495-.285-1.097-.427-1.806-.427-.69 0-1.304.145-1.841.434-.537.29-.954.705-1.253 1.246-.299.541-.448 1.195-.448 1.96 0 .765.15 1.419.448 1.96.299.541.721.957 1.267 1.246.546.29 1.188.434 1.925.434zm1.396-4.368h-3.141l.026-.137c.015-.065.031-.127.05-.187l.059-.173c.13-.331.324-.581.581-.749.257-.168.562-.252.917-.252.485 0 .861.159 1.127.476.2.238.324.552.374.942l.007.08zm6.71 4.368c.476 0 .922-.068 1.337-.203.415-.135.775-.334 1.078-.595.303-.261.53-.574.679-.938l-1.526-.588c-.14.28-.336.5-.588.658-.252.159-.583.238-.994.238-.373 0-.693-.08-.959-.238-.266-.159-.471-.399-.616-.721-.072-.161-.127-.344-.163-.548l-.015-.103h4.945c.012-.087.023-.183.031-.286l.011-.162c.01-.168.014-.345.014-.532 0-.625-.13-1.183-.392-1.673-.261-.49-.64-.877-1.134-1.162-.495-.285-1.097-.427-1.806-.427-.69 0-1.304.145-1.841.434-.537.29-.954.705-1.253 1.246-.299.541-.448 1.195-.448 1.96 0 .765.15 1.419.448 1.96.299.541.721.957 1.267 1.246.546.29 1.188.434 1.925.434zm1.396-4.368h-3.141l.026-.137c.015-.065.031-.127.05-.187l.059-.173c.13-.331.324-.581.581-.749.257-.168.562-.252.917-.252.485 0 .861.159 1.127.476.2.238.324.552.374.942l.007.08zm11.078 4.368c.383 0 .721-.056 1.015-.168.294-.112.548-.266.763-.462l-.392-.938c-.159.159-.336.285-.532.378-.196.093-.43.14-.7.14-.308 0-.56-.084-.756-.252-.196-.168-.294-.425-.294-.77l-.001-4.102h2.549v-.966h-2.549l.001-1.988-1.12.308v1.68h-1.4v.966h1.4v4.298c.008.384.08.705.214.962l.073.123c.182.275.427.476.735.602s.64.189.994.189zm6.216 0c.663 0 1.248-.145 1.757-.434.509-.29.908-.707 1.197-1.253.29-.546.434-1.197.434-1.953s-.145-1.407-.434-1.953c-.29-.546-.688-.964-1.197-1.253-.509-.29-1.094-.434-1.757-.434-.653 0-1.237.145-1.75.434-.513.29-.915.707-1.204 1.253-.29.546-.434 1.197-.434 1.953s.145 1.407.434 1.953c.29.546.69.964 1.204 1.253.513.29 1.097.434 1.75.434zm0-.966c-.476 0-.882-.107-1.218-.322-.336-.215-.595-.523-.777-.924-.182-.401-.273-.877-.273-1.428 0-.56.091-1.038.273-1.435.182-.397.441-.702.777-.917.336-.215.742-.322 1.218-.322s.882.107 1.218.322c.336.215.595.52.777.917.182.397.273.875.273 1.435 0 .55-.091 1.027-.273 1.428-.182.401-.441.71-.777.924-.336.215-.742.322-1.218.322zm-97.664 16.482c.252 0 .455-.077.609-.231.154-.154.231-.357.231-.609s-.077-.455-.231-.609c-.154-.154-.357-.231-.609-.231s-.455.077-.609.231c-.154.154-.231.357-.231.609s.077.455.231.609c.154.154.357.231.609.231zm.56 8.344v-7h-1.12v7h1.12zm3.724 0v-3.724c0-.597.11-1.073.329-1.428.22-.355.497-.611.833-.77.336-.159.672-.238 1.008-.238.485 0 .894.152 1.225.455.331.303.497.842.497 1.617v4.088h1.12v-4.48c0-.607-.124-1.106-.371-1.498-.247-.392-.576-.684-.987-.875-.41-.191-.868-.287-1.372-.287-.355 0-.698.051-1.029.154-.331.103-.623.268-.875.497-.168.152-.313.337-.436.554l-.014.026-.068-1.091h-.98v7h1.12zm10.444.14c.495 0 .936-.082 1.323-.245.387-.163.719-.399.994-.707.275-.308.492-.677.651-1.106l-1.036-.364c-.065.308-.184.57-.357.784-.173.215-.392.378-.658.49-.266.112-.581.168-.945.168-.467 0-.868-.105-1.204-.315-.336-.21-.593-.516-.77-.917-.177-.401-.266-.877-.266-1.428 0-.56.089-1.038.266-1.435.177-.397.434-.7.77-.91.336-.21.737-.315 1.204-.315.485 0 .88.119 1.183.357.303.238.53.581.679 1.029l1.064-.504c-.168-.383-.387-.714-.658-.994-.27-.28-.59-.495-.959-.644-.369-.15-.796-.224-1.281-.224-.653 0-1.237.145-1.75.434-.513.29-.915.707-1.204 1.253-.29.546-.434 1.197-.434 1.953s.145 1.407.434 1.953c.29.546.69.964 1.204 1.253.513.29 1.097.434 1.75.434zm6.062-.14v-3.78c0-.523.098-.954.294-1.295.196-.34.441-.595.735-.763.294-.168.586-.252.875-.252.224 0 .397.01.518.028.121.019.233.047.336.084l.196-1.022c-.103-.056-.226-.093-.371-.112-.145-.019-.278-.028-.399-.028-.541 0-1.001.107-1.379.322-.378.215-.665.537-.861.966l-.154-1.148h-.91v7h1.12zm7.518.14c.457 0 .87-.063 1.239-.189.369-.126.69-.306.966-.539.275-.233.502-.509.679-.826l-.882-.518c-.196.336-.455.602-.777.798-.322.196-.74.294-1.253.294-.476 0-.884-.105-1.225-.315-.34-.21-.604-.516-.791-.917-.133-.287-.219-.611-.257-.974l-.011-.132h5.28c.012-.068.023-.143.031-.224l.011-.126c.01-.13.014-.275.014-.434 0-.597-.121-1.136-.364-1.617-.243-.48-.595-.861-1.057-1.141-.462-.28-1.02-.42-1.673-.42-.644 0-1.218.145-1.722.434-.504.29-.9.707-1.19 1.253-.29.546-.434 1.197-.434 1.953s.145 1.407.434 1.953c.29.546.693.964 1.211 1.253.518.29 1.108.434 1.771.434zm1.9-4.312h-4.174c.034-.212.084-.408.15-.588l.073-.175c.182-.397.439-.7.77-.91.331-.21.726-.315 1.183-.315.597 0 1.08.182 1.449.546.369.364.553.882.553 1.554l-.004-.112zm5.114 4.312c.327 0 .658-.054.994-.161.336-.107.64-.275.91-.504.09-.076.172-.16.244-.251l.092-.128.024.101c.014.05.031.1.05.146l.066.132c.121.21.29.366.504.469.215.103.457.154.728.154.299 0 .541-.047.728-.14l.056-.882c-.168.047-.34.07-.518.07-.355 0-.532-.168-.532-.504v-3.388c0-.55-.119-1.001-.357-1.351-.238-.35-.562-.611-.973-.784-.41-.173-.868-.259-1.372-.259-.747 0-1.372.161-1.876.483-.504.322-.85.744-1.036 1.267l.91.56c.159-.467.406-.805.742-1.015.336-.21.747-.315 1.232-.315.513 0 .91.142 1.19.427.28.285.42.688.42 1.211v.268l-2.548.502c-.547.106-.989.296-1.325.57l-.138.123c-.35.34-.525.772-.525 1.295 0 .42.105.772.315 1.057.21.285.492.497.847.637s.737.21 1.148.21zm.154-.98c-.42 0-.744-.091-.973-.273-.229-.182-.343-.418-.343-.707 0-.299.112-.532.336-.7.224-.168.565-.299 1.022-.392l2.03-.416v.738c0 .239-.036.452-.108.64l-.06.137c-.112.22-.266.401-.462.546-.196.145-.418.252-.665.322-.247.07-.506.105-.777.105zm8.428.98c.55 0 1.036-.089 1.456-.266.42-.177.747-.432.98-.763.233-.331.35-.716.35-1.155 0-.43-.13-.793-.392-1.092-.261-.299-.719-.513-1.372-.644l-1.75-.364c-.383-.075-.644-.198-.784-.371s-.21-.362-.21-.567c0-.205.063-.39.189-.553.126-.163.308-.292.546-.385.238-.093.525-.14.861-.14.383 0 .751.096 1.106.287.355.191.611.492.77.903l.938-.616c-.233-.495-.588-.877-1.064-1.148-.476-.27-1.06-.406-1.75-.406-.55 0-1.029.096-1.435.287-.406.191-.719.446-.938.763-.22.317-.329.667-.329 1.05 0 .485.147.891.441 1.218.294.327.782.56 1.463.7l1.68.35c.355.075.595.194.721.357.126.163.189.343.189.539 0 .308-.14.558-.42.749-.28.191-.667.287-1.162.287-.56 0-1.038-.121-1.435-.364s-.698-.579-.903-1.008l-.952.686c.308.532.749.943 1.323 1.232.574.29 1.202.434 1.883.434zm7.784 0c.457 0 .87-.063 1.239-.189.369-.126.69-.306.966-.539.275-.233.502-.509.679-.826l-.882-.518c-.196.336-.455.602-.777.798-.322.196-.74.294-1.253.294-.476 0-.884-.105-1.225-.315-.34-.21-.604-.516-.791-.917-.133-.287-.219-.611-.257-.974l-.011-.132h5.28c.012-.068.023-.143.031-.224l.011-.126c.01-.13.014-.275.014-.434 0-.597-.121-1.136-.364-1.617-.243-.48-.595-.861-1.057-1.141-.462-.28-1.02-.42-1.673-.42-.644 0-1.218.145-1.722.434-.504.29-.9.707-1.19 1.253-.29.546-.434 1.197-.434 1.953s.145 1.407.434 1.953c.29.546.693.964 1.211 1.253.518.29 1.108.434 1.771.434zm1.9-4.312h-4.174c.034-.212.084-.408.15-.588l.073-.175c.182-.397.439-.7.77-.91.331-.21.726-.315 1.183-.315.597 0 1.08.182 1.449.546.369.364.553.882.553 1.554l-.004-.112zm14.648 4.172v-1.05h-5.292v-8.19h-1.12v9.24h6.412zm3.08 0v-3.612h2.142c.625 0 1.169-.114 1.631-.343.462-.229.824-.553 1.085-.973.261-.42.392-.92.392-1.498 0-.579-.13-1.078-.392-1.498-.261-.42-.623-.744-1.085-.973-.462-.229-1.006-.343-1.631-.343h-3.262v9.24h1.12zm1.974-4.662h-1.974V33.1h1.974c.728 0 1.26.15 1.596.448.336.299.504.737.504 1.316 0 .57-.168 1.006-.504 1.309-.336.303-.868.455-1.596.455zm11.13 7.602v-4.038l.05.083c.147.226.335.426.563.601l.178.127c.434.285.94.427 1.519.427s1.11-.145 1.596-.434c.485-.29.875-.707 1.169-1.253.294-.546.441-1.197.441-1.953 0-.765-.145-1.419-.434-1.96-.29-.541-.674-.957-1.155-1.246-.48-.29-1.006-.434-1.575-.434-.401 0-.775.07-1.12.21-.345.14-.64.334-.882.581-.146.148-.27.311-.371.488l-.048.092-.071-1.231h-.98v9.94h1.12zm2.198-3.78c-.439 0-.824-.11-1.155-.329-.331-.22-.588-.53-.77-.931-.182-.401-.273-.868-.273-1.4 0-.541.093-1.01.28-1.407.187-.397.448-.705.784-.924.336-.22.728-.329 1.176-.329.681 0 1.211.243 1.589.728.378.485.567 1.13.567 1.932 0 .803-.194 1.447-.581 1.932-.387.485-.926.728-1.617.728zm6.58.84v-3.78c0-.523.098-.954.294-1.295.196-.34.441-.595.735-.763.294-.168.586-.252.875-.252.224 0 .397.01.518.028.121.019.233.047.336.084l.196-1.022c-.103-.056-.226-.093-.371-.112-.145-.019-.278-.028-.399-.028-.541 0-1.001.107-1.379.322-.378.215-.665.537-.861.966l-.154-1.148h-.91v7h1.12zm7.49.14c.663 0 1.248-.145 1.757-.434.509-.29.908-.707 1.197-1.253.29-.546.434-1.197.434-1.953s-.145-1.407-.434-1.953c-.29-.546-.688-.964-1.197-1.253-.509-.29-1.094-.434-1.757-.434-.653 0-1.237.145-1.75.434-.513.29-.915.707-1.204 1.253-.29.546-.434 1.197-.434 1.953s.145 1.407.434 1.953c.29.546.69.964 1.204 1.253.513.29 1.097.434 1.75.434zm0-.966c-.476 0-.882-.107-1.218-.322-.336-.215-.595-.523-.777-.924-.182-.401-.273-.877-.273-1.428 0-.56.091-1.038.273-1.435.182-.397.441-.702.777-.917.336-.215.742-.322 1.218-.322s.882.107 1.218.322c.336.215.595.52.777.917.182.397.273.875.273 1.435 0 .55-.091 1.027-.273 1.428-.182.401-.441.71-.777.924-.336.215-.742.322-1.218.322zm7.168.826v-6.033l2.338-.001v-.966h-2.338v-1.064c0-.367.086-.647.257-.84l.079-.077c.224-.191.537-.287.938-.287.159 0 .303.016.434.049.13.033.252.086.364.161l.294-.91c-.121-.103-.29-.182-.504-.238-.215-.056-.443-.084-.686-.084-.383 0-.719.051-1.008.154-.29.103-.53.247-.721.434-.191.187-.334.41-.427.672-.093.261-.14.546-.14.854v1.176h-1.4v.966l1.4.001v6.033h1.12zm4.396-8.344c.252 0 .455-.077.609-.231.154-.154.231-.357.231-.609s-.077-.455-.231-.609c-.154-.154-.357-.231-.609-.231s-.455.077-.609.231c-.154.154-.231.357-.231.609s.077.455.231.609c.154.154.357.231.609.231zm.56 8.344v-7h-1.12v7h1.12zm5.152.14c.383 0 .721-.056 1.015-.168.294-.112.548-.266.763-.462l-.392-.938c-.159.159-.336.285-.532.378-.196.093-.43.14-.7.14-.308 0-.56-.084-.756-.252-.196-.168-.294-.425-.294-.77v-4.101l2.548-.001v-.966h-2.548v-1.988l-1.12.308v1.68h-1.4v.966l1.4.001v4.297c.008.384.08.705.214.962l.073.123c.182.275.427.476.735.602s.64.189.994.189zm5.838 0c.55 0 1.036-.089 1.456-.266.42-.177.747-.432.98-.763.233-.331.35-.716.35-1.155 0-.43-.13-.793-.392-1.092-.261-.299-.719-.513-1.372-.644l-1.75-.364c-.383-.075-.644-.198-.784-.371s-.21-.362-.21-.567c0-.205.063-.39.189-.553.126-.163.308-.292.546-.385.238-.093.525-.14.861-.14.383 0 .751.096 1.106.287.355.191.611.492.77.903l.938-.616c-.233-.495-.588-.877-1.064-1.148-.476-.27-1.06-.406-1.75-.406-.55 0-1.029.096-1.435.287-.406.191-.719.446-.938.763-.22.317-.329.667-.329 1.05 0 .485.147.891.441 1.218.294.327.782.56 1.463.7l1.68.35c.355.075.595.194.721.357.126.163.189.343.189.539 0 .308-.14.558-.42.749-.28.191-.667.287-1.162.287-.56 0-1.038-.121-1.435-.364s-.698-.579-.903-1.008l-.952.686c.308.532.749.943 1.323 1.232.574.29 1.202.434 1.883.434zM32.008 213.29v-1.554h-4.872v-7.686h-1.932v9.24h6.804zm4.606.14c.71 0 1.332-.145 1.869-.434.537-.29.957-.707 1.26-1.253.303-.546.455-1.197.455-1.953 0-.765-.152-1.419-.455-1.96-.303-.541-.723-.957-1.26-1.246-.537-.29-1.16-.434-1.869-.434-.7 0-1.32.145-1.862.434-.541.29-.964.705-1.267 1.246-.303.541-.455 1.195-.455 1.96 0 .756.152 1.407.455 1.953.303.546.726.964 1.267 1.253.541.29 1.162.434 1.862.434zm0-1.428c-.355 0-.656-.082-.903-.245-.247-.163-.436-.408-.567-.735-.13-.327-.196-.737-.196-1.232s.065-.905.196-1.232c.13-.327.32-.572.567-.735.247-.163.548-.245.903-.245.345 0 .642.082.889.245.247.163.436.408.567.735.13.327.196.737.196 1.232s-.065.905-.196 1.232c-.13.327-.32.572-.567.735-.247.163-.544.245-.889.245zm8.82 1.288l1.47-4.76 1.526 4.76h2.212l2.24-7h-2.044l-1.386 5.362-1.568-5.362H45.98l-1.554 5.362-1.4-5.362h-2.044l2.24 7h2.212zm11.886.14c.476 0 .922-.068 1.337-.203.415-.135.775-.334 1.078-.595.303-.261.53-.574.679-.938l-1.526-.588c-.14.28-.336.5-.588.658-.252.159-.583.238-.994.238-.373 0-.693-.08-.959-.238-.266-.159-.471-.399-.616-.721-.072-.161-.127-.344-.163-.548l-.015-.103h4.945c.012-.087.023-.183.031-.286l.011-.162c.01-.168.014-.345.014-.532 0-.625-.13-1.183-.392-1.673-.261-.49-.64-.877-1.134-1.162-.495-.285-1.097-.427-1.806-.427-.69 0-1.304.145-1.841.434-.537.29-.954.705-1.253 1.246-.299.541-.448 1.195-.448 1.96 0 .765.15 1.419.448 1.96.299.541.721.957 1.267 1.246.546.29 1.188.434 1.925.434zm1.396-4.368h-3.141l.026-.137c.015-.065.031-.127.05-.187l.059-.173c.13-.331.324-.581.581-.749.257-.168.562-.252.917-.252.485 0 .861.159 1.127.476.2.238.324.552.374.942l.007.08zm5.38 4.228v-3.626c0-.42.084-.768.252-1.043.168-.275.383-.48.644-.616.261-.135.532-.203.812-.203.215 0 .39.01.525.028.135.019.25.047.343.084l.224-1.61c-.084-.047-.191-.084-.322-.112-.13-.028-.275-.042-.434-.042-.541 0-.992.13-1.351.392-.36.261-.632.635-.819 1.12l-.126-1.372h-1.666v7h1.918zm10.696 0v-5.572h2.128v-1.428h-2.212v-.7c0-.343.082-.598.247-.766l.075-.067c.215-.163.504-.245.868-.245.177 0 .331.019.462.056.13.037.247.089.35.154l.266-1.274c-.13-.103-.329-.189-.595-.259-.266-.07-.562-.105-.889-.105-.373 0-.721.049-1.043.147-.322.098-.6.245-.833.441-.233.196-.415.443-.546.742-.13.299-.196.644-.196 1.036v.84h-1.218v1.428h1.218v5.572h1.918zm6.524.14c.476 0 .922-.068 1.337-.203.415-.135.775-.334 1.078-.595.303-.261.53-.574.679-.938l-1.526-.588c-.14.28-.336.5-.588.658-.252.159-.583.238-.994.238-.373 0-.693-.08-.959-.238-.266-.159-.471-.399-.616-.721-.072-.161-.127-.344-.163-.548l-.015-.103h4.945c.012-.087.023-.183.031-.286l.011-.162c.01-.168.014-.345.014-.532 0-.625-.13-1.183-.392-1.673-.261-.49-.64-.877-1.134-1.162-.495-.285-1.097-.427-1.806-.427-.69 0-1.304.145-1.841.434-.537.29-.954.705-1.253 1.246-.299.541-.448 1.195-.448 1.96 0 .765.15 1.419.448 1.96.299.541.721.957 1.267 1.246.546.29 1.188.434 1.925.434zm1.396-4.368h-3.141l.026-.137c.015-.065.031-.127.05-.187l.059-.173c.13-.331.324-.581.581-.749.257-.168.562-.252.917-.252.485 0 .861.159 1.127.476.2.238.324.552.374.942l.007.08zm6.71 4.368c.476 0 .922-.068 1.337-.203.415-.135.775-.334 1.078-.595.303-.261.53-.574.679-.938l-1.526-.588c-.14.28-.336.5-.588.658-.252.159-.583.238-.994.238-.373 0-.693-.08-.959-.238-.266-.159-.471-.399-.616-.721-.072-.161-.127-.344-.163-.548l-.015-.103H92.6c.012-.087.023-.183.031-.286l.011-.162c.01-.168.014-.345.014-.532 0-.625-.13-1.183-.392-1.673-.261-.49-.64-.877-1.134-1.162-.495-.285-1.097-.427-1.806-.427-.69 0-1.304.145-1.841.434-.537.29-.954.705-1.253 1.246-.299.541-.448 1.195-.448 1.96 0 .765.15 1.419.448 1.96.299.541.721.957 1.267 1.246.546.29 1.188.434 1.925.434zm1.396-4.368h-3.141l.026-.137c.015-.065.031-.127.05-.187l.059-.173c.13-.331.324-.581.581-.749.257-.168.562-.252.917-.252.485 0 .861.159 1.127.476.2.238.324.552.374.942l.007.08zm11.078 4.368c.383 0 .721-.056 1.015-.168.294-.112.548-.266.763-.462l-.392-.938c-.159.159-.336.285-.532.378-.196.093-.43.14-.7.14-.308 0-.56-.084-.756-.252-.196-.168-.294-.425-.294-.77v-4.102h2.548v-.966H101v-1.988l-1.12.308v1.68h-1.4v.966h1.4v4.298c.008.384.08.705.214.962l.073.123c.182.275.427.476.735.602s.64.189.994.189zm6.216 0c.663 0 1.248-.145 1.757-.434.509-.29.908-.707 1.197-1.253.29-.546.434-1.197.434-1.953s-.145-1.407-.434-1.953c-.29-.546-.688-.964-1.197-1.253-.509-.29-1.094-.434-1.757-.434-.653 0-1.237.145-1.75.434-.513.29-.915.707-1.204 1.253-.29.546-.434 1.197-.434 1.953s.145 1.407.434 1.953c.29.546.69.964 1.204 1.253.513.29 1.097.434 1.75.434zm0-.966c-.476 0-.882-.107-1.218-.322-.336-.215-.595-.523-.777-.924-.182-.401-.273-.877-.273-1.428 0-.56.091-1.038.273-1.435.182-.397.441-.702.777-.917.336-.215.742-.322 1.218-.322s.882.107 1.218.322c.336.215.595.52.777.917.182.397.273.875.273 1.435 0 .55-.091 1.027-.273 1.428-.182.401-.441.71-.777.924-.336.215-.742.322-1.218.322zM28.228 237.43c.457 0 .87-.063 1.239-.189.369-.126.69-.306.966-.539.275-.233.502-.509.679-.826l-.882-.518c-.196.336-.455.602-.777.798-.322.196-.74.294-1.253.294-.476 0-.884-.105-1.225-.315-.34-.21-.604-.516-.791-.917-.133-.287-.219-.611-.257-.974l-.011-.132h5.28c.012-.068.023-.143.031-.224l.011-.126c.01-.13.014-.275.014-.434 0-.597-.121-1.136-.364-1.617-.243-.48-.595-.861-1.057-1.141-.462-.28-1.02-.42-1.673-.42-.644 0-1.218.145-1.722.434-.504.29-.9.707-1.19 1.253-.29.546-.434 1.197-.434 1.953s.145 1.407.434 1.953c.29.546.693.964 1.211 1.253.518.29 1.108.434 1.771.434zm1.9-4.312h-4.174c.034-.212.084-.408.15-.588l.073-.175c.182-.397.439-.7.77-.91.331-.21.726-.315 1.183-.315.597 0 1.08.182 1.449.546.369.364.553.882.553 1.554l-.004-.112zm4.372 4.172v-3.724c0-.597.11-1.073.329-1.428.22-.355.497-.611.833-.77.336-.159.672-.238 1.008-.238.485 0 .894.152 1.225.455.331.303.497.842.497 1.617v4.088h1.12v-4.48c0-.607-.124-1.106-.371-1.498-.247-.392-.576-.684-.987-.875-.41-.191-.868-.287-1.372-.287-.355 0-.698.051-1.029.154-.331.103-.623.268-.875.497-.168.152-.313.337-.436.554l-.014.028-.068-1.093h-.98v7h1.12zm10.444.14c.495 0 .936-.082 1.323-.245.387-.163.719-.399.994-.707.275-.308.492-.677.651-1.106l-1.036-.364c-.065.308-.184.57-.357.784-.173.215-.392.378-.658.49-.266.112-.581.168-.945.168-.467 0-.868-.105-1.204-.315-.336-.21-.593-.516-.77-.917-.177-.401-.266-.877-.266-1.428 0-.56.089-1.038.266-1.435.177-.397.434-.7.77-.91.336-.21.737-.315 1.204-.315.485 0 .88.119 1.183.357.303.238.53.581.679 1.029l1.064-.504c-.168-.383-.387-.714-.658-.994-.27-.28-.59-.495-.959-.644-.369-.15-.796-.224-1.281-.224-.653 0-1.237.145-1.75.434-.513.29-.915.707-1.204 1.253-.29.546-.434 1.197-.434 1.953s.145 1.407.434 1.953c.29.546.69.964 1.204 1.253.513.29 1.097.434 1.75.434zm7.84 0c.663 0 1.248-.145 1.757-.434.509-.29.908-.707 1.197-1.253.29-.546.434-1.197.434-1.953s-.145-1.407-.434-1.953c-.29-.546-.688-.964-1.197-1.253-.509-.29-1.094-.434-1.757-.434-.653 0-1.237.145-1.75.434-.513.29-.915.707-1.204 1.253-.29.546-.434 1.197-.434 1.953s.145 1.407.434 1.953c.29.546.69.964 1.204 1.253.513.29 1.097.434 1.75.434zm0-.966c-.476 0-.882-.107-1.218-.322-.336-.215-.595-.523-.777-.924-.182-.401-.273-.877-.273-1.428 0-.56.091-1.038.273-1.435.182-.397.441-.702.777-.917.336-.215.742-.322 1.218-.322s.882.107 1.218.322c.336.215.595.52.777.917.182.397.273.875.273 1.435 0 .55-.091 1.027-.273 1.428-.182.401-.441.71-.777.924-.336.215-.742.322-1.218.322zm8.036.966c.56 0 1.048-.096 1.463-.287.415-.191.744-.497.987-.917l.07 1.064h.98v-7H63.2v3.808c0 .41-.058.765-.175 1.064-.117.299-.275.544-.476.735-.2.191-.427.331-.679.42-.252.089-.509.133-.77.133-.56 0-.994-.133-1.302-.399-.308-.266-.462-.754-.462-1.463v-4.298h-1.12v4.592c0 .607.124 1.099.371 1.477.247.378.57.651.966.819.397.168.819.252 1.267.252zm7.224-.14v-3.78c0-.523.098-.954.294-1.295.196-.34.441-.595.735-.763.294-.168.586-.252.875-.252.224 0 .397.01.518.028.121.019.233.047.336.084l.196-1.022c-.103-.056-.226-.093-.371-.112-.145-.019-.278-.028-.399-.028-.541 0-1.001.107-1.379.322-.378.215-.665.537-.861.966l-.154-1.148h-.91v7h1.12zm6.454.14c.327 0 .658-.054.994-.161.336-.107.64-.275.91-.504.09-.076.172-.16.244-.251l.092-.128.024.101c.014.05.031.1.05.146l.066.132c.121.21.29.366.504.469.215.103.457.154.728.154.299 0 .541-.047.728-.14l.056-.882c-.168.047-.34.07-.518.07-.355 0-.532-.168-.532-.504v-3.388c0-.55-.119-1.001-.357-1.351-.238-.35-.562-.611-.973-.784-.41-.173-.868-.259-1.372-.259-.747 0-1.372.161-1.876.483-.504.322-.85.744-1.036 1.267l.91.56c.159-.467.406-.805.742-1.015.336-.21.747-.315 1.232-.315.513 0 .91.142 1.19.427.28.285.42.688.42 1.211v.268l-2.548.502c-.547.106-.989.296-1.325.57l-.138.123c-.35.34-.525.772-.525 1.295 0 .42.105.772.315 1.057.21.285.492.497.847.637s.737.21 1.148.21zm.154-.98c-.42 0-.744-.091-.973-.273-.229-.182-.343-.418-.343-.707 0-.299.112-.532.336-.7.224-.168.565-.299 1.022-.392l2.03-.416v.738c0 .239-.036.452-.108.64l-.06.137c-.112.22-.266.401-.462.546-.196.145-.418.252-.665.322-.247.07-.506.105-.777.105zm8.4 3.85c.635 0 1.206-.091 1.715-.273.509-.182.915-.441 1.218-.777.303-.336.455-.733.455-1.19 0-.504-.187-.908-.56-1.211-.373-.303-.891-.455-1.554-.455h-2.044c-.345 0-.614-.063-.805-.189-.191-.126-.287-.32-.287-.581 0-.215.096-.413.287-.595.11-.104.262-.186.458-.246l.018-.004.064.015c.21.044.435.072.676.083l.247.005c.56 0 1.057-.1 1.491-.301.434-.2.772-.48 1.015-.84.243-.36.364-.768.364-1.225 0-.467-.121-.877-.364-1.232-.07-.101-.146-.196-.231-.285l-.027-.025.015-.11c.039-.217.126-.39.261-.522l.087-.073c.247-.182.6-.273 1.057-.273h.098l-.252-.994h-.07c-.345 0-.663.072-.952.217-.29.145-.518.352-.686.623-.112.18-.187.382-.224.604l-.006.048-.085-.043c-.372-.172-.79-.27-1.255-.295l-.236-.006c-.56 0-1.055.1-1.484.301-.43.2-.768.478-1.015.833-.247.355-.371.765-.371 1.232 0 .69.247 1.258.742 1.701.09.08.187.154.291.22l.054.032-.046.016c-.158.064-.297.142-.417.236l-.113.098c-.285.275-.427.604-.427.987s.11.674.329.875c.088.08.183.151.287.213l.136.073-.051.011c-.264.068-.475.176-.633.324l-.089.093c-.247.294-.371.628-.371 1.001 0 .523.273.97.819 1.344.546.373 1.37.56 2.471.56zm-.112-6.328c-.485 0-.891-.135-1.218-.406-.327-.27-.49-.62-.49-1.05 0-.439.163-.791.49-1.057.327-.266.733-.399 1.218-.399s.891.133 1.218.399c.327.266.49.618.49 1.057 0 .43-.163.78-.49 1.05-.327.27-.733.406-1.218.406zm.098 5.39c-.7 0-1.248-.103-1.645-.308-.397-.205-.595-.48-.595-.826 0-.27.103-.483.308-.637.205-.154.457-.231.756-.231h2.156c.523 0 .884.075 1.085.224.2.15.301.35.301.602 0 .205-.084.397-.252.574-.168.177-.427.322-.777.434-.35.112-.796.168-1.337.168zm7.896-1.932c.457 0 .87-.063 1.239-.189.369-.126.69-.306.966-.539.275-.233.502-.509.679-.826l-.882-.518c-.196.336-.455.602-.777.798-.322.196-.74.294-1.253.294-.476 0-.884-.105-1.225-.315-.34-.21-.604-.516-.791-.917-.133-.287-.219-.611-.257-.974l-.011-.132h5.28c.012-.068.023-.143.031-.224l.011-.126c.01-.13.014-.275.014-.434 0-.597-.121-1.136-.364-1.617-.243-.48-.595-.861-1.057-1.141-.462-.28-1.02-.42-1.673-.42-.644 0-1.218.145-1.722.434-.504.29-.9.707-1.19 1.253-.29.546-.434 1.197-.434 1.953s.145 1.407.434 1.953c.29.546.693.964 1.211 1.253.518.29 1.108.434 1.771.434zm1.9-4.312H88.66c.034-.212.084-.408.15-.588l.073-.175c.182-.397.439-.7.77-.91.331-.21.726-.315 1.183-.315.597 0 1.08.182 1.449.546.369.364.553.882.553 1.554l-.004-.112zm10.574 4.312c.383 0 .721-.056 1.015-.168.294-.112.548-.266.763-.462l-.392-.938c-.159.159-.336.285-.532.378-.196.093-.43.14-.7.14-.308 0-.56-.084-.756-.252-.196-.168-.294-.425-.294-.77v-4.101l2.548-.001v-.966h-2.548v-1.988l-1.12.308v1.68h-1.4v.966l1.4.001v4.297c.008.384.08.705.214.962l.073.123c.182.275.427.476.735.602s.64.189.994.189zm4.438-.14v-3.78c0-.523.098-.954.294-1.295.196-.34.441-.595.735-.763.294-.168.586-.252.875-.252.224 0 .397.01.518.028.121.019.233.047.336.084l.196-1.022c-.103-.056-.226-.093-.371-.112-.145-.019-.278-.028-.399-.028-.541 0-1.001.107-1.379.322-.378.215-.665.537-.861.966l-.154-1.148h-.91v7h1.12zm6.454.14c.327 0 .658-.054.994-.161.336-.107.64-.275.91-.504.09-.076.172-.16.244-.251l.092-.128.024.101c.014.05.031.1.05.146l.066.132c.121.21.29.366.504.469.215.103.457.154.728.154.299 0 .541-.047.728-.14l.056-.882c-.168.047-.34.07-.518.07-.355 0-.532-.168-.532-.504v-3.388c0-.55-.119-1.001-.357-1.351-.238-.35-.562-.611-.973-.784-.41-.173-.868-.259-1.372-.259-.747 0-1.372.161-1.876.483-.504.322-.85.744-1.036 1.267l.91.56c.159-.467.406-.805.742-1.015.336-.21.747-.315 1.232-.315.513 0 .91.142 1.19.427.28.285.42.688.42 1.211v.268l-2.548.502c-.547.106-.989.296-1.325.57l-.138.123c-.35.34-.525.772-.525 1.295 0 .42.105.772.315 1.057.21.285.492.497.847.637s.737.21 1.148.21zm.154-.98c-.42 0-.744-.091-.973-.273-.229-.182-.343-.418-.343-.707 0-.299.112-.532.336-.7.224-.168.565-.299 1.022-.392l2.03-.416v.738c0 .239-.036.452-.108.64l-.06.137c-.112.22-.266.401-.462.546-.196.145-.418.252-.665.322-.247.07-.506.105-.777.105zm8.638.98c.401 0 .782-.075 1.141-.224.36-.15.663-.366.91-.651.124-.142.225-.3.303-.474l.035-.09.075 1.299h.98v-10.22h-1.12v4.351l-.078-.148c-.123-.21-.282-.397-.476-.558l-.153-.117c-.425-.299-.926-.448-1.505-.448-.579 0-1.12.142-1.624.427-.504.285-.91.698-1.218 1.239-.308.541-.462 1.2-.462 1.974 0 .756.145 1.407.434 1.953.29.546.677.964 1.162 1.253.485.29 1.017.434 1.596.434zm.112-.98c-.69 0-1.227-.243-1.61-.728s-.574-1.13-.574-1.932c0-.803.196-1.447.588-1.932.392-.485.943-.728 1.652-.728.43 0 .805.103 1.127.308.322.205.574.5.756.882.182.383.273.84.273 1.372 0 .56-.091 1.048-.273 1.463-.182.415-.439.735-.77.959-.331.224-.721.336-1.169.336zm6.496-7.504c.252 0 .455-.077.609-.231.154-.154.231-.357.231-.609s-.077-.455-.231-.609c-.154-.154-.357-.231-.609-.231s-.455.077-.609.231c-.154.154-.231.357-.231.609s.077.455.231.609c.154.154.357.231.609.231zm.56 8.344v-7h-1.12v7h1.12zm3.724 0v-3.724c0-.597.11-1.073.329-1.428.22-.355.497-.611.833-.77.336-.159.672-.238 1.008-.238.485 0 .894.152 1.225.455.331.303.497.842.497 1.617v4.088h1.12v-4.48c0-.607-.124-1.106-.371-1.498-.247-.392-.576-.684-.987-.875-.41-.191-.868-.287-1.372-.287-.355 0-.698.051-1.029.154-.331.103-.623.268-.875.497-.168.152-.313.337-.436.554l-.014.026-.068-1.091h-.98v7h1.12zm10.038 3.01c.635 0 1.206-.091 1.715-.273.509-.182.915-.441 1.218-.777.303-.336.455-.733.455-1.19 0-.504-.187-.908-.56-1.211-.373-.303-.891-.455-1.554-.455h-2.044c-.345 0-.614-.063-.805-.189-.191-.126-.287-.32-.287-.581 0-.215.096-.413.287-.595.11-.104.262-.186.458-.246l.018-.004.064.015c.21.044.435.072.676.083l.247.005c.56 0 1.057-.1 1.491-.301.434-.2.772-.48 1.015-.84.243-.36.364-.768.364-1.225 0-.467-.121-.877-.364-1.232-.07-.101-.146-.196-.231-.285l-.027-.025.015-.11c.039-.217.126-.39.261-.522l.087-.073c.247-.182.6-.273 1.057-.273h.098l-.252-.994h-.07c-.345 0-.663.072-.952.217-.29.145-.518.352-.686.623-.112.18-.187.382-.224.604l-.006.048-.085-.043c-.372-.172-.79-.27-1.255-.295l-.236-.006c-.56 0-1.055.1-1.484.301-.43.2-.768.478-1.015.833-.247.355-.371.765-.371 1.232 0 .69.247 1.258.742 1.701.09.08.187.154.291.22l.054.032-.046.016c-.158.064-.297.142-.417.236l-.113.098c-.285.275-.427.604-.427.987s.11.674.329.875c.088.08.183.151.287.213l.136.073-.051.011c-.264.068-.475.176-.633.324l-.089.093c-.247.294-.371.628-.371 1.001 0 .523.273.97.819 1.344.546.373 1.37.56 2.471.56zm-.112-6.328c-.485 0-.891-.135-1.218-.406-.327-.27-.49-.62-.49-1.05 0-.439.163-.791.49-1.057.327-.266.733-.399 1.218-.399s.891.133 1.218.399c.327.266.49.618.49 1.057 0 .43-.163.78-.49 1.05-.327.27-.733.406-1.218.406zm.098 5.39c-.7 0-1.248-.103-1.645-.308-.397-.205-.595-.48-.595-.826 0-.27.103-.483.308-.637.205-.154.457-.231.756-.231h2.156c.523 0 .884.075 1.085.224.2.15.301.35.301.602 0 .205-.084.397-.252.574-.168.177-.427.322-.777.434-.35.112-.796.168-1.337.168zM398.788 196.29v-8.19h3.22v-1.05h-7.56v1.05h3.22v8.19h1.12zm5.264 3.01c.336 0 .632-.058.889-.175.257-.117.49-.308.7-.574.21-.266.404-.628.581-1.085l3.29-8.176h-1.204l-1.638 4.424-.504 1.386-.434-1.246-1.75-4.564h-1.274l2.226 5.32.7 1.666-.364.91c-.177.457-.373.76-.588.91-.215.15-.443.224-.686.224-.205 0-.413-.04-.623-.119-.21-.08-.408-.203-.595-.371l-.308.98c.205.15.441.268.707.357.266.089.558.133.875.133zm8.05-.07v-4.038l.05.083c.147.226.335.426.563.601l.178.127c.434.285.94.427 1.519.427s1.11-.145 1.596-.434c.485-.29.875-.707 1.169-1.253.294-.546.441-1.197.441-1.953 0-.765-.145-1.419-.434-1.96-.29-.541-.674-.957-1.155-1.246-.48-.29-1.006-.434-1.575-.434-.401 0-.775.07-1.12.21-.345.14-.64.334-.882.581-.146.148-.27.311-.371.488l-.048.092-.071-1.231h-.98v9.94h1.12zm2.198-3.78c-.439 0-.824-.11-1.155-.329-.331-.22-.588-.53-.77-.931-.182-.401-.273-.868-.273-1.4 0-.541.093-1.01.28-1.407.187-.397.448-.705.784-.924.336-.22.728-.329 1.176-.329.681 0 1.211.243 1.589.728.378.485.567 1.13.567 1.932 0 .803-.194 1.447-.581 1.932-.387.485-.926.728-1.617.728zm6.02-7.504c.252 0 .455-.077.609-.231.154-.154.231-.357.231-.609s-.077-.455-.231-.609c-.154-.154-.357-.231-.609-.231s-.455.077-.609.231c-.154.154-.231.357-.231.609s.077.455.231.609c.154.154.357.231.609.231zm.56 8.344v-7h-1.12v7h1.12zm5.502.14c.495 0 .936-.082 1.323-.245.387-.163.719-.399.994-.707.275-.308.492-.677.651-1.106l-1.036-.364c-.065.308-.184.57-.357.784-.173.215-.392.378-.658.49-.266.112-.581.168-.945.168-.467 0-.868-.105-1.204-.315-.336-.21-.593-.516-.77-.917-.177-.401-.266-.877-.266-1.428 0-.56.089-1.038.266-1.435.177-.397.434-.7.77-.91.336-.21.737-.315 1.204-.315.485 0 .88.119 1.183.357.303.238.53.581.679 1.029l1.064-.504c-.168-.383-.387-.714-.658-.994-.27-.28-.59-.495-.959-.644-.369-.15-.796-.224-1.281-.224-.653 0-1.237.145-1.75.434-.513.29-.915.707-1.204 1.253-.29.546-.434 1.197-.434 1.953s.145 1.407.434 1.953c.29.546.69.964 1.204 1.253.513.29 1.097.434 1.75.434zm6.804 0c.327 0 .658-.054.994-.161.336-.107.64-.275.91-.504.09-.076.172-.16.244-.251l.092-.128.024.101c.014.05.031.1.05.146l.066.132c.121.21.29.366.504.469.215.103.457.154.728.154.299 0 .541-.047.728-.14l.056-.882c-.168.047-.34.07-.518.07-.355 0-.532-.168-.532-.504v-3.388c0-.55-.119-1.001-.357-1.351-.238-.35-.562-.611-.973-.784-.41-.173-.868-.259-1.372-.259-.747 0-1.372.161-1.876.483-.504.322-.85.744-1.036 1.267l.91.56c.159-.467.406-.805.742-1.015.336-.21.747-.315 1.232-.315.513 0 .91.142 1.19.427.28.285.42.688.42 1.211v.268l-2.548.502c-.547.106-.989.296-1.325.57l-.138.123c-.35.34-.525.772-.525 1.295 0 .42.105.772.315 1.057.21.285.492.497.847.637s.737.21 1.148.21zm.154-.98c-.42 0-.744-.091-.973-.273-.229-.182-.343-.418-.343-.707 0-.299.112-.532.336-.7.224-.168.565-.299 1.022-.392l2.03-.416v.738c0 .239-.036.452-.108.64l-.06.137c-.112.22-.266.401-.462.546-.196.145-.418.252-.665.322-.247.07-.506.105-.777.105zm7.532.98c.187 0 .369-.016.546-.049.177-.033.34-.082.49-.147l.182-.98c-.205.075-.369.126-.49.154-.121.028-.275.042-.462.042-.29 0-.5-.068-.63-.203s-.196-.38-.196-.735v-8.442h-1.12v8.484c0 .635.138 1.106.413 1.414.275.308.698.462 1.267.462zm7.672-.14l.978-2.562h4.189l.979 2.562h1.19l-3.584-9.24h-1.33l-3.598 9.24h1.176zm4.766-3.612h-3.387l1.267-3.318.406-1.246h.028l.434 1.288 1.252 3.276zm5.51 3.612v-5.81l-.126-2.436h.014l3.038 8.246h.952l3.038-8.246h.014l-.126 2.436v5.81h1.064v-9.24h-1.722l-2.016 5.628-.714 2.296h-.028l-.7-2.31-2.03-5.614h-1.722v9.24h1.064zm11.956 0v-5.81l-.126-2.436h.014l3.038 8.246h.952l3.038-8.246h.014l-.126 2.436v5.81h1.064v-9.24h-1.722l-2.016 5.628-.714 2.296h-.028l-.7-2.31-2.03-5.614h-1.722v9.24h1.064zm13.202.14c.55 0 1.036-.089 1.456-.266.42-.177.747-.432.98-.763.233-.331.35-.716.35-1.155 0-.43-.13-.793-.392-1.092-.261-.299-.719-.513-1.372-.644l-1.75-.364c-.383-.075-.644-.198-.784-.371s-.21-.362-.21-.567c0-.205.063-.39.189-.553.126-.163.308-.292.546-.385.238-.093.525-.14.861-.14.383 0 .751.096 1.106.287.355.191.611.492.77.903l.938-.616c-.233-.495-.588-.877-1.064-1.148-.476-.27-1.06-.406-1.75-.406-.55 0-1.029.096-1.435.287-.406.191-.719.446-.938.763-.22.317-.329.667-.329 1.05 0 .485.147.891.441 1.218.294.327.782.56 1.463.7l1.68.35c.355.075.595.194.721.357.126.163.189.343.189.539 0 .308-.14.558-.42.749-.28.191-.667.287-1.162.287-.56 0-1.038-.121-1.435-.364s-.698-.579-.903-1.008l-.952.686c.308.532.749.943 1.323 1.232.574.29 1.202.434 1.883.434zm-87.556 23.86v-3.71c0-.597.11-1.076.329-1.435.22-.36.497-.618.833-.777.336-.159.672-.238 1.008-.238.485 0 .894.152 1.225.455.331.303.497.842.497 1.617v4.088h1.12v-4.48c0-.607-.124-1.106-.371-1.498-.247-.392-.576-.684-.987-.875-.41-.191-.868-.287-1.372-.287-.476 0-.915.093-1.316.28-.401.187-.723.49-.966.91v-4.27h-1.12v10.22h1.12zm9.408.14c.327 0 .658-.054.994-.161.336-.107.64-.275.91-.504.09-.076.172-.16.244-.251l.092-.128.024.101c.014.05.031.1.05.146l.066.132c.121.21.29.366.504.469.215.103.457.154.728.154.299 0 .541-.047.728-.14l.056-.882c-.168.047-.34.07-.518.07-.355 0-.532-.168-.532-.504v-3.388c0-.55-.119-1.001-.357-1.351-.238-.35-.562-.611-.973-.784-.41-.173-.868-.259-1.372-.259-.747 0-1.372.161-1.876.483-.504.322-.85.744-1.036 1.267l.91.56c.159-.467.406-.805.742-1.015.336-.21.747-.315 1.232-.315.513 0 .91.142 1.19.427.28.285.42.688.42 1.211v.268l-2.548.502c-.547.106-.989.296-1.325.57l-.138.123c-.35.34-.525.772-.525 1.295 0 .42.105.772.315 1.057.21.285.492.497.847.637s.737.21 1.148.21zm.154-.98c-.42 0-.744-.091-.973-.273-.229-.182-.343-.418-.343-.707 0-.299.112-.532.336-.7.224-.168.565-.299 1.022-.392l2.03-.416v.738c0 .239-.036.452-.108.64l-.06.137c-.112.22-.266.401-.462.546-.196.145-.418.252-.665.322-.247.07-.506.105-.777.105zm8.806.84l2.912-7h-1.176l-2.282 5.866-2.212-5.866h-1.274l2.912 7h1.12zm7.308.14c.457 0 .87-.063 1.239-.189.369-.126.69-.306.966-.539.275-.233.502-.509.679-.826l-.882-.518c-.196.336-.455.602-.777.798-.322.196-.74.294-1.253.294-.476 0-.884-.105-1.225-.315-.34-.21-.604-.516-.791-.917-.133-.287-.219-.611-.257-.974l-.011-.132h5.28c.012-.068.023-.143.031-.224l.011-.126c.01-.13.014-.275.014-.434 0-.597-.121-1.136-.364-1.617-.243-.48-.595-.861-1.057-1.141-.462-.28-1.02-.42-1.673-.42-.644 0-1.218.145-1.722.434-.504.29-.9.707-1.19 1.253-.29.546-.434 1.197-.434 1.953s.145 1.407.434 1.953c.29.546.693.964 1.211 1.253.518.29 1.108.434 1.771.434zm1.9-4.312h-4.174c.034-.212.084-.408.15-.588l.073-.175c.182-.397.439-.7.77-.91.331-.21.726-.315 1.183-.315.597 0 1.08.182 1.449.546.369.364.553.882.553 1.554l-.004-.112zm9.692 4.172v-6.033l2.338-.001v-.966h-2.338v-1.064c0-.368.086-.647.257-.84l.079-.077c.224-.191.537-.287.938-.287.159 0 .303.016.434.049.13.033.252.086.364.161l.294-.91c-.121-.103-.29-.182-.504-.238-.215-.056-.443-.084-.686-.084-.383 0-.719.051-1.008.154-.29.103-.53.247-.721.434-.191.187-.334.41-.427.672-.093.261-.14.546-.14.854v1.176h-1.4v.966l1.4.001v6.033h1.12zm4.396-8.344c.252 0 .455-.077.609-.231.154-.154.231-.357.231-.609s-.077-.455-.231-.609c-.154-.154-.357-.231-.609-.231s-.455.077-.609.231c-.154.154-.231.357-.231.609s.077.455.231.609c.154.154.357.231.609.231zm.56 8.344v-7h-1.12v7h1.12zm3.01 0l1.992-2.699 1.928 2.699h1.372l-2.581-3.576 2.539-3.424h-1.316l-1.823 2.588-1.845-2.588h-1.4l2.513 3.47-2.681 3.53h1.302zm9.982.14c.457 0 .87-.063 1.239-.189.369-.126.69-.306.966-.539.275-.233.502-.509.679-.826l-.882-.518c-.196.336-.455.602-.777.798-.322.196-.74.294-1.253.294-.476 0-.884-.105-1.225-.315-.34-.21-.604-.516-.791-.917-.133-.287-.219-.611-.257-.974l-.011-.132h5.28c.012-.068.023-.143.031-.224l.011-.126c.01-.13.014-.275.014-.434 0-.597-.121-1.136-.364-1.617-.243-.48-.595-.861-1.057-1.141-.462-.28-1.02-.42-1.673-.42-.644 0-1.218.145-1.722.434-.504.29-.9.707-1.19 1.253-.29.546-.434 1.197-.434 1.953s.145 1.407.434 1.953c.29.546.693.964 1.211 1.253.518.29 1.108.434 1.771.434zm1.9-4.312h-4.174c.034-.212.084-.408.15-.588l.073-.175c.182-.397.439-.7.77-.91.331-.21.726-.315 1.183-.315.597 0 1.08.182 1.449.546.369.364.553.882.553 1.554l-.004-.112zm5.982 4.312c.401 0 .782-.075 1.141-.224.36-.15.663-.366.91-.651.124-.142.225-.3.303-.474l.035-.09.075 1.299h.98v-10.22h-1.12v4.351l-.078-.148c-.123-.21-.282-.397-.476-.558l-.153-.117c-.425-.299-.926-.448-1.505-.448-.579 0-1.12.142-1.624.427-.504.285-.91.698-1.218 1.239-.308.541-.462 1.2-.462 1.974 0 .756.145 1.407.434 1.953.29.546.677.964 1.162 1.253.485.29 1.017.434 1.596.434zm.112-.98c-.69 0-1.227-.243-1.61-.728s-.574-1.13-.574-1.932c0-.803.196-1.447.588-1.932.392-.485.943-.728 1.652-.728.43 0 .805.103 1.127.308.322.205.574.5.756.882.182.383.273.84.273 1.372 0 .56-.091 1.048-.273 1.463-.182.415-.439.735-.77.959-.331.224-.721.336-1.169.336zm12.376.84v-6.033l2.338-.001v-.966h-2.338v-1.064c0-.368.086-.647.257-.84l.079-.077c.224-.191.537-.287.938-.287.159 0 .303.016.434.049.13.033.252.086.364.161l.294-.91c-.121-.103-.29-.182-.504-.238-.215-.056-.443-.084-.686-.084-.383 0-.719.051-1.008.154-.29.103-.53.247-.721.434-.191.187-.334.41-.427.672-.093.261-.14.546-.14.854v1.176h-1.4v.966l1.4.001v6.033h1.12zm6.762.14c.457 0 .87-.063 1.239-.189.369-.126.69-.306.966-.539.275-.233.502-.509.679-.826l-.882-.518c-.196.336-.455.602-.777.798-.322.196-.74.294-1.253.294-.476 0-.884-.105-1.225-.315-.34-.21-.604-.516-.791-.917-.133-.287-.219-.611-.257-.974l-.011-.132h5.28c.012-.068.023-.143.031-.224l.011-.126c.01-.13.014-.275.014-.434 0-.597-.121-1.136-.364-1.617-.243-.48-.595-.861-1.057-1.141-.462-.28-1.02-.42-1.673-.42-.644 0-1.218.145-1.722.434-.504.29-.9.707-1.19 1.253-.29.546-.434 1.197-.434 1.953s.145 1.407.434 1.953c.29.546.693.964 1.211 1.253.518.29 1.108.434 1.771.434zm1.9-4.312h-4.174c.034-.212.084-.408.15-.588l.073-.175c.182-.397.439-.7.77-.91.331-.21.726-.315 1.183-.315.597 0 1.08.182 1.449.546.369.364.553.882.553 1.554l-.004-.112zm6.178 4.312c.457 0 .87-.063 1.239-.189.369-.126.69-.306.966-.539.275-.233.502-.509.679-.826l-.882-.518c-.196.336-.455.602-.777.798-.322.196-.74.294-1.253.294-.476 0-.884-.105-1.225-.315-.34-.21-.604-.516-.791-.917-.133-.287-.219-.611-.257-.974l-.011-.132h5.28c.012-.068.023-.143.031-.224l.011-.126c.01-.13.014-.275.014-.434 0-.597-.121-1.136-.364-1.617-.243-.48-.595-.861-1.057-1.141-.462-.28-1.02-.42-1.673-.42-.644 0-1.218.145-1.722.434-.504.29-.9.707-1.19 1.253-.29.546-.434 1.197-.434 1.953s.145 1.407.434 1.953c.29.546.693.964 1.211 1.253.518.29 1.108.434 1.771.434zm1.9-4.312h-4.174c.034-.212.084-.408.15-.588l.073-.175c.182-.397.439-.7.77-.91.331-.21.726-.315 1.183-.315.597 0 1.08.182 1.449.546.369.364.553.882.553 1.554l-.004-.112zm5.772 4.312c.55 0 1.036-.089 1.456-.266.42-.177.747-.432.98-.763.233-.331.35-.716.35-1.155 0-.43-.13-.793-.392-1.092-.261-.299-.719-.513-1.372-.644l-1.75-.364c-.383-.075-.644-.198-.784-.371s-.21-.362-.21-.567c0-.205.063-.39.189-.553.126-.163.308-.292.546-.385.238-.093.525-.14.861-.14.383 0 .751.096 1.106.287.355.191.611.492.77.903l.938-.616c-.233-.495-.588-.877-1.064-1.148-.476-.27-1.06-.406-1.75-.406-.55 0-1.029.096-1.435.287-.406.191-.719.446-.938.763-.22.317-.329.667-.329 1.05 0 .485.147.891.441 1.218.294.327.782.56 1.463.7l1.68.35c.355.075.595.194.721.357.126.163.189.343.189.539 0 .308-.14.558-.42.749-.28.191-.667.287-1.162.287-.56 0-1.038-.121-1.435-.364s-.698-.579-.903-1.008l-.952.686c.308.532.749.943 1.323 1.232.574.29 1.202.434 1.883.434zM382.632 371.29v-4.158h5.012v4.158h1.12v-9.24h-1.12v4.032h-5.012v-4.032h-1.12v9.24h1.12zm9.506-8.344c.252 0 .455-.077.609-.231.154-.154.231-.357.231-.609s-.077-.455-.231-.609c-.154-.154-.357-.231-.609-.231s-.455.077-.609.231c-.154.154-.231.357-.231.609s.077.455.231.609c.154.154.357.231.609.231zm.56 8.344v-7h-1.12v7h1.12zm5.096 3.01c.635 0 1.206-.091 1.715-.273.509-.182.915-.441 1.218-.777.303-.336.455-.733.455-1.19 0-.504-.187-.908-.56-1.211-.373-.303-.891-.455-1.554-.455h-2.044c-.345 0-.614-.063-.805-.189-.191-.126-.287-.32-.287-.581 0-.215.096-.413.287-.595.11-.104.262-.186.458-.246l.018-.004.064.015c.21.044.435.072.676.083l.247.005c.56 0 1.057-.1 1.491-.301.434-.2.772-.48 1.015-.84.243-.36.364-.768.364-1.225 0-.467-.121-.877-.364-1.232-.07-.101-.146-.196-.231-.285l-.027-.025.015-.11c.039-.217.126-.39.261-.522l.087-.073c.247-.182.6-.273 1.057-.273h.098l-.252-.994h-.07c-.345 0-.663.072-.952.217-.29.145-.518.352-.686.623-.112.18-.187.382-.224.604l-.006.048-.085-.043c-.372-.172-.79-.27-1.255-.295l-.236-.006c-.56 0-1.055.1-1.484.301-.43.2-.768.478-1.015.833-.247.355-.371.765-.371 1.232 0 .69.247 1.258.742 1.701.09.08.187.154.291.22l.054.032-.046.016c-.158.064-.297.142-.417.236l-.113.098c-.285.275-.427.604-.427.987s.11.674.329.875c.088.08.183.151.287.213l.136.073-.051.011c-.264.068-.475.176-.633.324l-.089.093c-.247.294-.371.628-.371 1.001 0 .523.273.97.819 1.344.546.373 1.37.56 2.471.56zm-.112-6.328c-.485 0-.891-.135-1.218-.406-.327-.27-.49-.62-.49-1.05 0-.439.163-.791.49-1.057.327-.266.733-.399 1.218-.399s.891.133 1.218.399c.327.266.49.618.49 1.057 0 .43-.163.78-.49 1.05-.327.27-.733.406-1.218.406zm.098 5.39c-.7 0-1.248-.103-1.645-.308-.397-.205-.595-.48-.595-.826 0-.27.103-.483.308-.637.205-.154.457-.231.756-.231h2.156c.523 0 .884.075 1.085.224.2.15.301.35.301.602 0 .205-.084.397-.252.574-.168.177-.427.322-.777.434-.35.112-.796.168-1.337.168zm6.09-2.072v-3.71c0-.597.11-1.076.329-1.435.22-.36.497-.618.833-.777.336-.159.672-.238 1.008-.238.485 0 .894.152 1.225.455.331.303.497.842.497 1.617v4.088h1.12v-4.48c0-.607-.124-1.106-.371-1.498-.247-.392-.576-.684-.987-.875-.41-.191-.868-.287-1.372-.287-.476 0-.915.093-1.316.28-.401.187-.723.49-.966.91v-4.27h-1.12v10.22h1.12zm16.198 0l3.5-9.24h-1.204l-2.352 6.398-.588 1.82-.588-1.834-2.352-6.384h-1.204l3.514 9.24h1.274zm8.092.14c.663 0 1.248-.145 1.757-.434.509-.29.908-.707 1.197-1.253.29-.546.434-1.197.434-1.953s-.145-1.407-.434-1.953c-.29-.546-.688-.964-1.197-1.253-.509-.29-1.094-.434-1.757-.434-.653 0-1.237.145-1.75.434-.513.29-.915.707-1.204 1.253-.29.546-.434 1.197-.434 1.953s.145 1.407.434 1.953c.29.546.69.964 1.204 1.253.513.29 1.097.434 1.75.434zm0-.966c-.476 0-.882-.107-1.218-.322-.336-.215-.595-.523-.777-.924-.182-.401-.273-.877-.273-1.428 0-.56.091-1.038.273-1.435.182-.397.441-.702.777-.917.336-.215.742-.322 1.218-.322s.882.107 1.218.322c.336.215.595.52.777.917.182.397.273.875.273 1.435 0 .55-.091 1.027-.273 1.428-.182.401-.441.71-.777.924-.336.215-.742.322-1.218.322zm7.126.966c.187 0 .369-.016.546-.049.177-.033.34-.082.49-.147l.182-.98c-.205.075-.369.126-.49.154-.121.028-.275.042-.462.042-.29 0-.5-.068-.63-.203s-.196-.38-.196-.735v-8.442h-1.12v8.484c0 .635.138 1.106.413 1.414.275.308.698.462 1.267.462zm5.194 0c.56 0 1.048-.096 1.463-.287.415-.191.744-.497.987-.917l.07 1.064h.98v-7h-1.12v3.808c0 .41-.058.765-.175 1.064-.117.299-.275.544-.476.735-.2.191-.427.331-.679.42-.252.089-.509.133-.77.133-.56 0-.994-.133-1.302-.399-.308-.266-.462-.754-.462-1.463v-4.298h-1.12v4.592c0 .607.124 1.099.371 1.477.247.378.57.651.966.819.397.168.819.252 1.267.252zm7.224-.14v-3.738c0-.579.107-1.045.322-1.4.215-.355.483-.614.805-.777.322-.163.637-.245.945-.245.467 0 .859.14 1.176.42.317.28.476.737.476 1.372v4.368h1.12v-3.836c0-.504.096-.929.287-1.274.191-.345.446-.607.763-.784.317-.177.658-.266 1.022-.266.467 0 .859.14 1.176.42.317.28.476.737.476 1.372v4.368h1.12v-4.48c0-.616-.13-1.12-.392-1.512-.261-.392-.595-.681-1.001-.868-.406-.187-.833-.28-1.281-.28-.29 0-.595.049-.917.147-.322.098-.618.247-.889.448-.27.2-.48.46-.63.777-.233-.467-.57-.812-1.008-1.036-.439-.224-.905-.336-1.4-.336-.43 0-.847.098-1.253.294-.406.196-.735.509-.987.938l-.07-1.092h-.98v7h1.12zm15.148.14c.457 0 .87-.063 1.239-.189.369-.126.69-.306.966-.539.275-.233.502-.509.679-.826l-.882-.518c-.196.336-.455.602-.777.798-.322.196-.74.294-1.253.294-.476 0-.884-.105-1.225-.315-.34-.21-.604-.516-.791-.917-.133-.287-.219-.611-.257-.974l-.011-.132h5.28c.012-.068.023-.143.031-.224l.011-.126c.01-.13.014-.275.014-.434 0-.597-.121-1.136-.364-1.617-.243-.48-.595-.861-1.057-1.141-.462-.28-1.02-.42-1.673-.42-.644 0-1.218.145-1.722.434-.504.29-.9.707-1.19 1.253-.29.546-.434 1.197-.434 1.953s.145 1.407.434 1.953c.29.546.693.964 1.211 1.253.518.29 1.108.434 1.771.434zm1.9-4.312h-4.174c.034-.212.084-.408.15-.588l.073-.175c.182-.397.439-.7.77-.91.331-.21.726-.315 1.183-.315.597 0 1.08.182 1.449.546.369.364.553.882.553 1.554l-.004-.112zm11.512 4.172v-8.19h3.22v-1.05h-7.56v1.05h3.22v8.19h1.12zm6.09 0v-3.78c0-.523.098-.954.294-1.295.196-.34.441-.595.735-.763.294-.168.586-.252.875-.252.224 0 .397.01.518.028.121.019.233.047.336.084l.196-1.022c-.103-.056-.226-.093-.371-.112-.145-.019-.278-.028-.399-.028-.541 0-1.001.107-1.379.322-.378.215-.665.537-.861.966l-.154-1.148h-.91v7h1.12zm7.518.14c.457 0 .87-.063 1.239-.189.369-.126.69-.306.966-.539.275-.233.502-.509.679-.826l-.882-.518c-.196.336-.455.602-.777.798-.322.196-.74.294-1.253.294-.476 0-.884-.105-1.225-.315-.34-.21-.604-.516-.791-.917-.133-.287-.219-.611-.257-.974l-.011-.132h5.28c.012-.068.023-.143.031-.224l.011-.126c.01-.13.014-.275.014-.434 0-.597-.121-1.136-.364-1.617-.243-.48-.595-.861-1.057-1.141-.462-.28-1.02-.42-1.673-.42-.644 0-1.218.145-1.722.434-.504.29-.9.707-1.19 1.253-.29.546-.434 1.197-.434 1.953s.145 1.407.434 1.953c.29.546.693.964 1.211 1.253.518.29 1.108.434 1.771.434zm1.9-4.312h-4.174c.034-.212.084-.408.15-.588l.073-.175c.182-.397.439-.7.77-.91.331-.21.726-.315 1.183-.315.597 0 1.08.182 1.449.546.369.364.553.882.553 1.554l-.004-.112zm4.372 4.172v-3.724c0-.597.11-1.073.329-1.428.22-.355.497-.611.833-.77.336-.159.672-.238 1.008-.238.485 0 .894.152 1.225.455.331.303.497.842.497 1.617v4.088h1.12v-4.48c0-.607-.124-1.106-.371-1.498-.247-.392-.576-.684-.987-.875-.41-.191-.868-.287-1.372-.287-.355 0-.698.051-1.029.154-.331.103-.623.268-.875.497-.168.152-.313.337-.436.554l-.014.026-.068-1.091h-.98v7h1.12zm10.276.14c.401 0 .782-.075 1.141-.224.36-.15.663-.366.91-.651.124-.142.225-.3.303-.474l.035-.09.075 1.299h.98v-10.22h-1.12v4.351l-.078-.148c-.123-.21-.282-.397-.476-.558l-.153-.117c-.425-.299-.926-.448-1.505-.448-.579 0-1.12.142-1.624.427-.504.285-.91.698-1.218 1.239-.308.541-.462 1.2-.462 1.974 0 .756.145 1.407.434 1.953.29.546.677.964 1.162 1.253.485.29 1.017.434 1.596.434zm.112-.98c-.69 0-1.227-.243-1.61-.728s-.574-1.13-.574-1.932c0-.803.196-1.447.588-1.932.392-.485.943-.728 1.652-.728.43 0 .805.103 1.127.308.322.205.574.5.756.882.182.383.273.84.273 1.372 0 .56-.091 1.048-.273 1.463-.182.415-.439.735-.77.959-.331.224-.721.336-1.169.336zM383.85 397.936l.644-.644c-.616-.57-1.106-1.162-1.47-1.778-.364-.616-.625-1.27-.784-1.96-.159-.69-.238-1.423-.238-2.198 0-.784.08-1.519.238-2.205.159-.686.42-1.34.784-1.96.364-.62.854-1.211 1.47-1.771l-.644-.644c-.99.85-1.736 1.83-2.24 2.94-.504 1.11-.756 2.324-.756 3.64 0 1.316.252 2.527.756 3.633.504 1.106 1.25 2.088 2.24 2.947zm6.23-2.646l3.5-9.24h-1.204l-2.352 6.398-.588 1.82-.588-1.834-2.352-6.384h-1.204l3.514 9.24h1.274zm8.092.14c.663 0 1.248-.145 1.757-.434.509-.29.908-.707 1.197-1.253.29-.546.434-1.197.434-1.953s-.145-1.407-.434-1.953c-.29-.546-.688-.964-1.197-1.253-.509-.29-1.094-.434-1.757-.434-.653 0-1.237.145-1.75.434-.513.29-.915.707-1.204 1.253-.29.546-.434 1.197-.434 1.953s.145 1.407.434 1.953c.29.546.69.964 1.204 1.253.513.29 1.097.434 1.75.434zm0-.966c-.476 0-.882-.107-1.218-.322-.336-.215-.595-.523-.777-.924-.182-.401-.273-.877-.273-1.428 0-.56.091-1.038.273-1.435.182-.397.441-.702.777-.917.336-.215.742-.322 1.218-.322s.882.107 1.218.322c.336.215.595.52.777.917.182.397.273.875.273 1.435 0 .55-.091 1.027-.273 1.428-.182.401-.441.71-.777.924-.336.215-.742.322-1.218.322zm7.126.966c.187 0 .369-.016.546-.049.177-.033.34-.082.49-.147l.182-.98c-.205.075-.369.126-.49.154-.121.028-.275.042-.462.042-.29 0-.5-.068-.63-.203s-.196-.38-.196-.735v-8.442h-1.12v8.484c0 .635.138 1.106.413 1.414.275.308.698.462 1.267.462zm4.522 0c.327 0 .658-.054.994-.161.336-.107.64-.275.91-.504.09-.076.172-.16.244-.251l.092-.128.024.101c.014.05.031.1.05.146l.066.132c.121.21.29.366.504.469.215.103.457.154.728.154.299 0 .541-.047.728-.14l.056-.882c-.168.047-.34.07-.518.07-.355 0-.532-.168-.532-.504v-3.388c0-.55-.119-1.001-.357-1.351-.238-.35-.562-.611-.973-.784-.41-.173-.868-.259-1.372-.259-.747 0-1.372.161-1.876.483-.504.322-.85.744-1.036 1.267l.91.56c.159-.467.406-.805.742-1.015.336-.21.747-.315 1.232-.315.513 0 .91.142 1.19.427.28.285.42.688.42 1.211v.268l-2.548.502c-.547.106-.989.296-1.325.57l-.138.123c-.35.34-.525.772-.525 1.295 0 .42.105.772.315 1.057.21.285.492.497.847.637s.737.21 1.148.21zm.154-.98c-.42 0-.744-.091-.973-.273-.229-.182-.343-.418-.343-.707 0-.299.112-.532.336-.7.224-.168.565-.299 1.022-.392l2.03-.416v.738c0 .239-.036.452-.108.64l-.06.137c-.112.22-.266.401-.462.546-.196.145-.418.252-.665.322-.247.07-.506.105-.777.105zm8.456.98c.383 0 .721-.056 1.015-.168.294-.112.548-.266.763-.462l-.392-.938c-.159.159-.336.285-.532.378-.196.093-.43.14-.7.14-.308 0-.56-.084-.756-.252-.196-.168-.294-.425-.294-.77v-4.101l2.548-.001v-.966h-2.548v-1.988l-1.12.308v1.68h-1.4v.966l1.4.001v4.297c.008.384.08.705.214.962l.073.123c.182.275.427.476.735.602s.64.189.994.189zm3.878-8.484c.252 0 .455-.077.609-.231.154-.154.231-.357.231-.609s-.077-.455-.231-.609c-.154-.154-.357-.231-.609-.231s-.455.077-.609.231c-.154.154-.231.357-.231.609s.077.455.231.609c.154.154.357.231.609.231zm.56 8.344v-7h-1.12v7h1.12zm4.228.14c.187 0 .369-.016.546-.049.177-.033.34-.082.49-.147l.182-.98c-.205.075-.369.126-.49.154-.121.028-.275.042-.462.042-.29 0-.5-.068-.63-.203s-.196-.38-.196-.735v-8.442h-1.12v8.484c0 .635.138 1.106.413 1.414.275.308.698.462 1.267.462zm5.586 0c.457 0 .87-.063 1.239-.189.369-.126.69-.306.966-.539.275-.233.502-.509.679-.826l-.882-.518c-.196.336-.455.602-.777.798-.322.196-.74.294-1.253.294-.476 0-.884-.105-1.225-.315-.34-.21-.604-.516-.791-.917-.133-.287-.219-.611-.257-.974l-.011-.132h5.28c.012-.068.023-.143.031-.224l.011-.126c.01-.13.014-.275.014-.434 0-.597-.121-1.136-.364-1.617-.243-.48-.595-.861-1.057-1.141-.462-.28-1.02-.42-1.673-.42-.644 0-1.218.145-1.722.434-.504.29-.9.707-1.19 1.253-.29.546-.434 1.197-.434 1.953s.145 1.407.434 1.953c.29.546.693.964 1.211 1.253.518.29 1.108.434 1.771.434zm1.9-4.312h-4.174c.034-.212.084-.408.15-.588l.073-.175c.182-.397.439-.7.77-.91.331-.21.726-.315 1.183-.315.597 0 1.08.182 1.449.546.369.364.553.882.553 1.554l-.004-.112zm9.3 4.172v-5.81l-.126-2.436h.014l3.038 8.246h.952l3.038-8.246h.014l-.126 2.436v5.81h1.064v-9.24h-1.722l-2.016 5.628-.714 2.296h-.028l-.7-2.31-2.03-5.614h-1.722v9.24h1.064zm12.544.14c.327 0 .658-.054.994-.161.336-.107.64-.275.91-.504.09-.076.172-.16.244-.251l.092-.128.024.101c.014.05.031.1.05.146l.066.132c.121.21.29.366.504.469.215.103.457.154.728.154.299 0 .541-.047.728-.14l.056-.882c-.168.047-.34.07-.518.07-.355 0-.532-.168-.532-.504v-3.388c0-.55-.119-1.001-.357-1.351-.238-.35-.562-.611-.973-.784-.41-.173-.868-.259-1.372-.259-.747 0-1.372.161-1.876.483-.504.322-.85.744-1.036 1.267l.91.56c.159-.467.406-.805.742-1.015.336-.21.747-.315 1.232-.315.513 0 .91.142 1.19.427.28.285.42.688.42 1.211v.268l-2.548.502c-.547.106-.989.296-1.325.57l-.138.123c-.35.34-.525.772-.525 1.295 0 .42.105.772.315 1.057.21.285.492.497.847.637s.737.21 1.148.21zm.154-.98c-.42 0-.744-.091-.973-.273-.229-.182-.343-.418-.343-.707 0-.299.112-.532.336-.7.224-.168.565-.299 1.022-.392l2.03-.416v.738c0 .239-.036.452-.108.64l-.06.137c-.112.22-.266.401-.462.546-.196.145-.418.252-.665.322-.247.07-.506.105-.777.105zm7.028.84v-3.78c0-.523.098-.954.294-1.295.196-.34.441-.595.735-.763.294-.168.586-.252.875-.252.224 0 .397.01.518.028.121.019.233.047.336.084l.196-1.022c-.103-.056-.226-.093-.371-.112-.145-.019-.278-.028-.399-.028-.541 0-1.001.107-1.379.322-.378.215-.665.537-.861.966l-.154-1.148h-.91v7h1.12zm5.712 0v-1.974l1.48-1.48 2.356 3.454h1.358l-2.901-4.267 2.733-2.733h-1.414l-3.612 3.624v-6.844h-1.12v10.22h1.12zm9.744.14c.457 0 .87-.063 1.239-.189.369-.126.69-.306.966-.539.275-.233.502-.509.679-.826l-.882-.518c-.196.336-.455.602-.777.798-.322.196-.74.294-1.253.294-.476 0-.884-.105-1.225-.315-.34-.21-.604-.516-.791-.917-.133-.287-.219-.611-.257-.974l-.011-.132h5.28c.012-.068.023-.143.031-.224l.011-.126c.01-.13.014-.275.014-.434 0-.597-.121-1.136-.364-1.617-.243-.48-.595-.861-1.057-1.141-.462-.28-1.02-.42-1.673-.42-.644 0-1.218.145-1.722.434-.504.29-.9.707-1.19 1.253-.29.546-.434 1.197-.434 1.953s.145 1.407.434 1.953c.29.546.693.964 1.211 1.253.518.29 1.108.434 1.771.434zm1.9-4.312h-4.174c.034-.212.084-.408.15-.588l.073-.175c.182-.397.439-.7.77-.91.331-.21.726-.315 1.183-.315.597 0 1.08.182 1.449.546.369.364.553.882.553 1.554l-.004-.112zm5.8 4.312c.383 0 .721-.056 1.015-.168.294-.112.548-.266.763-.462l-.392-.938c-.159.159-.336.285-.532.378-.196.093-.43.14-.7.14-.308 0-.56-.084-.756-.252-.196-.168-.294-.425-.294-.77v-4.101l2.548-.001v-.966h-2.548v-1.988l-1.12.308v1.68h-1.4v.966l1.4.001v4.297c.008.384.08.705.214.962l.073.123c.182.275.427.476.735.602s.64.189.994.189zm3.066 2.506c.99-.85 1.736-1.83 2.24-2.94.504-1.11.756-2.324.756-3.64 0-1.316-.252-2.527-.756-3.633-.504-1.106-1.25-2.088-2.24-2.947l-.644.644c.616.57 1.106 1.162 1.47 1.778.364.616.625 1.27.784 1.96.159.69.238 1.423.238 2.198 0 .784-.08 1.519-.238 2.205-.159.686-.42 1.34-.784 1.96-.364.62-.854 1.211-1.47 1.771l.644.644zM31.924 375.29v-1.05h-5.292v-8.19h-1.12v9.24h6.412zm4.648.14c.663 0 1.248-.145 1.757-.434.509-.29.908-.707 1.197-1.253.29-.546.434-1.197.434-1.953s-.145-1.407-.434-1.953c-.29-.546-.688-.964-1.197-1.253-.509-.29-1.094-.434-1.757-.434-.653 0-1.237.145-1.75.434-.513.29-.915.707-1.204 1.253-.29.546-.434 1.197-.434 1.953s.145 1.407.434 1.953c.29.546.69.964 1.204 1.253.513.29 1.097.434 1.75.434zm0-.966c-.476 0-.882-.107-1.218-.322-.336-.215-.595-.523-.777-.924-.182-.401-.273-.877-.273-1.428 0-.56.091-1.038.273-1.435.182-.397.441-.702.777-.917.336-.215.742-.322 1.218-.322s.882.107 1.218.322c.336.215.595.52.777.917.182.397.273.875.273 1.435 0 .55-.091 1.027-.273 1.428-.182.401-.441.71-.777.924-.336.215-.742.322-1.218.322zm8.134.826l1.862-5.572 1.974 5.572h1.12l2.436-7h-1.246l-1.764 5.698-1.904-5.698h-1.12l-1.904 5.698-1.764-5.698H41.15l2.436 7h1.12zm17.724 0l3.5-9.24h-1.204l-2.352 6.398-.588 1.82-.588-1.834-2.352-6.384h-1.204l3.514 9.24h1.274zm8.092.14c.663 0 1.248-.145 1.757-.434.509-.29.908-.707 1.197-1.253.29-.546.434-1.197.434-1.953s-.145-1.407-.434-1.953c-.29-.546-.688-.964-1.197-1.253-.509-.29-1.094-.434-1.757-.434-.653 0-1.237.145-1.75.434-.513.29-.915.707-1.204 1.253-.29.546-.434 1.197-.434 1.953s.145 1.407.434 1.953c.29.546.69.964 1.204 1.253.513.29 1.097.434 1.75.434zm0-.966c-.476 0-.882-.107-1.218-.322-.336-.215-.595-.523-.777-.924-.182-.401-.273-.877-.273-1.428 0-.56.091-1.038.273-1.435.182-.397.441-.702.777-.917.336-.215.742-.322 1.218-.322s.882.107 1.218.322c.336.215.595.52.777.917.182.397.273.875.273 1.435 0 .55-.091 1.027-.273 1.428-.182.401-.441.71-.777.924-.336.215-.742.322-1.218.322zm7.126.966c.187 0 .369-.016.546-.049.177-.033.34-.082.49-.147l.182-.98c-.205.075-.369.126-.49.154-.121.028-.275.042-.462.042-.29 0-.5-.068-.63-.203s-.196-.38-.196-.735v-8.442h-1.12v8.484c0 .635.138 1.106.413 1.414.275.308.698.462 1.267.462zm5.194 0c.56 0 1.048-.096 1.463-.287.415-.191.744-.497.987-.917l.07 1.064h.98v-7h-1.12v3.808c0 .41-.058.765-.175 1.064-.117.299-.275.544-.476.735-.2.191-.427.331-.679.42-.252.089-.509.133-.77.133-.56 0-.994-.133-1.302-.399-.308-.266-.462-.754-.462-1.463v-4.298h-1.12v4.592c0 .607.124 1.099.371 1.477.247.378.57.651.966.819.397.168.819.252 1.267.252zm7.224-.14v-3.738c0-.579.107-1.045.322-1.4.215-.355.483-.614.805-.777.322-.163.637-.245.945-.245.467 0 .859.14 1.176.42.317.28.476.737.476 1.372v4.368h1.12v-3.836c0-.504.096-.929.287-1.274.191-.345.446-.607.763-.784.317-.177.658-.266 1.022-.266.467 0 .859.14 1.176.42.317.28.476.737.476 1.372v4.368h1.12v-4.48c0-.616-.13-1.12-.392-1.512-.261-.392-.595-.681-1.001-.868-.406-.187-.833-.28-1.281-.28-.29 0-.595.049-.917.147-.322.098-.618.247-.889.448-.27.2-.48.46-.63.777-.233-.467-.57-.812-1.008-1.036-.439-.224-.905-.336-1.4-.336-.43 0-.847.098-1.253.294-.406.196-.735.509-.987.938l-.07-1.092h-.98v7h1.12zm15.148.14c.457 0 .87-.063 1.239-.189.369-.126.69-.306.966-.539.275-.233.502-.509.679-.826l-.882-.518c-.196.336-.455.602-.777.798-.322.196-.74.294-1.253.294-.476 0-.884-.105-1.225-.315-.34-.21-.604-.516-.791-.917-.133-.287-.219-.611-.257-.974l-.011-.132h5.28c.012-.068.023-.143.031-.224l.011-.126c.01-.13.014-.275.014-.434 0-.597-.121-1.136-.364-1.617-.243-.48-.595-.861-1.057-1.141-.462-.28-1.02-.42-1.673-.42-.644 0-1.218.145-1.722.434-.504.29-.9.707-1.19 1.253-.29.546-.434 1.197-.434 1.953s.145 1.407.434 1.953c.29.546.693.964 1.211 1.253.518.29 1.108.434 1.771.434zm1.9-4.312h-4.174c.034-.212.084-.408.15-.588l.073-.175c.182-.397.439-.7.77-.91.331-.21.726-.315 1.183-.315.597 0 1.08.182 1.449.546.369.364.553.882.553 1.554l-.004-.112zm11.512 4.172v-8.19h3.22v-1.05h-7.56v1.05h3.22v8.19h1.12zm6.09 0v-3.78c0-.523.098-.954.294-1.295.196-.34.441-.595.735-.763.294-.168.586-.252.875-.252.224 0 .397.01.518.028.121.019.233.047.336.084l.196-1.022c-.103-.056-.226-.093-.371-.112-.145-.019-.278-.028-.399-.028-.541 0-1.001.107-1.379.322-.378.215-.665.537-.861.966l-.154-1.148h-.91v7h1.12zm7.518.14c.457 0 .87-.063 1.239-.189.369-.126.69-.306.966-.539.275-.233.502-.509.679-.826l-.882-.518c-.196.336-.455.602-.777.798-.322.196-.74.294-1.253.294-.476 0-.884-.105-1.225-.315-.34-.21-.604-.516-.791-.917-.133-.287-.219-.611-.257-.974l-.011-.132h5.28c.012-.068.023-.143.031-.224l.011-.126c.01-.13.014-.275.014-.434 0-.597-.121-1.136-.364-1.617-.243-.48-.595-.861-1.057-1.141-.462-.28-1.02-.42-1.673-.42-.644 0-1.218.145-1.722.434-.504.29-.9.707-1.19 1.253-.29.546-.434 1.197-.434 1.953s.145 1.407.434 1.953c.29.546.693.964 1.211 1.253.518.29 1.108.434 1.771.434zm1.9-4.312h-4.174c.034-.212.084-.408.15-.588l.073-.175c.182-.397.439-.7.77-.91.331-.21.726-.315 1.183-.315.597 0 1.08.182 1.449.546.369.364.553.882.553 1.554l-.004-.112zm4.372 4.172v-3.724c0-.597.11-1.073.329-1.428.22-.355.497-.611.833-.77.336-.159.672-.238 1.008-.238.485 0 .894.152 1.225.455.331.303.497.842.497 1.617v4.088h1.12v-4.48c0-.607-.124-1.106-.371-1.498-.247-.392-.576-.684-.987-.875-.41-.191-.868-.287-1.372-.287-.355 0-.698.051-1.029.154-.331.103-.623.268-.875.497-.168.152-.313.337-.436.554l-.014.026-.068-1.091h-.98v7h1.12zm10.276.14c.401 0 .782-.075 1.141-.224.36-.15.663-.366.91-.651.124-.142.225-.3.303-.474l.035-.09.075 1.299h.98v-10.22h-1.12v4.351l-.078-.148c-.123-.21-.282-.397-.476-.558l-.153-.117c-.425-.299-.926-.448-1.505-.448-.579 0-1.12.142-1.624.427-.504.285-.91.698-1.218 1.239-.308.541-.462 1.2-.462 1.974 0 .756.145 1.407.434 1.953.29.546.677.964 1.162 1.253.485.29 1.017.434 1.596.434zm.112-.98c-.69 0-1.227-.243-1.61-.728s-.574-1.13-.574-1.932c0-.803.196-1.447.588-1.932.392-.485.943-.728 1.652-.728.43 0 .805.103 1.127.308.322.205.574.5.756.882.182.383.273.84.273 1.372 0 .56-.091 1.048-.273 1.463-.182.415-.439.735-.77.959-.331.224-.721.336-1.169.336zM27.85 401.936l.644-.644c-.616-.57-1.106-1.162-1.47-1.778-.364-.616-.625-1.27-.784-1.96-.159-.69-.238-1.423-.238-2.198 0-.784.08-1.519.238-2.205.159-.686.42-1.34.784-1.96.364-.62.854-1.211 1.47-1.771l-.644-.644c-.99.85-1.736 1.83-2.24 2.94-.504 1.11-.756 2.324-.756 3.64 0 1.316.252 2.527.756 3.633.504 1.106 1.25 2.088 2.24 2.947zm5.628-2.506c.719 0 1.344-.112 1.876-.336.532-.224.945-.539 1.239-.945.294-.406.441-.87.441-1.393 0-.588-.175-1.08-.525-1.477-.35-.397-.968-.693-1.855-.889l-2.002-.448c-.616-.14-1.027-.334-1.232-.581-.205-.247-.308-.534-.308-.861 0-.29.075-.548.224-.777.15-.229.385-.413.707-.553.322-.14.73-.21 1.225-.21.616 0 1.141.124 1.575.371.434.247.824.67 1.169 1.267l.938-.728c-.392-.644-.882-1.132-1.47-1.463-.588-.331-1.288-.497-2.1-.497-.71 0-1.323.126-1.841.378s-.915.586-1.19 1.001c-.275.415-.413.87-.413 1.365 0 .364.077.702.231 1.015.154.313.406.583.756.812.35.229.81.408 1.379.539l2.17.49c.541.121.91.301 1.106.539.196.238.294.506.294.805 0 .327-.093.604-.28.833-.187.229-.455.401-.805.518-.35.117-.763.175-1.239.175-.513 0-.968-.075-1.365-.224-.397-.15-.735-.36-1.015-.63-.28-.27-.509-.583-.686-.938l-.98.798c.233.383.532.728.896 1.036.364.308.8.553 1.309.735.509.182 1.099.273 1.771.273zm8.246 0c.383 0 .721-.056 1.015-.168.294-.112.548-.266.763-.462l-.392-.938c-.159.159-.336.285-.532.378-.196.093-.43.14-.7.14-.308 0-.56-.084-.756-.252-.196-.168-.294-.425-.294-.77v-4.101l2.548-.001v-.966h-2.548v-1.988l-1.12.308v1.68h-1.4v.966l1.4.001v4.297c.008.384.08.705.214.962l.073.123c.182.275.427.476.735.602s.64.189.994.189zm5.18 0c.327 0 .658-.054.994-.161.336-.107.64-.275.91-.504.09-.076.172-.16.244-.251l.092-.128.024.101c.014.05.031.1.05.146l.066.132c.121.21.29.366.504.469.215.103.457.154.728.154.299 0 .541-.047.728-.14l.056-.882c-.168.047-.34.07-.518.07-.355 0-.532-.168-.532-.504v-3.388c0-.55-.119-1.001-.357-1.351-.238-.35-.562-.611-.973-.784-.41-.173-.868-.259-1.372-.259-.747 0-1.372.161-1.876.483-.504.322-.85.744-1.036 1.267l.91.56c.159-.467.406-.805.742-1.015.336-.21.747-.315 1.232-.315.513 0 .91.142 1.19.427.28.285.42.688.42 1.211v.268l-2.548.502c-.547.106-.989.296-1.325.57l-.138.123c-.35.34-.525.772-.525 1.295 0 .42.105.772.315 1.057.21.285.492.497.847.637s.737.21 1.148.21zm.154-.98c-.42 0-.744-.091-.973-.273-.229-.182-.343-.418-.343-.707 0-.299.112-.532.336-.7.224-.168.565-.299 1.022-.392l2.03-.416v.738c0 .239-.036.452-.108.64l-.06.137c-.112.22-.266.401-.462.546-.196.145-.418.252-.665.322-.247.07-.506.105-.777.105zm9.338.98c.579 0 1.11-.145 1.596-.434.485-.29.875-.707 1.169-1.253.294-.546.441-1.197.441-1.953 0-.765-.145-1.419-.434-1.96-.29-.541-.677-.957-1.162-1.246-.485-.29-1.017-.434-1.596-.434-.57 0-1.076.142-1.519.427-.317.203-.568.446-.754.728l-.051.085v-4.32h-1.12v10.22h.98l.071-1.236.048.09c.068.116.145.227.233.333l.138.155c.243.252.532.448.868.588.336.14.7.21 1.092.21zm-.112-.98c-.439 0-.824-.107-1.155-.322-.331-.215-.588-.52-.77-.917-.182-.397-.273-.861-.273-1.393 0-.541.093-1.013.28-1.414.187-.401.446-.714.777-.938.331-.224.716-.336 1.155-.336.69 0 1.227.243 1.61.728s.574 1.13.574 1.932c0 .803-.194 1.447-.581 1.932-.387.485-.926.728-1.617.728zm7.084.98c.187 0 .369-.016.546-.049.177-.033.34-.082.49-.147l.182-.98c-.205.075-.369.126-.49.154-.121.028-.275.042-.462.042-.29 0-.5-.068-.63-.203s-.196-.38-.196-.735v-8.442h-1.12v8.484c0 .635.138 1.106.413 1.414.275.308.698.462 1.267.462zm5.586 0c.457 0 .87-.063 1.239-.189.369-.126.69-.306.966-.539.275-.233.502-.509.679-.826l-.882-.518c-.196.336-.455.602-.777.798-.322.196-.74.294-1.253.294-.476 0-.884-.105-1.225-.315-.34-.21-.604-.516-.791-.917-.133-.287-.219-.611-.257-.974l-.011-.132h5.28c.012-.068.023-.143.031-.224l.011-.126c.01-.13.014-.275.014-.434 0-.597-.121-1.136-.364-1.617-.243-.48-.595-.861-1.057-1.141-.462-.28-1.02-.42-1.673-.42-.644 0-1.218.145-1.722.434-.504.29-.9.707-1.19 1.253-.29.546-.434 1.197-.434 1.953s.145 1.407.434 1.953c.29.546.693.964 1.211 1.253.518.29 1.108.434 1.771.434zm1.9-4.312H66.68c.034-.212.084-.408.15-.588l.073-.175c.182-.397.439-.7.77-.91.331-.21.726-.315 1.183-.315.597 0 1.08.182 1.449.546.369.364.553.882.553 1.554l-.004-.112zm9.3 4.172v-5.81l-.126-2.436h.014l3.038 8.246h.952l3.038-8.246h.014l-.126 2.436v5.81h1.064v-9.24H86.3l-2.016 5.628-.714 2.296h-.028l-.7-2.31-2.03-5.614H79.09v9.24h1.064zm12.544.14c.327 0 .658-.054.994-.161.336-.107.64-.275.91-.504.09-.076.172-.16.244-.251l.092-.128.024.101c.014.05.031.1.05.146l.066.132c.121.21.29.366.504.469.215.103.457.154.728.154.299 0 .541-.047.728-.14l.056-.882c-.168.047-.34.07-.518.07-.355 0-.532-.168-.532-.504v-3.388c0-.55-.119-1.001-.357-1.351-.238-.35-.562-.611-.973-.784-.41-.173-.868-.259-1.372-.259-.747 0-1.372.161-1.876.483-.504.322-.85.744-1.036 1.267l.91.56c.159-.467.406-.805.742-1.015.336-.21.747-.315 1.232-.315.513 0 .91.142 1.19.427.28.285.42.688.42 1.211v.268l-2.548.502c-.547.106-.989.296-1.325.57l-.138.123c-.35.34-.525.772-.525 1.295 0 .42.105.772.315 1.057.21.285.492.497.847.637s.737.21 1.148.21zm.154-.98c-.42 0-.744-.091-.973-.273-.229-.182-.343-.418-.343-.707 0-.299.112-.532.336-.7.224-.168.565-.299 1.022-.392l2.03-.416v.738c0 .239-.036.452-.108.64l-.06.137c-.112.22-.266.401-.462.546-.196.145-.418.252-.665.322-.247.07-.506.105-.777.105zm7.028.84v-3.78c0-.523.098-.954.294-1.295.196-.34.441-.595.735-.763.294-.168.586-.252.875-.252.224 0 .397.01.518.028.121.019.233.047.336.084l.196-1.022c-.103-.056-.226-.093-.371-.112-.145-.019-.278-.028-.399-.028-.541 0-1.001.107-1.379.322-.378.215-.665.537-.861.966l-.154-1.148h-.91v7h1.12zm5.712 0v-1.974l1.48-1.48 2.356 3.454h1.358l-2.901-4.267 2.733-2.733h-1.414l-3.612 3.624v-6.844h-1.12v10.22h1.12zm9.744.14c.457 0 .87-.063 1.239-.189.369-.126.69-.306.966-.539.275-.233.502-.509.679-.826l-.882-.518c-.196.336-.455.602-.777.798-.322.196-.74.294-1.253.294-.476 0-.884-.105-1.225-.315-.34-.21-.604-.516-.791-.917-.133-.287-.219-.611-.257-.974l-.011-.132h5.28c.012-.068.023-.143.031-.224l.011-.126c.01-.13.014-.275.014-.434 0-.597-.121-1.136-.364-1.617-.243-.48-.595-.861-1.057-1.141-.462-.28-1.02-.42-1.673-.42-.644 0-1.218.145-1.722.434-.504.29-.9.707-1.19 1.253-.29.546-.434 1.197-.434 1.953s.145 1.407.434 1.953c.29.546.693.964 1.211 1.253.518.29 1.108.434 1.771.434zm1.9-4.312h-4.174c.034-.212.084-.408.15-.588l.073-.175c.182-.397.439-.7.77-.91.331-.21.726-.315 1.183-.315.597 0 1.08.182 1.449.546.369.364.553.882.553 1.554l-.004-.112zm5.8 4.312c.383 0 .721-.056 1.015-.168.294-.112.548-.266.763-.462l-.392-.938c-.159.159-.336.285-.532.378-.196.093-.43.14-.7.14-.308 0-.56-.084-.756-.252-.196-.168-.294-.425-.294-.77v-4.101l2.548-.001v-.966h-2.548v-1.988l-1.12.308v1.68h-1.4v.966l1.4.001v4.297c.008.384.08.705.214.962l.073.123c.182.275.427.476.735.602s.64.189.994.189zm3.066 2.506c.99-.85 1.736-1.83 2.24-2.94.504-1.11.756-2.324.756-3.64 0-1.316-.252-2.527-.756-3.633-.504-1.106-1.25-2.088-2.24-2.947l-.644.644c.616.57 1.106 1.162 1.47 1.778.364.616.625 1.27.784 1.96.159.69.238 1.423.238 2.198 0 .784-.08 1.519-.238 2.205-.159.686-.42 1.34-.784 1.96-.364.62-.854 1.211-1.47 1.771l.644.644z" transform="translate(-319 -1836) translate(320 1525) translate(0 312) translate(21 53.71)"/>
                    </g>
                </g>
            </g>
        </g>
    </g>
</svg>
