<svg width="113" height="24" viewBox="0 0 113 24" fill="none" xmlns="http://www.w3.org/2000/svg">
<path fill-rule="evenodd" clip-rule="evenodd" d="M31.7249 7.55591H30.4991L27.0354 15.635H28.6211L29.3408 13.7864H32.7933L33.5355 15.635H35.1549L31.7249 7.55591ZM31.0727 9.26766L32.2985 12.5541H29.8244L31.0727 9.26766Z" fill="#FC2A38"/>
<path d="M36.6748 7.55591H38.3055L40.4759 13.6609L42.7137 7.55591H44.2434L41.027 15.635H39.8012L36.6748 7.55591Z" fill="#FC2A38"/>
<path fill-rule="evenodd" clip-rule="evenodd" d="M50.5334 7.55591H49.3073L45.8438 15.635H47.4292L48.149 13.7864H51.6017L52.3437 15.635H53.9631L50.5334 7.55591ZM49.881 9.26766L51.1067 12.5541H48.6327L49.881 9.26766Z" fill="#FC2A38"/>
<path d="M57.0973 7.55591H58.5144V14.3341H61.8992V15.635H57.0973V7.55591Z" fill="#FC2A38"/>
<path fill-rule="evenodd" clip-rule="evenodd" d="M68.9792 7.55591H67.7531L64.2896 15.635H65.8754L66.5948 13.7864H70.0475L70.7895 15.635H72.4089L68.9792 7.55591ZM68.3268 9.26766L69.5526 12.5541H67.0785L68.3268 9.26766Z" fill="#FC2A38"/>
<path d="M75.5431 7.55591H77.4212L81.2784 13.5582H81.301V7.55591H82.7177V15.635H80.9187L76.9824 9.43875H76.9602V15.635H75.5431V7.55591Z" fill="#FC2A38"/>
<path d="M92.2082 9.45013C91.9159 9.1306 91.631 8.9176 91.3535 8.81111C91.0838 8.70461 90.8099 8.65134 90.5327 8.65134C90.1204 8.65134 89.7455 8.72743 89.408 8.87956C89.0782 9.0241 88.7933 9.22951 88.5533 9.49577C88.3136 9.75444 88.1261 10.0587 87.9909 10.4087C87.8635 10.7586 87.7999 11.1352 87.7999 11.5384C87.7999 11.972 87.8635 12.3714 87.9909 12.7366C88.1261 13.1017 88.3136 13.4174 88.5533 13.6837C88.7933 13.9499 89.0782 14.1591 89.408 14.3113C89.7455 14.4635 90.1204 14.5395 90.5327 14.5395C90.855 14.5395 91.1661 14.4635 91.4661 14.3113C91.7733 14.1515 92.0582 13.9005 92.3208 13.5582L93.4904 14.4026C93.1303 14.9047 92.6919 15.2698 92.1743 15.4981C91.6571 15.7263 91.1061 15.8404 90.5214 15.8404C89.9065 15.8404 89.3405 15.7415 88.8234 15.5437C88.3136 15.3383 87.8712 15.053 87.4963 14.6878C87.1288 14.3151 86.84 13.8701 86.6303 13.3528C86.4203 12.8355 86.3154 12.2611 86.3154 11.6297C86.3154 10.983 86.4203 10.3973 86.6303 9.87233C86.84 9.33984 87.1288 8.88719 87.4963 8.51443C87.8712 8.14166 88.3136 7.85638 88.8234 7.65857C89.3405 7.45317 89.9065 7.35046 90.5214 7.35046C91.0612 7.35046 91.5597 7.44937 92.0172 7.64718C92.4818 7.83736 92.9129 8.16448 93.3104 8.62852L92.2082 9.45013Z" fill="#FC2A38"/>
<path d="M96.6907 7.55591H98.1074V10.7739H101.83V7.55591H103.247V15.635H101.83V12.0747H98.1074V15.635H96.6907V7.55591Z" fill="#FC2A38"/>
<path d="M107.275 7.55591H112.55V8.85678H108.692V10.8423H112.347V12.1432H108.692V14.3341H112.752V15.635H107.275V7.55591Z" fill="#FC2A38"/>
<path fill-rule="evenodd" clip-rule="evenodd" d="M11.4205 23.1768C17.7279 23.1768 22.841 17.9885 22.841 11.5884C22.841 5.18831 17.7279 0 11.4205 0C5.11314 0 0 5.18831 0 11.5884C0 17.9885 5.11314 23.1768 11.4205 23.1768ZM7.9698 16.8386H5.29066C4.65545 16.8386 4.33783 16.8386 4.14761 16.7137C3.94204 16.5789 3.81234 16.3525 3.79861 16.1047C3.78586 15.8753 3.94317 15.5956 4.25779 15.0364L4.25794 15.0362L10.1238 4.60878C10.443 4.04122 10.6027 3.75744 10.8058 3.6518C11.0252 3.53767 11.2854 3.53748 11.505 3.65129C11.7083 3.75661 11.8683 4.04018 12.1884 4.60724L13.5413 7.00402L13.5413 7.00409C13.774 7.4164 13.8904 7.62259 13.9416 7.8401C13.9973 8.07692 13.9974 8.32363 13.9419 8.56045C13.8909 8.77803 13.7747 8.98437 13.5423 9.39693L10.0346 15.6235C9.79878 16.0421 9.68087 16.2514 9.51932 16.4078C9.34348 16.5781 9.13025 16.7036 8.89718 16.774C8.68303 16.8386 8.4453 16.8386 7.9698 16.8386ZM17.5282 16.8386H14.422C13.781 16.8386 13.4605 16.8386 13.2697 16.7127C13.0635 16.5767 12.9342 16.3486 12.9221 16.0996C12.9108 15.8691 13.0721 15.5883 13.3947 15.0267L14.9452 12.3275C15.2637 11.773 15.423 11.4958 15.6246 11.3919C15.8425 11.2797 16.1002 11.2795 16.3183 11.3914C16.5201 11.4949 16.6797 11.7719 16.999 12.3259L16.9991 12.326L18.5547 15.0252C18.8786 15.5871 19.0405 15.8681 19.0294 16.0988C19.0174 16.348 18.8882 16.5763 18.6819 16.7126C18.4911 16.8386 18.1701 16.8386 17.5282 16.8386Z" fill="#FC2A38"/>
</svg>
