<svg xmlns="http://www.w3.org/2000/svg" width="104" height="91" viewBox="0 0 104 91">
    <g fill="none" fill-rule="evenodd">
        <g>
            <g>
                <g stroke-linecap="round" stroke-linejoin="round" stroke-width="4">
                    <path stroke="#1183B7" d="M0 37.3c10.071-.73 28.615 2.306 24.654 17.442C5.169 57.88 2.294 44.112 0 37.3zM54 44.5c-10.071-.73-28.615 2.306-24.654 17.442C48.831 65.08 51.706 51.312 54 44.5z" transform="translate(-608 -3157) translate(610 3159)"/>
                    <path stroke="#1183B7" d="M48 7.32c-11.99-.877-34.066 2.767-29.35 20.93C41.846 32.015 45.27 15.495 48 7.32z" transform="translate(-608 -3157) translate(610 3159) rotate(-35 33 18)"/>
                    <path stroke="#1183B7" d="M27 35.88L27 81" transform="translate(-608 -3157) translate(610 3159)"/>
                    <path stroke="#105D81" d="M10.391 85.2c11.522-4.402 22.605-4.37 33.25.096" transform="translate(-608 -3157) translate(610 3159)"/>
                </g>
                <g>
                    <g>
                        <path d="M0 0L69.12 0 69.12 69.12 0 69.12z" transform="translate(-608 -3157) translate(610 3159) translate(45 26)"/>
                        <path stroke="#08A1E7" stroke-linecap="round" stroke-linejoin="round" stroke-width="4" d="M17.28 37.44L17.28 25.92 40.32 25.92 40.32 37.44M40.32 25.92L43.2 25.92 43.2 14.4 20.16 14.4 20.16 25.92M17.28 48.96L17.28 60.48 43.2 60.48M43.2 37.44L14.4 37.44 14.4 48.96 31.68 48.96" transform="translate(-608 -3157) translate(610 3159) translate(45 26)"/>
                        <path stroke="#78D5FF" stroke-linecap="round" stroke-linejoin="round" stroke-width="4" d="M51.346 40.814c4.499 4.5 4.499 11.793 0 16.292-4.5 4.499-11.793 4.499-16.292 0-4.499-4.499-4.499-11.793 0-16.292 4.499-4.499 11.793-4.499 16.292 0" transform="translate(-608 -3157) translate(610 3159) translate(45 26)"/>
                    </g>
                </g>
            </g>
        </g>
    </g>
</svg>
