<svg xmlns="http://www.w3.org/2000/svg" width="89" height="97" viewBox="0 0 89 97">
    <g fill="none" fill-rule="evenodd">
        <g fill-rule="nonzero">
            <g>
                <g transform="translate(-827 -4493) translate(827 4493)">
                    <path fill="#634086" d="M52.755 0c19.584 0 35.46 15.876 35.46 35.46 0 19.583-15.876 35.46-35.46 35.46-6.797 0-13.147-1.913-18.543-5.23l-21.79 22.602c-.388.401-.932.612-1.488.575l-8.48-.558c-.95-.063-1.707-.823-1.764-1.775L.176 78.07c-.032-.529.159-1.047.527-1.428l21.823-22.636c-3.317-5.396-5.23-11.747-5.23-18.545C17.296 15.876 33.172 0 52.756 0z"/>
                    <circle cx="52.755" cy="35.46" r="26.792" fill="#FFF"/>
                </g>
                <g>
                    <path fill="#222C31" d="M23.92 6.879c0-3.73-3.023-6.754-6.753-6.754s-6.755 3.024-6.755 6.754v1.688h13.509V6.88zM32.758 14.083h-4.785c-.808 0-1.462-.655-1.462-1.463s.655-1.462 1.462-1.462h4.785c.808 0 1.462.654 1.462 1.462 0 .808-.655 1.463-1.462 1.463zM32.758 20.408h-4.785c-.808 0-1.462-.655-1.462-1.463s.655-1.462 1.462-1.462h4.785c.808 0 1.462.654 1.462 1.462 0 .808-.655 1.463-1.462 1.463zM6.36 14.083H1.576c-.808 0-1.463-.655-1.463-1.463s.655-1.462 1.463-1.462H6.36c.808 0 1.462.654 1.462 1.462 0 .808-.654 1.463-1.462 1.463zM6.36 20.408H1.576c-.808 0-1.463-.655-1.463-1.463s.655-1.462 1.463-1.462H6.36c.808 0 1.462.654 1.462 1.462 0 .808-.654 1.463-1.462 1.463z" transform="translate(-827 -4493) translate(827 4493) translate(35.589 17.605)"/>
                    <path fill="#E278B1" d="M22.703 34.1l3.787-3.786c.95-.95 1.483-2.239 1.483-3.582V12.62c0-2.238-1.814-4.053-4.052-4.053H10.412c-2.238 0-4.052 1.815-4.052 4.053v14.112c0 1.343.533 2.632 1.483 3.582L11.63 34.1c.95.95 2.239 1.483 3.582 1.483h3.909c1.343 0 2.632-.533 3.582-1.483z" transform="translate(-827 -4493) translate(827 4493) translate(35.589 17.605)"/>
                </g>
                <g fill="#08A1E7">
                    <path d="M31.002 1.315v16.097c0 .739-.418 1.415-1.08 1.745l-8.856 4.419c-.548.274-1.193.274-1.741 0l-8.857-4.42c-.661-.33-1.08-1.005-1.08-1.744V1.315C9.389.32 8.227-.221 7.466.42L2.137 4.908C.804 6.031.035 7.685.035 9.428v12.608c0 2.712 1.394 5.234 3.692 6.675l8.916 5.593v22.43c0 1.077.873 1.95 1.95 1.95h11.206c1.077 0 1.95-.873 1.95-1.95v-22.43l8.915-5.593c2.298-1.441 3.693-3.963 3.693-6.675V9.428c0-1.743-.77-3.397-2.103-4.52L32.926.42c-.76-.641-1.924-.1-1.924.895z" transform="translate(-827 -4493) translate(827 4493) translate(32.56 38.24)"/>
                </g>
            </g>
        </g>
    </g>
</svg>
