<svg xmlns="http://www.w3.org/2000/svg" width="88" height="82" viewBox="0 0 88 82">
    <g fill="none" fill-rule="evenodd" stroke-linecap="round" stroke-linejoin="round">
        <g stroke-width="4">
            <g>
                <g stroke="#1183B7">
                    <path d="M9 24H3c-1.656 0-3-1.344-3-3V3c0-1.656 1.344-3 3-3h6c1.656 0 3 1.344 3 3v18c0 1.656-1.344 3-3 3zM30 12h6.999c1.299 0 2.562-.42 3.6-1.2l7.248-5.436c1.809-1.356 4.341-1.176 5.94.423h0c1.776 1.776 1.776 4.653 0 6.426l-6.219 6.219c-1.674 1.674-3.81 2.817-6.132 3.282l-8.79 1.758c-1.743.348-3.54.306-5.265-.126l-7.95-1.986c-.951-.24-1.926-.36-2.907-.36H12" transform="translate(-318 -3166) translate(320 3168) translate(0 54)"/>
                    <path d="M30 12h4.455C36.966 12 39 9.966 39 7.455v-.909c0-2.085-1.419-3.903-3.441-4.407L28.683.42C27.564.141 26.418 0 25.266 0h0c-2.781 0-5.502.822-7.815 2.367L12 6" transform="translate(-318 -3166) translate(320 3168) translate(0 54)"/>
                </g>
                <g stroke="#105D81">
                    <path d="M9 24H3c-1.656 0-3-1.344-3-3V3c0-1.656 1.344-3 3-3h6c1.656 0 3 1.344 3 3v18c0 1.656-1.344 3-3 3zM30 12h6.999c1.299 0 2.562-.42 3.6-1.2l7.248-5.436c1.809-1.356 4.341-1.176 5.94.423h0c1.776 1.776 1.776 4.653 0 6.426l-6.219 6.219c-1.674 1.674-3.81 2.817-6.132 3.282l-8.79 1.758c-1.743.348-3.54.306-5.265-.126l-7.95-1.986c-.951-.24-1.926-.36-2.907-.36H12" transform="translate(-318 -3166) translate(320 3168) rotate(180 42 12)"/>
                    <path d="M30 12h4.455C36.966 12 39 9.966 39 7.455v-.909c0-2.085-1.419-3.903-3.441-4.407L28.683.42C27.564.141 26.418 0 25.266 0h0c-2.781 0-5.502.822-7.815 2.367L12 6" transform="translate(-318 -3166) translate(320 3168) rotate(180 42 12)"/>
                </g>
                <g>
                    <path stroke="#1183B7" d="M16.893 7.125c-.279-1.695-1.053-3.324-2.361-4.632-3.324-3.324-8.715-3.324-12.039 0s-3.324 8.715 0 12.039c2.07 2.07 4.938 2.847 7.611 2.34" transform="translate(-318 -3166) translate(320 3168) translate(32 28)"/>
                    <path stroke="#78D5FF" d="M24.506 9.466c3.325 3.325 3.325 8.715 0 12.04-3.325 3.325-8.715 3.325-12.04 0-3.325-3.325-3.325-8.715 0-12.04 3.325-3.325 8.715-3.325 12.04 0" transform="translate(-318 -3166) translate(320 3168) translate(32 28)"/>
                </g>
            </g>
        </g>
    </g>
</svg>
