<svg xmlns="http://www.w3.org/2000/svg" width="71" height="92" viewBox="0 0 71 92">
    <defs>
        <linearGradient id="0ss20hdl7a" x1="50%" x2="50%" y1="100%" y2="0%">
            <stop offset="0%" stop-color="#00B59C"/>
            <stop offset="100%" stop-color="#9CFFAC"/>
        </linearGradient>
        <linearGradient id="f77zmq41cb" x1="50%" x2="50%" y1="100%" y2="0%">
            <stop offset="0%" stop-color="#C3FFE8"/>
            <stop offset="99.73%" stop-color="#F0FFF4"/>
        </linearGradient>
    </defs>
    <g fill="none" fill-rule="evenodd">
        <g fill-rule="nonzero">
            <g>
                <path fill="url(#0ss20hdl7a)" d="M67.605 14.666C52.637 14.666 37.125.837 36.97.7c-1.03-.932-2.602-.932-3.633 0-.155.14-15.626 13.967-30.634 13.967C1.211 14.666 0 15.873 0 17.362V49.64c0 26.15 19.513 36.598 34.19 42.183.31.118.637.177.964.177.327 0 .654-.06.965-.177 20.58-7.831 34.19-20.046 34.19-42.183V17.362c0-1.489-1.21-2.696-2.704-2.696z" transform="translate(-1013 -4182) translate(1013 4182)"/>
                <path fill="url(#f77zmq41cb)" d="M35.528 27.675c-10.516 0-19.073 8.388-19.073 18.699 0 10.31 8.557 18.7 19.073 18.7 10.517 0 19.074-8.39 19.074-18.7 0-10.31-8.557-18.7-19.074-18.7zm7.377 17.916l-8.175 8.014c-.532.522-1.229.783-1.926.783-.698 0-1.395-.26-1.927-.783l-2.725-2.67c-1.064-1.044-1.064-2.735 0-3.779 1.064-1.043 2.79-1.043 3.854 0l.798.783 6.248-6.125c1.063-1.044 2.789-1.044 3.853 0 1.064 1.043 1.064 2.734 0 3.777z" transform="translate(-1013 -4182) translate(1013 4182)"/>
            </g>
        </g>
    </g>
</svg>
