<svg width="142" height="42" viewBox="0 0 142 42" fill="none" xmlns="http://www.w3.org/2000/svg">
<path d="M40.0803 23.5189V13.1449H45.1259C46.4043 13.1449 47.3474 13.3859 47.9551 13.8679C48.5629 14.3499 48.8668 15.0415 48.8668 15.9427C48.8668 16.5295 48.6939 17.0377 48.3481 17.4674C48.0023 17.897 47.4731 18.1642 46.7606 18.269V18.2847C47.5569 18.3895 48.149 18.6672 48.5367 19.1178C48.9349 19.5579 49.134 20.0923 49.134 20.7211C49.134 21.6118 48.8144 22.3034 48.1752 22.7959C47.5465 23.2779 46.6086 23.5189 45.3616 23.5189H40.0803ZM42.6895 17.3888H44.6543C45.6184 17.3888 46.1004 17.0115 46.1004 16.2571C46.1004 15.5026 45.6184 15.1254 44.6543 15.1254H42.6895V17.3888ZM42.6895 21.617H44.9058C45.8803 21.617 46.3676 21.2293 46.3676 20.4538C46.3676 19.6994 45.8803 19.3221 44.9058 19.3221H42.6895V21.617Z" fill="#1D7A5F"/>
<path d="M59.8946 13.1449V19.2907C59.8946 22.2143 58.349 23.6761 55.2577 23.6761C53.7383 23.6761 52.5856 23.3146 51.7997 22.5915C51.0138 21.858 50.6209 20.7577 50.6209 19.2907V13.1449H53.3401V19.3378C53.3401 20.8154 53.9793 21.5541 55.2577 21.5541C56.5466 21.5541 57.1911 20.8154 57.1911 19.3378V13.1449H59.8946Z" fill="#1D7A5F"/>
<path d="M66.2756 23.6761C65.3535 23.6761 64.5309 23.4718 63.8079 23.0631C63.0953 22.6544 62.5399 22.0519 62.1417 21.2555C61.7435 20.4591 61.5444 19.4898 61.5444 18.3476C61.5444 17.2368 61.754 16.2833 62.1732 15.4869C62.5923 14.68 63.1896 14.0618 63.9651 13.6321C64.751 13.2025 65.6731 12.9877 66.7315 12.9877C67.9156 12.9877 68.8639 13.2025 69.5765 13.6321C70.2995 14.0513 70.8601 14.7219 71.2583 15.6441L68.7591 16.6343C68.6229 16.0999 68.3819 15.7122 68.0361 15.4712C67.6903 15.2301 67.2607 15.1096 66.7472 15.1096C65.9718 15.1096 65.3692 15.3873 64.9396 15.9427C64.5204 16.4876 64.3109 17.284 64.3109 18.3319C64.3109 19.4426 64.5257 20.2705 64.9553 20.8154C65.3849 21.3498 66.0294 21.617 66.8887 21.617C67.4859 21.617 67.9837 21.4755 68.3819 21.1926C68.7801 20.9097 68.9792 20.4748 68.9792 19.888V19.7308H66.6057V17.9232H71.274V23.5189H69.435L69.325 22.2457C69.0316 22.7068 68.6281 23.0631 68.1147 23.3146C67.6117 23.5556 66.9987 23.6761 66.2756 23.6761Z" fill="#1D7A5F"/>
<path d="M77.841 23.5189V13.1449H82.8865C84.165 13.1449 85.108 13.3859 85.7158 13.8679C86.3236 14.3499 86.6275 15.0415 86.6275 15.9427C86.6275 16.5295 86.4546 17.0377 86.1088 17.4674C85.763 17.897 85.2338 18.1642 84.5212 18.269V18.2847C85.3176 18.3895 85.9097 18.6672 86.2974 19.1178C86.6956 19.5579 86.8947 20.0923 86.8947 20.7211C86.8947 21.6118 86.5751 22.3034 85.9359 22.7959C85.3071 23.2779 84.3693 23.5189 83.1223 23.5189H77.841ZM80.4502 17.3888H82.415C83.379 17.3888 83.8611 17.0115 83.8611 16.2571C83.8611 15.5026 83.379 15.1254 82.415 15.1254H80.4502V17.3888ZM80.4502 21.617H82.6665C83.641 21.617 84.1283 21.2293 84.1283 20.4538C84.1283 19.6994 83.641 19.3221 82.6665 19.3221H80.4502V21.617Z" fill="#1D7A5F"/>
<path d="M93.2385 12.9877C94.2864 12.9877 95.1875 13.2025 95.942 13.6321C96.707 14.0513 97.2938 14.659 97.7025 15.4554C98.1111 16.2518 98.3155 17.2106 98.3155 18.3319C98.3155 19.4531 98.1111 20.4119 97.7025 21.2083C97.2938 22.0047 96.707 22.6177 95.942 23.0474C95.1875 23.4665 94.2864 23.6761 93.2385 23.6761C92.1801 23.6761 91.2685 23.4665 90.5035 23.0474C89.749 22.6177 89.1674 22.0047 88.7588 21.2083C88.3501 20.4119 88.1458 19.4531 88.1458 18.3319C88.1458 17.2106 88.3501 16.2518 88.7588 15.4554C89.1674 14.659 89.749 14.0513 90.5035 13.6321C91.2685 13.2025 92.1801 12.9877 93.2385 12.9877ZM93.2385 15.1096C92.484 15.1096 91.9077 15.3821 91.5095 15.927C91.1113 16.4614 90.9122 17.263 90.9122 18.3319C90.9122 19.4007 91.1113 20.2076 91.5095 20.7525C91.9077 21.2869 92.484 21.5541 93.2385 21.5541C93.9825 21.5541 94.5536 21.2869 94.9518 20.7525C95.35 20.2076 95.5491 19.4007 95.5491 18.3319C95.5491 17.263 95.35 16.4614 94.9518 15.927C94.5536 15.3821 93.9825 15.1096 93.2385 15.1096Z" fill="#1D7A5F"/>
<path d="M109.244 13.1449V19.2907C109.244 22.2143 107.699 23.6761 104.608 23.6761C103.088 23.6761 101.935 23.3146 101.15 22.5915C100.364 21.858 99.9707 20.7577 99.9707 19.2907V13.1449H102.69V19.3378C102.69 20.8154 103.329 21.5541 104.608 21.5541C105.896 21.5541 106.541 20.8154 106.541 19.3378V13.1449H109.244Z" fill="#1D7A5F"/>
<path d="M120.687 13.1449V23.5189H117.685L114.462 17.9075L113.676 16.3671H113.661L113.724 18.2847V23.5189H111.334V13.1449H114.337L117.559 18.7563L118.345 20.2967H118.36L118.298 18.379V13.1449H120.687Z" fill="#1D7A5F"/>
<path d="M131.709 13.1449V15.2354H128.329V23.5189H125.626V15.2354H122.23V13.1449H131.709Z" fill="#1D7A5F"/>
<path d="M142 13.1449L138.338 19.7308V23.5189H135.634V19.7308L131.972 13.1449H134.77L136.231 15.9899L137.002 17.7189L137.787 15.9899L139.249 13.1449H142Z" fill="#1D7A5F"/>
<path d="M18.1976 39.7238H15.2526C14.8403 39.7238 14.4869 39.3701 14.4869 38.9575V35.4207H18.9044V38.9575C18.9633 39.3701 18.6099 39.7238 18.1976 39.7238Z" stroke="#1D7A5F" stroke-width="3" stroke-miterlimit="10"/>
<path d="M16.725 31.4716C24.8574 31.4716 31.45 24.8741 31.45 16.7358C31.45 8.59743 24.8574 2 16.725 2C8.59261 2 2 8.59743 2 16.7358C2 24.8741 8.59261 31.4716 16.725 31.4716Z" stroke="#1D7A5F" stroke-width="3" stroke-miterlimit="10"/>
<path d="M23.5574 21.0966C23.4985 21.0966 23.4396 21.0966 23.3807 21.0966L22.4383 20.8021H21.0836C20.7891 20.8021 20.4946 20.5665 20.4946 20.2131C20.4946 19.9185 20.7302 19.624 21.0836 19.624H22.5561C22.615 19.624 22.6739 19.624 22.7328 19.624L23.7341 19.9185C24.0286 20.0363 24.2053 20.3309 24.0875 20.6254C24.0286 20.9199 23.793 21.0966 23.5574 21.0966Z" fill="#98E5CE"/>
<path d="M23.5574 15.4393C23.4985 15.4393 23.4396 15.4393 23.3807 15.4393L22.4383 15.1444H21.0836C20.7891 15.1444 20.4946 14.9085 20.4946 14.5546C20.4946 14.2008 20.7302 13.9648 21.0836 13.9648H22.5561C22.615 13.9648 22.6739 13.9648 22.7328 13.9648L23.7341 14.2597C24.0286 14.3777 24.2053 14.6726 24.0875 14.9675C24.0286 15.2624 23.793 15.4393 23.5574 15.4393Z" fill="#98E5CE"/>
<path d="M23.5574 18.2673C23.4985 18.2673 23.4396 18.2673 23.3807 18.2673L22.4383 17.9138H21.0836C20.7891 17.9138 20.4946 17.6781 20.4946 17.3246C20.4946 16.971 20.7302 16.7354 21.0836 16.7354H22.5561C22.615 16.7354 22.6739 16.7354 22.7328 16.7354L23.7341 17.03C24.0286 17.1478 24.2053 17.4424 24.0875 17.737C24.0286 18.0906 23.793 18.2673 23.5574 18.2673Z" fill="#98E5CE"/>
<path d="M9.89267 21.0975C9.65707 21.0975 9.42147 20.9207 9.36257 20.685C9.24477 20.3903 9.42147 20.0367 9.71597 19.9778L10.7173 19.6831C10.7762 19.6831 10.8351 19.6831 10.894 19.6831H12.3665C12.661 19.6831 12.9555 19.9188 12.9555 20.2724C12.9555 20.5671 12.7199 20.8618 12.3665 20.8618H11.0118L10.0694 21.1565C10.0105 21.0975 9.95157 21.0975 9.89267 21.0975Z" fill="#98E5CE"/>
<path d="M9.89267 15.4392C9.65707 15.4392 9.42147 15.2623 9.36257 15.0265C9.24477 14.7318 9.42147 14.3781 9.71597 14.3192L10.7173 14.0244C10.7762 14.0244 10.8351 14.0244 10.894 14.0244H12.3665C12.661 14.0244 12.9555 14.2602 12.9555 14.6139C12.9555 14.9676 12.7199 15.2034 12.3665 15.2034H11.0118L10.0694 15.4981C10.0105 15.3802 9.95157 15.4392 9.89267 15.4392Z" fill="#98E5CE"/>
<path d="M9.89267 18.2672C9.65707 18.2672 9.42147 18.0905 9.36257 17.8549C9.24477 17.5604 9.42147 17.2069 9.71597 17.148L10.7173 16.8535C10.7762 16.8535 10.8351 16.8535 10.894 16.8535H12.3665C12.661 16.8535 12.9555 17.0891 12.9555 17.4425C12.9555 17.796 12.7199 18.0316 12.3665 18.0316H11.0118L10.0694 18.3261C10.0105 18.2672 9.95157 18.2672 9.89267 18.2672Z" fill="#98E5CE"/>
<path d="M17.903 10.7244C17.7852 10.7244 17.6085 10.6654 17.4907 10.5475C17.2551 10.3116 17.2551 9.95783 17.4907 9.72195L18.4331 8.77847C18.6687 8.54259 19.0221 8.54259 19.2577 8.77847C19.4933 9.01434 19.4933 9.36815 19.2577 9.60402L18.3153 10.5475C18.1386 10.6654 18.0208 10.7244 17.903 10.7244Z" fill="#98E5CE"/>
<path d="M15.547 10.7236C15.4292 10.7236 15.2525 10.6647 15.1347 10.5467L14.2512 9.66241C14.0156 9.42658 14.0156 9.07285 14.2512 8.83702C14.4868 8.6012 14.8402 8.6012 15.0758 8.83702L16.0182 9.78032C16.2538 10.0161 16.2538 10.3699 16.0182 10.6057C15.8415 10.6647 15.7237 10.7236 15.547 10.7236Z" fill="#98E5CE"/>
<path d="M16.7251 24.5166C14.1924 24.5166 12.1309 22.4535 12.1309 19.9188V14.5548C12.1309 13.2579 13.1322 12.2559 14.428 12.2559H19.0222C20.3179 12.2559 21.3192 13.2579 21.3192 14.5548V19.9188C21.3192 22.4535 19.2578 24.5166 16.7251 24.5166Z" fill="#98E5CE"/>
<path d="M19.022 12.2548V11.9603C19.022 10.6641 18.0207 9.6626 16.7249 9.6626C15.4291 9.6626 14.4278 10.6641 14.4278 11.9603V12.2548H19.022Z" fill="#98E5CE"/>
</svg>
