<svg xmlns="http://www.w3.org/2000/svg" width="70" height="73" viewBox="0 0 70 73">
    <g fill="none" fill-rule="evenodd">
        <g>
            <g>
                <path d="M0 0H86.436V86.436H0z" transform="translate(-908 -3171) translate(900 3164)"/>
                <path stroke="#08A1E7" stroke-linecap="round" stroke-linejoin="round" stroke-width="4" d="M28.812 14.406L23.41 19.808M23.41 9.004L28.812 14.406M21.609 14.406c-5.967 0-10.805 4.837-10.805 10.804M21.609 14.406L28.812 14.406" transform="translate(-908 -3171) translate(900 3164)"/>
                <path stroke="#105D81" stroke-linecap="round" stroke-linejoin="round" stroke-width="4" d="M57.624 72.03L63.026 66.628M63.026 77.432L57.624 72.03M64.827 72.03c5.967 0 10.805-4.837 10.805-10.805M64.827 72.03L57.624 72.03" transform="translate(-908 -3171) translate(900 3164)"/>
                <path stroke="#08A1E7" stroke-linecap="round" stroke-linejoin="round" stroke-width="4" d="M34.214 72.03c10.94 0 19.809-8.868 19.809-19.808s-8.869-19.809-19.809-19.809c-10.94 0-19.808 8.869-19.808 19.809.063 10.913 8.895 19.745 19.808 19.808z" transform="translate(-908 -3171) translate(900 3164)"/>
                <path stroke="#78D5FF" stroke-linecap="round" stroke-linejoin="round" stroke-width="4" d="M39.818 49.423L32.817 56.425 28.61 52.222" transform="translate(-908 -3171) translate(900 3164)"/>
                <path stroke="#105D81" stroke-linecap="round" stroke-linejoin="round" stroke-width="4" d="M66.228 20.208c7.704 7.749 7.704 20.264 0 28.012-.614.594-1.273 1.139-1.97 1.632M66.228 20.208c-7.749-7.704-20.264-7.704-28.012 0-.594.612-1.145 1.265-1.65 1.952" transform="translate(-908 -3171) translate(900 3164)"/>
            </g>
        </g>
    </g>
</svg>
