<svg width="181" height="51" viewBox="0 0 181 51" fill="none" xmlns="http://www.w3.org/2000/svg">
<path d="M50.4536 29.1855V15.9855H56.8736C58.5003 15.9855 59.7003 16.2922 60.4736 16.9055C61.247 17.5189 61.6336 18.3989 61.6336 19.5455C61.6336 20.2922 61.4136 20.9389 60.9736 21.4855C60.5336 22.0322 59.8603 22.3722 58.9536 22.5055V22.5255C59.967 22.6589 60.7203 23.0122 61.2136 23.5855C61.7203 24.1455 61.9736 24.8255 61.9736 25.6255C61.9736 26.7589 61.567 27.6389 60.7536 28.2655C59.9536 28.8789 58.7603 29.1855 57.1736 29.1855H50.4536ZM53.7736 21.3855H56.2736C57.5003 21.3855 58.1136 20.9055 58.1136 19.9455C58.1136 18.9855 57.5003 18.5055 56.2736 18.5055H53.7736V21.3855ZM53.7736 26.7655H56.5936C57.8336 26.7655 58.4536 26.2722 58.4536 25.2855C58.4536 24.3255 57.8336 23.8455 56.5936 23.8455H53.7736V26.7655ZM75.6655 15.9855V23.8055C75.6655 27.5255 73.6988 29.3855 69.7655 29.3855C67.8322 29.3855 66.3655 28.9255 65.3655 28.0055C64.3655 27.0722 63.8655 25.6722 63.8655 23.8055V15.9855H67.3255V23.8655C67.3255 25.7455 68.1388 26.6855 69.7655 26.6855C71.4055 26.6855 72.2255 25.7455 72.2255 23.8655V15.9855H75.6655ZM83.7847 29.3855C82.6114 29.3855 81.5647 29.1255 80.6447 28.6055C79.7381 28.0855 79.0314 27.3189 78.5247 26.3055C78.0181 25.2922 77.7647 24.0589 77.7647 22.6055C77.7647 21.1922 78.0314 19.9789 78.5647 18.9655C79.0981 17.9389 79.8581 17.1522 80.8447 16.6055C81.8447 16.0589 83.0181 15.7855 84.3647 15.7855C85.8714 15.7855 87.0781 16.0589 87.9847 16.6055C88.9047 17.1389 89.6181 17.9922 90.1247 19.1655L86.9447 20.4255C86.7714 19.7455 86.4647 19.2522 86.0247 18.9455C85.5847 18.6389 85.0381 18.4855 84.3847 18.4855C83.3981 18.4855 82.6314 18.8389 82.0847 19.5455C81.5514 20.2389 81.2847 21.2522 81.2847 22.5855C81.2847 23.9989 81.5581 25.0522 82.1047 25.7455C82.6514 26.4255 83.4714 26.7655 84.5647 26.7655C85.3247 26.7655 85.9581 26.5855 86.4647 26.2255C86.9714 25.8655 87.2247 25.3122 87.2247 24.5655V24.3655H84.2047V22.0655H90.1447V29.1855H87.8047L87.6647 27.5655C87.2914 28.1522 86.7781 28.6055 86.1247 28.9255C85.4847 29.2322 84.7047 29.3855 83.7847 29.3855Z" fill="#105D81"/>
<path d="M98.5005 29.1855V15.9855H104.921C106.547 15.9855 107.747 16.2922 108.521 16.9055C109.294 17.5189 109.681 18.3989 109.681 19.5455C109.681 20.2922 109.461 20.9389 109.021 21.4855C108.581 22.0322 107.907 22.3722 107.001 22.5055V22.5255C108.014 22.6589 108.767 23.0122 109.261 23.5855C109.767 24.1455 110.021 24.8255 110.021 25.6255C110.021 26.7589 109.614 27.6389 108.801 28.2655C108.001 28.8789 106.807 29.1855 105.221 29.1855H98.5005ZM101.821 21.3855H104.321C105.547 21.3855 106.161 20.9055 106.161 19.9455C106.161 18.9855 105.547 18.5055 104.321 18.5055H101.821V21.3855ZM101.821 26.7655H104.641C105.881 26.7655 106.501 26.2722 106.501 25.2855C106.501 24.3255 105.881 23.8455 104.641 23.8455H101.821V26.7655ZM118.092 15.7855C119.426 15.7855 120.572 16.0589 121.532 16.6055C122.506 17.1389 123.252 17.9122 123.772 18.9255C124.292 19.9389 124.552 21.1589 124.552 22.5855C124.552 24.0122 124.292 25.2322 123.772 26.2455C123.252 27.2589 122.506 28.0389 121.532 28.5855C120.572 29.1189 119.426 29.3855 118.092 29.3855C116.746 29.3855 115.586 29.1189 114.612 28.5855C113.652 28.0389 112.912 27.2589 112.392 26.2455C111.872 25.2322 111.612 24.0122 111.612 22.5855C111.612 21.1589 111.872 19.9389 112.392 18.9255C112.912 17.9122 113.652 17.1389 114.612 16.6055C115.586 16.0589 116.746 15.7855 118.092 15.7855ZM118.092 18.4855C117.132 18.4855 116.399 18.8322 115.892 19.5255C115.386 20.2055 115.132 21.2255 115.132 22.5855C115.132 23.9455 115.386 24.9722 115.892 25.6655C116.399 26.3455 117.132 26.6855 118.092 26.6855C119.039 26.6855 119.766 26.3455 120.272 25.6655C120.779 24.9722 121.032 23.9455 121.032 22.5855C121.032 21.2255 120.779 20.2055 120.272 19.5255C119.766 18.8322 119.039 18.4855 118.092 18.4855ZM138.458 15.9855V23.8055C138.458 27.5255 136.492 29.3855 132.558 29.3855C130.625 29.3855 129.158 28.9255 128.158 28.0055C127.158 27.0722 126.658 25.6722 126.658 23.8055V15.9855H130.118V23.8655C130.118 25.7455 130.932 26.6855 132.558 26.6855C134.198 26.6855 135.018 25.7455 135.018 23.8655V15.9855H138.458ZM153.018 15.9855V29.1855H149.198L145.098 22.0455L144.098 20.0855H144.078L144.158 22.5255V29.1855H141.118V15.9855H144.938L149.038 23.1255L150.038 25.0855H150.058L149.978 22.6455V15.9855H153.018ZM167.042 15.9855V18.6455H162.742V29.1855H159.302V18.6455H154.982V15.9855H167.042ZM180.137 15.9855L175.477 24.3655V29.1855H172.037V24.3655L167.377 15.9855H170.937L172.797 19.6055L173.777 21.8055L174.777 19.6055L176.637 15.9855H180.137Z" fill="#78D5FF"/>
<path d="M22.6098 49H18.8626C18.338 49 17.8883 48.5593 17.8883 48.0452V43.6387H23.5091V48.0452C23.5841 48.5593 23.1344 49 22.6098 49Z" stroke="#105D81" stroke-width="3" stroke-miterlimit="10"/>
<path d="M20.7362 38.7185C31.0839 38.7185 39.4723 30.4988 39.4723 20.3593C39.4723 10.2197 31.0839 2 20.7362 2C10.3885 2 2 10.2197 2 20.3593C2 30.4988 10.3885 38.7185 20.7362 38.7185Z" stroke="#105D81" stroke-width="3" stroke-miterlimit="10"/>
<path d="M29.4297 25.7937C29.3547 25.7937 29.2798 25.7937 29.2049 25.7937L28.0057 25.4267H26.282C25.9073 25.4267 25.5326 25.1332 25.5326 24.6929C25.5326 24.3259 25.8324 23.959 26.282 23.959H28.1556C28.2306 23.959 28.3055 23.959 28.3805 23.959L29.6545 24.3259C30.0292 24.4727 30.2541 24.8396 30.1042 25.2066C30.0292 25.5735 29.7295 25.7937 29.4297 25.7937Z" fill="#78D5FF"/>
<path d="M29.4297 18.7443C29.3547 18.7443 29.2798 18.7443 29.2049 18.7443L28.0057 18.3769H26.282C25.9073 18.3769 25.5326 18.083 25.5326 17.6421C25.5326 17.2012 25.8324 16.9072 26.282 16.9072H28.1556C28.2306 16.9072 28.3055 16.9072 28.3805 16.9072L29.6545 17.2746C30.0292 17.4216 30.2541 17.789 30.1042 18.1564C30.0292 18.5239 29.7295 18.7443 29.4297 18.7443Z" fill="#78D5FF"/>
<path d="M29.4297 22.2681C29.3547 22.2681 29.2798 22.2681 29.2049 22.2681L28.0057 21.8276H26.282C25.9073 21.8276 25.5326 21.5339 25.5326 21.0935C25.5326 20.653 25.8324 20.3594 26.282 20.3594H28.1556C28.2306 20.3594 28.3055 20.3594 28.3805 20.3594L29.6545 20.7264C30.0292 20.8733 30.2541 21.2403 30.1042 21.6074C30.0292 22.0478 29.7295 22.2681 29.4297 22.2681Z" fill="#78D5FF"/>
<path d="M12.0425 25.7935C11.7427 25.7935 11.4429 25.5732 11.368 25.2795C11.2181 24.9124 11.4429 24.4718 11.8177 24.3984L13.0917 24.0312C13.1667 24.0312 13.2416 24.0312 13.3166 24.0312H15.1902C15.5649 24.0312 15.9396 24.325 15.9396 24.7655C15.9396 25.1326 15.6399 25.4998 15.1902 25.4998H13.4665L12.2673 25.8669C12.1924 25.7935 12.1174 25.7935 12.0425 25.7935Z" fill="#78D5FF"/>
<path d="M12.0425 18.7431C11.7427 18.7431 11.4429 18.5228 11.368 18.229C11.2181 17.8618 11.4429 17.4211 11.8177 17.3477L13.0917 16.9805C13.1667 16.9805 13.2416 16.9805 13.3166 16.9805H15.1902C15.5649 16.9805 15.9396 17.2742 15.9396 17.7149C15.9396 18.1556 15.6399 18.4494 15.1902 18.4494H13.4665L12.2673 18.8166C12.1924 18.6697 12.1174 18.7431 12.0425 18.7431Z" fill="#78D5FF"/>
<path d="M12.0425 22.2672C11.7427 22.2672 11.4429 22.047 11.368 21.7534C11.2181 21.3865 11.4429 20.9462 11.8177 20.8728L13.0917 20.5059C13.1667 20.5059 13.2416 20.5059 13.3166 20.5059H15.1902C15.5649 20.5059 15.9396 20.7994 15.9396 21.2397C15.9396 21.6801 15.6399 21.9736 15.1902 21.9736H13.4665L12.2673 22.3405C12.1924 22.2672 12.1174 22.2672 12.0425 22.2672Z" fill="#78D5FF"/>
<path d="M22.235 12.8704C22.0852 12.8704 21.8603 12.797 21.7104 12.65C21.4107 12.3562 21.4107 11.9154 21.7104 11.6215L22.9095 10.446C23.2093 10.1521 23.659 10.1521 23.9588 10.446C24.2586 10.7399 24.2586 11.1807 23.9588 11.4745L22.7597 12.65C22.5348 12.797 22.3849 12.8704 22.235 12.8704Z" fill="#78D5FF"/>
<path d="M19.2373 12.8687C19.0874 12.8687 18.8625 12.7952 18.7127 12.6483L17.5885 11.5466C17.2887 11.2527 17.2887 10.812 17.5885 10.5182C17.8883 10.2244 18.3379 10.2244 18.6377 10.5182L19.8368 11.6935C20.1366 11.9873 20.1366 12.428 19.8368 12.7218C19.612 12.7952 19.4621 12.8687 19.2373 12.8687Z" fill="#78D5FF"/>
<path d="M20.7362 30.053C17.5136 30.053 14.8905 27.4826 14.8905 24.3246V17.6415C14.8905 16.0258 16.1646 14.7773 17.8133 14.7773H23.659C25.3078 14.7773 26.5818 16.0258 26.5818 17.6415V24.3246C26.5818 27.4826 23.9588 30.053 20.7362 30.053Z" fill="#78D5FF"/>
<path d="M23.659 14.7765V14.4095C23.659 12.7947 22.385 11.5469 20.7362 11.5469C19.0874 11.5469 17.8134 12.7947 17.8134 14.4095V14.7765H23.659Z" fill="#78D5FF"/>
</svg>
