<svg xmlns="http://www.w3.org/2000/svg" width="100" height="54" viewBox="0 0 100 54">
    <g fill="none" fill-rule="evenodd">
        <g fill-rule="nonzero">
            <g>
                <path fill="rgb(25, 29, 52)" d="M55.39 33.377c.957 0 1.76.312 2.382.946.635.635.959 1.426.959 2.384 0 0-.012.61-.144.97h-5.39c.096.598.36 1.077.791 1.413.431.335.958.503 1.593.503.754 0 1.46-.276 2.108-.85l.73 1.053c-.826.779-1.784 1.162-2.886 1.162-1.114 0-2.048-.371-2.779-1.09-.73-.718-1.101-1.617-1.101-2.694 0-1.066.371-1.964 1.09-2.695.718-.73 1.604-1.102 2.646-1.102zm26.694.012c1.054.012 1.952.36 2.682 1.078.755.73 1.138 1.629 1.138 2.683 0 1.066-.36 1.964-1.114 2.694-.754.73-1.652 1.102-2.706 1.102-1.078-.012-1.976-.383-2.707-1.102-.73-.73-1.102-1.616-1.102-2.682 0-1.066.372-1.964 1.102-2.683.73-.719 1.629-1.09 2.707-1.09zM62.49 31.665v1.892h2.144v1.341H62.49V38.3c0 .455.108.779.347.97.228.192.587.276 1.054.276h.024c.228 0 .527-.036.958-.084v1.305c-.49.108-.91.168-1.281.168-.839 0-1.485-.215-1.952-.623-.467-.407-.707-1.042-.707-1.88v-3.533H59.76v-1.341h1.174v-1.892h1.557zm9.605 1.724l2.227 4.827 1.869-4.66h1.64l-3.197 7.378h-.54l-2.263-4.802-2.263 4.802h-.527l-3.21-7.377h1.641l1.904 4.718 2.192-4.886h.527zm-24.563 0c.838 0 1.52.288 2 .815.479.527.718 1.221.718 2.083v4.527h-1.544v-4.311c0-.503-.144-.91-.444-1.222-.299-.299-.682-.467-1.15-.467-.49 0-.885.156-1.197.467-.311.312-.455.707-.455 1.198v4.335h-1.545v-7.257h1.437v.718c.551-.586 1.27-.886 2.168-.886zm43.33.096c.215 0 .406.024.574.072v1.365h-.467c-.599 0-1.102.18-1.497.527-.395.36-.599.838-.599 1.473v3.88H87.33v-7.257h1.437v.946c.515-.67 1.222-1.006 2.096-1.006zm3.556-3.748v11.065h-1.545V29.737h1.545zm4.779 3.82l-2.91 3.174 3.185 4.071h-1.856l-3.15-4.083 2.826-3.162h1.905zm-17.126 1.245h-.012c-.647.024-1.174.24-1.605.683-.431.443-.635.994-.635 1.677 0 .658.204 1.221.635 1.664.431.443.958.659 1.605.659.635 0 1.162-.216 1.593-.659.419-.443.646-1.006.646-1.676 0-.671-.203-1.234-.634-1.677-.431-.431-.958-.659-1.593-.67zm-26.755-.107c-.515.012-.946.167-1.329.49-.383.324-.635.755-.754 1.294h3.928c-.012-.539-.192-.97-.54-1.293-.359-.324-.79-.491-1.305-.491zm3.354-18.527l-3.521 8.048c-.312.694-.683 1.197-1.102 1.52-.42.324-.934.492-1.557.492-.407 0-.802-.036-1.198-.144v-1.306c.456.048.731.06.85.06.36 0 .671-.072.923-.215.24-.144.467-.431.659-.85l.299-.683-2.886-6.898h1.664l2.072 5.27 2.132-5.27 1.665-.024zm13.808-.132c.958 0 1.749.311 2.383.946.635.635.958 1.425.958 2.383 0 0 0 .587-.143.97h-5.39c.096.6.36 1.078.79 1.414.432.335.959.502 1.594.502.754 0 1.46-.275 2.107-.85l.731 1.054c-.826.779-1.784 1.162-2.886 1.162-1.114 0-2.048-.36-2.779-1.09-.73-.719-1.101-1.617-1.101-2.695 0-1.066.37-1.964 1.09-2.694.718-.73 1.604-1.102 2.646-1.102zm-11.09-3.64v4.694c.575-.695 1.39-1.042 2.431-1.042l-.06.012c1.018 0 1.869.36 2.551 1.078.683.718 1.018 1.616 1.018 2.694 0 1.078-.347 1.976-1.006 2.695-.658.73-1.497 1.078-2.515 1.078-.539 0-1.018-.108-1.46-.312-.432-.203-.791-.49-1.055-.862h-.012v.994h-1.437v-11.03h1.545zm19.39 3.76c.215 0 .407.024.574.072v1.365h-.467c-.599 0-1.102.18-1.497.527-.395.359-.599.838-.599 1.473h-.012v3.88h-1.544v-7.245h1.437v.946c.515-.671 1.221-1.018 2.107-1.018zm-30.54.06L47.33 19.4l3.186 4.072h-1.856l-3.15-4.084 2.814-3.173h1.917zm-4.778-3.809v11.066h-1.545V12.407h1.545zm18.036 5.066c-.599 0-1.114.216-1.545.623-.431.407-.635.994-.635 1.772 0 .779.216 1.366.647 1.76.431.396.946.588 1.545.588h.024c.635 0 1.126-.24 1.557-.683.431-.443.635-1.018.635-1.713 0-.682-.204-1.245-.635-1.688-.431-.443-.958-.659-1.593-.659zm8.898-.108c-.515.012-.946.168-1.33.491-.382.324-.634.743-.754 1.294h3.929c-.012-.54-.192-.97-.54-1.294-.359-.323-.79-.49-1.305-.49z" transform="translate(-631 -4370) translate(631 4370)"/>
                <path fill="#31CB9E" d="M14.994 29.904L34.479 41.09c.635.371.695 1.27.108 1.724L21.425 52.85c-.599.455-1.485.132-1.629-.61l-4.802-22.336zm-.587-28.43c.767-.588 1.844.095 1.64 1.041l-5.173 24.072 5.174 24.06c.203.946-.874 1.628-1.64 1.042L1.161 41.58C.479 41.066.084 40.25.084 39.4v-25.64c0-.85.395-1.665 1.078-2.18zm21.306 13.76c.694-.396 1.556.095 1.556.898V37.03c0 .79-.862 1.293-1.556.898L15.94 26.587zM19.784.934c.156-.742 1.03-1.078 1.641-.61l13.15 10.035c.587.455.527 1.354-.12 1.725L14.982 23.269z" transform="translate(-631 -4370) translate(631 4370)"/>
            </g>
        </g>
    </g>
</svg>
