<svg xmlns="http://www.w3.org/2000/svg" width="78" height="60" viewBox="0 0 78 60">
    <g fill="none" fill-rule="evenodd">
        <g>
            <g>
                <g>
                    <g>
                        <path d="M0 0L84 0 84 84 0 84z" transform="translate(-354 -1755) translate(320 1711) translate(31 32)"/>
                        <path stroke="#105D81" stroke-linecap="round" stroke-linejoin="round" stroke-width="4" d="M5.25 42L15.75 42 15.75 70 5.25 70z" transform="translate(-354 -1755) translate(320 1711) translate(31 32)"/>
                        <path stroke="#1183B7" stroke-linecap="round" stroke-linejoin="round" stroke-width="4" d="M26.25 21L36.757 21 36.757 70 26.25 70z" transform="translate(-354 -1755) translate(320 1711) translate(31 32)"/>
                        <path stroke="#08A1E7" stroke-linecap="round" stroke-linejoin="round" stroke-width="4" d="M47.25 31.5L57.75 31.5 57.75 70 47.25 70z" transform="translate(-354 -1755) translate(320 1711) translate(31 32)"/>
                        <path stroke="#78D5FF" stroke-linecap="round" stroke-linejoin="round" stroke-width="4" d="M68.25 14L78.75 14 78.75 70 68.25 70z" transform="translate(-354 -1755) translate(320 1711) translate(31 32)"/>
                    </g>
                </g>
            </g>
        </g>
    </g>
</svg>
