<svg xmlns="http://www.w3.org/2000/svg" width="24" height="24" viewBox="0 0 24 24">
    <g fill="none" fill-rule="evenodd">
        <g>
            <g>
                <path d="M0 0L24 0 24 24 0 24z" transform="translate(-148.000000, -147.000000) translate(148.000000, 147.000000)"/>
                <g stroke="#78D5FF" stroke-linecap="round" stroke-linejoin="round">
                    <path d="M11.314 4.686c2.588 2.588 2.588 6.784 0 9.373-2.588 2.589-6.784 2.588-9.373 0-2.589-2.588-2.588-6.784 0-9.373M1.938 4.69L6.628 0M11.318 4.69L6.628 0" transform="translate(-148.000000, -147.000000) translate(148.000000, 147.000000) translate(5.371625, 4.000000)"/>
                    <path d="M9.264 6.136c1.456 1.456 1.456 3.816 0 5.272-1.456 1.456-3.816 1.456-5.272 0-1.457-1.456-1.456-3.816 0-5.272M3.99 6.138L6.628 3.5M9.266 6.138L6.628 3.5" transform="translate(-148.000000, -147.000000) translate(148.000000, 147.000000) translate(5.371625, 4.000000)"/>
                </g>
            </g>
        </g>
    </g>
</svg>
