<svg width="14" height="14" viewBox="0 0 14 14" fill="none" xmlns="http://www.w3.org/2000/svg">
<path d="M9.58001 9.16708L7.33335 7.83375V4.81375C7.33335 4.54709 7.12001 4.33375 6.85335 4.33375H6.81335C6.54668 4.33375 6.33335 4.54709 6.33335 4.81375V7.96042C6.33335 8.19375 6.45335 8.41375 6.66001 8.53375L9.09335 9.99375C9.32001 10.1271 9.61335 10.0604 9.74668 9.83375C9.88668 9.60042 9.81335 9.30042 9.58001 9.16708ZM13.12 2.34042L11.0667 0.633752C10.7867 0.400419 10.3667 0.433752 10.1267 0.720419C9.89335 1.00042 9.93335 1.42042 10.2133 1.66042L12.26 3.36709C12.54 3.60042 12.96 3.56709 13.2 3.28042C13.44 3.00042 13.4 2.58042 13.12 2.34042ZM1.73335 3.36709L3.78001 1.66042C4.06668 1.42042 4.10668 1.00042 3.86668 0.720419C3.63335 0.433752 3.21335 0.400419 2.93335 0.633752L0.880014 2.34042C0.600014 2.58042 0.560014 3.00042 0.800014 3.28042C1.03335 3.56709 1.45335 3.60042 1.73335 3.36709ZM7.00001 1.66709C3.68668 1.66709 1.00001 4.35375 1.00001 7.66709C1.00001 10.9804 3.68668 13.6671 7.00001 13.6671C10.3133 13.6671 13 10.9804 13 7.66709C13 4.35375 10.3133 1.66709 7.00001 1.66709ZM7.00001 12.3338C4.42668 12.3338 2.33335 10.2404 2.33335 7.66709C2.33335 5.09375 4.42668 3.00042 7.00001 3.00042C9.57335 3.00042 11.6667 5.09375 11.6667 7.66709C11.6667 10.2404 9.57335 12.3338 7.00001 12.3338Z" fill="currentColor"/>
</svg>
