<svg width="16" height="16" viewBox="0 0 16 16" fill="none" xmlns="http://www.w3.org/2000/svg">
<path d="M4.91653 12.4334C4.80542 12.4334 4.70542 12.4168 4.61653 12.3834C4.52764 12.3501 4.44431 12.2946 4.36653 12.2168L1.3332 9.20011C1.17764 9.04456 1.10264 8.85289 1.1082 8.62511C1.11375 8.39734 1.18875 8.21123 1.3332 8.06678C1.49986 7.90011 1.68598 7.81956 1.89153 7.82511C2.09709 7.83067 2.27764 7.91123 2.4332 8.06678L4.89986 10.5334L6.01653 11.6501L5.46653 12.2168C5.38875 12.2946 5.30264 12.3501 5.2082 12.3834C5.11375 12.4168 5.01653 12.4334 4.91653 12.4334ZM7.7332 12.0501C7.6332 12.0501 7.53598 12.0307 7.44153 11.9918C7.34709 11.9529 7.26097 11.8946 7.1832 11.8168L4.14986 8.78345C3.9832 8.62789 3.90264 8.439 3.9082 8.21678C3.91375 7.99456 3.99431 7.80567 4.14986 7.65011C4.30542 7.49456 4.49431 7.41956 4.71653 7.42511C4.93875 7.43067 5.12764 7.51122 5.2832 7.66678L7.7332 10.1168L13.5665 4.30011C13.7221 4.14456 13.9082 4.06678 14.1249 4.06678C14.3415 4.06678 14.5276 4.14456 14.6832 4.30011C14.8388 4.45567 14.9165 4.64178 14.9165 4.85845C14.9165 5.07511 14.8388 5.26122 14.6832 5.41678L8.2832 11.8168C8.20542 11.8946 8.11931 11.9529 8.02486 11.9918C7.93042 12.0307 7.8332 12.0501 7.7332 12.0501ZM7.7332 9.11678L6.6332 8.00011L10.3499 4.26678C10.5054 4.11122 10.6915 4.03345 10.9082 4.03345C11.1249 4.03345 11.311 4.11122 11.4665 4.26678C11.6221 4.42234 11.6999 4.60845 11.6999 4.82511C11.6999 5.04178 11.6221 5.22789 11.4665 5.38345L7.7332 9.11678Z" fill="currentColor"/>
</svg>
