<svg width="20" height="20" viewBox="0 0 20 20" fill="none" xmlns="http://www.w3.org/2000/svg">
<rect width="20" height="20" rx="4" fill="#213147"/>
<path d="M3.56494 7.0599V12.9406C3.56494 13.3161 3.77516 13.6632 4.11565 13.8503L9.45116 16.7913C9.79164 16.9784 10.2108 16.9784 10.5513 16.7913L15.8868 13.8503C16.2273 13.6632 16.4375 13.3161 16.4375 12.9406V7.0599C16.4375 6.68443 16.2273 6.33727 15.8868 6.15016L10.5513 3.20919C10.2108 3.02207 9.79164 3.02207 9.45116 3.20919L4.11436 6.15016C3.77387 6.33727 3.56494 6.68443 3.56494 7.0599Z" fill="#213147"/>
<path d="M11.1651 11.1405L10.4041 13.1324C10.3835 13.1878 10.3835 13.2481 10.4041 13.3035L11.7132 16.7307L13.2273 15.896L11.4101 11.1405C11.3688 11.031 11.2063 11.031 11.1651 11.1405Z" fill="#12AAFF"/>
<path d="M12.6909 7.79091C12.6496 7.68135 12.4871 7.68135 12.4458 7.79091L11.6849 9.78275C11.6643 9.83814 11.6643 9.89846 11.6849 9.95386L13.8297 15.565L15.3438 14.7303L12.6909 7.79091Z" fill="#12AAFF"/>
<path d="M10.0005 3.42944C10.0379 3.42944 10.0753 3.43929 10.1089 3.45652L15.8829 6.63878C15.95 6.67571 15.9912 6.74465 15.9912 6.81728V13.1806C15.9912 13.2544 15.95 13.3221 15.8829 13.3591L10.1089 16.5413C10.0766 16.5598 10.0379 16.5684 10.0005 16.5684C9.96314 16.5684 9.92574 16.5585 9.89221 16.5413L4.1182 13.3615C4.05113 13.3246 4.00986 13.2557 4.00986 13.183V6.81851C4.00986 6.74465 4.05113 6.67694 4.1182 6.64001L9.89221 3.45775C9.92574 3.43929 9.96314 3.42944 10.0005 3.42944ZM10.0005 2.5C9.79548 2.5 9.58913 2.55047 9.4047 2.65265L3.63198 5.83367C3.26312 6.0368 3.03613 6.41227 3.03613 6.81851V13.1818C3.03613 13.588 3.26312 13.9635 3.63198 14.1666L9.40599 17.3489C9.59042 17.4498 9.79548 17.5015 10.0018 17.5015C10.2069 17.5015 10.4132 17.4511 10.5977 17.3489L16.3717 14.1666C16.7405 13.9635 16.9675 13.588 16.9675 13.1818V6.81851C16.9675 6.41227 16.7405 6.0368 16.3717 5.83367L10.5964 2.65265C10.412 2.55047 10.2056 2.5 10.0005 2.5Z" fill="#9DCCED"/>
<path d="M6.18164 15.5725L6.713 14.1838L7.78217 15.032L6.78264 15.9036L6.18164 15.5725Z" fill="#213147"/>
<path d="M9.51419 6.36304H8.05038C7.94075 6.36304 7.84274 6.42828 7.80533 6.52677L4.66748 14.7378L6.18159 15.5725L9.63672 6.53046C9.66896 6.44921 9.60576 6.36304 9.51419 6.36304Z" fill="white"/>
<path d="M12.0754 6.36304H10.6115C10.5019 6.36304 10.4039 6.42828 10.3665 6.52677L6.78369 15.9024L8.29781 16.7371L12.1979 6.53046C12.2288 6.44921 12.1656 6.36304 12.0754 6.36304Z" fill="white"/>
</svg>
