<svg width="18" height="20" viewBox="0 0 18 20" fill="none" xmlns="http://www.w3.org/2000/svg">
<path d="M11.1605 9.16409L12.6292 6.67178L16.5882 12.8379L16.5901 14.0213L16.5771 5.87826C16.5678 5.67914 16.4621 5.49701 16.2935 5.38957L9.16582 1.28979C8.99919 1.20783 8.78764 1.20881 8.62125 1.29237C8.59873 1.3037 8.57769 1.31588 8.55751 1.32929L8.53265 1.34492L1.61407 5.35413L1.58724 5.36643C1.55266 5.38219 1.51783 5.40249 1.48497 5.42587C1.35379 5.5199 1.26666 5.65908 1.23847 5.815C1.23429 5.83863 1.23109 5.86275 1.22974 5.88712L1.24057 12.5229L4.9282 6.8074C5.3924 6.04957 6.404 5.80528 7.3431 5.8187L8.44515 5.84774L1.95139 16.2619L2.71685 16.7025L9.28839 5.85832L12.1931 5.84774L5.63853 16.9657L8.36996 18.5368L8.69632 18.7244C8.8344 18.7805 8.99709 18.7833 9.13628 18.733L16.3641 14.5444L14.9822 15.3451L11.1605 9.16409ZM11.7208 17.2353L8.96202 12.9053L10.6462 10.0474L14.2693 15.7583L11.7208 17.2353Z" fill="#2D374B"/>
<path d="M8.96204 12.9052L11.7209 17.2351L14.2693 15.7582L10.6462 10.0474L8.96204 12.9052Z" fill="#28A0F0"/>
<path d="M16.5903 14.0214L16.5884 12.838L12.6294 6.67188L11.1606 9.16418L14.9825 15.3452L16.3644 14.5445C16.4999 14.4344 16.582 14.2728 16.5906 14.0986L16.5903 14.0214Z" fill="#28A0F0"/>
<path d="M0 15.1371L1.95144 16.2615L8.4452 5.84742L7.34315 5.81838C6.40417 5.80509 5.39258 6.04925 4.92825 6.80708L1.24062 12.5226L0 14.4287V15.1371Z" fill="white"/>
<path d="M12.1932 5.84766L9.28846 5.85824L2.71692 16.7025L5.01392 18.0249L5.63848 16.9656L12.1932 5.84766Z" fill="white"/>
<path d="M17.8141 5.83253C17.7899 5.22509 17.4609 4.66908 16.9458 4.3453L9.7247 0.192596C9.21509 -0.0639937 8.57848 -0.0643628 8.06788 0.192473C8.00758 0.22287 1.04556 4.26063 1.04556 4.26063C0.949199 4.30678 0.856408 4.36179 0.769155 4.4243C0.309262 4.75399 0.0289202 5.26619 0 5.82884V14.429L1.24062 12.5228L1.22979 5.88693C1.23126 5.86268 1.23434 5.83869 1.23852 5.81518C1.26658 5.65901 1.35384 5.51983 1.48502 5.42568C1.51788 5.4023 8.59866 1.3035 8.62118 1.29218C8.78769 1.20862 8.99911 1.20764 9.16574 1.2896L16.2934 5.38938C16.462 5.49681 16.5677 5.67895 16.5771 5.87807V14.0982C16.5685 14.2724 16.4995 14.434 16.364 14.544L14.9822 15.3448L14.2691 15.7581L11.7207 17.235L9.13621 18.7327C8.99702 18.783 8.83421 18.7802 8.69625 18.7241L5.63846 16.9653L5.01378 18.0247L7.76182 19.6068C7.85264 19.6585 7.93362 19.7043 8.00007 19.7417C8.10296 19.7994 8.1731 19.8379 8.19784 19.85C8.39314 19.9449 8.6741 20 8.92737 20C9.15947 20 9.38591 19.9574 9.60016 19.8735L17.107 15.5262C17.5378 15.1924 17.7914 14.6889 17.8141 14.1436V5.83253Z" fill="#96BEDC"/>
</svg>
