<svg width="14" height="16" viewBox="0 0 14 16" fill="none" xmlns="http://www.w3.org/2000/svg">
<path d="M0.53125 5.04465V10.9554C0.53125 11.3328 0.742546 11.6817 1.08477 11.8698L6.44755 14.8258C6.78977 15.0139 7.21107 15.0139 7.55329 14.8258L12.9161 11.8698C13.2583 11.6817 13.4696 11.3328 13.4696 10.9554V5.04465C13.4696 4.66726 13.2583 4.31833 12.9161 4.13026L7.55329 1.17426C7.21107 0.986184 6.78977 0.986184 6.44755 1.17426L1.08347 4.13026C0.74125 4.31833 0.53125 4.66726 0.53125 5.04465Z" fill="#213147"/>
<path d="M8.17051 9.14643L7.40569 11.1484C7.38495 11.2041 7.38495 11.2648 7.40569 11.3204L8.72143 14.7652L10.2433 13.9263L8.4168 9.14643C8.37532 9.03631 8.21199 9.03631 8.17051 9.14643Z" fill="#12AAFF"/>
<path d="M9.70391 5.77961C9.66243 5.66949 9.4991 5.66949 9.45762 5.77961L8.6928 7.78162C8.67206 7.83731 8.67206 7.89793 8.6928 7.95361L10.8485 13.5934L12.3704 12.7545L9.70391 5.77961Z" fill="#12AAFF"/>
<path d="M7 1.39574C7.03759 1.39574 7.07519 1.40564 7.10889 1.42296L12.9124 4.62147C12.9798 4.65859 13.0213 4.72789 13.0213 4.80089V11.1967C13.0213 11.2709 12.9798 11.339 12.9124 11.3761L7.10889 14.5746C7.07648 14.5932 7.03759 14.6018 7 14.6018C6.96241 14.6018 6.92482 14.5919 6.89111 14.5746L1.08759 11.3786C1.02019 11.3415 0.978704 11.2722 0.978704 11.1992V4.80213C0.978704 4.72789 1.02019 4.65983 1.08759 4.62271L6.89111 1.4242C6.92482 1.40564 6.96241 1.39574 7 1.39574ZM7 0.461548C6.79389 0.461548 6.58648 0.512279 6.40111 0.614978L0.598889 3.81226C0.228148 4.01642 0 4.3938 0 4.80213V11.1979C0 11.6062 0.228148 11.9836 0.598889 12.1878L6.40241 15.3863C6.58778 15.4878 6.79389 15.5397 7.0013 15.5397C7.20741 15.5397 7.41482 15.489 7.60019 15.3863L13.4037 12.1878C13.7744 11.9836 14.0026 11.6062 14.0026 11.1979V4.80213C14.0026 4.3938 13.7744 4.01642 13.4037 3.81226L7.59889 0.614978C7.41352 0.512279 7.20611 0.461548 7 0.461548Z" fill="#9DCCED"/>
<path d="M3.16162 13.6008L3.6957 12.2051L4.77033 13.0576L3.7657 13.9336L3.16162 13.6008Z" fill="#213147"/>
<path d="M6.51113 4.3443H5.03983C4.92965 4.3443 4.83113 4.40988 4.79354 4.50887L1.63965 12.7619L3.1615 13.6008L6.63428 4.51258C6.66669 4.43091 6.60317 4.3443 6.51113 4.3443Z" fill="white"/>
<path d="M9.08579 4.3443H7.6145C7.50431 4.3443 7.40579 4.40988 7.3682 4.50887L3.76709 13.9324L5.28894 14.7713L9.20894 4.51258C9.24005 4.43091 9.17653 4.3443 9.08579 4.3443Z" fill="white"/>
</svg>
