<?xml version="1.0" encoding="UTF-8"?>
<svg width="40px" height="40px" viewBox="0 0 40 40" version="1.1" xmlns="http://www.w3.org/2000/svg" xmlns:xlink="http://www.w3.org/1999/xlink">
    <title>Artboard</title>
    <g id="Artboard" stroke="none" stroke-width="1" fill="none" fill-rule="evenodd">
        <g id="sort" transform="translate(5.997236, 3.002836)" fill="#FFFFFF" fill-rule="nonzero">
            <path d="M17.0508872,12.2542815 C16.2950081,11.5046674 15.0693468,11.5050597 14.3129963,12.2551578 L10.8401754,15.6992702 L10.421867,1.69886433 C10.4222001,0.638888527 10.1172694,0.150045789 9.04844632,0.150379267 C7.97962326,0.150730021 7.70507651,0.591460958 7.70474333,1.65143676 L6.96762807,15.7005097 L3.49697163,12.2586199 C2.74109246,11.5090058 1.5144631,11.5093985 0.759080677,12.2594963 C0.00273011687,13.0095943 0.0023480509,14.2251101 0.758227216,14.9747241 L7.53307248,21.693416 C7.91149598,22.0687029 8.40615505,22.25561 8.90184111,22.25561 C9.39752716,22.25561 9.89230393,22.0680689 10.2709634,21.6925396 L17.0500338,14.9695093 C17.8063843,14.2194112 17.8067664,13.0038955 17.0508872,12.2542815 Z" id="Path" transform="translate(8.904557, 11.202995) rotate(179.000000) translate(-8.904557, -11.202995) "></path>
            <path d="M28.0508872,23.2542815 C27.2950081,22.5046674 26.0693468,22.5050597 25.3129963,23.2551578 L21.8401754,26.6992702 L21.421867,12.6988643 C21.4222001,11.6388885 21.1172694,11.1500458 20.0484463,11.1503793 C18.9796233,11.15073 18.7050765,11.591461 18.7047433,12.6514368 L17.9676281,26.7005097 L14.4969716,23.2586199 C13.7410925,22.5090058 12.5144631,22.5093985 11.7590807,23.2594963 C11.0027301,24.0095943 11.0023481,25.2251101 11.7582272,25.9747241 L18.5330725,32.693416 C18.911496,33.0687029 19.4061551,33.25561 19.9018411,33.25561 C20.3975272,33.25561 20.8923039,33.0680689 21.2709634,32.6925396 L28.0500338,25.9695093 C28.8063843,25.2194112 28.8067664,24.0038955 28.0508872,23.2542815 Z" id="Path" transform="translate(19.904557, 22.202995) rotate(-1.000000) translate(-19.904557, -22.202995) "></path>
        </g>
    </g>
</svg>