<?xml version="1.0" encoding="UTF-8"?>
<svg width="180px" height="180px" viewBox="0 0 180 180" version="1.1" xmlns="http://www.w3.org/2000/svg" xmlns:xlink="http://www.w3.org/1999/xlink">
    <title>Artboard Copy 8</title>
    <g id="Artboard-Copy-8" stroke="none" stroke-width="1" fill="none" fill-rule="evenodd">
        <path d="M90.9933921,52.9840937 L96.8056344,103.291934 C96.8690202,103.84057 97.3651613,104.233942 97.9137966,104.170556 C98.0815779,104.151172 98.241716,104.089607 98.3792729,103.991605 L106.879567,97.9355921 C107.32937,97.6151308 107.953793,97.7199833 108.274255,98.1697866 C108.509452,98.4999124 108.522101,98.9393626 108.306283,99.2824707 L90.8464692,127.040076 C90.552412,127.507568 89.9350544,127.648165 89.4675623,127.354108 C89.3406705,127.274291 89.233347,127.166968 89.1535308,127.040076 L71.6937173,99.2824707 C71.39966,98.8149787 71.5402568,98.197621 72.0077488,97.9035638 C72.3508569,97.6877454 72.7903071,97.7003948 73.1204329,97.9355921 L81.6207271,103.991605 C82.0705304,104.312067 82.6949532,104.207214 83.0154145,103.757411 C83.1134165,103.619854 83.1749812,103.459716 83.1943656,103.291934 L89.0066079,52.9840937 C89.0699937,52.4354584 89.5661348,52.0420859 90.1147701,52.1054717 C90.5761426,52.1587757 90.9400881,52.5227212 90.9933921,52.9840937 Z" id="Rectangle" fill="#FFFFFF"></path>
        <g id="TO" transform="translate(64.566406, 139.996094)" fill="#FFFFFF" fill-rule="nonzero">
            <polygon id="Path" points="13.0664062 29.0039062 8.3984375 29.0039062 8.3984375 4.453125 0 4.453125 0 0.44921875 21.4648438 0.44921875 21.4648438 4.453125 13.0664062 4.453125"></polygon>
            <path d="M51.1914062,14.6875 C51.1914062,19.3359375 50.0292969,22.9492188 47.7050781,25.5273438 C45.3808594,28.1054688 42.0898438,29.3945312 37.8320312,29.3945312 C33.5221354,29.3945312 30.2115885,28.1152344 27.9003906,25.5566406 C25.5891927,22.9980469 24.4335938,19.3619792 24.4335938,14.6484375 C24.4335938,9.93489583 25.5957031,6.31510417 27.9199219,3.7890625 C30.2441406,1.26302083 33.5611979,0 37.8710938,0 C42.1158854,0 45.3971354,1.28255208 47.7148438,3.84765625 C50.0325521,6.41276042 51.1914062,10.0260417 51.1914062,14.6875 Z M29.3945312,14.6875 C29.3945312,18.203125 30.1041667,20.8691406 31.5234375,22.6855469 C32.9427083,24.5019531 35.0455729,25.4101562 37.8320312,25.4101562 C40.6054688,25.4101562 42.6985677,24.5117188 44.1113281,22.7148438 C45.5240885,20.9179688 46.2304688,18.2421875 46.2304688,14.6875 C46.2304688,11.1848958 45.530599,8.52864583 44.1308594,6.71875 C42.7311198,4.90885417 40.6445312,4.00390625 37.8710938,4.00390625 C35.0716146,4.00390625 32.9589844,4.90885417 31.5332031,6.71875 C30.1074219,8.52864583 29.3945312,11.1848958 29.3945312,14.6875 Z" id="Shape"></path>
        </g>
        <g id="FROM" transform="translate(35.769531, 9.996094)" fill="#FFFFFF" fill-rule="nonzero">
            <polygon id="Path" points="4.62890625 29.0039062 0 29.0039062 0 0.44921875 16.1132812 0.44921875 16.1132812 4.39453125 4.62890625 4.39453125 4.62890625 13.3203125 15.390625 13.3203125 15.390625 17.2851562 4.62890625 17.2851562"></polygon>
            <path d="M25.9570312,13.7304688 L29.1992188,13.7304688 C31.3736979,13.7304688 32.9492188,13.3268229 33.9257812,12.5195312 C34.9023438,11.7122396 35.390625,10.5143229 35.390625,8.92578125 C35.390625,7.31119792 34.8632812,6.15234375 33.8085938,5.44921875 C32.7539062,4.74609375 31.1653646,4.39453125 29.0429688,4.39453125 L25.9570312,4.39453125 L25.9570312,13.7304688 Z M25.9570312,17.5976562 L25.9570312,29.0039062 L21.2890625,29.0039062 L21.2890625,0.44921875 L29.3554688,0.44921875 C33.0403646,0.44921875 35.7682292,1.13932292 37.5390625,2.51953125 C39.3098958,3.89973958 40.1953125,5.98307292 40.1953125,8.76953125 C40.1953125,12.3242188 38.3463542,14.8567708 34.6484375,16.3671875 L42.7148438,29.0039062 L37.4023438,29.0039062 L30.5664062,17.5976562 L25.9570312,17.5976562 Z" id="Shape"></path>
            <path d="M72.2070312,14.6875 C72.2070312,19.3359375 71.0449219,22.9492188 68.7207031,25.5273438 C66.3964844,28.1054688 63.1054688,29.3945312 58.8476562,29.3945312 C54.5377604,29.3945312 51.2272135,28.1152344 48.9160156,25.5566406 C46.6048177,22.9980469 45.4492188,19.3619792 45.4492188,14.6484375 C45.4492188,9.93489583 46.6113281,6.31510417 48.9355469,3.7890625 C51.2597656,1.26302083 54.5768229,0 58.8867188,0 C63.1315104,0 66.4127604,1.28255208 68.7304688,3.84765625 C71.0481771,6.41276042 72.2070312,10.0260417 72.2070312,14.6875 Z M50.4101562,14.6875 C50.4101562,18.203125 51.1197917,20.8691406 52.5390625,22.6855469 C53.9583333,24.5019531 56.0611979,25.4101562 58.8476562,25.4101562 C61.6210938,25.4101562 63.7141927,24.5117188 65.1269531,22.7148438 C66.5397135,20.9179688 67.2460938,18.2421875 67.2460938,14.6875 C67.2460938,11.1848958 66.546224,8.52864583 65.1464844,6.71875 C63.7467448,4.90885417 61.6601562,4.00390625 58.8867188,4.00390625 C56.0872396,4.00390625 53.9746094,4.90885417 52.5488281,6.71875 C51.1230469,8.52864583 50.4101562,11.1848958 50.4101562,14.6875 Z" id="Shape"></path>
            <path d="M90.6835938,29.0039062 L82.4023438,5.15625 L82.2460938,5.15625 C82.4674479,8.69791667 82.578125,12.0182292 82.578125,15.1171875 L82.578125,29.0039062 L78.3398438,29.0039062 L78.3398438,0.44921875 L84.921875,0.44921875 L92.8515625,23.1640625 L92.96875,23.1640625 L101.132812,0.44921875 L107.734375,0.44921875 L107.734375,29.0039062 L103.242188,29.0039062 L103.242188,14.8828125 C103.242188,13.4635417 103.277995,11.6145833 103.349609,9.3359375 C103.421224,7.05729167 103.483073,5.67708333 103.535156,5.1953125 L103.378906,5.1953125 L94.8046875,29.0039062 L90.6835938,29.0039062 Z" id="Path"></path>
        </g>
    </g>
</svg>