<svg width="16" height="16" viewBox="0 0 16 16" fill="none" xmlns="http://www.w3.org/2000/svg">
<g clip-path="url(#clip0_298_130193)">
<path d="M12.9346 2.74121H3.05566V11.7259H12.9346V2.74121Z" fill="white"/>
<path fill-rule="evenodd" clip-rule="evenodd" d="M15.9998 0C15.9998 4.41538 15.9998 15.9947 15.9998 15.9947C11.5844 15.9947 0.00590861 15.9947 0.00590861 15.9947L0.00488281 5.43594e-05C4.42027 5.43594e-05 15.9998 0 15.9998 0ZM5.73493 11.1815H4.18339C3.85736 11.1815 3.69632 11.1815 3.59813 11.1187C3.49207 11.0499 3.42726 10.936 3.4194 10.8103C3.41351 10.6945 3.49404 10.553 3.65508 10.2702L7.48603 3.51765C7.64905 3.2309 7.73153 3.08753 7.83562 3.03451C7.94756 2.97755 8.08112 2.97755 8.19307 3.03451C8.29716 3.08753 8.37965 3.2309 8.54265 3.51765L9.33022 4.89243L9.33423 4.89945C9.51029 5.20707 9.59958 5.36307 9.63856 5.52679C9.68176 5.70552 9.68176 5.89406 9.63856 6.07278C9.59928 6.23775 9.5109 6.39488 9.33218 6.70715L7.31987 10.2643L7.31466 10.2734C7.13744 10.5836 7.04762 10.7408 6.92315 10.8594C6.78763 10.9891 6.62462 11.0833 6.44589 11.1364C6.28288 11.1815 6.10024 11.1815 5.73493 11.1815ZM9.65309 11.1815H11.8763C12.2043 11.1815 12.3693 11.1815 12.4675 11.1168C12.5735 11.048 12.6403 10.9321 12.6463 10.8065C12.6519 10.6944 12.5731 10.5584 12.4188 10.2921C12.4134 10.283 12.4081 10.2738 12.4027 10.2644L11.2891 8.35932L11.2764 8.33787C11.1199 8.07325 11.0409 7.93962 10.9395 7.88797C10.8276 7.831 10.6959 7.831 10.584 7.88797C10.4819 7.94099 10.3994 8.08044 10.2364 8.36128L9.12674 10.2663L9.12294 10.2729C8.9605 10.5533 8.87932 10.6934 8.88518 10.8084C8.89303 10.9341 8.95784 11.0499 9.06389 11.1187C9.16014 11.1815 9.32511 11.1815 9.65309 11.1815Z" fill="#E84142"/>
</g>
<defs>
<clipPath id="clip0_298_130193">
<rect width="16" height="16" fill="white"/>
</clipPath>
</defs>
</svg>
