<svg width="16" height="16" viewBox="0 0 16 16" fill="none" xmlns="http://www.w3.org/2000/svg">
<g clip-path="url(#clip0_13871_12533)">
<path d="M12.9341 2.74118H3.05524V11.7259H12.9341V2.74118Z" fill="white"/>
<path fill-rule="evenodd" clip-rule="evenodd" d="M15.9947 8C15.9947 12.4154 12.4154 15.9947 7.99999 15.9947C3.58465 15.9947 0.00531006 12.4154 0.00531006 8C0.00531006 3.58466 3.58465 0.00532532 7.99999 0.00532532C12.4154 0.00532532 15.9947 3.58466 15.9947 8ZM5.73452 11.1815H4.18298C3.85696 11.1815 3.69591 11.1815 3.59772 11.1187C3.49166 11.0499 3.42685 10.936 3.41899 10.8103C3.4131 10.6945 3.49363 10.553 3.65467 10.2702L7.48562 3.51761C7.64864 3.23086 7.73112 3.08749 7.83521 3.03447C7.94715 2.97751 8.08071 2.97751 8.19266 3.03447C8.29675 3.08749 8.37924 3.23086 8.54224 3.51761L9.32981 4.89239L9.33382 4.89941C9.50989 5.20703 9.59917 5.36303 9.63815 5.52675C9.68135 5.70548 9.68135 5.89402 9.63815 6.07274C9.59887 6.23771 9.51049 6.39484 9.33177 6.70711L7.31946 10.2643L7.31426 10.2734C7.13703 10.5836 7.04722 10.7408 6.92274 10.8594C6.78722 10.989 6.62421 11.0832 6.44549 11.1363C6.28247 11.1815 6.09983 11.1815 5.73452 11.1815ZM9.65268 11.1815H11.8759C12.2038 11.1815 12.3689 11.1815 12.4671 11.1168C12.5731 11.048 12.6399 10.9321 12.6458 10.8064C12.6515 10.6943 12.5727 10.5584 12.4184 10.292C12.413 10.283 12.4077 10.2737 12.4023 10.2643L11.2887 8.35928L11.276 8.33783C11.1195 8.07321 11.0405 7.93958 10.9391 7.88793C10.8272 7.83096 10.6955 7.83096 10.5836 7.88793C10.4815 7.94095 10.399 8.0804 10.236 8.36124L9.12633 10.2663L9.12253 10.2729C8.96009 10.5533 8.87891 10.6934 8.88477 10.8084C8.89262 10.9341 8.95743 11.0499 9.06348 11.1187C9.15973 11.1815 9.3247 11.1815 9.65268 11.1815Z" fill="#E84142"/>
</g>
<defs>
<clipPath id="clip0_13871_12533">
<rect width="16" height="16" fill="white"/>
</clipPath>
</defs>
</svg>
