<svg width="1440" height="429" viewBox="0 0 1440 429" fill="none" xmlns="http://www.w3.org/2000/svg">
<g opacity="0.2" filter="url(#filter0_d)">
<path fill-rule="evenodd" clip-rule="evenodd" d="M-168 146.503C-26.9179 81.823 346.981 -5.14009 767.072 87.1709C1187.16 179.482 1597 80.6996 1597 80.6996V333.207C1597 333.207 1280.22 167.626 1041.68 286.736C803.131 405.847 683.72 224.935 439.21 216.504C194.7 208.073 310.445 347.403 -168 360V146.503Z" fill="#1183B7"/>
</g>
<g opacity="0.2" filter="url(#filter1_d)">
<path fill-rule="evenodd" clip-rule="evenodd" d="M-114 77.6827C293.056 290.787 280.882 -7.15093 717.614 121.485C1154.35 250.121 1477 12 1477 12V264.043C1477 264.043 1249.69 349.765 861.134 236.777C472.581 123.789 128.751 433.095 -114 290.787V77.6827Z" fill="#1183B7"/>
</g>
<g opacity="0.2" filter="url(#filter2_d)">
<path fill-rule="evenodd" clip-rule="evenodd" d="M-331 261.775C138.227 548.464 265.424 34.4657 768.86 207.52C1272.3 380.574 1503 173.411 1503 173.411V512.485C1503 512.485 1303.64 424.142 1055.77 584.087C807.894 744.032 623.5 451.468 368.489 461.043C113.478 470.618 206.682 574.019 -331 548.464V261.775Z" fill="#1183B7"/>
</g>
<g opacity="0.2" filter="url(#filter3_d)">
<path fill-rule="evenodd" clip-rule="evenodd" d="M-157 227.776C427.336 565 585.735 -39.6016 1212.67 163.957C1839.61 367.516 2126.91 123.837 2126.91 123.837V522.68C2126.91 522.68 2181.1 272.077 1872.42 460.216C1563.74 648.355 1200.45 373.192 810.961 480.344C421.477 587.496 245.984 554.164 -157 565V227.776Z" fill="#1183B7"/>
</g>
<defs>
<filter id="filter0_d" x="-192" y="35" width="1833" height="381" filterUnits="userSpaceOnUse" color-interpolation-filters="sRGB">
<feFlood flood-opacity="0" result="BackgroundImageFix"/>
<feColorMatrix in="SourceAlpha" type="matrix" values="0 0 0 0 0 0 0 0 0 0 0 0 0 0 0 0 0 0 127 0" result="hardAlpha"/>
<feOffset dx="10" dy="22"/>
<feGaussianBlur stdDeviation="17"/>
<feColorMatrix type="matrix" values="0 0 0 0 0 0 0 0 0 0 0 0 0 0 0 0 0 0 0.828016 0"/>
<feBlend mode="normal" in2="BackgroundImageFix" result="effect1_dropShadow"/>
<feBlend mode="normal" in="SourceGraphic" in2="effect1_dropShadow" result="shape"/>
</filter>
<filter id="filter1_d" x="-138" y="0" width="1659" height="385" filterUnits="userSpaceOnUse" color-interpolation-filters="sRGB">
<feFlood flood-opacity="0" result="BackgroundImageFix"/>
<feColorMatrix in="SourceAlpha" type="matrix" values="0 0 0 0 0 0 0 0 0 0 0 0 0 0 0 0 0 0 127 0" result="hardAlpha"/>
<feOffset dx="10" dy="22"/>
<feGaussianBlur stdDeviation="17"/>
<feColorMatrix type="matrix" values="0 0 0 0 0 0 0 0 0 0 0 0 0 0 0 0 0 0 0.828016 0"/>
<feBlend mode="normal" in2="BackgroundImageFix" result="effect1_dropShadow"/>
<feBlend mode="normal" in="SourceGraphic" in2="effect1_dropShadow" result="shape"/>
</filter>
<filter id="filter2_d" x="-355" y="159" width="1902" height="529" filterUnits="userSpaceOnUse" color-interpolation-filters="sRGB">
<feFlood flood-opacity="0" result="BackgroundImageFix"/>
<feColorMatrix in="SourceAlpha" type="matrix" values="0 0 0 0 0 0 0 0 0 0 0 0 0 0 0 0 0 0 127 0" result="hardAlpha"/>
<feOffset dx="10" dy="22"/>
<feGaussianBlur stdDeviation="17"/>
<feColorMatrix type="matrix" values="0 0 0 0 0 0 0 0 0 0 0 0 0 0 0 0 0 0 0.828016 0"/>
<feBlend mode="normal" in2="BackgroundImageFix" result="effect1_dropShadow"/>
<feBlend mode="normal" in="SourceGraphic" in2="effect1_dropShadow" result="shape"/>
</filter>
<filter id="filter3_d" x="-181" y="109" width="2355.57" height="512" filterUnits="userSpaceOnUse" color-interpolation-filters="sRGB">
<feFlood flood-opacity="0" result="BackgroundImageFix"/>
<feColorMatrix in="SourceAlpha" type="matrix" values="0 0 0 0 0 0 0 0 0 0 0 0 0 0 0 0 0 0 127 0" result="hardAlpha"/>
<feOffset dx="10" dy="22"/>
<feGaussianBlur stdDeviation="17"/>
<feColorMatrix type="matrix" values="0 0 0 0 0 0 0 0 0 0 0 0 0 0 0 0 0 0 0.828016 0"/>
<feBlend mode="normal" in2="BackgroundImageFix" result="effect1_dropShadow"/>
<feBlend mode="normal" in="SourceGraphic" in2="effect1_dropShadow" result="shape"/>
</filter>
</defs>
</svg>
