<svg width="14" height="12" viewBox="0 0 14 12" fill="none" xmlns="http://www.w3.org/2000/svg">
  <path
    d="M13.6667 0L12.5534 1.11333L11.4467 0L10.3334 1.11333L9.22004 0L8.11337 1.11333L7.00004 0L5.88671 1.11333L4.78004 0L3.66671 1.11333L2.55337 0L1.44671 1.11333L0.333374 0V10.6667C0.333374 11.4 0.933374 12 1.66671 12H12.3334C13.0667 12 13.6667 11.4 13.6667 10.6667V0ZM6.33337 10.6667H1.66671V6.66667H6.33337V10.6667ZM12.3334 10.6667H7.66671V9.33333H12.3334V10.6667ZM12.3334 8H7.66671V6.66667H12.3334V8ZM12.3334 5.33333H1.66671V3.33333H12.3334V5.33333Z"
    fill="currentcolor"
  />
</svg>
