<?xml version="1.0" encoding="utf-8"?>
<!-- Generator: Adobe Illustrator 27.0.1, SVG Export Plug-In . SVG Version: 6.00 Build 0)  -->
<svg version="1.1" id="Layer_1" xmlns="http://www.w3.org/2000/svg" xmlns:xlink="http://www.w3.org/1999/xlink" x="0px" y="0px"
	 viewBox="0 0 1080 1080" style="enable-background:new 0 0 1080 1080;" xml:space="preserve">
<style type="text/css">
	.st0{fill:#B6FF00;}
	.st1{fill:#00D6CD;}
</style>
<circle cx="540" cy="540" r="540"/>
<g>
	<g>
		<g>
			<g>
				<path class="st0" d="M410.8,731c-15.9,0-29.3-11.4-32-27l-90.4-531.3c-1.5-8.5,0.5-17.1,5.5-24.2c5-7.1,12.5-11.8,21-13.2
					c17.6-3,34.4,8.9,37.4,26.6l90.4,531.3c1.5,8.5-0.5,17.1-5.5,24.2c-5,7.1-12.5,11.8-21,13.2C414.5,730.9,412.7,731,410.8,731z"
					/>
			</g>
		</g>
	</g>
	<path class="st0" d="M562.3,486c-51.6,0-99.7,15.5-139.9,42l10.9,64.3c34.5-30.1,79.6-48.4,128.9-48.4
		c108.4,0,196.6,88.2,196.6,196.6c0,108.4-88.2,196.6-196.6,196.6c-108.4,0-196.6-88.2-196.6-196.6c0-14.5,1.6-28.5,4.6-42.1
		l-17.4-102.4c-28.4,41.1-45.1,90.9-45.1,144.5c0,140.4,114.2,254.6,254.6,254.6S816.9,881,816.9,740.6S702.7,486,562.3,486z"/>
	<g>
		<g>
			<circle class="st1" cx="548.4" cy="854.5" r="34.7"/>
		</g>
		<g>
			<circle class="st1" cx="656.7" cy="814.1" r="34.7"/>
		</g>
		<g>
			<circle class="st1" cx="571.5" cy="739.8" r="34.7"/>
		</g>
		<g>
			<circle class="st1" cx="463.9" cy="775.2" r="34.7"/>
		</g>
		<g>
			<circle class="st1" cx="678.8" cy="704.2" r="34.7"/>
		</g>
		<g>
			<circle class="st1" cx="594.6" cy="625.1" r="34.7"/>
		</g>
		<g>
			<circle class="st1" cx="486" cy="665.4" r="34.7"/>
		</g>
	</g>
</g>
</svg>
