<svg width="16" height="16" viewBox="0 0 16 16" fill="none" xmlns="http://www.w3.org/2000/svg">
  <g clip-path="url(#clip0_1803_63025)">
    <path
      d="M8.61534 13.0785C8.58128 12.9965 8.53263 12.9231 8.47063 12.8611L6.47131 10.8618C6.21066 10.6012 5.78932 10.6012 5.52867 10.8618C5.26802 11.1218 5.26802 11.5438 5.52867 11.8045L6.39066 12.6665L5.33333 12.6665C4.23069 12.6665 3.33336 11.7691 3.33336 10.6665L3.33336 3.99994C4.06869 3.99994 4.66669 3.40195 4.66669 2.66661V1.33332C4.66669 0.597991 4.06869 0 3.33336 0L2.00007 0C1.26474 0 0.666748 0.597991 0.666748 1.33332L0.666748 2.66665C0.666748 3.40198 1.26474 3.99997 2.00007 3.99997L2.00007 10.6665C2.00007 12.5045 3.49539 13.9998 5.33336 13.9998L6.39069 13.9998L5.5287 14.8618C5.26805 15.1218 5.26805 15.5438 5.5287 15.8044C5.6587 15.9344 5.82935 15.9998 6.00004 15.9998C6.17069 15.9998 6.34138 15.9344 6.47138 15.8044L8.47069 13.8051C8.53269 13.7431 8.58134 13.6698 8.61534 13.5878C8.68269 13.4251 8.68269 13.2411 8.61534 13.0785Z"
      fill="currentcolor"
    />
    <path
      d="M14 12L14 5.33341C14 3.49544 12.5047 2.00012 10.6667 2.00012H9.60936L10.4713 1.13813C10.732 0.877478 10.732 0.456141 10.4713 0.195489C10.2107 -0.065163 9.78935 -0.065163 9.5287 0.195489L7.52939 2.1948C7.46739 2.2568 7.41874 2.33014 7.38474 2.41214C7.31739 2.5748 7.31739 2.75879 7.38474 2.92148C7.41874 3.00348 7.46739 3.07682 7.52939 3.13882L9.5287 5.13813C9.6587 5.26813 9.82935 5.33347 10 5.33347C10.1707 5.33347 10.3414 5.26813 10.4714 5.13813C10.732 4.87748 10.732 4.45614 10.4714 4.19549L9.60939 3.3335H10.6667C11.7694 3.3335 12.6667 4.23083 12.6667 5.33347L12.6667 12C11.9314 12 11.3334 12.598 11.3334 13.3333V14.6667C11.3334 15.402 11.9314 16 12.6667 16L14 16C14.7353 16 15.3333 15.402 15.3333 14.6667L15.3333 13.3333C15.3333 12.598 14.7353 12 14 12Z"
      fill="currentcolor"
    />
  </g>
  <defs>
    <clipPath id="clip0_1803_63025">
      <rect width="16" height="16" fill="white" />
    </clipPath>
  </defs>
</svg>
