<?xml version="1.0" encoding="UTF-8"?>
<svg width="178px" height="137px" viewBox="0 0 178 137" version="1.1" xmlns="http://www.w3.org/2000/svg" xmlns:xlink="http://www.w3.org/1999/xlink">
    <title>Group</title>
    <defs>
        <linearGradient x1="8.59527353%" y1="60.2209862%" x2="92.358895%" y2="39.030623%" id="linearGradient-1">
            <stop stop-color="#B1FFBF" offset="0%"></stop>
            <stop stop-color="#FFF16D" offset="100%"></stop>
        </linearGradient>
        <polygon id="path-2" points="0.3308976 0.196944 4.3943856 0.196944 4.3943856 18.4576656 0.3308976 18.4576656"></polygon>
        <polygon id="path-4" points="0 0.0522192 26.4622512 0.0522192 26.4622512 18.3616752 0 18.3616752"></polygon>
        <polygon id="path-6" points="0 0.0585024 153.618907 0.0585024 153.618907 77.0424864 0 77.0424864"></polygon>
    </defs>
    <g id="Page-1" stroke="none" stroke-width="1" fill="none" fill-rule="evenodd">
        <g id="swap2" transform="translate(-865.000000, -329.000000)">
            <g id="Group" transform="translate(865.000000, 329.000000)">
                <g id="Group-4">
                    <polygon id="Fill-1" fill="#323439" points="2.2795344 85.9264032 153.321326 11.3960352 153.321326 13.6395072 2.9733264 88.8003072"></polygon>
                    <polygon id="Fill-2" fill="#697183" points="9.3657696 94.2145776 9.3657696 122.249794 16.6505856 126.26365 16.6505856 98.1661296"></polygon>
                    <polygon id="Fill-3" fill="#393D47" points="22.1372448 100.2474 22.1372448 122.844216 16.6502688 126.263544 16.6502688 98.166552"></polygon>
                    <polygon id="Fill-4" fill="#697183" points="29.2442832 132.209986 36.5280432 136.223842 36.5280432 92.1337296 29.2442832 88.1816496"></polygon>
                    <polygon id="Fill-5" fill="#393D47" points="36.5281488 95.6385936 36.5281488 136.223842 42.0156528 132.805042 42.0156528 94.2145776"></polygon>
                    <polygon id="Fill-6" fill="#697183" points="72.2302416 60.8814624 72.2302416 88.9166784 79.5145296 92.9305344 79.5145296 64.8330144"></polygon>
                    <polygon id="Fill-7" fill="#393D47" points="85.0012416 66.9142848 85.0012416 89.5111008 79.5142656 92.9304288 79.5142656 64.8334368"></polygon>
                    <polygon id="Fill-8" fill="#697183" points="92.1080688 54.848904 92.1080688 98.876712 99.3928848 102.891096 99.3928848 58.800456"></polygon>
                    <polygon id="Fill-9" fill="#393D47" points="104.879597 60.8814624 104.879597 99.4719264 99.3926208 102.890726 99.3926208 62.3054784"></polygon>
                    <polygon id="Fill-10" fill="#697183" points="135.311774 29.0153424 135.311774 57.0505584 142.59659 61.0638864 142.59659 32.9668944"></polygon>
                    <polygon id="Fill-11" fill="#393D47" points="148.083302 35.0479008 148.083302 57.6447168 142.596326 61.0640448 142.596326 32.9670528"></polygon>
                    <polygon id="Fill-12" fill="#697183" points="155.190182 22.98252 155.190182 67.010856 162.474998 71.024184 162.474998 26.934072"></polygon>
                    <polygon id="Fill-13" fill="#393D47" points="167.96171 29.0153424 167.96171 67.6052784 162.474734 71.0246064 162.474734 30.4393584"></polygon>
                    <path d="M152.974536,13.6394016 C153.71796,13.3785696 171.906504,22.6946016 171.906504,22.6946016 L24.083928,99.5043456 L2.973432,88.8007296 L152.974536,13.6394016 Z" id="Fill-14" fill="url(#linearGradient-1)"></path>
                    <path d="M36.373128,77.7253521 C36.373128,77.7253521 73.4395728,78.4816032 98.8115568,19.8086592 C98.8115568,19.8086592 128.345976,40.9802976 162.1422,16.2772896" id="Stroke-16" stroke="#393D47" stroke-width="2.64"></path>
                    <path d="M12.9941856,65.1606384 C12.9941856,65.1606384 50.1655928,67.4482151 75.5381048,8.77527114 C75.5381048,8.77527114 104.967562,28.4160624 138.763786,3.7130544" id="Stroke-18" stroke="#393D47" stroke-width="2.64"></path>
                    <polygon id="Fill-20" fill="#393D47" points="22.1372448 63.3786384 22.1372448 75.1979184 24.8131488 73.8599664 24.8131488 61.8178704"></polygon>
                    <polygon id="Fill-22" fill="#393D47" points="29.719008 60.349344 29.719008 72.168096 32.394912 70.830672 32.394912 58.788576"></polygon>
                    <polygon id="Fill-24" fill="#393D47" points="36.5577696 56.4099888 36.5577696 68.2287408 39.2331456 66.8907888 39.2331456 54.8486928"></polygon>
                    <polygon id="Fill-26" fill="#393D47" points="43.6934784 51.7198704 43.6934784 63.5386224 46.3693824 62.2006704 46.3693824 50.1585744"></polygon>
                    <polygon id="Fill-28" fill="#393D47" points="51.1870656 44.674872 51.1870656 59.437224 53.8629696 57.766104 53.8629696 42.725496"></polygon>
                    <polygon id="Fill-30" fill="#393D47" points="58.0320048 38.0364336 58.0320048 57.5877456 60.7073808 55.3738416 60.7073808 35.4539856"></polygon>
                    <polygon id="Fill-32" fill="#393D47" points="65.2007136 28.8243681 65.2007136 54.0098592 67.8766176 51.1588771 67.8766176 25.4978592"></polygon>
                    <polygon id="Fill-34" fill="#393D47" points="86.5084176 13.6244592 86.5084176 45.0932592 83.8330416 44.5942992 83.8330416 12.9924432"></polygon>
                    <polygon id="Fill-36" fill="#393D47" points="93.7436544 14.9003712 93.7436544 40.8135552 91.0677504 40.4022432 91.0677504 14.3802912"></polygon>
                    <polygon id="Fill-38" fill="#393D47" points="101.086128 15.4874016 101.086128 36.0846816 98.410224 35.7583776 98.410224 15.0739776"></polygon>
                    <polygon id="Fill-40" fill="#393D47" points="108.22189 15.413376 108.22189 32.31888 105.545986 32.050656 105.545986 15.073872"></polygon>
                    <polygon id="Fill-42" fill="#393D47" points="115.349362 14.667048 115.349362 28.94892 112.673458 28.722408 112.673458 14.380344"></polygon>
                    <polygon id="Fill-44" fill="#393D47" points="122.287123 12.0744624 122.287123 25.5796464 119.611219 25.3652784 119.611219 11.8030704"></polygon>
                    <polygon id="Fill-46" fill="#393D47" points="129.620832 10.1514336 129.620832 21.6644736 126.944928 21.4817856 126.944928 9.9201696"></polygon>
                    <g id="Group-50" transform="translate(23.760000, 21.120000)" fill="#393D47">
                        <path d="M0.3237696,75.5592288 C0.3237696,75.5592288 1.1165792,76.0688192 2.7021984,77.088 C103.099779,27.1091392 153.29857,2.1197088 153.29857,2.1197088 L150.47377,0.4100448 L0.3237696,75.5592288 Z" id="Fill-48"></path>
                    </g>
                    <polygon id="Fill-54" fill="#697183" points="13.032888 81.3425184 10.25772 80.2516704 10.25772 65.8325184 11.645304 63.0816384 14.321208 64.2669984 13.032888 66.9233664"></polygon>
                    <polygon id="Fill-56" fill="#393D47" points="15.8079504 65.4055776 15.8079504 79.3975776 13.0327824 81.3427296 13.0327824 66.9235776 14.3216304 64.2672096"></polygon>
                    <polygon id="Fill-58" fill="#697183" points="36.373128 93.4834032 33.59796 92.3994192 33.59796 78.0784752 34.985544 75.3460752 37.661448 76.5240432 36.373128 79.1619312"></polygon>
                    <polygon id="Fill-60" fill="#393D47" points="39.1482432 77.6547552 39.1482432 91.5517152 36.3730752 93.4836672 36.3730752 79.1616672 37.6619232 76.5237792"></polygon>
                    <g id="Group-64" transform="translate(135.696000, 0.000000)">
                        <mask id="mask-3" fill="white">
                            <use xlink:href="#path-2"></use>
                        </mask>
                        <g id="Clip-63"></g>
                        <polygon id="Fill-62" fill="#697183" mask="url(#mask-3)" points="3.1060656 18.4576656 0.3308976 17.3668176 0.3308976 2.9476656 1.7184816 0.1967856 4.3943856 1.3826736 3.1060656 4.0385136"></polygon>
                    </g>
                    <polygon id="Fill-65" fill="#393D47" points="141.577128 2.5209888 141.577128 16.5129888 138.80196 18.4576128 138.80196 4.0389888 140.090808 1.3826208"></polygon>
                    <polygon id="Fill-67" fill="#697183" points="162.142358 30.5985504 159.36719 29.5150944 159.36719 15.1941504 160.754774 12.4617504 163.430678 13.6391904 162.142358 16.2770784"></polygon>
                    <polygon id="Fill-69" fill="#393D47" points="164.917421 14.7699024 164.917421 28.6668624 162.142253 30.5988144 162.142253 16.2773424 163.431101 13.6394544"></polygon>
                    <polygon id="Fill-71" fill="#697183" points="99.5552448 61.8178704 96.7800768 60.7344144 96.7800768 21.3635664 98.1676608 18.6311664 100.843037 19.8086064 99.5552448 22.4470224"></polygon>
                    <polygon id="Fill-73" fill="#393D47" points="102.329832 20.9396352 102.329832 59.8864992 99.555192 61.8179232 99.555192 22.4470752 100.843512 19.8086592"></polygon>
                    <polygon id="Fill-75" fill="#697183" points="75.8793024 49.9249344 73.1041344 48.8414784 73.1041344 9.4701024 74.4917184 6.7382304 77.1670944 7.9156704 75.8793024 10.5540864"></polygon>
                    <polygon id="Fill-77" fill="#393D47" points="78.6538896 9.046488 78.6538896 47.993352 75.8792496 49.924776 75.8792496 10.553928 77.1675696 7.915512"></polygon>
                    <polygon id="Fill-79" fill="#393D47" points="45.4909488 75.8742864 45.4909488 87.6930384 48.1668528 86.3550864 48.1668528 74.3135184"></polygon>
                    <polygon id="Fill-81" fill="#393D47" points="53.072712 72.5959344 53.072712 84.4146864 55.748616 83.0767344 55.748616 71.0351664"></polygon>
                    <polygon id="Fill-83" fill="#393D47" points="59.9114208 68.6565792 59.9114208 80.4753312 62.5873248 79.1373792 62.5873248 67.0952832"></polygon>
                    <polygon id="Fill-85" fill="#393D47" points="67.0471824 63.9066384 67.0471824 75.7259184 69.7230864 74.3879664 69.7230864 62.3458704"></polygon>
                    <polygon id="Fill-87" fill="#393D47" points="74.5412448 57.4494624 74.5412448 72.2118144 77.2166208 70.5406944 77.2166208 55.4995584"></polygon>
                    <polygon id="Fill-89" fill="#393D47" points="81.385656 50.8108128 81.385656 70.3615968 84.06156 68.1487488 84.06156 48.2283648"></polygon>
                    <polygon id="Fill-91" fill="#393D47" points="88.5549456 42.3710496 88.5549456 66.7841856 91.2303216 64.0206336 91.2303216 39.1470816"></polygon>
                    <polygon id="Fill-93" fill="#393D47" points="109.862597 26.3616672 109.862597 55.9692672 107.186693 55.4998752 107.186693 25.7671392"></polygon>
                    <polygon id="Fill-95" fill="#393D47" points="117.097358 27.646344 117.097358 52.130232 114.421454 51.741624 114.421454 27.154248"></polygon>
                    <polygon id="Fill-97" fill="#393D47" points="124.439832 28.261992 124.439832 48.859272 121.763928 48.532968 121.763928 27.84804"></polygon>
                    <polygon id="Fill-99" fill="#393D47" points="131.575594 28.1880192 131.575594 45.0935232 128.900218 44.8252992 128.900218 27.8485152"></polygon>
                    <polygon id="Fill-101" fill="#393D47" points="138.703066 27.4413744 138.703066 41.7237744 136.027162 41.4972624 136.027162 27.1546704"></polygon>
                    <polygon id="Fill-103" fill="#393D47" points="145.640774 24.8491056 145.640774 38.3537616 142.96487 38.1399216 142.96487 24.5777136"></polygon>
                    <polygon id="Fill-105" fill="#393D47" points="152.974536 22.9260768 152.974536 34.4391168 150.29916 34.2564288 150.29916 22.6948128"></polygon>
                    <g id="Group-109" transform="translate(0.000000, 85.008000)">
                        <mask id="mask-5" fill="white">
                            <use xlink:href="#path-4"></use>
                        </mask>
                        <g id="Clip-108"></g>
                        <polygon id="Fill-107" fill="#393D47" mask="url(#mask-5)" points="-5.28e-05 5.1305232 26.4622512 18.3616752 26.4622512 13.1582352 24.0836112 11.6713872 24.0836112 14.4961872 2.9736432 3.7925712 2.9736432 1.5385392 -5.28e-05 0.0522192"></polygon>
                    </g>
                    <polygon id="Fill-110" fill="#454A56" points="177.058358 28.3313712 26.4621984 103.369675 26.4621984 98.1662352 177.058358 23.2398672"></polygon>
                </g>
                <g id="Group-53" transform="translate(0.000000, 9.835056)">
                    <mask id="mask-7" fill="white">
                        <use xlink:href="#path-6"></use>
                    </mask>
                    <g id="Clip-52"></g>
                    <path d="M-5.28e-05,75.5561664 C-5.28e-05,75.5561664 2.2302192,77.0424864 2.6758512,77.0424864 C3.1220112,77.0424864 153.618907,1.8426144 153.618907,1.8426144 L150.943003,0.0585024 L-5.28e-05,75.5561664 Z" id="Fill-51" fill="#393D47" mask="url(#mask-7)"></path>
                </g>
            </g>
        </g>
    </g>
</svg>