<svg width="20" height="20" viewBox="0 0 20 20" fill="none" xmlns="http://www.w3.org/2000/svg">
<g clip-path="url(#clip0_180_26243)">
<path d="M3.65169 10.7692C3.75415 10.7266 3.84583 10.6658 3.92332 10.5883L6.42247 8.08914C6.74828 7.76333 6.74828 7.23665 6.42247 6.91084C6.09747 6.58502 5.56998 6.58502 5.24416 6.91084L4.16668 7.98832L4.16668 6.66666C4.16668 5.28837 5.28834 4.1667 6.66664 4.1667L14.9998 4.1667C14.9998 5.08587 15.7473 5.83336 16.6665 5.83336L18.3331 5.83336C19.2523 5.83336 19.9998 5.08587 19.9998 4.1667L19.9998 2.50009C19.9998 1.58092 19.2523 0.833435 18.3331 0.833435L16.6664 0.833435C15.7473 0.833435 14.9998 1.58092 14.9998 2.50009L6.6666 2.50009C4.36914 2.50009 2.49999 4.36924 2.49999 6.6667L2.49999 7.98836L1.4225 6.91088C1.09751 6.58506 0.570019 6.58506 0.244203 6.91088C0.0817067 7.07338 2.83281e-05 7.28669 2.83188e-05 7.50005C2.83095e-05 7.71337 0.0817067 7.92672 0.244203 8.08922L2.74334 10.5884C2.82084 10.6659 2.91252 10.7267 3.01502 10.7692C3.21834 10.8534 3.44833 10.8534 3.65169 10.7692Z" fill="#A9A9A9"/>
<path d="M5.00005 17.4998L13.3332 17.4998C15.6307 17.4998 17.4999 15.6307 17.4999 13.3332L17.4999 12.0116L18.5773 13.0891C18.9032 13.4149 19.4298 13.4149 19.7556 13.0891C20.0815 12.7632 20.0815 12.2366 19.7556 11.9108L17.2565 9.41161C17.179 9.33412 17.0873 9.2733 16.9848 9.2308C16.7815 9.14662 16.5515 9.14662 16.3482 9.2308C16.2457 9.2733 16.154 9.33412 16.0765 9.41161L13.5773 11.9108C13.4148 12.0733 13.3332 12.2866 13.3332 12.4999C13.3332 12.7133 13.4148 12.9266 13.5773 13.0891C13.9032 13.4149 14.4298 13.4149 14.7556 13.0891L15.8331 12.0116L15.8331 13.3333C15.8331 14.7116 14.7115 15.8332 13.3332 15.8332L4.99997 15.8332C4.99997 14.9141 4.25248 14.1666 3.33332 14.1666L1.66666 14.1666C0.747497 14.1666 9.28556e-06 14.9141 9.24538e-06 15.8332L9.17253e-06 17.4999C9.13235e-06 18.4191 0.747497 19.1665 1.66666 19.1665L3.33332 19.1665C4.25256 19.1665 5.00005 18.419 5.00005 17.4998Z" fill="#A9A9A9"/>
</g>
<defs>
<clipPath id="clip0_180_26243">
<rect width="20" height="20" fill="white" transform="translate(20) rotate(90)"/>
</clipPath>
</defs>
</svg>
