<svg width="16" height="16" viewBox="0 0 16 16" fill="none" xmlns="http://www.w3.org/2000/svg">
<path d="M15.7295 7.74282L12.2709 4.28414L12.2646 4.27786L12.2509 4.26588C12.2285 4.24565 12.2051 4.2266 12.1807 4.20882C12.1636 4.19513 12.1465 4.18201 12.1282 4.17002C12.1202 4.16432 12.1122 4.15976 12.1037 4.15462C11.9065 4.02548 11.668 3.9752 11.4354 4.01378C11.2029 4.05236 10.9934 4.17697 10.8485 4.36287L5.46931 9.7426V4.94997C5.46931 4.69802 5.36922 4.45639 5.19107 4.27824C5.01292 4.10009 4.77129 4 4.51934 4C4.2674 4 4.02577 4.10009 3.84761 4.27824C3.66946 4.45639 3.56938 4.69802 3.56938 4.94997V9.7426L1.60554 7.77876C1.42603 7.6076 1.18669 7.51342 0.938675 7.51637C0.690657 7.51932 0.453627 7.61916 0.278239 7.79454C0.102851 7.96993 0.00301595 8.20696 6.72169e-05 8.45498C-0.00288152 8.703 0.09129 8.94233 0.262459 9.12184L3.8478 12.7072C3.87034 12.73 3.89415 12.7515 3.91912 12.7717C3.94309 12.7911 3.96819 12.8099 3.99329 12.8287C4.12284 12.9127 4.27089 12.9638 4.42463 12.9776H4.42863C4.45943 12.9805 4.49024 12.9822 4.52105 12.9822H4.53532C4.56118 12.9822 4.58686 12.981 4.61234 12.9788H4.63117C4.6557 12.9759 4.68024 12.9731 4.7042 12.9679H4.71504C4.74186 12.9622 4.76867 12.9559 4.79492 12.948H4.79948C4.82813 12.9393 4.85631 12.9292 4.88392 12.9177C4.92327 12.9015 4.96141 12.8824 4.99803 12.8607L5.01972 12.8481C5.0556 12.8262 5.08992 12.8018 5.12242 12.7751L5.13211 12.7665C5.15208 12.7494 5.17205 12.7323 5.18917 12.7129L10.6436 7.255V12.0328C10.6436 12.2847 10.7437 12.5264 10.9219 12.7045C11.1 12.8827 11.3417 12.9828 11.5936 12.9828C11.8456 12.9828 12.0872 12.8827 12.2653 12.7045C12.4435 12.5264 12.5436 12.2847 12.5436 12.0328V7.24016L14.3865 9.08647C14.5654 9.2611 14.8059 9.35816 15.0559 9.35663C15.3059 9.35509 15.5452 9.25508 15.7219 9.07827C15.8986 8.90145 15.9986 8.6621 16 8.41211C16.0014 8.16212 15.9042 7.92164 15.7295 7.74282Z" fill="#A9A9A9"/>
</svg>
