<svg width="68" height="70" viewBox="0 0 68 70" fill="none" xmlns="http://www.w3.org/2000/svg">
<path d="M20.4631 7.92596L15.3867 13.0024" stroke="#31CB9E" stroke-width="4" stroke-linecap="round" stroke-linejoin="round"/>
<path d="M15.3867 2.84955L20.4631 7.92594" stroke="#31CB9E" stroke-width="4" stroke-linecap="round" stroke-linejoin="round"/>
<path d="M13.6938 7.92596C8.08657 7.92596 3.54102 12.4715 3.54102 18.0787" stroke="#31CB9E" stroke-width="4" stroke-linecap="round" stroke-linejoin="round"/>
<path d="M13.6953 7.92589H20.4638" stroke="#31CB9E" stroke-width="4" stroke-linecap="round" stroke-linejoin="round"/>
<path d="M47.5371 62.0741L52.6135 56.9977" stroke="#1D7A5F" stroke-width="4" stroke-linecap="round" stroke-linejoin="round"/>
<path d="M52.6135 67.1504L47.5371 62.074" stroke="#1D7A5F" stroke-width="4" stroke-linecap="round" stroke-linejoin="round"/>
<path d="M54.3047 62.074C59.9119 62.074 64.4575 57.5285 64.4575 51.9213" stroke="#1D7A5F" stroke-width="4" stroke-linecap="round" stroke-linejoin="round"/>
<path d="M54.3056 62.0741H47.5371" stroke="#1D7A5F" stroke-width="4" stroke-linecap="round" stroke-linejoin="round"/>
<path fill-rule="evenodd" clip-rule="evenodd" d="M25.5392 62.0741C35.8191 62.0741 44.1526 53.7406 44.1526 43.4607C44.1526 33.1807 35.8191 24.8472 25.5392 24.8472C15.2593 24.8472 6.92578 33.1807 6.92578 43.4607C6.98493 53.716 15.2839 62.0149 25.5392 62.0741Z" stroke="#31CB9E" stroke-width="4" stroke-linecap="round" stroke-linejoin="round"/>
<path d="M30.8053 40.8311L24.2263 47.4101L20.2734 43.4606" stroke="#98E5CE" stroke-width="4" stroke-linecap="round" stroke-linejoin="round"/>
<path d="M55.6227 13.378C62.8615 20.6592 62.8615 32.4195 55.6227 39.7008C55.0455 40.2581 54.4266 40.7706 53.7715 41.2338" stroke="#1D7A5F" stroke-width="4" stroke-linecap="round" stroke-linejoin="round"/>
<path d="M55.6228 13.3779C48.3415 6.13908 36.5812 6.13908 29.3 13.3779C28.7421 13.9533 28.2242 14.5661 27.75 15.2122" stroke="#1D7A5F" stroke-width="4" stroke-linecap="round" stroke-linejoin="round"/>
</svg>
