<svg width="44" height="44" viewBox="0 0 44 44" fill="none" xmlns="http://www.w3.org/2000/svg">
<path d="M5.20039 43.6C3.86706 43.6 2.73372 43.1334 1.80039 42.2C0.867058 41.2667 0.400391 40.1111 0.400391 38.7334V26.6C0.400391 25.2222 0.867058 24.0667 1.80039 23.1334C2.73372 22.2 3.88928 21.7334 5.26706 21.7334C6.60039 21.7334 7.73372 22.2 8.66706 23.1334C9.60039 24.0667 10.0671 25.2222 10.0671 26.6V38.7334C10.0671 40.1111 9.60039 41.2667 8.66706 42.2C7.73372 43.1334 6.57817 43.6 5.20039 43.6ZM22.0004 43.6C20.6671 43.6 19.5226 43.1334 18.5671 42.2C17.6115 41.2667 17.1337 40.1111 17.1337 38.7334V5.26669C17.1337 3.88891 17.6115 2.73336 18.5671 1.80002C19.5226 0.866691 20.6671 0.400024 22.0004 0.400024C23.3337 0.400024 24.4782 0.866691 25.4337 1.80002C26.3893 2.73336 26.8671 3.88891 26.8671 5.26669V38.7334C26.8671 40.1111 26.3893 41.2667 25.4337 42.2C24.4782 43.1334 23.3337 43.6 22.0004 43.6ZM38.7337 43.6C37.4004 43.6 36.2671 43.1334 35.3337 42.2C34.4004 41.2667 33.9337 40.1111 33.9337 38.7334V18.6C33.9337 17.2222 34.4004 16.0667 35.3337 15.1334C36.2671 14.2 37.4226 13.7334 38.8004 13.7334C40.1337 13.7334 41.2671 14.2 42.2004 15.1334C43.1337 16.0667 43.6004 17.2222 43.6004 18.6V38.7334C43.6004 40.1111 43.1337 41.2667 42.2004 42.2C41.2671 43.1334 40.1115 43.6 38.7337 43.6Z" fill="#31CB9E"/>
</svg>
