<svg width="64" height="46" viewBox="0 0 64 46" fill="none" xmlns="http://www.w3.org/2000/svg">
<path d="M2.74674 45.3042C2.03841 45.3042 1.44813 45.0799 0.975911 44.6313C0.503689 44.1827 0.267578 43.6042 0.267578 42.8959V38.2209C0.267578 36.4736 0.716189 34.8917 1.61341 33.475C2.51063 32.0583 3.76202 30.9959 5.36758 30.2875C8.8148 28.7764 11.9433 27.6903 14.753 27.0292C17.5627 26.3681 20.4315 26.0375 23.3592 26.0375C26.3815 26.0375 29.2738 26.3681 32.0363 27.0292C34.7988 27.6903 37.9037 28.7764 41.3509 30.2875C42.9565 30.9959 44.2197 32.0583 45.1405 33.475C46.0613 34.8917 46.5217 36.4736 46.5217 38.2209V42.8959C46.5217 43.6042 46.2856 44.1827 45.8134 44.6313C45.3412 45.0799 44.7745 45.3042 44.1134 45.3042H2.74674ZM49.2134 45.3042C49.7329 45.1625 50.1461 44.8674 50.453 44.4188C50.7599 43.9702 50.9134 43.4153 50.9134 42.7542V38.2209C50.9134 35.2459 50.1697 32.7785 48.6822 30.8188C47.1947 28.859 45.1995 27.2181 42.6967 25.8959C45.8606 26.2736 48.8474 26.8285 51.6572 27.5604C54.4669 28.2924 56.769 29.107 58.5634 30.0042C60.1217 30.9014 61.3731 32.0583 62.3176 33.475C63.262 34.8917 63.7342 36.4972 63.7342 38.2917V42.8959C63.7342 43.6042 63.4981 44.1827 63.0259 44.6313C62.5537 45.0799 61.9634 45.3042 61.2551 45.3042H49.2134ZM23.4301 21.7167C20.219 21.7167 17.6099 20.7014 15.603 18.6709C13.596 16.6403 12.5926 14.0431 12.5926 10.8792C12.5926 7.66808 13.596 5.05905 15.603 3.0521C17.6099 1.04516 20.1954 0.041687 23.3592 0.041687C26.5704 0.041687 29.1912 1.04516 31.2217 3.0521C33.2523 5.05905 34.2676 7.66808 34.2676 10.8792C34.2676 14.0431 33.2523 16.6403 31.2217 18.6709C29.1912 20.7014 26.594 21.7167 23.4301 21.7167ZM49.4967 10.8792C49.4967 14.0431 48.4933 16.6403 46.4863 18.6709C44.4794 20.7014 41.8704 21.7167 38.6592 21.7167C38.1398 21.7167 37.5613 21.6813 36.9238 21.6104C36.2863 21.5396 35.7079 21.3861 35.1884 21.15C36.3217 19.9695 37.1835 18.5056 37.7738 16.7584C38.3641 15.0111 38.6592 13.0514 38.6592 10.8792C38.6592 8.70696 38.3641 6.79447 37.7738 5.14169C37.1835 3.48891 36.3217 1.95419 35.1884 0.537521C35.7079 0.395854 36.2863 0.277799 36.9238 0.183354C37.5613 0.0889098 38.1398 0.041687 38.6592 0.041687C41.8704 0.041687 44.4794 1.05696 46.4863 3.08752C48.4933 5.11808 49.4967 7.7153 49.4967 10.8792ZM5.15508 40.4875H41.6342V38.2917C41.6342 37.5361 41.4099 36.8042 40.9613 36.0959C40.5127 35.3875 39.9579 34.8917 39.2967 34.6084C35.944 33.1445 33.1342 32.1528 30.8676 31.6334C28.6009 31.1139 26.0981 30.8542 23.3592 30.8542C20.7148 30.8542 18.2238 31.1139 15.8863 31.6334C13.5488 32.1528 10.7273 33.1445 7.42174 34.6084C6.76063 34.8917 6.21758 35.3875 5.79258 36.0959C5.36758 36.8042 5.15508 37.5361 5.15508 38.2917V40.4875ZM23.3592 17.0417C25.1537 17.0417 26.6412 16.4632 27.8217 15.3063C29.0023 14.1493 29.5926 12.6736 29.5926 10.8792C29.5926 9.08474 29.0141 7.59724 27.8572 6.41669C26.7002 5.23613 25.2245 4.64585 23.4301 4.64585C21.6356 4.64585 20.1481 5.23613 18.9676 6.41669C17.787 7.59724 17.1967 9.08474 17.1967 10.8792C17.1967 12.6736 17.787 14.1493 18.9676 15.3063C20.1481 16.4632 21.612 17.0417 23.3592 17.0417Z" fill="#31CB9E"/>
</svg>
