<svg id="svg" version="1.1" xmlns="http://www.w3.org/2000/svg" xmlns:xlink="http://www.w3.org/1999/xlink" width="400" height="400" viewBox="0, 0, 400,400"><g id="svgg"><path id="path0" d="M194.917 96.781 C 188.387 97.238,184.215 97.784,177.833 99.017 C 171.811 100.180,161.659 103.668,155.137 106.815 C 150.437 109.082,143.128 113.470,139.559 116.167 C 138.406 117.037,137.002 118.079,136.440 118.481 C 133.515 120.572,127.412 126.199,124.216 129.750 C 123.391 130.667,122.498 131.649,122.233 131.933 C 121.074 133.171,119.798 134.716,118.461 136.500 C 117.672 137.554,116.734 138.792,116.377 139.250 C 113.289 143.223,107.482 153.195,105.701 157.583 C 105.516 158.042,105.049 159.167,104.666 160.083 C 102.178 166.027,99.424 174.838,98.839 178.732 C 98.755 179.292,98.455 181.096,98.172 182.741 C 95.921 195.865,96.249 208.783,99.193 222.917 C 100.205 227.774,102.205 233.987,104.664 239.917 C 105.045 240.833,105.444 241.803,105.553 242.072 C 106.422 244.229,109.980 250.921,111.850 253.917 C 112.022 254.192,112.231 254.567,112.315 254.750 C 112.611 255.399,115.700 259.892,117.131 261.757 C 117.930 262.798,119.117 264.347,119.770 265.199 C 121.646 267.650,127.398 273.782,129.500 275.572 C 129.912 275.923,130.700 276.638,131.250 277.160 C 132.639 278.479,135.480 280.858,136.445 281.510 C 136.888 281.809,137.737 282.443,138.333 282.920 C 139.461 283.822,140.232 284.373,142.750 286.076 C 144.609 287.333,145.935 288.138,149.333 290.073 C 154.546 293.041,158.090 294.667,165.000 297.258 C 180.469 303.059,198.984 304.759,216.583 301.996 C 224.922 300.686,230.186 299.229,238.320 295.977 C 244.450 293.526,246.452 292.557,251.667 289.516 C 252.537 289.008,253.508 288.452,253.822 288.280 C 255.573 287.321,261.794 283.021,262.403 282.348 C 262.577 282.157,262.794 282.000,262.887 282.000 C 262.980 282.000,263.174 281.889,263.319 281.753 C 263.465 281.618,264.229 280.999,265.019 280.378 C 266.494 279.219,270.069 276.047,272.394 273.833 C 274.757 271.585,279.976 265.702,281.413 263.668 C 281.899 262.980,282.436 262.267,282.607 262.083 C 282.936 261.729,283.690 260.743,284.265 259.917 C 290.373 251.128,294.287 243.494,297.807 233.500 C 299.150 229.686,300.999 223.008,301.230 221.131 C 301.272 220.790,301.341 220.452,301.384 220.381 C 301.426 220.309,301.509 219.838,301.568 219.333 C 301.627 218.829,301.786 217.772,301.922 216.983 C 303.882 205.594,303.720 191.856,301.490 180.333 C 301.392 179.829,301.277 179.154,301.234 178.833 C 300.849 175.986,298.366 167.749,296.360 162.667 C 294.425 157.764,294.418 157.748,293.134 155.002 C 291.219 150.908,284.463 139.740,283.352 138.833 C 283.134 138.655,282.042 137.231,281.860 136.888 C 281.755 136.689,281.575 136.426,281.459 136.305 C 281.344 136.183,281.029 135.783,280.759 135.417 C 280.489 135.050,280.225 134.712,280.172 134.667 C 280.120 134.621,279.686 134.109,279.207 133.530 C 275.834 129.443,269.291 122.993,265.468 119.985 C 261.609 116.950,260.161 115.869,257.955 114.378 C 253.035 111.053,245.376 106.821,241.609 105.346 C 240.953 105.089,239.592 104.541,238.583 104.128 C 233.185 101.916,225.827 99.610,222.500 99.086 C 222.088 99.021,221.000 98.822,220.083 98.643 C 212.056 97.080,201.644 96.310,194.917 96.781 M208.559 140.171 C 208.545 140.489,208.479 141.725,208.412 142.917 C 207.957 150.971,210.029 159.090,215.281 169.833 C 217.724 174.829,218.001 175.611,217.998 177.493 C 217.992 181.559,214.997 185.437,209.917 187.960 C 207.760 189.031,207.650 188.828,209.396 187.000 C 211.500 184.799,212.378 182.449,211.995 180.049 C 211.733 178.410,211.155 177.509,208.833 175.115 C 202.833 168.929,199.931 161.969,201.001 156.329 C 201.219 155.176,201.267 155.172,199.740 156.433 C 186.326 167.508,183.262 181.094,192.500 188.534 C 194.208 189.909,192.042 189.342,189.602 187.775 C 184.236 184.328,181.226 177.209,182.178 170.220 C 183.442 160.941,190.367 151.839,202.991 142.863 C 207.697 139.517,208.605 139.078,208.559 140.171 M200.802 183.726 C 201.384 184.309,201.469 185.141,201.486 190.462 L 201.500 194.840 201.875 194.762 C 202.081 194.719,202.700 194.636,203.250 194.578 C 205.172 194.374,207.114 193.980,211.167 192.972 C 217.039 191.511,219.089 191.464,219.945 192.770 C 220.387 193.444,220.512 255.710,220.074 257.028 C 219.489 258.788,217.984 259.909,215.480 260.449 C 213.666 260.840,186.955 260.915,184.946 260.535 C 182.388 260.050,181.029 259.189,180.218 257.537 L 179.750 256.583 179.750 224.917 C 179.750 195.406,179.769 193.215,180.034 192.732 C 180.704 191.509,182.360 191.545,187.333 192.892 C 191.208 193.942,194.321 194.599,196.199 194.765 L 197.482 194.878 197.533 189.647 C 197.588 183.984,197.597 183.926,198.540 183.378 C 199.126 183.038,200.294 183.218,200.802 183.726 " stroke="none" fill="#042bab" fill-rule="evenodd"></path><path id="path1" d="M206.083 140.948 C 196.212 147.270,188.346 155.186,184.759 162.408 C 179.460 173.077,182.391 184.066,191.804 188.822 C 192.951 189.401,193.212 189.184,192.233 188.465 C 186.078 183.947,185.265 174.974,190.280 166.901 C 192.346 163.575,196.622 158.776,199.967 156.029 C 201.263 154.964,201.359 154.959,201.205 155.958 C 200.215 162.391,202.644 168.360,208.986 175.083 C 213.400 179.764,213.480 183.259,209.265 187.373 C 207.994 188.614,208.128 188.691,209.922 187.752 C 215.408 184.882,217.947 181.453,217.809 177.099 L 217.749 175.224 215.306 170.237 C 210.922 161.291,209.001 155.152,208.321 147.922 C 208.124 145.828,208.192 140.848,208.429 140.042 C 208.609 139.428,208.223 139.578,206.083 140.948 M198.274 183.742 C 198.032 183.967,197.818 184.173,197.800 184.200 C 197.781 184.228,197.725 186.650,197.675 189.583 L 197.583 194.917 196.417 194.865 C 194.589 194.783,191.772 194.235,187.206 193.072 C 180.314 191.317,180.178 191.362,179.961 195.436 C 179.883 196.892,179.841 211.208,179.868 227.250 L 179.917 256.417 180.286 257.216 C 181.709 260.299,182.536 260.476,196.083 260.603 C 215.976 260.789,218.112 260.508,219.690 257.500 L 220.083 256.750 220.083 225.000 C 220.083 200.387,220.038 193.171,219.881 192.897 C 219.164 191.647,217.112 191.708,211.250 193.153 C 207.119 194.171,203.476 194.830,201.965 194.832 L 201.180 194.833 201.132 189.485 L 201.083 184.137 200.616 183.735 C 199.965 183.176,198.882 183.179,198.274 183.742 " stroke="none" fill="#fbfbfb" fill-rule="evenodd"></path><path id="path2" d="M205.208 141.353 C 204.640 141.716,204.456 141.961,204.958 141.685 C 205.341 141.475,205.940 141.011,205.833 141.008 C 205.787 141.007,205.506 141.162,205.208 141.353 M208.235 144.417 C 208.235 145.975,208.260 146.635,208.291 145.883 C 208.321 145.131,208.321 143.856,208.291 143.050 C 208.260 142.243,208.235 142.858,208.235 144.417 M196.240 148.208 L 195.750 148.750 196.292 148.260 C 196.797 147.804,196.910 147.667,196.781 147.667 C 196.752 147.667,196.509 147.910,196.240 148.208 M208.372 148.500 C 208.372 148.821,208.406 148.952,208.448 148.792 C 208.490 148.631,208.490 148.369,208.448 148.208 C 208.406 148.048,208.372 148.179,208.372 148.500 M193.081 151.208 L 190.750 153.583 193.125 151.252 C 195.331 149.087,195.575 148.833,195.456 148.833 C 195.432 148.833,194.363 149.902,193.081 151.208 M199.406 156.542 L 198.917 157.083 199.458 156.594 C 199.963 156.138,200.077 156.000,199.948 156.000 C 199.919 156.000,199.675 156.244,199.406 156.542 M200.892 158.583 C 200.892 159.408,200.920 159.767,200.955 159.380 C 200.990 158.993,200.990 158.318,200.956 157.880 C 200.922 157.442,200.893 157.758,200.892 158.583 M187.333 157.833 C 187.138 158.108,187.015 158.333,187.061 158.333 C 187.106 158.333,187.304 158.108,187.500 157.833 C 187.696 157.558,187.819 157.333,187.773 157.333 C 187.727 157.333,187.529 157.558,187.333 157.833 M197.742 158.042 L 197.083 158.750 197.792 158.091 C 198.450 157.478,198.577 157.333,198.450 157.333 C 198.423 157.333,198.105 157.652,197.742 158.042 M186.730 158.708 C 186.157 159.682,186.119 159.765,186.411 159.417 C 186.750 159.013,187.042 158.500,186.932 158.500 C 186.889 158.500,186.798 158.594,186.730 158.708 M194.667 161.083 C 194.262 161.496,193.968 161.833,194.014 161.833 C 194.060 161.833,194.428 161.496,194.833 161.083 C 195.238 160.671,195.532 160.333,195.486 160.333 C 195.440 160.333,195.072 160.671,194.667 161.083 M213.347 166.250 C 213.347 166.342,213.491 166.679,213.667 167.000 C 213.842 167.321,213.986 167.508,213.986 167.417 C 213.986 167.325,213.842 166.987,213.667 166.667 C 213.491 166.346,213.347 166.158,213.347 166.250 M182.059 172.750 C 182.059 173.575,182.087 173.934,182.122 173.547 C 182.157 173.160,182.157 172.485,182.123 172.047 C 182.088 171.609,182.060 171.925,182.059 172.750 M206.833 172.917 C 207.144 173.237,207.436 173.500,207.482 173.500 C 207.528 173.500,207.311 173.237,207.000 172.917 C 206.689 172.596,206.397 172.333,206.351 172.333 C 206.305 172.333,206.522 172.596,206.833 172.917 M208.917 175.167 C 209.646 175.900,210.280 176.500,210.326 176.500 C 210.371 176.500,209.812 175.900,209.083 175.167 C 208.354 174.433,207.720 173.833,207.674 173.833 C 207.629 173.833,208.188 174.433,208.917 175.167 M187.048 176.083 C 187.049 176.542,187.081 176.709,187.120 176.456 C 187.158 176.203,187.157 175.828,187.117 175.623 C 187.078 175.418,187.046 175.625,187.048 176.083 M217.890 177.583 C 217.891 178.317,217.920 178.596,217.956 178.204 C 217.991 177.812,217.990 177.212,217.954 176.871 C 217.919 176.529,217.890 176.850,217.890 177.583 M187.048 178.750 C 187.049 179.208,187.081 179.376,187.120 179.123 C 187.158 178.869,187.157 178.494,187.117 178.289 C 187.078 178.084,187.046 178.292,187.048 178.750 M212.220 181.167 C 212.220 181.762,212.250 182.006,212.287 181.708 C 212.324 181.410,212.324 180.923,212.287 180.625 C 212.250 180.327,212.220 180.571,212.220 181.167 M187.762 182.333 C 187.824 182.563,187.943 182.862,188.028 183.000 C 188.135 183.174,188.149 183.123,188.071 182.833 C 188.010 182.604,187.890 182.304,187.805 182.167 C 187.698 181.993,187.685 182.044,187.762 182.333 M214.494 184.625 L 213.583 185.583 214.542 184.672 C 215.432 183.826,215.576 183.667,215.453 183.667 C 215.427 183.667,214.995 184.098,214.494 184.625 M187.083 185.667 C 187.720 186.308,188.279 186.833,188.324 186.833 C 188.370 186.833,187.887 186.308,187.250 185.667 C 186.613 185.025,186.055 184.500,186.009 184.500 C 185.963 184.500,186.447 185.025,187.083 185.667 M201.241 189.833 C 201.241 192.629,201.263 193.773,201.291 192.375 C 201.319 190.977,201.319 188.690,201.291 187.292 C 201.263 185.894,201.241 187.037,201.241 189.833 M212.750 186.098 L 212.250 186.528 212.792 186.169 C 213.090 185.972,213.333 185.778,213.333 185.739 C 213.333 185.614,213.263 185.657,212.750 186.098 M197.539 190.280 L 197.500 194.810 197.125 194.882 L 196.750 194.955 197.130 194.977 C 197.677 195.010,197.677 195.008,197.625 190.164 L 197.578 185.750 197.539 190.280 M190.833 187.250 C 191.331 187.754,191.776 188.167,191.822 188.167 C 191.868 188.167,191.498 187.754,191.000 187.250 C 190.502 186.746,190.057 186.333,190.011 186.333 C 189.966 186.333,190.335 186.746,190.833 187.250 M210.792 187.262 C 210.169 187.600,210.207 187.741,210.833 187.417 C 211.108 187.274,211.333 187.123,211.333 187.079 C 211.333 186.972,211.315 186.978,210.792 187.262 M181.711 191.953 C 181.964 191.991,182.339 191.990,182.544 191.951 C 182.749 191.911,182.542 191.880,182.083 191.881 C 181.625 191.882,181.457 191.915,181.711 191.953 M217.044 191.953 C 217.297 191.991,217.672 191.990,217.877 191.951 C 218.082 191.911,217.875 191.880,217.417 191.881 C 216.958 191.882,216.791 191.915,217.044 191.953 M180.259 192.490 C 180.098 192.668,180.005 192.912,180.053 193.032 C 180.120 193.200,180.143 193.196,180.154 193.013 C 180.161 192.883,180.291 192.639,180.442 192.471 C 180.594 192.304,180.681 192.167,180.635 192.167 C 180.589 192.167,180.420 192.312,180.259 192.490 M220.050 194.000 C 220.050 194.504,220.081 194.710,220.119 194.458 C 220.158 194.206,220.158 193.794,220.119 193.542 C 220.081 193.290,220.050 193.496,220.050 194.000 M179.894 194.917 C 179.895 195.833,179.923 196.187,179.956 195.703 C 179.990 195.218,179.990 194.468,179.956 194.036 C 179.921 193.604,179.894 194.000,179.894 194.917 M202.375 194.782 C 202.535 194.823,202.798 194.823,202.958 194.782 C 203.119 194.740,202.987 194.705,202.667 194.705 C 202.346 194.705,202.215 194.740,202.375 194.782 M220.248 225.500 C 220.248 241.862,220.268 248.556,220.292 240.375 C 220.316 232.194,220.316 218.806,220.292 210.625 C 220.268 202.444,220.248 209.137,220.248 225.500 M179.739 233.833 C 179.739 236.262,179.763 237.256,179.791 236.042 C 179.820 234.827,179.820 232.840,179.791 231.625 C 179.763 230.410,179.739 231.404,179.739 233.833 M179.895 254.667 C 179.895 255.629,179.923 256.023,179.956 255.542 C 179.990 255.060,179.990 254.273,179.956 253.792 C 179.923 253.310,179.895 253.704,179.895 254.667 M220.039 256.333 C 220.039 256.654,220.073 256.785,220.115 256.625 C 220.157 256.465,220.157 256.202,220.115 256.042 C 220.073 255.881,220.039 256.012,220.039 256.333 M180.004 256.798 C 179.998 257.108,180.624 258.288,180.873 258.437 C 181.039 258.538,181.041 258.512,180.881 258.314 C 180.770 258.177,180.528 257.731,180.343 257.324 C 180.158 256.917,180.006 256.680,180.004 256.798 M219.616 257.585 C 219.463 257.905,219.373 258.167,219.415 258.167 C 219.529 258.167,220.035 257.146,219.959 257.070 C 219.923 257.034,219.768 257.266,219.616 257.585 M218.740 258.875 L 218.250 259.417 218.792 258.927 C 219.297 258.471,219.410 258.333,219.281 258.333 C 219.252 258.333,219.009 258.577,218.740 258.875 M181.592 259.181 C 181.706 259.365,182.673 259.882,182.754 259.802 C 182.785 259.771,182.515 259.583,182.153 259.385 C 181.792 259.188,181.539 259.095,181.592 259.181 M187.201 260.623 C 187.816 260.655,188.866 260.656,189.534 260.624 C 190.203 260.592,189.700 260.566,188.417 260.566 C 187.133 260.565,186.586 260.591,187.201 260.623 M210.042 260.624 C 210.752 260.655,211.915 260.655,212.625 260.624 C 213.335 260.593,212.754 260.567,211.333 260.567 C 209.912 260.567,209.331 260.593,210.042 260.624 " stroke="none" fill="#5876c9" fill-rule="evenodd"></path><path id="path3" d="M281.500 263.500 C 281.304 263.775,281.181 264.000,281.227 264.000 C 281.273 264.000,281.471 263.775,281.667 263.500 C 281.862 263.225,281.985 263.000,281.939 263.000 C 281.894 263.000,281.696 263.225,281.500 263.500 " stroke="none" fill="#04099d" fill-rule="evenodd"></path><path id="path4" d="M208.375 141.583 C 208.377 141.950,208.411 142.080,208.451 141.873 C 208.491 141.666,208.490 141.366,208.448 141.206 C 208.406 141.047,208.374 141.217,208.375 141.583 M208.381 147.250 C 208.382 147.708,208.415 147.876,208.453 147.623 C 208.491 147.369,208.490 146.994,208.451 146.789 C 208.411 146.584,208.380 146.792,208.381 147.250 M208.539 149.167 C 208.539 149.487,208.573 149.619,208.615 149.458 C 208.657 149.298,208.657 149.035,208.615 148.875 C 208.573 148.715,208.539 148.846,208.539 149.167 M192.747 151.375 L 191.250 152.917 192.792 151.420 C 194.224 150.030,194.409 149.833,194.288 149.833 C 194.263 149.833,193.570 150.527,192.747 151.375 M196.244 159.542 L 195.417 160.417 196.292 159.590 C 196.773 159.135,197.167 158.741,197.167 158.715 C 197.167 158.590,197.012 158.729,196.244 159.542 M206.667 172.885 C 206.667 172.914,206.910 173.158,207.208 173.427 L 207.750 173.917 207.260 173.375 C 206.804 172.870,206.667 172.757,206.667 172.885 M187.042 177.417 C 187.044 177.783,187.078 177.914,187.118 177.706 C 187.158 177.499,187.156 177.199,187.115 177.040 C 187.073 176.880,187.040 177.050,187.042 177.417 M197.539 185.333 C 197.539 185.654,197.573 185.785,197.615 185.625 C 197.657 185.465,197.657 185.202,197.615 185.042 C 197.573 184.881,197.539 185.012,197.539 185.333 M187.000 185.750 C 187.311 186.071,187.603 186.333,187.649 186.333 C 187.695 186.333,187.478 186.071,187.167 185.750 C 186.856 185.429,186.564 185.167,186.518 185.167 C 186.472 185.167,186.689 185.429,187.000 185.750 M201.406 190.333 C 201.406 192.854,201.430 193.885,201.458 192.625 C 201.486 191.365,201.486 189.302,201.458 188.042 C 201.430 186.781,201.406 187.813,201.406 190.333 M209.409 187.042 L 208.750 187.750 209.458 187.091 C 210.117 186.478,210.243 186.333,210.117 186.333 C 210.090 186.333,209.771 186.652,209.409 187.042 M220.218 194.917 C 220.219 195.467,220.250 195.672,220.287 195.372 C 220.325 195.072,220.324 194.622,220.286 194.372 C 220.248 194.122,220.217 194.367,220.218 194.917 M179.747 211.917 C 179.747 221.633,179.767 225.633,179.792 220.804 C 179.816 215.976,179.816 208.026,179.792 203.138 C 179.767 198.249,179.747 202.200,179.747 211.917 M179.744 246.667 C 179.744 251.387,179.765 253.319,179.792 250.958 C 179.818 248.598,179.818 244.735,179.792 242.375 C 179.765 240.015,179.744 241.946,179.744 246.667 M220.212 255.833 C 220.212 256.246,220.245 256.415,220.284 256.208 C 220.324 256.002,220.324 255.665,220.284 255.458 C 220.245 255.252,220.212 255.421,220.212 255.833 M193.792 260.792 C 197.115 260.817,202.552 260.817,205.875 260.792 C 209.198 260.766,206.479 260.746,199.833 260.746 C 193.188 260.746,190.469 260.766,193.792 260.792 " stroke="none" fill="#2a50b9" fill-rule="evenodd"></path></g></svg>