<?xml version="1.0" encoding="UTF-8"?>
<!DOCTYPE svg PUBLIC "-//W3C//DTD SVG 1.1//EN" "http://www.w3.org/Graphics/SVG/1.1/DTD/svg11.dtd">
<svg xmlns="http://www.w3.org/2000/svg" version="1.1" width="938px" height="938px" style="shape-rendering:geometricPrecision; text-rendering:geometricPrecision; image-rendering:optimizeQuality; fill-rule:evenodd; clip-rule:evenodd" xmlns:xlink="http://www.w3.org/1999/xlink">
<g><path style="opacity:0.997" fill="#4213ad" d="M 436.5,-0.5 C 457.5,-0.5 478.5,-0.5 499.5,-0.5C 637.961,11.4719 750.794,71.1386 838,178.5C 898.489,257.114 931.656,346.114 937.5,445.5C 937.5,460.5 937.5,475.5 937.5,490.5C 927.235,637.889 863.902,756.389 747.5,846C 670.901,901.591 585.234,932.091 490.5,937.5C 475.5,937.5 460.5,937.5 445.5,937.5C 299.537,926.945 181.704,864.278 92,749.5C 37.3659,675.11 6.53253,591.777 -0.5,499.5C -0.5,478.5 -0.5,457.5 -0.5,436.5C 12.4614,291.372 76.7947,175.205 192.5,88C 265.478,35.8372 346.812,6.33716 436.5,-0.5 Z"/></g>
<g><path style="opacity:1" fill="#fdfdfe" d="M 551.5,171.5 C 584.607,169.127 605.773,183.794 615,215.5C 619.026,245.292 607.526,266.459 580.5,279C 558.791,283.7 543.291,296.2 534,316.5C 525.637,339.958 516.97,363.291 508,386.5C 503.351,399.578 503.684,412.578 509,425.5C 513.667,433.5 518.333,441.5 523,449.5C 527.664,462.517 527.664,475.517 523,488.5C 519.835,507.324 523.502,524.657 534,540.5C 551.744,563.582 570.244,586.082 589.5,608C 594.723,611.779 600.39,614.779 606.5,617C 614.466,616.286 622.466,615.453 630.5,614.5C 659.739,616.907 678.239,632.241 686,660.5C 689.558,694.589 675.058,716.755 642.5,727C 618.707,731.074 599.373,723.74 584.5,705C 571.178,693.835 555.845,689.168 538.5,691C 511.806,695.17 485.139,699.503 458.5,704C 440.869,709.301 428.702,720.468 422,737.5C 404.508,761.554 381.341,769.721 352.5,762C 324.722,747.947 313.222,725.447 318,694.5C 322.259,685.316 322.592,675.982 319,666.5C 316.507,660.843 313.507,655.51 310,650.5C 292.287,629.122 274.953,607.455 258,585.5C 242.788,568.542 223.954,561.708 201.5,565C 164.84,552.522 151.007,527.355 160,489.5C 169.208,467.469 185.708,454.969 209.5,452C 220.108,446.058 227.942,437.558 233,426.5C 244.246,396.681 254.913,366.681 265,336.5C 266.106,325.693 265.439,315.026 263,304.5C 259.135,297.435 255.802,290.102 253,282.5C 246.031,248.933 258.531,226.1 290.5,214C 305.107,210.773 319.107,212.44 332.5,219C 340.464,224.304 347.797,230.304 354.5,237C 363.912,241.798 373.912,243.965 384.5,243.5C 415.95,239.888 447.283,235.388 478.5,230C 496.389,225.778 508.222,214.945 514,197.5C 523.042,183.738 535.542,175.071 551.5,171.5 Z"/></g>
<g><path style="opacity:1" fill="#4213ad" d="M 471.5,247.5 C 489.624,245.598 505.457,250.598 519,262.5C 524.645,277.317 524.978,292.317 520,307.5C 510.67,332.81 501.337,358.143 492,383.5C 484.488,402.685 470.654,414.185 450.5,418C 435.938,424.228 425.772,434.728 420,449.5C 413.583,457.909 405.416,464.076 395.5,468C 362.024,474.395 328.358,479.562 294.5,483.5C 278.969,483.436 265.302,478.436 253.5,468.5C 247.463,456.449 245.963,443.782 249,430.5C 258.607,403.678 268.607,377.012 279,350.5C 288.233,333.241 302.4,323.074 321.5,320C 332.101,316.787 340.934,310.954 348,302.5C 356.023,284.6 368.856,271.433 386.5,263C 390.646,261.063 394.979,259.729 399.5,259C 423.71,255.586 447.71,251.752 471.5,247.5 Z"/></g>
<g><path style="opacity:1" fill="#d158fe" d="M 711.5,374.5 C 746.234,371.434 768.734,386.434 779,419.5C 782.575,453.214 768.409,475.381 736.5,486C 707.72,491.025 686.22,480.858 672,455.5C 659.625,421.1 669.459,395.266 701.5,378C 704.98,376.897 708.313,375.731 711.5,374.5 Z"/></g>
<g><path style="opacity:1" fill="#4213ad" d="M 384.5,486.5 C 398.661,485.79 411.661,489.29 423.5,497C 437.63,517.564 457.296,527.231 482.5,526C 493.885,528.359 503.885,533.359 512.5,541C 533.713,566.544 554.546,592.377 575,618.5C 579.205,625.988 581.205,633.988 581,642.5C 574.611,657.888 563.444,668.055 547.5,673C 515.202,678.079 482.869,682.912 450.5,687.5C 441.439,687.468 432.773,685.635 424.5,682C 406.151,653.995 381.151,645.495 349.5,656.5C 338.309,653.136 328.809,647.136 321,638.5C 304.667,617.833 288.333,597.167 272,576.5C 264.614,564.905 261.281,552.239 262,538.5C 269.256,520.244 282.089,507.744 300.5,501C 328.632,496.204 356.632,491.37 384.5,486.5 Z"/></g>
</svg>
