<svg width="24" height="9" viewBox="0 0 24 9" fill="none" xmlns="http://www.w3.org/2000/svg">
<path d="M4.28727 5.91933L1.8 8.24258C1.69736 8.33391 1.57115 8.38177 1.44213 8.37828C1.3131 8.37479 1.18893 8.32016 1.09002 8.22338L1.04946 8.18048C1.00781 8.13961 0.974637 8.08825 0.952433 8.03026C0.930229 7.97227 0.919574 7.90916 0.921268 7.84567C0.925689 7.7802 0.942724 7.71674 0.971101 7.66003C0.999477 7.60332 1.03846 7.55483 1.08514 7.51817L2.58729 6.2856C2.66182 6.22444 2.71772 6.13715 2.74688 6.0364C2.77603 5.93564 2.77692 5.82666 2.74941 5.72527C2.72191 5.62388 2.66744 5.53536 2.59392 5.47256C2.5204 5.40976 2.43164 5.37595 2.34054 5.37602L0.494464 5.37602C0.231053 5.37602 -1.63163e-07 5.14226 -1.74813e-07 4.87574C-1.86464e-07 4.60921 0.231053 4.37545 0.494464 4.37545L2.34054 4.37545C2.43161 4.37545 2.52032 4.34158 2.59379 4.27875C2.66726 4.21591 2.72168 4.1274 2.74914 4.02603C2.7766 3.92466 2.77569 3.81571 2.74653 3.71499C2.71737 3.61427 2.66148 3.52701 2.58696 3.46588L1.08868 2.23674C1.0411 2.20005 1.00128 2.15121 0.972238 2.09393C0.94319 2.03664 0.92567 1.9724 0.921 1.90606C0.919363 1.84232 0.930137 1.77899 0.952509 1.72082C0.974882 1.66265 1.00827 1.61116 1.05016 1.57024L1.08846 1.52966C1.18745 1.43235 1.31189 1.37733 1.44126 1.37367C1.57063 1.37001 1.6972 1.41793 1.80011 1.50952L4.28571 3.83083C4.28571 3.83083 4.28695 5.898 4.28727 5.91933ZM7.71429 8.875C7.08916 8.8408 6.4936 8.5543 6.02936 8.06442C5.46595 7.47902 5.14286 6.67388 5.14286 5.85548L5.14286 3.82039C5.14286 3.01368 5.44532 2.25532 5.99464 1.68474C6.27682 1.3878 6.60957 1.16381 6.97109 1.02746C7.3326 0.891107 7.71472 0.845474 8.09239 0.893548L10.7143 1.25807L10.7143 4.87574C10.7143 5.00842 10.7594 5.13567 10.8398 5.22949C10.9202 5.32331 11.0292 5.37602 11.1429 5.37602C11.2565 5.37602 11.3655 5.32331 11.4459 5.22949C11.5263 5.13567 11.5714 5.00842 11.5714 4.87574L11.5714 1.3772L16.7143 2.0921L16.7143 4.87574C16.7143 5.00842 16.7594 5.13567 16.8398 5.22949C16.9202 5.32331 17.0292 5.37602 17.1429 5.37602C17.2565 5.37602 17.3655 5.32331 17.4459 5.22949C17.5263 5.13567 17.5714 5.00842 17.5714 4.87574L17.5714 2.21123L22.6378 2.9155C23.3762 3.01606 24 3.91394 24 4.87624C24 5.81277 23.389 6.658 22.6349 6.76074L20.5714 7.05822L20.5714 4.37545C20.5714 4.24277 20.5263 4.11552 20.4459 4.0217C20.3655 3.92788 20.2565 3.87517 20.1429 3.87517C20.0292 3.87517 19.9202 3.92788 19.8398 4.0217C19.7594 4.11552 19.7143 4.24277 19.7143 4.37545L19.7143 7.1821L14.5714 7.92409L14.5714 4.37545C14.5714 4.24277 14.5263 4.11552 14.4459 4.0217C14.3655 3.92788 14.2565 3.87517 14.1429 3.87517C14.0292 3.87517 13.9202 3.92788 13.8398 4.0217C13.7594 4.11552 13.7143 4.24277 13.7143 4.37545L13.7143 8.04772L8.57143 8.7897L8.57143 5.37602C8.57143 5.24334 8.52628 5.11609 8.4459 5.02227C8.36553 4.92845 8.25652 4.87574 8.14286 4.87574C8.02919 4.87574 7.92018 4.92845 7.83981 5.02227C7.75944 5.11609 7.71429 5.24334 7.71429 5.37602L7.71429 8.875ZM8.14286 3.87517C8.22762 3.87517 8.31048 3.84583 8.38096 3.79086C8.45144 3.73589 8.50637 3.65775 8.53881 3.56634C8.57124 3.47492 8.57973 3.37433 8.56319 3.27729C8.54666 3.18024 8.50584 3.0911 8.4459 3.02113C8.38597 2.95117 8.3096 2.90352 8.22647 2.88422C8.14333 2.86492 8.05716 2.87482 7.97885 2.91269C7.90054 2.95055 7.8336 3.01468 7.78651 3.09695C7.73942 3.17922 7.71429 3.27594 7.71429 3.37489C7.71429 3.50757 7.75944 3.63482 7.83981 3.72864C7.92018 3.82246 8.02919 3.87517 8.14286 3.87517Z" fill="white"/>
</svg>
