<?xml version="1.0" encoding="UTF-8"?>
<svg width="229px" height="47px" viewBox="0 0 229 47" version="1.1" xmlns="http://www.w3.org/2000/svg" xmlns:xlink="http://www.w3.org/1999/xlink">
    <!-- Generator: Sketch 55.2 (78181) - https://sketchapp.com -->
    <title>chainsecurity</title>
    <desc>Created with Sketch.</desc>
    <g id="Page-1" stroke="none" stroke-width="1" fill="none" fill-rule="evenodd">
        <g id="chainsecurity" transform="translate(1.000000, 1.000000)">
            <g id="Group_481" transform="translate(61.623000, 15.127000)" fill="#FFFFFF" fill-rule="nonzero">
                <path d="M0,2.009 C0.0171487091,1.48032416 0.23112936,0.977113001 0.6,0.598 C0.789285818,0.422086594 1.00573911,0.27789696 1.241,0.171 C1.4866853,0.0737173938 1.74624037,0.0160009875 2.01,1.42108547e-14 L9.49,1.42108547e-14 C10.2951938,0.00960030255 11.0176086,0.4969748 11.328,1.24 C11.4252826,1.4856853 11.482999,1.74524037 11.499,2.009 L11.499,3.809 L9.533,3.809 L9.533,2.009 L2.053,2.009 L2.053,11.883 L9.533,11.883 L9.533,10.083 L11.5,10.083 L11.5,11.883 C11.4903997,12.6881938 11.0030252,13.4106086 10.26,13.721 C10.0143147,13.8182826 9.75475963,13.875999 9.491,13.892 L2.011,13.892 C1.20580617,13.8823997 0.483391394,13.3950252 0.173,12.652 C0.0757173938,12.4063147 0.0180009875,12.1467596 0.002,11.883 L0.002,2.009" id="Path_241"></path>
                <polyline id="Path_242" points="26.501 0.043 26.501 13.849 24.535 13.849 24.535 7.949 16.627 7.949 16.627 13.849 14.618 13.849 14.618 0.043 16.627 0.043 16.627 5.984 24.535 5.984 24.535 0.043 26.501 0.043"></polyline>
                <path d="M36.161,0.043 L41.504,13.849 L39.538,13.849 L38.298,10.686 L32.057,10.686 L30.817,13.849 L28.852,13.849 L34.195,0.043 L36.161,0.043 L36.161,0.043 Z M32.827,8.72 L37.527,8.72 L35.176,2.608 L32.827,8.72 Z" id="Path_243"></path>
                <rect id="Rectangle_110" x="43.855" y="0.043" width="1.966" height="13.806"></rect>
                <polyline id="Path_244" points="51.378 13.849 49.412 13.849 49.412 0.043 51.378 0.043 59.67 10.772 59.67 0.043 61.636 0.043 61.636 13.849 59.67 13.849 51.378 3.12 51.378 13.849"></polyline>
                <path d="M67.193,7.95 C66.3878062,7.9403997 65.6653914,7.4530252 65.355,6.71 C65.2577174,6.4643147 65.200001,6.20475963 65.184,5.941 L65.184,2.009 C65.2011487,1.48032416 65.4151294,0.977113001 65.784,0.598 C65.9732858,0.422086594 66.1897391,0.27789696 66.425,0.171 C66.6706853,0.0737173938 66.9302404,0.0160009875 67.194,0 L73.905,0 C74.7101938,0.00960030255 75.4326086,0.4969748 75.743,1.24 C75.8402826,1.4856853 75.897999,1.74524037 75.914,2.009 L75.914,3.809 L73.948,3.809 L73.948,2.009 L67.236,2.009 L67.236,5.941 L73.947,5.941 C74.7521938,5.9506003 75.4746086,6.4379748 75.785,7.181 C75.8822826,7.4266853 75.939999,7.68624037 75.956,7.95 L75.956,11.882 C75.9463997,12.6871938 75.4590252,13.4096086 74.716,13.72 C74.4703147,13.8172826 74.2107596,13.874999 73.947,13.891 L67.065,13.891 C66.2598062,13.8813997 65.5373914,13.3940252 65.227,12.651 C65.1297174,12.4053147 65.072001,12.1457596 65.056,11.882 L65.056,10.082 L67.022,10.082 L67.022,11.882 L73.904,11.882 L73.904,7.95 L67.193,7.95" id="Path_245"></path>
                <polyline id="Path_246" points="79.418 0.043 89.506 0.043 89.506 2.009 81.385 2.009 81.385 5.984 88.31 5.984 88.31 7.95 81.385 7.95 81.385 11.883 89.506 11.883 89.506 13.849 79.418 13.849 79.418 0.043"></polyline>
                <path d="M92.455,2.009 C92.4721487,1.48032416 92.6861294,0.977113001 93.055,0.598 C93.2442858,0.422086594 93.4607391,0.27789696 93.696,0.171 C93.9416853,0.0737173938 94.2012404,0.0160009875 94.465,1.42108547e-14 L101.945,1.42108547e-14 C102.750194,0.00960030255 103.472609,0.4969748 103.783,1.24 C103.880283,1.4856853 103.937999,1.74524037 103.954,2.009 L103.954,3.809 L101.988,3.809 L101.988,2.009 L94.508,2.009 L94.508,11.883 L101.988,11.883 L101.988,10.083 L103.955,10.083 L103.955,11.883 C103.9454,12.6881938 103.458025,13.4106086 102.715,13.721 C102.469315,13.8182826 102.20976,13.875999 101.946,13.892 L94.466,13.892 C93.6608062,13.8823997 92.9383914,13.3950252 92.628,12.652 C92.5307174,12.4063147 92.473001,12.1467596 92.457,11.883 L92.457,2.009" id="Path_247"></path>
                <path d="M107.074,0.043 L109.04,0.043 L109.04,11.883 L116.948,11.883 L116.948,0.043 L118.914,0.043 L118.914,11.883 C118.9044,12.6881938 118.417025,13.4106086 117.674,13.721 C117.428315,13.8182826 117.16876,13.875999 116.905,13.892 L108.997,13.892 C108.191806,13.8823997 107.469391,13.3950252 107.159,12.652 C107.061717,12.4063147 107.004001,12.1467596 106.988,11.883 L106.988,0.043" id="Path_248"></path>
                <path d="M133.404,4.959 C133.404,6.882 132.592,7.994 130.925,8.25 L133.532,13.85 L131.352,13.85 L128.787,8.336 L124.47,8.336 L124.47,13.85 L122.504,13.85 L122.504,0.043 L130.07,0.043 C132.293,0.043 133.404,1.154 133.404,3.42 L133.404,4.959 L133.404,4.959 Z M124.428,6.37 L129.899,6.37 C130.311817,6.39438871 130.720132,6.27338014 131.053,6.028 C131.31153,5.70181896 131.434059,5.2883745 131.395,4.874 L131.395,3.505 C131.419389,3.09218332 131.29838,2.68386785 131.053,2.351 C130.726819,2.09247008 130.313374,1.96994147 129.899,2.009 L124.428,2.009 L124.428,6.37 Z" id="Path_249"></path>
                <rect id="Rectangle_111" x="136.695" y="0.043" width="1.966" height="13.806"></rect>
                <polyline id="Path_250" points="141.013 0.043 152.084 0.043 152.084 2.009 147.553 2.009 147.553 13.849 145.587 13.849 145.587 2.009 141.013 2.009 141.013 0.043"></polyline>
                <polyline id="Path_251" points="155.374 0.043 159.392 6.497 163.41 0.043 165.718 0.043 160.375 8.378 160.375 13.849 158.409 13.849 158.409 8.378 153.066 0.043 155.374 0.043"></polyline>
            </g>
            <g id="logo" stroke="#FFFFFF">
                <path d="M38.966,33.617 L19.554,0" id="Line_108" stroke-width="0.28"></path>
                <path d="M0.142,11.194 L38.966,33.617" id="Line_109" stroke-width="0.28"></path>
                <path d="M38.966,11.194 L0.142,33.617" id="Line_110" stroke-width="0.28"></path>
                <path d="M19.554,44.846 L19.554,0" id="Line_111" stroke-width="0.28"></path>
                <path d="M38.966,33.617 L0.142,33.617" id="Line_112" stroke-width="0.28"></path>
                <path d="M19.554,0 L0.142,33.617" id="Line_113" stroke-width="0.28"></path>
                <path d="M38.966,11.194 L0.142,11.194" id="Line_114" stroke-width="0.28"></path>
                <path d="M19.554,44.846 L38.966,11.194" id="Line_115" stroke-width="0.28"></path>
                <path d="M0.142,11.194 L19.554,44.846" id="Line_116" stroke-width="0.28"></path>
                <polygon id="Path_238" stroke-width="0.28" points="38.966 33.617 38.966 11.194 19.554 0 0.142 11.194 0.142 33.617 19.554 44.846"></polygon>
                <path d="M0.142,22.423 L38.966,22.423" id="Line_117" stroke-width="0.28"></path>
                <path d="M9.671,39.143 L29.402,5.703" id="Line_118" stroke-width="0.28"></path>
                <path d="M28.941,39.426 L10.131,5.42" id="Line_119" stroke-width="0.28"></path>
                <polyline id="Path_239" stroke-width="3" stroke-linecap="round" stroke-linejoin="round" points="29.118 16.826 25.965 11.335 13.213 11.194 9.706 16.826 29.118 28.02 25.611 33.62 12.93 33.62 9.706 28.02"></polyline>
                <polyline id="Path_240" stroke-width="2" stroke-linecap="round" stroke-linejoin="round" points="29.26 5.7 19.412 0 0 11.194 0 33.617 19.412 44.846 28.835 39.426"></polyline>
            </g>
        </g>
    </g>
</svg>