<svg xmlns="http://www.w3.org/2000/svg" width="228.342" height="46.846" viewBox="0 0 228.342 46.846">
  <g id="Group_687" data-name="Group 687" transform="translate(-238.518 -77.025)">
    <g id="Group_481" data-name="Group 481" transform="translate(301.141 93.152)">
      <path id="Path_241" data-name="Path 241" d="M128.2,66.609a2.122,2.122,0,0,1,.6-1.411,2.4,2.4,0,0,1,.641-.427,2.5,2.5,0,0,1,.769-.171h7.48a2.018,2.018,0,0,1,1.838,1.24,2.5,2.5,0,0,1,.171.769v1.8h-1.966v-1.8h-7.48v9.874h7.48v-1.8H139.7v1.8a2.018,2.018,0,0,1-1.24,1.838,2.5,2.5,0,0,1-.769.171h-7.48a2.018,2.018,0,0,1-1.838-1.24,2.5,2.5,0,0,1-.171-.769V66.609" transform="translate(-128.2 -64.6)" fill="#191d34"/>
      <path id="Path_242" data-name="Path 242" d="M174.283,64.7V78.506h-1.966v-5.9h-7.908v5.9H162.4V64.7h2.009v5.941h7.908V64.7h1.966" transform="translate(-147.782 -64.657)" fill="#191d34"/>
      <path id="Path_243" data-name="Path 243" d="M203.009,64.7l5.343,13.806h-1.966l-1.24-3.163h-6.241l-1.24,3.163H195.7L201.043,64.7h1.966m-3.334,8.677h4.7l-2.351-6.112Z" transform="translate(-166.848 -64.657)" fill="#191d34"/>
      <rect id="Rectangle_110" data-name="Rectangle 110" width="1.966" height="13.806" transform="translate(43.855 0.043)" fill="#191d34"/>
      <path id="Path_244" data-name="Path 244" d="M245.766,78.506H243.8V64.7h1.966l8.292,10.729V64.7h1.966V78.506h-1.966l-8.292-10.729V78.506" transform="translate(-194.388 -64.657)" fill="#191d34"/>
      <path id="Path_245" data-name="Path 245" d="M282.537,72.55a2.018,2.018,0,0,1-1.838-1.24,2.5,2.5,0,0,1-.171-.769V66.609a2.122,2.122,0,0,1,.6-1.411,2.4,2.4,0,0,1,.641-.427,2.5,2.5,0,0,1,.769-.171h6.711a2.018,2.018,0,0,1,1.838,1.24,2.5,2.5,0,0,1,.171.769v1.8h-1.966v-1.8H282.58v3.932h6.711a2.018,2.018,0,0,1,1.838,1.24,2.5,2.5,0,0,1,.171.769v3.932a2.018,2.018,0,0,1-1.24,1.838,2.5,2.5,0,0,1-.769.171h-6.882a2.018,2.018,0,0,1-1.838-1.24,2.5,2.5,0,0,1-.171-.769v-1.8h1.966v1.8h6.882V72.55h-6.711" transform="translate(-215.344 -64.6)" fill="#191d34"/>
      <path id="Path_246" data-name="Path 246" d="M314,64.7h10.088v1.966h-8.121v3.975h6.925v1.966h-6.925V76.54h8.121v1.966H314V64.7" transform="translate(-234.582 -64.657)" fill="#191d34"/>
      <path id="Path_247" data-name="Path 247" d="M344.5,66.609a2.122,2.122,0,0,1,.6-1.411,2.4,2.4,0,0,1,.641-.427,2.5,2.5,0,0,1,.769-.171h7.48a2.018,2.018,0,0,1,1.838,1.24,2.5,2.5,0,0,1,.171.769v1.8h-1.966v-1.8h-7.48v9.874h7.48v-1.8H356v1.8a2.018,2.018,0,0,1-1.24,1.838,2.5,2.5,0,0,1-.769.171h-7.48a2.018,2.018,0,0,1-1.838-1.24,2.5,2.5,0,0,1-.171-.769V66.609" transform="translate(-252.045 -64.6)" fill="#191d34"/>
      <path id="Path_248" data-name="Path 248" d="M378.586,64.7h1.966V76.54h7.908V64.7h1.966V76.54a2.018,2.018,0,0,1-1.24,1.838,2.5,2.5,0,0,1-.769.171h-7.908a2.018,2.018,0,0,1-1.838-1.24,2.5,2.5,0,0,1-.171-.769V64.7" transform="translate(-271.512 -64.657)" fill="#191d34"/>
      <path id="Path_249" data-name="Path 249" d="M425.7,69.616c0,1.923-.812,3.035-2.479,3.291l2.607,5.6h-2.18l-2.565-5.514h-4.317v5.514H414.8V64.7h7.566c2.223,0,3.334,1.111,3.334,3.377v1.539m-8.976,1.411h5.471a1.769,1.769,0,0,0,1.154-.342,1.614,1.614,0,0,0,.342-1.154V68.162a1.769,1.769,0,0,0-.342-1.154,1.614,1.614,0,0,0-1.154-.342h-5.471Z" transform="translate(-292.296 -64.657)" fill="#191d34"/>
      <rect id="Rectangle_111" data-name="Rectangle 111" width="1.966" height="13.806" transform="translate(136.695 0.043)" fill="#191d34"/>
      <path id="Path_250" data-name="Path 250" d="M458.1,64.7h11.071v1.966H464.64v11.84h-1.966V66.666H458.1V64.7" transform="translate(-317.087 -64.657)" fill="#191d34"/>
      <path id="Path_251" data-name="Path 251" d="M488.608,64.7l4.018,6.454,4.018-6.454h2.308l-5.343,8.335v5.471h-1.966V73.035L486.3,64.7h2.308" transform="translate(-333.234 -64.657)" fill="#191d34"/>
    </g>
    <g id="logo" transform="translate(239.518 78.025)">
      <line id="Line_108" data-name="Line 108" x1="19.412" y1="33.617" transform="translate(19.554 0)" fill="none" stroke="#191d34" stroke-miterlimit="10" stroke-width="0.28"/>
      <line id="Line_109" data-name="Line 109" x2="38.824" y2="22.423" transform="translate(0.142 11.194)" fill="none" stroke="#191d34" stroke-miterlimit="10" stroke-width="0.28"/>
      <line id="Line_110" data-name="Line 110" x1="38.824" y2="22.423" transform="translate(0.142 11.194)" fill="none" stroke="#191d34" stroke-miterlimit="10" stroke-width="0.28"/>
      <line id="Line_111" data-name="Line 111" y1="44.846" transform="translate(19.554 0)" fill="none" stroke="#191d34" stroke-miterlimit="10" stroke-width="0.28"/>
      <line id="Line_112" data-name="Line 112" x1="38.824" transform="translate(0.142 33.617)" fill="none" stroke="#191d34" stroke-miterlimit="10" stroke-width="0.28"/>
      <line id="Line_113" data-name="Line 113" x1="19.412" y2="33.617" transform="translate(0.142 0)" fill="none" stroke="#191d34" stroke-miterlimit="10" stroke-width="0.28"/>
      <line id="Line_114" data-name="Line 114" x1="38.824" transform="translate(0.142 11.194)" fill="none" stroke="#191d34" stroke-miterlimit="10" stroke-width="0.28"/>
      <line id="Line_115" data-name="Line 115" y1="33.652" x2="19.412" transform="translate(19.554 11.194)" fill="none" stroke="#191d34" stroke-miterlimit="10" stroke-width="0.28"/>
      <line id="Line_116" data-name="Line 116" x2="19.412" y2="33.652" transform="translate(0.142 11.194)" fill="none" stroke="#191d34" stroke-miterlimit="10" stroke-width="0.28"/>
      <path id="Path_238" data-name="Path 238" d="M44.124,37.217V14.794L24.712,3.6,5.3,14.794V37.217L24.712,48.446Z" transform="translate(-5.158 -3.6)" fill="none" stroke="#191d34" stroke-miterlimit="10" stroke-width="0.28"/>
      <line id="Line_117" data-name="Line 117" x2="38.824" transform="translate(0.142 22.423)" fill="none" stroke="#191d34" stroke-miterlimit="10" stroke-width="0.28"/>
      <line id="Line_118" data-name="Line 118" y1="33.44" x2="19.731" transform="translate(9.671 5.703)" fill="none" stroke="#191d34" stroke-miterlimit="10" stroke-width="0.28"/>
      <line id="Line_119" data-name="Line 119" x1="18.81" y1="34.006" transform="translate(10.131 5.42)" fill="none" stroke="#191d34" stroke-miterlimit="10" stroke-width="0.28"/>
      <path id="Path_239" data-name="Path 239" d="M51.712,40.832l-3.153-5.491L35.807,35.2,32.3,40.832,51.712,52.026l-3.507,5.6H35.524l-3.224-5.6" transform="translate(-22.594 -24.006)" fill="none" stroke="#191d34" stroke-linecap="round" stroke-linejoin="round" stroke-miterlimit="10" stroke-width="3"/>
      <path id="Path_240" data-name="Path 240" d="M34.16,9.3,24.312,3.6,4.9,14.794V37.217L24.312,48.446l9.423-5.42" transform="translate(-4.9 -3.6)" fill="none" stroke="#191d34" stroke-linecap="round" stroke-linejoin="round" stroke-miterlimit="10" stroke-width="2"/>
    </g>
  </g>
</svg>
