<svg width="28" height="28" viewBox="0 0 28 28" fill="none" xmlns="http://www.w3.org/2000/svg">
<path d="M8 10H9.33333H20" stroke="white" stroke-width="2" stroke-linecap="round" stroke-linejoin="round"/>
<path d="M11.3334 10V8.66671C11.3334 8.31309 11.4739 7.97395 11.7239 7.7239C11.9739 7.47385 12.3131 7.33337 12.6667 7.33337H15.3334C15.687 7.33337 16.0261 7.47385 16.2762 7.7239C16.5262 7.97395 16.6667 8.31309 16.6667 8.66671V10M18.6667 10V19.3334C18.6667 19.687 18.5262 20.0261 18.2762 20.2762C18.0261 20.5262 17.687 20.6667 17.3334 20.6667H10.6667C10.3131 20.6667 9.97395 20.5262 9.7239 20.2762C9.47385 20.0261 9.33337 19.687 9.33337 19.3334V10H18.6667Z" stroke="white" stroke-width="2" stroke-linecap="round" stroke-linejoin="round"/>
</svg>
