<svg width="10" height="11" viewBox="0 0 10 11" fill="none" xmlns="http://www.w3.org/2000/svg">
<path fill-rule="evenodd" clip-rule="evenodd" d="M4.42304 3.59078C4.4352 3.4327 4.56702 3.31064 4.72556 3.31064C4.88144 3.31064 5.01196 3.42876 5.02747 3.58386L5.27792 6.08842L7.07423 7.11488C7.16583 7.16722 7.22237 7.26464 7.22237 7.37015C7.22237 7.56401 7.03803 7.70481 6.851 7.6538L4.56547 7.03048C4.3341 6.96737 4.18011 6.74887 4.19851 6.50975L4.42304 3.59078Z" fill="#8780BF"/>
<path opacity="0.3" fill-rule="evenodd" clip-rule="evenodd" d="M5 10.5001C2.23858 10.5001 0 8.26149 0 5.50006C0 2.73864 2.23858 0.500061 5 0.500061C7.76142 0.500061 10 2.73864 10 5.50006C10 8.26149 7.76142 10.5001 5 10.5001Z" fill="#7873A4"/>
</svg>
