<svg width="227" height="40" viewBox="0 0 227 40" fill="none" xmlns="http://www.w3.org/2000/svg">
<g clip-path="url(#clip0_15778_167478)">
<path fill-rule="evenodd" clip-rule="evenodd" d="M33.3204 23.7795C32.6432 24.2065 31.8457 24.2594 31.2395 23.9183C30.4694 23.4847 30.0461 22.469 30.0461 21.0565V16.8304C30.0461 14.7897 29.2372 13.3375 27.8847 12.9454C25.5926 12.2793 23.8688 15.0769 23.2209 16.1275L19.1785 22.6655V14.6744C19.133 12.8358 18.5344 11.7361 17.3979 11.4045C16.6458 11.1853 15.5206 11.2731 14.4276 12.9416L5.37097 27.4481C4.1585 25.1521 3.52645 22.5954 3.52972 20.0003C3.52972 11.2618 10.55 4.15311 19.1785 4.15311C27.807 4.15311 34.8263 11.2618 34.8263 20.0003C34.8263 20.0154 34.8301 20.0286 34.8311 20.0428C34.8311 20.0579 34.8282 20.0711 34.8292 20.0862C34.9106 21.7784 34.3613 23.1247 33.3204 23.7804V23.7795ZM38.3033 20.0012V20.0003V19.9568L38.3024 19.9133C38.2541 9.2711 29.6947 0.631836 19.1775 0.631836C8.63295 0.631836 0.0527344 9.32023 0.0527344 20.0003C0.0527344 30.6793 8.63295 39.3687 19.1785 39.3687C24.0175 39.3687 28.6358 37.5339 32.1809 34.2034C32.8856 33.5421 32.9273 32.4282 32.2738 31.7158C32.1199 31.5466 31.9338 31.4097 31.7263 31.3132C31.5188 31.2166 31.294 31.1624 31.0652 31.1536C30.8364 31.1448 30.6081 31.1816 30.3938 31.2619C30.1794 31.3422 29.9833 31.4644 29.8169 31.6213C26.9433 34.3357 23.136 35.8481 19.1785 35.8474C14.5583 35.8474 10.4013 33.8076 7.53426 30.5726L15.7015 17.4909V23.5215C15.7015 26.4183 16.8277 27.3546 17.772 27.6286C18.7172 27.9026 20.1616 27.7155 21.678 25.259L26.1703 17.9944C26.3143 17.7601 26.4469 17.5579 26.5681 17.3832V21.0565C26.5681 23.7643 27.6555 25.9298 29.5507 26.9965C31.2594 27.9583 33.4075 27.8714 35.1578 26.7698C37.2794 25.4329 38.4227 22.9698 38.3033 20.0012V20.0012ZM64.9305 13.3838C65.3899 13.6625 65.7877 14.2823 65.7877 14.8407C65.7877 15.7392 65.0224 16.4828 64.1652 16.4828C63.9511 16.4828 63.7371 16.4213 63.5533 16.359C62.5427 15.6154 61.2574 15.1194 59.9106 15.1194C56.7282 15.1194 54.5242 17.7223 54.5242 20.9451C54.5242 24.1687 56.7282 26.7405 59.9106 26.7405C61.5018 26.7405 62.9102 26.0895 63.9814 25.0984C64.2582 24.9 64.5897 24.7917 64.9305 24.7885C65.7877 24.7885 66.4611 25.4697 66.4611 26.338C66.4611 26.8954 66.1239 27.3914 65.6958 27.6702C64.1652 28.9721 62.0843 29.8394 59.9419 29.8394C55.0451 29.8394 51.0652 25.8108 51.0652 20.8525C51.0652 15.8942 55.0442 11.8655 59.9419 11.8655C61.7784 11.8655 63.5221 12.423 64.9305 13.3838V13.3838ZM73.8848 17.1337C77.2207 17.1337 80.0366 19.954 80.0366 23.4242C80.0366 26.8954 77.2207 29.8394 73.8848 29.8394C70.3955 29.8394 67.4878 26.8954 67.4878 23.4242C67.4878 19.954 70.3955 17.1337 73.8848 17.1337ZM73.8536 26.7405C75.3235 26.7405 76.5776 25.3459 76.5776 23.4554C76.5776 21.5658 75.3235 20.3876 73.8536 20.3876C72.2624 20.3876 70.9458 21.5346 70.9458 23.4554C70.9458 25.3459 72.2624 26.7405 73.8536 26.7405ZM82.1345 27.9177V19.0555C82.1345 18.0946 82.8998 17.2887 83.8488 17.2887C84.7979 17.2887 85.5935 18.0946 85.5935 19.0555V27.9177C85.5935 28.8785 84.7979 29.6845 83.8488 29.6845C82.8998 29.6845 82.1345 28.8785 82.1345 27.9177V27.9177ZM81.8598 13.9422C81.8598 12.7952 82.7463 11.8655 83.8488 11.8655C84.9807 11.8655 85.8994 12.7952 85.8994 13.9422C85.8994 15.0571 84.9807 15.9565 83.8488 15.9565C82.7463 15.9565 81.8598 15.0571 81.8598 13.9422ZM92.2216 23.1143V27.9177C92.2216 28.8785 91.426 29.6845 90.476 29.6845C89.5279 29.6845 88.7617 28.8785 88.7617 27.9177V18.652C88.7617 17.9085 89.3745 17.2887 90.1095 17.2887C90.8435 17.2887 91.426 17.9085 91.426 18.652C92.8335 17.351 94.0572 17.1337 95.2203 17.1337C98.6793 17.1337 100.21 19.7367 100.21 22.6807V27.9177C100.21 28.8785 99.4143 29.6845 98.4652 29.6845C97.5162 29.6845 96.7509 28.8785 96.7509 27.9177V23.1143C96.7509 21.596 96.5671 20.3253 94.3944 20.3253C92.8638 20.3253 92.2207 21.596 92.2207 23.1143H92.2216ZM111.459 24.9435C111.061 24.9435 110.787 24.7573 110.572 24.5088L106.531 20.1401V27.9177C106.531 28.8785 105.736 29.6845 104.786 29.6845C103.837 29.6845 103.072 28.8785 103.072 27.9177V12.5174C103.122 12.3877 103.21 12.2763 103.325 12.1986C103.441 12.1208 103.577 12.0804 103.716 12.0828C104.021 12.0828 104.266 12.3313 104.45 12.5174L110.878 19.7376C111.061 19.9549 111.306 20.0787 111.429 20.0787C111.551 20.0787 111.795 19.9549 111.979 19.7385L118.407 12.5174C118.591 12.3313 118.836 12.0828 119.141 12.0828C119.447 12.0828 119.693 12.2689 119.785 12.5174V27.9177C119.785 28.8785 119.019 29.6845 118.07 29.6845C117.121 29.6845 116.326 28.8785 116.326 27.9177V20.1401L112.286 24.5088C112.071 24.7573 111.795 24.9435 111.459 24.9435V24.9435ZM128.096 26.7405C129.657 26.7405 130.972 25.3459 130.972 23.4554C130.972 21.5658 129.626 20.3253 128.096 20.3253C126.565 20.3253 125.341 21.596 125.341 23.4554C125.341 25.2836 126.565 26.7405 128.096 26.7405ZM131.769 28.3211L131.706 27.9177C131.034 29.2499 128.89 29.8394 127.513 29.8394C124.268 29.8394 121.882 26.8954 121.882 23.4242C121.882 19.954 124.33 17.1337 127.697 17.1337C128.279 17.1337 130.207 17.2887 131.706 19.0555L131.768 18.652C131.768 17.9085 132.349 17.2887 133.084 17.2887C133.818 17.2887 134.43 17.9085 134.43 18.652V28.3211C134.43 29.0647 133.818 29.6845 133.083 29.6845C132.349 29.6845 131.767 29.0647 131.767 28.3211H131.769ZM144.028 20.3253H143.661C141.488 20.45 141.059 21.6896 141.059 23.1143V27.9177C141.059 28.8785 140.264 29.6845 139.315 29.6845C138.366 29.6845 137.6 28.8785 137.6 27.9177V18.652C137.6 17.9085 138.212 17.2887 138.947 17.2887C139.682 17.2887 140.264 17.9085 140.264 18.652C141.549 17.4436 142.59 17.1961 143.661 17.1337H143.997C144.824 17.1337 145.589 17.8461 145.589 18.7456C145.589 19.5817 144.855 20.3253 144.028 20.3253V20.3253ZM157.359 27.1127C157.512 27.3603 157.604 27.639 157.604 27.9489C157.604 28.8474 156.777 29.6845 155.89 29.6845C155.278 29.6845 154.757 29.2196 154.359 28.7236L150.381 24.1064V27.9177C150.381 28.8785 149.585 29.6845 148.636 29.6845C147.687 29.6845 146.921 28.8785 146.921 27.9177V13.8496C146.921 12.8878 147.687 12.0828 148.636 12.0828C149.585 12.0828 150.38 12.8878 150.38 13.8496V22.6192L154.359 18.2184C154.757 17.7535 155.247 17.2887 155.86 17.2887C156.717 17.2887 157.512 18.0946 157.512 18.9931C157.512 19.2718 157.451 19.5505 157.297 19.799L154.145 23.2381L157.359 27.1118V27.1127ZM164.14 20.3876C163.191 20.3876 161.661 20.8836 161.661 22.3396H166.649C166.649 20.8525 165.058 20.3876 164.14 20.3876H164.14ZM168.67 24.54H161.661C161.661 26.6167 163.65 26.9266 164.537 26.9266C165.181 26.9266 166.099 26.8028 166.803 26.492C167.017 26.338 167.384 26.2133 167.69 26.2133C168.456 26.2133 169.098 26.8652 169.098 27.6399C169.098 28.1662 168.762 28.631 168.333 28.8786C167.262 29.6533 165.884 29.8394 164.569 29.8394C161.079 29.8394 158.172 27.9498 158.172 23.5792C158.172 20.1401 159.946 17.1337 164.079 17.1337C167.415 17.1337 169.955 19.303 170.017 23.1767C170.017 23.9202 169.405 24.54 168.67 24.54V24.54ZM178.297 29.8394H177.348C174.715 29.8394 173.186 28.6924 173.186 24.5712V20.3253H172.298C171.471 20.3253 170.737 19.5817 170.737 18.7456C170.737 17.8461 171.471 17.1337 172.298 17.1337H173.186V13.8487C173.186 12.8878 173.951 12.0819 174.9 12.0819C175.848 12.0819 176.645 12.8878 176.645 13.8487V17.1337H178.082C178.909 17.1337 179.644 17.8461 179.644 18.7456C179.644 19.5817 178.909 20.3253 178.082 20.3253H176.645V23.8891C176.645 26.2444 176.767 26.7405 177.808 26.7405H178.297C179.123 26.7405 179.827 27.4226 179.827 28.2899C179.827 29.127 179.123 29.8394 178.297 29.8394ZM195.056 13.3838C195.515 13.6625 195.913 14.2823 195.913 14.8407C195.913 15.7392 195.148 16.4828 194.291 16.4828C194.077 16.4828 193.862 16.4213 193.679 16.359C192.669 15.6154 191.383 15.1194 190.036 15.1194C186.854 15.1194 184.649 17.7223 184.649 20.9451C184.649 24.1687 186.853 26.7405 190.036 26.7405C191.628 26.7405 193.036 26.0895 194.107 25.0984C194.384 24.9 194.716 24.7917 195.056 24.7885C195.913 24.7885 196.586 25.4697 196.586 26.338C196.586 26.8954 196.25 27.3914 195.822 27.6702C194.291 28.9721 192.209 29.8394 190.067 29.8394C185.17 29.8394 181.191 25.8108 181.191 20.8525C181.191 15.8942 185.169 11.8655 190.067 11.8655C191.904 11.8655 193.648 12.423 195.056 13.3838V13.3838ZM203.827 26.7405C205.388 26.7405 206.703 25.3459 206.703 23.4554C206.703 21.5658 205.357 20.3253 203.826 20.3253C202.296 20.3253 201.072 21.596 201.072 23.4554C201.072 25.2836 202.296 26.7405 203.826 26.7405H203.827ZM207.499 28.3211L207.438 27.9177C206.765 29.2499 204.623 29.8394 203.244 29.8394C200 29.8394 197.613 26.8954 197.613 23.4242C197.613 19.954 200.062 17.1337 203.428 17.1337C204.01 17.1337 205.938 17.2887 207.438 19.0555L207.499 18.652C207.499 17.9085 208.081 17.2887 208.816 17.2887C209.55 17.2887 210.162 17.9085 210.162 18.652V28.3211C210.162 29.0647 209.55 29.6845 208.816 29.6845C208.081 29.6845 207.499 29.0647 207.499 28.3211ZM219.667 26.7405C221.198 26.7405 222.421 25.2836 222.421 23.4554C222.421 21.596 221.198 20.3253 219.667 20.3253C218.136 20.3253 216.79 21.5648 216.79 23.4554C216.79 25.3459 218.106 26.7405 219.667 26.7405ZM216.79 28.8171V33.2171C216.79 34.1779 215.994 34.9839 215.045 34.9839C214.097 34.9839 213.331 34.1779 213.331 33.2171V18.652C213.331 17.9085 213.943 17.2887 214.678 17.2887C215.412 17.2887 215.995 17.9085 215.995 18.7758C217.279 17.4436 218.871 17.1337 220.065 17.1337C223.432 17.1337 225.88 19.954 225.88 23.4242C225.88 26.8954 223.494 29.8394 220.249 29.8394C219.239 29.8394 217.739 29.5295 216.79 28.8171V28.8171Z" fill="white"/>
</g>
<defs>
<clipPath id="clip0_15778_167478">
<rect width="226.368" height="38.7368" fill="white" transform="translate(0.0527344 0.631836)"/>
</clipPath>
</defs>
</svg>
