<svg width="63" height="26" viewBox="0 0 63 26" fill="none" xmlns="http://www.w3.org/2000/svg">
    <path
            d="M6.61563 18.4589C7.05716 18.4589 7.48545 18.3882 7.90048 18.2469C8.32435 18.1057 8.69965 17.9114 9.02639 17.6641C9.35312 17.408 9.61362 17.1122 9.8079 16.7766C10.011 16.4323 10.117 16.0614 10.1258 15.664H12.4438C12.435 16.2998 12.2672 16.9091 11.9405 17.4919C11.6226 18.0659 11.1943 18.5737 10.6556 19.0152C10.117 19.4479 9.49883 19.7967 8.80121 20.0616C8.10359 20.3177 7.37506 20.4458 6.61563 20.4458C5.52946 20.4458 4.58017 20.2515 3.76775 19.863C2.95534 19.4744 2.27538 18.9534 1.72788 18.2999C1.18921 17.6376 0.783006 16.8782 0.509257 16.0216C0.235507 15.1562 0.0986328 14.2467 0.0986328 13.293V12.7366C0.0986328 11.7918 0.235507 10.8866 0.509257 10.0212C0.783006 9.15582 1.18921 8.39639 1.72788 7.74293C2.27538 7.08063 2.95534 6.55521 3.76775 6.16666C4.58017 5.77811 5.52946 5.58384 6.61563 5.58384C7.46337 5.58384 8.24046 5.72071 8.94691 5.99446C9.66219 6.25938 10.2759 6.62585 10.7881 7.09388C11.3091 7.55307 11.7153 8.10057 12.0067 8.73637C12.2981 9.37217 12.4438 10.0521 12.4438 10.7762H10.1258C10.117 10.3435 10.0198 9.93733 9.83439 9.55762C9.65778 9.16907 9.41494 8.82909 9.10586 8.53768C8.79679 8.24627 8.42591 8.01667 7.99321 7.84889C7.56934 7.68111 7.11014 7.59722 6.61563 7.59722C5.8562 7.59722 5.21598 7.75176 4.69497 8.06083C4.18279 8.36107 3.76775 8.75845 3.44985 9.25296C3.13195 9.73865 2.90235 10.2861 2.76106 10.8955C2.6286 11.5048 2.56238 12.1185 2.56238 12.7366V13.293C2.56238 13.9199 2.6286 14.5425 2.76106 15.1606C2.90235 15.77 3.12753 16.3219 3.43661 16.8164C3.75451 17.3021 4.16955 17.6994 4.68172 18.0085C5.20273 18.3088 5.84737 18.4589 6.61563 18.4589Z"
            fill="#EEEEEE"
    />
    <path
            d="M28.624 13.1738C28.624 14.1981 28.5004 15.1562 28.2531 16.0481C28.0059 16.9312 27.6438 17.6994 27.167 18.3529C26.6901 19.0064 26.0984 19.5186 25.392 19.8894C24.6944 20.2603 23.8952 20.4458 22.9945 20.4458C22.1203 20.4458 21.3476 20.3045 20.6764 20.0219C20.0141 19.7393 19.4446 19.3331 18.9677 18.8033V25.6912H16.5172V5.84876H18.7558L18.875 7.41178C19.3519 6.82013 19.9258 6.36976 20.597 6.06069C21.2769 5.74279 22.0629 5.58384 22.9547 5.58384C23.8731 5.58384 24.6855 5.76487 25.392 6.12692C26.0984 6.48898 26.6901 6.99232 27.167 7.63696C27.6438 8.28159 28.0059 9.05427 28.2531 9.955C28.5004 10.8469 28.624 11.8271 28.624 12.8956V13.1738ZM26.1735 12.8956C26.1735 12.198 26.094 11.5357 25.9351 10.9087C25.785 10.2729 25.5465 9.71657 25.2198 9.23972C24.9019 8.75403 24.4957 8.3699 24.0012 8.08732C23.5067 7.80474 22.915 7.66345 22.2262 7.66345C21.4403 7.66345 20.778 7.84889 20.2393 8.21978C19.7095 8.58183 19.2856 9.04986 18.9677 9.62385V16.525C19.2856 17.0901 19.7095 17.5537 20.2393 17.9158C20.7692 18.269 21.4403 18.4456 22.2527 18.4456C22.9327 18.4456 23.5199 18.3043 24.0144 18.0218C24.5089 17.7304 24.9151 17.3418 25.233 16.8561C25.5509 16.3704 25.785 15.8097 25.9351 15.1739C26.094 14.5381 26.1735 13.8714 26.1735 13.1738V12.8956Z"
            fill="#EEEEEE"
    />
    <path
            d="M45.0954 12.8029C45.0954 14.0303 44.9541 15.1209 44.6715 16.0746C44.389 17.0195 43.9827 17.8187 43.4529 18.4721C42.9231 19.1168 42.274 19.6069 41.5058 19.9424C40.7375 20.278 39.8588 20.4458 38.8698 20.4458C37.8896 20.4458 37.011 20.278 36.2339 19.9424C35.4656 19.6069 34.8121 19.1168 34.2735 18.4721C33.7348 17.8187 33.3198 17.0195 33.0284 16.0746C32.7458 15.1209 32.6045 14.0303 32.6045 12.8029V8.286C32.6045 7.05855 32.7458 5.97238 33.0284 5.0275C33.3109 4.0738 33.7172 3.27021 34.247 2.61674C34.7857 1.96328 35.4391 1.46876 36.2074 1.1332C36.9845 0.788807 37.8631 0.61661 38.8433 0.61661C39.8324 0.61661 40.711 0.788807 41.4793 1.1332C42.2564 1.46876 42.9098 1.96328 43.4397 2.61674C43.9783 3.27021 44.389 4.0738 44.6715 5.0275C44.9541 5.97238 45.0954 7.05855 45.0954 8.286V12.8029ZM35.0682 12.3128L42.5787 6.55079C42.4374 5.27035 42.0621 4.29898 41.4528 3.63668C40.8523 2.96555 39.9825 2.62999 38.8433 2.62999C37.5541 2.62999 36.6003 3.06711 35.9822 3.94134C35.3729 4.80674 35.0682 6.07393 35.0682 7.74292V12.3128ZM42.6317 8.89532L35.1345 14.6308C35.2846 15.8759 35.6687 16.8252 36.2869 17.4787C36.905 18.1321 37.766 18.4589 38.8698 18.4589C40.1679 18.4589 41.1172 18.0173 41.7177 17.1343C42.327 16.2512 42.6317 14.9796 42.6317 13.3195V8.89532Z"
            fill="#2CFFFE"
    />
    <path
            d="M55.3986 11.1604L59.2266 5.84875H62.101L56.7629 12.9353L62.2467 20.1808H59.4121L55.4515 14.7235L51.491 20.1808H48.6299L54.1137 12.9353L48.7756 5.84875H51.6102L55.3986 11.1604Z"
            fill="#EEEEEE"
    />
</svg>
