<svg width="10" height="10" viewBox="0 0 10 10" fill="none" xmlns="http://www.w3.org/2000/svg">
<path fill-rule="evenodd" clip-rule="evenodd" d="M0.71995 0.72C0.86057 0.57955 1.0512 0.50066 1.24995 0.50066C1.4487 0.50066 1.63932 0.57955 1.77995 0.72L4.99995 3.94L8.21995 0.72C8.28865 0.64631 8.37145 0.58721 8.46345 0.54622C8.55545 0.50523 8.65475 0.48319 8.75545 0.48141C8.85615 0.47963 8.95615 0.49816 9.04955 0.53588C9.14295 0.5736 9.22775 0.62974 9.29895 0.70096C9.37025 0.77218 9.42635 0.85702 9.46405 0.9504C9.50175 1.04379 9.52035 1.14382 9.51855 1.24452C9.51675 1.34523 9.49475 1.44454 9.45375 1.53654C9.41275 1.62854 9.35365 1.71134 9.27995 1.78L6.05995 5L9.27995 8.22C9.35365 8.2887 9.41275 8.3715 9.45375 8.4635C9.49475 8.5555 9.51675 8.6548 9.51855 8.7555C9.52035 8.8562 9.50175 8.9562 9.46405 9.0496C9.42635 9.143 9.37025 9.2278 9.29895 9.299C9.22775 9.3703 9.14295 9.4264 9.04955 9.4641C8.95615 9.5018 8.85615 9.5204 8.75545 9.5186C8.65475 9.5168 8.55545 9.4948 8.46345 9.4538C8.37145 9.4128 8.28865 9.3537 8.21995 9.28L4.99995 6.06L1.77995 9.28C1.63777 9.4125 1.44972 9.4846 1.25542 9.4812C1.06112 9.4777 0.87574 9.399 0.73832 9.2616C0.60091 9.1242 0.5222 8.9388 0.51877 8.7445C0.51534 8.5502 0.58747 8.3622 0.71995 8.22L3.93995 5L0.71995 1.78C0.5795 1.63938 0.50061 1.44875 0.50061 1.25C0.50061 1.05125 0.5795 0.86063 0.71995 0.72Z" fill="white"/>
</svg>
