<?xml version="1.0" encoding="utf-8"?>
<!-- Generator: Adobe Illustrator 27.2.0, SVG Export Plug-In . SVG Version: 6.00 Build 0)  -->
<svg version="1.1" id="Layer_1" xmlns="http://www.w3.org/2000/svg" xmlns:xlink="http://www.w3.org/1999/xlink" x="0px" y="0px"
	 viewBox="0 0 322.234375 90.2304688" style="enable-background:new 0 0 322.234375 90.2304688;" xml:space="preserve">
<style type="text/css">
	.st0{fill:#0D1118;}
	.st1{fill:#FF7033;}
	.st2{fill:#EEEEEE;}
</style>
<g>
	<path class="st2" d="M0,11.21875h40.5214844L51.449707,22.1469727v45.840332L40.5214844,78.9155273H0V11.21875z
		 M36.1694336,70.7919922l5.9960938-5.9960938V25.3383789l-5.9960938-5.9960938H9.2841797v51.449707H36.1694336z"/>
	<path class="st2" d="M64.9887695,11.21875h45.4536133v8.1235352H74.2729492v21.5664062h33.3647461v8.0268555H74.2729492v21.8564453
		h36.1694336v8.1235352H64.9887695V11.21875z"/>
	<path class="st2" d="M139.5517578,44.1000977L117.2119141,11.21875H127.65625L144.8706055,36.75l17.0209961-25.53125h10.4443359
		L149.996582,44.4868164l23.3071289,34.4287109H162.859375l-18.0854492-27.0786133l-18.0844727,27.0786133h-10.4448242
		L139.5517578,44.1000977z"/>
	<path class="st1" d="M184.0078125,80.1728516V10.0581055L194.0644531,0h11.703125v7.9301758h-7.5439453l-5.2226562,5.1259766
		v64.1186523l5.2226562,5.1254883h7.5439453v7.9301758h-11.703125L184.0078125,80.1728516z"/>
	<path class="st2" d="M213.2128906,69.534668v-8.7041016h9.2832031v5.7060547l4.2558594,4.2553711H246.09375l4.2558594-4.2553711
		V48.5483398l-4.2558594-4.1582031h-31.9140625V11.21875h44.0996094v8.0268555h-35.0087891v17.0209961H250.15625
		l9.4765625,9.4775391V69.534668l-9.3808594,9.3808594H222.59375L213.2128906,69.534668z"/>
	<path class="st2" d="M283.3271484,20.8896484l-14.9902344,7.7368164v-8.5107422l16.2470703-8.8969727h8.0273438v67.6967773
		h-9.2841797V20.8896484z"/>
	<path class="st1" d="M300.4746094,90.2304688V82.300293h7.5439453l5.2226562-5.1254883V13.0561523l-5.2226562-5.1259766h-7.5439453
		V0h11.703125l10.0566406,10.0581055v70.1147461l-10.0566406,10.0576172H300.4746094z"/>
</g>
</svg>
