<svg width="101" height="100" viewBox="0 0 101 100" fill="none" xmlns="http://www.w3.org/2000/svg">
<path d="M74.3833 64.7235L87.2621 48.4102H102.717M74.3833 64.7235L102.717 97.3501M74.3833 64.7235H91.3833M102.717 97.3501L131.05 64.7235M102.717 97.3501L91.3833 64.7235M102.717 97.3501L114.05 64.7235M131.05 64.7235L118.171 48.4102H102.717M131.05 64.7235H114.05M102.717 48.4102L91.3833 64.7235M102.717 48.4102L114.05 64.7235M91.3833 64.7235H114.05" stroke="#8780BF" stroke-width="2"/>
<g clip-path="url(#clip0)">
<path d="M40.3838 16.5483L53.2626 0.234985H68.7171M40.3838 16.5483L68.7171 49.1749M40.3838 16.5483H57.3838M68.7171 49.1749L97.0505 16.5483M68.7171 49.1749L57.3838 16.5483M68.7171 49.1749L80.0505 16.5483M97.0505 16.5483L84.1717 0.234985H68.7171M97.0505 16.5483H80.0505M68.7171 0.234985L57.3838 16.5483M68.7171 0.234985L80.0505 16.5483M57.3838 16.5483H80.0505" stroke="#8780BF" stroke-width="2"/>
</g>
<path d="M6.38379 64.7235L19.2626 48.4102H34.7171M6.38379 64.7235L34.7171 97.3501M6.38379 64.7235H23.3838M34.7171 97.3501L63.0505 64.7235M34.7171 97.3501L23.3838 64.7235M34.7171 97.3501L46.0505 64.7235M63.0505 64.7235L50.1717 48.4102H34.7171M63.0505 64.7235H46.0505M34.7171 48.4102L23.3838 64.7235M34.7171 48.4102L46.0505 64.7235M23.3838 64.7235H46.0505" stroke="#8780BF" stroke-width="2"/>
<defs>
<clipPath id="clip0">
<rect width="68" height="60.3773" fill="white" transform="translate(34.7168)"/>
</clipPath>
</defs>
</svg>
