<svg width="28" height="28" viewBox="0 0 28 28" fill="none" xmlns="http://www.w3.org/2000/svg">
<path d="M0 0H28L14 14L0 28V0Z" fill="#31CB9E"/>
<path d="M11.8154 6.93083C12.0693 6.77393 12.1479 6.44094 11.991 6.18709C11.8341 5.93324 11.5011 5.85465 11.2472 6.01155C10.9934 6.16846 10.9148 6.50144 11.0717 6.75529C11.2286 7.00915 11.5616 7.08774 11.8154 6.93083Z" fill="#3A3A3A"/>
<path d="M3.66205 12.8325C2.82039 13.6742 3.02087 14.9787 3.02087 14.9787C3.02087 14.9787 4.32545 15.1792 5.16712 14.3375C5.64805 13.8896 5.74011 13.2457 5.25627 12.7433C4.76097 12.2437 4.06916 12.3788 3.66205 12.8325V12.8325Z" fill="#3A3A3A"/>
<path d="M14.9936 3.00686C14.6793 2.98882 14.0844 2.99679 13.3009 3.19835C12.2033 3.48054 10.5006 4.21156 8.62185 6.09055C7.49848 7.21368 6.77426 8.27844 6.12598 9.40603L7.11106 10.3911L7.49169 10.0102L7.9895 10.5081L7.60887 10.8887L8.59372 11.8738C9.72154 11.2255 10.7861 10.5013 11.9092 9.37814C14.9174 6.36992 15.04 3.79835 14.9936 3.00686V3.00686ZM10.2801 6.47234C10.2801 5.78234 10.8386 5.22312 11.5276 5.22312C12.2165 5.22312 12.775 5.78234 12.775 6.47234C12.775 7.16235 12.2165 7.7218 11.5276 7.7218C10.8386 7.7218 10.2801 7.16235 10.2801 6.47234Z" fill="#3A3A3A"/>
<path d="M6.73009 11.7671L6.23239 11.2694L6.61309 10.8887L5.76877 10.0444C5.6177 10.321 5.24541 11.0188 5.21094 11.0834L6.91616 12.7886C6.98066 12.7541 7.67841 12.3819 7.95509 12.2308L7.11078 11.3864L6.73009 11.7671Z" fill="#3A3A3A"/>
<path d="M9.78249 13.1349V14.3641L10.3971 14.9787L11.6263 13.7495L12.3996 9.88306C11.2592 11.022 10.1883 11.7621 9.06348 12.4158L9.78249 13.1349Z" fill="#3A3A3A"/>
<path d="M4.86483 8.21744L5.58386 8.93648C6.23758 7.81167 6.97767 6.74074 8.11664 5.60034L4.25022 6.37364L3.021 7.60284L3.6356 8.21744H4.86483Z" fill="#3A3A3A"/>
</svg>
