<svg width="12" height="12" viewBox="0 0 12 12" fill="none" xmlns="http://www.w3.org/2000/svg">
  <path
    d="M8.81543 3.93083C9.06928 3.77393 9.14787 3.44094 8.99097 3.18709C8.83407 2.93324 8.50109 2.85465 8.24723 3.01155C7.99338 3.16846 7.91479 3.50144 8.0717 3.75529C8.2286 4.00915 8.56158 4.08774 8.81543 3.93083Z"
    fill="currentcolor"
  />
  <path
    d="M0.662054 9.83249C-0.17961 10.6742 0.0208745 11.9787 0.0208745 11.9787C0.0208745 11.9787 1.32545 12.1792 2.16712 11.3375C2.64805 10.8896 2.74011 10.2457 2.25627 9.74334C1.76097 9.24372 1.06916 9.37879 0.662054 9.83249V9.83249Z"
    fill="currentcolor"
  />
  <path
    d="M11.9936 0.00686492C11.6793 -0.011182 11.0844 -0.00321325 10.3009 0.19835C9.20334 0.480538 7.5006 1.21156 5.62185 3.09055C4.49848 4.21368 3.77426 5.27844 3.12598 6.40603L4.11106 7.39111L4.49169 7.01025L4.9895 7.50806L4.60887 7.88869L5.59372 8.87377C6.72154 8.22549 7.78607 7.50126 8.9092 6.37814C11.9174 3.36992 12.04 0.798352 11.9936 0.00686492V0.00686492ZM7.28006 3.47234C7.28006 2.78234 7.83857 2.22312 8.52764 2.22312C9.21647 2.22312 9.77499 2.78234 9.77499 3.47234C9.77499 4.16235 9.21647 4.7218 8.52764 4.7218C7.83857 4.7218 7.28006 4.16235 7.28006 3.47234Z"
    fill="currentcolor"
  />
  <path
    d="M3.73033 8.76714L3.23263 8.26944L3.61333 7.88875L2.76902 7.04443C2.61794 7.32104 2.24566 8.01882 2.21118 8.08337L3.9164 9.78857C3.9809 9.75414 4.67866 9.38186 4.95534 9.23075L4.11103 8.38644L3.73033 8.76714Z"
    fill="currentcolor"
  />
  <path
    d="M6.78225 10.1349V11.3641L7.39685 11.9787L8.62608 10.7495L9.39935 6.88306C8.25895 8.022 7.18802 8.76213 6.06323 9.41583L6.78225 10.1349Z"
    fill="currentcolor"
  />
  <path
    d="M1.86483 5.21744L2.58386 5.93648C3.23758 4.81167 3.97767 3.74074 5.11664 2.60034L1.25022 3.37364L0.0209961 4.60284L0.635598 5.21744H1.86483Z"
    fill="currentcolor"
  />
</svg>
