<svg width="20" height="20" viewBox="0 0 20 20" fill="none" xmlns="http://www.w3.org/2000/svg">
<path d="M9.99996 1.6665C5.39996 1.6665 1.66663 5.39984 1.66663 9.99984C1.66663 14.5998 5.39996 18.3332 9.99996 18.3332C14.6 18.3332 18.3333 14.5998 18.3333 9.99984C18.3333 5.39984 14.6 1.6665 9.99996 1.6665ZM11.175 15.0748V15.5582C11.175 16.1665 10.675 16.6665 10.0666 16.6665H10.0583C9.44996 16.6665 8.94996 16.1665 8.94996 15.5582V15.0582C7.84163 14.8248 6.85829 14.2165 6.44163 13.1915C6.24996 12.7332 6.60829 12.2248 7.10829 12.2248H7.30829C7.61663 12.2248 7.86663 12.4332 7.98329 12.7248C8.22496 13.3498 8.85829 13.7832 10.075 13.7832C11.7083 13.7832 12.075 12.9665 12.075 12.4582C12.075 11.7665 11.7083 11.1165 9.84996 10.6748C7.78329 10.1748 6.36663 9.32484 6.36663 7.6165C6.36663 6.18317 7.52496 5.24984 8.95829 4.9415V4.4415C8.95829 3.83317 9.45829 3.33317 10.0666 3.33317H10.075C10.6833 3.33317 11.1833 3.83317 11.1833 4.4415V4.95817C12.3333 5.2415 13.0583 5.95817 13.375 6.8415C13.5416 7.29984 13.1916 7.78317 12.7 7.78317H12.4833C12.175 7.78317 11.925 7.5665 11.8416 7.2665C11.65 6.63317 11.125 6.22484 10.075 6.22484C8.82496 6.22484 8.07496 6.7915 8.07496 7.5915C8.07496 8.2915 8.61663 8.74984 10.3 9.18317C11.9833 9.6165 13.7833 10.3415 13.7833 12.4415C13.7666 13.9665 12.625 14.7998 11.175 15.0748Z" fill="currentColor"/>
</svg>
