<svg width="21" height="20" viewBox="0 0 21 20" fill="none" xmlns="http://www.w3.org/2000/svg">
<g clip-path="url(#clip0_1058_51465)">
<path d="M10.5 1.66675C5.89996 1.66675 2.16663 5.40008 2.16663 10.0001C2.16663 14.6001 5.89996 18.3334 10.5 18.3334C15.1 18.3334 18.8333 14.6001 18.8333 10.0001C18.8333 5.40008 15.1 1.66675 10.5 1.66675ZM11.675 15.0751V15.5584C11.675 16.1667 11.175 16.6667 10.5666 16.6667H10.5583C9.94996 16.6667 9.44996 16.1667 9.44996 15.5584L9.44996 15.0584C8.34163 14.8251 7.35829 14.2167 6.94163 13.1917C6.74996 12.7334 7.10829 12.2251 7.60829 12.2251L7.80829 12.2251C8.11663 12.2251 8.36663 12.4334 8.48329 12.7251C8.72496 13.3501 9.35829 13.7834 10.575 13.7834C12.2083 13.7834 12.575 12.9667 12.575 12.4584C12.575 11.7667 12.2083 11.1167 10.35 10.6751C8.28329 10.1751 6.86663 9.32508 6.86663 7.61675C6.86663 6.18342 8.02496 5.25008 9.45829 4.94175V4.44175C9.45829 3.83341 9.95829 3.33341 10.5666 3.33341H10.575C11.1833 3.33341 11.6833 3.83341 11.6833 4.44175V4.95841C12.8333 5.24175 13.5583 5.95842 13.875 6.84175C14.0416 7.30008 13.6916 7.78342 13.2 7.78342H12.9833C12.675 7.78342 12.425 7.56675 12.3416 7.26675C12.15 6.63342 11.625 6.22508 10.575 6.22508C9.32496 6.22508 8.57496 6.79175 8.57496 7.59175C8.57496 8.29175 9.11663 8.75008 10.8 9.18342C12.4833 9.61675 14.2833 10.3417 14.2833 12.4417C14.2666 13.9667 13.125 14.8001 11.675 15.0751Z" fill="#31CB9E"/>
</g>
<defs>
<clipPath id="clip0_1058_51465">
<rect width="20" height="20" fill="white" transform="translate(0.5)"/>
</clipPath>
</defs>
</svg>
