<svg width="9" height="10" viewBox="0 0 9 10" fill="none" xmlns="http://www.w3.org/2000/svg">
<path fill-rule="evenodd" clip-rule="evenodd" d="M8.21049 5.49612C8.48322 5.2156 8.48322 4.79483 8.21049 4.51431C7.93777 4.23379 7.52867 4.23379 7.25595 4.51431L4.32412 7.52989L1.3923 4.5143C1.25594 4.37404 1.11958 4.30391 0.91503 4.30391C0.710484 4.30391 0.574121 4.37404 0.437757 4.5143C0.165029 4.79482 0.165029 5.2156 0.437757 5.49612L3.84685 9.00262C4.11958 9.28314 4.52867 9.28314 4.8014 9.00262L8.21049 5.49612ZM8.21049 1.40516L4.8014 4.91166C4.52867 5.19218 4.11958 5.19218 3.84685 4.91166L0.437757 1.40516C0.165029 1.12464 0.165029 0.703861 0.437757 0.423341C0.574121 0.283081 0.778667 0.212951 0.915031 0.212951C1.05139 0.212951 1.25594 0.283081 1.3923 0.423341L4.32413 3.43893L7.25595 0.423342C7.52868 0.142821 7.93777 0.142821 8.21049 0.423342C8.48322 0.703861 8.48322 1.12464 8.21049 1.40516Z" fill="#8780BF"/>
</svg>
