<svg width="12" height="6" viewBox="0 0 12 6" fill="none" xmlns="http://www.w3.org/2000/svg">
<path d="M9.34047 3.66669L9.34047 4.86002C9.34047 5.16002 9.70047 5.30669 9.90714 5.09335L11.7605 3.23335C11.8871 3.10002 11.8871 2.89335 11.7605 2.76002L9.90714 0.906687C9.70047 0.693354 9.34047 0.84002 9.34047 1.14002L9.34047 2.33335L2.66047 2.33335L2.66047 1.14002C2.66047 0.84002 2.30047 0.693353 2.0938 0.906687L0.240469 2.76669C0.113803 2.90002 0.113803 3.10669 0.240469 3.24002L2.0938 5.10002C2.30047 5.31335 2.66047 5.16002 2.66047 4.86669L2.66047 3.66669L9.34047 3.66669Z" fill="#A9A9A9"/>
</svg>