<svg width="16" height="16" viewBox="0 0 16 16" fill="none" xmlns="http://www.w3.org/2000/svg">
<g clip-path="url(#clip0_1341_44633)">
<path d="M8.44008 1.71999C8.18675 1.49999 7.80675 1.49999 7.55341 1.71999C4.30008 4.58666 2.66675 7.07999 2.66675 9.19999C2.66675 12.52 5.20008 14.6667 8.00008 14.6667C10.8001 14.6667 13.3334 12.52 13.3334 9.19999C13.3334 7.07999 11.7001 4.58666 8.44008 1.71999ZM5.22008 9.33333C5.46675 9.33333 5.66675 9.50666 5.71341 9.74666C5.98675 11.2267 7.23341 11.7333 8.14008 11.66C8.42675 11.6467 8.66675 11.8733 8.66675 12.16C8.66675 12.4267 8.45341 12.6467 8.18675 12.66C6.76675 12.7467 5.10675 11.9333 4.72675 9.91333C4.67341 9.61333 4.91341 9.33333 5.22008 9.33333Z" fill="currentColor"/>
</g>
<defs>
<clipPath id="clip0_1341_44633">
<rect width="16" height="16" fill="currentColor"/>
</clipPath>
</defs>
</svg>
