<svg width="149" height="40" viewBox="0 0 149 40" fill="none" xmlns="http://www.w3.org/2000/svg">
<path fill-rule="evenodd" clip-rule="evenodd" d="M74.5 -53C33.6311 -53 0.5 -20.1757 0.5 20.3148C0.5 60.8054 33.6311 93.6296 74.5 93.6296C115.369 93.6296 148.5 60.8054 148.5 20.3148C148.5 -20.1757 115.369 -53 74.5 -53ZM36.8276 57.6391C16.0182 37.0264 16.0182 3.60328 36.8276 -17.0124C52.7587 -32.7956 76.2668 -36.4941 95.7495 -28.1081L85.5832 -18.0376C71.9835 -21.8783 56.7445 -18.4973 46.0347 -7.88854C31.8825 6.13451 30.471 27.9992 41.8 43.5858L56.9206 28.6101L66.1277 37.734L41.7089 61.9243C40.015 60.6118 38.3849 59.1844 36.8276 57.6391ZM74.5 29.4387L65.2929 20.3148L74.5 11.1909L83.7102 20.3148L74.5 29.4387ZM92.0825 28.6101L101.293 37.734L92.0825 46.8579L82.8723 37.734L92.0825 28.6101ZM56.9206 12.0195L47.7104 2.89563L56.9206 -6.22828L66.1277 2.89563L56.9206 12.0195ZM112.175 57.6391C96.2444 73.4222 72.7363 77.1207 53.2535 68.7377L63.4199 58.6642C77.0196 62.508 92.2585 59.1239 102.965 48.5152C117.121 34.4921 118.532 12.6274 107.2 -2.95915L92.0825 12.0195L82.8723 2.89563L107.291 -21.2977C108.985 -19.9852 110.618 -18.5548 112.175 -17.0124C132.982 3.60328 132.982 37.0264 112.175 57.6391Z" fill="white" fill-opacity="0.06"/>
</svg>
