<svg width="13" height="11" fill="none" xmlns="http://www.w3.org/2000/svg">
<path d="M2.5 5.045h2.6c.2-.545.75-.909 1.4-.909.65 0 1.2.364 1.4.91h2.6c1.4 0 2.5 1 2.5 2.272 0 1.273-1.1 2.273-2.5 2.273H4.9c-.2.545-.75.909-1.4.909-.85 0-1.5-.59-1.5-1.364 0-.772.65-1.363 1.5-1.363.65 0 1.2.363 1.4.909h5.6c.85 0 1.5-.591 1.5-1.364 0-.773-.65-1.363-1.5-1.363H7.9c-.2.545-.75.909-1.4.909-.65 0-1.2-.364-1.4-.91H2.5c-1.4 0-2.5-1-2.5-2.272 0-1.273 1.1-2.273 2.5-2.273h5.6C8.3.864 8.85.5 9.5.5c.85 0 1.5.59 1.5 1.364 0 .772-.65 1.363-1.5 1.363-.65 0-1.2-.363-1.4-.909H2.5c-.85 0-1.5.591-1.5 1.364 0 .773.65 1.363 1.5 1.363Zm1 3.637c-.3 0-.5.182-.5.454 0 .273.2.455.5.455s.5-.182.5-.455c0-.272-.2-.454-.5-.454Zm3-2.727c.3 0 .5-.182.5-.455s-.2-.455-.5-.455-.5.182-.5.455.2.455.5.455Zm3-3.637c.3 0 .5-.182.5-.454 0-.273-.2-.455-.5-.455s-.5.182-.5.455c0 .272.2.454.5.454Z" fill="#fff"/>
</svg>