<svg width="32" height="32" viewBox="0 0 32 32" fill="none" xmlns="http://www.w3.org/2000/svg">
<rect width="32" height="32" rx="8" fill="#B8C0DC" fill-opacity="0.24"/>
<path d="M10.6801 17.3333C9.94405 17.3333 9.34338 16.736 9.34338 16C9.34338 15.264 9.93671 14.6667 10.6734 14.6667H10.6801C11.4161 14.6667 12.0134 15.264 12.0134 16C12.0134 16.736 11.4167 17.3333 10.6801 17.3333ZM17.3467 16C17.3467 15.264 16.7494 14.6667 16.0134 14.6667H16.0067C15.2707 14.6667 14.6767 15.264 14.6767 16C14.6767 16.736 15.2767 17.3333 16.0134 17.3333C16.7501 17.3333 17.3467 16.736 17.3467 16ZM22.6801 16C22.6801 15.264 22.0827 14.6667 21.3467 14.6667H21.34C20.604 14.6667 20.01 15.264 20.01 16C20.01 16.736 20.6101 17.3333 21.3467 17.3333C22.0834 17.3333 22.6801 16.736 22.6801 16Z" fill="white"/>
</svg>
