<svg width="16" height="16" viewBox="0 0 16 16" fill="none" xmlns="http://www.w3.org/2000/svg">
<path d="M11.1376 11.5287C11.3982 11.7894 11.3982 12.2107 11.1376 12.4714C11.0076 12.6014 10.8369 12.6667 10.6662 12.6667C10.4955 12.6667 10.3248 12.6014 10.1948 12.4714L7.99954 10.2761L5.80422 12.4714C5.54356 12.7321 5.12218 12.7321 4.86152 12.4714C4.60085 12.2107 4.60085 11.7894 4.86152 11.5287L7.52818 8.86202C7.78885 8.60136 8.21022 8.60136 8.47089 8.86202L11.1376 11.5287ZM7.52818 7.13807C7.65818 7.26807 7.82887 7.33338 7.99954 7.33338C8.1702 7.33338 8.34089 7.26807 8.47089 7.13807L11.1376 4.4714C11.3982 4.21073 11.3982 3.78936 11.1376 3.52869C10.8769 3.26802 10.4555 3.26802 10.1948 3.52869L7.99954 5.724L5.80422 3.52869C5.54356 3.26802 5.12218 3.26802 4.86152 3.52869C4.60085 3.78936 4.60085 4.21073 4.86152 4.4714L7.52818 7.13807Z" fill="#5E5E5E"/>
</svg>
