<svg width="13" height="9" viewBox="0 0 13 9" fill="none" xmlns="http://www.w3.org/2000/svg">
<path d="M7.12754 6.55537L6.82061 6.72262L6.51367 6.55537C5.4282 5.96329 5.07898 5.15463 4.97773 4.5805C4.66247 2.79466 6.27146 0.942812 6.33938 0.864637L6.82061 0.318054L7.30183 0.864637C8.40012 2.11287 8.85763 3.31048 8.66091 4.42415C8.41101 5.84027 7.18008 6.52654 7.12754 6.55537ZM6.83919 2.34803C6.48292 2.91704 6.12344 3.70392 6.24071 4.36007C6.3003 4.69392 6.48292 4.97586 6.7969 5.21743C7.02501 5.01366 7.32041 4.667 7.40051 4.18962C7.49342 3.64561 7.30439 3.02854 6.83919 2.34803Z" fill="#0E9F6E"/>
<path d="M10.0108 8.98371C10.0102 8.98371 10.0102 8.98371 10.0108 8.98371C9.90897 8.98371 9.80452 8.97923 9.69558 8.9709L9.347 8.94334L9.18105 8.63577C9.15285 8.58387 8.49669 7.33692 9.05994 6.01372C9.50271 4.97374 10.5401 4.22018 12.1414 3.77356L12.8431 3.57812L12.9475 4.299C12.9616 4.39832 13.2865 6.741 12.1293 8.07766C11.616 8.67037 10.8829 8.98371 10.0108 8.98371ZM10.2435 6.50455C10.0499 6.94925 10.1082 7.40036 10.1883 7.69511C10.6023 7.66243 10.9214 7.51377 11.1578 7.2408C11.5852 6.74869 11.7063 5.9208 11.7192 5.26849C10.9586 5.58568 10.4632 5.99962 10.2435 6.50455Z" fill="#0E9F6E"/>
<path d="M4.28905 8.63577L4.12309 8.94334L3.7745 8.9709C3.66557 8.97923 3.56048 8.98371 3.45924 8.98371C2.5865 8.98371 1.85346 8.67037 1.34019 8.07766C0.18231 6.73972 0.507184 4.39768 0.521922 4.299L0.626369 3.57812L1.32802 3.77356C2.92996 4.22018 3.96738 4.97373 4.41079 6.01436C4.9734 7.33756 4.31724 8.58387 4.28905 8.63577ZM3.23049 6.51672C3.01711 6.01436 2.51089 5.59144 1.74965 5.27106C1.76182 5.92272 1.88357 6.74997 2.31033 7.24144C2.54742 7.51441 2.86652 7.66371 3.28239 7.69575C3.36248 7.40484 3.41952 6.9595 3.23049 6.51672Z" fill="#0E9F6E"/>
</svg>
