<svg width="16" height="16" viewBox="0 0 16 16" fill="none" xmlns="http://www.w3.org/2000/svg">
<path d="M7.33333 13.3333C7.14444 13.3333 6.98611 13.2694 6.85833 13.1416C6.73056 13.0138 6.66667 12.8555 6.66667 12.6666V8.66663L2.68333 3.58329C2.52778 3.3944 2.50556 3.1944 2.61667 2.98329C2.72778 2.77218 2.9 2.66663 3.13333 2.66663H12.8667C13.1 2.66663 13.2722 2.77218 13.3833 2.98329C13.4944 3.1944 13.4722 3.3944 13.3167 3.58329L9.33333 8.66663V12.6666C9.33333 12.8555 9.26944 13.0138 9.14167 13.1416C9.01389 13.2694 8.85556 13.3333 8.66667 13.3333H7.33333ZM8 8.73329L12 3.66663H4L8 8.73329Z" fill="currentColor"/>
</svg>
