<?xml version="1.0" encoding="UTF-8"?>
<svg id="Layer_2" data-name="Layer 2" xmlns="http://www.w3.org/2000/svg" xmlns:xlink="http://www.w3.org/1999/xlink" viewBox="0 0 601.85 143">
  <defs>
    <style>
      .cls-1 {
        fill: #d28bfb;
      }

      .cls-2 {
        fill: #439cfb;
      }

      .cls-3 {
        fill: #cb8cfb;
      }

      .cls-4 {
        fill: #e688fb;
      }

      .cls-5 {
        fill: #b28ffb;
      }

      .cls-6 {
        fill: #5a99fb;
      }

      .cls-7 {
        fill: #4e9bfb;
      }

      .cls-8 {
        fill: #fff;
      }

      .cls-9 {
        fill: #9892fb;
      }

      .cls-10 {
        fill: #a291fb;
      }

      .cls-11 {
        fill: #5e99fb;
      }

      .cls-12 {
        fill: #bb8efb;
      }

      .cls-13 {
        fill: #e189fb;
      }

      .cls-14 {
        fill: #8a93fb;
      }

      .cls-15 {
        fill: #459cfb;
      }

      .cls-16 {
        fill: #e389fb;
      }

      .cls-17 {
        fill: #d68afb;
      }

      .cls-18 {
        fill: #519afb;
      }

      .cls-19 {
        fill: #5999fb;
      }

      .cls-20 {
        fill: #8095fb;
      }

      .cls-21 {
        fill: #ad8ffb;
      }

      .cls-22 {
        fill: #6b97fb;
      }

      .cls-23 {
        fill: #9292fb;
      }

      .cls-24 {
        fill: #5b99fb;
      }

      .cls-25 {
        fill: #c58cfb;
      }

      .cls-26 {
        fill: #dc8afb;
      }

      .cls-27 {
        fill: #d48bfb;
      }

      .cls-28 {
        fill: #9792fb;
      }

      .cls-29 {
        fill: #b68efb;
      }

      .cls-30 {
        fill: #469cfb;
      }

      .cls-31 {
        fill: #ac8ffb;
      }

      .cls-32 {
        fill: #d88afb;
      }

      .cls-33 {
        fill: #ec88fb;
      }

      .cls-34 {
        fill: #579afb;
      }

      .cls-35 {
        fill: #a390fb;
      }

      .cls-36 {
        fill: #ca8cfb;
      }

      .cls-37 {
        fill: #ab8ffb;
      }

      .cls-38 {
        fill: #c28dfb;
      }

      .cls-39 {
        fill: #b18ffb;
      }

      .cls-40 {
        clip-path: url(#clippath-2);
      }

      .cls-41 {
        fill: #ce8bfb;
      }

      .cls-42 {
        fill: #8f93fb;
      }

      .cls-43 {
        fill: #5c99fb;
      }

      .cls-44 {
        fill: #539afb;
      }

      .cls-45 {
        fill: #aa90fb;
      }

      .cls-46 {
        fill: #b58efb;
      }

      .cls-47 {
        fill: #a890fb;
      }

      .cls-48 {
        fill: #9093fb;
      }

      .cls-49 {
        fill: #d58afb;
      }

      .cls-50 {
        fill: #cd8bfb;
      }

      .cls-51 {
        fill: #ea88fb;
      }

      .cls-52 {
        fill: #bc8dfb;
      }

      .cls-53 {
        fill: #6598fb;
      }

      .cls-54 {
        fill: #7e95fb;
      }

      .cls-55 {
        fill: #c78cfb;
      }

      .cls-56 {
        fill: #6d97fb;
      }

      .cls-57 {
        fill: #9b91fb;
      }

      .cls-58 {
        fill: #7596fb;
      }

      .cls-59 {
        fill: #6898fb;
      }

      .cls-60 {
        fill: #f187fb;
      }

      .cls-61 {
        fill: #8894fb;
      }

      .cls-62 {
        fill: #7296fb;
      }

      .cls-63 {
        fill: #6a97fb;
      }

      .cls-64 {
        fill: #6198fb;
      }

      .cls-65 {
        fill: #b78efb;
      }

      .cls-66 {
        fill: #6e97fb;
      }

      .cls-67 {
        fill: #a091fb;
      }

      .cls-68 {
        fill: #e289fb;
      }

      .cls-69 {
        fill: #af8ffb;
      }

      .cls-70 {
        fill: #569afb;
      }

      .cls-71 {
        fill: #8c93fb;
      }

      .cls-72 {
        fill: #6c97fb;
      }

      .cls-73 {
        fill: #7796fb;
      }

      .cls-74 {
        clip-path: url(#clippath-1);
      }

      .cls-75 {
        fill: #5899fb;
      }

      .cls-76 {
        fill: #9d91fb;
      }

      .cls-77 {
        fill: #c68cfb;
      }

      .cls-78 {
        fill: #8794fb;
      }

      .cls-79 {
        fill: #509afb;
      }

      .cls-80 {
        fill: #8994fb;
      }

      .cls-81 {
        fill: #5f99fb;
      }

      .cls-82 {
        fill: #6398fb;
      }

      .cls-83 {
        fill: #9592fb;
      }

      .cls-84 {
        fill: #be8dfb;
      }

      .cls-85 {
        fill: #9492fb;
      }

      .cls-86 {
        fill: #ef87fb;
      }

      .cls-87 {
        fill: #a490fb;
      }

      .cls-88 {
        fill: #7396fb;
      }

      .cls-89 {
        fill: #9c91fb;
      }

      .cls-90 {
        fill: #9193fb;
      }

      .cls-91 {
        fill: #ed87fb;
      }

      .cls-92 {
        fill: #a690fb;
      }

      .cls-93 {
        fill: #4d9bfb;
      }

      .cls-94 {
        fill: #dd89fb;
      }

      .cls-95 {
        fill: #b38ffb;
      }

      .cls-96 {
        fill: #ee87fb;
      }

      .cls-97 {
        fill: #6698fb;
      }

      .cls-98 {
        fill: #489bfb;
      }

      .cls-99 {
        fill: #c18dfb;
      }

      .cls-100 {
        fill: #9392fb;
      }

      .cls-101 {
        fill: #9f91fb;
      }

      .cls-102 {
        fill: #c48cfb;
      }

      .cls-103 {
        fill: #df89fb;
      }

      .cls-104 {
        fill: #479cfb;
      }

      .cls-105 {
        fill: #bd8dfb;
      }

      .cls-106 {
        fill: #7496fb;
      }

      .cls-107 {
        fill: #8594fb;
      }

      .cls-108 {
        fill: #8694fb;
      }

      .cls-109 {
        fill: #c38dfb;
      }

      .cls-110 {
        fill: #6997fb;
      }

      .cls-111 {
        fill: #8494fb;
      }

      .cls-112 {
        fill: #7196fb;
      }

      .cls-113 {
        fill: #8e93fb;
      }

      .cls-114 {
        fill: #b08ffb;
      }

      .cls-115 {
        fill: #449cfb;
      }

      .cls-116 {
        fill: #cc8bfb;
      }

      .cls-117 {
        fill: #8394fb;
      }

      .cls-118 {
        fill: #6f97fb;
      }

      .cls-119 {
        fill: #8d93fb;
      }

      .cls-120 {
        fill: #c98cfb;
      }

      .cls-121 {
        fill: #499bfb;
      }

      .cls-122 {
        fill: #7d95fb;
      }

      .cls-123 {
        fill: #a990fb;
      }

      .cls-124 {
        clip-path: url(#clippath);
      }

      .cls-125 {
        fill: #e089fb;
      }

      .cls-126 {
        fill: #7995fb;
      }

      .cls-127 {
        fill: #c88cfb;
      }

      .cls-128 {
        fill: #559afb;
      }

      .cls-129 {
        fill: none;
      }

      .cls-130 {
        fill: #e489fb;
      }

      .cls-131 {
        fill: #bf8dfb;
      }

      .cls-132 {
        fill: #8194fb;
      }

      .cls-133 {
        fill: #d98afb;
      }

      .cls-134 {
        fill: #6798fb;
      }

      .cls-135 {
        fill: #6098fb;
      }

      .cls-136 {
        fill: #529afb;
      }

      .cls-137 {
        fill: #6298fb;
      }

      .cls-138 {
        fill: #9e91fb;
      }

      .cls-139 {
        fill: #7097fb;
      }

      .cls-140 {
        fill: #a790fb;
      }

      .cls-141 {
        fill: #de89fb;
      }

      .cls-142 {
        fill: #e988fb;
      }

      .cls-143 {
        fill: #7f95fb;
      }

      .cls-144 {
        fill: #4a9bfb;
      }

      .cls-145 {
        fill: #da8afb;
      }

      .cls-146 {
        fill: #eb88fb;
      }

      .cls-147 {
        fill: #9692fb;
      }

      .cls-148 {
        fill: #5d99fb;
      }

      .cls-149 {
        fill: #7896fb;
      }

      .cls-150 {
        fill: #e588fb;
      }

      .cls-151 {
        fill: #ba8efb;
      }

      .cls-152 {
        fill: #a191fb;
      }

      .cls-153 {
        fill: #4f9bfb;
      }

      .cls-154 {
        fill: #ae8ffb;
      }

      .cls-155 {
        fill: #cf8bfb;
      }

      .cls-156 {
        fill: #7b95fb;
      }

      .cls-157 {
        fill: #f087fb;
      }

      .cls-158 {
        fill: #c08dfb;
      }

      .cls-159 {
        fill: #8294fb;
      }

      .cls-160 {
        fill: #8b93fb;
      }

      .cls-161 {
        fill: #e788fb;
      }

      .cls-162 {
        fill: #db8afb;
      }

      .cls-163 {
        fill: #6498fb;
      }

      .cls-164 {
        fill: #d78afb;
      }

      .cls-165 {
        fill: #d18bfb;
      }

      .cls-166 {
        fill: #e888fb;
      }

      .cls-167 {
        fill: #b98efb;
      }

      .cls-168 {
        fill: #4c9bfb;
      }

      .cls-169 {
        fill: #9992fb;
      }

      .cls-170 {
        fill: #d38bfb;
      }

      .cls-171 {
        fill: #b48efb;
      }

      .cls-172 {
        fill: #b88efb;
      }

      .cls-173 {
        fill: #7a95fb;
      }

      .cls-174 {
        fill: #7c95fb;
      }

      .cls-175 {
        fill: #549afb;
      }

      .cls-176 {
        fill: #d08bfb;
      }

      .cls-177 {
        fill: #7696fb;
      }

      .cls-178 {
        fill: #a590fb;
      }

      .cls-179 {
        fill: #4b9bfb;
      }
    </style>
    <clipPath id="clippath">
      <path class="cls-129" d="m106.84,100.59c0-33.54,0-66.93,0-100.59-.68.37-1.11.58-1.52.82-9.37,5.41-18.74,10.81-28.11,16.22-11.04,6.37-22.07,12.76-33.11,19.12-9.38,5.4-18.77,10.77-28.15,16.15-4.88,2.8-9.75,5.6-14.63,8.39-.74.42-1.27.89-1.27,1.87.01,5.43-.02,10.87-.04,16.3,0,.1.07.21.16.43,30.5-17.57,60.95-35.11,91.63-52.78v1.59c0,14.34,0,28.68,0,43.03,0,6.48.02,12.95-.02,19.43,0,.97.31,1.6,1.14,2.07,3.92,2.22,7.83,4.45,11.75,6.68.7.4,1.39.81,2.19,1.27Z"/>
    </clipPath>
    <clipPath id="clippath-1">
      <path class="cls-129" d="m110.1.09c0,35.35,0,70.58,0,105.94-.8-.41-1.65-.81-2.46-1.27-8.66-4.94-17.31-9.9-25.98-14.83-8.97-5.11-17.96-10.17-26.89-15.33-1.2-.69-2.06-.69-3.21-.01-4.14,2.46-8.32,4.83-12.49,7.24-.22.13-.41.32-.71.56,28.9,16.57,57.7,33.08,86.67,49.69.03-.56.06-.96.06-1.36-.04-6.75-.14-13.49-.13-20.24.01-11.26.11-22.51.13-33.77.02-20.63.01-41.25,0-61.88,0-1.89-.09-3.78-.21-5.66-.02-.35-.28-.84-.57-1.01-4.56-2.66-9.13-5.27-13.71-7.9-.12-.07-.27-.1-.49-.17Z"/>
    </clipPath>
    <clipPath id="clippath-2">
      <path class="cls-129" d="m31.72,82.3c9.94-5.74,19.7-11.37,29.46-17,8.1-4.68,16.2-9.36,24.31-14.02.8-.46,1.68-.79,2.45-1.29.35-.23.74-.72.75-1.1.05-5.36.03-10.72.03-16.08,0-.1-.07-.21-.21-.6C59.58,48.86,30.72,65.48,1.72,82.18c1.49.93,2.81,1.82,4.19,2.6,6.53,3.71,13.08,7.37,19.61,11.07,8.01,4.53,16.01,9.08,24.01,13.62,7.83,4.45,15.64,8.92,23.47,13.37,10.07,5.73,20.15,11.45,30.23,17.18,1.6.91,3.16,1.91,4.81,2.73.49.24,1.34.21,1.81-.06,4.24-2.43,8.44-4.94,12.64-7.43.2-.12.38-.25.74-.48-30.53-17.51-60.96-34.96-91.52-52.49Z"/>
    </clipPath>
  </defs>
  <g id="Layer_1-2" data-name="Layer 1">
    <g>
      <g>
        <g class="cls-124">
          <polygon class="cls-179" points="0 97.99 .43 100.59 0 100.59 0 97.99"/>
          <polygon class="cls-168" points="0 92.74 1.29 100.59 .43 100.59 0 97.99 0 92.74"/>
          <polygon class="cls-93" points="0 87.49 2.15 100.59 1.29 100.59 0 92.74 0 87.49"/>
          <polygon class="cls-7" points="0 82.24 3.01 100.59 2.15 100.59 0 87.49 0 82.24"/>
          <polygon class="cls-153" points="0 76.98 3.87 100.59 3.01 100.59 0 82.24 0 76.98"/>
          <polygon class="cls-79" points="0 71.73 4.74 100.59 3.87 100.59 0 76.98 0 71.73"/>
          <polygon class="cls-18" points="0 66.48 5.6 100.59 4.74 100.59 0 71.73 0 66.48"/>
          <polygon class="cls-136" points="0 61.23 6.46 100.59 5.6 100.59 0 66.48 0 61.23"/>
          <polygon class="cls-44" points="0 55.98 7.32 100.59 6.46 100.59 0 61.23 0 55.98"/>
          <polygon class="cls-175" points="0 50.72 8.18 100.59 7.32 100.59 0 55.98 0 50.72"/>
          <polygon class="cls-128" points="0 45.47 9.04 100.59 8.18 100.59 0 50.72 0 45.47"/>
          <polygon class="cls-70" points="0 40.22 9.91 100.59 9.04 100.59 0 45.47 0 40.22"/>
          <polygon class="cls-34" points="0 34.97 10.77 100.59 9.91 100.59 0 40.22 0 34.97"/>
          <polygon class="cls-75" points="0 29.72 11.63 100.59 10.77 100.59 0 34.97 0 29.72"/>
          <polygon class="cls-19" points="0 24.47 12.49 100.59 11.63 100.59 0 29.72 0 24.47"/>
          <polygon class="cls-6" points="0 19.21 13.35 100.59 12.49 100.59 0 24.47 0 19.21"/>
          <polygon class="cls-24" points="0 15.51 .25 15.46 14.22 100.59 13.35 100.59 0 19.21 0 15.51"/>
          <polygon class="cls-43" points=".25 15.46 1.09 15.33 15.08 100.59 14.22 100.59 .25 15.46"/>
          <polygon class="cls-148" points="1.09 15.33 1.93 15.19 15.94 100.59 15.08 100.59 1.09 15.33"/>
          <polygon class="cls-11" points="1.93 15.19 2.76 15.05 16.8 100.59 15.94 100.59 1.93 15.19"/>
          <polygon class="cls-81" points="2.76 15.05 3.6 14.91 17.66 100.59 16.8 100.59 2.76 15.05"/>
          <polygon class="cls-135" points="3.6 14.91 4.44 14.78 18.52 100.59 17.66 100.59 3.6 14.91"/>
          <polygon class="cls-64" points="4.44 14.78 5.28 14.64 19.39 100.59 18.52 100.59 4.44 14.78"/>
          <polygon class="cls-137" points="5.28 14.64 6.12 14.5 20.25 100.59 19.39 100.59 5.28 14.64"/>
          <polygon class="cls-82" points="6.12 14.5 6.96 14.36 21.11 100.59 20.25 100.59 6.12 14.5"/>
          <polygon class="cls-163" points="6.96 14.36 7.8 14.23 21.97 100.59 21.11 100.59 6.96 14.36"/>
          <polygon class="cls-53" points="7.8 14.23 8.64 14.09 22.83 100.59 21.97 100.59 7.8 14.23"/>
          <polygon class="cls-97" points="8.64 14.09 9.48 13.95 23.7 100.59 22.83 100.59 8.64 14.09"/>
          <polygon class="cls-134" points="9.48 13.95 10.32 13.81 24.56 100.59 23.7 100.59 9.48 13.95"/>
          <polygon class="cls-59" points="10.32 13.81 11.16 13.67 25.42 100.59 24.56 100.59 10.32 13.81"/>
          <polygon class="cls-110" points="11.16 13.67 12 13.54 26.28 100.59 25.42 100.59 11.16 13.67"/>
          <polygon class="cls-63" points="12 13.54 12.84 13.4 27.14 100.59 26.28 100.59 12 13.54"/>
          <polygon class="cls-22" points="12.84 13.4 13.67 13.26 28 100.59 27.14 100.59 12.84 13.4"/>
          <polygon class="cls-72" points="13.67 13.26 14.51 13.12 28.87 100.59 28 100.59 13.67 13.26"/>
          <polygon class="cls-56" points="14.51 13.12 15.35 12.99 29.73 100.59 28.87 100.59 14.51 13.12"/>
          <polygon class="cls-66" points="15.35 12.99 16.19 12.85 30.59 100.59 29.73 100.59 15.35 12.99"/>
          <polygon class="cls-118" points="16.19 12.85 17.03 12.71 31.45 100.59 30.59 100.59 16.19 12.85"/>
          <polygon class="cls-139" points="17.03 12.71 17.87 12.57 32.31 100.59 31.45 100.59 17.03 12.71"/>
          <polygon class="cls-112" points="17.87 12.57 18.71 12.43 33.18 100.59 32.31 100.59 17.87 12.57"/>
          <polygon class="cls-62" points="18.71 12.43 19.55 12.3 34.04 100.59 33.18 100.59 18.71 12.43"/>
          <polygon class="cls-88" points="19.55 12.3 20.39 12.16 34.9 100.59 34.04 100.59 19.55 12.3"/>
          <polygon class="cls-106" points="20.39 12.16 21.23 12.02 35.76 100.59 34.9 100.59 20.39 12.16"/>
          <polygon class="cls-58" points="21.23 12.02 22.07 11.88 36.62 100.59 35.76 100.59 21.23 12.02"/>
          <polygon class="cls-177" points="22.07 11.88 22.91 11.75 37.48 100.59 36.62 100.59 22.07 11.88"/>
          <polygon class="cls-73" points="22.91 11.75 23.75 11.61 38.35 100.59 37.48 100.59 22.91 11.75"/>
          <polygon class="cls-149" points="23.75 11.61 24.58 11.47 39.21 100.59 38.35 100.59 23.75 11.61"/>
          <polygon class="cls-126" points="24.58 11.47 25.42 11.33 40.07 100.59 39.21 100.59 24.58 11.47"/>
          <polygon class="cls-173" points="25.42 11.33 26.26 11.2 40.93 100.59 40.07 100.59 25.42 11.33"/>
          <polygon class="cls-156" points="26.26 11.2 27.1 11.06 41.79 100.59 40.93 100.59 26.26 11.2"/>
          <polygon class="cls-174" points="27.1 11.06 27.94 10.92 42.66 100.59 41.79 100.59 27.1 11.06"/>
          <polygon class="cls-122" points="27.94 10.92 28.78 10.78 43.52 100.59 42.66 100.59 27.94 10.92"/>
          <polygon class="cls-54" points="28.78 10.78 29.62 10.64 44.38 100.59 43.52 100.59 28.78 10.78"/>
          <polygon class="cls-143" points="29.62 10.64 30.46 10.51 45.24 100.59 44.38 100.59 29.62 10.64"/>
          <polygon class="cls-20" points="30.46 10.51 31.3 10.37 46.1 100.59 45.24 100.59 30.46 10.51"/>
          <polygon class="cls-132" points="31.3 10.37 32.14 10.23 46.97 100.59 46.1 100.59 31.3 10.37"/>
          <polygon class="cls-159" points="32.14 10.23 32.98 10.09 47.83 100.59 46.97 100.59 32.14 10.23"/>
          <polygon class="cls-117" points="32.98 10.09 33.82 9.96 48.69 100.59 47.83 100.59 32.98 10.09"/>
          <polygon class="cls-111" points="33.82 9.96 34.66 9.82 49.55 100.59 48.69 100.59 33.82 9.96"/>
          <polygon class="cls-107" points="34.66 9.82 35.49 9.68 50.41 100.59 49.55 100.59 34.66 9.82"/>
          <polygon class="cls-108" points="35.49 9.68 36.33 9.54 51.27 100.59 50.41 100.59 35.49 9.68"/>
          <polygon class="cls-78" points="36.33 9.54 37.17 9.41 52.14 100.59 51.27 100.59 36.33 9.54"/>
          <polygon class="cls-61" points="37.17 9.41 38.01 9.27 53 100.59 52.14 100.59 37.17 9.41"/>
          <polygon class="cls-80" points="38.01 9.27 38.85 9.13 53.86 100.59 53 100.59 38.01 9.27"/>
          <polygon class="cls-14" points="38.85 9.13 39.69 8.99 54.72 100.59 53.86 100.59 38.85 9.13"/>
          <polygon class="cls-160" points="39.69 8.99 40.53 8.85 55.58 100.59 54.72 100.59 39.69 8.99"/>
          <polygon class="cls-71" points="40.53 8.85 41.37 8.72 56.45 100.59 55.58 100.59 40.53 8.85"/>
          <polygon class="cls-119" points="41.37 8.72 42.21 8.58 57.31 100.59 56.45 100.59 41.37 8.72"/>
          <polygon class="cls-113" points="42.21 8.58 43.05 8.44 58.17 100.59 57.31 100.59 42.21 8.58"/>
          <polygon class="cls-42" points="43.05 8.44 43.89 8.3 59.03 100.59 58.17 100.59 43.05 8.44"/>
          <polygon class="cls-48" points="43.89 8.3 44.73 8.17 59.89 100.59 59.03 100.59 43.89 8.3"/>
          <polygon class="cls-90" points="44.73 8.17 45.57 8.03 60.75 100.59 59.89 100.59 44.73 8.17"/>
          <polygon class="cls-23" points="45.57 8.03 46.4 7.89 61.62 100.59 60.75 100.59 45.57 8.03"/>
          <polygon class="cls-100" points="46.4 7.89 47.24 7.75 62.48 100.59 61.62 100.59 46.4 7.89"/>
          <polygon class="cls-85" points="47.24 7.75 48.08 7.61 63.34 100.59 62.48 100.59 47.24 7.75"/>
          <polygon class="cls-83" points="48.08 7.61 48.92 7.48 64.2 100.59 63.34 100.59 48.08 7.61"/>
          <polygon class="cls-147" points="48.92 7.48 49.76 7.34 65.06 100.59 64.2 100.59 48.92 7.48"/>
          <polygon class="cls-28" points="49.76 7.34 50.6 7.2 65.93 100.59 65.06 100.59 49.76 7.34"/>
          <polygon class="cls-9" points="50.6 7.2 51.44 7.06 66.79 100.59 65.93 100.59 50.6 7.2"/>
          <polygon class="cls-169" points="51.44 7.06 52.28 6.93 67.65 100.59 66.79 100.59 51.44 7.06"/>
          <polygon class="cls-57" points="52.28 6.93 53.12 6.79 68.51 100.59 67.65 100.59 52.28 6.93"/>
          <polygon class="cls-89" points="53.12 6.79 53.96 6.65 69.37 100.59 68.51 100.59 53.12 6.79"/>
          <polygon class="cls-76" points="53.96 6.65 54.8 6.51 70.23 100.59 69.37 100.59 53.96 6.65"/>
          <polygon class="cls-138" points="54.8 6.51 55.64 6.38 71.1 100.59 70.23 100.59 54.8 6.51"/>
          <polygon class="cls-101" points="55.64 6.38 56.48 6.24 71.96 100.59 71.1 100.59 55.64 6.38"/>
          <polygon class="cls-67" points="56.48 6.24 57.31 6.1 72.82 100.59 71.96 100.59 56.48 6.24"/>
          <polygon class="cls-152" points="57.31 6.1 58.15 5.96 73.68 100.59 72.82 100.59 57.31 6.1"/>
          <polygon class="cls-10" points="58.15 5.96 58.99 5.82 74.54 100.59 73.68 100.59 58.15 5.96"/>
          <polygon class="cls-35" points="58.99 5.82 59.83 5.69 75.41 100.59 74.54 100.59 58.99 5.82"/>
          <polygon class="cls-87" points="59.83 5.69 60.67 5.55 76.27 100.59 75.41 100.59 59.83 5.69"/>
          <polygon class="cls-178" points="60.67 5.55 61.51 5.41 77.13 100.59 76.27 100.59 60.67 5.55"/>
          <polygon class="cls-92" points="61.51 5.41 62.35 5.27 77.99 100.59 77.13 100.59 61.51 5.41"/>
          <polygon class="cls-140" points="62.35 5.27 63.19 5.14 78.85 100.59 77.99 100.59 62.35 5.27"/>
          <polygon class="cls-47" points="63.19 5.14 64.03 5 79.71 100.59 78.85 100.59 63.19 5.14"/>
          <polygon class="cls-123" points="64.03 5 64.87 4.86 80.58 100.59 79.71 100.59 64.03 5"/>
          <polygon class="cls-45" points="64.87 4.86 65.71 4.72 81.44 100.59 80.58 100.59 64.87 4.86"/>
          <polygon class="cls-37" points="65.71 4.72 66.55 4.59 82.3 100.59 81.44 100.59 65.71 4.72"/>
          <polygon class="cls-31" points="66.55 4.59 67.39 4.45 83.16 100.59 82.3 100.59 66.55 4.59"/>
          <polygon class="cls-21" points="67.39 4.45 68.22 4.31 84.02 100.59 83.16 100.59 67.39 4.45"/>
          <polygon class="cls-154" points="68.22 4.31 69.06 4.17 84.89 100.59 84.02 100.59 68.22 4.31"/>
          <polygon class="cls-69" points="69.06 4.17 69.9 4.03 85.75 100.59 84.89 100.59 69.06 4.17"/>
          <polygon class="cls-114" points="69.9 4.03 70.74 3.9 86.61 100.59 85.75 100.59 69.9 4.03"/>
          <polygon class="cls-39" points="70.74 3.9 71.58 3.76 87.47 100.59 86.61 100.59 70.74 3.9"/>
          <polygon class="cls-5" points="71.58 3.76 72.42 3.62 88.33 100.59 87.47 100.59 71.58 3.76"/>
          <polygon class="cls-95" points="72.42 3.62 73.26 3.48 89.19 100.59 88.33 100.59 72.42 3.62"/>
          <polygon class="cls-171" points="73.26 3.48 74.1 3.35 90.06 100.59 89.19 100.59 73.26 3.48"/>
          <polygon class="cls-46" points="74.1 3.35 74.94 3.21 90.92 100.59 90.06 100.59 74.1 3.35"/>
          <polygon class="cls-29" points="74.94 3.21 75.78 3.07 91.78 100.59 90.92 100.59 74.94 3.21"/>
          <polygon class="cls-65" points="75.78 3.07 76.62 2.93 92.64 100.59 91.78 100.59 75.78 3.07"/>
          <polygon class="cls-172" points="76.62 2.93 77.46 2.79 93.5 100.59 92.64 100.59 76.62 2.93"/>
          <polygon class="cls-167" points="77.46 2.79 78.3 2.66 94.37 100.59 93.5 100.59 77.46 2.79"/>
          <polygon class="cls-151" points="78.3 2.66 79.13 2.52 95.23 100.59 94.37 100.59 78.3 2.66"/>
          <polygon class="cls-12" points="79.13 2.52 79.97 2.38 96.09 100.59 95.23 100.59 79.13 2.52"/>
          <polygon class="cls-52" points="79.97 2.38 80.81 2.24 96.95 100.59 96.09 100.59 79.97 2.38"/>
          <polygon class="cls-105" points="80.81 2.24 81.65 2.11 97.81 100.59 96.95 100.59 80.81 2.24"/>
          <polygon class="cls-84" points="81.65 2.11 82.49 1.97 98.67 100.59 97.81 100.59 81.65 2.11"/>
          <polygon class="cls-131" points="82.49 1.97 83.33 1.83 99.54 100.59 98.67 100.59 82.49 1.97"/>
          <polygon class="cls-158" points="83.33 1.83 84.17 1.69 100.4 100.59 99.54 100.59 83.33 1.83"/>
          <polygon class="cls-99" points="84.17 1.69 85.01 1.56 101.26 100.59 100.4 100.59 84.17 1.69"/>
          <polygon class="cls-38" points="85.01 1.56 85.85 1.42 102.12 100.59 101.26 100.59 85.01 1.56"/>
          <polygon class="cls-109" points="85.85 1.42 86.69 1.28 102.98 100.59 102.12 100.59 85.85 1.42"/>
          <polygon class="cls-102" points="86.69 1.28 87.53 1.14 103.85 100.59 102.98 100.59 86.69 1.28"/>
          <polygon class="cls-25" points="87.53 1.14 88.37 1 104.71 100.59 103.85 100.59 87.53 1.14"/>
          <polygon class="cls-77" points="88.37 1 89.21 .87 105.57 100.59 104.71 100.59 88.37 1"/>
          <polygon class="cls-55" points="89.21 .87 90.04 .73 106.43 100.59 105.57 100.59 89.21 .87"/>
          <polygon class="cls-127" points="90.04 .73 90.88 .59 106.84 97.82 106.84 100.59 106.43 100.59 90.04 .73"/>
          <polygon class="cls-120" points="90.88 .59 91.72 .45 106.84 92.57 106.84 97.82 90.88 .59"/>
          <polygon class="cls-36" points="91.72 .45 92.56 .32 106.84 87.32 106.84 92.57 91.72 .45"/>
          <polygon class="cls-3" points="92.56 .32 93.4 .18 106.84 82.07 106.84 87.32 92.56 .32"/>
          <polygon class="cls-116" points="93.4 .18 94.24 .04 106.84 76.82 106.84 82.07 93.4 .18"/>
          <polygon class="cls-50" points="94.24 .04 94.49 0 95.1 0 106.84 71.57 106.84 76.82 94.24 .04"/>
          <polygon class="cls-41" points="95.96 0 106.84 66.31 106.84 71.57 95.1 0 95.96 0"/>
          <polygon class="cls-155" points="96.82 0 106.84 61.06 106.84 66.31 95.96 0 96.82 0"/>
          <polygon class="cls-176" points="97.68 0 106.84 55.81 106.84 61.06 96.82 0 97.68 0"/>
          <polygon class="cls-165" points="98.54 0 106.84 50.56 106.84 55.81 97.68 0 98.54 0"/>
          <polygon class="cls-1" points="99.4 0 106.84 45.31 106.84 50.56 98.54 0 99.4 0"/>
          <polygon class="cls-170" points="100.27 0 106.84 40.05 106.84 45.31 99.4 0 100.27 0"/>
          <polygon class="cls-27" points="101.13 0 106.84 34.8 106.84 40.05 100.27 0 101.13 0"/>
          <polygon class="cls-49" points="101.99 0 106.84 29.55 106.84 34.8 101.13 0 101.99 0"/>
          <polygon class="cls-17" points="102.85 0 106.84 24.3 106.84 29.55 101.99 0 102.85 0"/>
          <polygon class="cls-164" points="103.71 0 106.84 19.05 106.84 24.3 102.85 0 103.71 0"/>
          <polygon class="cls-32" points="104.58 0 106.84 13.79 106.84 19.05 103.71 0 104.58 0"/>
          <polygon class="cls-133" points="105.44 0 106.84 8.54 106.84 13.79 104.58 0 105.44 0"/>
          <polygon class="cls-145" points="106.3 0 106.84 3.29 106.84 8.54 105.44 0 106.3 0"/>
          <polygon class="cls-162" points="106.84 3.29 106.3 0 106.84 0 106.84 3.29"/>
        </g>
        <g class="cls-74">
          <polygon class="cls-66" points="38.36 131.75 38.41 132.07 38.36 132.07 38.36 131.75"/>
          <polygon class="cls-118" points="38.36 126.42 39.23 132.07 38.41 132.07 38.36 131.75 38.36 126.42"/>
          <polygon class="cls-139" points="38.36 121.08 40.05 132.07 39.23 132.07 38.36 126.42 38.36 121.08"/>
          <polygon class="cls-112" points="38.36 115.75 40.88 132.07 40.05 132.07 38.36 121.08 38.36 115.75"/>
          <polygon class="cls-62" points="38.36 110.41 41.7 132.07 40.88 132.07 38.36 115.75 38.36 110.41"/>
          <polygon class="cls-88" points="38.36 105.08 42.52 132.07 41.7 132.07 38.36 110.41 38.36 105.08"/>
          <polygon class="cls-106" points="38.36 99.75 43.35 132.07 42.52 132.07 38.36 105.08 38.36 99.75"/>
          <polygon class="cls-58" points="38.36 94.41 44.17 132.07 43.35 132.07 38.36 99.75 38.36 94.41"/>
          <polygon class="cls-177" points="38.36 89.08 45 132.07 44.17 132.07 38.36 94.41 38.36 89.08"/>
          <polygon class="cls-73" points="38.36 83.74 45.82 132.07 45 132.07 38.36 89.08 38.36 83.74"/>
          <polygon class="cls-149" points="38.36 78.41 46.64 132.07 45.82 132.07 38.36 83.74 38.36 78.41"/>
          <polygon class="cls-126" points="38.36 73.07 47.47 132.07 46.64 132.07 38.36 78.41 38.36 73.07"/>
          <polygon class="cls-173" points="38.36 67.74 48.29 132.07 47.47 132.07 38.36 73.07 38.36 67.74"/>
          <polygon class="cls-156" points="38.36 62.4 49.11 132.07 48.29 132.07 38.36 67.74 38.36 62.4"/>
          <polygon class="cls-174" points="38.36 57.07 49.94 132.07 49.11 132.07 38.36 62.4 38.36 57.07"/>
          <polygon class="cls-122" points="38.36 51.73 50.76 132.07 49.94 132.07 38.36 57.07 38.36 51.73"/>
          <polygon class="cls-54" points="38.36 46.4 51.59 132.07 50.76 132.07 38.36 51.73 38.36 46.4"/>
          <polygon class="cls-143" points="38.36 41.06 52.41 132.07 51.59 132.07 38.36 46.4 38.36 41.06"/>
          <polygon class="cls-20" points="38.36 35.73 53.23 132.07 52.41 132.07 38.36 41.06 38.36 35.73"/>
          <polygon class="cls-132" points="38.36 30.39 54.06 132.07 53.23 132.07 38.36 35.73 38.36 30.39"/>
          <polygon class="cls-159" points="38.36 25.06 54.88 132.07 54.06 132.07 38.36 30.39 38.36 25.06"/>
          <polygon class="cls-117" points="38.36 19.72 55.7 132.07 54.88 132.07 38.36 25.06 38.36 19.72"/>
          <polygon class="cls-111" points="38.36 14.39 56.53 132.07 55.7 132.07 38.36 19.72 38.36 14.39"/>
          <polygon class="cls-107" points="38.36 9.14 38.37 9.14 57.35 132.07 56.53 132.07 38.36 14.39 38.36 9.14"/>
          <polygon class="cls-108" points="38.37 9.14 39.17 9.02 58.18 132.07 57.35 132.07 38.37 9.14"/>
          <polygon class="cls-78" points="39.17 9.02 39.98 8.89 59 132.07 58.18 132.07 39.17 9.02"/>
          <polygon class="cls-61" points="39.98 8.89 40.78 8.77 59.82 132.07 59 132.07 39.98 8.89"/>
          <polygon class="cls-80" points="40.78 8.77 41.59 8.64 60.65 132.07 59.82 132.07 40.78 8.77"/>
          <polygon class="cls-14" points="41.59 8.64 42.39 8.52 61.47 132.07 60.65 132.07 41.59 8.64"/>
          <polygon class="cls-160" points="42.39 8.52 43.2 8.4 62.29 132.07 61.47 132.07 42.39 8.52"/>
          <polygon class="cls-71" points="43.2 8.4 44 8.27 63.12 132.07 62.29 132.07 43.2 8.4"/>
          <polygon class="cls-119" points="44 8.27 44.81 8.15 63.94 132.07 63.12 132.07 44 8.27"/>
          <polygon class="cls-113" points="44.81 8.15 45.61 8.02 64.77 132.07 63.94 132.07 44.81 8.15"/>
          <polygon class="cls-42" points="45.61 8.02 46.42 7.9 65.59 132.07 64.77 132.07 45.61 8.02"/>
          <polygon class="cls-48" points="46.42 7.9 47.22 7.78 66.41 132.07 65.59 132.07 46.42 7.9"/>
          <polygon class="cls-90" points="47.22 7.78 48.02 7.65 67.24 132.07 66.41 132.07 47.22 7.78"/>
          <polygon class="cls-23" points="48.02 7.65 48.83 7.53 68.06 132.07 67.24 132.07 48.02 7.65"/>
          <polygon class="cls-100" points="48.83 7.53 49.63 7.4 68.88 132.07 68.06 132.07 48.83 7.53"/>
          <polygon class="cls-85" points="49.63 7.4 50.44 7.28 69.71 132.07 68.88 132.07 49.63 7.4"/>
          <polygon class="cls-83" points="50.44 7.28 51.24 7.15 70.53 132.07 69.71 132.07 50.44 7.28"/>
          <polygon class="cls-147" points="51.24 7.15 52.05 7.03 71.35 132.07 70.53 132.07 51.24 7.15"/>
          <polygon class="cls-28" points="52.05 7.03 52.85 6.91 72.18 132.07 71.35 132.07 52.05 7.03"/>
          <polygon class="cls-9" points="52.85 6.91 53.66 6.78 73 132.07 72.18 132.07 52.85 6.91"/>
          <polygon class="cls-169" points="53.66 6.78 54.46 6.66 73.83 132.07 73 132.07 53.66 6.78"/>
          <polygon class="cls-57" points="54.46 6.66 55.27 6.53 74.65 132.07 73.83 132.07 54.46 6.66"/>
          <polygon class="cls-89" points="55.27 6.53 56.07 6.41 75.47 132.07 74.65 132.07 55.27 6.53"/>
          <polygon class="cls-76" points="56.07 6.41 56.87 6.28 76.3 132.07 75.47 132.07 56.07 6.41"/>
          <polygon class="cls-138" points="56.87 6.28 57.68 6.16 77.12 132.07 76.3 132.07 56.87 6.28"/>
          <polygon class="cls-101" points="57.68 6.16 58.48 6.04 77.94 132.07 77.12 132.07 57.68 6.16"/>
          <polygon class="cls-67" points="58.48 6.04 59.29 5.91 78.77 132.07 77.94 132.07 58.48 6.04"/>
          <polygon class="cls-152" points="59.29 5.91 60.09 5.79 79.59 132.07 78.77 132.07 59.29 5.91"/>
          <polygon class="cls-10" points="60.09 5.79 60.9 5.66 80.42 132.07 79.59 132.07 60.09 5.79"/>
          <polygon class="cls-35" points="60.9 5.66 61.7 5.54 81.24 132.07 80.42 132.07 60.9 5.66"/>
          <polygon class="cls-87" points="61.7 5.54 62.51 5.42 82.06 132.07 81.24 132.07 61.7 5.54"/>
          <polygon class="cls-178" points="62.51 5.42 63.31 5.29 82.89 132.07 82.06 132.07 62.51 5.42"/>
          <polygon class="cls-92" points="63.31 5.29 64.12 5.17 83.71 132.07 82.89 132.07 63.31 5.29"/>
          <polygon class="cls-140" points="64.12 5.17 64.92 5.04 84.53 132.07 83.71 132.07 64.12 5.17"/>
          <polygon class="cls-47" points="64.92 5.04 65.72 4.92 85.36 132.07 84.53 132.07 64.92 5.04"/>
          <polygon class="cls-123" points="65.72 4.92 66.53 4.79 86.18 132.07 85.36 132.07 65.72 4.92"/>
          <polygon class="cls-45" points="66.53 4.79 67.33 4.67 87.01 132.07 86.18 132.07 66.53 4.79"/>
          <polygon class="cls-37" points="67.33 4.67 68.14 4.55 87.83 132.07 87.01 132.07 67.33 4.67"/>
          <polygon class="cls-31" points="68.14 4.55 68.94 4.42 88.65 132.07 87.83 132.07 68.14 4.55"/>
          <polygon class="cls-21" points="68.94 4.42 69.75 4.3 89.48 132.07 88.65 132.07 68.94 4.42"/>
          <polygon class="cls-154" points="69.75 4.3 70.55 4.17 90.3 132.07 89.48 132.07 69.75 4.3"/>
          <polygon class="cls-69" points="70.55 4.17 71.36 4.05 91.12 132.07 90.3 132.07 70.55 4.17"/>
          <polygon class="cls-114" points="71.36 4.05 72.16 3.92 91.95 132.07 91.12 132.07 71.36 4.05"/>
          <polygon class="cls-39" points="72.16 3.92 72.97 3.8 92.77 132.07 91.95 132.07 72.16 3.92"/>
          <polygon class="cls-5" points="72.97 3.8 73.77 3.68 93.6 132.07 92.77 132.07 72.97 3.8"/>
          <polygon class="cls-95" points="73.77 3.68 74.57 3.55 94.42 132.07 93.6 132.07 73.77 3.68"/>
          <polygon class="cls-171" points="74.57 3.55 75.38 3.43 95.24 132.07 94.42 132.07 74.57 3.55"/>
          <polygon class="cls-46" points="75.38 3.43 76.18 3.3 96.07 132.07 95.24 132.07 75.38 3.43"/>
          <polygon class="cls-29" points="76.18 3.3 76.99 3.18 96.89 132.07 96.07 132.07 76.18 3.3"/>
          <polygon class="cls-65" points="76.99 3.18 77.79 3.05 97.71 132.07 96.89 132.07 76.99 3.18"/>
          <polygon class="cls-172" points="77.79 3.05 78.6 2.93 98.54 132.07 97.71 132.07 77.79 3.05"/>
          <polygon class="cls-167" points="78.6 2.93 79.4 2.81 99.36 132.07 98.54 132.07 78.6 2.93"/>
          <polygon class="cls-151" points="79.4 2.81 80.21 2.68 100.19 132.07 99.36 132.07 79.4 2.81"/>
          <polygon class="cls-12" points="80.21 2.68 81.01 2.56 101.01 132.07 100.19 132.07 80.21 2.68"/>
          <polygon class="cls-52" points="81.01 2.56 81.82 2.43 101.83 132.07 101.01 132.07 81.01 2.56"/>
          <polygon class="cls-105" points="81.82 2.43 82.62 2.31 102.66 132.07 101.83 132.07 81.82 2.43"/>
          <polygon class="cls-84" points="82.62 2.31 83.42 2.19 103.48 132.07 102.66 132.07 82.62 2.31"/>
          <polygon class="cls-131" points="83.42 2.19 84.23 2.06 104.3 132.07 103.48 132.07 83.42 2.19"/>
          <polygon class="cls-158" points="84.23 2.06 85.03 1.94 105.13 132.07 104.3 132.07 84.23 2.06"/>
          <polygon class="cls-99" points="85.03 1.94 85.84 1.81 105.95 132.07 105.13 132.07 85.03 1.94"/>
          <polygon class="cls-38" points="85.84 1.81 86.64 1.69 106.78 132.07 105.95 132.07 85.84 1.81"/>
          <polygon class="cls-109" points="86.64 1.69 87.45 1.56 107.6 132.07 106.78 132.07 86.64 1.69"/>
          <polygon class="cls-102" points="87.45 1.56 88.25 1.44 108.42 132.07 107.6 132.07 87.45 1.56"/>
          <polygon class="cls-25" points="88.25 1.44 89.06 1.32 109.25 132.07 108.42 132.07 88.25 1.44"/>
          <polygon class="cls-77" points="89.06 1.32 89.86 1.19 110.07 132.07 109.25 132.07 89.06 1.32"/>
          <polygon class="cls-55" points="89.86 1.19 90.67 1.07 110.89 132.07 110.07 132.07 89.86 1.19"/>
          <polygon class="cls-127" points="90.67 1.07 91.47 .94 111.72 132.07 110.89 132.07 90.67 1.07"/>
          <polygon class="cls-120" points="91.47 .94 92.27 .82 112.54 132.07 111.72 132.07 91.47 .94"/>
          <polygon class="cls-36" points="92.27 .82 93.08 .69 113.36 132.07 112.54 132.07 92.27 .82"/>
          <polygon class="cls-3" points="93.08 .69 93.88 .57 114.19 132.07 113.36 132.07 93.08 .69"/>
          <polygon class="cls-116" points="93.88 .57 94.69 .45 115.01 132.07 114.19 132.07 93.88 .57"/>
          <polygon class="cls-50" points="94.69 .45 95.49 .32 115.84 132.07 115.01 132.07 94.69 .45"/>
          <polygon class="cls-41" points="95.49 .32 96.3 .2 116.66 132.07 115.84 132.07 95.49 .32"/>
          <polygon class="cls-155" points="96.3 .2 96.99 .09 97.1 .09 117.48 132.07 116.66 132.07 96.3 .2"/>
          <polygon class="cls-176" points="97.93 .09 118.31 132.07 117.48 132.07 97.1 .09 97.93 .09"/>
          <polygon class="cls-165" points="98.75 .09 119.13 132.07 118.31 132.07 97.93 .09 98.75 .09"/>
          <polygon class="cls-1" points="99.58 .09 119.95 132.07 119.13 132.07 98.75 .09 99.58 .09"/>
          <polygon class="cls-170" points="100.4 .09 120.78 132.07 119.95 132.07 99.58 .09 100.4 .09"/>
          <polygon class="cls-27" points="101.22 .09 121.6 132.07 120.78 132.07 100.4 .09 101.22 .09"/>
          <polygon class="cls-49" points="102.05 .09 122.43 132.07 121.6 132.07 101.22 .09 102.05 .09"/>
          <polygon class="cls-17" points="102.87 .09 123.25 132.07 122.43 132.07 102.05 .09 102.87 .09"/>
          <polygon class="cls-164" points="103.69 .09 124.07 132.07 123.25 132.07 102.87 .09 103.69 .09"/>
          <polygon class="cls-32" points="104.52 .09 124.9 132.07 124.07 132.07 103.69 .09 104.52 .09"/>
          <polygon class="cls-133" points="105.34 .09 125.1 128.08 125.1 132.07 124.9 132.07 104.52 .09 105.34 .09"/>
          <polygon class="cls-145" points="106.17 .09 125.1 122.74 125.1 128.08 105.34 .09 106.17 .09"/>
          <polygon class="cls-162" points="106.99 .09 125.1 117.41 125.1 122.74 106.17 .09 106.99 .09"/>
          <polygon class="cls-26" points="107.81 .09 125.1 112.07 125.1 117.41 106.99 .09 107.81 .09"/>
          <polygon class="cls-94" points="108.64 .09 125.1 106.74 125.1 112.07 107.81 .09 108.64 .09"/>
          <polygon class="cls-141" points="109.46 .09 125.1 101.4 125.1 106.74 108.64 .09 109.46 .09"/>
          <polygon class="cls-103" points="110.28 .09 125.1 96.07 125.1 101.4 109.46 .09 110.28 .09"/>
          <polygon class="cls-125" points="111.11 .09 125.1 90.73 125.1 96.07 110.28 .09 111.11 .09"/>
          <polygon class="cls-13" points="111.93 .09 125.1 85.4 125.1 90.73 111.11 .09 111.93 .09"/>
          <polygon class="cls-68" points="112.76 .09 125.1 80.06 125.1 85.4 111.93 .09 112.76 .09"/>
          <polygon class="cls-16" points="113.58 .09 125.1 74.73 125.1 80.06 112.76 .09 113.58 .09"/>
          <polygon class="cls-130" points="114.4 .09 125.1 69.39 125.1 74.73 113.58 .09 114.4 .09"/>
          <polygon class="cls-150" points="115.23 .09 125.1 64.06 125.1 69.39 114.4 .09 115.23 .09"/>
          <polygon class="cls-4" points="116.05 .09 125.1 58.72 125.1 64.06 115.23 .09 116.05 .09"/>
          <polygon class="cls-161" points="116.87 .09 125.1 53.39 125.1 58.72 116.05 .09 116.87 .09"/>
          <polygon class="cls-166" points="117.7 .09 125.1 48.06 125.1 53.39 116.87 .09 117.7 .09"/>
          <polygon class="cls-142" points="118.52 .09 125.1 42.72 125.1 48.06 117.7 .09 118.52 .09"/>
          <polygon class="cls-51" points="119.35 .09 125.1 37.39 125.1 42.72 118.52 .09 119.35 .09"/>
          <polygon class="cls-146" points="120.17 .09 125.1 32.05 125.1 37.39 119.35 .09 120.17 .09"/>
          <polygon class="cls-33" points="120.99 .09 125.1 26.72 125.1 32.05 120.17 .09 120.99 .09"/>
          <polygon class="cls-91" points="121.82 .09 125.1 21.38 125.1 26.72 120.99 .09 121.82 .09"/>
          <polygon class="cls-96" points="122.64 .09 125.1 16.05 125.1 21.38 121.82 .09 122.64 .09"/>
          <polygon class="cls-86" points="123.46 .09 125.1 10.71 125.1 16.05 122.64 .09 123.46 .09"/>
          <polygon class="cls-157" points="124.29 .09 125.1 5.38 125.1 10.71 123.46 .09 124.29 .09"/>
          <polygon class="cls-60" points="125.1 5.38 124.29 .09 125.1 .09 125.1 5.38"/>
        </g>
        <g class="cls-40">
          <polygon class="cls-2" points="1.72 46.06 2.09 45.99 19.86 143 1.72 143 1.72 46.06"/>
          <polygon class="cls-2" points="2.09 45.99 2.79 45.87 20.58 143 19.86 143 2.09 45.99"/>
          <polygon class="cls-115" points="2.79 45.87 3.48 45.74 21.29 143 20.58 143 2.79 45.87"/>
          <polygon class="cls-15" points="3.48 45.74 4.17 45.61 22.01 143 21.29 143 3.48 45.74"/>
          <polygon class="cls-30" points="4.17 45.61 4.87 45.49 22.73 143 22.01 143 4.17 45.61"/>
          <polygon class="cls-104" points="4.87 45.49 5.56 45.36 23.44 143 22.73 143 4.87 45.49"/>
          <polygon class="cls-98" points="5.56 45.36 6.26 45.23 24.16 143 23.44 143 5.56 45.36"/>
          <polygon class="cls-121" points="6.26 45.23 6.95 45.11 24.88 143 24.16 143 6.26 45.23"/>
          <polygon class="cls-144" points="6.95 45.11 7.64 44.98 25.59 143 24.88 143 6.95 45.11"/>
          <polygon class="cls-179" points="7.64 44.98 8.34 44.85 26.31 143 25.59 143 7.64 44.98"/>
          <polygon class="cls-168" points="8.34 44.85 9.03 44.72 27.03 143 26.31 143 8.34 44.85"/>
          <polygon class="cls-93" points="9.03 44.72 9.73 44.6 27.75 143 27.03 143 9.03 44.72"/>
          <polygon class="cls-7" points="9.73 44.6 10.42 44.47 28.46 143 27.75 143 9.73 44.6"/>
          <polygon class="cls-153" points="10.42 44.47 11.11 44.34 29.18 143 28.46 143 10.42 44.47"/>
          <polygon class="cls-79" points="11.11 44.34 11.81 44.22 29.9 143 29.18 143 11.11 44.34"/>
          <polygon class="cls-18" points="11.81 44.22 12.5 44.09 30.61 143 29.9 143 11.81 44.22"/>
          <polygon class="cls-136" points="12.5 44.09 13.19 43.96 31.33 143 30.61 143 12.5 44.09"/>
          <polygon class="cls-44" points="13.19 43.96 13.89 43.83 32.05 143 31.33 143 13.19 43.96"/>
          <polygon class="cls-175" points="13.89 43.83 14.58 43.71 32.77 143 32.05 143 13.89 43.83"/>
          <polygon class="cls-128" points="14.58 43.71 15.28 43.58 33.48 143 32.77 143 14.58 43.71"/>
          <polygon class="cls-70" points="15.28 43.58 15.97 43.45 34.2 143 33.48 143 15.28 43.58"/>
          <polygon class="cls-34" points="15.97 43.45 16.66 43.33 34.92 143 34.2 143 15.97 43.45"/>
          <polygon class="cls-75" points="16.66 43.33 17.36 43.2 35.63 143 34.92 143 16.66 43.33"/>
          <polygon class="cls-19" points="17.36 43.2 18.05 43.07 36.35 143 35.63 143 17.36 43.2"/>
          <polygon class="cls-6" points="18.05 43.07 18.75 42.94 37.07 143 36.35 143 18.05 43.07"/>
          <polygon class="cls-24" points="18.75 42.94 19.44 42.82 37.79 143 37.07 143 18.75 42.94"/>
          <polygon class="cls-43" points="19.44 42.82 20.13 42.69 38.5 143 37.79 143 19.44 42.82"/>
          <polygon class="cls-148" points="20.13 42.69 20.83 42.56 39.22 143 38.5 143 20.13 42.69"/>
          <polygon class="cls-11" points="20.83 42.56 21.52 42.44 39.94 143 39.22 143 20.83 42.56"/>
          <polygon class="cls-81" points="21.52 42.44 22.21 42.31 40.65 143 39.94 143 21.52 42.44"/>
          <polygon class="cls-135" points="22.21 42.31 22.91 42.18 41.37 143 40.65 143 22.21 42.31"/>
          <polygon class="cls-64" points="22.91 42.18 23.6 42.06 42.09 143 41.37 143 22.91 42.18"/>
          <polygon class="cls-137" points="23.6 42.06 24.3 41.93 42.81 143 42.09 143 23.6 42.06"/>
          <polygon class="cls-82" points="24.3 41.93 24.99 41.8 43.52 143 42.81 143 24.3 41.93"/>
          <polygon class="cls-163" points="24.99 41.8 25.68 41.67 44.24 143 43.52 143 24.99 41.8"/>
          <polygon class="cls-53" points="25.68 41.67 26.38 41.55 44.96 143 44.24 143 25.68 41.67"/>
          <polygon class="cls-97" points="26.38 41.55 27.07 41.42 45.67 143 44.96 143 26.38 41.55"/>
          <polygon class="cls-134" points="27.07 41.42 27.76 41.29 46.39 143 45.67 143 27.07 41.42"/>
          <polygon class="cls-59" points="27.76 41.29 28.46 41.17 47.11 143 46.39 143 27.76 41.29"/>
          <polygon class="cls-110" points="28.46 41.17 29.15 41.04 47.82 143 47.11 143 28.46 41.17"/>
          <polygon class="cls-63" points="29.15 41.04 29.85 40.91 48.54 143 47.82 143 29.15 41.04"/>
          <polygon class="cls-22" points="29.85 40.91 30.54 40.78 49.26 143 48.54 143 29.85 40.91"/>
          <polygon class="cls-72" points="30.54 40.78 31.23 40.66 49.98 143 49.26 143 30.54 40.78"/>
          <polygon class="cls-56" points="31.23 40.66 31.93 40.53 50.69 143 49.98 143 31.23 40.66"/>
          <polygon class="cls-66" points="31.93 40.53 32.62 40.4 51.41 143 50.69 143 31.93 40.53"/>
          <polygon class="cls-118" points="32.62 40.4 33.32 40.28 52.13 143 51.41 143 32.62 40.4"/>
          <polygon class="cls-139" points="33.32 40.28 34.01 40.15 52.84 143 52.13 143 33.32 40.28"/>
          <polygon class="cls-112" points="34.01 40.15 34.7 40.02 53.56 143 52.84 143 34.01 40.15"/>
          <polygon class="cls-62" points="34.7 40.02 35.4 39.9 54.28 143 53.56 143 34.7 40.02"/>
          <polygon class="cls-88" points="35.4 39.9 36.09 39.77 55 143 54.28 143 35.4 39.9"/>
          <polygon class="cls-106" points="36.09 39.77 36.78 39.64 55.71 143 55 143 36.09 39.77"/>
          <polygon class="cls-58" points="36.78 39.64 37.48 39.51 56.43 143 55.71 143 36.78 39.64"/>
          <polygon class="cls-177" points="37.48 39.51 38.17 39.39 57.15 143 56.43 143 37.48 39.51"/>
          <polygon class="cls-73" points="38.17 39.39 38.87 39.26 57.86 143 57.15 143 38.17 39.39"/>
          <polygon class="cls-149" points="38.87 39.26 39.56 39.13 58.58 143 57.86 143 38.87 39.26"/>
          <polygon class="cls-126" points="39.56 39.13 40.25 39.01 59.3 143 58.58 143 39.56 39.13"/>
          <polygon class="cls-173" points="40.25 39.01 40.95 38.88 60.02 143 59.3 143 40.25 39.01"/>
          <polygon class="cls-156" points="40.95 38.88 41.64 38.75 60.73 143 60.02 143 40.95 38.88"/>
          <polygon class="cls-174" points="41.64 38.75 42.34 38.62 61.45 143 60.73 143 41.64 38.75"/>
          <polygon class="cls-122" points="42.34 38.62 43.03 38.5 62.17 143 61.45 143 42.34 38.62"/>
          <polygon class="cls-54" points="43.03 38.5 43.72 38.37 62.88 143 62.17 143 43.03 38.5"/>
          <polygon class="cls-143" points="43.72 38.37 44.42 38.24 63.6 143 62.88 143 43.72 38.37"/>
          <polygon class="cls-20" points="44.42 38.24 45.11 38.12 64.32 143 63.6 143 44.42 38.24"/>
          <polygon class="cls-132" points="45.11 38.12 45.8 37.99 65.04 143 64.32 143 45.11 38.12"/>
          <polygon class="cls-159" points="45.8 37.99 46.5 37.86 65.75 143 65.04 143 45.8 37.99"/>
          <polygon class="cls-117" points="46.5 37.86 47.19 37.74 66.47 143 65.75 143 46.5 37.86"/>
          <polygon class="cls-111" points="47.19 37.74 47.89 37.61 67.19 143 66.47 143 47.19 37.74"/>
          <polygon class="cls-107" points="47.89 37.61 48.58 37.48 67.9 143 67.19 143 47.89 37.61"/>
          <polygon class="cls-108" points="48.58 37.48 49.27 37.35 68.62 143 67.9 143 48.58 37.48"/>
          <polygon class="cls-78" points="49.27 37.35 49.97 37.23 69.34 143 68.62 143 49.27 37.35"/>
          <polygon class="cls-61" points="49.97 37.23 50.66 37.1 70.05 143 69.34 143 49.97 37.23"/>
          <polygon class="cls-80" points="50.66 37.1 51.36 36.97 70.77 143 70.05 143 50.66 37.1"/>
          <polygon class="cls-14" points="51.36 36.97 52.05 36.85 71.49 143 70.77 143 51.36 36.97"/>
          <polygon class="cls-160" points="52.05 36.85 52.74 36.72 72.21 143 71.49 143 52.05 36.85"/>
          <polygon class="cls-71" points="52.74 36.72 53.44 36.59 72.92 143 72.21 143 52.74 36.72"/>
          <polygon class="cls-119" points="53.44 36.59 54.13 36.46 73.64 143 72.92 143 53.44 36.59"/>
          <polygon class="cls-113" points="54.13 36.46 54.82 36.34 74.36 143 73.64 143 54.13 36.46"/>
          <polygon class="cls-42" points="54.82 36.34 55.52 36.21 75.07 143 74.36 143 54.82 36.34"/>
          <polygon class="cls-48" points="55.52 36.21 56.21 36.08 75.79 143 75.07 143 55.52 36.21"/>
          <polygon class="cls-90" points="56.21 36.08 56.91 35.96 76.51 143 75.79 143 56.21 36.08"/>
          <polygon class="cls-23" points="56.91 35.96 57.6 35.83 77.23 143 76.51 143 56.91 35.96"/>
          <polygon class="cls-100" points="57.6 35.83 58.29 35.7 77.94 143 77.23 143 57.6 35.83"/>
          <polygon class="cls-85" points="58.29 35.7 58.99 35.58 78.66 143 77.94 143 58.29 35.7"/>
          <polygon class="cls-83" points="58.99 35.58 59.68 35.45 79.38 143 78.66 143 58.99 35.58"/>
          <polygon class="cls-147" points="59.68 35.45 60.37 35.32 80.09 143 79.38 143 59.68 35.45"/>
          <polygon class="cls-28" points="60.37 35.32 61.07 35.19 80.81 143 80.09 143 60.37 35.32"/>
          <polygon class="cls-9" points="61.07 35.19 61.76 35.07 81.53 143 80.81 143 61.07 35.19"/>
          <polygon class="cls-169" points="61.76 35.07 62.46 34.94 82.25 143 81.53 143 61.76 35.07"/>
          <polygon class="cls-57" points="62.46 34.94 63.15 34.81 82.96 143 82.25 143 62.46 34.94"/>
          <polygon class="cls-89" points="63.15 34.81 63.84 34.69 83.68 143 82.96 143 63.15 34.81"/>
          <polygon class="cls-76" points="63.84 34.69 64.54 34.56 84.4 143 83.68 143 63.84 34.69"/>
          <polygon class="cls-138" points="64.54 34.56 65.23 34.43 85.11 143 84.4 143 64.54 34.56"/>
          <polygon class="cls-101" points="65.23 34.43 65.93 34.3 85.83 143 85.11 143 65.23 34.43"/>
          <polygon class="cls-67" points="65.93 34.3 66.62 34.18 86.55 143 85.83 143 65.93 34.3"/>
          <polygon class="cls-152" points="66.62 34.18 67.31 34.05 87.27 143 86.55 143 66.62 34.18"/>
          <polygon class="cls-10" points="67.31 34.05 68.01 33.92 87.98 143 87.27 143 67.31 34.05"/>
          <polygon class="cls-35" points="68.01 33.92 68.7 33.8 88.7 143 87.98 143 68.01 33.92"/>
          <polygon class="cls-87" points="68.7 33.8 69.39 33.67 89.42 143 88.7 143 68.7 33.8"/>
          <polygon class="cls-178" points="69.39 33.67 70.09 33.54 90.13 143 89.42 143 69.39 33.67"/>
          <polygon class="cls-92" points="70.09 33.54 70.78 33.42 90.85 143 90.13 143 70.09 33.54"/>
          <polygon class="cls-140" points="70.78 33.42 71.48 33.29 91.57 143 90.85 143 70.78 33.42"/>
          <polygon class="cls-47" points="71.48 33.29 72.17 33.16 92.29 143 91.57 143 71.48 33.29"/>
          <polygon class="cls-123" points="72.17 33.16 72.86 33.03 93 143 92.29 143 72.17 33.16"/>
          <polygon class="cls-45" points="72.86 33.03 73.56 32.91 93.72 143 93 143 72.86 33.03"/>
          <polygon class="cls-37" points="73.56 32.91 74.25 32.78 94.44 143 93.72 143 73.56 32.91"/>
          <polygon class="cls-31" points="74.25 32.78 74.95 32.65 95.15 143 94.44 143 74.25 32.78"/>
          <polygon class="cls-21" points="74.95 32.65 75.64 32.53 95.87 143 95.15 143 74.95 32.65"/>
          <polygon class="cls-154" points="75.64 32.53 76.33 32.4 96.59 143 95.87 143 75.64 32.53"/>
          <polygon class="cls-69" points="76.33 32.4 77.03 32.27 97.3 143 96.59 143 76.33 32.4"/>
          <polygon class="cls-114" points="77.03 32.27 77.4 32.2 77.73 32.2 98.02 143 97.3 143 77.03 32.27"/>
          <polygon class="cls-39" points="78.45 32.2 98.74 143 98.02 143 77.73 32.2 78.45 32.2"/>
          <polygon class="cls-5" points="79.17 32.2 99.46 143 98.74 143 78.45 32.2 79.17 32.2"/>
          <polygon class="cls-95" points="79.88 32.2 100.17 143 99.46 143 79.17 32.2 79.88 32.2"/>
          <polygon class="cls-171" points="80.6 32.2 100.89 143 100.17 143 79.88 32.2 80.6 32.2"/>
          <polygon class="cls-46" points="81.32 32.2 101.61 143 100.89 143 80.6 32.2 81.32 32.2"/>
          <polygon class="cls-29" points="82.03 32.2 102.32 143 101.61 143 81.32 32.2 82.03 32.2"/>
          <polygon class="cls-65" points="82.75 32.2 103.04 143 102.32 143 82.03 32.2 82.75 32.2"/>
          <polygon class="cls-172" points="83.47 32.2 103.76 143 103.04 143 82.75 32.2 83.47 32.2"/>
          <polygon class="cls-167" points="84.19 32.2 104.48 143 103.76 143 83.47 32.2 84.19 32.2"/>
          <polygon class="cls-151" points="84.9 32.2 105.19 143 104.48 143 84.19 32.2 84.9 32.2"/>
          <polygon class="cls-12" points="85.62 32.2 105.91 143 105.19 143 84.9 32.2 85.62 32.2"/>
          <polygon class="cls-52" points="86.34 32.2 106.63 143 105.91 143 85.62 32.2 86.34 32.2"/>
          <polygon class="cls-105" points="87.05 32.2 107.34 143 106.63 143 86.34 32.2 87.05 32.2"/>
          <polygon class="cls-84" points="87.77 32.2 108.06 143 107.34 143 87.05 32.2 87.77 32.2"/>
          <polygon class="cls-131" points="88.49 32.2 108.78 143 108.06 143 87.77 32.2 88.49 32.2"/>
          <polygon class="cls-158" points="89.21 32.2 109.5 143 108.78 143 88.49 32.2 89.21 32.2"/>
          <polygon class="cls-99" points="89.92 32.2 110.21 143 109.5 143 89.21 32.2 89.92 32.2"/>
          <polygon class="cls-38" points="90.64 32.2 110.93 143 110.21 143 89.92 32.2 90.64 32.2"/>
          <polygon class="cls-109" points="91.36 32.2 111.65 143 110.93 143 90.64 32.2 91.36 32.2"/>
          <polygon class="cls-102" points="92.07 32.2 112.36 143 111.65 143 91.36 32.2 92.07 32.2"/>
          <polygon class="cls-25" points="92.79 32.2 113.08 143 112.36 143 92.07 32.2 92.79 32.2"/>
          <polygon class="cls-77" points="93.51 32.2 113.8 143 113.08 143 92.79 32.2 93.51 32.2"/>
          <polygon class="cls-55" points="94.22 32.2 114.52 143 113.8 143 93.51 32.2 94.22 32.2"/>
          <polygon class="cls-127" points="94.94 32.2 115.23 143 114.52 143 94.22 32.2 94.94 32.2"/>
          <polygon class="cls-120" points="95.66 32.2 115.95 143 115.23 143 94.94 32.2 95.66 32.2"/>
          <polygon class="cls-36" points="96.38 32.2 116.67 143 115.95 143 95.66 32.2 96.38 32.2"/>
          <polygon class="cls-3" points="97.09 32.2 117.38 143 116.67 143 96.38 32.2 97.09 32.2"/>
          <polygon class="cls-116" points="97.81 32.2 118.1 143 117.38 143 97.09 32.2 97.81 32.2"/>
          <polygon class="cls-50" points="98.53 32.2 118.82 143 118.1 143 97.81 32.2 98.53 32.2"/>
          <polygon class="cls-41" points="99.24 32.2 119.53 143 118.82 143 98.53 32.2 99.24 32.2"/>
          <polygon class="cls-155" points="99.96 32.2 120.25 143 119.53 143 99.24 32.2 99.96 32.2"/>
          <polygon class="cls-176" points="100.68 32.2 120.95 142.88 120.32 143 120.25 143 99.96 32.2 100.68 32.2"/>
          <polygon class="cls-165" points="101.4 32.2 121.64 142.76 120.95 142.88 100.68 32.2 101.4 32.2"/>
          <polygon class="cls-1" points="102.11 32.2 122.34 142.63 121.64 142.76 101.4 32.2 102.11 32.2"/>
          <polygon class="cls-170" points="102.83 32.2 123.03 142.5 122.34 142.63 102.11 32.2 102.83 32.2"/>
          <polygon class="cls-27" points="103.55 32.2 123.24 139.76 123.24 142.46 123.03 142.5 102.83 32.2 103.55 32.2"/>
          <polygon class="cls-49" points="104.26 32.2 123.24 135.84 123.24 139.76 103.55 32.2 104.26 32.2"/>
          <polygon class="cls-17" points="104.98 32.2 123.24 131.93 123.24 135.84 104.26 32.2 104.98 32.2"/>
          <polygon class="cls-164" points="105.7 32.2 123.24 128.01 123.24 131.93 104.98 32.2 105.7 32.2"/>
          <polygon class="cls-32" points="106.42 32.2 123.24 124.1 123.24 128.01 105.7 32.2 106.42 32.2"/>
          <polygon class="cls-133" points="107.13 32.2 123.24 120.18 123.24 124.1 106.42 32.2 107.13 32.2"/>
          <polygon class="cls-145" points="107.85 32.2 123.24 116.26 123.24 120.18 107.13 32.2 107.85 32.2"/>
          <polygon class="cls-162" points="108.57 32.2 123.24 112.35 123.24 116.26 107.85 32.2 108.57 32.2"/>
          <polygon class="cls-26" points="109.28 32.2 123.24 108.43 123.24 112.35 108.57 32.2 109.28 32.2"/>
          <polygon class="cls-94" points="110 32.2 123.24 104.52 123.24 108.43 109.28 32.2 110 32.2"/>
          <polygon class="cls-141" points="110.72 32.2 123.24 100.6 123.24 104.52 110 32.2 110.72 32.2"/>
          <polygon class="cls-103" points="111.44 32.2 123.24 96.69 123.24 100.6 110.72 32.2 111.44 32.2"/>
          <polygon class="cls-125" points="112.15 32.2 123.24 92.77 123.24 96.69 111.44 32.2 112.15 32.2"/>
          <polygon class="cls-13" points="112.87 32.2 123.24 88.85 123.24 92.77 112.15 32.2 112.87 32.2"/>
          <polygon class="cls-68" points="113.59 32.2 123.24 84.94 123.24 88.85 112.87 32.2 113.59 32.2"/>
          <polygon class="cls-16" points="114.3 32.2 123.24 81.02 123.24 84.94 113.59 32.2 114.3 32.2"/>
          <polygon class="cls-130" points="115.02 32.2 123.24 77.11 123.24 81.02 114.3 32.2 115.02 32.2"/>
          <polygon class="cls-150" points="115.74 32.2 123.24 73.19 123.24 77.11 115.02 32.2 115.74 32.2"/>
          <polygon class="cls-4" points="116.45 32.2 123.24 69.28 123.24 73.19 115.74 32.2 116.45 32.2"/>
          <polygon class="cls-161" points="117.17 32.2 123.24 65.36 123.24 69.28 116.45 32.2 117.17 32.2"/>
          <polygon class="cls-166" points="117.89 32.2 123.24 61.44 123.24 65.36 117.17 32.2 117.89 32.2"/>
          <polygon class="cls-142" points="118.61 32.2 123.24 57.53 123.24 61.44 117.89 32.2 118.61 32.2"/>
          <polygon class="cls-51" points="119.32 32.2 123.24 53.61 123.24 57.53 118.61 32.2 119.32 32.2"/>
          <polygon class="cls-146" points="120.04 32.2 123.24 49.7 123.24 53.61 119.32 32.2 120.04 32.2"/>
          <polygon class="cls-33" points="120.76 32.2 123.24 45.78 123.24 49.7 120.04 32.2 120.76 32.2"/>
          <polygon class="cls-91" points="121.47 32.2 123.24 41.87 123.24 45.78 120.76 32.2 121.47 32.2"/>
          <polygon class="cls-96" points="122.19 32.2 123.24 37.95 123.24 41.87 121.47 32.2 122.19 32.2"/>
          <polygon class="cls-86" points="122.91 32.2 123.24 34.03 123.24 37.95 122.19 32.2 122.91 32.2"/>
          <polygon class="cls-157" points="123.24 34.03 122.91 32.2 123.24 32.2 123.24 34.03"/>
        </g>
      </g>
      <g>
        <path class="cls-8" d="m196.12,33.13v68.74h25.51v13.87h-41.62V33.13h16.1Z"/>
        <path class="cls-8" d="m238.1,30.4c4.95,0,9.04,4.09,9.04,9.04s-4.09,9.04-9.04,9.04-9.04-4.09-9.04-9.04,4.09-9.04,9.04-9.04Zm7.56,31.71v53.63h-15.11v-53.63h15.11Z"/>
        <path class="cls-8" d="m260.02,62.11h15.11v6.07c5.7-7.18,12.76-7.8,15.98-7.8,11.27,0,15.61,7.06,16.97,9.78,2.6-4.21,7.93-9.78,17.22-9.78,8.3,0,12.39,3.84,14.49,6.56,3.47,4.58,3.72,9.17,3.72,15.11v33.69h-15.11v-29.23c0-6.32-1.36-9.17-2.48-10.53-1.98-2.48-4.71-2.72-6.19-2.72-4.09,0-6.69,1.86-8.3,4.71-1.98,3.22-2.11,7.56-2.11,10.4v27.37h-15.11v-29.23c0-6.32-1.36-9.17-2.48-10.53-1.98-2.48-4.71-2.72-6.19-2.72-4.09,0-6.69,1.86-8.3,4.71-1.98,3.22-2.11,7.56-2.11,10.4v27.37h-15.11v-53.63Z"/>
        <path class="cls-8" d="m365.42,30.4c4.95,0,9.04,4.09,9.04,9.04s-4.09,9.04-9.04,9.04-9.04-4.09-9.04-9.04,4.09-9.04,9.04-9.04Zm7.56,31.71v53.63h-15.11v-53.63h15.11Z"/>
        <path class="cls-8" d="m402.45,74.99v40.75h-15.11v-40.75h-5.94v-12.88h5.94v-18.33h15.11v18.33h10.4v12.88h-10.4Z"/>
        <path class="cls-8" d="m435.89,25.45v90.29h-15.11V25.45h15.11Z"/>
        <path class="cls-8" d="m502.9,100.75c-1.61,3.96-7.68,16.72-26.38,16.72-8.67,0-15.23-2.48-20.56-7.56-5.94-5.57-8.42-12.51-8.42-20.93,0-10.65,4.33-17.22,8.17-21.06,6.32-6.19,13.75-7.55,20.19-7.55,10.9,0,17.22,4.33,20.93,8.79,5.7,6.81,6.44,15.23,6.44,21.05v1.24h-40.13c0,3.22.87,6.69,2.6,9.04,1.61,2.23,4.95,5.08,10.78,5.08s10.03-2.72,12.51-7.06l13.87,2.23Zm-13.87-18.95c-1.24-7.31-7.18-10.78-12.76-10.78s-11.39,3.59-12.63,10.78h25.39Z"/>
        <path class="cls-8" d="m544.14,74.87c-3.59-3.34-7.18-3.59-8.79-3.59-3.59,0-5.82,1.73-5.82,4.33,0,1.36.62,3.47,4.83,4.83l3.59,1.11c4.21,1.36,10.53,3.47,13.62,7.68,1.61,2.23,2.73,5.45,2.73,8.92,0,4.83-1.61,9.66-5.95,13.62-4.33,3.96-9.54,5.7-16.1,5.7-11.15,0-17.46-5.33-20.81-8.92l7.93-9.17c2.97,3.47,7.43,6.19,11.89,6.19,4.21,0,7.43-2.11,7.43-5.82,0-3.34-2.72-4.71-4.71-5.45l-3.47-1.24c-3.84-1.36-8.3-3.1-11.52-6.44-2.48-2.6-4.09-5.94-4.09-10.28,0-5.2,2.48-9.54,5.57-12.14,4.21-3.34,9.66-3.84,14-3.84,3.96,0,10.28.5,17.09,5.7l-7.43,8.79Z"/>
        <path class="cls-8" d="m591.7,74.87c-3.59-3.34-7.18-3.59-8.79-3.59-3.59,0-5.82,1.73-5.82,4.33,0,1.36.62,3.47,4.83,4.83l3.59,1.11c4.21,1.36,10.53,3.47,13.62,7.68,1.61,2.23,2.72,5.45,2.72,8.92,0,4.83-1.61,9.66-5.95,13.62-4.33,3.96-9.54,5.7-16.1,5.7-11.15,0-17.46-5.33-20.81-8.92l7.93-9.17c2.97,3.47,7.43,6.19,11.89,6.19,4.21,0,7.43-2.11,7.43-5.82,0-3.34-2.72-4.71-4.71-5.45l-3.47-1.24c-3.84-1.36-8.3-3.1-11.52-6.44-2.48-2.6-4.09-5.94-4.09-10.28,0-5.2,2.48-9.54,5.57-12.14,4.21-3.34,9.66-3.84,14-3.84,3.96,0,10.28.5,17.09,5.7l-7.43,8.79Z"/>
      </g>
    </g>
  </g>
</svg>