<?xml version="1.0" encoding="UTF-8"?>
<svg width="102px" height="102px" viewBox="0 0 102 102" version="1.1" xmlns="http://www.w3.org/2000/svg" xmlns:xlink="http://www.w3.org/1999/xlink">
    <title>Group</title>
    <defs>
        <linearGradient x1="22.6032304%" y1="12.4047225%" x2="86.6551366%" y2="80.3387471%" id="linearGradient-1">
            <stop stop-color="#B1FFBF" offset="0%"></stop>
            <stop stop-color="#FFF16D" offset="100%"></stop>
        </linearGradient>
    </defs>
    <g id="Page-1" stroke="none" stroke-width="1" fill="none" fill-rule="evenodd">
        <g id="swap3" transform="translate(-907.000000, -337.000000)">
            <g id="Group" transform="translate(907.000000, 337.000000)">
                <circle id="Oval" fill="#052235" cx="51" cy="51" r="51"></circle>
                <g id="Group-21" transform="translate(25.000000, 26.000000)" fill="url(#linearGradient-1)">
                    <path d="M13.427248,34.5411318 L17.3252888,36.3026341 C19.9111447,37.4712089 22.6613627,38.0630564 25.4994576,38.0630564 C28.3391797,38.0630564 31.0899402,37.4712089 33.6747112,36.3026341 L35.946489,35.2760811 L30.1292625,32.6494879 L29.9328958,32.7094287 C26.4075177,33.7883623 22.620679,33.5502193 19.2699696,32.0360402 L4.80718586,25.4992575 L13.427248,21.6047282 L17.3290859,23.3694706 C19.9154843,24.5369653 22.6646174,25.1288128 25.4994576,25.1288128 C28.3348401,25.1288128 31.0839733,24.5369653 33.6709141,23.3689305 L35.9416069,22.3418376 L30.123838,19.7147043 L29.9274713,19.7746451 C26.4053479,20.8524987 22.6223064,20.6143557 19.2753941,19.1028766 L4.80772831,12.5639339 L19.2743092,6.02553121 C23.231477,4.2381086 27.7701504,4.23864861 31.7256908,6.02553121 L46.1922717,12.5639339 L31.8905954,19.0278156 L46.1928141,25.4992575 L31.8960199,31.9615192 L46.1928141,38.4356611 L31.7267757,44.9735238 C27.7696079,46.7625664 23.2303921,46.7625664 19.2732243,44.9735238 L4.80718586,38.4356611 L13.427248,34.5411318 Z M51,25.5003375 C51,23.6653943 49.9579549,22.0561739 48.281244,21.2985444 L43.2652152,19.0310557 L48.2796167,16.765727 C49.9574124,16.0086375 51,14.3977971 51,12.5639339 C51,10.7300707 49.9579549,9.12031035 48.2807016,8.36214076 L33.671999,1.76055727 C28.4785892,-0.586852422 22.5214108,-0.586852422 17.328001,1.76055727 L2.71875598,8.36214076 C1.04150269,9.12031035 0,10.7300707 0,12.5639339 C0,14.3972571 1.04204514,16.0080975 2.71984088,16.765727 L7.73369993,19.0310557 L2.71929843,21.2985444 C1.04204514,22.0561739 0,23.6653943 0,25.5003375 C0,27.3331207 1.04204514,28.943421 2.71984088,29.7015906 L7.73369993,31.9674593 L2.71875598,34.234408 C1.04150269,34.9925776 0,36.6017979 0,38.4356611 C0,40.2695243 1.04204514,41.8798247 2.71984088,42.6379942 L17.328001,49.2401177 C19.9122296,50.4081525 22.6613627,51 25.4994576,51 C28.3380948,51 31.0877704,50.4081525 33.671999,49.2401177 L48.2796167,42.6379942 C49.9574124,41.8809047 51,40.2700643 51,38.4356611 C51,36.6017979 49.9579549,34.9925776 48.2807016,34.234408 L43.2652152,31.9674593 L48.2796167,29.7015906 C49.9574124,28.9445011 51,27.3342007 51,25.5003375 L51,25.5003375 Z" id="Fill-9"></path>
                </g>
            </g>
        </g>
    </g>
</svg>