<svg width="312" height="67" viewBox="0 0 312 67" fill="none" xmlns="http://www.w3.org/2000/svg">
<path fill-rule="evenodd" clip-rule="evenodd" d="M63.632 20.7302C63.715 18.6342 65.482 17.0032 67.577 17.0872L67.576 17.0862C68.781 17.1702 69.944 17.5582 70.958 18.2142L73.777 12.8592C71.823 11.1712 69.312 10.2682 66.73 10.3222C61.094 10.3222 56.021 14.2642 56.021 20.1822V24.4142H50.948V30.6152H56.021V54.0072H63.631V30.6152H72.086V24.4142H63.631V20.7512C63.631 20.7432 63.631 20.7362 63.632 20.7302ZM104.214 54.0074V24.4144H96.0487V38.2254C96.0487 45.8334 91.8207 47.2424 89.2837 47.2424C84.2097 47.2424 83.9287 42.1704 83.9287 38.5064V24.4144H75.7527V40.4794C75.7527 48.6534 79.6987 54.2904 87.5897 54.2904C92.6627 54.2904 95.1987 52.0354 96.3257 50.6264H97.1677L98.2957 54.0074H104.214ZM120.843 30.3324C118.306 30.3324 117.179 31.4604 117.179 32.8694C117.179 34.7064 119.376 35.3215 121.27 35.8517L121.271 35.8519C121.412 35.8914 121.551 35.9304 121.688 35.9694C127.044 37.0974 132.398 38.7874 132.398 44.9874C132.398 51.1864 127.325 54.5704 121.124 54.5704C114.36 54.5704 109.005 50.3434 108.723 44.1424H116.05C116.327 46.6864 118.57 48.5564 121.123 48.3694C124.223 48.3694 124.787 46.6794 124.787 45.5514C124.787 43.2964 122.814 42.7324 120.559 42.1694C120.361 42.12 120.148 42.0687 119.923 42.0144L119.922 42.0143C116.309 41.1431 109.567 39.5175 109.567 33.1504C109.566 27.2324 115.206 24.4144 120.843 24.4144C127.607 24.4144 131.835 28.3604 132.116 33.4324H124.789C124.789 32.0224 123.947 30.3324 120.843 30.3324ZM142.828 41.3236H164.529V41.3256C165.657 29.2066 157.766 23.8506 150.156 23.8506C149.915 23.8466 149.675 23.8486 149.434 23.8576C141.464 24.1336 135.225 30.8176 135.5 38.7886C135.495 38.9446 135.492 39.1016 135.491 39.2586C135.468 47.5366 142.16 54.2646 150.438 54.2886C156.462 54.3666 161.882 50.6396 163.966 44.9876H156.356C154.991 46.6866 152.896 47.6306 150.719 47.5246C147.337 47.5246 143.669 45.8326 142.828 41.3236ZM156.638 35.4056H143.392C144.363 32.3826 147.268 30.4066 150.438 30.6146C153.407 30.4506 156.048 32.4906 156.638 35.4056Z" fill="url(#paint0_linear)"/>
<path fill-rule="evenodd" clip-rule="evenodd" d="M184.87 54.2904C181.349 54.2904 178.49 53.3904 176.29 51.5894C174.09 49.7904 172.99 47.5914 172.99 44.9894H179.53C179.53 46.1904 180.06 47.1714 181.12 47.9314C182.18 48.6904 183.551 49.0694 185.23 49.0694C186.47 49.0694 187.45 48.7704 188.17 48.1694C188.891 47.5694 189.25 46.7704 189.25 45.7704C189.25 44.1714 188.55 43.1904 187.15 42.8294L179.95 40.8514C175.91 39.7294 173.891 37.1514 173.891 33.1104C173.891 30.7904 174.89 28.8414 176.891 27.2614C178.89 25.6814 181.47 24.8904 184.631 24.8904C188.19 24.8904 190.92 25.6904 192.82 27.2904C194.72 28.8904 195.67 30.9894 195.67 33.5894H189.25C189.25 32.4314 188.82 31.5204 187.96 30.8604C187.099 30.2004 185.91 29.8704 184.391 29.8704C183.229 29.8704 182.269 30.1404 181.511 30.6814C180.75 31.2204 180.37 31.9094 180.37 32.7494C180.37 34.2704 181.17 35.2704 182.77 35.7494L189.431 37.6694C191.35 38.2294 192.91 39.1814 194.11 40.5204C195.31 41.8604 195.91 43.4094 195.91 45.1694C195.91 47.8904 194.94 50.0894 193 51.7704C191.059 53.4504 188.35 54.2904 184.87 54.2904Z" fill="white"/>
<path fill-rule="evenodd" clip-rule="evenodd" d="M208.271 53.5697L197.951 25.6107H205.151L210.97 44.0897L217.031 25.6107H224.111L230.17 44.0897L235.991 25.6107H243.191L232.871 53.5697H227.351L220.571 33.6497L213.791 53.5697H208.271Z" fill="white"/>
<path fill-rule="evenodd" clip-rule="evenodd" d="M259.091 48.4701C261.771 48.4701 263.82 47.6301 265.241 45.9501C266.66 44.2711 267.371 42.1501 267.371 39.5891C267.371 37.0311 266.66 34.9091 265.241 33.2301C263.82 31.5501 261.771 30.7101 259.091 30.7101C256.571 30.7101 254.581 31.5401 253.121 33.2001C251.66 34.8611 250.931 36.9901 250.931 39.5891C250.931 42.1911 251.66 44.3221 253.121 45.9801C254.581 47.6401 256.571 48.4701 259.091 48.4701ZM258.131 54.2901C253.771 54.2901 250.391 52.9091 247.991 50.1501C245.591 47.3901 244.391 43.8701 244.391 39.5891C244.391 35.3511 245.652 31.8411 248.171 29.0601C250.692 26.2811 254.071 24.8901 258.311 24.8901C260.191 24.8901 261.911 25.2901 263.471 26.0891C265.031 26.8901 266.232 27.9901 267.071 29.3901V25.6111H273.612V53.5701H267.071V49.7901C266.271 51.1501 265.021 52.2411 263.321 53.0601C261.62 53.8801 259.891 54.2901 258.131 54.2901Z" fill="white"/>
<path fill-rule="evenodd" clip-rule="evenodd" d="M296.531 48.4701C298.931 48.4701 300.89 47.6401 302.411 45.9801C303.931 44.3221 304.691 42.1911 304.691 39.5891C304.691 36.9901 303.931 34.8611 302.411 33.2001C300.89 31.5401 298.931 30.7101 296.531 30.7101C294.051 30.7101 292.051 31.5311 290.531 33.1691C289.01 34.8101 288.252 36.9501 288.252 39.5891C288.252 42.2301 289.01 44.3701 290.531 46.0111C292.051 47.6521 294.051 48.4701 296.531 48.4701ZM297.911 24.8901C301.911 24.8901 305.131 26.2401 307.571 28.9411C310.01 31.6401 311.231 35.1911 311.231 39.5891C311.231 43.9091 309.951 47.4411 307.391 50.1811C304.831 52.9211 301.531 54.2901 297.491 54.2901C295.651 54.2901 293.911 53.8801 292.271 53.0601C290.631 52.2411 289.391 51.1501 288.552 49.7901V66.1691H282.011V25.6111H288.552V29.3901C289.391 28.0311 290.671 26.9411 292.391 26.1201C294.111 25.3001 295.951 24.8901 297.911 24.8901Z" fill="white"/>
<path fill-rule="evenodd" clip-rule="evenodd" d="M21.1283 41.9808C21.2463 42.0468 21.3653 42.1168 21.4833 42.1818C21.3893 42.1258 21.2743 42.0558 21.1363 41.9718L21.1283 41.9808Z" fill="white"/>
<path fill-rule="evenodd" clip-rule="evenodd" d="M14.076 39.7484L7.23701 53.4664C6.94501 54.0034 7.09301 54.6234 7.59501 54.9724C7.80601 55.1194 8.03901 55.1904 8.26901 55.1904C8.58601 55.1904 8.89401 55.0544 9.12301 54.7924L19.753 43.1494C17.23 42.1584 15.169 40.6454 14.076 39.7484Z" fill="url(#paint1_linear)"/>
<mask id="mask0" mask-type="alpha" maskUnits="userSpaceOnUse" x="0" y="17" width="46" height="30">
<path fill-rule="evenodd" clip-rule="evenodd" d="M0 19.2203V19.3603C0.002 19.5993 0.014 19.7973 0.029 19.9543C0.059 20.1013 0.104 20.2593 0.143 20.4113C0.271 20.9243 0.428 21.4613 0.646 22.0563C1.046 23.1723 1.607 24.3153 2.414 25.6573C3.7 27.7713 5.29 29.8213 7.276 31.9203C10.768 35.5953 14.95 38.8693 19.705 41.6543C22.078 43.0453 24.497 44.2013 26.895 45.0913C29.839 46.1753 32.352 46.7593 34.82 46.9283L34.942 46.9303C35.177 46.9323 35.419 46.9373 35.666 46.9373C36.683 46.9373 37.885 46.8863 39.084 46.5083C40.708 46.0323 42.076 45.0683 42.939 43.7893C43.97 42.2093 44.042 40.4093 43.919 39.1793C43.831 38.2453 43.467 37.0033 43.249 36.3153L45.626 36.6253L39.142 31.3283L39.616 39.6013L40.791 37.7013C40.958 38.3213 41.111 39.0633 41.162 39.4803C41.311 40.6303 41.149 41.6303 40.696 42.3683C40.192 43.1463 39.372 43.7413 38.318 44.0903C37.318 44.4483 36.176 44.4923 34.907 44.5103C32.72 44.4283 30.338 43.9453 27.622 43.0343C25.309 42.2543 22.966 41.2203 20.66 39.9583C15.969 37.4013 11.82 34.3493 8.329 30.8923C6.353 28.9243 4.761 26.9973 3.461 25.0033C2.661 23.7563 2.099 22.6953 1.691 21.6603C1.502 21.1893 1.355 20.7323 1.23 20.2823C1.179 20.0973 1.125 19.9113 1.085 19.7303C0.798 18.9133 0.285 17.4403 0.205 17.1873C0.054 18.0333 0.004 18.7093 0 19.2203Z" fill="white"/>
</mask>
<g mask="url(#mask0)">
<path fill-rule="evenodd" clip-rule="evenodd" d="M0 19.2203V19.3603C0.002 19.5993 0.014 19.7973 0.029 19.9543C0.059 20.1013 0.104 20.2593 0.143 20.4113C0.271 20.9243 0.428 21.4613 0.646 22.0563C1.046 23.1723 1.607 24.3153 2.414 25.6573C3.7 27.7713 5.29 29.8213 7.276 31.9203C10.768 35.5953 14.95 38.8693 19.705 41.6543C22.078 43.0453 24.497 44.2013 26.895 45.0913C29.839 46.1753 32.352 46.7593 34.82 46.9283L34.942 46.9303C35.177 46.9323 35.419 46.9373 35.666 46.9373C36.683 46.9373 37.885 46.8863 39.084 46.5083C40.708 46.0323 42.076 45.0683 42.939 43.7893C43.97 42.2093 44.042 40.4093 43.919 39.1793C43.831 38.2453 43.467 37.0033 43.249 36.3153L45.626 36.6253L39.142 31.3283L39.616 39.6013L40.791 37.7013C40.958 38.3213 41.111 39.0633 41.162 39.4803C41.311 40.6303 41.149 41.6303 40.696 42.3683C40.192 43.1463 39.372 43.7413 38.318 44.0903C37.318 44.4483 36.176 44.4923 34.907 44.5103C32.72 44.4283 30.338 43.9453 27.622 43.0343C25.309 42.2543 22.966 41.2203 20.66 39.9583C15.969 37.4013 11.82 34.3493 8.329 30.8923C6.353 28.9243 4.761 26.9973 3.461 25.0033C2.661 23.7563 2.099 22.6953 1.691 21.6603C1.502 21.1893 1.355 20.7323 1.23 20.2823C1.179 20.0973 1.125 19.9113 1.085 19.7303C0.798 18.9133 0.285 17.4403 0.205 17.1873C0.054 18.0333 0.004 18.7093 0 19.2203Z" fill="url(#paint2_linear)"/>
</g>
<mask id="mask1" mask-type="alpha" maskUnits="userSpaceOnUse" x="0" y="8" width="39" height="23">
<path fill-rule="evenodd" clip-rule="evenodd" d="M0.205002 15.5583L8.022 15.4983L6.143 13.9233C7.155 13.8783 8.543 13.8523 9.141 13.9023C10.68 14.0383 12.282 14.3433 13.901 14.8113C16.899 15.6783 19.975 16.9793 23.044 18.6783C25.956 20.2773 28.753 22.1623 31.36 24.2793C33.393 25.9413 35.732 28.0563 35.732 28.0563C36.173 28.4983 38.227 30.3783 38.227 30.3783C37.815 28.9063 36.697 27.4813 36.697 27.4813L36.695 27.4823C35.378 25.8213 34.294 24.9483 32.305 23.1703C29.725 20.8733 26.933 18.8043 24.008 17.0213C20.887 15.1053 17.724 13.5973 14.606 12.5413C12.858 11.9513 11.113 11.5373 9.418 11.3113C7.982 11.1343 6.296 11.3203 4.788 11.5523L5.117 8.7233L0.205002 15.5583Z" fill="white"/>
</mask>
<g mask="url(#mask1)">
<path fill-rule="evenodd" clip-rule="evenodd" d="M0.205002 15.5583L8.022 15.4983L6.143 13.9233C7.155 13.8783 8.543 13.8523 9.141 13.9023C10.68 14.0383 12.282 14.3433 13.901 14.8113C16.899 15.6783 19.975 16.9793 23.044 18.6783C25.956 20.2773 28.753 22.1623 31.36 24.2793C33.393 25.9413 35.732 28.0563 35.732 28.0563C36.173 28.4983 38.227 30.3783 38.227 30.3783C37.815 28.9063 36.697 27.4813 36.697 27.4813L36.695 27.4823C35.378 25.8213 34.294 24.9483 32.305 23.1703C29.725 20.8733 26.933 18.8043 24.008 17.0213C20.887 15.1053 17.724 13.5973 14.606 12.5413C12.858 11.9513 11.113 11.5373 9.418 11.3113C7.982 11.1343 6.296 11.3203 4.788 11.5523L5.117 8.7233L0.205002 15.5583Z" fill="url(#paint3_linear)"/>
</g>
<path fill-rule="evenodd" clip-rule="evenodd" d="M33.3495 1.6927C33.6255 1.1437 33.4595 0.528698 32.9435 0.194698C32.4285 -0.135302 31.8025 -0.0373018 31.4145 0.434698L11.2865 23.9597L10.9405 24.3637C10.7335 24.6197 10.6445 24.9517 10.6965 25.2757C10.7475 25.5997 10.9345 25.8887 11.2105 26.0677L15.2385 28.6827L18.4405 30.7617C18.6165 30.8767 18.6785 31.1037 18.5835 31.2907L18.4355 31.5857L16.4545 35.1977C17.4875 36.1877 19.6925 38.0347 23.0515 39.5247L25.8295 36.9637L32.0175 30.3597C32.2595 30.1027 32.3705 29.7547 32.3215 29.4047C32.2725 29.0547 32.0705 28.7517 31.7675 28.5697L23.6695 23.7227C23.4855 23.6137 23.4175 23.3787 23.5195 23.1737L33.3495 1.6927Z" fill="url(#paint4_linear)"/>
<defs>
<linearGradient id="paint0_linear" x1="2.75487" y1="30.7615" x2="28.8731" y2="103.392" gradientUnits="userSpaceOnUse">
<stop stop-color="#B1FFBF"/>
<stop offset="1" stop-color="#FFF16D"/>
</linearGradient>
<linearGradient id="paint1_linear" x1="8.97326" y1="-13.6882" x2="-23.2922" y2="35.0977" gradientUnits="userSpaceOnUse">
<stop stop-color="#B1FFBF"/>
<stop offset="1" stop-color="#FFF16D"/>
</linearGradient>
<linearGradient id="paint2_linear" x1="-13.8028" y1="33.7129" x2="18.1916" y2="64.3921" gradientUnits="userSpaceOnUse">
<stop stop-color="white" stop-opacity="0.01"/>
<stop offset="1" stop-color="white"/>
</linearGradient>
<linearGradient id="paint3_linear" x1="-13.0579" y1="24.6742" x2="9.54916" y2="52.366" gradientUnits="userSpaceOnUse">
<stop stop-color="white"/>
<stop offset="1" stop-color="#F6F6F6" stop-opacity="0.01"/>
</linearGradient>
<linearGradient id="paint4_linear" x1="15.2436" y1="-17.3013" x2="-24.2838" y2="14.4973" gradientUnits="userSpaceOnUse">
<stop stop-color="#B1FFBF"/>
<stop offset="1" stop-color="#FFF16D"/>
</linearGradient>
</defs>
</svg>
