<svg width="113" height="19" viewBox="0 0 113 19" fill="none" xmlns="http://www.w3.org/2000/svg">
  <path d="M14.9181 0.809013V3.84764H7.8045C6.13272 3.84764 4.913 4.29399 4.14534 5.1867C3.39475 6.06223 3.01945 7.50429 3.01945 9.51288C3.01945 11.5043 3.39475 12.9464 4.14534 13.8391C4.89594 14.7146 6.11566 15.1524 7.8045 15.1524H10.6704C11.5234 15.1524 12.1375 14.9292 12.5128 14.4828C12.8881 14.0193 13.0757 13.427 13.0757 12.706C13.0757 12.0021 12.8966 11.4614 12.5384 11.0837C12.1972 10.6888 11.6684 10.4914 10.9519 10.4914H7.11361V7.83906H11.259C12.8113 7.83906 13.9628 8.28541 14.7134 9.17811C15.464 10.0536 15.8393 11.2468 15.8393 12.7575C15.8393 13.5129 15.7369 14.2253 15.5322 14.8949C15.3446 15.5472 15.029 16.1223 14.5855 16.6202C14.159 17.1009 13.6046 17.4871 12.9222 17.779C12.2569 18.0536 11.4381 18.191 10.4657 18.191H7.8045C5.27977 18.191 3.34357 17.4785 1.99591 16.0536C0.665302 14.6116 0 12.4313 0 9.51288C0 6.57725 0.665302 4.397 1.99591 2.9721C3.34357 1.53004 5.27977 0.809013 7.8045 0.809013H14.9181Z" fill="black"/>
  <path d="M20.2711 18.191H16.9446L23.0091 2.74034C23.3332 1.91631 23.7853 1.3412 24.3653 1.01502C24.9624 0.671673 25.7215 0.5 26.6427 0.5C27.5468 0.5 28.2889 0.671673 28.8689 1.01502C29.4659 1.3412 29.918 1.91631 30.2251 2.74034L36.0592 18.191H32.7071L27.4615 4.20815C27.308 3.8133 27.0265 3.61588 26.6171 3.61588C26.2077 3.61588 25.9177 3.8133 25.7471 4.20815L20.2711 18.191Z" fill="black"/>
  <path d="M41.591 18.191H38.5971V4.38841C38.5971 3.22103 38.9383 2.28541 39.6207 1.58155C40.303 0.860515 41.3436 0.5 42.7425 0.5C43.9707 0.5 44.9431 0.80043 45.6595 1.40129C46.376 1.98498 46.8537 2.82618 47.0925 3.92489L49.5234 14.5601C49.6769 15.2124 50.0608 15.5386 50.6749 15.5386C51.272 15.5386 51.6558 15.2124 51.8264 14.5601L54.2573 3.92489C54.4961 2.82618 54.9482 1.98498 55.6135 1.40129C56.2958 0.80043 57.2597 0.5 58.505 0.5C59.9038 0.5 60.9444 0.860515 61.6268 1.58155C62.3092 2.28541 62.6503 3.22103 62.6503 4.38841V18.191H59.6565V4.54292C59.6565 4.19957 59.5456 3.93348 59.3238 3.74464C59.1191 3.53863 58.8206 3.43562 58.4282 3.43562C58.07 3.43562 57.797 3.52146 57.6094 3.69313C57.4217 3.84764 57.2938 4.07082 57.2256 4.36266L54.7435 14.9979C54.4705 16.1481 54.0185 17.0236 53.3873 17.6245C52.7561 18.2082 51.8434 18.5 50.6493 18.5C49.4381 18.5 48.4999 18.1996 47.8346 17.5987C47.1863 16.9979 46.7343 16.1309 46.4784 14.9979L44.0219 4.36266C43.9536 4.07082 43.8172 3.84764 43.6125 3.69313C43.4248 3.52146 43.1604 3.43562 42.8192 3.43562C42.4269 3.43562 42.1198 3.53863 41.898 3.74464C41.6933 3.93348 41.591 4.19957 41.591 4.54292V18.191Z" fill="black"/>
  <path d="M69.7783 18.191H66.7845V4.38841C66.7845 3.22103 67.1257 2.28541 67.808 1.58155C68.4904 0.860515 69.531 0.5 70.9298 0.5C72.1581 0.5 73.1304 0.80043 73.8469 1.40129C74.5634 1.98498 75.041 2.82618 75.2799 3.92489L77.7108 14.5601C77.8643 15.2124 78.2481 15.5386 78.8623 15.5386C79.4593 15.5386 79.8432 15.2124 80.0138 14.5601L82.4447 3.92489C82.6835 2.82618 83.1356 1.98498 83.8009 1.40129C84.4832 0.80043 85.4471 0.5 86.6924 0.5C88.0912 0.5 89.1318 0.860515 89.8142 1.58155C90.4965 2.28541 90.8377 3.22103 90.8377 4.38841V18.191H87.8438V4.54292C87.8438 4.19957 87.733 3.93348 87.5112 3.74464C87.3065 3.53863 87.0079 3.43562 86.6156 3.43562C86.2574 3.43562 85.9844 3.52146 85.7968 3.69313C85.6091 3.84764 85.4812 4.07082 85.4129 4.36266L82.9308 14.9979C82.6579 16.1481 82.2058 17.0236 81.5747 17.6245C80.9435 18.2082 80.0308 18.5 78.8367 18.5C77.6255 18.5 76.6872 18.1996 76.0219 17.5987C75.3737 16.9979 74.9216 16.1309 74.6657 14.9979L72.2092 4.36266C72.141 4.07082 72.0045 3.84764 71.7998 3.69313C71.6122 3.52146 71.3478 3.43562 71.0066 3.43562C70.6142 3.43562 70.3072 3.53863 70.0854 3.74464C69.8807 3.93348 69.7783 4.19957 69.7783 4.54292V18.191Z" fill="black"/>
  <path d="M96.7119 18.191H93.3854L99.4498 2.74034C99.774 1.91631 100.226 1.3412 100.806 1.01502C101.403 0.671673 102.162 0.5 103.083 0.5C103.988 0.5 104.73 0.671673 105.31 1.01502C105.907 1.3412 106.359 1.91631 106.666 2.74034L112.5 18.191H109.148L103.902 4.20815C103.749 3.8133 103.467 3.61588 103.058 3.61588C102.648 3.61588 102.358 3.8133 102.188 4.20815L96.7119 18.191Z" fill="black"/>
</svg>