<svg width="9" height="10" viewBox="0 0 9 10" fill="none" xmlns="http://www.w3.org/2000/svg">
<path d="M7.06861 0L6.63529 0.511364L8.31307 2.01136V6.76137C8.30193 7.00001 8.10196 7.19318 7.8575 7.18183C7.63529 7.17047 7.45751 6.98866 7.44642 6.76137V3.56818C7.44642 3 7.00194 2.54545 6.44641 2.54545H6.20196V1.10227C6.20196 0.534092 5.75748 0.0795454 5.20194 0.0795454H1.09082C0.535266 0.0795454 0.0908203 0.534092 0.0908203 1.10227V9.54543C0.0908203 9.79542 0.290821 10 0.535266 10H5.75748C6.00194 10 6.20196 9.79542 6.20196 9.54543V3.22727H6.44641C6.63529 3.22727 6.77973 3.375 6.77973 3.56818V6.76137C6.80197 7.38635 7.30197 7.86362 7.91308 7.85227C8.49085 7.82956 8.95752 7.35229 8.97971 6.76137V1.70455L7.06861 0ZM5.07972 4.43182H1.21305V1.32955H5.07972V4.43182Z" fill="#F2994A"/>
</svg>
