<?xml version="1.0" encoding="utf-8"?>
<!-- Generator: Adobe Illustrator 26.5.0, SVG Export Plug-In . SVG Version: 6.00 Build 0)  -->
<svg version="1.1" id="Layer_1" xmlns="http://www.w3.org/2000/svg" xmlns:xlink="http://www.w3.org/1999/xlink" x="0px" y="0px"
	 viewBox="0 0 2885 459.8" style="enable-background:new 0 0 2885 459.8;" xml:space="preserve">
<style type="text/css">
	.st0{fill:url(#SVGID_1_);}
	.st1{fill:url(#SVGID_00000027563053066057180190000010625170013552020158_);}
	.st2{fill:url(#SVGID_00000076596869673191721310000000073470272437481134_);}
	.st3{fill:url(#SVGID_00000072969275749159769580000001057579855889819827_);}
	.st4{fill:#FFFFFF;}
	.st5{fill:url(#SVGID_00000153686440707892779420000005139604320761279395_);}
	.st6{fill:#1E1E1E;}
	.st7{fill:none;}
	.st8{fill:url(#SVGID_00000174592996123422383280000007247483831745592449_);}
	.st9{fill:url(#SVGID_00000004505161595252877710000010554734209721328275_);}
	.st10{fill:url(#SVGID_00000172421119138217829100000010451742144087481264_);}
	.st11{fill:url(#SVGID_00000103252822098209662580000009570164385540641944_);}
	.st12{fill:url(#SVGID_00000057863565138875439020000016895792497819516805_);}
	.st13{fill:url(#SVGID_00000182488705125773505210000018349955793611277456_);}
	.st14{fill:url(#SVGID_00000031187792802385782910000008088542377934505088_);}
	.st15{fill:url(#SVGID_00000098181884573580588460000010769131028942158485_);}
	.st16{fill:url(#SVGID_00000091721940473126798380000004211048805619636880_);}
	.st17{fill:#2E373B;}
</style>
<g id="Coin_Gecko_Vector_Text">
</g>
<g>
	<g>
		<g>
			<linearGradient id="SVGID_1_" gradientUnits="userSpaceOnUse" x1="165.8852" y1="462.9906" x2="485.6481" y2="137.3783">
				<stop  offset="0" style="stop-color:#5D47FF"/>
				<stop  offset="0.5903" style="stop-color:#846DFF"/>
				<stop  offset="1" style="stop-color:#A36CFF"/>
			</linearGradient>
			<path class="st0" d="M437.5,166.8l-25.1-25.1c-17.1,13.9-46.6,25.6-65.2,31.7c-0.8,0.3-1.6,0.6-2.5,0.9
				c-4.9,4.8-9.7,9.9-14.2,15.3l36.6,36.6l68.5,68.5l1.9-1.9C472.4,258.1,472.4,201.6,437.5,166.8z"/>
			
				<linearGradient id="SVGID_00000024719418113332143240000005714556695060042675_" gradientUnits="userSpaceOnUse" x1="223.462" y1="397.5707" x2="494.665" y2="132.4621">
				<stop  offset="0" style="stop-color:#5D47FF"/>
				<stop  offset="0.5903" style="stop-color:#846DFF"/>
				<stop  offset="1" style="stop-color:#A36CFF"/>
			</linearGradient>
			<path style="fill:url(#SVGID_00000024719418113332143240000005714556695060042675_);" d="M437.5,166.8l-25.1-25.1
				c-17.1,13.9-46.6,25.6-65.2,31.7c-0.8,0.3-1.6,0.6-2.5,0.9c-4.9,4.8-9.7,9.9-14.2,15.3l36.6,36.6l68.5,68.5l1.9-1.9
				C472.4,258.1,472.4,201.6,437.5,166.8z"/>
			
				<linearGradient id="SVGID_00000084529391393799421090000002353697753865968297_" gradientUnits="userSpaceOnUse" x1="-2.189" y1="297.9356" x2="317.5739" y2="-27.6766">
				<stop  offset="0" style="stop-color:#5D47FF"/>
				<stop  offset="0.5903" style="stop-color:#846DFF"/>
				<stop  offset="1" style="stop-color:#A36CFF"/>
			</linearGradient>
			<path style="fill:url(#SVGID_00000084529391393799421090000002353697753865968297_);" d="M104.6,226.3l71.3-71.3
				c1.9-5.1,3.9-10.2,6.1-15.3c21.5-48.2,69.7-64.5,115.2-65.3c6-10.6,17.3-17.7,30-17.8l-28.3-28.3c-34.8-34.8-91.3-34.8-126.1,0
				l-1.9,1.9L36.1,165l68.5,68.5C102.6,231.5,102.6,228.3,104.6,226.3z"/>
			
				<linearGradient id="SVGID_00000119815819899857209490000003971842684696682914_" gradientUnits="userSpaceOnUse" x1="-143.128" y1="382.6513" x2="417.5614" y2="-102.8732">
				<stop  offset="0" style="stop-color:#5D47FF"/>
				<stop  offset="0.5903" style="stop-color:#846DFF"/>
				<stop  offset="1" style="stop-color:#A36CFF"/>
			</linearGradient>
			<path style="fill:url(#SVGID_00000119815819899857209490000003971842684696682914_);" d="M104.6,226.3l71.3-71.3
				c1.9-5.1,3.9-10.2,6.1-15.3c21.5-48.2,69.7-64.5,115.2-65.3c6-10.6,17.3-17.7,30-17.8l-28.3-28.3c-34.8-34.8-91.3-34.8-126.1,0
				l-1.9,1.9L36.1,165l68.5,68.5C102.6,231.5,102.6,228.3,104.6,226.3z"/>
			<path class="st4" d="M351,80.3L351,80.3C351,80.3,351,80.3,351,80.3C351,80.3,351,80.3,351,80.3z"/>
			
				<linearGradient id="SVGID_00000136380288031755336180000006271948638378079154_" gradientUnits="userSpaceOnUse" x1="413.414" y1="50.1758" x2="76.1878" y2="391.465">
				<stop  offset="0" style="stop-color:#5D47FF"/>
				<stop  offset="0.5903" style="stop-color:#846DFF"/>
				<stop  offset="1" style="stop-color:#A36CFF"/>
			</linearGradient>
			<path style="fill:url(#SVGID_00000136380288031755336180000006271948638378079154_);" d="M367.2,226.3c2,2,2,5.2,0,7.2
				l-63.1,63.1l-15.5,15.5l-42,42l-7.1,7.1c-2,2-5.2,2-7.2,0c0,0,0,0,0,0l-63.8-63.8l-42-42l-21.9-21.9L36.1,165l-1.9,1.9
				c-34.8,34.8-34.8,91.3,0,126.1L50,308.7l119.1,119.1l3.7,3.7c34.8,34.8,91.3,34.8,126.1,0l1.9-1.9l134.9-134.9L367.2,226.3z"/>
		</g>
	</g>
	<g>
		<g>
			<path class="st6" d="M351,80.3C351,80.3,351,80.3,351,80.3L351,80.3c-2.5-5.5-6.9-10.1-12.7-12.7l0,0c-0.2-0.1-0.3-0.2-0.5-0.3
				c-0.8-0.3-1.6-0.6-2.3-0.9c0.4,2.8,0.1,5.7-1,8.4c-0.3,0.7-0.7,1.3-1.1,2c-3.9,6.4-12,9.1-19,6.1c-3.3-1.4-5.9-3.9-7.5-6.9
				c-1,1.5-2,3.1-2.7,4.8c-5.6,13,0.5,28.1,13.5,33.7c13,5.6,28.1-0.5,33.7-13.5C354.2,94.1,353.9,86.6,351,80.3z"/>
			<path class="st7" d="M317.6,114.5c13,5.6,28.1-0.5,33.7-13.5c2.9-6.9,2.6-14.4-0.3-20.7c0,0,0,0,0,0l0,0
				c-2.5-5.4-6.9-10-12.7-12.7c-0.2-0.1-0.3-0.2-0.5-0.3c-0.8-0.3-1.6-0.6-2.3-0.9c0.4,2.8,0.1,5.7-1,8.4c-0.3,0.7-0.7,1.3-1.1,2
				c-3.9,6.4-12,9.1-19,6.1c-3.3-1.4-5.9-3.9-7.5-6.9c-1,1.5-2,3.1-2.7,4.8C298.5,93.8,304.6,108.9,317.6,114.5z"/>
			
				<linearGradient id="SVGID_00000003078708449715480490000002874320731400597165_" gradientUnits="userSpaceOnUse" x1="126.4404" y1="210.0633" x2="176.185" y2="210.0633">
				<stop  offset="0" style="stop-color:#5D47FF"/>
				<stop  offset="0.5903" style="stop-color:#846DFF"/>
				<stop  offset="1" style="stop-color:#A36CFF"/>
			</linearGradient>
			<path style="fill:url(#SVGID_00000003078708449715480490000002874320731400597165_);" d="M176.2,154.2c-0.1,0.2-0.2,0.5-0.3,0.7
				c-13.2,69.9-19.8,79.7-49.5,100.4l10.6,10.6c6.9-6.8,16.8-18.6,26.2-36.7C174.7,206.9,176.3,173.3,176.2,154.2z"/>
			<path class="st7" d="M351,80.3L351,80.3c-2.5-5.5-6.9-10.1-12.7-12.7c-0.2-0.1-0.3-0.2-0.5-0.3c-0.8-0.3-1.6-0.6-2.3-0.9
				c0.4,2.8,0.1,5.7-1,8.4c-0.3,0.7-0.7,1.3-1.1,2c-3.9,6.4-12,9.1-19,6.1c-3.3-1.4-5.9-3.9-7.5-6.9c-1,1.5-2,3.1-2.7,4.8
				c-5.6,13,0.5,28.1,13.5,33.7c13,5.6,28.1-0.5,33.7-13.5C354.2,94.1,353.9,86.6,351,80.3C351,80.3,351,80.3,351,80.3z"/>
			<path class="st7" d="M326.1,185.3c0.2-0.1,0.4-0.3,0.6-0.5C326.5,184.9,326.3,185,326.1,185.3c-6.6,5.3-12.8,12.1-18.3,20.2
				C313.2,197.4,319.4,190.6,326.1,185.3z"/>
			
				<linearGradient id="SVGID_00000121246109754065225120000016084428074576314000_" gradientUnits="userSpaceOnUse" x1="-554.7342" y1="2948.1753" x2="4.5684" y2="1197.3152">
				<stop  offset="0" style="stop-color:#5D47FF"/>
				<stop  offset="0.5903" style="stop-color:#846DFF"/>
				<stop  offset="1" style="stop-color:#A36CFF"/>
			</linearGradient>
			<path style="fill:url(#SVGID_00000121246109754065225120000016084428074576314000_);" d="M326.6,184.8c-0.2,0.2-0.4,0.3-0.6,0.5
				c-6.6,5.3-12.8,12.1-18.3,20.2c-16.3,24.4-25.7,60.8-19.2,106.6l0,0c0,0,0,0,0,0l24.9-24.4c-1.1-3.6-2.1-7.4-3-11.3
				c-8.6-36.3-2.2-60.2,20.1-86.7c2.8-3.3,9.2-9.9,14.9-15.6c-0.2,0.1-0.4,0.2-0.6,0.2C338.6,176.7,332.4,180.2,326.6,184.8z"/>
			<path class="st4" d="M307.8,205.5c-16.3,24.4-25.7,60.8-19.3,106.6l0,0C282.1,266.2,291.5,229.9,307.8,205.5z"/>
			
				<linearGradient id="SVGID_00000036939704379789182340000014042088645420700858_" gradientUnits="userSpaceOnUse" x1="-562.4715" y1="2945.7039" x2="-3.1689" y2="1194.8435">
				<stop  offset="0" style="stop-color:#5D47FF"/>
				<stop  offset="0.5903" style="stop-color:#846DFF"/>
				<stop  offset="1" style="stop-color:#A36CFF"/>
			</linearGradient>
			<path style="fill:url(#SVGID_00000036939704379789182340000014042088645420700858_);" d="M307.8,205.5
				c-16.3,24.4-25.7,60.8-19.3,106.6l0,0C282.1,266.2,291.5,229.9,307.8,205.5z"/>
			<g>
				
					<linearGradient id="SVGID_00000093154843517759113510000001901572434192723864_" gradientUnits="userSpaceOnUse" x1="313.9312" y1="99.0121" x2="433.147" y2="99.0121">
					<stop  offset="0" style="stop-color:#5D47FF"/>
					<stop  offset="0.5903" style="stop-color:#846DFF"/>
					<stop  offset="1" style="stop-color:#A36CFF"/>
				</linearGradient>
				<path style="fill:url(#SVGID_00000093154843517759113510000001901572434192723864_);" d="M429.8,107.2
					c-14.6-20.6-58.9-30.1-58.9-30.1s-6-16.7-21.6-21.9c-14.1-4.7-35.3,3.7-35.3,3.7l0.3,0.3c4-1.7,8.4-2.6,13-2.7
					c1.1,0,2.2,0,3.3,0.1c15.3,1.2,27.4,12.1,31,26.2c74.3,18.4,73.5,40.6,50.9,59c-0.9,0.7-1.8,1.4-2.8,2.1l0.4,0.4
					C410.1,144.2,443.7,127,429.8,107.2z"/>
				<path class="st4" d="M361.5,82.8c-3.6-14-15.8-24.9-31-26.2c-1.1-0.1-2.2-0.1-3.3-0.1c-4.6,0.1-9,1-13,2.7
					c-7.2,3-13.2,8.3-17,15.1c-45.4,0.8-93.7,17.1-115.2,65.3c-2.1,4.8-4.1,9.7-5.9,14.6c0.1,19.1-1.5,52.7-13,75
					c-9.4,18.2-19.3,29.9-26.2,36.7l31.4,31.4l63.8,63.8c0,0,0,0,0,0c2,2,5.2,2,7.2,0l7.1-7.1l42-42c-6.5-45.9,2.9-82.3,19.3-106.6
					c5.4-8.1,11.7-14.9,18.3-20.3c0.2-0.1,0.4-0.3,0.5-0.4c5.8-4.6,11.9-8.1,18.1-10.5c0.2-0.1,0.4-0.2,0.6-0.2
					c0.6-0.2,1.2-0.5,1.8-0.7c17.6-5.8,45.1-16.6,62.4-29.5c0.9-0.7,1.9-1.4,2.8-2.1C435,123.4,435.9,101.2,361.5,82.8z M351.3,101
					c-5.6,13-20.6,19.1-33.7,13.5c-13-5.6-19.1-20.6-13.5-33.7c0.7-1.7,1.6-3.3,2.7-4.8c1.6,3,4.2,5.5,7.5,6.9
					c7.1,3,15.1,0.3,19-6.1c0.1-0.2,0.2-0.3,0.3-0.5c0.3-0.5,0.6-1,0.8-1.5c1.2-2.8,1.5-5.7,1-8.4c0.8,0.3,1.6,0.5,2.3,0.9
					c0.2,0.1,0.3,0.2,0.5,0.3c5.8,2.7,10.2,7.3,12.7,12.7l0,0c0,0,0,0,0,0c1.9,4.1,2.6,8.8,2.1,13.4
					C352.9,96.2,352.3,98.6,351.3,101z"/>
			</g>
		</g>
	</g>
</g>
<g>
	<g>
		
			<linearGradient id="SVGID_00000097474447825737545350000018382548647282782390_" gradientUnits="userSpaceOnUse" x1="683.3865" y1="569.4691" x2="683.3865" y2="97.3262">
			<stop  offset="0" style="stop-color:#5D47FF"/>
			<stop  offset="0.5903" style="stop-color:#846DFF"/>
			<stop  offset="1" style="stop-color:#A36CFF"/>
		</linearGradient>
		<path style="fill:url(#SVGID_00000097474447825737545350000018382548647282782390_);" d="M792.2,224.4c-0.2-2.9-0.5-5.5-1-7.9
			H689.6v37.2h60.6v0.3c0,6.4-1.4,12.4-4.3,18c-2.9,5.6-7,10.4-12.3,14.6c-5.3,4.2-11.4,7.4-18.3,9.8c-6.8,2.4-14.2,3.5-22.1,3.5
			c-10.5,0-20.4-2-29.6-5.9c-9.3-4-17.5-9.5-24.5-16.5c-7.1-7.1-12.6-15.3-16.5-24.7c-4-9.4-5.9-19.3-5.9-29.8
			c0-10.9,1.9-20.9,5.8-30.1c3.8-9.2,9.1-17.2,15.9-24c6.7-6.8,14.6-12.2,23.7-16c9.1-3.8,19-5.8,29.6-5.8c7.3,0,14.3,1.1,21.2,3.2
			c6.8,2.1,13.4,5.1,19.7,9c6.3,3.8,12.4,8.7,18.4,14.4l26.3-27.6c-5.8-7.3-13-13.8-21.8-19.6c-8.8-5.8-18.6-10.3-29.5-13.5
			c-10.9-3.2-22.2-4.8-34-4.8c-16.7,0-32.2,2.9-46.6,8.7s-27,13.8-37.7,24.2c-10.7,10.4-19,22.5-24.8,36.5
			c-5.9,14-8.8,29.1-8.8,45.4c0,16.5,2.9,31.7,8.7,45.7c5.8,14,13.9,26.2,24.5,36.7c10.6,10.5,23,18.6,37.3,24.5
			c14.3,5.9,29.9,8.8,46.8,8.8c14.3,0,27.6-2.4,39.9-7.2c12.3-4.8,23.1-11.6,32.4-20.4c9.3-8.8,16.5-19.2,21.6-31.3
			c5.1-12.1,7.7-25.5,7.7-40.2c0-1.9-0.1-4.2-0.2-6.9C792.6,230.1,792.4,227.3,792.2,224.4z"/>
		
			<linearGradient id="SVGID_00000166648792482173023650000012580538598313976711_" gradientUnits="userSpaceOnUse" x1="900.4113" y1="514.9131" x2="900.4113" y2="154.4032">
			<stop  offset="0" style="stop-color:#5D47FF"/>
			<stop  offset="0.5903" style="stop-color:#846DFF"/>
			<stop  offset="1" style="stop-color:#A36CFF"/>
		</linearGradient>
		<path style="fill:url(#SVGID_00000166648792482173023650000012580538598313976711_);" d="M960.8,186.6c-7-7.4-15.4-13.2-25-17.5
			c-9.6-4.3-20-6.4-31.1-6.4c-12.6,0-24.2,2.2-34.8,6.6c-10.6,4.4-19.7,10.6-27.2,18.6c-7.6,8-13.5,17.5-17.8,28.4
			c-4.3,10.9-6.4,23-6.4,36.2c0,16.7,3.8,31.5,11.4,44.4c7.6,12.9,18.2,23.1,31.7,30.6c13.6,7.5,29.2,11.2,47,11.2
			c7.9,0,15.9-1.1,24-3.2c8.1-2.1,15.9-5.1,23.2-8.8c7.4-3.7,13.9-8.3,19.7-13.6L956,285.8c-7.7,6.6-14.9,11.2-21.5,13.8
			c-6.6,2.6-13.9,3.8-21.8,3.8c-11.3,0-21.2-2.2-29.6-6.6c-8.4-4.4-15-10.6-19.6-18.8c-3.1-5.5-5.1-11.6-6.1-18.3H982l0.3-13.8
			c0.2-12-1.6-23-5.3-33.2C973.3,202.8,967.9,194,960.8,186.6z M878.3,203.8c7.2-4.1,16-6.1,26.4-6.1c6.8,0,13.1,1.4,18.7,4.3
			c5.7,2.9,10.3,6.8,13.9,11.9c3.6,5,5.8,10.8,6.4,17.5v1.6h-85.6c0.9-4.3,2.2-8.2,3.8-11.7C865.7,213.7,871.1,207.8,878.3,203.8z"
			/>
		
			<linearGradient id="SVGID_00000004543854351896801600000006994780779792518060_" gradientUnits="userSpaceOnUse" x1="1083.1206" y1="514.5925" x2="1083.1206" y2="154.7386">
			<stop  offset="0" style="stop-color:#5D47FF"/>
			<stop  offset="0.5903" style="stop-color:#846DFF"/>
			<stop  offset="1" style="stop-color:#A36CFF"/>
		</linearGradient>
		<path style="fill:url(#SVGID_00000004543854351896801600000006994780779792518060_);" d="M1068.4,204.9c7.4-4.6,15.8-6.9,25.2-6.9
			c5.6,0,11.1,1.1,16.7,3.2c5.6,2.1,10.8,5,15.7,8.7c4.9,3.6,9,7.7,12.2,12.2l21.8-26.3c-6.8-10.3-16.5-18.3-28.8-24
			c-12.4-5.8-26.2-8.7-41.4-8.7c-15.8,0-30,3.8-42.6,11.5c-12.6,7.7-22.6,18.2-29.8,31.4c-7.3,13.3-10.9,28.2-10.9,44.9
			c0,16.7,3.6,31.6,10.9,44.9c7.3,13.3,17.2,23.7,29.8,31.4c12.6,7.7,26.8,11.5,42.6,11.5c14.1,0,27.5-2.9,40.2-8.8
			c12.7-5.9,22.7-13.5,30-22.9l-21.8-26.6c-4.1,5.1-8.4,9.4-13.1,12.8c-4.7,3.4-9.7,6-14.9,7.9c-5.2,1.8-10.6,2.7-16.2,2.7
			c-9.2,0-17.5-2.3-25-7.1c-7.5-4.7-13.4-11-17.8-18.9c-4.4-7.9-6.6-16.9-6.6-26.9c0-10,2.1-19.1,6.4-27.1
			C1055.2,215.8,1061,209.5,1068.4,204.9z"/>
		
			<linearGradient id="SVGID_00000004518608277236585940000014858640223549847461_" gradientUnits="userSpaceOnUse" x1="1271.4451" y1="573.002" x2="1271.4451" y2="87.0701">
			<stop  offset="0" style="stop-color:#5D47FF"/>
			<stop  offset="0.5903" style="stop-color:#846DFF"/>
			<stop  offset="1" style="stop-color:#A36CFF"/>
		</linearGradient>
		<polygon style="fill:url(#SVGID_00000004518608277236585940000014858640223549847461_);" points="1351.9,166.6 1299.3,166.6 
			1229.5,236.8 1229.5,98.3 1190,98.3 1190,335.5 1229.5,335.5 1229.5,281.5 1246.4,265.6 1304.1,335.5 1352.9,335.5 1273.2,240.5 
					"/>
		
			<linearGradient id="SVGID_00000007389139573717869120000011651779630637129093_" gradientUnits="userSpaceOnUse" x1="1448.7148" y1="514.5925" x2="1448.7148" y2="154.7386">
			<stop  offset="0" style="stop-color:#5D47FF"/>
			<stop  offset="0.5903" style="stop-color:#846DFF"/>
			<stop  offset="1" style="stop-color:#A36CFF"/>
		</linearGradient>
		<path style="fill:url(#SVGID_00000007389139573717869120000011651779630637129093_);" d="M1525.2,205.7
			c-7.6-13.2-18-23.7-31.3-31.3c-13.3-7.6-28.2-11.4-44.9-11.4c-16.9,0-32,3.8-45.2,11.4c-13.3,7.6-23.7,18-31.4,31.3
			c-7.7,13.3-11.5,28.3-11.5,45.2c0,16.9,3.8,32,11.5,45.2c7.7,13.3,18.2,23.7,31.4,31.3c13.3,7.6,28.3,11.4,45.2,11.4
			c16.7,0,31.6-3.8,44.9-11.4c13.2-7.6,23.7-18,31.3-31.3c7.6-13.2,11.4-28.3,11.4-45.2C1536.5,234,1532.8,218.9,1525.2,205.7z
			 M1490.5,277.8c-4.2,7.9-9.8,14.2-17,18.9c-7.2,4.7-15.3,7.1-24.5,7.1c-9.2,0-17.5-2.3-24.8-7.1c-7.4-4.7-13.1-11-17.1-18.9
			c-4.1-7.9-6.1-16.9-6.1-26.9c0-10,2-19.1,6.1-27.1c4.1-8,9.8-14.3,17.1-18.9c7.4-4.6,15.7-6.9,24.8-6.9c9.2,0,17.4,2.3,24.5,6.9
			c7.2,4.6,12.8,10.8,17,18.8c4.2,7.9,6.1,17,5.9,27.2C1496.7,260.9,1494.7,269.9,1490.5,277.8z"/>
	</g>
</g>
<path class="st17" d="M1609.1,335.6V150h-64v-38.4h171.5V150h-65.9v185.6H1609.1z"/>
<path class="st17" d="M1797.6,338.8c-17.7,0-33.3-3.7-46.9-11.2c-13.6-7.5-24.1-17.7-31.7-30.6c-7.6-12.9-11.4-27.7-11.4-44.3
	c0-13.2,2.1-25.3,6.4-36.2c4.3-10.9,10.2-20.3,17.8-28.3c7.6-8,16.6-14.2,27.2-18.6c10.6-4.4,22.1-6.6,34.7-6.6
	c11.1,0,21.4,2.1,31,6.4c9.6,4.3,17.9,10.1,25,17.4c7,7.4,12.4,16.1,16.2,26.2c3.7,10.1,5.5,21.2,5.3,33.1l-0.3,13.8h-136.7
	l-7.4-26.9H1838l-5.1,5.4v-7c-0.6-6.6-2.8-12.4-6.4-17.4c-3.6-5-8.3-9-13.9-11.8c-5.7-2.9-11.9-4.3-18.7-4.3
	c-10.5,0-19.3,2-26.4,6.1c-7.2,4.1-12.5,9.9-16.2,17.4c-3.6,7.6-5.4,17-5.4,28.3c0,10.9,2.3,20.4,6.9,28.5
	c4.6,8.1,11.1,14.4,19.5,18.7c8.4,4.4,18.3,6.6,29.6,6.6c7.9,0,15.1-1.3,21.8-3.8c6.6-2.6,13.8-7.1,21.4-13.8l19.5,27.2
	c-5.8,5.3-12.3,9.9-19.7,13.6c-7.4,3.7-15.1,6.7-23.2,8.8C1813.5,337.7,1805.5,338.8,1797.6,338.8z"/>
<path class="st17" d="M1906.1,335.6V167h38.7l0.6,53.8l-5.4-12.2c2.3-8.5,6.4-16.2,12.2-23c5.8-6.8,12.4-12.2,20-16.2
	c7.6-3.9,15.5-5.9,23.8-5.9c3.6,0,7.1,0.3,10.4,1c3.3,0.6,6,1.4,8.2,2.2l-10.6,43.2c-2.4-1.3-5.2-2.3-8.6-3.2
	c-3.4-0.8-6.8-1.3-10.2-1.3c-5.3,0-10.4,1-15.2,3c-4.8,2-9,4.9-12.6,8.5c-3.6,3.6-6.5,7.8-8.5,12.6c-2,4.8-3,10.2-3,16.2v89.9
	H1906.1z"/>
<path class="st17" d="M2040.2,335.6V167h38.7l0.6,33.9l-6.4,2.6c1.9-5.5,4.8-10.7,8.6-15.5c3.8-4.8,8.4-9,13.8-12.5
	c5.3-3.5,11-6.3,17-8.3c6-2,12.1-3,18.2-3c9.2,0,17.3,1.4,24.5,4.3c7.1,2.9,13.1,7.4,17.9,13.6c4.8,6.2,8.4,14.1,10.7,23.7l-6.1-1.3
	l2.6-5.1c2.3-5.1,5.6-9.8,9.9-13.9c4.3-4.2,9.1-7.9,14.4-11.2c5.3-3.3,10.9-5.8,16.8-7.5c5.9-1.7,11.7-2.6,17.4-2.6
	c12.8,0,23.5,2.6,32,7.7c8.5,5.1,14.9,12.9,19.2,23.4c4.3,10.5,6.4,23.4,6.4,38.7v101.8h-39.7v-99.2c0-8.5-1.1-15.6-3.4-21.1
	c-2.2-5.5-5.7-9.7-10.2-12.3c-4.6-2.7-10.3-4-17.1-4c-5.3,0-10.4,0.9-15.2,2.7c-4.8,1.8-8.9,4.4-12.3,7.7c-3.4,3.3-6.1,7.1-8,11.4
	c-1.9,4.3-2.9,9-2.9,14.1v100.8h-39.7v-99.5c0-8.1-1.2-14.9-3.5-20.3c-2.4-5.4-5.8-9.6-10.2-12.5c-4.5-2.9-9.9-4.3-16.3-4.3
	c-5.3,0-10.4,0.9-15,2.7c-4.7,1.8-8.8,4.3-12.2,7.5c-3.4,3.2-6.1,6.9-8,11.2c-1.9,4.3-2.9,9-2.9,14.1v101.1H2040.2z"/>
<path class="st17" d="M2364.1,131.1c-7.9,0-14-2-18.4-5.9c-4.4-3.9-6.6-9.5-6.6-16.8c0-6.8,2.2-12.4,6.7-16.6
	c4.5-4.3,10.6-6.4,18.2-6.4c8.1,0,14.3,2,18.7,5.9c4.4,3.9,6.6,9.7,6.6,17.1c0,6.6-2.2,12.1-6.7,16.3
	C2378.2,129,2372,131.1,2364.1,131.1z M2344.9,335.6V167h39.4v168.7H2344.9z"/>
<path class="st17" d="M2434.2,335.6V167h38.4l0.6,34.6l-7.4,3.8c2.1-7.7,6.3-14.7,12.5-21c6.2-6.3,13.6-11.4,22.1-15.2
	c8.5-3.8,17.3-5.8,26.2-5.8c12.8,0,23.5,2.6,32.2,7.7c8.6,5.1,15.1,12.8,19.5,23c4.4,10.2,6.6,23,6.6,38.4v103.1h-39.4V235.4
	c0-8.5-1.2-15.6-3.5-21.3c-2.4-5.7-6-9.8-10.9-12.5c-4.9-2.7-10.9-3.9-17.9-3.7c-5.8,0-11,0.9-15.8,2.7c-4.8,1.8-9,4.4-12.5,7.7
	c-3.5,3.3-6.3,7.1-8.3,11.4c-2,4.3-3,9-3,14.1v101.8H2454c-3.8,0-7.4,0-10.7,0C2440,335.6,2436.9,335.6,2434.2,335.6z"/>
<path class="st17" d="M2692.8,338.8c-13.9,0-26.5-3.8-37.8-11.5c-11.3-7.7-20.4-18.1-27.2-31.4c-6.8-13.2-10.2-28.3-10.2-45.1
	c0-16.9,3.4-31.9,10.2-45.1c6.8-13.2,16.1-23.6,27.8-31c11.7-7.5,25-11.2,39.7-11.2c8.5,0,16.3,1.2,23.4,3.7
	c7,2.5,13.2,5.9,18.6,10.4c5.3,4.5,9.8,9.6,13.3,15.4c3.5,5.8,5.9,12,7.2,18.6l-8.6-2.2V167h39.7v168.7h-40v-40.3l9.3-1.6
	c-1.5,5.8-4.2,11.4-8.2,16.8c-4,5.4-8.9,10.2-14.7,14.4c-5.9,4.2-12.4,7.5-19.5,10.1C2708.5,337.5,2700.9,338.8,2692.8,338.8z
	 M2703.6,303.9c9.2,0,17.3-2.2,24.3-6.7c7-4.5,12.5-10.7,16.5-18.7c3.9-8,5.9-17.2,5.9-27.7c0-10.2-2-19.3-5.9-27.2
	c-4-7.9-9.4-14.1-16.5-18.6c-7-4.5-15.1-6.7-24.3-6.7c-9.2,0-17.2,2.2-24.2,6.7c-6.9,4.5-12.3,10.7-16.2,18.6
	c-3.8,7.9-5.8,17-5.8,27.2c0,10.5,1.9,19.7,5.8,27.7c3.8,8,9.2,14.2,16.2,18.7C2686.4,301.7,2694.5,303.9,2703.6,303.9z"/>
<path class="st17" d="M2834.8,335.6V98.8h39.7v236.8H2834.8z"/>
</svg>
