<svg width="24" height="24" viewBox="0 0 24 24" color="#31CB9E" xmlns="http://www.w3.org/2000/svg">
<path d="M20.1351 10.0298L19.2351 9.59984L19.0801 8.61484C19.0251 8.27484 18.7901 8.19984 18.5551 8.44984L17.8701 9.17484L16.8851 9.01984C16.5451 8.96484 16.4001 9.16984 16.5651 9.46984L17.0401 10.3448L16.5901 11.2348C16.4351 11.5398 16.5801 11.7398 16.9201 11.6748L17.9001 11.4948L18.6051 12.1998C18.8501 12.4448 19.0851 12.3648 19.1301 12.0248L19.2601 11.0348L20.1501 10.5798C20.4551 10.4248 20.4551 10.1748 20.1451 10.0298H20.1351ZM7.63505 8.95984L6.63005 9.11984L5.93005 8.38484C5.69005 8.12984 5.44505 8.20484 5.39005 8.54984L5.23005 9.55484L4.31005 9.99484C3.99505 10.1448 3.99005 10.3998 4.30505 10.5598L5.21005 11.0198L5.34505 12.0298C5.39005 12.3798 5.63005 12.4598 5.88005 12.2098L6.60005 11.4898L7.60005 11.6748C7.94505 11.7398 8.09505 11.5348 7.93505 11.2248L7.47505 10.3198L7.96005 9.42484C8.13005 9.11484 7.98005 8.90984 7.63505 8.96484V8.95984Z" fill="currentColor"/>
<path d="M8.13479 5.84535H8.68479V6.77035C8.68479 7.83035 9.40479 8.89035 10.2298 9.56535C10.2298 9.56535 10.2348 9.56535 10.2398 9.57035C10.7848 10.0104 11.1398 10.6404 11.1398 11.3354V11.3754C11.5998 11.3504 12.0548 11.3304 12.5098 11.3304C12.7948 11.3304 13.0798 11.3404 13.3598 11.3504V11.3354C13.3598 10.6354 13.7148 10.0054 14.2598 9.57035C14.2598 9.57035 14.2648 9.57035 14.2698 9.56535C15.0998 8.89535 15.8148 7.83035 15.8148 6.77035V5.84535H16.3648C16.7798 5.84535 17.1148 5.51035 17.1148 5.09535C17.1148 4.68035 16.7798 4.34535 16.3648 4.34535H15.8148V2.90535C15.8148 2.74035 15.6798 2.61035 15.5198 2.61035H8.98479C8.81979 2.61035 8.68979 2.74535 8.68979 2.90535V4.34535H8.13979C7.72479 4.34535 7.38979 4.68035 7.38979 5.09535C7.38979 5.51035 7.72479 5.84535 8.13979 5.84535H8.13479ZM10.7898 5.08035L11.6348 4.95535L12.0148 4.19035C12.1448 3.92535 12.3598 3.92535 12.4898 4.19035L12.8698 4.95535L13.7148 5.08035C14.0098 5.12535 14.0748 5.32535 13.8598 5.53035L13.2448 6.12535L13.3898 6.97035C13.4398 7.26035 13.2698 7.38535 13.0048 7.25035L12.2498 6.85035L11.4948 7.25035C11.2348 7.39035 11.0598 7.26535 11.1098 6.97035L11.2548 6.12535L10.6398 5.53035C10.4298 5.32535 10.4948 5.12035 10.7848 5.08035H10.7898ZM18.6148 18.6554C18.8048 18.6554 18.9848 18.5304 19.0398 18.3304C19.4398 16.8554 19.6848 15.9454 20.0898 14.4504C20.1498 14.2354 20.0348 14.0054 19.8298 13.9254C17.4798 13.0004 14.9998 12.5754 12.5198 12.5754C9.87479 12.5754 7.21979 13.0604 4.70479 13.9354C4.48479 14.0104 4.36479 14.2454 4.42479 14.4654C4.82479 15.9504 5.06979 16.8604 5.46979 18.3304C5.52479 18.5254 5.69979 18.6554 5.89479 18.6554C5.94479 18.6554 5.99479 18.6453 6.04479 18.6304C8.06479 17.9004 10.1598 17.5404 12.2548 17.5404C14.3498 17.5404 16.4448 17.9053 18.4648 18.6304C18.5148 18.6504 18.5648 18.6554 18.6148 18.6554ZM23.1398 17.3254C23.4098 17.0604 23.2998 16.6004 22.9348 16.4904L20.9898 15.8904L20.7098 16.9354L20.2448 18.6604C20.0448 19.3954 19.3748 19.9054 18.6148 19.9054C18.4198 19.9054 18.2248 19.8704 18.0398 19.8054C17.9298 19.7654 17.8198 19.7304 17.7048 19.6954L17.5498 20.2004C17.4698 20.4654 17.6148 20.7454 17.8798 20.8254L21.2748 21.8704C21.6398 21.9804 21.9898 21.6654 21.9098 21.2954L21.4948 19.2604C21.4598 19.0954 21.5148 18.9204 21.6348 18.8054L23.1348 17.3304L23.1398 17.3254ZM6.80479 19.6904C6.68979 19.7304 6.57979 19.7654 6.46979 19.8054C6.28479 19.8704 6.08979 19.9054 5.89479 19.9054C5.13479 19.9054 4.46479 19.3904 4.26479 18.6604L3.72479 16.6554L3.51979 15.8904L1.57979 16.4904C1.21979 16.6004 1.10479 17.0604 1.37479 17.3254L2.87479 18.8004C2.99479 18.9204 3.04979 19.0903 3.01479 19.2554L2.59979 21.2904C2.52479 21.6604 2.87479 21.9804 3.23479 21.8654L6.62979 20.8204C6.89479 20.7404 7.03979 20.4604 6.95979 20.1954L6.80479 19.6904Z" fill="currentColor"/>
</svg>
