<svg width="28" height="28" viewBox="0 0 28 28" fill="none" xmlns="http://www.w3.org/2000/svg">
<g clip-path="url(#clip0_1061_37525)">
<path d="M17.115 7.00004V12.25C17.115 12.8917 16.59 13.4167 15.9483 13.4167H12.0633C11.4217 13.4167 10.8967 12.8917 10.8967 12.25V7.00004C10.8967 6.35837 11.4217 5.83337 12.0633 5.83337H15.9483C16.59 5.83337 17.115 6.35837 17.115 7.00004ZM19.4483 13.4167H23.3333C23.975 13.4167 24.5 12.8917 24.5 12.25V7.00004C24.5 6.35837 23.975 5.83337 23.3333 5.83337H19.4483C18.8067 5.83337 18.2817 6.35837 18.2817 7.00004V12.25C18.2817 12.8917 18.795 13.4167 19.4483 13.4167ZM17.115 21V15.75C17.115 15.1084 16.59 14.5834 15.9483 14.5834H12.0633C11.4217 14.5834 10.8967 15.1084 10.8967 15.75V21C10.8967 21.6417 11.4217 22.1667 12.0633 22.1667H15.9483C16.59 22.1667 17.115 21.6417 17.115 21ZM18.2817 15.75V21C18.2817 21.6417 18.8067 22.1667 19.4483 22.1667H23.3333C23.975 22.1667 24.5 21.6417 24.5 21V15.75C24.5 15.1084 23.975 14.5834 23.3333 14.5834H19.4483C18.795 14.5834 18.2817 15.1084 18.2817 15.75ZM8.55167 14.5834H4.66667C4.025 14.5834 3.5 15.1084 3.5 15.75V21C3.5 21.6417 4.025 22.1667 4.66667 22.1667H8.55167C9.19333 22.1667 9.71833 21.6417 9.71833 21V15.75C9.71833 15.1084 9.205 14.5834 8.55167 14.5834ZM9.71833 12.25V7.00004C9.71833 6.35837 9.19333 5.83337 8.55167 5.83337H4.66667C4.025 5.83337 3.5 6.35837 3.5 7.00004V12.25C3.5 12.8917 4.025 13.4167 4.66667 13.4167H8.55167C9.205 13.4167 9.71833 12.8917 9.71833 12.25Z" fill="currentColor"/>
</g>
<defs>
<clipPath id="clip0_1061_37525">
<rect width="28" height="28" fill="white"/>
</clipPath>
</defs>
</svg>
