<svg width="200" height="200" viewBox="0 0 200 200" fill="none" xmlns="http://www.w3.org/2000/svg">
    <path fill-rule="evenodd" clip-rule="evenodd"
        d="M125.002 21.4517C98.2254 33.5011 67.566 57.7942 54.6572 71.2293C54.1618 71.6687 53.6771 72.1236 53.2035 72.5942C37.1076 88.5885 39.6275 116.989 58.2545 138.01C58.1251 138.009 57.9955 138.009 57.8659 138.009C28.2632 138.009 3.88145 147.571 0.679611 159.868C-0.340164 162.675 0.0366669 170.575 0.233795 174.708V174.708C0.284561 175.773 0.32341 176.587 0.32341 177C0.32341 188.292 26.4063 200 57.9504 200C89.4945 200 115.064 189.888 115.064 177.417C115.064 177.158 115.081 176.455 115.105 175.474C115.17 172.778 115.286 167.981 115.241 164.517C115.352 163.892 115.409 163.26 115.409 162.623C115.409 161.489 115.23 160.374 114.883 159.281C121.342 157.786 127.23 154.8 132.041 150.268C131.924 150.387 131.806 150.506 131.687 150.625C130.509 151.796 129.262 152.87 127.955 153.848C136.023 149.695 141.938 140.872 149.354 129.433C172.877 89.0376 195.382 47.1175 199.456 17.9231C202.339 -2.74055 193.788 -2.10257 173.05 2.98429C162.992 5.45151 133.794 17.494 125.002 21.4517ZM113.008 155.564C106.626 146.429 88.1738 139.521 65.5682 138.228C65.0021 138.196 64.4334 138.167 63.8622 138.141C43.6488 117.827 41.32 90.0417 56.0229 75.4316C71.0235 60.5258 100.124 62.7966 121.169 83.1736L65.5682 138.228L121.17 83.1744C142.209 103.558 144.821 131.941 129.902 146.772L129.901 146.772C125.359 151.289 119.523 154.228 113.008 155.564ZM164.913 58.1946C164.913 53.1078 155.92 35.9727 149.36 32.7546C138.985 27.6678 138.985 32.7546 149.36 42.9284C153.741 47.2296 157.197 51.5298 159.727 54.6781L159.727 54.6782L159.727 54.6782C163.185 58.9808 164.913 61.1321 164.913 58.1946ZM155.212 97.0264C156.207 93.8253 153.894 81.3537 150.401 78.0904C144.866 72.9358 143.864 76.137 148.404 84.4928C150.319 88.0203 151.652 91.3737 152.63 93.8305C153.967 97.1933 154.637 98.8762 155.212 97.0264ZM108.042 169.391C110.458 166.948 111.409 164.666 111.409 162.623C111.409 160.58 110.458 158.297 108.042 155.855C105.61 153.395 101.892 150.997 96.9817 148.896C87.1748 144.701 73.348 142.009 57.8659 142.009C42.3838 142.009 28.557 144.701 18.7502 148.896C13.8395 150.997 10.1215 153.395 7.68945 155.855C5.2742 158.297 4.3232 160.58 4.3232 162.623C4.3232 164.666 5.2742 166.948 7.68945 169.391C10.1215 171.85 13.8395 174.249 18.7502 176.349C28.557 180.544 42.3838 183.236 57.8659 183.236C73.348 183.236 87.1748 180.544 96.9817 176.349C101.892 174.249 105.61 171.85 108.042 169.391Z"
        fill="white" />
</svg>