<svg width="16" height="16" viewBox="0 0 16 16" fill="none" xmlns="http://www.w3.org/2000/svg">
<path d="M11.9998 5.33334H11.3332V4.00001C11.3332 2.16001 9.83984 0.666672 7.99984 0.666672C6.15984 0.666672 4.6665 2.16001 4.6665 4.00001V5.33334H3.99984C3.2665 5.33334 2.6665 5.93334 2.6665 6.66667V13.3333C2.6665 14.0667 3.2665 14.6667 3.99984 14.6667H11.9998C12.7332 14.6667 13.3332 14.0667 13.3332 13.3333V6.66667C13.3332 5.93334 12.7332 5.33334 11.9998 5.33334ZM7.99984 11.3333C7.2665 11.3333 6.6665 10.7333 6.6665 10C6.6665 9.26667 7.2665 8.66667 7.99984 8.66667C8.73317 8.66667 9.33317 9.26667 9.33317 10C9.33317 10.7333 8.73317 11.3333 7.99984 11.3333ZM5.99984 5.33334V4.00001C5.99984 2.89334 6.89317 2.00001 7.99984 2.00001C9.1065 2.00001 9.99984 2.89334 9.99984 4.00001V5.33334H5.99984Z" fill="#A7B6BD"/>
</svg>
