<svg width="17" height="24" viewBox="0 0 17 24" fill="none" xmlns="http://www.w3.org/2000/svg">
    <path
        d="M7.19623 11.9952L16.1584 17.1351C16.2301 17.1756 16.3111 17.1968 16.3934 17.1966C16.4758 17.1964 16.5566 17.1747 16.6281 17.1338C16.6996 17.0929 16.7592 17.0341 16.801 16.9632C16.8429 16.8923 16.8656 16.8117 16.867 16.7294L16.8685 7.26422C16.8676 7.18173 16.8451 7.1009 16.8034 7.02975C16.7616 6.9586 16.702 6.8996 16.6304 6.85858C16.5588 6.81756 16.4778 6.79595 16.3953 6.7959C16.3128 6.79584 16.2317 6.81734 16.1601 6.85826L7.19623 11.9952Z"
        fill="currentCollor" />
    <path
        d="M15.6376 4.64321L9.68821 0.0953914C9.62474 0.0477095 9.55035 0.0166658 9.47181 0.00508785C9.39327 -0.0064901 9.31308 0.00176559 9.23855 0.0291032C9.16402 0.0564408 9.09751 0.101991 9.04508 0.161606C8.99266 0.22122 8.95598 0.293004 8.93839 0.370419L6.76306 10.4956L15.5893 5.42739C15.6576 5.38923 15.7152 5.33454 15.7568 5.26834C15.7984 5.20213 15.8227 5.12653 15.8275 5.04848C15.8323 4.97042 15.8175 4.89241 15.7843 4.8216C15.7511 4.75079 15.7007 4.68945 15.6376 4.64321Z"
        fill="currentCollor" />
    <path
        d="M9.68423 23.9026L15.6488 19.3498C15.7105 19.3027 15.7596 19.2411 15.7919 19.1705C15.8241 19.0999 15.8385 19.0224 15.8338 18.9449C15.829 18.8675 15.8053 18.7923 15.7647 18.7262C15.724 18.6601 15.6678 18.6049 15.6008 18.5657L6.76245 13.5015L8.94137 23.6273C8.95732 23.705 8.99278 23.7773 9.0444 23.8374C9.09602 23.8975 9.1621 23.9435 9.23642 23.9711C9.31074 23.9986 9.39084 24.0068 9.46919 23.9948C9.54753 23.9828 9.62154 23.9511 9.68423 23.9026Z"
        fill="currentCollor" />
    <path
        d="M4.89861 11.9946L7.24603 1.08527C7.26643 0.990775 7.25717 0.892293 7.21951 0.803263C7.18185 0.714233 7.11764 0.638994 7.03563 0.587815C6.95363 0.536637 6.85782 0.512013 6.7613 0.517306C6.66478 0.522599 6.57225 0.55755 6.49633 0.617389L0.490443 5.20453C0.338279 5.32089 0.215029 5.47081 0.13029 5.6426C0.0455509 5.81439 0.00161087 6.00343 0.00189142 6.19499L1.99254e-06 17.8132C-0.00034075 18.0047 0.0435379 18.1938 0.128221 18.3656C0.212904 18.5374 0.336105 18.6874 0.488231 18.8038L6.49263 23.386C6.56909 23.4434 6.66111 23.4763 6.75661 23.4804C6.85211 23.4845 6.94662 23.4596 7.02772 23.409C7.10883 23.3585 7.17274 23.2845 7.21107 23.197C7.2494 23.1094 7.26035 23.0123 7.24249 22.9184L4.89861 11.9946Z"
        fill="currentCollor" />
</svg>
