<svg xmlns="http://www.w3.org/2000/svg" width="38" height="53" viewBox="0 0 38 53" fill="none">
<path d="M15.8063 26.4893L35.4915 37.8398C35.649 37.9293 35.8269 37.9761 36.0077 37.9756C36.1886 37.9751 36.3663 37.9274 36.5232 37.837C36.6802 37.7466 36.8111 37.6168 36.9031 37.4602C36.9951 37.3036 37.045 37.1257 37.0479 36.9439L37.0513 16.0417C37.0493 15.8595 36.9999 15.681 36.9082 15.5239C36.8165 15.3668 36.6855 15.2365 36.5283 15.1459C36.3711 15.0553 36.193 15.0076 36.0118 15.0075C35.8306 15.0074 35.6525 15.0548 35.4952 15.1452L15.8063 26.4893Z" fill="#31CB9E"/>
<path d="M34.3476 10.2537L21.2799 0.210655C21.1405 0.105358 20.9771 0.0368035 20.8046 0.0112356C20.6321 -0.0143323 20.4559 0.003899 20.2922 0.0642694C20.1285 0.12464 19.9824 0.225231 19.8673 0.356879C19.7521 0.488527 19.6716 0.64705 19.6329 0.818007L14.8549 23.1777L34.2415 11.9855C34.3915 11.9012 34.518 11.7804 34.6094 11.6342C34.7008 11.488 34.7543 11.3211 34.7648 11.1487C34.7754 10.9763 34.7427 10.8041 34.6698 10.6477C34.5969 10.4913 34.4861 10.3558 34.3476 10.2537V10.2537Z" fill="#31CB9E"/>
<path d="M21.2713 52.7845L34.3724 42.7305C34.5078 42.6264 34.6157 42.4904 34.6866 42.3345C34.7574 42.1786 34.789 42.0075 34.7786 41.8364C34.7682 41.6653 34.716 41.4994 34.6268 41.3534C34.5376 41.2073 34.414 41.0855 34.2669 40.9988L14.8536 29.8154L19.6396 52.1766C19.6746 52.3481 19.7525 52.5077 19.8659 52.6405C19.9793 52.7734 20.1244 52.875 20.2877 52.9358C20.4509 52.9966 20.6268 53.0146 20.7989 52.9882C20.971 52.9617 21.1336 52.8916 21.2713 52.7845V52.7845Z" fill="#31CB9E"/>
<path d="M10.7597 26.4886L15.9158 2.39731C15.9606 2.18865 15.9402 1.97117 15.8575 1.77456C15.7748 1.57795 15.6337 1.4118 15.4536 1.29878C15.2735 1.18576 15.0631 1.13139 14.8511 1.14307C14.639 1.15476 14.4358 1.23195 14.269 1.36409L1.07725 11.494C0.743022 11.751 0.472305 12.082 0.286179 12.4614C0.100052 12.8408 0.00353824 13.2582 0.00415445 13.6813L4.37658e-06 39.3381C-0.00074845 39.7611 0.09563 40.1786 0.281634 40.558C0.467638 40.9374 0.738248 41.2686 1.07239 41.5257L14.2609 51.6447C14.4289 51.7714 14.631 51.844 14.8407 51.8531C15.0505 51.8621 15.2581 51.8072 15.4362 51.6955C15.6144 51.5838 15.7548 51.4206 15.839 51.2272C15.9232 51.0338 15.9472 50.8194 15.908 50.612L10.7597 26.4886Z" fill="#31CB9E"/>
</svg>