<svg width="16" height="16" viewBox="0 0 16 16" fill="none" xmlns="http://www.w3.org/2000/svg">
<g clip-path="url(#clip0_637_37729)">
<path d="M6.00004 14.0007C6.00004 14.3673 6.30004 14.6673 6.66671 14.6673H9.33337C9.70004 14.6673 10 14.3673 10 14.0007V13.334H6.00004V14.0007ZM8.00004 1.33398C5.42671 1.33398 3.33337 3.42732 3.33337 6.00065C3.33337 7.58732 4.12671 8.98065 5.33337 9.82732V11.334C5.33337 11.7007 5.63337 12.0007 6.00004 12.0007H10C10.3667 12.0007 10.6667 11.7007 10.6667 11.334V9.82732C11.8734 8.98065 12.6667 7.58732 12.6667 6.00065C12.6667 3.42732 10.5734 1.33398 8.00004 1.33398ZM9.90004 8.73398L9.33337 9.13398V10.6673H6.66671V9.13398L6.10004 8.73398C5.20004 8.10732 4.66671 7.08732 4.66671 6.00065C4.66671 4.16065 6.16004 2.66732 8.00004 2.66732C9.84004 2.66732 11.3334 4.16065 11.3334 6.00065C11.3334 7.08732 10.8 8.10732 9.90004 8.73398Z" fill="currentColor"/>
</g>
<defs>
<clipPath id="clip0_637_37729">
<rect width="16" height="16" fill="white"/>
</clipPath>
</defs>
</svg>
