<svg width="16" height="16" viewBox="0 0 16 16" fill="none" xmlns="http://www.w3.org/2000/svg">
<g clip-path="url(#clip0_1806_63261)">
<path d="M4.94119 7.52941H5.41178C5.67169 7.52941 5.88237 7.74009 5.88237 8V11.7647C5.88237 12.0246 5.67169 12.2353 5.41178 12.2353H4.94119V12.7059C4.94119 12.9658 4.7305 13.1765 4.47059 13.1765C4.21069 13.1765 4 12.9658 4 12.7059V12.2353H3.52941C3.2695 12.2353 3.05881 12.0246 3.05881 11.7647V8C3.05881 7.74009 3.2695 7.52941 3.52941 7.52941H4V7.05881C4 6.79891 4.21069 6.58822 4.47059 6.58822C4.7305 6.58822 4.94119 6.79891 4.94119 7.05881V7.52941ZM9.64706 5.64706H10.1177C10.3776 5.64706 10.5883 5.85775 10.5883 6.11766V10.8235C10.5883 11.0834 10.3776 11.2941 10.1177 11.2941H9.64706V11.7647C9.64706 12.0246 9.43637 12.2353 9.17647 12.2353C8.91656 12.2353 8.70588 12.0246 8.70588 11.7647V11.2941H8.23528C7.97537 11.2941 7.76469 11.0834 7.76469 10.8235V6.11766C7.76469 5.85775 7.97537 5.64706 8.23528 5.64706H8.70588V5.17647C8.70588 4.91656 8.91656 4.70587 9.17647 4.70587C9.43637 4.70587 9.64706 4.91656 9.64706 5.17647V5.64706ZM14.3529 1.88234H14.8235C15.0834 1.88234 15.2941 2.09303 15.2941 2.35294V8.94119C15.2941 9.20109 15.0834 9.41178 14.8235 9.41178H14.3529V9.88237C14.3529 10.1423 14.1422 10.353 13.8823 10.353C13.6224 10.353 13.4117 10.1423 13.4117 9.88237V9.41178H12.9412C12.6813 9.41178 12.4706 9.20109 12.4706 8.94119V2.35294C12.4706 2.09303 12.6813 1.88234 12.9412 1.88234H13.4117V1.41175C13.4117 1.15184 13.6224 0.941156 13.8823 0.941156C14.1422 0.941156 14.3529 1.15184 14.3529 1.41175V1.88234ZM3.29413 15.0588V14.5882C3.29413 14.3283 3.50481 14.1176 3.76472 14.1176C4.02462 14.1176 4.23531 14.3283 4.23531 14.5882V15.0588H8V14.5882C8 14.3283 8.21069 14.1176 8.47059 14.1176C8.7305 14.1176 8.94119 14.3283 8.94119 14.5882V15.0588H12.7059V14.5882C12.7059 14.3283 12.9166 14.1176 13.1765 14.1176C13.4364 14.1176 13.6471 14.3283 13.6471 14.5882V15.0588H15.5294C15.7893 15.0588 16 15.2695 16 15.5294C16 15.7893 15.7893 16 15.5294 16H0.941188C0.421375 16 0 15.5786 0 15.0588V0.470594C0 0.210687 0.210687 0 0.470594 0C0.7305 0 0.941188 0.210687 0.941188 0.470594V2.35294H1.41178C1.67169 2.35294 1.88238 2.56362 1.88238 2.82353C1.88238 3.08344 1.67169 3.29413 1.41178 3.29413H0.941188V7.05884H1.41178C1.67169 7.05884 1.88238 7.26953 1.88238 7.52944C1.88238 7.78934 1.67166 8 1.41175 8H0.941188V11.7647H1.41178C1.67169 11.7647 1.88238 11.9754 1.88238 12.2353C1.88238 12.4952 1.67169 12.7059 1.41178 12.7059H0.941188V15.0588H3.29413V15.0588Z" fill="currentColor"/>
</g>
<defs>
<clipPath id="clip0_1806_63261">
<rect width="16" height="16" fill="white"/>
</clipPath>
</defs>
</svg>
