<svg width="12" height="12" viewBox="0 0 12 12" fill="none" xmlns="http://www.w3.org/2000/svg">
<path d="M0 1.33205C0 0.945938 0.135139 0.627405 0.405405 0.376448C0.675672 0.125479 1.02703 0 1.45946 0C1.88417 0 2.2278 0.123544 2.49035 0.370656C2.76061 0.625483 2.89575 0.957521 2.89575 1.3668C2.89575 1.73745 2.76448 2.04632 2.50193 2.29344C2.23166 2.54826 1.87645 2.67568 1.43629 2.67568H1.42471C0.999996 2.67568 0.656375 2.54826 0.393822 2.29344C0.13127 2.03861 0 1.71814 0 1.33205ZM0.150579 11.4672V3.72973H2.72201V11.4672H0.150579ZM4.14672 11.4672H6.71815V7.14672C6.71815 6.87644 6.74904 6.66795 6.81081 6.52123C6.91892 6.25868 7.08301 6.03667 7.30309 5.85521C7.52317 5.67374 7.79922 5.58301 8.13128 5.58301C8.99614 5.58301 9.42857 6.16602 9.42857 7.33205V11.4672H12V7.03089C12 5.88803 11.7297 5.02124 11.1892 4.4305C10.6486 3.83977 9.93437 3.5444 9.04633 3.5444C8.05019 3.5444 7.27413 3.97297 6.71815 4.83012V4.85328H6.70656L6.71815 4.83012V3.72973H4.14672C4.16216 3.97683 4.16988 4.74517 4.16988 6.03475C4.16988 7.32432 4.16216 9.13513 4.14672 11.4672Z" fill="currentColor"/>
</svg>
