<svg width="12" height="14" viewBox="0 0 12 14" fill="none" xmlns="http://www.w3.org/2000/svg">
<path d="M6.43996 0.720176C6.18663 0.500176 5.80663 0.500176 5.55329 0.720176C2.29996 3.58684 0.666626 6.08018 0.666626 8.20018C0.666626 11.5202 3.19996 13.6668 5.99996 13.6668C8.79996 13.6668 11.3333 11.5202 11.3333 8.20018C11.3333 6.08018 9.69996 3.58684 6.43996 0.720176ZM3.21996 8.33351C3.46663 8.33351 3.66663 8.50684 3.71329 8.74684C3.98663 10.2268 5.23329 10.7335 6.13996 10.6602C6.42663 10.6468 6.66663 10.8735 6.66663 11.1602C6.66663 11.4268 6.45329 11.6468 6.18663 11.6602C4.76663 11.7468 3.10663 10.9335 2.72663 8.91351C2.67329 8.61351 2.91329 8.33351 3.21996 8.33351Z" fill="currentColor"/>
</svg>
