<svg width="28" height="28" viewBox="0 0 28 28" fill="none" xmlns="http://www.w3.org/2000/svg">
<g clip-path="url(#clip0_1061_37524)">
<path d="M4.66667 16.3334H7C7.64167 16.3334 8.16667 15.8084 8.16667 15.1667V12.8334C8.16667 12.1917 7.64167 11.6667 7 11.6667H4.66667C4.025 11.6667 3.5 12.1917 3.5 12.8334V15.1667C3.5 15.8084 4.025 16.3334 4.66667 16.3334ZM4.66667 22.1667H7C7.64167 22.1667 8.16667 21.6417 8.16667 21V18.6667C8.16667 18.025 7.64167 17.5 7 17.5H4.66667C4.025 17.5 3.5 18.025 3.5 18.6667V21C3.5 21.6417 4.025 22.1667 4.66667 22.1667ZM4.66667 10.5H7C7.64167 10.5 8.16667 9.97504 8.16667 9.33337V7.00004C8.16667 6.35837 7.64167 5.83337 7 5.83337H4.66667C4.025 5.83337 3.5 6.35837 3.5 7.00004V9.33337C3.5 9.97504 4.025 10.5 4.66667 10.5ZM10.5 16.3334H23.3333C23.975 16.3334 24.5 15.8084 24.5 15.1667V12.8334C24.5 12.1917 23.975 11.6667 23.3333 11.6667H10.5C9.85833 11.6667 9.33333 12.1917 9.33333 12.8334V15.1667C9.33333 15.8084 9.85833 16.3334 10.5 16.3334ZM10.5 22.1667H23.3333C23.975 22.1667 24.5 21.6417 24.5 21V18.6667C24.5 18.025 23.975 17.5 23.3333 17.5H10.5C9.85833 17.5 9.33333 18.025 9.33333 18.6667V21C9.33333 21.6417 9.85833 22.1667 10.5 22.1667ZM9.33333 7.00004V9.33337C9.33333 9.97504 9.85833 10.5 10.5 10.5H23.3333C23.975 10.5 24.5 9.97504 24.5 9.33337V7.00004C24.5 6.35837 23.975 5.83337 23.3333 5.83337H10.5C9.85833 5.83337 9.33333 6.35837 9.33333 7.00004Z" fill="currentColor"/>
</g>
<defs>
<clipPath id="clip0_1061_37524">
<rect width="28" height="28" fill="white"/>
</clipPath>
</defs>
</svg>
