<svg width="20" height="20" viewBox="0 0 20 20" fill="none" xmlns="http://www.w3.org/2000/svg">
<g clip-path="url(#clip0_261_21347)">
<path d="M3.56667 10.0002C3.56667 10.1271 3.4603 10.2335 3.33333 10.2335C3.20637 10.2335 3.1 10.1271 3.1 10.0002C3.1 9.8732 3.20637 9.76683 3.33333 9.76683C3.4603 9.76683 3.56667 9.8732 3.56667 10.0002ZM3.56667 13.3335C3.56667 13.4605 3.4603 13.5668 3.33333 13.5668C3.20637 13.5668 3.1 13.4605 3.1 13.3335C3.1 13.2065 3.20637 13.1002 3.33333 13.1002C3.4603 13.1002 3.56667 13.2065 3.56667 13.3335ZM3.56667 6.66683C3.56667 6.79379 3.4603 6.90016 3.33333 6.90016C3.20637 6.90016 3.1 6.79379 3.1 6.66683C3.1 6.53987 3.20637 6.4335 3.33333 6.4335C3.4603 6.4335 3.56667 6.53987 3.56667 6.66683ZM16.9 10.0002C16.9 10.1271 16.7936 10.2335 16.6667 10.2335H6.66667C6.5397 10.2335 6.43333 10.1271 6.43333 10.0002C6.43333 9.8732 6.5397 9.76683 6.66667 9.76683H16.6667C16.7936 9.76683 16.9 9.8732 16.9 10.0002ZM16.9 13.3335C16.9 13.4605 16.7936 13.5668 16.6667 13.5668H6.66667C6.5397 13.5668 6.43333 13.4605 6.43333 13.3335C6.43333 13.2065 6.5397 13.1002 6.66667 13.1002H16.6667C16.7936 13.1002 16.9 13.2065 16.9 13.3335ZM6.66667 6.90016C6.5397 6.90016 6.43333 6.79379 6.43333 6.66683C6.43333 6.53987 6.5397 6.4335 6.66667 6.4335H16.6667C16.7936 6.4335 16.9 6.53987 16.9 6.66683C16.9 6.79379 16.7936 6.90016 16.6667 6.90016H6.66667Z" fill="black" stroke="white" stroke-width="1.2"/>
</g>
<defs>
<clipPath id="clip0_261_21347">
<rect width="20" height="20" fill="white"/>
</clipPath>
</defs>
</svg>
