<svg width="9" height="13" viewBox="0 0 9 13" fill="none" xmlns="http://www.w3.org/2000/svg">
<path d="M7.875 4.99995H7.5V3.49995C7.5 1.84541 6.15454 0.499947 4.5 0.499947C2.84546 0.499947 1.5 1.84541 1.5 3.49995V4.99995H1.125C0.505005 4.99995 0 5.5044 0 6.12495V11.3749C0 11.9955 0.505005 12.4999 1.125 12.4999H7.875C8.495 12.4999 9 11.9955 9 11.3749V6.12495C9 5.5044 8.495 4.99995 7.875 4.99995ZM2.50003 3.49995C2.50003 2.39692 3.39697 1.49998 4.5 1.49998C5.60303 1.49998 6.49997 2.39692 6.49997 3.49995V4.99995H2.50003V3.49995Z" fill="#F02E51"/>
</svg>
