<svg width="33" height="32" viewBox="0 0 33 32" fill="none" xmlns="http://www.w3.org/2000/svg">
<path d="M14.3463 13.7365C14.9529 14.8091 13.5964 15.1416 12.9598 15.2028C11.9952 15.2969 11.7955 14.7385 11.9839 14.0369C12.0457 13.7857 12.183 13.5597 12.377 13.3896C12.571 13.2194 12.8125 13.1133 13.0686 13.0857C13.3209 13.0625 13.5747 13.1112 13.8007 13.2263C14.0267 13.3414 14.2158 13.5183 14.3463 13.7365Z" fill="black"/>
<path d="M18.1331 11.752C17.4281 17.1689 26.9322 16.0416 26.7513 20.3529C27.6888 19.1287 28.0919 15.8024 25.3319 14.0903C22.8729 12.5637 19.6687 13.3991 18.1331 11.752Z" fill="black"/>
<path d="M23.6074 9.70952C23.5455 9.65207 23.4818 9.59557 23.4199 9.53906C23.4827 9.59651 23.5455 9.65678 23.6074 9.70952Z" fill="black"/>
<path d="M25.8167 13.6578L25.8111 13.6493C25.7253 13.4892 25.6275 13.3359 25.5186 13.1906C25.1981 12.7546 24.7385 12.4421 24.2164 12.3054C23.8689 12.2153 23.5135 12.1592 23.1552 12.1378C22.7924 12.1114 22.4221 12.0963 22.048 12.0766C21.2981 12.0351 20.5303 11.9579 19.7803 11.7432C19.5928 11.6895 19.4053 11.6311 19.2244 11.5605C19.1306 11.5266 19.0434 11.4899 18.9506 11.4503C18.8578 11.4107 18.7631 11.3655 18.6694 11.3175C18.3167 11.1235 17.9901 10.8852 17.6972 10.6084C17.1197 10.0688 16.666 9.45662 16.2113 8.86332C15.7827 8.26774 15.3227 7.69559 14.8333 7.14934C14.3504 6.6142 13.7796 6.16633 13.1458 5.82524C12.4896 5.4932 11.7768 5.28871 11.0449 5.22253C11.8041 5.13971 12.5721 5.23381 13.2892 5.49752C14.0129 5.77972 14.6744 6.20174 15.2364 6.73968C15.6033 7.08534 15.9477 7.45433 16.2676 7.84435C18.6488 7.37347 20.58 7.79161 22.064 8.6034L22.0977 8.62035C22.5701 8.8777 23.0127 9.18658 23.4177 9.54138C23.4824 9.59788 23.5461 9.65439 23.6052 9.71183C23.9213 10.0036 24.2155 10.3183 24.4855 10.6536L24.5061 10.6809C25.3826 11.7959 25.8157 12.9552 25.8167 13.6578Z" fill="black"/>
<path d="M25.8161 13.6577L25.8105 13.6465L25.8161 13.6577Z" fill="black"/>
<path d="M11.1654 5.91992C11.7729 6.00845 12.3925 6.25142 12.7919 6.71476C13.1913 7.1781 13.3384 7.78082 13.4538 8.35434C13.5475 8.79885 13.6216 9.25183 13.7959 9.67279C13.8803 9.87809 14.004 10.058 14.1072 10.252C14.1925 10.413 14.3481 10.558 14.4081 10.7304C14.4188 10.7551 14.4228 10.7823 14.4197 10.8091C14.4166 10.8359 14.4064 10.8614 14.3903 10.8829C14.1784 11.1184 13.6066 10.8566 13.3909 10.7511C13.0182 10.5655 12.6843 10.3097 12.4075 9.99769C11.5423 9.0324 11.0951 7.64332 11.1223 6.37855C11.1283 6.225 11.1427 6.07189 11.1654 5.91992Z" fill="black"/>
<path d="M21.326 16.8066C20.0136 20.486 25.9665 22.9544 23.7363 26.695C26.0246 25.7457 27.1112 22.8781 26.1615 20.6028C25.3309 18.6054 22.8747 17.8774 21.326 16.8066Z" fill="black"/>
<path d="M13.4531 21.6165C13.8108 21.3457 14.2018 21.1226 14.6165 20.9526C15.0361 20.7839 15.4714 20.6577 15.9159 20.5759C16.798 20.4073 17.6708 20.3659 18.4039 20.0693C18.7661 19.9272 19.0994 19.7197 19.3873 19.4571C19.666 19.197 19.8793 18.8743 20.0098 18.5154C20.1435 18.1367 20.1977 17.7343 20.1692 17.3335C20.1361 16.903 20.0391 16.4798 19.8814 16.0781C20.2082 16.4195 20.4461 16.8366 20.5741 17.2925C20.7022 17.7483 20.7163 18.2288 20.6154 18.6915C20.5007 19.1812 20.2531 19.6295 19.9001 19.9864C19.5507 20.3322 19.1294 20.5959 18.6664 20.7586C18.2246 20.9143 17.7639 21.0093 17.2968 21.0411C16.8468 21.0788 16.4118 21.0892 15.9843 21.1146C15.12 21.151 14.2664 21.3203 13.4531 21.6165Z" fill="black"/>
<path d="M21.8492 28.0849C21.7171 28.1904 21.5849 28.3025 21.4396 28.4004C21.2934 28.4972 21.1401 28.5828 20.9811 28.6566C20.6502 28.8188 20.2863 28.9016 19.9181 28.8986C18.9206 28.8798 18.2156 28.1339 17.8031 27.291C17.5219 26.7166 17.3278 26.0959 16.9941 25.5488C16.5169 24.7662 15.7004 24.1362 14.7441 24.2529C14.3542 24.3019 13.9885 24.478 13.772 24.818C13.202 25.7061 14.0204 26.9501 15.0638 26.774C15.1526 26.7604 15.2394 26.7364 15.3226 26.7024C15.4054 26.667 15.4828 26.6197 15.5522 26.5621C15.698 26.4402 15.8079 26.2806 15.87 26.1007C15.9386 25.913 15.9538 25.7098 15.9141 25.5139C15.8713 25.3092 15.751 25.1292 15.5785 25.012C15.779 25.1063 15.9353 25.2751 16.0144 25.4829C16.0965 25.6966 16.1176 25.9292 16.0754 26.1543C16.0344 26.3889 15.9314 26.6082 15.7772 26.7891C15.6953 26.8821 15.6006 26.963 15.496 27.0292C15.3923 27.0947 15.2812 27.1475 15.1651 27.1865C14.9296 27.2673 14.6789 27.2934 14.432 27.2628C14.0852 27.2132 13.7582 27.0707 13.4851 26.8503C13.1626 26.5941 12.9226 26.2589 12.6311 25.9707C12.2969 25.6184 11.9025 25.3291 11.4667 25.1165C11.1662 24.9839 10.8517 24.886 10.5293 24.8246C10.3671 24.7907 10.203 24.7662 10.039 24.7455C9.96397 24.7379 9.59648 24.656 9.54492 24.704C10.052 24.2351 10.6048 23.8187 11.1949 23.4609C11.8008 23.0997 12.4513 22.8201 13.1298 22.6294C13.8333 22.4305 14.569 22.3738 15.2944 22.4627C15.6678 22.5077 16.0336 22.6028 16.3819 22.7452C16.7469 22.8916 17.0838 23.1007 17.3775 23.363C17.6682 23.6381 17.9032 23.9672 18.0694 24.3321C18.2194 24.6736 18.3313 25.0308 18.4031 25.3972C18.6168 26.4924 18.5381 28.1904 19.9659 28.4409C20.0403 28.4554 20.1154 28.4661 20.1909 28.4729L20.4243 28.4786C20.5848 28.4671 20.7442 28.4441 20.9015 28.4098C21.2272 28.3329 21.5446 28.224 21.8492 28.0849Z" fill="black"/>
<path d="M13.5531 26.8907L13.5156 26.8613L13.5531 26.8907Z" fill="black"/>
<path d="M12.2721 11.4336C12.2201 11.6343 12.1293 11.8228 12.0049 11.9883C11.7733 12.2902 11.4669 12.5256 11.1162 12.6711C10.8007 12.8076 10.4667 12.8958 10.1253 12.9329C10.0512 12.9423 9.97433 12.9479 9.90027 12.9536C9.684 12.9618 9.47603 13.0394 9.30683 13.175C9.13763 13.3106 9.01608 13.497 8.95998 13.707C8.93429 13.8115 8.91519 13.9175 8.90279 14.0244C8.86905 14.3012 8.86342 14.5894 8.83342 14.9378C8.75997 15.5308 8.58922 16.1074 8.32812 16.6443C7.98876 17.3619 7.60815 17.9401 7.69627 18.767C7.75439 19.3038 8.02813 19.6635 8.39187 20.0346C9.0481 20.7089 10.5171 21.0102 10.189 22.6715C9.9912 23.6631 8.35437 24.7038 6.05382 25.0673C6.28256 25.0324 5.76039 24.1481 5.72757 24.0916C5.48102 23.7036 5.21103 23.3382 5.0151 22.9173C4.63073 22.1008 4.45261 21.1562 4.61011 20.2615C4.77604 19.3198 5.46977 18.5984 6.04632 17.8789C6.73255 17.0229 7.45252 15.9013 7.61189 14.79C7.64939 14.5207 7.67564 14.1835 7.73564 13.8482C7.79284 13.4768 7.90867 13.1169 8.07875 12.7822C8.19485 12.5626 8.3477 12.3648 8.53062 12.1974C8.62598 12.1085 8.6889 11.99 8.7093 11.8609C8.72969 11.7318 8.70639 11.5996 8.64311 11.4854L4.97572 4.85926L10.2434 11.3893C10.3034 11.465 10.3792 11.5265 10.4655 11.5694C10.5518 11.6123 10.6464 11.6357 10.7427 11.6377C10.839 11.6398 10.9345 11.6206 11.0225 11.5814C11.1106 11.5422 11.189 11.484 11.2521 11.411C11.3188 11.3328 11.3567 11.2339 11.3592 11.131C11.3618 11.0281 11.3289 10.9274 11.2662 10.846C10.9221 10.4043 10.5584 9.95412 10.2059 9.5115L8.8803 7.86344L6.21975 4.57297L2.5918 0L6.56099 4.27821L9.39309 7.42364L10.8059 9.00013C11.2746 9.53034 11.7433 10.0436 12.2121 10.6011L12.2889 10.6953L12.3058 10.8412C12.3287 11.0392 12.3173 11.2396 12.2721 11.4336Z" fill="black"/>
<path d="M13.4856 26.8466C13.231 26.6491 13.0046 26.4174 12.8125 26.1582C13.0186 26.405 13.2436 26.6352 13.4856 26.8466Z" fill="black"/>
</svg>
