<svg width="96" height="96" viewBox="0 0 96 96" fill="none" xmlns="http://www.w3.org/2000/svg">
<g clip-path="url(#clip0)">
<g filter="url(#filter0_i)">
<path d="M48.0743 95.2518C74.1504 95.2518 95.2892 74.113 95.2892 48.0369C95.2892 21.9609 74.1504 0.822021 48.0743 0.822021C21.9982 0.822021 0.859375 21.9609 0.859375 48.0369C0.859375 74.113 21.9982 95.2518 48.0743 95.2518Z" fill="#00D39500"/>
</g>
<path d="M48.0745 91.7325C72.2069 91.7325 91.7701 72.1693 91.7701 48.0369C91.7701 23.9045 72.2069 4.34131 48.0745 4.34131C23.9421 4.34131 4.37891 23.9045 4.37891 48.0369C4.37891 72.1693 23.9421 91.7325 48.0745 91.7325Z" fill="url(#paint0_linear)"/>
<path fill-rule="evenodd" clip-rule="evenodd" d="M28.1549 63.8801C26.7427 63.0164 25.8789 61.4781 25.8789 59.8262V50.6025C25.8789 50.2495 25.9735 49.909 26.15 49.6064C26.6985 48.6607 27.9153 48.3391 28.8611 48.894L49.6794 61.0304C50.8962 61.7429 51.6465 63.0416 51.6465 64.4539V74.0117C51.6465 74.4467 51.5267 74.8818 51.2997 75.2537C50.6125 76.376 49.1498 76.729 48.0275 76.0418L28.1549 63.8801ZM59.187 46.3658C60.4038 47.0782 61.1541 48.377 61.1541 49.7892V69.1824C61.1541 69.7561 60.8451 70.2857 60.3471 70.5631L55.7887 73.1291C55.732 73.1606 55.6689 73.1858 55.6059 73.2047V62.4364C55.6059 61.043 54.8745 59.7506 53.6766 59.0318L35.3928 48.0933V35.9379C35.3928 35.5848 35.4874 35.2444 35.6639 34.9417C36.2124 33.996 37.4292 33.6745 38.375 34.2293L59.187 46.3658ZM68.2974 32.0416C69.5205 32.7477 70.2708 34.0591 70.2708 35.4713V63.7982C70.2708 64.3782 69.9492 64.9141 69.4385 65.1915L65.1198 67.5242V47.8032C65.1198 46.4099 64.3884 45.1238 63.1968 44.405L44.5095 33.1953V21.6641C44.5095 21.3111 44.6041 20.9706 44.7743 20.668C45.3228 19.7223 46.5396 19.4007 47.4853 19.9493L68.2974 32.0416Z" fill="#F9FAFB00"/>
<path d="M48.0371 96C74.5263 96 96 74.5263 96 48.0371C96 21.5479 74.5263 0.0742188 48.0371 0.0742188C21.5479 0.0742188 0.0742188 21.5479 0.0742188 48.0371C0.0742188 74.5263 21.5479 96 48.0371 96Z" fill="#070A0E00"/>
<path fill-rule="evenodd" clip-rule="evenodd" d="M27.8013 64.1309C26.3667 63.2534 25.4893 61.6907 25.4893 60.0127V50.6429C25.4893 50.2842 25.5853 49.9384 25.7647 49.631C26.3219 48.6703 27.558 48.3437 28.5187 48.9073L49.6668 61.236C50.9029 61.9597 51.665 63.2791 51.665 64.7137V74.4229C51.665 74.8649 51.5434 75.3068 51.3128 75.6846C50.6147 76.8246 49.1288 77.1833 47.9888 76.4852L27.8013 64.1309ZM59.325 46.339C60.5611 47.0628 61.3233 48.3821 61.3233 49.8167V69.5171C61.3233 70.0999 61.0094 70.6379 60.5035 70.9197L55.8729 73.5263C55.8153 73.5583 55.7512 73.584 55.6872 73.6032V62.6642C55.6872 61.2488 54.9442 59.9359 53.7273 59.2058L35.1539 48.0939V35.7459C35.1539 35.3873 35.2499 35.0414 35.4293 34.734C35.9865 33.7733 37.2226 33.4467 38.1833 34.0103L59.325 46.339ZM68.5797 31.7879C69.8222 32.5052 70.5844 33.8374 70.5844 35.272V64.0476C70.5844 64.6368 70.2577 65.1812 69.739 65.463L65.3518 67.8327V47.7993C65.3518 46.3839 64.6088 45.0774 63.3984 44.3472L44.415 32.96V21.2461C44.415 20.8874 44.5111 20.5416 44.684 20.2341C45.2412 19.2735 46.4773 18.9468 47.438 19.504L68.5797 31.7879Z" fill="#00D395"/>
</g>
<defs>
<filter id="filter0_i" x="0.859375" y="0.592313" width="94.4298" height="94.6595" filterUnits="userSpaceOnUse" color-interpolation-filters="sRGB">
<feFlood flood-opacity="0" result="BackgroundImageFix"/>
<feBlend mode="normal" in="SourceGraphic" in2="BackgroundImageFix" result="shape"/>
<feColorMatrix in="SourceAlpha" type="matrix" values="0 0 0 0 0 0 0 0 0 0 0 0 0 0 0 0 0 0 127 0" result="hardAlpha"/>
<feOffset dy="-0.689125"/>
<feGaussianBlur stdDeviation="0.114854"/>
<feComposite in2="hardAlpha" operator="arithmetic" k2="-1" k3="1"/>
<feColorMatrix type="matrix" values="0 0 0 0 0.0699479 0 0 0 0 0.9875 0 0 0 0 0.717887 0 0 0 1 0"/>
<feBlend mode="normal" in2="shape" result="effect1_innerShadow"/>
</filter>
<linearGradient id="paint0_linear" x1="48.0745" y1="4.34131" x2="48.0745" y2="91.7325" gradientUnits="userSpaceOnUse">
<stop stop-color="#141E2700"/>
<stop offset="1" stop-color="#141E2700"/>
</linearGradient>
<clipPath id="clip0">
<rect width="96" height="96" fill="white"/>
</clipPath>
</defs>
</svg>
