<svg xmlns="http://www.w3.org/2000/svg" width="100" height="44" viewBox="0 0 100 44">
    <g fill="none" fill-rule="evenodd">
        <g>
            <g>
                <g fill-rule="nonzero">
                    <path fill="#78D5FF" d="M98.207 41.95c.495 0 .917-.175 1.267-.523.35-.349.526-.77.526-1.261v-15.01c0-1.477-.289-2.872-.866-4.184-.577-1.312-1.36-2.46-2.35-3.445-.989-.984-2.143-1.764-3.462-2.338-1.319-.574-2.72-.861-4.204-.861-1.855 0-3.576.43-5.163 1.292-1.588.861-2.876 2.05-3.865 3.568-1.03-1.518-2.34-2.707-3.926-3.568-1.587-.861-3.308-1.292-5.163-1.292-1.484 0-2.886.287-4.205.861-1.319.574-2.473 1.354-3.463 2.338-.989.984-1.772 2.133-2.35 3.445-.576 1.312-.865 2.707-.865 4.183v15.01c0 .493.186.913.557 1.262.37.348.803.523 1.298.523s.917-.175 1.268-.523c.35-.349.525-.77.525-1.261v-15.01c0-.985.196-1.918.588-2.8.391-.882.907-1.65 1.545-2.307.64-.656 1.402-1.169 2.288-1.538.887-.369 1.824-.553 2.814-.553.989 0 1.927.184 2.813.553.886.37 1.66.882 2.319 1.538.66.656 1.175 1.425 1.546 2.307.37.882.556 1.815.556 2.8v15.01c0 .492.186.912.557 1.26.37.35.803.524 1.298.524s.917-.175 1.268-.523c.35-.349.525-.77.525-1.261v-15.01c0-.985.196-1.918.588-2.8.391-.882.906-1.65 1.545-2.307.64-.656 1.402-1.169 2.288-1.538.886-.369 1.824-.553 2.814-.553.989 0 1.927.184 2.813.553.886.37 1.66.882 2.319 1.538.66.656 1.174 1.425 1.545 2.307.371.882.557 1.815.557 2.8v15.01c0 .492.185.912.556 1.26.371.35.804.524 1.299.524z" transform="translate(-27 -28) translate(27 28) translate(0 1)"/>
                    <path fill="#08A1E7" d="M62.024 41.95c.493 0 .914-.175 1.263-.523.35-.349.524-.77.524-1.261v-15.01c0-1.477-.288-2.872-.863-4.184-.574-1.312-1.355-2.46-2.34-3.445-.986-.984-2.136-1.764-3.45-2.338-1.314-.574-2.71-.861-4.19-.861-1.847 0-3.562.43-5.143 1.292-1.581.861-2.865 2.05-3.85 3.568-1.027-1.518-2.331-2.707-3.912-3.568-1.581-.861-3.296-1.292-5.144-1.292-1.478 0-2.875.287-4.189.861-1.314.574-2.464 1.354-3.45 2.338-.985.984-1.766 2.133-2.34 3.445-.576 1.312-.863 2.707-.863 4.183v15.01c0 .493.185.913.554 1.262.37.348.801.523 1.294.523s.914-.175 1.263-.523c.349-.349.523-.77.523-1.261v-15.01c0-.985.195-1.918.586-2.8.39-.882.903-1.65 1.54-2.307.636-.656 1.396-1.169 2.279-1.538s1.817-.553 2.803-.553 1.92.184 2.803.553c.883.37 1.653.882 2.31 1.538s1.17 1.425 1.54 2.307c.37.882.555 1.815.555 2.8v15.01c0 .492.184.912.554 1.26.37.35.8.524 1.294.524.492 0 .913-.175 1.263-.523.349-.349.523-.77.523-1.261v-15.01c0-.985.195-1.918.585-2.8.39-.882.904-1.65 1.54-2.307.637-.656 1.397-1.169 2.28-1.538.883-.369 1.817-.553 2.803-.553.985 0 1.92.184 2.803.553.883.37 1.653.882 2.31 1.538s1.17 1.425 1.54 2.307c.37.882.554 1.815.554 2.8v15.01c0 .492.185.912.555 1.26.37.35.8.524 1.293.524z" transform="translate(-27 -28) translate(27 28) translate(0 1)"/>
                    <path fill="#1183B7" d="M25.842 0c.49 0 .91.174 1.258.521.348.347.522.766.522 1.257v26.97l-.006.442c-.051 1.754-.407 3.394-1.068 4.922-.716 1.655-1.709 3.116-2.977 4.383-1.269 1.267-2.742 2.258-4.42 2.973-1.678.715-3.458 1.073-5.34 1.073-1.923 0-3.714-.358-5.371-1.073-1.657-.715-3.12-1.706-4.389-2.973-1.268-1.267-2.26-2.728-2.977-4.383C.358 32.457 0 30.67 0 28.75c0-1.88.358-3.658 1.074-5.333.716-1.676 1.709-3.147 2.977-4.414 1.269-1.267 2.732-2.258 4.389-2.973 1.657-.715 3.448-1.072 5.37-1.072 2.293 0 4.461.551 6.507 1.655 1.433.776 2.66 1.736 3.683 2.88V1.779l.008-.18c.039-.414.21-.773.514-1.077C24.87.174 25.31 0 25.842 0zm-11.81 18.316c-1.391 0-2.711.266-3.96.798-1.248.532-2.333 1.259-3.254 2.18-.92.92-1.647 2.006-2.18 3.254-.531 1.248-.798 2.568-.798 3.96 0 1.433.267 2.763.799 3.991.532 1.228 1.258 2.302 2.18 3.223.92.921 2.005 1.648 3.253 2.18 1.249.532 2.569.798 3.96.798 1.392 0 2.712-.266 3.96-.798 1.25-.532 2.334-1.259 3.255-2.18.92-.92 1.647-1.995 2.18-3.223.531-1.228.798-2.558.798-3.99 0-1.393-.267-2.713-.799-3.961-.532-1.248-1.258-2.333-2.18-3.254-.92-.921-2.005-1.648-3.253-2.18-1.249-.532-2.569-.798-3.96-.798z" transform="translate(-27 -28) translate(27 28) translate(0 1)"/>
                </g>
                <path fill="#667681" d="M67.2 0H100v9.8c0 1.767-1.433 3.2-3.2 3.2H67.2c-1.767 0-3.2-1.433-3.2-3.2V3.2C64 1.433 65.433 0 67.2 0z" transform="translate(-27 -28) translate(27 28) rotate(180 82 6.5)"/>
                <path fill="#C9D2D7" fill-rule="nonzero" d="M73.3 10.142c.662 0 1.182-.257 1.56-.77.38-.512.57-1.22.57-2.121 0-.889-.19-1.586-.567-2.092-.377-.506-.895-.76-1.552-.76-.332 0-.625.072-.877.215-.252.143-.45.349-.593.615V2.402h-.899V10h.899v-.688c.15.27.349.476.598.617.249.142.536.213.862.213zm-.131-.762c-.436 0-.767-.18-.991-.537-.225-.358-.337-.882-.337-1.572 0-.694.112-1.219.337-1.575.224-.357.555-.535.99-.535.434 0 .761.178.982.532.222.355.332.88.332 1.578 0 .696-.11 1.222-.332 1.577-.221.354-.548.532-.981.532zm6.162.762c.296 0 .603-.035.92-.105.318-.07.647-.175.99-.315v-.894c-.356.186-.69.324-1.002.415-.312.091-.612.137-.898.137-.567 0-1.005-.163-1.316-.488-.311-.326-.453-.861-.427-1.607v-.03h3.891v-.439c-.026-.667-.24-1.237-.642-1.709S79.896 4.4 79.2 4.4c-.781 0-1.406.26-1.875.782-.469.52-.703 1.217-.703 2.09 0 .895.24 1.597.718 2.106.478.51 1.142.765 1.992.765zm-1.7-3.584c.027-.358.18-.68.46-.967.28-.287.636-.43 1.07-.43.442 0 .781.138 1.017.413.236.275.374.601.413.979l-2.96.005zM87.082 10v-.718h-1.012c-.38 0-.647-.08-.8-.239-.153-.16-.23-.441-.23-.845V5.23h2.041v-.698h-2.04V2.98h-.9V4.53h-1.46v.698h1.46V8.2c0 .66.139 1.126.416 1.396.276.27.752.405 1.425.405h1.1zm3.461.142c.417 0 .77-.078 1.062-.232.291-.155.533-.395.725-.72V10h.903V6.88c0-.479-.026-.838-.078-1.077-.052-.239-.14-.44-.263-.603-.199-.267-.459-.467-.78-.6-.32-.134-.706-.2-1.159-.2-.286 0-.582.031-.886.095-.304.063-.623.158-.955.285v.899c.297-.17.6-.298.913-.386.313-.088.622-.132.928-.132.479 0 .827.099 1.045.296.218.196.329.513.332.95v.14h-1.206c-.791 0-1.39.159-1.8.474-.408.316-.612.778-.612 1.387 0 .528.166.948.498 1.262.332.315.776.472 1.333.472zm.19-.752c-.351 0-.626-.091-.825-.274-.198-.182-.298-.438-.298-.766 0-.365.133-.64.398-.823.266-.184.66-.276 1.184-.276h1.138v.2c-.003.606-.146 1.08-.43 1.424-.283.343-.672.515-1.167.515z" transform="translate(-27 -28) translate(27 28)"/>
            </g>
        </g>
    </g>
</svg>
