<?xml version="1.0" encoding="utf-8"?>
<!-- Generator: Adobe Illustrator 24.0.1, SVG Export Plug-In . SVG Version: 6.00 Build 0)  -->
<svg version="1.1" id="Слой_1" xmlns="http://www.w3.org/2000/svg" xmlns:xlink="http://www.w3.org/1999/xlink" x="0px" y="0px"
	 viewBox="0 0 32 32" style="enable-background:new 0 0 32 32;" xml:space="preserve">
<style type="text/css">
	.st0{fill:#FFFFFF;}
	.st1{fill-rule:evenodd;clip-rule:evenodd;fill:#FFFFFF;}
</style>
<path class="st0" d="M17.6,17.6c-0.2-0.4-0.6-0.9-1-1.3c-0.1,0.1-0.2,0.4-0.2,0.5c-0.1,0.4,0.1,0.4,0.5,0.5
	C17.1,17.3,17.3,17.4,17.6,17.6z"/>
<path class="st1" d="M17.7,0.1C11.4,0.7,6.3,5.5,5.3,11.7c0.4,0,0.7-0.1,0.8-0.1l0,0C6.1,11,6.3,9.9,7,9.2c2-4.5,6.4-7.6,11.6-7.6
	c7,0,12.7,5.7,12.7,12.8c0,5.3-3.2,9.8-7.7,11.8c3.4-2.1,5.7-6,5.7-10.4c0-6.7-5.4-12.2-12.1-12.2c-4.3,0-8,2.2-10.1,5.6
	C7.3,9,7.6,8.9,7.9,8.9c-0.1,1.1,0.7,1.4,1.4,0.8c0.3-0.6,0.7-1.2,1.3-1.6c0.7-0.4,1.6-0.5,2.3-0.5c0.6,0,1.2,0.2,1.7,0.4
	c-0.1-0.4-0.7-0.9-0.8-0.9c1.5-0.8,4,0.2,4.3,1.9c0.1-0.8,0-1.6,0-1.6c1.5,0.6,1.6,2.7,1.5,3.4L21.6,9l-1.9,4.3
	c0.1,0.1,0.1,0.3,0.2,0.5l0.1,0.1c0.1,0.3,0.2,0.5,0.3,0.8c0.1,0.2,0.2,0.4,0.3,0.7c0,0.2-0.1,0.5-0.2,0.9c-0.1,0.4-0.2,0.8-0.2,1
	c0.1,0.4,0.1,0.8,0.2,1.2c0.1,0.6,0.3,1.2,0.5,1.6c0.1,0.2,0.1,0.4,0.2,0.5c0.6,0.5,0.6,1.4,0.6,1.8v0c0,0.7-1,1.4-1.4,1.7
	c-0.1,0-0.1,0.1-0.2,0.1c-0.3,0.2-0.6,0.3-0.8,0.4c-0.2,0.1-0.4,0.1-0.6,0.1c-0.6,0-2.1-0.9-2.3-1.2c-0.1-0.1-0.2-0.6-0.3-1.1
	c-0.1-0.4-0.2-0.8-0.3-1.1c-0.2-0.5-0.4-0.6-0.6-0.8c-0.3-0.2-0.6-0.4-1.1-1.1c-0.2,0.4-0.7,1.6-1,3.2c-0.1,0.5-0.1,1.3-0.1,2.3
	c0,0.5,0,1-0.1,1.5c1.9,0.9,3.9,1.5,6.1,1.5c5.6,0,10.4-3.4,12.6-8.2c-1.7,7-7.9,12.2-15.4,12.2C7.5,32,0.4,24.8,0.4,16
	S7.5,0,16.2,0C16.7,0,17.2,0,17.7,0.1z M5.2,12.4c0,0.4-0.1,0.9-0.1,1.3c0.3-0.1,0.7-0.1,1-0.1l-0.1,0c-0.3,0.1-0.6,0.2-0.9,0.3
	c0,0,0,0.1,0,0.1c0,1.2,0.1,2.3,0.4,3.4c0-0.1,0-0.2,0-0.4l0,0c0-0.1,0.2-1.1,1.1-2.4c0,0.1,0,0.3-0.1,0.4c-0.1,0.5-0.2,1,0,1.6
	c0-0.5,0.3-2,1.3-2.5c-0.3,0.5-0.5,2-0.2,2.4c0-0.8,0.5-1.6,1.2-2.1c0.5-0.4,3-1.8,3-1.8c0,0-0.5,2.1,0.6,2.3
	c-0.2-0.5,0.1-1.4,0.6-2c0.2-0.2,0.5-0.4,0.7-0.5c0,0,0-0.1,0-0.1c-0.1-0.5-0.1-1.1,0.1-1.5c0.2,0.2,0.6,0.4,1,0.5
	c0.4,0.1,0.8,0.3,1.2,0.5c0.3,0.2,0.5,0.6,0.7,1l0.2,0.3l0.1,0.2c0,0,0-0.1,0-0.1l0,0l1.6-1.6c0.4-0.7,0.5-2.5-0.3-3.3
	c0,0.5,0,2.7-0.8,3.1c0.6-1.4,0-4-3-4c0.5,0.4,0.9,1.1,1.1,1.5c0.2,0.2,0.4,0.4,0.5,0.7c0,0-0.1-0.1-0.1-0.1C16,9,15.2,8.2,13,8.2
	c-0.7,0-1.4,0.1-2,0.4c1-0.3,2.1,0.3,3,0.9c-0.1,0-0.3-0.1-0.4-0.2C13,9.1,12.2,8.8,11.3,9c-0.5,0.1-0.8,0.4-1.2,0.8
	c-0.2,0.2-0.4,0.4-0.7,0.6C8.8,10.7,8,10.6,7.7,10C7.6,9.9,7.5,9.7,7.5,9.5c-0.2,0.2-0.3,0.4-0.4,0.6c-0.3,0.4-0.4,1-0.3,1.5
	c0.3,0,0.6,0,0.9,0c0.3,0,0.6,0.1,0.9,0c0.4-0.1,0.9-0.2,1.2-0.4c0.1-0.1,0.3-0.2,0.4-0.3c-0.1,0.1-0.1,0.2-0.2,0.3
	c-0.3,0.4-0.7,0.6-1.2,0.7c-0.4,0.1-0.8,0.1-1.2,0c-0.3,0-0.7-0.1-1,0c-0.2,0-0.4,0.1-0.6,0.2C5.8,12.2,5.5,12.3,5.2,12.4z
	 M19.6,11.5l1-1l-1.8,3.7l0,0c-0.2,0.1-0.5,0-0.8-0.2c-0.2-0.2-0.4-0.4-0.3-0.6l0.4-0.4c0,0.1,0.1,0.2,0.2,0.3
	c0.2,0.2,0.4,0.3,0.7,0.2c-0.1,0-0.2,0-0.2-0.1c-0.3-0.1-0.4-0.4-0.5-0.6l0.6-0.6c0.1,0.2,0.3,0.4,0.6,0.3c-0.2,0-0.4-0.3-0.5-0.5
	l0.4-0.5c0.1,0.1,0.2,0.1,0.3,0.1C19.7,11.7,19.6,11.6,19.6,11.5z M16.3,17.3c-0.2-0.2-0.2-0.4-0.2-0.7c0-0.2,0.1-0.5,0.3-0.7
	c-0.2-0.2-0.5-0.3-0.8-0.3c0.7-0.2,1.2,0.1,1.7,0.6c0.3,0.3,0.7,1.1,0.8,1.4c0.1,0.3,0.7,0.1,0.7,0.1c-0.1,0.2-0.4,0.4-0.7,0.4
	c-0.2,0-0.2-0.1-0.3-0.2c0,0,0-0.1,0-0.1c-0.3-0.1-0.6-0.2-0.9-0.3C16.6,17.5,16.4,17.4,16.3,17.3z M20,22.2L20,22.2
	c-0.1-0.6-0.2-1-0.5-1c0,0,0.1-0.2,0.3-0.1C20.1,21.3,20,21.8,20,22.2L20,22.2L20,22.2z M20.2,22.3c0.1-0.5-0.1-1.6-0.6-1.6
	c-0.3,0-0.5,0.1-0.6,0.2L19,20.9c0-0.1,0-0.1,0-0.2c0-0.5-0.2-0.9-0.4-1.4c-0.1-0.2-0.1-0.3-0.2-0.5c0.4,0.4,0.7,0.9,0.9,1.4
	c0.1-0.1,0.3-0.1,0.5,0.1C20.5,20.8,20.5,21.9,20.2,22.3z M19.1,23.4c-0.6-0.2-1.8-0.7-1.8-1c0-0.2,0-0.5,0.2-0.6
	c0.1,0.3,0.4,0.5,0.8,0.7c0,0-0.5-0.5-0.5-0.9c0,0,0.1,0,0.1,0c0.2,0,0.3,0.3,0.4,0.6C18.4,22.6,18.7,23.1,19.1,23.4z M17.4,18
	c-0.4,0.2-1,0.1-1.3-0.1c-0.4-0.2-0.6-0.7-0.6-1.1c0.1,0.1,0.1,0.2,0.1,0.3c0.1,0.3,0.3,0.5,0.6,0.7c0.2,0.1,0.6,0.2,0.9,0.2
	C17.2,18,17.3,18,17.4,18z M9,21.5c0,0.3,0,0.5,0,0.7c-0.3-0.4-0.4-0.9-0.3-1.4c0.2-2.7,2.4-4.5,2.5-4.6c-1.4,1.9-1.9,3.4-2.1,4.4
	C9,20.8,9,21.2,9,21.5z"/>
<path class="st0" d="M25.7,15.8c0,4.6-2.6,8.7-6.3,10.7c4.8-1.1,8.3-5.4,8.3-10.5c0-4.7-3-8.7-7.1-10.2C23.7,8,25.7,11.7,25.7,15.8z
	"/>
<path class="st0" d="M22.6,15.6c0,0-0.1-0.9-0.4-1.2C21.8,14.1,21,14,21,14s0.8-0.1,1.2-0.4c0.3-0.3,0.4-1.2,0.4-1.2
	s0.1,0.9,0.4,1.2c0.3,0.3,1.2,0.4,1.2,0.4s-0.8,0.1-1.2,0.4C22.6,14.7,22.6,15.6,22.6,15.6z"/>
<path class="st0" d="M14.3,24.7c0.3,0.3,0.3,0.9,0.3,0.9s0-0.6,0.3-0.9c0.3-0.3,0.9-0.3,0.9-0.3s-0.6,0-0.9-0.3s-0.3-0.9-0.3-0.9
	s0,0.6-0.3,0.9c-0.3,0.3-0.9,0.3-0.9,0.3S14.1,24.4,14.3,24.7z"/>
<path class="st0" d="M23.7,18c0,0,0-0.4-0.2-0.6c-0.2-0.2-0.6-0.2-0.6-0.2s0.4,0,0.6-0.2c0.2-0.2,0.2-0.6,0.2-0.6s0,0.4,0.2,0.6
	c0.2,0.2,0.6,0.2,0.6,0.2s-0.4,0-0.6,0.2C23.8,17.6,23.7,18,23.7,18z"/>
</svg>
