<svg width="39" height="28" viewBox="0 0 39 28" fill="none" xmlns="http://www.w3.org/2000/svg">
<path d="M18.1014 5.09803C17.9215 5.098 17.7491 5.02655 17.6219 4.8994C17.4947 4.77224 17.4232 4.59977 17.4232 4.41993C17.4223 3.60766 17.0993 2.82894 16.5249 2.25456C15.9506 1.68018 15.1718 1.35706 14.3596 1.35612C14.1797 1.35612 14.0073 1.28466 13.8801 1.15749C13.7529 1.03033 13.6815 0.857861 13.6815 0.678024C13.6815 0.498187 13.7529 0.325719 13.8801 0.198555C14.0073 0.0713914 14.1797 -3.05176e-05 14.3596 -3.05176e-05C15.5312 0.00139919 16.6545 0.467495 17.483 1.29601C18.3116 2.12452 18.7777 3.2478 18.7791 4.4195C18.7792 4.59934 18.7079 4.77185 18.5808 4.89909C18.4537 5.02634 18.2812 5.09791 18.1014 5.09803Z" fill="black"/>
<path d="M20.9152 5.09802C20.7354 5.098 20.5629 5.02655 20.4358 4.89939C20.3086 4.77224 20.2371 4.59976 20.2371 4.41992C20.2385 3.24814 20.7047 2.12479 21.5334 1.29626C22.362 0.467742 23.4854 0.00170917 24.6572 0.000396729C24.8371 0.000396729 25.0095 0.0718619 25.1367 0.199026C25.2639 0.326189 25.3353 0.498657 25.3353 0.678494C25.3353 0.858331 25.2639 1.0308 25.1367 1.15796C25.0095 1.28513 24.8371 1.35655 24.6572 1.35655C23.8449 1.35746 23.0662 1.68056 22.4918 2.25494C21.9174 2.82932 21.5943 3.6081 21.5934 4.4204C21.5932 4.60017 21.5217 4.7725 21.3946 4.89956C21.2674 5.02663 21.095 5.09802 20.9152 5.09802V5.09802Z" fill="black"/>
<path d="M10.5109 22.8736C8.0325 23.7618 5.95259 23.6718 4.5743 23.405C2.67585 23.038 1.56979 22.2308 1.39965 21.8803C1.30958 21.6943 1.38292 21.6412 1.4528 21.5973L10.0486 16.6181V15.0505L0.764888 20.4282L0.749147 20.4371C0.0317472 20.879 -0.197115 21.6965 0.179121 22.4717C0.648531 23.4382 2.31103 24.3479 4.31638 24.7358C5.04659 24.8757 5.7885 24.9456 6.532 24.9446C7.99169 24.9446 9.75586 24.6799 11.7064 23.8611L11.3598 23.661C11.0218 23.465 10.7317 23.196 10.5109 22.8736V22.8736Z" fill="black"/>
<path d="M38.182 20.438C38.1767 20.4348 38.1715 20.4318 38.1662 20.4292L28.8825 15.0514V16.6191L37.4782 21.5983C37.5486 21.6418 37.6221 21.6957 37.5318 21.8813C37.3617 22.2317 36.2557 23.0389 34.3572 23.4059C32.9791 23.6724 30.8995 23.7625 28.4215 22.8745C28.2023 23.196 27.9143 23.4647 27.5785 23.6612L27.2274 23.8638C29.177 24.6818 30.9399 24.9462 32.3992 24.9462C33.1427 24.9473 33.8845 24.8774 34.6147 24.7374C36.62 24.3496 38.2826 23.4399 38.7519 22.4733C39.1283 21.6975 38.8992 20.8799 38.182 20.438Z" fill="black"/>
<path d="M27.5757 11.2762L20.7775 7.35262C20.3797 7.12215 19.9282 7.00073 19.4685 7.00064C19.0088 7.00055 18.5572 7.12175 18.1593 7.35206L11.3594 11.2765C10.9622 11.5065 10.6322 11.8366 10.4022 12.2338C10.1723 12.631 10.0506 13.0816 10.049 13.5406V21.3931C10.0502 21.8529 10.1718 22.3043 10.4018 22.7024C10.6318 23.1005 10.9621 23.4314 11.3598 23.662L18.1563 27.5845C18.5541 27.8155 19.006 27.9372 19.466 27.9375C19.9261 27.9377 20.378 27.8165 20.7761 27.586L27.5782 23.6605C27.9741 23.4288 28.3027 23.0978 28.5314 22.7001C28.7601 22.3024 28.881 21.8519 28.8822 21.3932V13.5406C28.8806 13.0821 28.7591 12.6319 28.53 12.2347C28.3008 11.8375 27.9718 11.5071 27.5757 11.2762V11.2762ZM12.0382 12.4507L14.2378 11.1812H24.6977L26.8947 12.4492C27.0858 12.5604 27.2445 12.7196 27.3552 12.9111C27.4659 13.1025 27.5246 13.3195 27.5256 13.5406V15.2622H11.4053V13.541C11.4064 13.3198 11.4654 13.1027 11.5764 12.9114C11.6875 12.7201 11.8467 12.5613 12.0382 12.4507ZM26.8979 22.4876L24.7208 23.744H14.2152L12.0389 22.488C11.8468 22.3768 11.6872 22.2172 11.5761 22.0251C11.4649 21.833 11.406 21.6151 11.4053 21.3932V19.6634H27.5261V21.3932C27.5256 21.6145 27.4674 21.8318 27.3572 22.0237C27.247 22.2157 27.0887 22.3755 26.8979 22.4876V22.4876Z" fill="black"/>
</svg>
