<?xml version="1.0" encoding="UTF-8"?>
<svg xmlns="http://www.w3.org/2000/svg" xmlns:xlink="http://www.w3.org/1999/xlink" width="33" height="32" viewBox="0 0 32 32">
<path fill-rule="evenodd" fill="rgb(0%, 0%, 0%)" fill-opacity="1" d="M 718.476562 1416.238281 C 714.371094 1282.398438 725.992188 841.519531 726.019531 831.109375 C 726.050781 818.808594 730.730469 806.988281 739.113281 798 C 897.132812 628.589844 973.308594 546.980469 973.308594 546.980469 C 989.054688 530.121094 1014.46875 526.601562 1034.199219 538.570312 C 1142.070312 603.988281 1273.578125 630.648438 1398.140625 576.980469 C 1409.289062 572.171875 1421.839844 571.699219 1433.320312 575.671875 C 1574.089844 624.261719 1691.660156 604.558594 1800.46875 538.570312 C 1820.199219 526.601562 1845.621094 530.121094 1861.359375 546.980469 C 1861.359375 546.980469 1937.539062 628.601562 2095.5 798 C 2103.890625 806.988281 2108.558594 818.808594 2108.589844 831.101562 C 2108.621094 841.519531 2120.269531 1282.398438 2116.179688 1416.238281 C 2110.910156 1588.359375 2086.25 1697.21875 2016.289062 1800.550781 C 1927.539062 1931.648438 1760.398438 2053.894531 1446.871094 2293.160156 C 1429.410156 2306.480469 1405.199219 2306.480469 1387.738281 2293.15625 C 1074.230469 2053.894531 907.109375 1931.644531 818.359375 1800.550781 C 748.40625 1697.21875 723.753906 1588.359375 718.476562 1416.238281 Z M 2011.199219 850.5 C 2011.308594 877.339844 2022.449219 1292.570312 2018.761719 1413.261719 C 2014.210938 1561.890625 1996 1656.679688 1935.589844 1745.910156 C 1892.769531 1809.160156 1830.390625 1869.65625 1740.671875 1943.386719 C 1766.511719 1800.691406 1697.851562 1740.519531 1631.140625 1680.808594 C 1571.269531 1626.171875 1335.128906 1562.859375 1275.238281 1454.621094 C 1267.078125 1439.878906 1252.671875 1392.539062 1269.558594 1355.019531 C 1286.859375 1316.621094 1335.761719 1288.171875 1351.378906 1283.628906 C 1392.089844 1271.820312 1437.269531 1281.488281 1471.441406 1297.589844 C 1500.789062 1311.421875 1524.488281 1363.871094 1462.230469 1425.46875 C 1602.261719 1395.738281 1635.238281 1325.191406 1754.089844 1439.03125 C 1755.898438 1421.910156 1773.898438 1397.75 1816.539062 1375.53125 C 1820.109375 1344.941406 1812.53125 1307.460938 1793.808594 1263.03125 C 1790.089844 1352.441406 1734.710938 1346.078125 1727.390625 1250.640625 C 1713.699219 1297.511719 1692.300781 1325.269531 1647.300781 1302.199219 C 1568.699219 1261.859375 1528.320312 1132.199219 1447.761719 1126.789062 C 1501.851562 1080.378906 1580.261719 1061.570312 1682.988281 1070.410156 C 1766.019531 1079.488281 1824.101562 1066.308594 1870.679688 1025.730469 C 1879.351562 1030.058594 1898.191406 1045.671875 1906.328125 1067.390625 C 1906.800781 1056.820312 1909.539062 993.199219 1926.511719 987.988281 C 1947.070312 981.710938 1967.238281 1047.128906 1967.078125 1065.628906 C 1981.800781 1022.738281 1980.070312 963.03125 1962.589844 921.308594 C 1918.671875 907.570312 1900.238281 881.191406 1875.640625 830.371094 C 1839.359375 909.351562 1743.578125 915.660156 1678.921875 920.910156 C 1657.371094 915.769531 1639.269531 897.941406 1624.621094 867.429688 C 1512.53125 869.21875 1323.511719 815.808594 1233.808594 743.578125 C 1267.871094 792.601562 1309.648438 829.351562 1359.21875 853.808594 C 1244.191406 851.21875 1148.589844 824.691406 1072.328125 774.25 C 1131.570312 839.128906 1204.398438 885.488281 1291 913.371094 C 1243.789062 911.960938 1206.351562 915.609375 1178.761719 925 C 1109.019531 948.878906 1044.730469 1059.558594 936.117188 940.75 C 987.367188 1058.25 1058.890625 1068.390625 1165.480469 1054.671875 C 1027.5 1082.339844 979.992188 1150.820312 916.351562 1254.011719 C 843.136719 1372.710938 855.023438 1512.859375 893.507812 1629.789062 C 950.699219 1803.550781 1042.261719 1897.324219 1050.359375 1906.6875 C 983.53125 1848.921875 934.574219 1798.359375 899.066406 1745.910156 C 838.65625 1656.679688 820.449219 1561.890625 815.890625 1413.25 C 812.191406 1292.570312 823.308594 877.339844 823.414062 850.5 C 920.910156 745.988281 985.433594 676.839844 1018.429688 641.480469 C 1140.359375 704.949219 1282.660156 725.871094 1419.160156 673.621094 C 1569.039062 720.898438 1697.390625 703.890625 1816.289062 641.539062 C 1849.300781 676.910156 1913.789062 746.039062 2011.199219 850.5 "/>
</svg>
