<svg xmlns="http://www.w3.org/2000/svg" width="53" height="36" viewBox="0 0 53 36">
    <g fill="none" fill-rule="evenodd">
        <g fill-rule="nonzero">
            <g>
                <path fill="#303E46" d="M34.899.078c.421 0 .783.143 1.066.426.262.262.406.583.424.948l.001.079v15.22l-.002.222c-.023 1.198-.23 2.304-.623 3.317-.419 1.082-1.048 2.03-1.882 2.837-.701.7-1.522 1.279-2.462 1.736-.94.456-1.934.752-2.982.886-.213.026-.413.047-.6.06-.19.013-.392.02-.607.02-.994 0-1.898-.135-2.7-.402-.456-.135-.9-.303-1.33-.504-.371-.174-.722-.373-1.05-.594l-.162-.112c-.838-.568-1.542-1.272-2.114-2.116-.589-.91-1.043-1.94-1.362-3.08-.106-.354-.037-.73.182-1.105.186-.34.466-.572.828-.682l.079-.022.038-.01h.04l.028-.001.006-.002c.074-.024.154-.036.239-.036.334 0 .64.11.905.326.266.216.436.496.498.81.223.845.55 1.553.978 2.128.433.581.92 1.056 1.46 1.424.54.369 1.11.632 1.71.791.548.146 1.08.225 1.594.24l.171.002h.423l.086-.001c.07-.002.134-.008.2-.017l.1-.017c.67-.1 1.328-.298 1.974-.596.64-.296 1.212-.695 1.717-1.2.502-.502.907-1.11 1.216-1.826.286-.665.44-1.432.458-2.303l.002-.176v-.923l-.11.1c-.426.377-.897.716-1.413 1.018l-.196.111-.18.097c-1.317.7-2.732 1.05-4.238 1.05-1.263 0-2.442-.236-3.534-.708-1.087-.47-2.048-1.115-2.881-1.934-.834-.821-1.487-1.777-1.958-2.866-.447-1.035-.682-2.147-.706-3.335l-.002-.2V1.522l.003-.087c.022-.358.165-.673.423-.93.283-.283.645-.426 1.066-.426.398 0 .746.144 1.027.426.263.262.406.583.424.948l.002.079v7.624l.002.171c.02.777.18 1.515.478 2.216.321.754.759 1.406 1.313 1.96.554.555 1.207.992 1.96 1.313.751.32 1.545.48 2.383.48.84 0 1.633-.16 2.384-.48.753-.321 1.406-.758 1.96-1.312.554-.555.991-1.207 1.313-1.961.298-.7.458-1.439.477-2.216l.003-.167V1.52l.003-.087c.021-.358.165-.673.422-.93.282-.282.63-.426 1.028-.426zm16.268-.04c1.296 0 1.876 1.441 1.16 2.347l-9.658 12.871h8.507l.087.003c.358.022.673.165.93.423.282.281.427.63.427 1.027 0 .422-.143.784-.426 1.066-.263.263-.584.406-.948.424l-.08.002H39.755c-1.316 0-1.996-1.347-1.203-2.361l9.67-12.856h-8.466l-.085-.003c-.382-.02-.711-.162-.973-.423-.281-.281-.425-.63-.425-1.027 0-.422.143-.784.425-1.066.264-.264.597-.406.983-.424l.083-.002h11.404zM14.777 0c.277 0 .567.093.87.272l.083.051.055.044c.239.239.393.544.465.906l.016.092.003.05c0 .391-.118.727-.342.978l-.05.052-5.806 6.636 5.8 6.628.052.057c.214.242.328.544.344.894l.002.088-.003.05c-.058.371-.198.686-.423.936l-.058.06-.055.045c-.333.212-.65.323-.952.323-.375 0-.72-.145-1.034-.435l-.067-.065-5.554-6.337-5.537 6.359-.067.063c-.304.274-.659.415-1.052.415-.306 0-.597-.098-.866-.287l-.072-.054-.03-.026c-.296-.296-.462-.622-.482-.972l-.002-.047-.007-.043c-.037-.315.052-.617.257-.891l.049-.063.053-.062 5.807-6.636L.353 2.427l-.055-.071c-.216-.302-.313-.63-.284-.942 0-.353.146-.683.423-.983L.498.367l.03-.026C.819.116 1.134 0 1.469 0c.396 0 .754.144 1.072.436L2.607.5l5.516 6.335L13.697.48l.066-.063C14.064.142 14.406 0 14.778 0z" transform="translate(-40 -23) translate(40 23)"/>
                <path fill="#09A1E7" d="M45.258 22.767c.524-.727 1.537-.892 2.264-.368.727.523.892 1.537.368 2.263-4.99 6.93-12.501 11.053-20.632 11.053-8.109 0-15.601-4.1-20.592-10.997-.525-.725-.363-1.74.363-2.264.725-.525 1.74-.363 2.264.363 4.4 6.08 10.933 9.654 17.965 9.654 7.052 0 13.6-3.595 18-9.704z" transform="translate(-40 -23) translate(40 23)"/>
            </g>
        </g>
    </g>
</svg>
