<svg version="1.0" xmlns="http://www.w3.org/2000/svg"
 width="75" height="75" viewBox="0 0 3000.000000 3000.000000"
 preserveAspectRatio="xMidYMid meet">

<g transform="translate(0.000000,3000.000000) scale(0.100000,-0.100000)"
fill="#ADD8E6" stroke="none">
<path d="M5925 24956 c-404 -66 -724 -355 -832 -751 l-28 -100 -5 -1185 c-3
-652 -7 -2202 -8 -3445 -2 -1243 -7 -4312 -12 -6820 -5 -2626 -4 -4596 1
-4645 35 -342 232 -639 532 -800 357 -193 795 -151 1146 110 42 31 180 148
306 260 127 111 322 284 435 384 113 99 473 417 800 706 823 727 1413 1247
1614 1425 94 83 443 391 776 685 333 294 695 614 805 711 110 97 396 349 635
560 239 212 860 760 1380 1219 520 459 1055 931 1189 1050 133 118 270 238
304 267 l60 52 81 -73 c45 -40 189 -168 321 -286 570 -507 1483 -1320 2185
-1945 306 -273 1118 -995 1685 -1500 155 -138 402 -358 550 -490 149 -132 457
-407 685 -610 228 -203 537 -478 685 -610 149 -132 475 -423 725 -646 250
-223 599 -533 774 -689 571 -509 566 -505 700 -575 160 -85 332 -122 520 -112
265 14 498 118 677 304 126 131 201 258 256 438 25 84 27 101 27 275 0 172 -2
191 -27 273 -52 169 -131 310 -235 420 -32 33 -199 186 -372 340 -173 155
-416 372 -540 482 -124 110 -452 403 -730 650 -278 247 -606 540 -730 650
-124 110 -409 365 -635 566 -800 713 -1344 1196 -1645 1464 -311 277 -440 392
-1235 1100 -247 220 -634 565 -860 765 -225 201 -538 479 -695 619 -157 140
-361 322 -453 404 l-168 150 23 23 c13 12 163 145 334 295 170 151 575 508
899 794 324 286 668 590 765 675 96 85 461 407 810 715 1244 1099 1290 1139
2095 1850 193 169 406 358 475 420 69 61 296 262 505 446 665 586 1925 1699
2059 1818 155 138 240 242 306 376 76 152 102 267 103 445 1 282 -85 505 -271
702 -96 100 -177 161 -289 217 -161 79 -280 106 -468 104 -116 0 -157 -5 -238
-26 -126 -33 -261 -98 -362 -174 -44 -33 -282 -239 -530 -458 -247 -219 -576
-509 -730 -645 -154 -136 -440 -388 -635 -561 -534 -471 -1120 -989 -1755
-1549 -313 -277 -601 -531 -640 -566 -38 -34 -308 -272 -600 -530 -291 -257
-716 -632 -944 -833 -2150 -1898 -2443 -2156 -2450 -2159 -5 -2 -53 37 -107
85 -178 159 -1218 1085 -2244 1998 -168 150 -435 388 -595 530 -159 142 -549
489 -865 770 -316 282 -723 644 -905 806 -181 162 -553 493 -825 735 -272 242
-601 535 -730 650 -129 115 -543 484 -920 819 -377 335 -757 674 -845 753
-246 220 -335 283 -500 353 -173 74 -397 104 -570 75z m1830 -3846 c714 -636
1369 -1219 1825 -1625 179 -159 507 -451 730 -650 360 -321 712 -634 1685
-1500 155 -138 485 -432 735 -655 250 -222 520 -463 600 -534 80 -71 146 -132
147 -135 1 -3 -148 -137 -330 -298 -316 -277 -536 -471 -1597 -1408 -255 -225
-541 -478 -634 -560 -163 -143 -904 -798 -1805 -1594 -228 -201 -496 -438
-596 -526 -100 -88 -460 -405 -799 -705 -340 -300 -622 -546 -627 -548 -9 -4
-5 4615 6 7808 3 773 5 1879 5 2459 l0 1054 23 -20 c12 -12 297 -265 632 -563z"/>
</g>
</svg>