<svg width="15" height="15" viewBox="0 0 15 15" fill="none" xmlns="http://www.w3.org/2000/svg">
<g clip-path="url(#clip0)">
<path d="M11.7734 2.32277C11.7935 1.97208 11.8412 1.74076 11.9375 1.52951C11.9756 1.4459 12.0112 1.37747 12.0168 1.37747C12.0222 1.37747 12.0057 1.43918 11.9799 1.51461C11.91 1.71962 11.8985 2.00003 11.9467 2.32628C12.0078 2.74023 12.0426 2.79996 12.4829 3.24711C12.6893 3.45686 12.9295 3.72138 13.0165 3.83495L13.1749 4.04145L13.0165 3.89387C12.8229 3.7134 12.3778 3.36144 12.2794 3.31112C12.2134 3.27738 12.2037 3.27797 12.163 3.31821C12.1255 3.35528 12.1176 3.41099 12.1124 3.67438C12.1043 4.08488 12.048 4.34836 11.9122 4.61181C11.8387 4.7543 11.827 4.72389 11.8935 4.56306C11.9432 4.44297 11.9482 4.39018 11.9479 3.99279C11.9471 3.19435 11.8517 3.00239 11.2925 2.67357C11.1508 2.59027 10.9173 2.47013 10.7737 2.40659C10.63 2.34304 10.5159 2.28769 10.5201 2.28355C10.5359 2.2679 11.0813 2.42612 11.3009 2.51006C11.6275 2.63491 11.6814 2.65109 11.721 2.63603C11.7477 2.62593 11.7605 2.54898 11.7734 2.32277Z" fill="white"/>
<path fill-rule="evenodd" clip-rule="evenodd" d="M11.3751 8.6073C11.3761 8.60781 11.377 8.60833 11.378 8.60884L11.3751 8.6073Z" fill="white"/>
<path d="M6.33049 6.16961C6.40836 6.05964 6.37429 5.9408 6.24187 5.86042C5.98967 5.70736 5.6083 5.83402 5.6083 6.07081C5.6083 6.18868 5.80718 6.31728 5.98948 6.31728C6.11081 6.31728 6.27686 6.24537 6.33049 6.16961Z" fill="white"/>
<path fill-rule="evenodd" clip-rule="evenodd" d="M6.93417 4.29766C6.9415 4.30572 6.9486 4.31353 6.95534 4.32103L6.93417 4.29766ZM6.33049 6.16961C6.40836 6.05964 6.37429 5.9408 6.24187 5.86042C5.98967 5.70736 5.6083 5.83402 5.6083 6.07081C5.6083 6.18868 5.80718 6.31728 5.98948 6.31728C6.11081 6.31728 6.27686 6.24537 6.33049 6.16961Z" fill="white"/>
<path fill-rule="evenodd" clip-rule="evenodd" d="M12.0832 13.5921C11.9012 13.799 11.4266 14.2508 10.9854 14.4021C10.9763 14.4094 10.9673 14.4166 10.9582 14.4239C10.9512 14.4296 10.9439 14.4355 10.9368 14.4412C10.8758 14.4906 10.8138 14.5408 10.747 14.5858C10.662 14.6422 10.5728 14.692 10.4803 14.735C10.4766 14.7368 10.4705 14.7397 10.4668 14.7415C10.3761 14.7848 10.2813 14.8178 10.1841 14.8404C10.0787 14.8648 9.97056 14.8768 9.86174 14.8759C9.28133 14.8649 8.87112 14.4306 8.63116 13.9398C8.6216 13.9203 8.61222 13.9007 8.60298 13.881C8.55136 13.7709 8.50431 13.6583 8.45728 13.5458C8.36859 13.3336 8.27988 13.1214 8.16038 12.9254C7.88272 12.4697 7.40763 12.1029 6.85125 12.1708C6.62433 12.1994 6.4116 12.3019 6.28557 12.4999C6.15088 12.7099 6.14943 12.954 6.23587 13.1631C6.36229 13.4689 6.6767 13.6997 7.03727 13.6388C7.08889 13.6309 7.13939 13.6169 7.1878 13.5971C7.19423 13.5944 7.2006 13.5915 7.20692 13.5885C7.24314 13.5713 7.27735 13.5502 7.30899 13.5254C7.31085 13.524 7.31343 13.5219 7.31594 13.5199C7.31798 13.5183 7.31996 13.5166 7.32145 13.5154C7.32812 13.5098 7.33465 13.5041 7.34105 13.4983C7.41358 13.4321 7.46916 13.3491 7.50291 13.2565C7.50391 13.2537 7.50541 13.2495 7.50637 13.2468C7.54576 13.1388 7.55411 13.0179 7.53197 12.9051C7.50707 12.7859 7.43707 12.6811 7.3367 12.6128C7.45342 12.6677 7.54431 12.766 7.59039 12.887C7.6363 13.0099 7.65 13.1489 7.62583 13.278C7.62539 13.2805 7.62469 13.2843 7.62413 13.2873C7.60631 13.381 7.57109 13.4725 7.52133 13.5529C7.50083 13.5861 7.4778 13.6177 7.45237 13.6476C7.44892 13.6515 7.44482 13.6561 7.44129 13.6599C7.40339 13.7011 7.36107 13.738 7.31509 13.7699C7.30642 13.7759 7.29762 13.7817 7.2887 13.7874C7.22836 13.8255 7.16371 13.8563 7.09616 13.879C6.95913 13.9261 6.81332 13.9412 6.6696 13.9234C6.46781 13.8945 6.27754 13.8116 6.11869 13.6832C6.00224 13.5906 5.90428 13.4804 5.80615 13.3699C5.74616 13.3023 5.6861 13.2347 5.62172 13.1711C5.51706 13.0607 5.40227 12.9609 5.27904 12.873C5.17331 12.7975 5.06136 12.7309 4.94426 12.6737C4.76942 12.5965 4.58642 12.5395 4.39877 12.5037C4.30475 12.4841 4.2086 12.4697 4.11349 12.4577C4.10308 12.4566 4.08299 12.4531 4.05802 12.4488C3.97942 12.435 3.85196 12.4133 3.82653 12.4331C3.17898 12.8367 2.68933 12.864 1.70437 12.6717C1.67537 12.5267 1.43033 12.0678 1.19366 11.6463C1.18291 11.6272 1.17174 11.6075 1.16027 11.5873C0.860904 11.06 0.356101 10.1709 1.6054 8.6188C2.61272 7.36731 2.69706 6.53708 2.74711 6.04442C2.75964 5.92111 2.77002 5.81894 2.79219 5.73661C2.85134 5.51691 2.98102 5.35893 3.09141 5.22446C3.18765 5.10722 3.28444 4.8091 3.2918 4.70227C3.31997 4.29383 2.34081 2.75792 0.625977 0.0799255L4.47329 3.3835C4.57135 3.44892 4.70945 3.48439 4.83248 3.516C4.90176 3.53379 4.96627 3.55036 5.01615 3.57036C5.13163 3.61665 5.24737 3.66305 5.35358 3.74122C4.80189 3.13559 4.51965 2.33957 4.53893 1.60801C4.54367 1.50896 4.55506 1.41019 4.57301 1.31215C4.61876 1.31759 4.66461 1.32394 4.71038 1.33122C4.70353 1.22902 4.6986 1.13859 4.6986 1.09018C5.14035 1.04196 5.58722 1.09675 6.00447 1.25029C6.00814 1.25172 6.01677 1.25513 6.02043 1.25657C6.35797 1.39024 6.67201 1.57635 6.95126 1.80769C7.01518 1.86064 7.07727 1.91596 7.13741 1.97356C7.35089 2.17483 7.55135 2.38967 7.73742 2.61677C9.12295 2.3426 10.2466 2.58607 11.1101 3.05874L11.1298 3.06861C11.3077 3.1656 11.4783 3.27517 11.6405 3.39642C11.6663 3.49809 11.6807 3.63535 11.6853 3.8386C11.4697 3.65006 11.2342 3.48569 10.9832 3.34839L10.9585 3.33574C10.1766 2.90775 9.15447 2.67608 7.87791 2.91142C7.90491 2.94807 7.93171 2.98487 7.95831 3.02183C7.97687 3.04607 7.99532 3.07021 8.01369 3.09425L8.01495 3.0959L8.01603 3.09731C8.26289 3.42035 8.4971 3.72634 8.78633 3.99678C8.9361 4.13846 9.10305 4.26056 9.28313 4.36016C9.33144 4.38481 9.37819 4.40704 9.42236 4.42585C9.47619 4.44884 9.52 4.4672 9.56537 4.48362C9.65753 4.5196 9.76327 4.55326 9.86833 4.58336C10.2706 4.69859 10.6894 4.74199 11.1179 4.76573C11.1752 4.76875 11.2333 4.77162 11.2917 4.77451C11.4492 4.7823 11.6095 4.79023 11.766 4.80159C11.9941 4.81536 12.2205 4.85118 12.4419 4.90861C12.5034 4.92472 12.5644 4.94444 12.6232 4.9672C12.5299 4.80411 12.4169 4.63421 12.2828 4.46348L12.2653 4.44084C12.3045 4.31902 12.3314 4.19175 12.3487 4.05169C12.4072 4.11712 12.464 4.18408 12.5191 4.2525C12.786 4.59228 12.9943 4.95502 13.1208 5.26711C13.1738 5.39774 13.2145 5.52228 13.2431 5.63767C13.2757 5.76969 13.2896 5.89341 13.2904 5.99679C13.2405 5.90357 13.1836 5.81431 13.1202 5.72976C13.0446 5.6268 12.9557 5.53567 12.8565 5.4584C12.7109 5.34511 12.5432 5.2616 12.3626 5.21428C12.1603 5.16182 11.9535 5.12915 11.745 5.11669C11.5919 5.10554 11.4365 5.09785 11.2796 5.09009C11.2202 5.08716 11.1606 5.08421 11.1009 5.08106C10.6645 5.0569 10.2177 5.01195 9.78132 4.88693C9.67223 4.85567 9.56318 4.82166 9.45787 4.78055C9.40335 4.76081 9.35261 4.73944 9.29861 4.71639C9.24462 4.69339 9.18951 4.66701 9.13494 4.63906C8.92977 4.5261 8.73968 4.38735 8.56931 4.22618C8.63726 4.30294 8.78328 4.54324 8.8233 4.89162C8.91258 4.98745 9.01156 5.06885 9.11883 5.13863C9.57446 5.43503 10.1797 5.52183 10.8272 5.61468C11.5529 5.71873 12.3315 5.83039 13.0121 6.25319C14.3183 7.06405 14.4068 8.4967 14.1009 9.38678C14.0307 9.59099 13.9397 9.76665 13.8379 9.89968C13.846 9.70754 13.821 9.53395 13.7682 9.37579C13.4988 8.56857 12.5048 8.16307 11.476 7.74341C11.0768 7.58059 10.6724 7.41563 10.3031 7.22426C10.446 7.37599 10.5764 7.56706 10.6808 7.83444C10.7678 7.8946 10.8597 7.9529 10.9551 8.01019C11.1362 8.11887 11.3302 8.22389 11.5281 8.33102C12.3071 8.75267 13.1462 9.20692 13.4944 10.0448C13.9761 11.1998 13.5574 12.617 12.5598 13.3276C12.4131 13.432 12.2539 13.5212 12.0832 13.5921ZM6.77653 10.2495C6.53523 10.3485 6.30767 10.4784 6.0996 10.6361C6.57276 10.4636 7.0695 10.365 7.5724 10.3438C7.65214 10.3391 7.73233 10.3352 7.81312 10.3315L7.84775 10.3299C8.00772 10.3225 8.17015 10.315 8.33603 10.3011C8.60782 10.2825 8.87594 10.2272 9.13301 10.1366C9.40235 10.0418 9.64755 9.88823 9.85085 9.68688C10.0562 9.47907 10.2003 9.2181 10.2671 8.93291C10.3258 8.66355 10.3175 8.38377 10.243 8.11832C10.1685 7.85292 10.0301 7.61006 9.83991 7.41128C9.93167 7.64517 9.98811 7.89153 10.0074 8.14219C10.024 8.37556 9.99242 8.60987 9.91468 8.83037C9.83875 9.03935 9.71464 9.2273 9.55247 9.37875C9.38495 9.53165 9.19102 9.65241 8.98027 9.73515C8.68736 9.85378 8.35612 9.90232 8.01111 9.95287C7.85368 9.97594 7.69338 9.99943 7.53254 10.0302C7.27391 10.0778 7.02062 10.1513 6.77653 10.2495ZM5.81332 6.90097C6.18373 6.86533 6.97302 6.67173 6.62012 6.04719C6.54419 5.92014 6.4341 5.81719 6.3026 5.75012C6.1711 5.6831 6.02342 5.65474 5.87662 5.66825C5.72761 5.68432 5.58715 5.7461 5.47421 5.8452C5.36133 5.94424 5.2815 6.07584 5.24548 6.2221C5.13586 6.63062 5.25205 6.95582 5.81332 6.90097ZM6.95534 4.32103C7.00051 4.37138 7.03307 4.41215 7.05007 4.45168C7.02919 4.46607 6.99611 4.47719 6.9464 4.48042C6.8894 4.48412 6.82094 4.47672 6.74752 4.46171C6.60106 4.43176 6.45205 4.37529 6.36764 4.34159C6.08269 4.2258 5.82825 4.06639 5.61831 3.87327C5.36416 3.64193 5.1571 3.37165 4.9995 3.08188C4.7457 2.61522 4.62016 2.09802 4.63279 1.6115C4.63593 1.54657 4.64205 1.48176 4.65112 1.41719C4.67317 1.4204 4.69517 1.42382 4.71713 1.42747C5.13403 1.49663 5.53229 1.64497 5.79435 1.89311C6.08854 2.17158 6.20033 2.53692 6.29128 2.90608C6.29833 2.93335 6.30527 2.96087 6.3122 2.98859C6.3144 2.99741 6.31661 3.00627 6.31882 3.01516L6.32633 3.04541L6.32646 3.04592C6.38602 3.2859 6.44877 3.53875 6.56894 3.77549C6.6054 3.84791 6.64968 3.91447 6.69335 3.97664C6.70746 3.99673 6.72128 4.01607 6.73484 4.03503C6.76452 4.07654 6.7929 4.11623 6.82008 4.15797C6.85264 4.20809 6.89649 4.25627 6.93417 4.29766C6.9415 4.30572 6.9486 4.31353 6.95534 4.32103ZM3.5785 4.77005C3.56715 4.93281 3.47579 5.1409 3.42768 5.21397C3.38705 5.27567 3.33553 5.33833 3.2918 5.39152C3.18833 5.51812 3.08383 5.65682 3.04409 5.80443C3.0279 5.86454 3.02026 5.93907 3.00809 6.0577C3.00468 6.09093 3.00092 6.12762 2.99651 6.16842C2.97779 6.34181 2.94923 6.55712 2.88174 6.81194C2.74603 7.32433 2.45887 7.9745 1.80862 8.78237C1.18745 9.55412 1.04536 10.1206 1.06437 10.5301C1.08247 10.92 1.24494 11.2071 1.38965 11.4628C1.40026 11.4816 1.41077 11.5001 1.42112 11.5186C1.5401 11.7305 1.66252 11.9541 1.75936 12.1443C1.80502 12.234 1.84609 12.3184 1.87878 12.3918C1.9866 12.3716 2.14255 12.3321 2.39751 12.2595C2.40968 12.2561 2.42208 12.2525 2.43469 12.249C2.7127 12.17 3.09242 12.0622 3.41896 11.878C3.76049 11.6853 3.988 11.4414 4.01906 11.1121C4.05232 10.7596 3.92101 10.5581 3.73519 10.3944C3.63495 10.3061 3.5207 10.2312 3.39624 10.1506C3.28342 10.0775 3.13829 9.98351 3.03589 9.88623C2.63114 9.50171 2.39615 8.91336 2.65535 8.23603C2.74342 8.00589 2.84236 7.79903 2.92313 7.63014C2.94576 7.58282 2.96728 7.53774 2.98725 7.49481C3.08205 7.29101 3.14465 7.1305 3.168 6.95844C3.17988 6.87089 3.1907 6.73305 3.1995 6.6208C3.2093 6.49673 3.22082 6.35988 3.24124 6.22911C3.26147 6.09962 3.29239 5.96214 3.34691 5.83937C3.40168 5.71603 3.48901 5.58825 3.63243 5.50857C3.80641 5.41192 4.01524 5.37796 4.18695 5.35003C4.21604 5.3453 4.24418 5.34073 4.27078 5.33607C4.55739 5.28587 4.90537 5.04299 5.01615 4.77005C5.06406 4.65202 4.86364 4.45522 4.4358 4.08457C4.00796 3.71392 1.26229 0.905753 1.26229 0.905753C1.5767 1.31394 1.8265 1.79867 2.67878 3.08188C3.53106 4.3651 3.58986 4.60728 3.5785 4.77005ZM13.8958 8.91317C13.9322 8.69842 13.9437 8.46138 13.9177 8.2162C13.8525 7.6009 13.5542 6.9614 12.8455 6.52148C12.2228 6.13462 11.5046 6.03123 10.7631 5.92453C10.7325 5.92012 10.7018 5.9157 10.671 5.91125C10.1592 5.83725 9.60972 5.75456 9.14252 5.51589C9.20782 5.88815 9.39622 6.17513 9.66207 6.41905C10.0743 6.79724 10.6728 7.07114 11.3367 7.34515C11.4207 7.37979 11.5061 7.4146 11.5919 7.44957C12.16 7.68102 12.7573 7.92433 13.2196 8.24118C13.4896 8.42624 13.7275 8.64584 13.8958 8.91317ZM13.203 10.1664C12.9995 9.6767 12.5896 9.32338 12.0777 9.0056C11.8525 8.86572 11.6172 8.73837 11.378 8.60884L11.3751 8.6073L11.3678 8.60333C11.3393 8.58788 11.3107 8.57239 11.282 8.55685C11.1513 8.48592 11.0195 8.41365 10.8907 8.33883C10.8659 8.63364 10.9297 8.91885 11.0515 9.20951C11.2134 9.59555 11.4667 9.96811 11.7413 10.3719C11.7752 10.4217 11.8095 10.4721 11.8439 10.523C12.1458 10.9694 12.4628 11.46 12.6087 11.9913C12.6811 12.2549 12.7111 12.5267 12.6821 12.8066C13.3334 12.1342 13.5763 11.0615 13.203 10.1664ZM8.34013 12.8158C8.44564 12.9889 8.5273 13.1706 8.60103 13.3444C8.61887 13.3865 8.63614 13.4278 8.65314 13.4684C8.70809 13.5999 8.76029 13.7247 8.82026 13.8473C8.84001 13.8877 8.86077 13.9272 8.8825 13.9657C8.94428 14.0752 9.01401 14.1764 9.09131 14.2658C9.04397 14.1784 9.00674 14.0866 8.97665 13.9943C8.97407 13.9864 8.97154 13.9785 8.96907 13.9705C8.90974 13.7809 8.87599 13.5789 8.84952 13.3921C8.84159 13.3362 8.83438 13.2823 8.82742 13.2303C8.81032 13.1024 8.7947 12.9857 8.77359 12.8774C8.73494 12.6798 8.67462 12.4871 8.59385 12.3029C8.50881 12.1165 8.389 11.9484 8.24092 11.8076C8.08878 11.6721 7.91321 11.5636 7.72445 11.4878C7.53918 11.412 7.34473 11.3614 7.14624 11.3375C6.75198 11.2891 6.35163 11.3199 5.96928 11.4281C5.59256 11.5341 5.23103 11.6895 4.89458 11.8901C4.70025 12.008 4.51312 12.1373 4.33416 12.2772C4.36931 12.2833 4.40464 12.2899 4.44002 12.2973C4.64272 12.336 4.84409 12.3993 5.033 12.4827C5.30751 12.6167 5.55959 12.8005 5.7705 13.022L5.77092 13.0224L5.77218 13.0238C5.84102 13.0921 5.90661 13.1659 5.96675 13.2336C5.98501 13.2542 6.00276 13.2742 6.01995 13.2933C6.0564 13.3338 6.09163 13.3718 6.12696 13.4074C6.06525 13.3113 6.01854 13.2031 5.99175 13.0891C5.93835 12.8618 5.96414 12.6113 6.10817 12.3865C6.27698 12.1216 6.555 11.9959 6.82499 11.962C7.49667 11.8799 8.0402 12.3236 8.34013 12.8158Z" fill="white"/>
<path fill-rule="evenodd" clip-rule="evenodd" d="M6.93417 4.29766C6.9415 4.30572 6.9486 4.31353 6.95534 4.32103L6.93417 4.29766ZM6.33049 6.16961C6.40836 6.05964 6.37429 5.9408 6.24187 5.86042C5.98967 5.70736 5.6083 5.83402 5.6083 6.07081C5.6083 6.18868 5.80718 6.31728 5.98948 6.31728C6.11081 6.31728 6.27686 6.24537 6.33049 6.16961Z" fill="white"/>
<path d="M1.80993 10.0606C1.97406 10.1691 2.0262 10.3911 1.92808 10.5639C1.83411 10.7292 1.65469 10.7835 1.52794 10.6849C1.44929 10.6237 1.44376 10.5336 1.51232 10.4312C1.58002 10.3301 1.57377 10.2805 1.48773 10.2366C1.43662 10.2104 1.41395 10.1808 1.41395 10.14C1.41395 10.0065 1.65486 9.95818 1.80993 10.0606Z" fill="white"/>
</g>
<defs>
<clipPath id="clip0">
<rect width="13.6957" height="15" fill="white" transform="translate(0.625)"/>
</clipPath>
</defs>
</svg>
