<?xml version="1.0" encoding="UTF-8"?>
<svg width="47px" height="47px" viewBox="0 0 47 47" version="1.1" xmlns="http://www.w3.org/2000/svg" xmlns:xlink="http://www.w3.org/1999/xlink">
    <title>EFFCE30B-B96B-4EC2-A76B-5D4CFE918623</title>
    <g id="Assets" stroke="none" stroke-width="1" fill="none" fill-rule="evenodd">
        <g id="assets_dark" transform="translate(-674.000000, -32.000000)">
            <g id="icon_ichi_blue" transform="translate(674.000000, 32.000000)">
                <circle id="Oval" fill="#006CF0" cx="23.5" cy="23.5" r="23.5"></circle>
                <path d="M18.8152659,22.3879102 L18.8152659,18.0834946 C20.2016377,18.3341553 21.7545909,18.4880262 23.5002464,18.4880262 C25.2459019,18.4880262 26.7983623,18.3341553 28.185227,18.0834946 L28.185227,22.3879102 L18.8152659,22.3879102 Z M23.5002464,28.5114774 C21.7545909,28.5114774 20.2016377,28.6653483 18.8152659,28.9165054 L18.8152659,24.6115935 L28.185227,24.6115935 L28.185227,28.9165054 C26.7983623,28.6653483 25.2459019,28.5114774 23.5002464,28.5114774 L23.5002464,28.5114774 Z M31.3552033,17.2545769 C31.3744242,17.2476279 31.3931523,17.2401825 31.4123733,17.2332335 C32.8110662,16.7378684 33.9549585,16.1496843 34.8652424,15.5679528 C35.2974671,15.2919778 35.5512821,14.8060435 35.5512821,14.290824 C35.5512821,13.4569427 34.6281842,12.9700157 33.9441159,13.4395702 C32.9081566,14.1508511 31.4444082,14.9122641 29.4612016,15.4542869 C29.4010746,15.4706667 29.3439046,15.4885356 29.2832847,15.504419 C29.0087703,15.5763909 28.7224276,15.6429029 28.4281994,15.705444 C28.3389945,15.7248019 28.2473254,15.7421744 28.156642,15.7600433 C27.9126839,15.8091828 27.661826,15.853855 27.4045612,15.895549 C27.3261989,15.907958 27.249808,15.921856 27.1699671,15.9337686 C26.8353257,15.9834044 26.4903345,16.0275802 26.1330221,16.0643107 C26.0714166,16.070267 26.0073468,16.0747342 25.9447555,16.0806905 C25.635742,16.1099756 25.3173644,16.1333045 24.9911013,16.1516697 C24.8989393,16.1566333 24.8067774,16.1620932 24.7131369,16.1660641 C24.319847,16.1834366 23.9181786,16.1953492 23.5002464,16.1953492 C23.0832999,16.1953492 22.6831101,16.1834366 22.2912987,16.1660641 C22.1932226,16.1620932 22.0976107,16.1566333 22.0019989,16.1511733 C21.6880569,16.1333045 21.3820004,16.1109683 21.0843223,16.0826759 C21.0079314,16.0757269 20.9300619,16.070267 20.8551496,16.0628216 C20.5096655,16.0270839 20.1769955,15.9843971 19.8527037,15.9362504 C19.7457564,15.9203669 19.6432448,15.902498 19.5382689,15.8851255 C19.3209244,15.8493877 19.1085084,15.8111682 18.9010208,15.7704668 C18.7763311,15.7461453 18.6511486,15.7218238 18.5299088,15.6955168 C18.3194642,15.6498519 18.1154266,15.6012088 17.9153317,15.5510767 C17.7300221,15.504419 17.5506267,15.4557759 17.3736955,15.4056438 C15.4782152,14.8680882 14.0686797,14.1309967 13.0613054,13.4415556 C12.3747729,12.9710084 11.4487179,13.4554537 11.4487179,14.2918167 C11.4487179,14.8065398 11.7020401,15.2914815 12.1332791,15.5674565 C13.0425773,16.1481952 14.1840054,16.7353866 15.5797412,17.2302554 C15.6029049,17.2386935 15.6250829,17.2476279 15.6492323,17.256066 C15.9286752,17.3538485 16.220932,17.4461711 16.5195958,17.5365082 L16.5195958,22.3879102 L15.5053217,22.3879102 C15.053876,22.3879102 14.6876925,22.7567041 14.6876925,23.2113679 C14.6876925,23.9846935 15.3106481,24.6115935 16.0780071,24.6115935 L16.5195958,24.6115935 L16.5195958,29.4629954 C16.220932,29.5533326 15.9286752,29.6461515 15.6492323,29.7434377 C15.6250829,29.7518757 15.6029049,29.7608102 15.5797412,29.7697446 C14.1840054,30.2646134 13.0425773,30.8513084 12.1332791,31.4325436 C11.7020401,31.7080222 11.4487179,32.1929638 11.4487179,32.7081833 C11.4487179,33.54405 12.3747729,34.0284953 13.0613054,33.5584443 C14.0686797,32.8685069 15.4782152,32.1319118 17.3736955,31.5938599 C17.5506267,31.5437277 17.7300221,31.4950846 17.9153317,31.448427 C18.1154266,31.3982948 18.3194642,31.3496518 18.5299088,31.3039869 C18.6511486,31.2776799 18.7763311,31.2533583 18.9010208,31.2290368 C19.1085084,31.1883354 19.3209244,31.1501159 19.5382689,31.1148745 C19.6432448,31.097502 19.7457564,31.0791367 19.8527037,31.0632533 C20.1769955,31.0151066 20.5096655,30.9724198 20.8551496,30.9371784 C20.9300619,30.9292367 21.0079314,30.9237767 21.0843223,30.9168277 C21.3820004,30.8890316 21.6880569,30.8661992 22.0019989,30.8483303 C22.0976107,30.8433667 22.1932226,30.8379068 22.2912987,30.8334396 C22.6831101,30.8160671 23.0832999,30.8041544 23.5002464,30.8041544 C23.9181786,30.8041544 24.319847,30.8160671 24.7131369,30.8334396 C24.8067774,30.8374104 24.8989393,30.8428704 24.9911013,30.847834 C25.3173644,30.8661992 25.635742,30.889528 25.9447555,30.9188131 C26.0073468,30.9247694 26.0714166,30.9292367 26.1330221,30.9351929 C26.4903345,30.9719234 26.8353257,31.0160993 27.1699671,31.0662314 C27.249808,31.078144 27.3261989,31.0915457 27.4045612,31.1044509 C27.661826,31.1456487 27.9126839,31.1908173 28.156642,31.2394603 C28.2473254,31.2573292 28.3389945,31.2751981 28.4281994,31.2940597 C28.7224276,31.3566008 29.0087703,31.4231127 29.2832847,31.4950846 C29.3439046,31.5109681 29.4010746,31.5293333 29.4612016,31.5452168 C31.4444082,32.0877359 32.9081566,32.8491489 33.9441159,33.5604298 C34.6281842,34.0299843 35.5512821,33.5430573 35.5512821,32.709176 C35.5512821,32.1934602 35.2974671,31.7075258 34.8652424,31.4315508 C33.9549585,30.8498194 32.8110662,30.2616353 31.4123733,29.7662701 C31.3931523,29.7593211 31.3744242,29.7518757 31.3552033,29.7454231 C31.0747747,29.6471442 30.7810394,29.5538289 30.4804042,29.4629954 L30.4804042,24.6115935 L31.4946783,24.6115935 C31.946124,24.6115935 32.3123075,24.2427996 32.3123075,23.7881357 C32.3123075,23.0148102 31.6898448,22.3879102 30.9215001,22.3879102 L30.4804042,22.3879102 L30.4804042,17.5365082 C30.7810394,17.4461711 31.0747747,17.3528558 31.3552033,17.2545769 L31.3552033,17.2545769 Z" id="Fill-4" fill="#FFFFFF" fill-rule="nonzero"></path>
            </g>
        </g>
    </g>
</svg>