<?xml version="1.0" encoding="UTF-8"?>
<svg width="80px" height="80px" viewBox="0 0 80 80" version="1.1" xmlns="http://www.w3.org/2000/svg" xmlns:xlink="http://www.w3.org/1999/xlink">
    <title>t copy 5</title>
    <g id="t-copy-5" stroke="none" stroke-width="1" fill="none" fill-rule="evenodd">
        <g id="kibadapp" transform="translate(5.795873, 3.711804)" fill="#FFFFFF" fill-rule="nonzero">
            <path d="M59.1441274,43.3251963 C58.9349348,44.4838425 58.4438285,45.5732056 57.7141274,46.4971963 C57.6231274,46.6131963 57.6241274,46.8461963 57.6611274,47.0071963 C58.0241274,48.5561963 57.8111274,50.0871963 57.5161274,51.6071963 C57.4701274,51.8461963 57.2431274,52.1171963 57.0251274,52.2461963 C55.0491274,53.4121963 53.0841274,54.6021963 51.0521274,55.6641963 C50.3921274,56.0091963 49.5451274,55.9961963 48.7841274,56.1471963 L48.7331274,56.0271963 C48.8731274,55.9401963 49.0101274,55.8481963 49.1531274,55.7651963 C51.4711274,54.4271963 53.7851274,53.0811963 56.1151274,51.7651963 C56.5151274,51.5381963 56.7431274,51.2911963 56.7591274,50.8131963 C56.7901274,49.9181963 56.8771274,49.0251963 56.9221274,48.1301963 C56.9321274,47.9231963 56.8641274,47.7131963 56.8221274,47.4301963 C55.2731274,48.8091963 53.5331274,49.7301963 51.7121274,50.5181963 C48.9271274,51.7241963 45.9871274,52.3721963 43.0051274,52.7881963 C40.5881274,53.1241963 38.1471274,53.4281963 35.7121274,53.4671963 C30.7651274,53.5481963 25.9631274,52.5461963 21.2591274,51.0671963 C19.3441274,50.4671963 17.3831274,49.9761963 15.6371274,48.9261963 C15.3861274,48.7751963 15.1371274,48.6261963 14.8131274,48.4261963 C14.8661274,49.4381963 14.8991274,50.3641963 14.9801274,51.2861963 C14.9921274,51.4281963 15.2031274,51.5861963 15.3591274,51.6771963 C18.7817941,53.5951963 22.2081274,55.506863 25.6381274,57.4121963 C26.3301274,57.7971963 26.3301274,57.7971963 26.0041274,58.6391963 C25.3761274,58.1891963 24.5821274,58.0761963 24.1891274,57.2391963 C23.7271274,56.2541963 22.7581274,55.9891963 21.7261274,55.9041963 C21.3043015,55.8772016 20.8923317,55.764939 20.5151274,55.5741963 C18.4551274,54.4571963 16.4151274,53.3021963 14.3971274,52.1741963 C12.9971274,52.9741963 11.6161274,53.7861963 10.2091274,54.5491963 C9.50412745,54.9311963 8.73212745,54.9301963 7.98312745,54.6421963 C7.14612745,54.3211963 6.28312745,54.0331963 5.49812745,53.6191963 C3.76212745,52.7081963 2.05912745,51.7341963 0.356127447,50.7611963 C0.178127447,50.6611963 -0.00387255283,50.3861963 6.26928646e-05,50.1971963 C6.26928646e-05,50.0551963 0.284127447,49.8621963 0.477127447,49.7971963 C2.46212745,49.0861963 4.44612745,48.3671963 6.45012745,47.7111963 C7.70512745,47.3011963 8.48212745,46.5341963 8.69712745,45.2111963 C8.73712745,44.9691963 8.83712745,44.7361963 8.94712745,44.3761963 L7.52412745,44.8151963 C7.28612745,44.8871963 7.05012745,44.9951963 6.80712745,45.0151963 C6.61512745,45.0321963 6.33512745,45.0041963 6.23912745,44.8821963 C6.14312745,44.7601963 6.16612745,44.4621963 6.25212745,44.3051963 C6.65879411,43.5611963 7.08946078,42.830863 7.54412745,42.1141963 C7.73012745,41.8201963 7.72812745,41.6241963 7.51312745,41.3311963 C6.49979411,39.949863 5.50779411,38.552863 4.53712745,37.1401963 C4.40012745,36.9401963 4.41312745,36.6401963 4.35712745,36.3801963 C4.61812745,36.3411963 4.89812745,36.2201963 5.13812745,36.2751963 C6.83812745,36.6641963 8.52512745,37.0901963 10.2591274,37.5141963 C10.7681274,36.6561963 11.2871274,35.7781963 11.8061274,34.9001963 L11.7341274,34.8111963 C11.0961274,35.1111963 10.4661274,35.4281963 9.81412745,35.6911963 C9.59912745,35.7781963 9.26312745,35.8151963 9.09312745,35.7051963 C8.79312745,35.5051963 8.97112745,35.1991963 9.12012745,34.9541963 C10.9067941,32.0155296 12.6957941,29.076863 14.4871274,26.1381963 C14.5201274,26.0831963 14.5531274,26.0271963 14.6041274,25.9381963 C14.4761274,25.8501963 14.3601274,25.7671963 14.2401274,25.6881963 C13.9061274,25.4701963 13.5741274,25.2481963 13.2401274,25.0361963 C11.7071274,24.0741963 10.8051274,22.7561963 10.4991274,20.9161963 C9.74412745,16.3641963 9.15112745,11.8001963 9.10712745,7.18019631 C9.10322041,6.33243312 9.17011956,5.48582438 9.30712745,4.64919631 C9.48812745,3.51819631 10.0611274,3.11619631 11.1791274,3.38519631 C11.9676104,3.58266795 12.7314036,3.86812599 13.4561274,4.23619631 C16.1891274,5.59719631 18.6761274,7.35819631 21.1651274,9.11019631 C22.3491274,9.94219631 23.5161274,10.7971963 24.7361274,11.6751963 C25.1191274,11.2371963 25.4801274,10.7861963 25.8801274,10.3751963 C27.2581274,8.95619631 28.6351274,7.53519631 30.0471274,6.15019631 C30.4321274,5.77219631 30.9221274,5.48619631 31.4001274,5.22319631 C31.6001274,5.11619631 32.0001274,5.08119631 32.1081274,5.19919631 C32.2551274,5.35319631 32.3081274,5.72419631 32.2281274,5.94319631 C31.9831274,6.64819631 31.6501274,7.32119631 31.3701274,8.01419631 C31.2105524,8.39637636 31.1032519,8.7983328 31.0511274,9.20919631 C31.9211274,8.41419631 32.7811274,7.60919631 33.6641274,6.82719631 C36.3851274,4.42019631 39.1891274,2.12719631 42.4221274,0.417196306 C42.6506759,0.28132141 42.8917912,0.167796292 43.1421274,0.0781963064 C43.3491274,0.0171963064 43.6601274,-0.0498036936 43.7821274,0.0541963064 C43.943021,0.231042058 44.0163862,0.470579562 43.9821274,0.707196306 C43.8191274,1.52119631 43.6141274,2.32719631 43.3821274,3.12519631 C42.8101274,5.12519631 42.2171274,7.11219631 41.6341274,9.10519631 C41.6061274,9.19819631 41.5871274,9.29519631 41.5441274,9.47519631 C41.7891274,9.31519631 41.9721274,9.19419631 42.1571274,9.07519631 C45.1081274,7.17519631 48.2451274,5.66819631 51.6151274,4.66719631 C51.8551274,4.59619631 52.2571274,4.58719631 52.3821274,4.72819631 C52.5391274,4.90419631 52.5821274,5.29619631 52.5061274,5.54119631 C52.3131274,6.15619631 52.0251274,6.74119631 51.7731274,7.34119631 C51.6911274,7.53419631 51.6061274,7.72619631 51.4601274,8.06019631 C51.7601274,7.86919631 51.9261274,7.75419631 52.1011274,7.64919631 C54.2751274,6.33319631 56.4351274,4.99319631 58.6371274,3.72419631 C59.1811274,3.41119631 59.8491274,3.27119631 60.4801274,3.16219631 C61.1351274,3.04919631 61.5961274,3.34619631 61.7861274,3.98219631 C61.9601274,4.56519631 62.1211274,5.18919631 62.0981274,5.78819631 C62.0041274,8.21319631 61.9251274,10.6441963 61.6741274,13.0551963 C61.3861274,15.8151963 60.9241274,18.5551963 60.5331274,21.3061963 C60.3984978,22.3253223 59.8709914,23.2515087 59.0631274,23.8871963 C58.1751274,24.6111963 57.2801274,25.3271963 56.3891274,26.0451963 C56.4012075,26.101443 56.41966,26.1561294 56.4441274,26.2081963 C58.2591274,29.0351963 60.0801274,31.8571963 61.8821274,34.6921963 C62.0161274,34.9031963 62.0101274,35.2031963 62.0691274,35.4621963 C61.7931274,35.5181963 61.4941274,35.6691963 61.2451274,35.6101963 C60.6451274,35.4681963 60.0581274,35.2281963 59.4111274,35.0101963 C59.5111274,35.1921963 59.5901274,35.3461963 59.6771274,35.4961963 C61.1664608,38.0735296 62.6554608,40.6505296 64.1441274,43.2271963 C64.2441274,43.3991963 64.3441274,43.5751963 64.4351274,43.7501963 C64.6061274,44.0611963 64.7911274,44.3891963 64.5171274,44.7191963 C64.2431274,45.0491963 63.8831274,44.9511963 63.5461274,44.8351963 C62.1461274,44.3541963 60.7541274,43.8651963 59.3581274,43.3801963 C59.3121274,43.3611963 59.2621274,43.3551963 59.1441274,43.3251963 Z M55.8241274,25.3471963 C56.8111274,24.5471963 57.7501274,23.8021963 58.6591274,23.0271963 C59.2119076,22.5578363 59.5634203,21.8941861 59.6411274,21.1731963 C60.1601274,16.9831963 60.7231274,12.7961963 61.1641274,8.59719631 C61.3011274,7.28919631 61.1421274,5.94319631 61.0401274,4.62119631 C60.9941274,4.03219631 60.7871274,3.92119631 60.2211274,4.09619631 C59.5741274,4.29619631 58.9071274,4.51019631 58.3361274,4.86019631 C55.8291274,6.39919631 53.3511274,7.98619631 50.8711274,9.56919631 C50.7159514,9.68957591 50.5991966,9.85254608 50.5351274,10.0381963 C49.6791274,12.2171963 48.8351274,14.4001963 47.9871274,16.5821963 C47.9511274,16.6731963 47.9111274,16.7621963 47.8641274,16.8721963 C47.7081274,16.8311963 47.5641274,16.7991963 47.4251274,16.7541963 C47.3001274,16.7141963 47.1811274,16.6601963 47.0421274,16.6061963 C48.1421274,12.8061963 49.9241274,9.30019631 51.5421274,5.62919631 C51.2851274,5.70219631 51.1421274,5.73619631 51.0031274,5.78319631 C48.1721274,6.74119631 45.5251274,8.07319631 42.9551274,9.59519631 C41.6411274,10.3731963 40.8191274,11.3841963 40.5901274,12.8851963 C40.5531274,13.1311963 40.4811274,13.3721963 40.4321274,13.6161963 C40.3261274,14.1511963 40.2251274,14.6871963 40.1171274,15.2491963 L39.2081274,15.0821963 C40.2081274,10.3611963 41.6831274,5.82719631 42.8901274,1.19219631 C36.3661274,5.07919631 30.8401274,10.0431963 26.2301274,16.0751963 L25.4421274,15.5071963 C26.8711274,13.8531963 28.2511274,12.2581963 29.6231274,10.6571963 C29.7561274,10.5011963 29.9231274,10.3071963 29.9311274,10.1221963 C29.9961274,9.05719631 30.3171274,8.06919631 30.7531274,7.10919631 C30.8211274,6.96019631 30.8681274,6.80219631 30.9251274,6.64719631 C28.5781274,8.47819631 26.6681274,10.7031963 24.8321274,12.9801963 C23.4961274,14.6371963 22.6631274,16.5911963 22.0571274,18.6331963 C21.9931274,18.8481963 21.9111274,19.0571963 21.8321274,19.2851963 L21.0211274,19.0071963 C21.6691274,16.5871963 22.6691274,14.3801963 24.1411274,12.3711963 C22.8621274,11.4511963 21.6561274,10.5711963 20.4321274,9.70719631 C18.0461274,8.02519631 15.6491274,6.33919631 13.0241274,5.02519631 C12.3601274,4.69419631 11.6361274,4.48319631 10.9331274,4.23719631 C10.5051274,4.08819631 10.2451274,4.28719631 10.2001274,4.71719631 C10.1151274,5.52619631 10.0001274,6.33919631 10.0001274,7.14919631 C10.0261274,11.4361963 10.5061274,15.6831963 11.2531274,19.8971963 C11.8041274,23.0251963 12.0901274,23.3621963 14.8241274,24.9951963 C14.9811274,25.0881963 15.1421274,25.1761963 15.3041274,25.2611963 C15.8481274,25.5481963 15.8661274,25.7051963 15.5371274,26.2291963 C13.9084608,28.817863 12.2871274,31.4111963 10.6731274,34.0091963 C10.6181274,34.0971963 10.5791274,34.1961963 10.5081274,34.3391963 C12.6031274,33.6051963 14.3081274,32.3291963 16.1411274,31.2161963 C16.3131274,31.4881963 16.4581274,31.7161963 16.6151274,31.9691963 C15.6501274,32.5811963 14.7281274,33.1451963 13.8321274,33.7481963 C13.5445762,33.9362287 13.3007481,34.183808 13.1171274,34.4741963 C11.3481274,37.4261963 9.59912745,40.3911963 7.84512745,43.3531963 C7.76312745,43.4911963 7.68812745,43.6341963 7.59612745,43.8001963 C10.3961274,43.0831963 13.1771274,42.4231963 15.3961274,40.3911963 L15.9281274,41.2251963 C15.2191274,41.6771963 14.5621274,42.0971963 13.9041274,42.5141963 C12.6041274,43.3401963 12.5641274,43.4501963 13.1231274,44.9251963 C13.6951274,46.4371963 14.8291274,47.4311963 16.1841274,48.2191963 C17.7971274,49.1561963 19.5971274,49.5991963 21.3511274,50.1611963 C25.6151274,51.5291963 29.9731274,52.4161963 34.4511274,52.5811963 C38.6211274,52.7341963 42.7071274,52.0661963 46.7591274,51.1591963 C49.7051274,50.4991963 52.4891274,49.4411963 54.9931274,47.7291963 C56.2021274,46.9021963 57.2611274,45.9171963 57.8451274,44.5291963 C58.0331274,44.0851963 58.1331274,43.6031963 58.2701274,43.1481963 L55.5701274,42.3401963 C55.7071274,42.0071963 55.8101274,41.7561963 55.9231274,41.4781963 L63.3691274,43.7081963 C63.3528631,43.6638812 63.3334813,43.6207735 63.3111274,43.5791963 C61.5031274,40.4571963 59.6921274,37.3365296 57.8781274,34.2171963 C57.7723136,34.0492331 57.63058,33.9068164 57.4631274,33.8001963 C56.5751274,33.2151963 55.6781274,32.6451963 54.7571274,32.0521963 C54.8821274,31.8281963 55.0181274,31.5861963 55.1571274,31.3391963 C57.0771274,32.2141963 58.5881274,33.7541963 60.6571274,34.4801963 C60.5831274,34.3281963 60.5571274,34.2651963 60.5261274,34.2111963 C58.8461274,31.6111963 57.1664608,29.013863 55.4871274,26.4191963 C55.0301274,25.7111963 54.6071274,24.9811963 54.1461274,24.2191963 L55.0001274,23.8341963 L55.8241274,25.3471963 Z M1.49512745,50.4251963 C2.38412745,50.9311963 3.15112745,51.4171963 3.96112745,51.8171963 C5.31412745,52.4851963 6.69012745,53.1061963 8.06112745,53.7291963 C8.77812745,54.0541963 9.49812745,53.9821963 10.1701274,53.5991963 C10.8421274,53.2161963 11.4701274,52.7991963 12.1191274,52.3991963 C12.3377935,52.249407 12.5670651,52.115721 12.8051274,51.9991963 C13.7451274,51.5991963 14.0251274,51.1681963 13.9851274,50.1211963 C13.9581274,49.4401963 13.9451274,48.7561963 13.8731274,48.0801963 C13.8449825,47.7942082 13.7337423,47.5227127 13.5531274,47.2991963 C12.8011274,46.4441963 12.2681274,45.4871963 12.0301274,44.3711963 C11.9721274,44.0991963 11.9301274,43.8241963 11.8741274,43.5151963 C11.3251274,43.6701963 10.8081274,43.7871963 10.3151274,43.9701963 C10.1196543,44.05769 9.96533008,44.2170271 9.88412745,44.4151963 C9.58412745,45.2241963 9.33612745,46.0511963 9.05412745,46.8661963 C8.90592782,47.3344513 8.55648064,47.7121329 8.10112745,47.8961963 C6.70612745,48.4711963 5.31512745,49.0581963 3.90912745,49.6061963 C3.16012745,49.9101963 2.38212745,50.1331963 1.49512745,50.4251963 Z M5.88012745,37.3451963 L5.81212745,37.4321963 C6.61212745,38.5601963 7.41912745,39.6871963 8.26412745,40.8731963 L9.77112745,38.3291963 L5.88012745,37.3451963 Z" id="Shape"></path>
            <path d="M16.3291274,67.2351963 C16.6971274,65.4631963 17.0801274,63.7681963 17.3951274,62.0611963 C17.6951274,60.4611963 17.9241274,58.8551963 18.1631274,57.2481963 C18.2061274,56.9591963 18.2761274,56.8001963 18.5981274,56.7751963 C19.7861274,56.6861963 20.9771274,56.4501963 22.1571274,56.5041963 C23.5691274,56.5681963 24.2431274,57.7111963 23.8831274,59.0981963 C23.6021274,60.1821963 22.9131274,60.9231963 21.8961274,61.4321963 C22.5701274,61.9231963 23.0021274,62.5231963 23.0671274,63.3391963 C23.1451726,64.1688428 22.8142066,64.9845042 22.1801274,65.5251963 C20.4961274,67.0251963 18.4771274,67.3961963 16.3291274,67.2351963 Z M19.1811274,64.3251963 C19.9261274,64.2881963 20.5591274,64.1491963 21.0601274,63.6601963 C21.4251274,63.3031963 21.4681274,62.8401963 21.1601274,62.5031963 C20.8011274,62.1031963 20.3161274,62.0031963 19.8071274,62.0231963 C19.7221274,62.0231963 19.6001274,62.2011963 19.5751274,62.3131963 C19.4371274,62.9611963 19.3241274,63.6101963 19.1811274,64.3251963 Z M19.9451274,60.3101963 C20.5161274,60.0991963 20.9801274,59.9691963 21.4001274,59.7531963 C21.5891274,59.6531963 21.8241274,59.3661963 21.8001274,59.2031963 C21.7661274,58.9951963 21.5211274,58.7511963 21.3081274,58.6601963 C21.0081274,58.5311963 20.6491274,58.5281963 20.3081274,58.4691963 C20.1851274,59.0951963 20.0811274,59.6251963 19.9451274,60.3141963 L19.9451274,60.3101963 Z" id="Shape"></path>
            <path d="M7.23312745,59.7501963 C7.80812745,58.8781963 8.39712745,58.0161963 8.95112745,57.1301963 C9.17112745,56.7781963 9.40212745,56.5931963 9.85112745,56.5781963 C10.6281274,56.5511963 11.4031274,56.4251963 12.2661274,56.3321963 C12.1341274,56.5211963 12.0391274,56.6621963 11.9391274,56.7991963 C10.9591274,58.1431963 9.96912745,59.4801963 9.00812745,60.8381963 C8.88185741,61.0382969 8.83946567,61.2800735 8.89012745,61.5111963 C9.34512745,63.1111963 9.83512745,64.6951963 10.3151274,66.2851963 C10.3621274,66.4421963 10.4151274,66.5991963 10.4671274,66.7851963 L7.37812745,66.7851963 C7.17812745,65.4921963 6.98912745,64.2131963 6.79512745,62.9341963 L6.66512745,62.9061963 C6.56170469,63.1327335 6.47546159,63.3667264 6.40712745,63.6061963 C6.19312745,64.5971963 6.00712745,65.5941963 5.79212745,66.5851963 C5.76412745,66.7131963 5.63212745,66.8961963 5.52412745,66.9161963 C4.80912745,67.0451963 4.08812745,67.1361963 3.37712745,67.2381963 C4.02612745,63.6771963 4.66412745,60.1711963 5.31512745,56.5971963 L7.69512745,56.7251963 L7.12412745,59.7251963 L7.23312745,59.7501963 Z" id="Path"></path>
            <path d="M47.7491274,67.1661963 C47.8351274,66.3321963 47.9141274,65.5601963 47.9991274,64.7451963 L46.6511274,64.7451963 C46.4921274,65.2841963 46.3321274,65.8681963 46.1401274,66.4451963 C46.0911274,66.5911963 45.9561274,66.7951963 45.8351274,66.8151963 C45.0871274,66.9391963 44.3351274,67.0151963 43.4971274,67.1211963 C43.8251274,66.0631963 44.1341274,65.0761963 44.4361274,64.0871963 C45.1361274,61.7931963 45.8361274,59.4981963 46.5281274,57.2001963 C46.6101274,56.9251963 46.7221274,56.8001963 47.0281274,56.7761963 C48.2631274,56.6681963 49.4941274,56.5251963 50.7441274,56.3941963 C50.5731274,59.8691963 50.4051274,63.2941963 50.2331274,66.7851963 L47.7491274,67.1661963 Z M48.1391274,63.1891963 C48.2841274,61.5301963 48.4271274,59.9111963 48.5691274,58.2891963 L48.3091274,58.2411963 L47.0001274,63.2521963 L48.1391274,63.1891963 Z" id="Shape"></path>
            <path d="M28.1921274,67.1851963 C28.2811274,66.3401963 28.3631274,65.5661963 28.4541274,64.7131963 C28.0691307,64.6979444 27.6835982,64.7029513 27.2991274,64.7281963 C27.1901274,64.7401963 27.0561274,64.9201963 27.0121274,65.0501963 C26.8491274,65.5361963 26.7321274,66.0371963 26.5681274,66.5231963 C26.5241274,66.6541963 26.3861274,66.8311963 26.2681274,66.8481963 C25.5171274,66.9591963 24.7601274,67.0321963 23.9541274,67.1231963 C24.5481274,65.1951963 25.1251274,63.3311963 25.6971274,61.4661963 C26.1237941,60.0735296 26.5471274,58.678863 26.9671274,57.2821963 C27.0421274,57.0341963 27.1261274,56.8451963 27.4471274,56.8201963 C28.6991274,56.7201963 29.9471274,56.5981963 31.2031274,56.4831963 C31.1031274,58.1831963 30.9911274,59.9081963 30.9031274,61.6301963 C30.8301274,63.1081963 30.7961274,64.5891963 30.7311274,66.0671963 C30.6981274,66.8311963 30.6831274,66.8181963 29.9251274,66.9111963 C29.3601274,66.9821963 28.7941274,67.0891963 28.1921274,67.1851963 Z M28.9821274,58.3461963 L28.7561274,58.3031963 C28.3231274,59.9501963 27.8911274,61.5971963 27.4561274,63.2721963 C27.6201274,63.2811963 27.7341274,63.2941963 27.8481274,63.2931963 C28.5931274,63.2841963 28.6071274,63.2611963 28.6601274,62.5191963 C28.7061274,61.8751963 28.7831274,61.2331963 28.8331274,60.5891963 C28.8881274,59.8421963 28.9321274,59.0941963 28.9821274,58.3461963 L28.9821274,58.3461963 Z" id="Shape"></path>
            <path d="M62.2651274,63.4501963 C62.1121274,64.3431963 61.9361274,65.2501963 61.8081274,66.1741963 C61.7501274,66.5951963 61.6081274,66.8031963 61.1501274,66.8561963 C60.4931274,66.9311963 59.8501274,67.0921963 59.1031274,67.2331963 C59.1601274,66.9331963 59.2031274,66.6821963 59.2551274,66.4331963 C59.8821274,63.3731963 60.5151274,60.3141963 61.1301274,57.2521963 C61.1911274,56.9521963 61.3061274,56.7801963 61.6131274,56.7301963 C62.2511274,56.6241963 62.8831274,56.4481963 63.5251274,56.4041963 C65.1871274,56.2911963 66.1121274,57.1531963 66.2031274,58.8251963 C66.3331274,61.2041963 64.8181274,63.0081963 62.2651274,63.4501963 Z M63.3401274,58.0351963 C63.0841274,59.3811963 62.8571274,60.5751963 62.6271274,61.7831963 C63.7271274,61.5611963 64.4271274,59.4731963 63.9621274,58.6191963 C63.8511274,58.4151963 63.6101274,58.2821963 63.3401274,58.0351963 Z" id="Shape"></path>
            <path d="M51.8921274,67.2111963 C52.5301274,64.0871963 53.2091274,61.0311963 53.7491274,57.9501963 C53.9131274,57.0091963 54.2831274,56.6061963 55.1811274,56.5601963 C55.5931274,56.5391963 56.0011274,56.4221963 56.4121274,56.4131963 C57.8611274,56.3821963 58.5761274,56.9701963 58.8741274,58.3961963 C59.2831274,60.3571963 57.9591274,62.6351963 56.0641274,63.2301963 C55.9703794,63.2622882 55.8744718,63.2876853 55.7771274,63.3061963 C54.9891274,63.4341963 54.9771274,63.4321963 54.8451274,64.2061963 C54.7301274,64.8591963 54.6201274,65.5131963 54.5301274,66.1701963 C54.4781274,66.5521963 54.3701274,66.7831963 53.9091274,66.8291963 C53.2391274,66.8981963 52.5811274,67.0761963 51.8921274,67.2111963 Z M55.3361274,61.8601963 C55.457309,61.8122937 55.5758149,61.7578811 55.6911274,61.6971963 C56.5211274,61.1751963 57.0861274,59.7191963 56.8021274,58.7881963 C56.6961274,58.4431963 56.4741274,58.1881963 56.0431274,58.1471963 C55.8121274,59.3631963 55.5831274,60.5621963 55.3361274,61.8601963 L55.3361274,61.8601963 Z" id="Shape"></path>
            <path d="M43.3431274,56.3411963 C42.8821274,58.7291963 42.4331274,61.0211963 41.9991274,63.3161963 C41.7991274,64.3581963 41.6411274,65.4071963 41.4441274,66.4501963 C41.4191274,66.5781963 41.2911274,66.7631963 41.1811274,66.7871963 C40.4231274,66.9521963 39.6611274,67.1591963 38.8911274,67.2061963 C37.5091274,67.2911963 36.6541274,66.5611963 36.4671274,65.1841963 C36.2291274,63.4221963 36.8231274,61.9541963 38.2601274,60.9091963 C38.7211274,60.5741963 39.3361274,60.4291963 39.9011274,60.2691963 C40.1711274,60.1931963 40.3011274,60.0901963 40.3361274,59.8341963 C40.4681274,58.9821963 40.6281274,58.1341963 40.7271274,57.2771963 C40.7661274,56.9411963 40.8891274,56.8381963 41.2061274,56.7851963 C41.9041274,56.6691963 42.5931274,56.5011963 43.3431274,56.3411963 Z M39.3241274,65.5011963 C39.5351274,64.2661963 39.7411274,63.0561963 39.9591274,61.7801963 C39.832898,61.8325878 39.7097047,61.8920144 39.5901274,61.9581963 C38.7901274,62.4931963 38.2991274,63.8491963 38.5451274,64.7811963 C38.6451274,65.1691963 38.8771274,65.4071963 39.3241274,65.5011963 Z" id="Shape"></path>
            <path d="M11.8241274,67.1841963 C12.1621274,65.4241963 12.5091274,63.6931963 12.8241274,61.9561963 C13.0907941,60.4721963 13.3367941,58.9841963 13.5621274,57.4921963 C13.6121274,57.1591963 13.7131274,56.9921963 14.0541274,56.9451963 C14.6751274,56.8691963 15.2921274,56.7691963 15.9491274,56.6731963 C15.3681274,60.1131963 14.7991274,63.4871963 14.2211274,66.9051963 L11.8241274,67.1841963 Z" id="Path"></path>
            <path d="M31.4091274,60.7021963 C33.0801274,61.3781963 34.3701274,62.6121963 36.1291274,62.9271963 C36.1011274,63.0571963 36.0751274,63.1981963 36.0401274,63.3361963 C36.0051274,63.4741963 35.9651274,63.5851963 35.8961274,63.8121963 C35.4211274,63.6661963 34.9421274,63.5851963 34.5271274,63.3761963 C33.5651274,62.8901963 32.6351274,62.3411963 31.6911274,61.8201963 C31.1881274,61.5431963 31.5951274,61.1071963 31.4091274,60.7021963 Z" id="Path"></path>
            <path d="M43.1541274,60.2571963 C43.1541274,59.5241963 43.3141274,59.0251963 43.9751274,58.7351963 C44.5931274,58.4641963 45.1581274,58.0731963 45.8471274,57.6771963 C45.6471274,58.3631963 45.5991274,58.9771963 44.8861274,59.2851963 C44.2991274,59.5371963 43.7641274,59.9091963 43.1541274,60.2571963 Z" id="Path"></path>
            <path d="M36.0571274,43.8081963 C36.0871274,43.9811963 36.1571274,44.1371963 36.1281274,44.2711963 C35.9511274,45.0941963 36.4281274,45.4231963 37.0831274,45.7411963 C38.9611274,46.6571963 40.8671274,47.4761963 42.9721274,47.6581963 C43.6951274,47.7201963 44.4301274,47.6491963 45.1591274,47.6251963 C45.5591274,47.6121963 45.7281274,47.3631963 45.5371274,47.0251963 C45.1471274,46.3351963 44.7071274,45.6731963 44.2721274,45.0081963 C44.0721274,44.7011963 43.6451274,44.3961963 44.0971274,44.0451963 C44.5251274,43.7111963 44.7581274,44.1691963 44.9551274,44.4451963 C45.4171274,45.0921963 45.9111274,45.7321963 46.2611274,46.4401963 C46.8421274,47.6161963 46.3771274,48.3811963 45.0861274,48.5311963 C45.005254,48.55084 44.9223519,48.5609091 44.8391274,48.5611963 C43.9391274,48.4391963 43.4011274,48.9061963 42.9811274,49.6361963 C42.7591274,50.0231963 42.4591274,50.3661963 42.1811274,50.7201963 C41.9951274,50.9591963 41.8611274,51.3201963 41.4561274,51.2001963 C41.0511274,51.0801963 41.1451274,50.7001963 41.1411274,50.4001963 C41.1331274,49.7001963 41.1411274,49.0001963 41.1411274,48.3891963 C39.7681274,47.8271963 38.3811274,47.4111963 37.1581274,46.7111963 C36.0581274,46.0791963 35.1721274,46.0841963 34.0581274,46.6481963 C32.7921274,47.2891963 31.4051274,47.6951963 30.0581274,48.1771963 C29.7921274,48.2771963 29.6841274,48.3881963 29.6741274,48.6621963 C29.6501274,49.3431963 29.6241274,50.0261963 29.5531274,50.7041963 C29.5351274,50.8811963 29.3781274,51.1401963 29.2351274,51.1801963 C29.0921274,51.2201963 28.8161274,51.0891963 28.7061274,50.9491963 C28.2241274,50.3341963 27.7971274,49.6771963 27.3151274,49.0621963 C27.1727588,48.8968142 26.971493,48.7934906 26.7541274,48.7741963 C24.8701274,48.7191963 24.2801274,47.7201963 25.2431274,46.1041963 C25.6061274,45.4951963 26.0801274,44.9481963 26.5431274,44.4041963 C26.6581274,44.2691963 26.9211274,44.2221963 27.1191274,44.2151963 C27.2021274,44.2151963 27.3661274,44.4241963 27.3621274,44.5331963 C27.3380763,44.7058506 27.2667865,44.8685021 27.1561274,45.0031963 C26.7441274,45.5851963 26.2651274,46.1271963 25.9091274,46.7401963 C25.4561274,47.5201963 25.6511274,47.8401963 26.5521274,47.8661963 C28.0741274,47.9091963 29.5171274,47.4891963 30.9201274,46.9661963 C32.2571274,46.4661963 33.5561274,45.8661963 34.8851274,45.3441963 C35.2661274,45.1951963 35.2621274,44.9441963 35.2461274,44.6341963 C35.2301274,44.3241963 35.3061274,44.0771963 34.9151274,43.8611963 C34.1941274,43.4611963 33.5301274,42.9541963 32.8741274,42.4491963 C32.621884,42.2319116 32.4102607,41.9715303 32.2491274,41.6801963 C31.7761274,40.9071963 31.9171274,40.5241963 32.8001274,40.3071963 C34.5026707,39.882185 36.2835842,39.882185 37.9861274,40.3071963 C38.8521274,40.5221963 39.0011274,40.9291963 38.5221274,41.6941963 C37.9311274,42.6391963 37.0241274,43.2251963 36.0571274,43.8081963 Z" id="Path"></path>
            <path d="M53.5421274,16.4181963 C53.7851274,15.4381963 53.9931274,14.4471963 54.2811274,13.4811963 C54.5641274,12.5321963 54.9301274,11.6081963 55.2651274,10.6561963 C54.6651274,10.5961963 54.1181274,10.8411963 53.6031274,11.1451963 C53.0591274,11.4661963 52.5461274,11.8381963 52.0031274,12.1631963 C51.7003657,12.3471058 51.3636763,12.4681779 51.0131274,12.5191963 C51.0714736,12.4138926 51.1383648,12.3135557 51.2131274,12.2191963 C52.3941274,10.9361963 53.5571274,9.63619631 54.7771274,8.39019631 C55.1371274,8.02219631 55.6351274,7.75819631 56.1121274,7.54319631 C56.7781274,7.24319631 57.0991274,7.42419631 57.3421274,8.11619631 C58.7421274,12.1071963 58.6611274,16.0391963 56.8741274,19.9051963 C56.3661274,21.0051963 55.3871274,21.5051963 54.2551274,21.9901963 C54.8661274,19.7021963 56.1551274,17.6771963 56.0111274,15.2601963 C54.9241274,15.0891963 54.3241274,15.8561963 53.5421274,16.4181963 Z M54.8821274,14.3921963 C55.2741274,14.3651963 55.5031274,14.3461963 55.7321274,14.3351963 C56.6241274,14.2951963 57.0061274,14.6621963 56.9321274,15.5491963 C56.8711274,16.3221963 56.7571274,17.0911963 56.6671274,17.8621963 C57.7671274,14.6831963 57.5821274,11.5331963 56.4391274,8.26219631 L54.6321274,9.64819631 C54.7405958,9.72486186 54.872855,9.76032008 55.0051274,9.74819631 C55.4481274,9.73019631 55.8811274,9.74819631 56.1471274,10.1861963 C56.4131274,10.6241963 56.1791274,10.9861963 56.0051274,11.3921963 C55.6031274,12.3411963 55.2761274,13.3251963 54.8821274,14.3921963 L54.8821274,14.3921963 Z" id="Shape"></path>
            <path d="M19.4241274,12.6031963 C19.1385113,12.4920452 18.8596945,12.3641567 18.5891274,12.2201963 C18.0341274,11.8861963 17.5051274,11.5071963 16.9481274,11.1751963 C16.4201274,10.8611963 15.8641274,10.6001963 15.3111274,10.6481963 L17.0251274,16.3871963 L16.8861274,16.4661963 C16.1861274,15.8871963 15.5861274,15.0891963 14.4861274,15.2661963 C14.3281274,17.6581963 15.6141274,19.6851963 16.2391274,21.9811963 C15.1241274,21.5251963 14.1521274,21.0251963 13.6441274,19.9381963 C11.7881274,15.9721963 11.7631274,11.9461963 13.2381274,7.86519631 C13.3791274,7.47619631 13.6611274,7.35519631 13.9701274,7.45119631 C14.4361274,7.59619631 14.9501274,7.75819631 15.3021274,8.07219631 C16.3021274,8.96719631 17.2491274,9.92719631 18.1831274,10.8941963 C18.6621274,11.3941963 19.0691274,11.9561963 19.5091274,12.4941963 L19.4241274,12.6031963 Z M13.7881274,17.5741963 C13.7431274,17.2351963 13.6931274,16.8971963 13.6551274,16.5571963 C13.6141274,16.1941963 13.5711274,15.8311963 13.5551274,15.4661963 C13.5131274,14.7011963 13.8841274,14.3211963 14.6551274,14.3311963 C14.9291274,14.3311963 15.2021274,14.3551963 15.6381274,14.3761963 C15.2021274,13.2551963 14.8531274,12.2191963 14.3971274,11.2331963 C14.0291274,10.4391963 14.3491274,9.78119631 15.2311274,9.74419631 C15.4221274,9.73619631 15.6141274,9.74419631 15.8061274,9.74419631 L15.8631274,9.64419631 L14.0631274,8.26719631 C12.9521274,11.4251963 12.7371274,14.4821963 13.7921274,17.5741963 L13.7881274,17.5741963 Z" id="Shape"></path>
            <path d="M49.7531274,27.7841963 C49.5881274,30.3401963 49.3171274,32.7281963 48.2081274,34.9291963 C47.6701274,35.9971963 46.9631274,36.9361963 45.9141274,37.5631963 C44.4831274,38.4171963 43.0231274,38.4391963 41.6391274,37.5171963 C40.8611274,36.9991963 40.1941274,36.3171963 39.4101274,35.6511963 L49.7531274,27.7841963 Z M40.8531274,35.6841963 C42.8811274,38.0621963 45.1091274,37.5231963 46.4981274,35.8901963 C47.4981274,34.7191963 47.9981274,33.3231963 48.3291274,31.8511963 C48.4731274,31.2011963 48.5651274,30.5401963 48.6861274,29.8511963 C48.5521274,29.8701963 48.5121274,29.8641963 48.4861274,29.8801963 C47.0961274,30.9331963 45.7031274,31.9801963 44.3251274,33.0501963 C44.2101274,33.1391963 44.1631274,33.3501963 44.1401274,33.5151963 C44.0671274,34.0381963 44.0691274,34.5761963 43.9401274,35.0831963 C43.8851274,35.3001963 43.5781274,35.6001963 43.3861274,35.6001963 C43.1261274,35.6001963 42.8301274,35.3851963 42.6181274,35.1891963 C42.4711274,35.0521963 42.4381274,34.7891963 42.3391274,34.5471963 L40.8531274,35.6841963 Z" id="Shape"></path>
            <path d="M31.7241274,35.5751963 C30.8701274,36.6001963 29.9791274,37.5061963 28.7241274,37.9521963 C27.2331274,38.4841963 25.9061274,38.1071963 24.7241274,37.1401963 C23.7061274,36.3071963 23.0661274,35.2011963 22.5991274,33.9911963 C21.8431274,32.0321963 21.6071274,29.9761963 21.4811274,27.7911963 L31.7241274,35.5751963 Z M22.5241274,29.7141963 C22.6241274,30.3481963 22.6811274,30.8251963 22.7761274,31.2951963 C23.1241274,33.0251963 23.6331274,34.6861963 24.8561274,36.0251963 C26.4901274,37.8151963 28.8921274,37.6721963 30.3701274,35.6771963 L28.8771274,34.5421963 C28.7771274,34.7991963 28.7591274,35.0371963 28.6301274,35.1571963 C28.4151274,35.3571963 28.1301274,35.6031963 27.8761274,35.6001963 C27.6671274,35.6001963 27.4211274,35.2911963 27.2681274,35.0671963 C27.151813,34.8823693 27.1037094,34.6627199 27.1321274,34.4461963 C27.3081274,33.3271963 26.6711274,32.7101963 25.8141274,32.2101963 C25.7038841,32.1357079 25.5980408,32.0549063 25.4971274,31.9681963 L22.5241274,29.7141963 Z" id="Shape"></path>
            <path d="M24.2491274,42.7901963 C22.1081274,44.1811963 20.5801274,46.2901963 18.2941274,47.5481963 C18.2517518,47.4461228 18.2202446,47.3398701 18.2001274,47.2311963 C18.1421274,44.7731963 18.0551274,42.3131963 18.4771274,39.8741963 C18.6391274,38.9391963 18.8601274,38.0201963 19.4141274,37.2211963 C19.4871274,37.1151963 19.5811274,37.0211963 19.6991274,36.8831963 C20.6341274,39.2951963 22.5021274,40.9381963 24.2491274,42.7901963 Z M19.1061274,45.9801963 L22.8351274,42.6661963 C22.2721274,42.0451963 21.7111274,41.4541963 21.1831274,40.8351963 C20.6551274,40.2161963 20.1691274,39.5801963 19.6591274,38.9441963 C19.1871274,40.0821963 18.8841274,43.8251963 19.1061274,45.9801963 Z" id="Shape"></path>
            <path d="M51.5431274,36.8701963 C52.1961274,37.5521963 52.4431274,38.3251963 52.6261274,39.1201963 C53.1811274,41.5921963 53.1621274,44.1021963 53.0821274,46.6151963 C53.0741274,46.8791963 53.0501274,47.1431963 53.0281274,47.4901963 C52.8181274,47.4051963 52.6281274,47.3671963 52.4821274,47.2621963 C51.8661274,46.8101963 51.2431274,46.3621963 50.6641274,45.8681963 C49.4641274,44.8421963 48.2931274,43.7851963 47.1021274,42.7321963 C47.9021274,41.8641963 48.7551274,40.9661963 49.5781274,40.0411963 C50.4011274,39.1161963 51.1241274,38.1311963 51.5431274,36.8701963 Z M52.0861274,45.9181963 L52.2131274,45.8601963 C52.2401274,43.5331963 52.2411274,41.2091963 51.6601274,38.9381963 L48.4601274,42.6931963 L52.0861274,45.9181963 Z" id="Shape"></path>
            <path d="M35.3821274,35.8341963 C35.8881274,36.0541963 36.3641274,36.1651963 36.7211274,36.4341963 C38.0471274,37.4341963 39.3481274,38.4641963 40.6301274,39.5191963 C41.2831274,40.0561963 41.8771274,40.6671963 42.4951274,41.2481963 C42.7401274,41.4781963 43.0511274,41.7301963 42.7321274,42.0791963 C42.4131274,42.4281963 42.1441274,42.1311963 41.8931274,41.9061963 C40.5431274,40.6971963 39.2071274,39.4731963 37.8331274,38.2921963 C37.3071274,37.8401963 36.6951274,37.4921963 36.1221274,37.0921963 C35.6731274,36.7821963 35.2171274,36.7841963 34.7781274,37.0921963 C33.8991274,37.7171963 32.9941274,38.3131963 32.1641274,38.9991963 C31.0491274,39.9201963 29.9961274,40.9141963 28.9161274,41.8771963 C28.8041274,41.9771963 28.7001274,42.1191963 28.5691274,42.1521963 C28.4141274,42.1901963 28.1811274,42.1901963 28.0811274,42.0981963 C27.9811274,42.0061963 27.9741274,41.7791963 27.9741274,41.6121963 C27.9741274,41.5351963 28.0741274,41.4441963 28.1491274,41.3821963 C29.9601274,39.8451963 31.7551274,38.2821963 33.6001274,36.7911963 C34.1131274,36.3781963 34.7791274,36.1511963 35.3821274,35.8341963 Z" id="Path"></path>
            <path d="M42.8541274,28.8551963 C42.4751274,30.0861963 42.0711274,31.3091963 41.2721274,32.3551963 C40.8551274,32.8991963 40.3521274,33.3191963 39.5951274,33.2441963 C38.8951274,33.1741963 38.5831274,32.6851963 38.8951274,32.0571963 C39.0659206,31.6969245 39.3089503,31.3756078 39.6091274,31.1131963 C40.6221274,30.2891963 41.6751274,29.5131963 42.7091274,28.7191963 L42.8541274,28.8551963 Z" id="Path"></path>
            <path d="M28.1111274,28.7571963 C29.1421274,29.5571963 30.1871274,30.3351963 31.1971274,31.1571963 C31.4698222,31.3994552 31.6911837,31.6939237 31.8481274,32.0231963 C32.1721274,32.6511963 31.8891274,33.1391963 31.1861274,33.2281963 C30.7151548,33.3028553 30.2390337,33.1288952 29.9271274,32.7681963 C29.5182497,32.3150185 29.1656892,31.8140468 28.8771274,31.2761963 C28.4951274,30.5161963 28.2241274,29.7011963 27.9051274,28.9101963 L28.1111274,28.7571963 Z" id="Path"></path>
            <path d="M34.8481274,51.6251963 C33.9681274,51.4751963 33.1481274,51.3481963 32.3381274,51.1881963 C32.1089542,51.1454189 31.8955011,51.0418009 31.7201274,50.8881963 C31.5901274,50.7651963 31.4581274,50.4561963 31.5201274,50.3641963 C31.6201274,50.2211963 31.9331274,50.0721963 32.0691274,50.1301963 C33.8831274,50.9051963 35.7421274,50.6841963 37.6041274,50.4251963 C37.8221274,50.3951963 38.0191274,50.2101963 38.2381274,50.1761963 C38.4381274,50.1461963 38.6481274,50.2271963 38.8541274,50.2581963 C38.8191274,50.4581963 38.8541274,50.7431963 38.7331274,50.8581963 C38.5170751,51.0633091 38.246714,51.2021338 37.9541274,51.2581963 C36.9091274,51.4161963 35.8531274,51.5151963 34.8481274,51.6251963 Z" id="Path"></path>
        </g>
    </g>
</svg>