<?xml version="1.0" encoding="utf-8"?>
<!-- Generator: Adobe Illustrator 26.0.3, SVG Export Plug-In . SVG Version: 6.00 Build 0)  -->
<svg version="1.1" id="Layer_1" xmlns="http://www.w3.org/2000/svg" xmlns:xlink="http://www.w3.org/1999/xlink" x="0px" y="0px"
	 viewBox="0 0 80 80" style="enable-background:new 0 0 80 80;" xml:space="preserve">
<style type="text/css">
	.st0{fill:url(#SVGID_1_);}
	.st1{fill:url(#SVGID_00000074430789261022748590000004298922017145592198_);}
	.st2{fill:url(#SVGID_00000023249527938049054030000008779736637938399363_);}
	.st3{fill:url(#SVGID_00000116206611403550738100000009680010133407609244_);}
	.st4{fill:url(#SVGID_00000062165353004664937750000015156301504708588464_);}
</style>
<g>
	<g>
		<linearGradient id="SVGID_1_" gradientUnits="userSpaceOnUse" x1="35.1033" y1="32.4178" x2="44.558" y2="50.326">
			<stop  offset="7.614213e-03" style="stop-color:#0A0A13"/>
			<stop  offset="0.1751" style="stop-color:#9F1D21"/>
			<stop  offset="0.3957" style="stop-color:#D51F23"/>
			<stop  offset="0.5127" style="stop-color:#EC2024"/>
			<stop  offset="0.5695" style="stop-color:#E01F23"/>
			<stop  offset="0.6713" style="stop-color:#C11D20"/>
			<stop  offset="0.8055" style="stop-color:#90191B"/>
			<stop  offset="0.8147" style="stop-color:#8C191B"/>
			<stop  offset="0.9721" style="stop-color:#8C191B"/>
		</linearGradient>
		<path class="st0" d="M40.7,33.7c-14.4,6.2-18.2,7.8-20.5,9.1L39,47c13.3-6.4,17-8.1,19.2-9.4L40.7,33.7z"/>
	</g>
	
		<linearGradient id="SVGID_00000181782469600870489640000000629576473095736460_" gradientUnits="userSpaceOnUse" x1="16.1351" y1="35.4735" x2="51.8193" y2="19.1828">
		<stop  offset="3.807107e-02" style="stop-color:#EC2024"/>
		<stop  offset="0.5178" style="stop-color:#F27421"/>
		<stop  offset="0.692" style="stop-color:#EC9621"/>
		<stop  offset="0.8911" style="stop-color:#E5B720"/>
		<stop  offset="1" style="stop-color:#E3C420"/>
	</linearGradient>
	<path style="fill:url(#SVGID_00000181782469600870489640000000629576473095736460_);" d="M19.8,43.4c0,0,1.7-11.9,13.6-17.5
		S60,14.4,61.4,5.2c0,0,2.2,18.5-17.9,27.2S22.6,41.3,19.8,43.4z"/>
	
		<linearGradient id="SVGID_00000071542518895467840480000004861631623608239257_" gradientUnits="userSpaceOnUse" x1="-4830.8013" y1="6428.2129" x2="-4795.1172" y2="6411.9224" gradientTransform="matrix(-0.9993 3.775112e-02 -3.775112e-02 -0.9993 -4521.396 6648.8384)">
		<stop  offset="3.807107e-02" style="stop-color:#EC2024"/>
		<stop  offset="0.5178" style="stop-color:#F27421"/>
		<stop  offset="0.692" style="stop-color:#EC9621"/>
		<stop  offset="0.8911" style="stop-color:#E5B720"/>
		<stop  offset="1" style="stop-color:#E3C420"/>
	</linearGradient>
	<path style="fill:url(#SVGID_00000071542518895467840480000004861631623608239257_);" d="M59.4,35.1c0,0-1.2,12-13,18
		S20.3,65.6,19.2,74.8c0,0-2.9-18.4,16.9-27.9S56.6,37.3,59.4,35.1z"/>
	
		<linearGradient id="SVGID_00000012431398424539248440000003965370128980414096_" gradientUnits="userSpaceOnUse" x1="56.1715" y1="18.1798" x2="64.3253" y2="18.1798">
		<stop  offset="3.807107e-02" style="stop-color:#EC2024"/>
		<stop  offset="0.5178" style="stop-color:#F27421"/>
		<stop  offset="0.692" style="stop-color:#EC9621"/>
		<stop  offset="0.8911" style="stop-color:#E5B720"/>
		<stop  offset="1" style="stop-color:#E3C420"/>
	</linearGradient>
	<path style="fill:url(#SVGID_00000012431398424539248440000003965370128980414096_);" d="M56.2,26c0,0,4.8-4.5,6.1-9.6
		c1.3-5.2,0.9-6.1,0.9-6.1S68.5,22.6,56.2,26z"/>
	
		<linearGradient id="SVGID_00000032646679627466383540000004952821074205850035_" gradientUnits="userSpaceOnUse" x1="-4927.1841" y1="6631.3022" x2="-4919.0303" y2="6631.3022" gradientTransform="matrix(-1 0 0 -1 -4903.356 6693.8218)">
		<stop  offset="3.807107e-02" style="stop-color:#EC2024"/>
		<stop  offset="0.5178" style="stop-color:#F27421"/>
		<stop  offset="0.692" style="stop-color:#EC9621"/>
		<stop  offset="0.8911" style="stop-color:#E5B720"/>
		<stop  offset="1" style="stop-color:#E3C420"/>
	</linearGradient>
	<path style="fill:url(#SVGID_00000032646679627466383540000004952821074205850035_);" d="M23.8,54.7c0,0-4.8,4.5-6.1,9.6
		c-1.3,5.2-0.9,6.1-0.9,6.1S11.5,58.1,23.8,54.7z"/>
</g>
</svg>
