<svg width="80" height="80" viewBox="0 0 80 80" fill="none" xmlns="http://www.w3.org/2000/svg">
<g filter="url(#filter0_i)">
<path fill-rule="evenodd" clip-rule="evenodd" d="M0 53.9082V39.9998C0 17.9085 17.9085 0 39.9998 0C50.8962 0 60.775 4.35701 67.9891 11.4239L59.4857 16.7374C54.2141 12.3169 47.4178 9.65512 39.9998 9.65512C23.2409 9.65512 9.65512 23.2409 9.65512 39.9998H19.3102L0 53.9082ZM20.3677 63.1385C25.6596 67.6331 32.5133 70.3446 40.0003 70.3446C56.7592 70.3446 70.345 56.7588 70.345 39.9999H60.6899L79.9993 25.8621L80.0001 39.9999C80.0001 62.0912 62.0916 79.9997 40.0003 79.9997C29.0363 79.9997 19.1026 75.5885 11.8771 68.444L20.3677 63.1385ZM55.3446 53.2757H44.3102L40.0003 47.4536L35.6904 53.2757H24.656L34.6525 40.2294L24.6551 26.7242H34.9999L40.0003 33.2501L45.0007 26.7242H55.3455L45.3481 40.2294L55.3446 53.2757Z" fill="#14248A"/>
</g>
<defs>
<filter id="filter0_i" x="0" y="0" width="80.0001" height="79.9997" filterUnits="userSpaceOnUse" color-interpolation-filters="sRGB">
<feFlood flood-opacity="0" result="BackgroundImageFix"/>
<feBlend mode="normal" in="SourceGraphic" in2="BackgroundImageFix" result="shape"/>
<feColorMatrix in="SourceAlpha" type="matrix" values="0 0 0 0 0 0 0 0 0 0 0 0 0 0 0 0 0 0 127 0" result="hardAlpha"/>
<feOffset/>
<feGaussianBlur stdDeviation="0.5"/>
<feComposite in2="hardAlpha" operator="arithmetic" k2="-1" k3="1"/>
<feColorMatrix type="matrix" values="0 0 0 0 0.14902 0 0 0 0 0.196078 0 0 0 0 0.219608 0 0 0 0.25 0"/>
<feBlend mode="normal" in2="shape" result="effect1_innerShadow"/>
</filter>
</defs>
</svg>
