<svg width="32" height="33" viewBox="0 0 32 33" fill="none" xmlns="http://www.w3.org/2000/svg">
<g clip-path="url(#clip0)">
<path d="M6.20269 23.3208C6.62857 23.9594 6.75962 24.96 6.95456 25.3148C7.12588 26.0129 9.14748 25.6855 10.283 25.5968L14.9834 24.0376L17.5378 25.3148C17.928 26.6629 19.081 29.4337 20.5711 29.7317C22.0611 30.0297 23.9946 28.082 24.7751 27.0709C25.325 25.7583 26.5206 23.0053 26.9037 22.4944C27.2869 21.9835 26.9214 19.4256 26.9037 18.8225L26.0444 16.3584C25.6009 15.0635 24.2791 13.5222 23.9386 12.9688C23.5128 12.277 20.3582 12.4899 19.0278 11.9045C17.9635 11.4362 16.5621 9.29692 15.9945 8.28582C14.7351 7.22151 12.0566 5.36961 11.418 6.47649C10.7794 7.58338 11.684 10.1306 12.2162 11.2659L3.22266 1.42101C5.38676 5.27027 10.1096 12.9688 9.76902 12.9688C9.42844 12.9688 8.88977 14.5215 8.7656 15.1956C8.55273 16.118 7.85826 18.8184 6.53851 19.9679C4.88883 21.4047 5.67035 22.5225 6.20269 23.3208Z" fill="black"/>
<path d="M14.9782 14.6996C15.5847 15.7722 14.2282 16.1047 13.5917 16.1659C12.627 16.2601 12.4273 15.7016 12.6158 15C12.6776 14.7488 12.8148 14.5228 13.0088 14.3527C13.2029 14.1825 13.4443 14.0764 13.7004 14.0488C13.9528 14.0256 14.2065 14.0743 14.4325 14.1894C14.6586 14.3045 14.8477 14.4814 14.9782 14.6996V14.6996Z" fill="#CED0D9"/>
<path d="M18.7644 12.715C18.0594 18.1319 27.5636 17.0047 27.3826 21.316C28.3201 20.0917 28.7232 16.7655 25.9633 15.0534C23.5043 13.5268 20.3 14.3621 18.7644 12.715Z" fill="#CED0D9"/>
<path d="M24.2388 10.6722C24.1769 10.6147 24.1131 10.5582 24.0513 10.5017C24.1141 10.5592 24.1769 10.6195 24.2388 10.6722Z" fill="black"/>
<path d="M26.4475 14.6209L26.4419 14.6125C26.3561 14.4524 26.2584 14.299 26.1494 14.1538C25.829 13.7178 25.3694 13.4053 24.8473 13.2686C24.4997 13.1785 24.1443 13.1223 23.7861 13.101C23.4233 13.0746 23.0529 13.0595 22.6789 13.0397C21.9289 12.9983 21.1611 12.9211 20.4112 12.7064C20.2237 12.6527 20.0362 12.5943 19.8552 12.5237C19.7615 12.4898 19.6743 12.453 19.5815 12.4135C19.4887 12.3739 19.394 12.3287 19.3002 12.2807C18.9476 12.0866 18.6209 11.8484 18.3281 11.5716C17.7506 11.0319 17.2969 10.4198 16.8422 9.8265C16.4136 9.23092 15.9535 8.65877 15.4641 8.11252C14.9812 7.57738 14.4104 7.12951 13.7767 6.78842C13.1204 6.45638 12.4076 6.25189 11.6758 6.18571C12.435 6.1029 13.203 6.19699 13.9201 6.4607C14.6437 6.7429 15.3053 7.16492 15.8672 7.70286C16.2342 8.04853 16.5786 8.41751 16.8984 8.80753C19.2796 8.33666 21.2108 8.75479 22.6948 9.56658L22.7286 9.58353C23.2009 9.84088 23.6436 10.1498 24.0486 10.5046C24.1132 10.5611 24.177 10.6176 24.236 10.675C24.5521 10.9668 24.8464 11.2815 25.1163 11.6168L25.137 11.6441C26.0135 12.7591 26.4466 13.9184 26.4475 14.6209Z" fill="#CED0D9"/>
<path d="M26.4464 14.6199L26.4409 14.6087L26.4464 14.6199Z" fill="black"/>
<path d="M11.7967 6.88345C12.4042 6.97198 13.0239 7.21495 13.4232 7.67829C13.8226 8.14163 13.9698 8.74435 14.0851 9.31787C14.1788 9.76238 14.2529 10.2154 14.4273 10.6363C14.5117 10.8416 14.6354 11.0215 14.7385 11.2155C14.8238 11.3765 14.9794 11.5216 15.0394 11.6939C15.0502 11.7186 15.0542 11.7458 15.051 11.7726C15.0479 11.7994 15.0378 11.8249 15.0216 11.8465C14.8098 12.0819 14.2379 11.8201 14.0223 11.7146C13.6495 11.529 13.3157 11.2733 13.0389 10.9612C12.1736 9.99593 11.7264 8.60685 11.7536 7.34208C11.7596 7.18853 11.774 7.03542 11.7967 6.88345Z" fill="#CED0D9"/>
<path d="M21.9569 17.7686C20.6444 21.448 26.5974 23.9164 24.3671 27.657C26.6555 26.7077 27.742 23.8401 26.7924 21.5648C25.9618 19.5674 23.5056 18.8394 21.9569 17.7686Z" fill="#CED0D9"/>
<path d="M14.0835 22.5803C14.4412 22.3095 14.8322 22.0863 15.2469 21.9164C15.6665 21.7477 16.1017 21.6215 16.5462 21.5397C17.4284 21.3711 18.3012 21.3296 19.0343 21.033C19.3965 20.8909 19.7298 20.6835 20.0177 20.4209C20.2964 20.1608 20.5097 19.838 20.6402 19.4791C20.7739 19.1004 20.8281 18.698 20.7995 18.2972C20.7664 17.8667 20.6694 17.4436 20.5117 17.0419C20.8385 17.3833 21.0765 17.8004 21.2045 18.2562C21.3325 18.7121 21.3467 19.1926 21.2458 19.6552C21.1311 20.145 20.8835 20.5932 20.5305 20.9501C20.1811 21.2959 19.7597 21.5596 19.2968 21.7224C18.855 21.878 18.3943 21.9731 17.9271 22.0049C17.4771 22.0426 17.0422 22.0529 16.6147 22.0783C15.7504 22.1148 14.8967 22.284 14.0835 22.5803V22.5803Z" fill="#CED0D9"/>
<path d="M22.4806 29.0481C22.3484 29.1536 22.2162 29.2656 22.0709 29.3636C21.9247 29.4604 21.7715 29.546 21.6125 29.6197C21.2815 29.7819 20.9176 29.8648 20.5494 29.8618C19.5519 29.8429 18.847 29.0971 18.4345 28.2542C18.1532 27.6797 17.9592 27.0591 17.6254 26.512C17.1483 25.7294 16.3317 25.0993 15.3755 25.2161C14.9855 25.2651 14.6199 25.4412 14.4033 25.7812C13.8334 26.6692 14.6518 27.9133 15.6952 27.7372C15.7839 27.7236 15.8708 27.6996 15.9539 27.6656C16.0368 27.6302 16.1141 27.5829 16.1836 27.5253C16.3293 27.4034 16.4392 27.2438 16.5014 27.0638C16.5699 26.8761 16.5852 26.673 16.5455 26.4771C16.5027 26.2724 16.3823 26.0924 16.2098 25.9752C16.4104 26.0695 16.5666 26.2383 16.6458 26.446C16.7278 26.6598 16.7489 26.8924 16.7067 27.1175C16.6657 27.3521 16.5628 27.5713 16.4086 27.7522C16.3267 27.8453 16.232 27.9262 16.1273 27.9924C16.0236 28.0578 15.9126 28.1106 15.7964 28.1497C15.5609 28.2305 15.3103 28.2566 15.0633 28.226C14.7166 28.1763 14.3895 28.0339 14.1165 27.8135C13.794 27.5573 13.554 27.222 13.2624 26.9339C12.9282 26.5816 12.5339 26.2923 12.0981 26.0797C11.7976 25.9471 11.4831 25.8492 11.1606 25.7878C10.9984 25.7539 10.8344 25.7294 10.6703 25.7087C10.5953 25.7011 10.2278 25.6192 10.1763 25.6672C10.6833 25.1983 11.2361 24.7818 11.8262 24.4241C12.4321 24.0629 13.0827 23.7833 13.7612 23.5925C14.4646 23.3936 15.2004 23.337 15.9258 23.4259C16.2992 23.4709 16.6649 23.5659 17.0133 23.7084C17.3782 23.8548 17.7151 24.0639 18.0088 24.3262C18.2996 24.6013 18.5345 24.9304 18.7007 25.2952C18.8507 25.6368 18.9627 25.994 19.0344 26.3603C19.2482 27.4556 19.1694 29.1536 20.5972 29.4041C20.6716 29.4186 20.7467 29.4293 20.8222 29.4361L21.0556 29.4417C21.2161 29.4303 21.3756 29.4073 21.5328 29.373C21.8585 29.296 22.176 29.1872 22.4806 29.0481V29.0481Z" fill="#CED0D9"/>
<path d="M14.1844 27.8545L14.147 27.8251L14.1844 27.8545Z" fill="black"/>
<path d="M12.9029 12.3965C12.8509 12.5972 12.7602 12.7857 12.6357 12.9512C12.4042 13.2531 12.0977 13.4885 11.747 13.634C11.4316 13.7705 11.0976 13.8587 10.7561 13.8958C10.6821 13.9052 10.6052 13.9108 10.5311 13.9165C10.3149 13.9247 10.1069 14.0023 9.93769 14.1379C9.76849 14.2735 9.64694 14.4599 9.59084 14.6699C9.56515 14.7743 9.54605 14.8804 9.53365 14.9872C9.49991 15.2641 9.49428 15.5523 9.46428 15.9007C9.39082 16.4937 9.22008 17.0703 8.95898 17.6072C8.61962 18.3248 8.23901 18.903 8.32713 19.7299C8.38525 20.2667 8.65899 20.6264 9.02273 20.9975C9.67896 21.6718 11.148 21.9731 10.8199 23.6344C10.6221 24.626 8.98523 25.6667 6.68468 26.0302C6.91342 25.9953 6.39124 25.111 6.35843 25.0545C6.11188 24.6665 5.84189 24.3011 5.64596 23.8802C5.26159 23.0637 5.08347 22.1191 5.24097 21.2244C5.4069 20.2827 6.10063 19.5613 6.67718 18.8418C7.36341 17.9858 8.08338 16.8641 8.24275 15.7529C8.28025 15.4835 8.3065 15.1464 8.3665 14.8111C8.4237 14.4397 8.53953 14.0798 8.70961 13.7451C8.82571 13.5255 8.97856 13.3277 9.16147 13.1603C9.25684 13.0713 9.31976 12.9529 9.34016 12.8238C9.36055 12.6947 9.33725 12.5625 9.27397 12.4483L5.60658 5.82215L10.8742 12.3522C10.9342 12.4279 11.0101 12.4894 11.0963 12.5323C11.1826 12.5752 11.2773 12.5986 11.3735 12.6006C11.4698 12.6027 11.5654 12.5835 11.6534 12.5443C11.7414 12.5051 11.8198 12.4469 11.883 12.3739C11.9497 12.2957 11.9875 12.1968 11.9901 12.0939C11.9926 11.9909 11.9598 11.8903 11.897 11.8088C11.553 11.3672 11.1892 10.917 10.8367 10.4744L9.51116 8.82633L6.85061 5.53586L3.22266 0.962891L7.19185 5.2411L10.024 8.38653L11.4367 9.96302C11.9055 10.4932 12.3742 11.0065 12.8429 11.564L12.9198 11.6582L12.9367 11.8041C12.9595 12.0021 12.9481 12.2025 12.9029 12.3965Z" fill="#CED0D9"/>
<path d="M14.1174 27.8092C13.8629 27.6116 13.6364 27.38 13.4443 27.1208C13.6504 27.3676 13.8755 27.5978 14.1174 27.8092V27.8092Z" fill="black"/>
</g>
<defs>
<clipPath id="clip0">
<rect y="0.962891" width="32" height="32" fill="white"/>
</clipPath>
</defs>
</svg>
