<?xml version="1.0" encoding="utf-8"?>
<!-- Generator: Adobe Illustrator 19.2.0, SVG Export Plug-In . SVG Version: 6.00 Build 0)  -->
<svg version="1.1" id="Capa_1" xmlns="http://www.w3.org/2000/svg" xmlns:xlink="http://www.w3.org/1999/xlink" x="0px" y="0px"
	 viewBox="0 0 15 15" style="enable-background:new 0 0 15 15;" xml:space="preserve">
<style type="text/css">
	.st0{fill:url(#SVGID_1_);}
	.st1{fill:url(#SVGID_2_);}
	.st2{fill:url(#SVGID_3_);}
</style>
<linearGradient id="SVGID_1_" gradientUnits="userSpaceOnUse" x1="-4062.376" y1="-649.0055" x2="-4049.0752" y2="-649.0055" gradientTransform="matrix(-0.6863 0.7273 -0.7273 -0.6863 -3248.488 2511.9375)">
	<stop  offset="0" style="stop-color:#CBEDCD"/>
	<stop  offset="6.587010e-02" style="stop-color:#D9EAC5"/>
	<stop  offset="0.1206" style="stop-color:#E9DAC7"/>
	<stop  offset="0.1892" style="stop-color:#EECBCC"/>
	<stop  offset="0.2863" style="stop-color:#D5C8EB"/>
	<stop  offset="0.3736" style="stop-color:#C9D8EA"/>
	<stop  offset="0.4299" style="stop-color:#C5DCEA"/>
	<stop  offset="0.5133" style="stop-color:#CBEFD1"/>
	<stop  offset="0.6069" style="stop-color:#EECBCC"/>
	<stop  offset="0.6876" style="stop-color:#E9C5DE"/>
	<stop  offset="0.7902" style="stop-color:#D5C5ED"/>
	<stop  offset="0.8342" style="stop-color:#CCD2EB"/>
	<stop  offset="0.875" style="stop-color:#C5DCEA"/>
	<stop  offset="0.9159" style="stop-color:#CBEFD1"/>
	<stop  offset="0.9876" style="stop-color:#E9C5DE"/>
</linearGradient>
<circle class="st0" cx="7" cy="7.6" r="6.7"/>
<g>
	<linearGradient id="SVGID_2_" gradientUnits="userSpaceOnUse" x1="5.942936e-02" y1="7.5" x2="13.9406" y2="7.5">
		<stop  offset="0.2024" style="stop-color:#4900A8"/>
		<stop  offset="0.2582" style="stop-color:#4902A9"/>
		<stop  offset="0.2783" style="stop-color:#4709AA"/>
		<stop  offset="0.2927" style="stop-color:#4414AE"/>
		<stop  offset="0.3043" style="stop-color:#3F25B3"/>
		<stop  offset="0.3142" style="stop-color:#393BB9"/>
		<stop  offset="0.323" style="stop-color:#3257C1"/>
		<stop  offset="0.3309" style="stop-color:#2A77CA"/>
		<stop  offset="0.3383" style="stop-color:#209DD5"/>
		<stop  offset="0.3448" style="stop-color:#15C6E1"/>
		<stop  offset="0.3481" style="stop-color:#0FDEE8"/>
		<stop  offset="0.365" style="stop-color:#0FDBE6"/>
		<stop  offset="0.375" style="stop-color:#10D3DE"/>
		<stop  offset="0.3833" style="stop-color:#10C5D0"/>
		<stop  offset="0.3906" style="stop-color:#12B1BE"/>
		<stop  offset="0.3972" style="stop-color:#1397A5"/>
		<stop  offset="0.4034" style="stop-color:#157687"/>
		<stop  offset="0.4092" style="stop-color:#175063"/>
		<stop  offset="0.4146" style="stop-color:#19253B"/>
		<stop  offset="0.4156" style="stop-color:#1A1C32"/>
		<stop  offset="0.6173" style="stop-color:#1C1C32"/>
		<stop  offset="0.6899" style="stop-color:#231A34"/>
		<stop  offset="0.7417" style="stop-color:#2E1836"/>
		<stop  offset="0.7836" style="stop-color:#3F153A"/>
		<stop  offset="0.8194" style="stop-color:#55113F"/>
		<stop  offset="0.8512" style="stop-color:#710C45"/>
		<stop  offset="0.8792" style="stop-color:#90064C"/>
		<stop  offset="0.9034" style="stop-color:#B20053"/>
		<stop  offset="0.9838" style="stop-color:#ED2ED0"/>
		<stop  offset="1" style="stop-color:#FF83FF"/>
	</linearGradient>
	<path class="st1" d="M11.8,2.4C9-0.2,4.6-0.1,1.9,2.7c-2.6,2.8-2.5,7.2,0.3,9.8c1.3,1.2,3,1.9,4.8,1.9c1.9,0,3.7-0.8,5.1-2.2
		C14.7,9.5,14.6,5.1,11.8,2.4z M1.9,11.3L1.9,11.3c0-0.4,0-1.8,0.3-2.8C2.3,8.2,2.4,8,2.5,7.7h0.9C3.3,7.9,3.2,8.1,3.1,8.2L3,8.4
		L6.6,12L5,13.5l0,0c-0.9-0.3-1.7-0.8-2.4-1.4C2.4,11.9,2.1,11.6,1.9,11.3z M8.7,7L8.7,7L8.7,7C8.7,7,8.7,7,8.7,7l0,1.2
		c0,0.1,0,0.1,0.1,0.1h1c0,0,0,0,0,0c0,0,0,0,0.1,0L10.2,8c0,0,0.1,0,0.1,0v2.6l-0.8,0h0c0,0-0.2,0-0.3-0.1
		c-0.1-0.1-0.1-0.1-0.1-0.2l0-0.5c0-0.1,0-0.6-0.2-0.8C8.8,8.7,8.5,8.4,8.5,8.2l0,0c0,0-0.3-0.3-0.3-0.7c0-0.2,0.1-0.5,0.3-0.8
		C8.7,6.5,9,6.4,9.3,6.4l0.1,0l0-0.3l-0.1,0c-0.4,0-0.8,0.1-1.1,0.4C7.9,6.8,7.9,7.2,7.8,7.4H4.2c0.4-0.5,0.9-0.9,1.5-1.2
		c0.8-0.5,1.7-0.6,2-0.6c0.1,0,0.2,0,0.2,0h1.5V5.3c0-0.1,0-0.5,0.4-0.9l0.1-0.1c0.2-0.1,0.4-0.2,0.5-0.2V7L8.7,7z M10.3,7.1v0.7
		c-0.1,0-0.1,0-0.2,0.1L9.8,8.1l-0.9,0v-1H10.3z M9,5.2H7.9c-0.1,0-1.4,0-2.4,0.7c-0.7,0.4-1.3,1-1.7,1.5H2.8c0.4-0.7,1-1.3,1.9-1.9
		c1.4-1,2.9-1,2.9-1h1.7C9.1,4.7,9,5,9,5.2z M5.4,13.6L7.1,12L3.5,8.3c0.1-0.2,0.3-0.4,0.4-0.6h2.6C6.3,7.9,6.2,8.2,6.2,8.5
		c0,0.5,0.3,0.9,0.3,0.9l2.6,2.7l-2,1.7l0,0.1c0,0,0,0,0,0C6.6,13.9,6,13.8,5.4,13.6z M11.6,11.9c-1.1,1.1-2.4,1.8-4,2l2-1.7
		L6.8,9.2c0,0-0.2-0.3-0.3-0.7c0-0.4,0.3-0.7,0.5-0.8l0.8,0c0.1,0.4,0.3,0.7,0.3,0.7c0,0,0.3,0.4,0.5,0.6c0.1,0.1,0.1,0.3,0.1,0.6
		l0,0.5c0,0.2,0.1,0.4,0.2,0.5c0.2,0.2,0.5,0.2,0.6,0.2l1.2,0V6.8l1.6-1.5l-0.1-0.1c0,0-0.7-0.7-1.5-0.2V3.8l-0.2,0c0,0-0.6,0-1,0.3
		h-6v0.3h2.4c-0.5,0.2-1,0.4-1.4,0.7C3.5,5.9,2.8,6.6,2.3,7.4H1v0.3h1.2C2,7.9,1.9,8.2,1.9,8.4c-0.3,0.8-0.3,1.8-0.3,2.4
		C1,9.9,0.7,8.8,0.6,7.7c0-1.7,0.6-3.3,1.7-4.5c1.2-1.2,2.7-1.9,4.4-2c0.1,0,0.1,0,0.2,0c1.6,0,3.2,0.6,4.4,1.7
		c1.2,1.2,1.9,2.7,2,4.4C13.4,9,12.8,10.6,11.6,11.9z M10.7,6.4v-1c0.5-0.4,0.9-0.2,1.1-0.1L10.7,6.4z"/>
	<linearGradient id="SVGID_3_" gradientUnits="userSpaceOnUse" x1="9.0558" y1="7.607" x2="10.1708" y2="7.607">
		<stop  offset="0.2024" style="stop-color:#4900A8"/>
		<stop  offset="0.2582" style="stop-color:#4902A9"/>
		<stop  offset="0.2783" style="stop-color:#4709AA"/>
		<stop  offset="0.2927" style="stop-color:#4414AE"/>
		<stop  offset="0.3043" style="stop-color:#3F25B3"/>
		<stop  offset="0.3142" style="stop-color:#393BB9"/>
		<stop  offset="0.323" style="stop-color:#3257C1"/>
		<stop  offset="0.3309" style="stop-color:#2A77CA"/>
		<stop  offset="0.3383" style="stop-color:#209DD5"/>
		<stop  offset="0.3448" style="stop-color:#15C6E1"/>
		<stop  offset="0.3481" style="stop-color:#0FDEE8"/>
		<stop  offset="0.365" style="stop-color:#0FDBE6"/>
		<stop  offset="0.375" style="stop-color:#10D3DE"/>
		<stop  offset="0.3833" style="stop-color:#10C5D0"/>
		<stop  offset="0.3906" style="stop-color:#12B1BE"/>
		<stop  offset="0.3972" style="stop-color:#1397A5"/>
		<stop  offset="0.4034" style="stop-color:#157687"/>
		<stop  offset="0.4092" style="stop-color:#175063"/>
		<stop  offset="0.4146" style="stop-color:#19253B"/>
		<stop  offset="0.4156" style="stop-color:#1A1C32"/>
		<stop  offset="0.6173" style="stop-color:#1C1C32"/>
		<stop  offset="0.6899" style="stop-color:#231A34"/>
		<stop  offset="0.7417" style="stop-color:#2E1836"/>
		<stop  offset="0.7836" style="stop-color:#3F153A"/>
		<stop  offset="0.8194" style="stop-color:#55113F"/>
		<stop  offset="0.8512" style="stop-color:#710C45"/>
		<stop  offset="0.8792" style="stop-color:#90064C"/>
		<stop  offset="0.9034" style="stop-color:#B20053"/>
		<stop  offset="0.9838" style="stop-color:#ED2ED0"/>
		<stop  offset="1" style="stop-color:#FF83FF"/>
	</linearGradient>
	<path class="st2" d="M9.1,8l0.6,0c0,0,0,0,0,0l0.4-0.3c0,0,0,0,0,0l0-0.3c0,0,0-0.1-0.1-0.1l-1,0c0,0-0.1,0-0.1,0.1L9.1,8
		C9.1,8,9.1,8,9.1,8z"/>
</g>
</svg>
