<?xml version="1.0" encoding="utf-8"?>
<!-- Generator: Adobe Illustrator 24.0.1, SVG Export Plug-In . SVG Version: 6.00 Build 0)  -->
<svg version="1.1" id="Слой_1" xmlns="http://www.w3.org/2000/svg" xmlns:xlink="http://www.w3.org/1999/xlink" x="0px" y="0px"
	 viewBox="0 0 33 32" style="enable-background:new 0 0 33 32;" xml:space="preserve">
<style type="text/css">
	.st0{fill-rule:evenodd;clip-rule:evenodd;}
</style>
<path d="M18.1,17.6c-0.2-0.4-0.6-0.9-1-1.3c-0.1,0.1-0.2,0.4-0.2,0.5c-0.1,0.4,0.1,0.4,0.5,0.5C17.6,17.3,17.8,17.4,18.1,17.6z"/>
<path class="st0" d="M18.2,0.1C11.9,0.7,6.8,5.5,5.8,11.7c0.4,0,0.7-0.1,0.8-0.1l0,0C6.6,11,6.8,9.9,7.5,9.2c2-4.5,6.4-7.6,11.6-7.6
	c7,0,12.7,5.7,12.7,12.8c0,5.3-3.2,9.8-7.7,11.8c3.4-2.1,5.7-6,5.7-10.4c0-6.7-5.4-12.2-12.1-12.2c-4.3,0-8,2.2-10.1,5.6
	C7.8,9,8.1,8.9,8.4,8.9c-0.1,1.1,0.7,1.4,1.4,0.8c0.3-0.6,0.7-1.2,1.3-1.6c0.7-0.4,1.6-0.5,2.3-0.5c0.6,0,1.2,0.2,1.7,0.4
	c-0.1-0.4-0.7-0.9-0.8-0.9c1.5-0.8,4,0.2,4.3,1.9c0.1-0.8,0-1.6,0-1.6c1.5,0.6,1.6,2.7,1.5,3.4L22.1,9l-1.9,4.3
	c0.1,0.1,0.1,0.3,0.2,0.5l0.1,0.1c0.1,0.3,0.2,0.5,0.3,0.8c0.1,0.2,0.2,0.4,0.3,0.7c0,0.2-0.1,0.5-0.2,0.9c-0.1,0.4-0.2,0.8-0.2,1
	c0.1,0.4,0.1,0.8,0.2,1.2c0.1,0.6,0.3,1.2,0.5,1.6c0.1,0.2,0.1,0.4,0.2,0.5c0.6,0.5,0.6,1.4,0.6,1.8v0c0,0.7-1,1.4-1.4,1.7
	c-0.1,0-0.1,0.1-0.2,0.1c-0.3,0.2-0.6,0.3-0.8,0.4c-0.2,0.1-0.4,0.1-0.6,0.1c-0.6,0-2.1-0.9-2.3-1.2c-0.1-0.1-0.2-0.6-0.3-1.1
	c-0.1-0.4-0.2-0.8-0.3-1.1c-0.2-0.5-0.4-0.6-0.6-0.8c-0.3-0.2-0.6-0.4-1.1-1.1c-0.2,0.4-0.7,1.6-1,3.2c-0.1,0.5-0.1,1.3-0.1,2.3
	c0,0.5,0,1-0.1,1.5c1.9,0.9,3.9,1.5,6.1,1.5c5.6,0,10.4-3.4,12.6-8.2c-1.7,7-7.9,12.2-15.4,12.2C8,32,0.9,24.8,0.9,16S8,0,16.7,0
	C17.2,0,17.7,0,18.2,0.1z M5.7,12.4c0,0.4-0.1,0.9-0.1,1.3c0.3-0.1,0.7-0.1,1-0.1l-0.1,0c-0.3,0.1-0.6,0.2-0.9,0.3c0,0,0,0.1,0,0.1
	c0,1.2,0.1,2.3,0.4,3.4c0-0.1,0-0.2,0-0.4l0,0c0-0.1,0.2-1.1,1.1-2.4c0,0.1,0,0.3-0.1,0.4c-0.1,0.5-0.2,1,0,1.6c0-0.5,0.3-2,1.3-2.5
	c-0.3,0.5-0.5,2-0.2,2.4c0-0.8,0.5-1.6,1.2-2.1c0.5-0.4,3-1.8,3-1.8c0,0-0.5,2.1,0.6,2.3c-0.2-0.5,0.1-1.4,0.6-2
	c0.2-0.2,0.5-0.4,0.7-0.5c0,0,0-0.1,0-0.1c-0.1-0.5-0.1-1.1,0.1-1.5c0.2,0.2,0.6,0.4,1,0.5c0.4,0.1,0.8,0.3,1.2,0.5
	c0.3,0.2,0.5,0.6,0.7,1l0.2,0.3l0.1,0.2c0,0,0-0.1,0-0.1l0,0l1.6-1.6c0.4-0.7,0.5-2.5-0.3-3.3c0,0.5,0,2.7-0.8,3.1c0.6-1.4,0-4-3-4
	c0.5,0.4,0.9,1.1,1.1,1.5C16.7,9,16.8,9.3,17,9.5c0,0-0.1-0.1-0.1-0.1c-0.3-0.3-1.2-1.2-3.3-1.2c-0.7,0-1.4,0.1-2,0.4
	c1-0.3,2.1,0.3,3,0.9c-0.1,0-0.3-0.1-0.4-0.2c-0.6-0.2-1.3-0.6-2.3-0.4c-0.5,0.1-0.8,0.4-1.2,0.8c-0.2,0.2-0.4,0.4-0.7,0.6
	c-0.6,0.3-1.4,0.3-1.7-0.3C8.1,9.9,8,9.7,8,9.5c-0.2,0.2-0.3,0.4-0.4,0.6c-0.3,0.4-0.4,1-0.3,1.5c0.3,0,0.6,0,0.9,0
	c0.3,0,0.6,0.1,0.9,0c0.4-0.1,0.9-0.2,1.2-0.4c0.1-0.1,0.3-0.2,0.4-0.3c-0.1,0.1-0.1,0.2-0.2,0.3c-0.3,0.4-0.7,0.6-1.2,0.7
	c-0.4,0.1-0.8,0.1-1.2,0c-0.3,0-0.7-0.1-1,0c-0.2,0-0.4,0.1-0.6,0.2C6.3,12.2,6,12.3,5.7,12.4z M20.1,11.5l1-1l-1.8,3.7l0,0
	c-0.2,0.1-0.5,0-0.8-0.2c-0.2-0.2-0.4-0.4-0.3-0.6l0.4-0.4c0,0.1,0.1,0.2,0.2,0.3c0.2,0.2,0.4,0.3,0.7,0.2c-0.1,0-0.2,0-0.2-0.1
	c-0.3-0.1-0.4-0.4-0.5-0.6l0.6-0.6c0.1,0.2,0.3,0.4,0.6,0.3c-0.2,0-0.4-0.3-0.5-0.5l0.4-0.5c0.1,0.1,0.2,0.1,0.3,0.1
	C20.2,11.7,20.1,11.6,20.1,11.5z M16.8,17.3c-0.2-0.2-0.2-0.4-0.2-0.7c0-0.2,0.1-0.5,0.3-0.7c-0.2-0.2-0.5-0.3-0.8-0.3
	c0.7-0.2,1.2,0.1,1.7,0.6c0.3,0.3,0.7,1.1,0.8,1.4c0.1,0.3,0.7,0.1,0.7,0.1c-0.1,0.2-0.4,0.4-0.7,0.4c-0.2,0-0.2-0.1-0.3-0.2
	c0,0,0-0.1,0-0.1c-0.3-0.1-0.6-0.2-0.9-0.3C17.1,17.5,16.9,17.4,16.8,17.3z M20.5,22.2L20.5,22.2c-0.1-0.6-0.2-1-0.5-1
	c0,0,0.1-0.2,0.3-0.1C20.6,21.3,20.5,21.8,20.5,22.2L20.5,22.2L20.5,22.2z M20.7,22.3c0.1-0.5-0.1-1.6-0.6-1.6
	c-0.3,0-0.5,0.1-0.6,0.2l-0.1,0.1c0-0.1,0-0.1,0-0.2c0-0.5-0.2-0.9-0.4-1.4c-0.1-0.2-0.1-0.3-0.2-0.5c0.4,0.4,0.7,0.9,0.9,1.4
	c0.1-0.1,0.3-0.1,0.5,0.1C21,20.8,21,21.9,20.7,22.3z M19.6,23.4c-0.6-0.2-1.8-0.7-1.8-1c0-0.2,0-0.5,0.2-0.6
	c0.1,0.3,0.4,0.5,0.8,0.7c0,0-0.5-0.5-0.5-0.9c0,0,0.1,0,0.1,0c0.2,0,0.3,0.3,0.4,0.6C18.9,22.6,19.2,23.1,19.6,23.4z M17.9,18
	c-0.4,0.2-1,0.1-1.3-0.1c-0.4-0.2-0.6-0.7-0.6-1.1c0.1,0.1,0.1,0.2,0.1,0.3c0.1,0.3,0.3,0.5,0.6,0.7c0.2,0.1,0.6,0.2,0.9,0.2
	C17.7,18,17.8,18,17.9,18z M9.5,21.5c0,0.3,0,0.5,0,0.7c-0.3-0.4-0.4-0.9-0.3-1.4c0.2-2.7,2.4-4.5,2.5-4.6c-1.4,1.9-1.9,3.4-2.1,4.4
	C9.5,20.8,9.5,21.2,9.5,21.5z"/>
<path d="M26.2,15.8c0,4.6-2.6,8.7-6.3,10.7c4.8-1.1,8.3-5.4,8.3-10.5c0-4.7-3-8.7-7.1-10.2C24.2,8,26.2,11.7,26.2,15.8z"/>
<path d="M23.1,15.6c0,0-0.1-0.9-0.4-1.2c-0.3-0.3-1.2-0.4-1.2-0.4s0.8-0.1,1.2-0.4c0.3-0.3,0.4-1.2,0.4-1.2s0.1,0.9,0.4,1.2
	c0.3,0.3,1.2,0.4,1.2,0.4s-0.8,0.1-1.2,0.4C23.1,14.7,23.1,15.6,23.1,15.6z"/>
<path d="M14.8,24.7c0.3,0.3,0.3,0.9,0.3,0.9s0-0.6,0.3-0.9c0.3-0.3,0.9-0.3,0.9-0.3s-0.6,0-0.9-0.3s-0.3-0.9-0.3-0.9s0,0.6-0.3,0.9
	c-0.3,0.3-0.9,0.3-0.9,0.3S14.6,24.4,14.8,24.7z"/>
<path d="M24.2,18c0,0,0-0.4-0.2-0.6c-0.2-0.2-0.6-0.2-0.6-0.2s0.4,0,0.6-0.2c0.2-0.2,0.2-0.6,0.2-0.6s0,0.4,0.2,0.6
	c0.2,0.2,0.6,0.2,0.6,0.2s-0.4,0-0.6,0.2C24.3,17.6,24.2,18,24.2,18z"/>
</svg>
