<svg xmlns="http://www.w3.org/2000/svg" width="80" height="34" viewBox="0 0 80 34">
    <g fill="none" fill-rule="evenodd">
        <g fill-rule="nonzero">
            <g>
                <g>
                    <path fill="#78D5FF" d="M78.565 33.17c.396 0 .734-.138 1.015-.414.28-.276.42-.608.42-.997V19.89c0-1.167-.23-2.27-.693-3.308-.461-1.037-1.088-1.945-1.88-2.724-.79-.778-1.714-1.394-2.77-1.848-1.055-.454-2.176-.68-3.363-.68-1.484 0-2.86.34-4.13 1.02-1.27.682-2.3 1.622-3.092 2.822-.824-1.2-1.871-2.14-3.141-2.821s-2.647-1.022-4.13-1.022c-1.188 0-2.309.227-3.364.681-1.055.454-1.979 1.07-2.77 1.848-.792.779-1.418 1.687-1.88 2.724-.462 1.038-.692 2.14-.692 3.308V31.76c0 .39.148.721.445.997.297.276.643.414 1.039.414.395 0 .733-.138 1.014-.414.28-.276.42-.608.42-.997V19.89c0-.778.157-1.516.47-2.213.313-.697.725-1.305 1.237-1.824.51-.519 1.12-.924 1.83-1.216.709-.292 1.46-.438 2.25-.438.792 0 1.542.146 2.251.438.71.292 1.328.697 1.855 1.216.528.519.94 1.127 1.237 1.824.297.697.445 1.435.445 2.213V31.76c0 .39.148.721.445.997.297.276.643.414 1.039.414.396 0 .734-.138 1.014-.414.28-.276.42-.608.42-.997V19.89c0-.778.157-1.516.47-2.213.314-.697.726-1.305 1.237-1.824.511-.519 1.121-.924 1.83-1.216.71-.292 1.46-.438 2.251-.438.791 0 1.542.146 2.25.438.71.292 1.328.697 1.856 1.216.527.519.94 1.127 1.236 1.824.297.697.446 1.435.446 2.213V31.76c0 .39.148.721.445.997.297.276.643.414 1.038.414z" transform="translate(-27 -16) translate(27 16)"/>
                    <path fill="#08A1E7" d="M49.62 33.17c.394 0 .73-.138 1.01-.414.28-.276.419-.608.419-.997V19.89c0-1.167-.23-2.27-.69-3.308-.46-1.037-1.084-1.945-1.873-2.724-.788-.778-1.708-1.394-2.76-1.848-1.051-.454-2.168-.68-3.351-.68-1.478 0-2.85.34-4.115 1.02-1.265.682-2.292 1.622-3.08 2.822-.822-1.2-1.865-2.14-3.13-2.821s-2.636-1.022-4.115-1.022c-1.183 0-2.3.227-3.351.681-1.051.454-1.971 1.07-2.76 1.848-.788.779-1.413 1.687-1.873 2.724-.46 1.038-.69 2.14-.69 3.308V31.76c0 .39.148.721.444.997.296.276.64.414 1.035.414.394 0 .731-.138 1.01-.414.28-.276.42-.608.42-.997V19.89c0-.778.155-1.516.467-2.213.312-.697.723-1.305 1.232-1.824.51-.519 1.117-.924 1.824-1.216.706-.292 1.454-.438 2.242-.438.789 0 1.536.146 2.243.438.706.292 1.322.697 1.848 1.216.525.519.936 1.127 1.232 1.824.295.697.443 1.435.443 2.213V31.76c0 .39.148.721.444.997.295.276.64.414 1.035.414.394 0 .73-.138 1.01-.414.28-.276.419-.608.419-.997V19.89c0-.778.156-1.516.468-2.213.312-.697.723-1.305 1.232-1.824.51-.519 1.117-.924 1.824-1.216.706-.292 1.453-.438 2.242-.438.789 0 1.536.146 2.242.438.707.292 1.323.697 1.848 1.216.526.519.937 1.127 1.233 1.824.295.697.443 1.435.443 2.213V31.76c0 .39.148.721.444.997.295.276.64.414 1.035.414z" transform="translate(-27 -16) translate(27 16)"/>
                    <path fill="#1183B7" d="M20.673 0c.393 0 .729.137 1.007.412.278.275.417.606.417.994V22.73l-.007.412c-.047 1.363-.331 2.64-.852 3.83-.573 1.308-1.367 2.463-2.381 3.465-1.015 1.002-2.194 1.785-3.536 2.35-1.342.566-2.766.849-4.272.849-1.539 0-2.971-.283-4.297-.848-1.326-.566-2.496-1.35-3.511-2.351-1.015-1.002-1.809-2.157-2.382-3.466C.286 25.664 0 24.25 0 22.732c0-1.487.286-2.892.86-4.217.572-1.325 1.366-2.488 2.381-3.49 1.015-1.002 2.185-1.785 3.511-2.35 1.326-.566 2.758-.849 4.297-.849 1.833 0 3.568.436 5.205 1.309 1.146.614 2.128 1.373 2.946 2.278V1.406l.009-.163c.034-.319.17-.596.409-.831.278-.275.63-.412 1.055-.412zm-9.447 14.482c-1.113 0-2.17.21-3.168.632-.999.42-1.867.995-2.603 1.723-.737.728-1.318 1.586-1.744 2.573-.426.987-.639 2.03-.639 3.131 0 1.133.213 2.185.639 3.156.426.97 1.007 1.82 1.744 2.549.736.728 1.604 1.302 2.603 1.723.999.42 2.055.631 3.168.631s2.17-.21 3.168-.631c.999-.42 1.867-.995 2.603-1.723.737-.729 1.318-1.578 1.744-2.55.426-.97.639-2.022.639-3.155 0-1.1-.213-2.144-.639-3.131-.426-.987-1.007-1.845-1.744-2.573-.736-.728-1.604-1.303-2.603-1.723-.999-.421-2.055-.632-3.168-.632z" transform="translate(-27 -16) translate(27 16)"/>
                </g>
            </g>
        </g>
    </g>
</svg>
