<svg width="490" height="490" viewBox="0 0 490 490" fill="none" xmlns="http://www.w3.org/2000/svg">
<g clip-path="url(#clip0_7383_35741)">
<circle cx="245" cy="245" r="245" fill="url(#paint0_linear_7383_35741)"/>
<path d="M315.83 297.85L385.12 257.84C388.79 255.72 391.06 251.78 391.06 247.54V167.53C391.06 163.3 388.78 159.35 385.12 157.23L315.83 117.22C312.16 115.1 307.61 115.11 303.94 117.22L234.65 157.23C230.98 159.35 228.71 163.3 228.71 167.53V310.52L180.12 338.57L131.53 310.52V254.41L180.12 226.36L212.17 244.86V207.22L186.06 192.15C184.26 191.11 182.2 190.56 180.11 190.56C178.02 190.56 175.96 191.11 174.17 192.15L104.88 232.16C101.21 234.28 98.9404 238.22 98.9404 242.46V322.47C98.9404 326.7 101.22 330.65 104.88 332.77L174.17 372.78C177.83 374.89 182.39 374.89 186.06 372.78L255.35 332.78C259.02 330.66 261.29 326.71 261.29 322.48V179.49L262.17 178.99L309.88 151.44L358.47 179.49V235.6L309.88 263.65L277.88 245.17V282.81L303.94 297.86C307.61 299.97 312.16 299.97 315.83 297.86V297.85Z" fill="white"/>
</g>
<defs>
<linearGradient id="paint0_linear_7383_35741" x1="-175" y1="4.36391e-07" x2="416" y2="367" gradientUnits="userSpaceOnUse">
<stop stop-color="#A229C5"/>
<stop offset="1" stop-color="#7B3FE4"/>
</linearGradient>
<clipPath id="clip0_7383_35741">
<rect width="490" height="490" fill="white"/>
</clipPath>
</defs>
</svg>
