<svg width="18" height="24" viewBox="0 0 18 24" fill="none" xmlns="http://www.w3.org/2000/svg">
<path d="M11.8637 8H5.33482C5.02695 8 4.77734 8.30517 4.77734 8.68159V23.3184C4.77734 23.5565 4.87899 23.7774 5.04553 23.901C5.21195 24.0246 5.41919 24.0331 5.592 23.9231L8.59926 22.0112L11.6065 23.9231C11.6873 23.9744 11.7755 23.9999 11.8637 23.9999C11.9641 23.9999 12.0643 23.9668 12.153 23.901C12.3195 23.7773 12.4212 23.5565 12.4212 23.3183V8.68159C12.4212 8.30517 12.1716 8 11.8637 8Z" fill="#31CB9E"/>
<ellipse cx="8.59931" cy="9" rx="8.59931" ry="9" fill="#5E5E5E"/>
<ellipse cx="8.60006" cy="9" rx="5.73288" ry="6" fill="#373737"/>
</svg>
