<svg width="12" height="12" viewBox="0 0 12 12" fill="none" xmlns="http://www.w3.org/2000/svg">
<path d="M10.7902 2.69344L6.45286 0.189201C6.1694 0.0254746 5.81732 0.0254746 5.53399 0.189201L1.1965 2.69344C0.913037 2.85703 0.737061 3.16196 0.737061 3.48915V8.49776C0.737061 8.82495 0.913037 9.12988 1.1965 9.29334L5.53413 11.7978C5.67586 11.8795 5.83458 11.9205 5.99343 11.9205C6.15228 11.9205 6.31113 11.8795 6.45273 11.7977L10.7902 9.29347C11.0736 9.13001 11.2497 8.82495 11.2497 8.49776V3.48915C11.2497 3.16183 11.0736 2.8569 10.7902 2.69344ZM4.69231 7.3713C4.69231 7.5478 4.57521 7.70297 4.40556 7.75131C4.3696 7.76158 4.33325 7.76645 4.29716 7.76645C4.16293 7.76645 4.03477 7.69783 3.9614 7.57968L2.98168 6.00142V7.3713C2.98168 7.58956 2.80478 7.76645 2.58652 7.76645C2.36827 7.76645 2.19137 7.58956 2.19137 7.3713V4.61548C2.19137 4.43897 2.30847 4.28381 2.47812 4.23547C2.6483 4.18739 2.82928 4.2572 2.92227 4.4071L3.902 5.98535V4.61548C3.902 4.39722 4.0789 4.22032 4.29716 4.22032C4.51541 4.22032 4.69231 4.39722 4.69231 4.61548V7.3713ZM6.72526 5.59823C6.94352 5.59823 7.12041 5.77513 7.12041 5.99339C7.12041 6.21165 6.94352 6.38854 6.72526 6.38854H6.02438V7.3713C6.02438 7.58956 5.84748 7.76645 5.62923 7.76645C5.41097 7.76645 5.23407 7.58956 5.23407 7.3713V4.61548C5.23407 4.39722 5.41097 4.22032 5.62923 4.22032H6.72526C6.94352 4.22032 7.12041 4.39722 7.12041 4.61548C7.12041 4.83374 6.94352 5.01063 6.72526 5.01063H6.02438V5.59823H6.72526ZM9.40007 5.01063H9.01216V7.3713C9.01216 7.58956 8.83526 7.76645 8.617 7.76645C8.39875 7.76645 8.22185 7.58956 8.22185 7.3713V5.01063H7.83394C7.61568 5.01063 7.43878 4.83374 7.43878 4.61548C7.43878 4.39722 7.61568 4.22032 7.83394 4.22032H9.4002C9.61846 4.22032 9.79536 4.39722 9.79536 4.61548C9.79536 4.83374 9.61833 5.01063 9.40007 5.01063Z" fill="#A9A9A9"/>
</svg>
