<svg width="20" height="18" viewBox="0 0 20 18" fill="none" xmlns="http://www.w3.org/2000/svg">
<path d="M2.47 18.0002H17.53C19.07 18.0002 20.03 16.3302 19.26 15.0002L11.73 1.99018C10.96 0.660176 9.04 0.660176 8.27 1.99018L0.739999 15.0002C-0.0300008 16.3302 0.929999 18.0002 2.47 18.0002V18.0002ZM10 11.0002C9.45 11.0002 9 10.5502 9 10.0002V8.00018C9 7.45018 9.45 7.00018 10 7.00018C10.55 7.00018 11 7.45018 11 8.00018V10.0002C11 10.5502 10.55 11.0002 10 11.0002ZM11 15.0002H9V13.0002H11V15.0002Z" fill="#FF9901"/>
</svg>
