<?xml version="1.0" encoding="UTF-8"?>
<svg width="301px" height="266px" viewBox="0 0 301 266" version="1.1" xmlns="http://www.w3.org/2000/svg" xmlns:xlink="http://www.w3.org/1999/xlink">
    <title>Group 8</title>
    <defs>
        <filter x="-20.5%" y="-29.2%" width="141.1%" height="158.3%" filterUnits="objectBoundingBox" id="filter-1">
            <feGaussianBlur stdDeviation="14.56" in="SourceGraphic"></feGaussianBlur>
        </filter>
        <linearGradient x1="100%" y1="32.0252359%" x2="31.7787057%" y2="73.2266552%" id="linearGradient-2">
            <stop stop-color="#430728" offset="0%"></stop>
            <stop stop-color="#3D0200" stop-opacity="0" offset="100%"></stop>
        </linearGradient>
    </defs>
    <g id="Final-Copy" stroke="none" stroke-width="1" fill="none" fill-rule="evenodd">
        <g id="Final_Desktop" transform="translate(-1090.000000, -517.000000)">
            <g id="Group-8" transform="translate(1134.000000, 561.000000)">
                <path d="M106.05,195.3 C153.021818,195.3 191.1,157.405076 191.1,110.659318 C191.1,63.9135606 21,63.9135606 21,110.659318 C21,157.405076 59.078182,195.3 106.05,195.3 Z" id="Oval" fill="#FF505F" fill-rule="nonzero" opacity="0.600000024"></path>
                <path d="M106.05,195.3 C153.021818,195.3 191.1,157.405076 191.1,110.659318 C191.1,63.9135606 21,63.9135606 21,110.659318 C21,157.405076 59.078182,195.3 106.05,195.3 Z" id="Oval" fill="#FF0320" fill-rule="nonzero" opacity="0.600000024"></path>
                <path d="M106.4,149.8 C165.163097,149.8 212.8,102.375943 212.8,43.8754042 C212.8,-14.6251347 0,-14.6251347 0,43.8754042 C0,102.375943 47.6369026,149.8 106.4,149.8 Z" id="Oval" fill="#FFFFFF" fill-rule="nonzero" opacity="0.229999989" filter="url(#filter-1)" transform="translate(106.400000, 74.900000) scale(1, -1) translate(-106.400000, -74.900000) "></path>
                <path d="M106.05,147 C153.021818,147 191.1,109.105076 191.1,62.3593183 C191.1,15.6135606 21,15.6135606 21,62.3593183 C21,109.105076 59.078182,147 106.05,147 Z" id="Oval" fill="#FFFFFF" fill-rule="nonzero" transform="translate(106.050000, 87.150000) scale(1, -1) translate(-106.050000, -87.150000) "></path>
                <g id="Group-4" transform="translate(141.200445, 113.737150) rotate(21.000000) translate(-141.200445, -113.737150) translate(74.200445, 24.237150)">
                    <g id="Rhombus" transform="translate(66.904572, 70.895927) scale(-1, 1) rotate(-324.000000) translate(-66.904572, -70.895927) translate(26.904572, 12.395927)">
                        <polygon id="Path-2" fill="#FF4E65" points="21.4302569 58.3043874 39.1816067 0.0602225116 79.0315503 58.3043874"></polygon>
                        <polygon id="Path-2" fill="#FFFFFF" transform="translate(19.590803, 29.152194) scale(-1, 1) translate(-19.590803, -29.152194) " points="16.8481818 58.2441649 7.09405867e-11 0.0602225116 39.1816067 58.2441649"></polygon>
                        <polygon id="Path-2" fill="#D0001A" transform="translate(50.230904, 86.985057) scale(1, -1) translate(-50.230904, -86.985057) " points="21.4302569 116.107139 39.1816067 57.8629745 79.0315503 116.107139"></polygon>
                        <polygon id="Path-2" fill="#FF697B" transform="translate(19.590803, 86.954946) scale(-1, -1) translate(-19.590803, -86.954946) " points="16.8481818 116.107139 7.2202772e-11 57.802752 39.1816067 116.107139"></polygon>
                    </g>
                    <polygon id="Path-3" fill="url(#linearGradient-2)" opacity="0.300000012" transform="translate(54.960549, 124.221684) rotate(-37.000000) translate(-54.960549, -124.221684) " points="58.024133 87.6005708 95.8212207 144.919289 79.6121832 160.842796 14.0998776 133.810905"></polygon>
                </g>
            </g>
        </g>
    </g>
</svg>