<svg xmlns="http://www.w3.org/2000/svg" xmlns:xlink="http://www.w3.org/1999/xlink" width="845" height="483" viewBox="0 0 845 483">
    <defs>
        <path id="6lpkhitdhe" d="M0 0.106L48.953 0.106 48.953 51.047 0 51.047z"/>
        <path id="1sv6s08zfg" d="M0 0L41.346 0 41.346 41.346 0 41.346z"/>
        <path id="hlflf0fkji" d="M20.65.046C9.246.046 0 9.093 0 20.256c0 11.16 9.246 20.21 20.65 20.21 11.404 0 20.649-9.05 20.649-20.21 0-11.163-9.245-20.21-20.65-20.21z"/>
        <path id="8mah7j9adl" d="M0 0.143L41.183 0.143 41.183 41.325 0 41.325z"/>
        <path id="eqor3yvv5n" d="M0 0L41.178 0 41.178 41.204 0 41.204z"/>
        <path id="3ivh2umtdp" d="M0 0L41.346 0 41.346 41.346 0 41.346z"/>
        <path id="rhn3lj1b8r" d="M0 0.143L41.191 0.143 41.191 40.466 0 40.466z"/>
        <linearGradient id="ebbw4cyn2a" x1="100%" x2="0%" y1="50%" y2="50%">
            <stop offset="0%" stop-color="#27B9DC" stop-opacity=".349"/>
            <stop offset="91.211%" stop-color="#1183B7" stop-opacity="0"/>
        </linearGradient>
        <linearGradient id="71owzblirb" x1="50%" x2="50%" y1="100%" y2="0%">
            <stop offset=".12%" stop-color="#1C005C"/>
            <stop offset="99.756%" stop-color="#090020"/>
        </linearGradient>
        <linearGradient id="m8p9yt1k6c" x1="93.5%" x2="13.5%" y1="93.5%" y2="13.5%">
            <stop offset="15.938%" stop-color="#003CDA"/>
            <stop offset="100%" stop-color="#33DFCC"/>
        </linearGradient>
        <linearGradient id="nr5mt66l0d" x1="100%" x2="0%" y1="0%" y2="100%">
            <stop offset="0%" stop-color="#C148A3"/>
            <stop offset="100%" stop-color="#00BBC6"/>
        </linearGradient>
        <linearGradient id="8wgnkuqwhj" x1="50%" x2="50%" y1="100%" y2="0%">
            <stop offset="0%" stop-color="#FFC838"/>
            <stop offset="100%" stop-color="#FFA800"/>
        </linearGradient>
        <filter id="db6gljtx4t" width="136.5%" height="185.4%" x="-18.2%" y="-42.7%" filterUnits="objectBoundingBox">
            <feOffset dx="2" dy="3" in="SourceAlpha" result="shadowOffsetOuter1"/>
            <feGaussianBlur in="shadowOffsetOuter1" result="shadowBlurOuter1" stdDeviation="3"/>
            <feColorMatrix in="shadowBlurOuter1" result="shadowMatrixOuter1" values="0 0 0 0 0 0 0 0 0 0 0 0 0 0 0 0 0 0 0.231670673 0"/>
            <feMerge>
                <feMergeNode in="shadowMatrixOuter1"/>
                <feMergeNode in="SourceGraphic"/>
            </feMerge>
        </filter>
    </defs>
    <g fill="none" fill-rule="evenodd">
        <g>
            <g transform="translate(-303 -2587) translate(250 2587)">
                <circle cx="470" cy="242" r="220" fill="#1183B7" opacity=".022"/>
                <circle cx="470" cy="242" r="69" fill="#1183B7" opacity=".1"/>
                <circle cx="470" cy="242" r="98" fill="#1183B7" opacity=".1"/>
                <circle cx="470" cy="242" r="146" fill="#1183B7" opacity=".062"/>
                <path fill="url(#ebbw4cyn2a)" d="M76.112 0c24.376 69.029 145.044 233.373 269.484 225.34v-34.507l54.4 54.4-54.4 54.4.004-30.59C238.287 312.72 74.577 338.887 0 244.682L76.112 0z"/>
                <g fill-rule="nonzero" transform="translate(236 194)">
                    <circle cx="21" cy="21.208" r="20.79" fill="#FFF"/>
                    <g fill="#0065E3">
                        <path d="M18.876 0h4.114c.069.105.179.083.28.092.299.01.597.038.893.086.848.191 1.708.322 2.541.585.747.208 1.481.459 2.2.751.753.338 1.51.665 2.235 1.076.977.557 1.916 1.178 2.81 1.86.966.747 1.86 1.58 2.673 2.491.564.618 1.087 1.272 1.566 1.957.6.871 1.138 1.782 1.612 2.726.306.6.574 1.219.804 1.852.224.58.418 1.17.58 1.769.105.421.217.841.318 1.263.273 1.005.43 2.038.468 3.08.009 1.444.121 2.896-.155 4.33-.07.361-.092.73-.18 1.086-.18.728-.383 1.45-.582 2.174-.24.828-.543 1.636-.908 2.418-.163.365-.377.708-.538 1.074-.362.784-.798 1.53-1.302 2.23-.557.807-1.172 1.571-1.84 2.289-1.272 1.382-2.72 2.591-4.306 3.597-.687.431-1.412.791-2.136 1.155-.888.437-1.81.8-2.758 1.087-.568.177-1.147.326-1.725.471-.77.19-1.551.33-2.339.42-1.205.085-2.415.105-3.622.058-.335.011-.67-.017-.997-.083-.714-.168-1.442-.252-2.159-.406-.934-.199-1.855-.462-2.754-.786-.664-.239-1.313-.52-1.942-.84-.809-.405-1.593-.856-2.348-1.351-1.085-.713-2.095-1.533-3.014-2.449-.683-.668-1.327-1.376-1.929-2.118-.477-.608-.923-1.24-1.337-1.893-.494-.789-.93-1.612-1.302-2.465-.288-.599-.53-1.219-.728-1.854-.235-.703-.431-1.419-.588-2.144-.186-.823-.316-1.658-.39-2.499-.002-.094.004-.192-.091-.253v-3.857c.064-.047.098-.123.09-.202.062-.816.196-1.626.4-2.418.224-1.033.535-2.045.93-3.024.363-.948.797-1.867 1.3-2.748.618-1.079 1.327-2.103 2.118-3.06.703-.833 1.464-1.616 2.276-2.342.611-.544 1.257-1.048 1.934-1.507.433-.3.87-.6 1.33-.857.667-.378 1.354-.722 2.057-1.03.606-.273 1.226-.515 1.857-.724.701-.241 1.416-.44 2.141-.598.56-.105 1.116-.233 1.677-.336.255-.047.535.046.766-.133zm1.899 7.97c-1.074-.012-2.13.273-3.052.825-1.14.632-2.067 1.586-2.666 2.744-.365.678-.595 1.42-.677 2.186-.138 1.064-.007 2.146.381 3.146.509 1.227 1.358 2.284 2.448 3.044.33.234.66.475.98.727.314.246.656.456.99.676.063.04.158.072.16-.065.035-.459.046-.919.034-1.378.004-.433-.214-.837-.578-1.071-.444-.27-.856-.589-1.23-.95-1.512-1.522-1.83-3.864-.777-5.734.447-.803 1.13-1.45 1.958-1.85.72-.383 1.525-.575 2.34-.557.595.046 1.177.195 1.72.442.748.32 1.4.827 1.895 1.472.48.616.794 1.345.912 2.117.093.8.04 1.612-.155 2.394-.02.096-.052.198-.162.204-.123.023-.246-.042-.297-.157-.06-.16-.116-.321-.16-.486-.136-.52-.276-1.038-.397-1.561-.01-.1-.062-.19-.144-.248-.082-.058-.185-.077-.282-.052-.447.07-.884.192-1.301.365-.084.031-.144.098-.103.177.074.209.132.423.173.641.152.444.29.895.4 1.348.17.696.399 1.374.585 2.064.129.477.266.952.396 1.428.027.099.056.13.176.108.317-.07.628-.166.93-.284.746-.267 1.49-.544 2.234-.817.713-.26 1.43-.51 2.158-.723.07-.01.132-.05.17-.11.039-.059.05-.132.03-.2-.081-.463-.239-.909-.467-1.32-.099-.143-.192-.18-.34-.1-.508.273-1.09.335-1.614.567-.093.04-.228.107-.313.008-.085-.098-.03-.23.01-.343.168-.511.27-1.042.303-1.58.095-1.059-.074-2.126-.492-3.105-.481-1.166-1.291-2.168-2.332-2.882-1.131-.769-2.477-1.158-3.844-1.11zm-3.76 18.504c.043.228.086.436.123.645.048.208.08.418.098.63.03.41.084.817.163 1.22.018.122.084.242.21.208.385-.103.783-.067 1.17-.14.308-.06.352-.137.352-.46-.048-.86-.146-1.717-.292-2.567-.106-.94-.26-1.874-.386-2.811-.021-.158-.103-.212-.241-.194-.254.027-.507.066-.757.119-.78.181-1.576.269-2.356.469-.782.208-1.576.366-2.379.473-.065 0-.127.029-.168.08-.041.05-.057.117-.043.18.027.419.089.833.184 1.24.073.332.215.377.55.264.533-.149 1.076-.259 1.624-.33.284-.052.339.036.23.308-.103.253-.234.494-.321.751-.165.449-.296.91-.391 1.378-.063.281-.087.57-.072.859.03.3.09.605.137.906.097.503.253.992.465 1.458.206.458.466.89.776 1.285.346.467.762.878 1.234 1.217.612.48 1.31.838 2.057 1.055.497.153 1.008.254 1.526.3.812-.006 1.618-.127 2.396-.359.853-.23 1.635-.671 2.274-1.282.604-.54 1.109-1.183 1.49-1.898.393-.71.653-1.487.765-2.291.117-.894.037-1.802-.235-2.661-.166-.538-.402-1.051-.703-1.527-.389-.582-.856-1.107-1.387-1.563-.603-.516-1.243-.987-1.917-1.407-.176-.113-.243-.072-.242.132.027.428.022.857-.015 1.283-.047.443.184.87.58 1.072.555.381 1.036.86 1.418 1.415.453.679.697 1.475.702 2.29.013.427-.022.854-.102 1.273-.139.643-.42 1.248-.822 1.769-.453.634-1.064 1.139-1.772 1.464-.408.174-.832.303-1.267.387-.75.147-1.527.096-2.252-.148-.759-.248-1.44-.69-1.974-1.283-.667-.702-1.098-1.595-1.233-2.554-.136-.837.042-1.695.5-2.409.065-.118.173-.207.302-.246zm5.038-4.92v-.923l.01-5.371c0-.626-.013-1.251-.013-1.877 0-.362-.117-.421-.506-.43-.117.007-.233.006-.35-.002-.251-.037-.493.076-.756.045-.22-.026-.227.188-.223.355.026.88-.012 1.76.029 2.643.02.46-.02.933-.023 1.4-.01 1.85-.004 3.7-.004 5.55-.001 2.237-.003 4.473-.007 6.709 0 .223.07.336.307.333.385-.004.77.002 1.154.011.244.006.349-.083.345-.348-.013-.916-.005-1.832-.002-2.749.008-1.781-.027-3.564.039-5.345z"/>
                    </g>
                </g>
                <g fill-rule="nonzero" transform="translate(53 256)">
                    <circle cx="21" cy="21" r="21" fill="url(#71owzblirb)"/>
                    <path fill="#00D1FF" d="M13.915 15.888c-.175-.21-.435-.33-.708-.326H7.462c-.046.002-.09-.016-.124-.048-.03-.027-.047-.065-.048-.105v-3.83c.001-.04.019-.078.048-.105.033-.032.078-.05.124-.048h6.071c1.531 0 2.983.68 3.963 1.857l1.474 1.781L16.1 18.53l-2.184-2.642zm10.608-2.624c.991-1.17 2.45-1.843 3.983-1.838h6.05c.043-.006.086.008.116.038.03.03.044.073.038.115v3.83c0 .038-.014.075-.038.105-.029.033-.071.051-.115.048h-5.744c-.273-.004-.533.116-.708.326l-4.233 5.093 4.252 5.131c.174.198.426.31.689.307h5.744c.044-.003.086.015.115.048.026.036.04.08.038.124v3.83c0 .038-.014.076-.038.105-.029.034-.071.051-.115.048h-6.05c-1.533.006-2.988-.676-3.964-1.857l-3.523-4.251-3.524 4.25c-.985 1.18-2.445 1.862-3.982 1.858H7.462c-.043.003-.086-.015-.115-.048-.027-.036-.04-.08-.038-.125v-3.83c0-.038.014-.075.038-.104.029-.034.072-.051.115-.048h5.745c.272-.002.53-.12.708-.326l4.156-5.017 6.452-7.812z"/>
                </g>
                <path fill="url(#ebbw4cyn2a)" d="M616.112 174.4c24.376 69.029 145.044 233.373 269.484 225.34v-34.507l54.4 54.4-54.4 54.4.004-30.59C778.287 487.12 614.577 513.287 540 419.082L616.112 174.4z" transform="rotate(180 739.998 328.685)"/>
                <g transform="translate(768 330.4)">
                    <circle cx="20.8" cy="20.8" r="20.8" fill="#D8D8D8"/>
                    <g fill="#000" fill-rule="nonzero">
                        <path d="M.143 16.877c.184-.998.343-2.002.56-2.992.36-1.637.966-3.18 1.852-4.674 2.447 3.208 4.852 6.349 7.242 9.501.806 1.064.789 1.077-.134 2.022-.553.566-1.089 1.153-1.667 1.693-.334.313-.356.582-.14.973.855 1.555 1.987 2.863 3.404 3.929l.56.424c-.965.74-1.882 1.45-2.806 2.15-.63.478-1.277.936-1.905 1.417-.336.257-.617.328-.971-.002-2.745-2.555-4.64-5.605-5.45-9.29-.201-.92-.364-1.848-.545-2.773v-2.378zM19.172.086c1 .184 2.003.348 2.997.556 1.67.349 3.225.997 4.818 1.9L16.11 10.35c-.8-.783-1.617-1.538-2.378-2.344-.375-.397-.68-.422-1.142-.16-1.694.954-3.074 2.242-4.235 3.915-.235-.293-.436-.53-.623-.778-.994-1.32-1.976-2.65-2.983-3.96-.272-.354-.29-.597.031-.948C7.74 2.842 11.404.956 15.712.275l1.222-.19h2.238zM9.211 33.456l10.797-8.071c.786.856 1.583 1.67 2.313 2.54.442.528.827.496 1.373.177 1.634-.957 2.992-2.198 4.099-3.857.582.75 1.137 1.45 1.676 2.162.618.816 1.197 1.662 1.84 2.457.413.51.315.844-.114 1.295-2.837 2.98-6.276 4.84-10.322 5.512-3.985.662-7.76-.076-11.323-1.954-.1-.052-.182-.139-.339-.261M24.297 8.255C25.99 6.992 27.6 5.807 29.19 4.593c.38-.29.59-.074.83.145 1.633 1.488 2.97 3.206 3.97 5.178 1.439 2.835 2.128 5.853 1.945 9.022-.158 2.711-.858 5.297-2.299 7.795-.722-.943-1.395-1.815-2.06-2.693-1.855-2.449-3.7-4.904-5.566-7.345-.26-.34-.295-.548.043-.871.723-.692 1.377-1.455 2.095-2.154.35-.34.355-.63.135-1.04-.833-1.542-1.956-2.826-3.343-3.887-.182-.14-.366-.278-.643-.488" transform="translate(3.2 3.2)"/>
                    </g>
                </g>
                <g fill-rule="nonzero">
                    <path fill="url(#m8p9yt1k6c)" d="M0 18C0 8.059 8.059 0 18 0s18 8.059 18 18-8.059 18-18 18S0 27.941 0 18z" transform="translate(791.2 157.6)"/>
                    <path fill="#FFF" d="M10.4 1.965c1.014-.505 2.085-.898 3.2-1.165V8h-3.2V1.965zM0 13.968c.274-1.243.68-2.437 1.205-3.568H19.87c2.725 0 4.931 2.166 4.931 4.842v4.716c0 2.676-2.206 4.842-4.931 4.842h-4.802c-2.725 0-4.931-2.166-4.931-4.842v-3.441h3.633v3.415c0 .714.571 1.274 1.298 1.274h4.802c.726 0 1.297-.56 1.297-1.274v-4.69c0-.713-.57-1.274-1.297-1.274H0z" transform="translate(791.2 157.6)"/>
                </g>
                <g>
                    <g transform="translate(720 189.6)">
                        <circle cx="20.337" cy="20.337" r="20.337" fill="url(#nr5mt66l0d)"/>
                        <path fill="#FFF" fill-rule="nonzero" d="M22.084 6.123l.032.073 10.182 24.232c.322.767-.038 1.65-.805 1.972-.743.312-1.595-.016-1.94-.735l-.033-.07-8.793-20.927-3.064 7.29 3.064.001c.832 0 1.507.675 1.507 1.507 0 .806-.634 1.465-1.432 1.504l-.075.002h-4.33l-4.463 10.623c-.312.743-1.15 1.104-1.9.833l-.072-.028c-.743-.312-1.105-1.15-.834-1.9l.028-.072 3.973-9.456h-2.584c-.832 0-1.506-.674-1.506-1.506 0-.807.634-1.466 1.431-1.505l.075-.002h3.85l4.943-11.763c.507-1.206 2.192-1.23 2.746-.073z"/>
                    </g>
                </g>
                <g>
                    <g transform="translate(840 320) translate(0 .093)">
                        <mask id="x7u62n13cf" fill="#fff">
                            <use xlink:href="#6lpkhitdhe"/>
                        </mask>
                        <path fill="#203551" d="M21.182 38.151c.706-.108 1.173-.627 1.776-.82.412-.133.666-.443.578-.91-.096-.505-.489-.668-.936-.733-.473-.07-.755.172-.885.6-.177.582-.336 1.17-.533 1.863m2.436-28.233c.332.098.458-.204.652-.35 1.012-.758 2.032-1.536 3.252-1.895 1.468-.433 2.114-1.7 3.204-2.713-2.875.112-6.565 2.746-7.108 4.958m-12.496.378c2.03 1.638 3.978 3.22 5.941 4.784.296.236.67.556 1.041.125.366-.425.39-.915.003-1.35-.17-.193-.4-.347-.628-.472-1.855-1.017-3.716-2.023-5.574-3.034-.204-.111-.396-.257-.783-.053m6.946-6.926c-1.31 1.8-2.531 3.634-1.576 5.99.473 1.164 1.89 2.147 2.913 2.07-2.015-2.446-2-5.182-1.337-8.06M47.37 27.794c.49-10.227-5.39-17.343-12.404-17.509 6.824 3.98 10.954 9.772 12.404 17.51M36.696 29.94c.839.783 1.76 1.472 2.512 2.354 1.694 1.99 2.569 4.326 2.925 6.95 6.602-7.838 3.285-20.871-7.779-25.464.33 1.373.55 2.713.984 3.979.507 1.48.31 2.737-.56 4.018-.382.564-.714.924-1.396.757-.663-.163-1.08.075-1.314.698-.575 1.534-1.736 2.14-3.313 2.097-.456-.013-.825.118-1.072.565-.975 1.767-1.982 3.518-2.961 5.283-.326.588.177.31.382.338.256.065.527.096.765.202.926.413 1.503.098 2.025-.738.487-.78 1.182-1.428 1.734-2.173 1.064-1.437 2.302-2.046 4.227-1.82 3.441.406 5.89-1.669 6.365-4.984.066-.464.085-.933.138-1.552 2.12 3.38-.18 7.453-4.764 8.789.174.54.808.357 1.102.701m-14.288 8.764c-1.226.69-2.226 1.64-3.258 2.62 1.481.583 2.651.315 3.737-.603.579-.489 1.263-.852 1.895-1.279 1.574-1.061 2.075-2.261 1.586-3.78-.635-1.972-1.961-2.996-3.814-2.961-.308.005-.638.114-.958-.075.231-.464.633-.717 1.024-.777 1.598-.243 1.99-1.52 2.475-2.736.667-.795 1.133-1.73 1.538-2.655.623-1.424 1.646-1.972 3.108-1.916.67.026 1.09-.27 1.425-.86.782-1.384 1.63-2.731 2.45-4.093.135-.225.324-.435.256-.729-.357-1.546-.66-3.105-1.156-4.62-.207-.633-.548-.57-1.045-.381-1.406.532-2.838.716-4.387.207 6.054-2.93 6.18-6.9 5.194-10.011-.197.206-.381.39-.557.583-2.432 2.68-4.852 5.37-7.452 7.89-.4.388-.774.885-1.362.95-.62.068-.892-.554-1.315-.934-.616 1.112-1.16 2.174-1.778 3.192-1.574 2.59-2.575 5.189-1.135 8.251.518 1.104.214 2.39-.745 3.51-.236-1.094-.427-2.09-1.14-2.944-.366 1.39-.686 2.71-1.066 4.013-.646 2.215-.944 4.608-2.62 6.364-1.46 1.532-1.463 3.161-.831 5.015.619 1.814 3.046 2.589 4.534 1.367 2.04-.851 3.09-2.402 3.507-4.56.43-2.228 1.181-2.615 3.364-2.086-.299.037-.62-.053-.973.195.974.184 1.537.705 1.61 1.648.075.95-.669 1.253-1.32 1.633-.278.163-.528.374-.79.562m20.576-28.432c.072.072.15.14.226.018.01-.018-.067-.091-.104-.14-2.379-2.337-5.08-4.146-8.332-5.034-1.123-.307-1.105-.26-1.121.896-.01.695.164 1.046.895 1.085.392.021.776.164 1.165.25 2.586.573 4.887 1.851 7.271 2.925M25.918 2.022c-1.87.485-3.345 1.56-4.424 3.135-1.168 1.706-.98 3.956.421 5.555.524-3.301 1.46-6.374 3.998-8.695m-4.978 48.825C13.575 49.583 7.836 45.9 3.757 39.637c-5.505-8.45-4.9-20.45 1.42-28.088.577.407.007.71-.139.978-2.595 4.788-3.995 9.86-3.25 15.316 1.263 9.26 6.133 15.866 14.999 19.116 4.76 1.745 9.627 1.67 14.143-.96 3.661-2.134 5.795-5.425 6.278-9.646.27-2.358-.253-4.573-2.156-6.234-.371-.324-.757-.631-1.274-.089-1.238 1.299-2.544 2.532-3.789 3.824-.89.923-1.503 1.947-1.556 3.331-.057 1.49-.802 2.715-2.086 3.558-.971.638-1.975 1.233-2.895 1.937-1.205.923-2.515 1.194-3.937.785-.744-.214-1.397-.132-1.978.298-.622.461-1.256.507-1.974.353-1.342-.287-2.588-.819-3.805-1.429-.2-.1-.405-.26-.52-.447-.971-1.567-1.23-3.347-1.447-5.123-.133-1.095.666-1.842 1.224-2.645.907-1.306 1.87-2.545 2.257-4.158.588-2.448 1.306-4.865 1.976-7.294.218-.788.313-1.599-.035-2.343-.568-1.21-.497-2.373.04-3.548.164-.36.214-.653-.135-.973C12.53 13.774 4.723 6.268 3.622 5.167c-.13-.13-.363-.258-.25-.482.146-.292.405-.13.61-.064.22.07 9.214 4.327 10.39 4.685-.521-1.12-.346-2.227-.262-3.328l1.053-1.761c.185-.185.364-.375.554-.553 1.527-1.42 3.15-2.687 5.215-3.243l-.737 1.538.11.234C24.615-.807 30.901.151 31.49.69c-.839.52-1.772.804-2.394 1.687.28 0 .44.005.598 0 5.565-.185 10.381 1.496 14.16 5.719 1.728 1.931 2.883 4.196 3.723 6.63.072.207.235.463-.027.623-.196.12-.366-.082-.524-.195-.333-.241-.653-.506-1.125-.535.044.11.061.168.09.22 7.753 14.573-.384 32.145-16.526 35.717-.783.173-5.443.814-8.529.286" mask="url(#x7u62n13cf)"/>
                    </g>
                    <path fill="#E9F0FC" d="M8.82 27.278c.135-.152.233-.213.255-.295.075-.286.138-.577.181-.87.491-3.37 1.826-6.355 4.089-8.905.36-.405.325-.654-.065-.959-.208-.162-.389-.36-.58-.543-.848-.808-.886-.83-1.483.198-2.021 3.483-2.952 7.209-2.398 11.374m-3.977 4.43c.202-.42.115-.71.084-.994-.643-5.895.794-11.235 4.293-16.016.997-1.363 1.021-1.346-.279-2.504-.894-.797-.9-.8-1.548.226-2.384 3.773-3.46 7.932-3.561 12.355-.053 2.319.307 4.593 1.01 6.932m.336-20.065c.848-.759 1.202-1.94 2.203-2.568 2.578 2.394 5.15 4.793 7.739 7.175.348.32.298.614.134.973-.537 1.175-.607 2.338-.04 3.548.348.744.253 1.555.036 2.343-.67 2.428-1.389 4.846-1.977 7.294-.388 1.613-1.35 2.852-2.257 4.158-.558.802-1.357 1.55-1.224 2.644.217 1.777.476 3.557 1.446 5.124.116.186.32.347.52.447 1.218.61 2.464 1.142 3.806 1.43.718.153 1.352.107 1.974-.354.58-.43 1.234-.513 1.978-.298 1.422.409 2.733.138 3.937-.785.92-.705 1.924-1.3 2.895-1.937 1.284-.843 2.03-2.069 2.086-3.558.053-1.385.667-2.408 1.556-3.331 1.245-1.292 2.55-2.525 3.789-3.824.517-.543.903-.235 1.274.089 1.903 1.661 2.426 3.876 2.156 6.234-.483 4.22-2.617 7.512-6.278 9.645-4.516 2.632-9.383 2.705-14.143.96-8.866-3.25-13.736-9.855-15-19.115-.744-5.455.656-10.528 3.25-15.317.146-.268.717-.57.14-.977" transform="translate(840 320)"/>
                    <path fill="#FAFAFB" d="M15.373 35.236l-.26-.084c-.533.735-1.094 1.45-1.585 2.212-.282.439-.202.963.274 1.2.59.296 1.071-.07 1.479-.496.411-.43.815-1.084.368-1.468-.533-.458-.321-.88-.276-1.364m12.21-23.695c2.52-.12 4.391-2.25 3.912-4.34l-3.911 4.34m-7.562 9.797c-.44 1.044-.521 1.625-.352 2.307.285 1.149.854 1.39 1.918.838.23-.12.5-.164.754-.231 1.518-.398 2.941-1.01 4.217-1.927 1.04-.747 1.448-2.285.5-3.007-1.373-1.048-.546-1.833-.125-2.765.051-.113.16-.224.023-.376-.38.15-.57.516-.823.797-1.439 1.6-2.848 3.228-4.29 4.825-.346.384-.684 1.05-1.181.956-.545-.104-.397-.891-.64-1.417M17.01 41.406c-1.488 1.222-3.915.447-4.534-1.367-.632-1.854-.63-3.483.832-5.015 1.675-1.756 1.973-4.149 2.62-6.364.38-1.303.699-2.624 1.066-4.013.712.854.903 1.85 1.139 2.943.96-1.12 1.263-2.405.745-3.509-1.44-3.062-.439-5.661 1.135-8.251.618-1.018 1.162-2.08 1.778-3.192.423.38.696 1.002 1.315.934.588-.065.962-.562 1.362-.95 2.6-2.52 5.02-5.21 7.452-7.89.176-.193.36-.377.557-.583.986 3.11.86 7.08-5.194 10.01 1.55.51 2.98.326 4.387-.207.497-.188.838-.25 1.045.382.496 1.514.799 3.074 1.156 4.62.068.294-.12.504-.256.729-.82 1.362-1.668 2.709-2.45 4.092-.334.59-.755.886-1.425.86-1.462-.055-2.485.493-3.108 1.917-.405.924-.871 1.86-1.538 2.655-3.314.565-5.807 2.204-6.942 5.7-.481-.816-.514-1.531-1.17-2.05 0 1.405-.039 2.683.01 3.957.05 1.361-.57 2.267-1.727 2.889-.36.193-.786.3-1.117.725 1 .372 1.864.859 2.862.978" transform="translate(840 320)"/>
                    <path fill="#FAFAFB" d="M25.104 31.609c-.205-.028-.708.25-.382-.338.98-1.765 1.986-3.516 2.961-5.283.247-.447.616-.578 1.072-.565 1.577.043 2.738-.564 3.313-2.097.234-.623.651-.861 1.314-.699.682.168 1.014-.193 1.397-.756.87-1.28 1.066-2.539.559-4.018-.434-1.267-.654-2.606-.984-3.979 11.064 4.593 14.38 17.626 7.78 25.464-.357-2.624-1.233-4.96-2.926-6.95-.751-.882-1.673-1.57-2.512-2.354.381-.065.72.055 1.045.237 1.828 1.029 3.34 2.377 4.372 4.234.212.381.285.858.67 1.175 2.316-5.725.828-13.259-2.57-16.575-.042.092-.103.171-.118.259-.805 4.704-4.088 6.771-8.13 6.293-1.097-.13-2.173.175-3.24.422-.287.066-.596.142-.76.426-.974 1.69-2.05 3.322-2.861 5.104" transform="translate(840 320)"/>
                    <path fill="#93A5C2" d="M25.104 31.609c.81-1.782 1.887-3.414 2.861-5.104.164-.284.473-.36.76-.426 1.067-.247 2.143-.552 3.24-.422 4.042.478 7.325-1.589 8.13-6.293.015-.088.076-.167.119-.259 3.397 3.316 4.885 10.85 2.57 16.575-.386-.317-.459-.794-.67-1.175-1.033-1.857-2.545-3.205-4.373-4.234-.325-.182-.664-.302-1.045-.237-.294-.344-.928-.16-1.102-.701 4.584-1.336 6.884-5.41 4.764-8.79-.053.62-.072 1.09-.138 1.552-.475 3.316-2.924 5.39-6.365 4.986-1.926-.227-3.163.382-4.227 1.82-.552.744-1.248 1.391-1.734 2.172-.521.836-1.1 1.151-2.025.738-.238-.106-.51-.137-.765-.202" transform="translate(840 320)"/>
                    <path fill="#93A5C2" d="M17.011 41.406c-.998-.12-1.861-.606-2.862-.978.331-.424.758-.532 1.117-.725 1.157-.622 1.777-1.528 1.726-2.89-.048-1.273-.01-2.55-.01-3.955.657.517.69 1.233 1.17 2.05 1.136-3.497 3.629-5.136 6.943-5.7-.485 1.215-.877 2.492-2.475 2.735-.391.06-.792.313-1.024.777.32.19.65.08.958.075 1.853-.035 3.179.989 3.813 2.96.49 1.52-.011 2.72-1.585 3.781-.632.427-1.316.79-1.895 1.279-1.086.918-2.255 1.186-3.737.603 1.032-.98 2.032-1.93 3.258-2.62.451.04.828-.181 1.222-.344.756-.313 1.419-.684 1.486-1.647.07-.994-.39-1.625-1.234-2.047-2.183-.529-2.934-.142-3.364 2.086-.417 2.158-1.467 3.708-3.507 4.56" transform="translate(840 320)"/>
                    <path fill="#CF2425" d="M47.37 27.887c-1.451-7.737-5.58-13.528-12.405-17.509 7.013.166 12.893 7.282 12.404 17.51M42.985 10.367C40.6 9.292 38.3 8.013 35.714 7.441c-.388-.086-.773-.23-1.165-.25-.73-.039-.905-.39-.895-1.085.016-1.156-.002-1.203 1.12-.896 3.253.888 5.954 2.697 8.333 5.035-.041.04-.082.08-.122.122M25.913 2.11c-2.539 2.32-3.474 5.394-3.998 8.695-1.402-1.6-1.589-3.849-.42-5.555 1.078-1.576 2.552-2.65 4.423-3.136l-.005-.004zM18.068 3.463c-.663 2.878-.678 5.614 1.337 8.06-1.023.077-2.44-.906-2.913-2.07-.955-2.356.266-4.19 1.576-5.99" transform="translate(840 320)"/>
                    <path fill="#FAFAFB" d="M11.122 10.389c.387-.204.579-.059.783.053 1.858 1.011 3.719 2.016 5.574 3.034.228.125.457.28.628.472.387.435.363.924-.003 1.35-.37.43-.745.11-1.04-.125-1.964-1.563-3.912-3.146-5.942-4.784" transform="translate(840 320)"/>
                    <path fill="#CF2425" d="M23.618 10.01c.543-2.211 4.233-4.845 7.108-4.957-1.09 1.014-1.736 2.28-3.204 2.713-1.22.359-2.24 1.137-3.252 1.896-.194.145-.32.447-.652.349" transform="translate(840 320)"/>
                    <path fill="#E9F0FC" d="M9.745 7.347c1.578-1.42 3.295-2.591 5.418-3.037l-1.052 1.76c-1.165.362-2.205.915-2.955 1.917-.517-.11-.994-.31-1.411-.64" transform="translate(840 320)"/>
                    <path fill="#93A5C2" d="M11.156 7.987c.75-1.001 1.79-1.555 2.955-1.916-.085 1.101-.26 2.209.261 3.328-1.176-.358-2.243-.777-3.216-1.412" transform="translate(840 320)"/>
                    <path fill="#FAFAFB" d="M21.182 38.244c.197-.694.356-1.28.533-1.862.13-.43.412-.67.885-.601.447.065.84.228.936.732.088.468-.166.778-.578.91-.603.193-1.07.713-1.776.821" transform="translate(840 320)"/>
                    <path fill="#E9F0FC" d="M23.882 34.76c.843.422 1.304 1.053 1.234 2.047-.067.963-.73 1.334-1.486 1.647-.393.163-.771.384-1.222.344.263-.189.513-.4.791-.562.651-.38 1.395-.683 1.32-1.634-.073-.942-.636-1.463-1.61-1.647.353-.248.674-.158.973-.195" transform="translate(840 320)"/>
                    <path fill="#CF2425" d="M43.107 10.245c.037.048.115.12.103.139-.075.123-.153.054-.225-.017l.122-.122" transform="translate(840 320)"/>
                    <path fill="#93A5C2" d="M4.842 31.707c-.704-2.34-1.064-4.614-1.011-6.932.101-4.423 1.177-8.583 3.56-12.355.649-1.027.655-1.023 1.55-.226 1.299 1.159 1.275 1.141.278 2.504-3.498 4.78-4.936 10.121-4.293 16.016.031.284.118.575-.084.993M8.82 27.278c-.555-4.165.376-7.891 2.397-11.374.597-1.027.635-1.006 1.482-.198.192.183.373.38.58.543.391.305.425.554.066.96-2.263 2.549-3.598 5.534-4.089 8.903-.043.294-.106.585-.181.871-.022.082-.12.143-.256.295" transform="translate(840 320)"/>
                    <path fill="#203551" d="M22.357 23.144l.189.197c1.17-.429 2.324-.894 3.226-1.822.554-.57.512-1.177.061-1.797-.265-.364-.516-.36-.788-.012l-2.688 3.434m-2.335-1.806c.244.525.096 1.313.64 1.417.498.095.836-.572 1.183-.956 1.441-1.598 2.85-3.224 4.288-4.825.253-.281.443-.647.824-.797.138.152.028.263-.023.376-.421.932-1.248 1.717.126 2.765.947.722.539 2.26-.501 3.007-1.276.917-2.7 1.529-4.217 1.927-.254.067-.524.112-.754.23-1.064.553-1.633.312-1.918-.837-.17-.682-.088-1.263.352-2.307M27.584 11.54l3.91-4.34c.48 2.09-1.392 4.22-3.91 4.34M15.373 35.236c-.045.484-.257.906.276 1.364.447.384.043 1.038-.368 1.468-.408.426-.889.792-1.479.497-.476-.238-.556-.762-.274-1.2.49-.762 1.052-1.478 1.584-2.213l.261.084" transform="translate(840 320)"/>
                    <path fill="#CF2425" d="M22.357 23.144l2.688-3.434c.272-.348.523-.352.788.012.45.62.493 1.227-.061 1.797-.902.928-2.056 1.393-3.226 1.822l-.189-.197" transform="translate(840 320)"/>
                </g>
                <g fill-rule="nonzero" transform="translate(628.8 200)">
                    <ellipse cx="25.378" cy="25.012" fill="#20C494" rx="25.378" ry="25.012"/>
                    <path fill="#FFF" d="M23.342 27.486l11.036 6.024c.36.2.394.684.061.93l-7.454 5.404c-.34.246-.841.072-.923-.328l-2.72-12.03zm-.36-16.147c.414-.327.996.055.886.58L21.076 25.32l2.792 13.394c.11.527-.472.907-.886.58l-7.15-5.627c-.367-.287-.58-.74-.58-1.213V18.18c0-.473.213-.926.58-1.212l7.15-5.628zm11.9 7.546c.387-.214.866.052.866.488V30.72c0 .43-.479.703-.866.488l-11-6.158 11-6.164zm-8.82-7.765c.088-.4.584-.58.93-.329l7.448 5.405c.332.245.299.73-.067.929l-11.031 6.023 2.72-12.028z"/>
                </g>
                <g fill-rule="nonzero" transform="translate(856.8 194.4)">
                    <circle cx="20.4" cy="20.4" r="20.4" fill="#7866D5"/>
                    <g fill="#FFF">
                        <path d="M22.454.682c.695.085 1.418.142 2.113.256 1.36.256 1.823.938 1.591 2.302-.058.512-.463.91-.984.995-.318.057-.665.085-.983.057-4.514 0-9 .028-13.514.028-.665 0-1.36.057-2.025.17-2.228.342-3.096 1.251-3.27 3.468-.087 1.023-.087 1.023.984 1.023H24.827c.29 0 .55.085.81.227.81.512.608 1.336.58 2.075-.03.597-.406.938-1.043 1.052-.26.057-.52.057-.81.057H5.961c-.666 0-.666 0-.608.653.03.597.087 1.194.232 1.79.289 1.08.955 1.763 2.083 2.076 1.215.34 2.489.397 3.733.426h13.166c.55 0 1.07.057 1.418.568.55.853.26 1.961-.608 2.501-.116.086-.231.142-.376.17-.955.313-1.939.37-2.952.399-4.138.085-8.246.085-12.355 0-1.274-.029-2.547-.17-3.791-.427-2.923-.596-4.398-2.074-4.89-4.973-.116-.654-.174-1.336-.26-2.018V8.27c.057-.512.115-1.052.173-1.564.376-3.268 1.88-4.888 5.15-5.627C7.235.824 8.45.767 9.607.654l12.848.028z" transform="translate(6.4 9.6)"/>
                        <path d="M15.857 21.543c-2.083 0-4.138-.028-6.192-.057-1.302-.028-2.605-.17-3.878-.454-3.154-.654-4.774-2.303-5.295-5.372-.087-.483-.145-.966-.174-1.421-.029-.199-.058-.398-.087-.625v-5.4l.058-.512c.03-.37.087-.71.116-1.051C.81 3.155 2.49 1.364 5.99.597c.926-.2 1.823-.284 2.72-.37l.868-.085H22.542c.202.029.433.057.636.057.492.057.984.085 1.505.199 1.649.313 2.286 1.222 1.996 2.87-.087.71-.665 1.308-1.447 1.421-.347.057-.694.086-1.07.086-4.485.028-9 .057-13.485.057-.636 0-1.302.056-1.938.17-1.997.313-2.662 1.023-2.836 3.013 0 .17-.029.34-.029.483h18.953c.376 0 .753.114 1.07.284.985.625.898 1.563.84 2.245 0 .086-.029.2-.029.285-.058.795-.55 1.335-1.447 1.506-.318.057-.607.057-.897.057H5.874v.113c.029.597.087 1.166.232 1.734.231.881.78 1.421 1.707 1.677 1.244.341 2.517.398 3.617.398 3.414.028 6.887.028 10.272.028h2.894c.434 0 1.33 0 1.852.824.347.54.434 1.166.289 1.763-.145.596-.52 1.108-1.07 1.45-.145.084-.319.17-.493.226-1.07.341-2.17.398-3.096.427-2.054 0-4.138.028-6.221.028zM1.273 13.528c.03.2.058.398.058.597l.174 1.364c.463 2.672 1.765 3.98 4.485 4.548 1.215.256 2.46.398 3.704.426 4.08.085 8.246.085 12.355 0 .84-.028 1.852-.085 2.778-.37.087-.028.174-.085.26-.113.29-.199.522-.483.608-.824.087-.341.03-.682-.173-.995-.174-.256-.405-.341-.955-.341h-2.894c-3.356 0-6.858 0-10.272-.028-1.158 0-2.518-.057-3.878-.455-1.302-.341-2.112-1.165-2.43-2.444-.145-.626-.232-1.28-.232-1.905v-.028c-.029-.398-.058-.682.174-.938.231-.256.55-.256.955-.256h18.403c.232 0 .492 0 .724-.057.463-.085.578-.284.607-.568 0-.114.03-.199.03-.313.057-.71.057-1.051-.348-1.307-.145-.085-.347-.142-.52-.142H6.365c-.637 0-1.013 0-1.302-.284-.29-.284-.232-.682-.203-1.28.203-2.443 1.245-3.552 3.704-3.921.695-.114 1.389-.17 2.112-.2 4.514 0 9-.028 13.514-.028.318 0 .607 0 .897-.057.289-.028.52-.255.55-.54.202-1.136-.087-1.506-1.187-1.733-.463-.085-.926-.142-1.389-.17-.202-.03-.434-.058-.636-.058H9.636l-.868.086c-.897.085-1.737.142-2.605.34-3.038.74-4.369 2.19-4.716 5.259-.03.34-.087.682-.116 1.051l-.058.483v5.201z" transform="translate(6.4 9.6)"/>
                    </g>
                </g>
                <g fill="#00AF6A">
                    <path d="M14.326 24.781c2.41 1.235 4.848 1.273 7.262.01.668-.349 1.157-.262 1.682.274 1.84 1.878 3.717 3.72 5.567 5.588.793.801.748 1.112-.182 1.814-6.26 4.723-15.133 4.71-21.385-.032-.318-.24-.672-.45-.68-.716.001-.535.22-.747.431-.96 1.93-1.93 3.865-3.854 5.786-5.793.476-.48.93-.487 1.519-.185zM32.467 7.24c4.723 6.26 4.71 15.133-.032 21.385-.24.318-.45.672-.716.68-.535-.001-.747-.22-.96-.431-1.93-1.93-3.854-3.865-5.793-5.786-.48-.476-.487-.93-.185-1.519 1.235-2.41 1.273-4.848.01-7.262-.349-.668-.262-1.157.274-1.682 1.878-1.84 3.72-3.717 5.588-5.567.801-.794 1.112-.748 1.814.182zm-28.186-.74c.535.001.747.22.96.431 1.93 1.93 3.854 3.865 5.793 5.786.48.476.487.93.185 1.519-1.235 2.41-1.273 4.848-.01 7.262.349.668.262 1.157-.274 1.682-1.878 1.84-3.72 3.717-5.588 5.567-.801.793-1.112.748-1.814-.182-4.723-6.26-4.71-15.133.032-21.385.24-.318.45-.672.716-.68zm24.434-2.934c.318.24.672.45.68.716-.001.535-.22.747-.431.96-1.93 1.93-3.865 3.854-5.786 5.793-.476.48-.93.487-1.519.185-2.41-1.235-4.848-1.273-7.262-.01-.668.349-1.157.262-1.682-.274-1.84-1.878-3.717-3.72-5.567-5.588-.794-.801-.748-1.112.182-1.814 6.26-4.723 15.133-4.71 21.385.032z" transform="translate(720 266.4)"/>
                </g>
                <g transform="translate(776.8 231.2)">
                    <circle cx="28" cy="28" r="28" fill="#FFF"/>
                    <g>
                        <path fill="#FFD01F" d="M8.071 10.356l11.255-6.539c.398-.231.909-.096 1.14.302.074.128.113.272.113.42V15.39c0 .46-.373.834-.834.834-.102 0-.203-.018-.298-.055L8.192 11.857c-.43-.165-.645-.648-.48-1.078.068-.178.195-.327.36-.423z" transform="translate(9.333 9.333)"/>
                        <path fill="#DDC017" d="M22.025 1.182v11.96c0 .461.374.835.834.835.254 0 .493-.115.651-.313l7.46-9.308c.288-.36.23-.885-.13-1.173-.072-.058-.154-.104-.242-.135L23.138.396c-.433-.154-.91.072-1.065.507-.032.09-.048.184-.048.28z" transform="translate(9.333 9.333)"/>
                        <path fill="#003243" d="M1.136 22.898l16.697-4.339c.446-.116.714-.571.598-1.017-.068-.261-.258-.473-.51-.57L2.064 10.91c-.43-.165-.912.05-1.077.48-.028.075-.046.153-.052.232l-.84 10.401c-.038.46.305.862.764.899.093.008.187 0 .277-.024z" transform="translate(9.333 9.333)"/>
                        <path fill="#0A4B61" d="M17.83 21.84L14.18 32.143c-.154.434-.63.661-1.065.508-.113-.04-.217-.105-.303-.189L5.232 25.09c-.33-.322-.338-.85-.016-1.18.106-.11.24-.187.387-.226l11.23-2.93c.445-.117.9.15 1.017.596.042.162.035.332-.02.49z" transform="translate(9.333 9.333)"/>
                        <path fill="#91C45D" d="M23.545 16.214l7.858-9.812c.288-.36.813-.418 1.172-.13.153.123.258.296.297.488l2.384 11.915c.09.451-.202.891-.654.981-.11.022-.222.022-.332 0l-10.242-2.103c-.451-.093-.742-.534-.65-.985.027-.13.084-.25.167-.354z" transform="translate(9.333 9.333)"/>
                        <path fill="#2CA7AD" d="M25.038 19.372L36.5 21.734c.43.089.718.496.658.93l-1.222 8.885c-.063.457-.484.776-.94.713-.194-.026-.372-.12-.504-.265l-10.24-11.246c-.31-.34-.285-.868.056-1.178.197-.18.468-.255.73-.2z" transform="translate(9.333 9.333)"/>
                        <path fill="#17708D" d="M18.841 23.173l-4.498 12.649c-.155.434.072.91.506 1.065.142.05.296.062.444.032l4.714-.947c.396-.079.678-.43.67-.833l-.216-11.702c-.008-.46-.388-.828-.849-.819-.347.006-.654.227-.77.555z" transform="translate(9.333 9.333)"/>
                        <path fill="#3FA3C4" d="M22.066 23.557l.176 9.5c.009.46.39.826.85.818.045-.001.09-.006.135-.014l7.323-1.345c.453-.083.753-.518.67-.972-.028-.154-.1-.298-.207-.414l-7.499-8.153c-.312-.34-.84-.362-1.179-.05-.175.162-.274.391-.27.63z" transform="translate(9.333 9.333)"/>
                    </g>
                </g>
                <g>
                    <g transform="translate(74.4 153.6)">
                        <mask id="zolbqxjuvh" fill="#fff">
                            <use xlink:href="#1sv6s08zfg"/>
                        </mask>
                        <path fill="#FFF" fill-rule="nonzero" d="M41.346 20.68c-.005 11.417-9.262 20.67-20.68 20.666C9.248 41.34-.005 32.084 0 20.666.004 9.246 9.262-.005 20.68 0c11.417.003 20.67 9.262 20.666 20.68" mask="url(#zolbqxjuvh)"/>
                    </g>
                    <path fill="#5A5564" fill-rule="nonzero" d="M32.463 9.95l-1.027 1.015c5.007 5.566 4.95 14.04-.134 19.535l1.014 1.03c5.656-6.063 5.72-15.463.147-21.603v.023zM11.01 9.892c5.551-5.019 14.007-4.962 19.488.134l1.029-1.015c-6.048-5.669-15.427-5.734-21.554-.15l1.037 1.03zm-1.093 20.47c-5-5.562-4.942-14.03.135-19.522L9.037 9.81c-5.657 6.062-5.72 15.463-.148 21.603l1.027-1.05zm20.425 1.086c-5.552 5.018-14.007 4.96-19.49-.134l-1.027 1.015c6.048 5.668 15.427 5.734 21.553.148l-1.038-1.029h.002z" transform="translate(74.4 153.6)"/>
                    <path fill="#F09242" fill-rule="nonzero" d="M27.136 17.305c-.19-2.134-2.02-2.863-4.34-3.097l.02-2.94-1.797-.012L21 14.138c-.472-.003-.955-.006-1.435.008l.02-2.9-1.784-.012-.02 2.957-1.143-.007-2.497-.018-.013 1.925s1.327-.014 1.306.01c.497-.052.947.302 1.015.797l-.057 8.1c-.023.351-.327.617-.677.594h-.006c.023.02-1.306-.01-1.306-.01l-.371 2.147 2.339.017 1.285.01-.02 3.004 1.795.013.02-2.962 1.435.01-.02 2.948 1.798.013.02-2.973c3.035-.162 5.154-.898 5.44-3.741.229-2.29-.838-3.32-2.553-3.743 1.048-.524 1.71-1.456 1.565-3.02m-2.56 6.384c-.014 2.236-3.835 1.954-5.053 1.945l.028-3.966c1.217.011 5.04-.314 5.025 2.021m-.795-5.598c-.014 2.046-3.202 1.774-4.214 1.768l.025-3.604c1.012.007 4.204-.292 4.19 1.836" transform="translate(74.4 153.6)"/>
                    <path fill="#282138" fill-rule="nonzero" d="M20.541 39.29c-10.256-.073-18.515-8.466-18.443-18.749.073-10.281 8.45-18.559 18.706-18.486 10.256.073 18.512 8.463 18.444 18.743-.082 10.28-8.451 18.552-18.707 18.492zm.247-35.782c-9.453-.06-17.165 7.573-17.223 17.046-.06 9.474 7.554 17.204 17.007 17.262 9.446.06 17.155-7.563 17.224-17.03.055-9.472-7.556-17.2-17.008-17.268v-.01z" transform="translate(74.4 153.6)"/>
                </g>
                <g>
                    <g transform="translate(141.6 124.8) translate(0 .129)">
                        <mask id="8xkkcj7ahk" fill="#fff">
                            <use xlink:href="#hlflf0fkji"/>
                        </mask>
                        <path fill="url(#8wgnkuqwhj)" fill-rule="nonzero" d="M20.65.046C9.246.046 0 9.093 0 20.256c0 11.16 9.246 20.21 20.65 20.21 11.404 0 20.649-9.05 20.649-20.21 0-11.163-9.245-20.21-20.65-20.21z" mask="url(#8xkkcj7ahk)"/>
                    </g>
                    <path fill="#FFF" fill-rule="nonzero" d="M21.001 19.242h6.282c.525 0 .522.003.583.512.054.459.051.915-.006 1.374-.058.459-.068.475-.552.475H14.709c-.546 0-.555-.009-.555-.547v-1.275c0-.526.012-.539.566-.539H21m-.357 4.517h5.735c.102 0 .206-.003.31 0 .397.013.44.074.248.409-.574 1.006-1.357 1.824-2.345 2.455-1.417.903-2.992 1.275-4.66 1.295-1.762.023-3.525.007-5.288.006-.459 0-.487-.029-.488-.478-.003-1.065-.003-2.13 0-3.194 0-.457.033-.492.511-.493h5.977m.007-6.677h-5.943c-.536-.002-.555-.022-.555-.555 0-1.077.009-2.152-.006-3.229-.004-.323.094-.461.449-.459 1.865.012 3.734-.05 5.598.02 2.883.108 5.22 1.232 6.725 3.747.256.427.227.474-.29.474H20.65m-4.17-6.168h-3.986c-.511 0-.517.006-.517.51v5.18c-.002.465-.024.485-.512.488-.57.003-1.143-.001-1.716.002-.43.003-.463.037-.466.469-.003.403-.003.806 0 1.21.003.44.033.468.498.47.596.003 1.192.008 1.787 0 .284-.005.42.09.412.39-.015.526-.015 1.054 0 1.58.007.29-.111.4-.405.396-.641-.011-1.283.003-1.924-.004-.263-.003-.374.104-.37.36.008.493.008.987 0 1.48-.004.256.103.364.369.36.606-.008 1.212-.003 1.82 0 .492 0 .504.012.505.486v4.976c0 .605 0 .605.633.605h7.319c.502 0 1.006-.009 1.506-.082 3.655-.533 6.412-2.279 7.944-5.662.11-.243.256-.334.52-.329.585.015 1.169-.002 1.753.008.265.004.37-.1.365-.36-.011-.493-.01-.986 0-1.48.005-.257-.097-.368-.365-.362-.41.008-.822-.003-1.236 0-.23 0-.325-.103-.321-.33.01-.561.015-1.122.006-1.682-.005-.243.098-.349.343-.347.4.002.8-.008 1.202 0 .259.004.376-.098.37-.36-.01-.458-.015-.919.001-1.378.012-.303-.1-.427-.416-.419-.55.015-1.1-.004-1.65.006-.265.006-.416-.087-.512-.339-.267-.696-.631-1.345-1.09-1.937-2.04-2.634-4.83-3.785-8.124-3.898-1.247-.043-2.496-.007-3.744-.007" transform="translate(141.6 124.8)"/>
                </g>
                <g>
                    <g transform="translate(132 205)">
                        <mask id="njz3frs3zm" fill="#fff">
                            <use xlink:href="#8mah7j9adl"/>
                        </mask>
                        <path fill="#000" fill-rule="nonzero" d="M41.182 20.741c-.003 11.372-9.225 20.588-20.598 20.584C9.212 41.321-.004 32.1 0 20.727.004 9.354 9.227.139 20.598.143 31.971.146 41.186 9.37 41.182 20.741" mask="url(#njz3frs3zm)"/>
                    </g>
                    <path fill="#FFF" fill-rule="nonzero" d="M20.591 6.035l8.885 14.942-8.885-4.135v9.32l-8.885-5.185L20.59 6.035z" transform="translate(132 205)"/>
                    <path fill="#FFF" fill-rule="nonzero" d="M20.591 16.842v9.32l8.885-5.185-8.885-4.135zm-8.885 5.803l8.885 5.223v7.29l-8.885-12.513zm17.77 0l-8.885 5.223v7.29l8.885-12.513z" transform="translate(132 205)"/>
                </g>
                <g>
                    <g transform="translate(87.2 56.8)">
                        <mask id="fqb8bidcdo" fill="#fff">
                            <use xlink:href="#eqor3yvv5n"/>
                        </mask>
                        <path fill="#0074D1" fill-rule="nonzero" d="M35.908 18.928c-.029-2.775-1.838-6.679-5.373-9.78-1.458-1.28-3.133-2.206-4.968-2.837-.364-.126-.756-.257-.98.222-.427.909.005 2.028.939 2.415 5.12 2.13 8.466 7.455 7.867 13.063-.537 5.017-3.178 8.56-7.734 10.679-1.12.523-1.173.545-1.151 1.797.017 1.03.26 1.198 1.224.853 6.147-2.202 10.173-7.927 10.178-16.412M5.224 22.64c.044 2.983 1.88 6.94 5.524 10.044 1.441 1.227 3.084 2.118 4.875 2.736.461.158.844.158.974-.431.278-1.262 0-1.813-1.16-2.305-4.669-1.98-7.938-6.839-7.772-11.907.18-5.463 2.82-9.418 7.794-11.757 1.116-.524 1.426-1.111 1.136-2.328-.087-.368-.305-.545-.674-.472-.262.053-.516.146-.766.24-6.022 2.276-9.928 7.932-9.93 16.18m15.359-11.99c-1.162 0-1.257.094-1.261 1.256 0 .201-.015.403.001.602.044.504-.144.783-.672.882-.661.124-1.273.405-1.821.806-1.384 1.016-1.856 2.403-1.636 4.061.201 1.523 1.15 2.407 2.53 2.913.57.208 1.154.347 1.745.46.92.174 1.856.265 2.741.603.748.284 1.25.777 1.33 1.604.08.835-.192 1.542-.876 2.055-1.777 1.332-4.495.555-5.244-1.512-.16-.441-.431-.66-.884-.672-.334-.007-.672-.023-1.002.009-.61.058-.818.353-.687.954.348 1.604 1.246 2.869 2.823 3.28 1.355.354 1.902.95 1.67 2.324-.082.5.26.783.76.82.266.021.535.015.804.01.59-.008.915-.285.903-.905-.006-.356.02-.716 0-1.07-.028-.474.142-.743.632-.852.68-.152 1.312-.439 1.88-.85 1.568-1.139 2.025-2.72 1.739-4.55-.263-1.668-1.423-2.508-2.944-2.936-.642-.18-1.303-.3-1.959-.424-.81-.155-1.639-.234-2.396-.593-1.11-.524-1.43-1.914-.666-2.872 1.057-1.33 4.066-1.147 4.78.381.418.897.98 1.092 1.834 1.02.765-.064.999-.346.789-1.091-.395-1.394-1.31-2.303-2.66-2.79-1.025-.37-1.025-.369-1.026-1.432v-.268c-.006-1.124-.104-1.22-1.227-1.222m2.194 30.554h-4.422c-.196-.041-.389-.094-.586-.123C9.107 39.785 2.33 33.561.438 25.147c-.17-.76-.292-1.532-.438-2.299v-4.42c.076-.395.162-.787.225-1.181C1.927 6.514 12.138-1.186 22.902.15 34.398 1.58 42.34 11.633 41.04 23.111 40.08 31.569 33.717 38.728 25.4 40.69c-.866.204-1.749.344-2.622.514" mask="url(#fqb8bidcdo)"/>
                    </g>
                </g>
                <g>
                    <g transform="translate(174 256)">
                        <mask id="uca3xz2c5q" fill="#fff">
                            <use xlink:href="#3ivh2umtdp"/>
                        </mask>
                        <path fill="#2255E2" fill-rule="nonzero" d="M41.346 20.68c-.005 11.417-9.262 20.67-20.68 20.666C9.248 41.34-.005 32.084 0 20.666.004 9.246 9.262-.005 20.68 0c11.417.003 20.67 9.262 20.666 20.68" mask="url(#uca3xz2c5q)"/>
                    </g>
                    <path fill="#FFF" fill-rule="nonzero" d="M12.562 20.67c0 1.361.007 2.723-.007 4.086-.005.405.124.682.483.891 2.399 1.38 4.792 2.771 7.18 4.17.332.194.618.192.95 0 2.371-1.387 4.745-2.765 7.125-4.132.374-.216.543-.484.542-.928-.015-2.723-.01-5.447 0-8.17.003-.406-.123-.684-.482-.891-2.4-1.382-4.792-2.773-7.18-4.171-.334-.194-.62-.193-.95.001-2.371 1.385-4.744 2.764-7.126 4.129-.41.235-.548.54-.54.996.018 1.34.005 2.68.005 4.017m22.303-8.308l-.004 16.631c-.244.12-.497.223-.73.36-4.202 2.436-8.402 4.874-12.598 7.32-.451.263-.835.422-1.373.11-4.333-2.524-8.683-5.02-13.037-7.51-.478-.271-.646-.607-.643-1.146.018-4.973.02-9.946.005-14.919 0-.54.17-.875.644-1.148 4.313-2.47 8.616-4.955 12.913-7.455.467-.273.837-.285 1.309-.006 2.483 1.464 4.977 2.907 7.48 4.338 2.008 1.146 3.966 2.385 6.034 3.425" transform="translate(174 256)"/>
                </g>
                <g>
                    <g transform="translate(277 236) translate(0 .046)">
                        <mask id="ag8b7z3p8s" fill="#fff">
                            <use xlink:href="#rhn3lj1b8r"/>
                        </mask>
                        <path fill="#00A579" fill-rule="nonzero" d="M10.682 9.973c-.015.068-.03.097-.03.127 0 1.553.004 3.107-.005 4.661 0 .223.112.242.292.24.93-.004 1.858 0 2.787 0L17.298 15c.173 0 .34-.019.336.237-.007.807-.006 1.616-.003 2.422 0 .172-.079.222-.245.236-1.297.117-2.596.215-3.888.378-1.252.157-2.498.381-3.66.886-.421.182-.826.443-1.168.744-.428.379-.438.929-.044 1.34.252.262.567.487.894.653.954.48 1.996.729 3.048.872 1.525.209 3.06.349 4.593.506.467.049.47.032.47.48.002 2.74 0 5.478.003 8.217 0 .41.007.415.417.417h4.636c.453 0 .453 0 .453-.437l.002-8.278c0-.109.01-.216.014-.315l2.561-.205c1.55-.125 3.086-.344 4.587-.75.775-.21 1.546-.451 2.148-1.015.526-.495.517-1.172-.048-1.624-.287-.229-.615-.426-.954-.573-1.204-.52-2.487-.767-3.78-.921-1.406-.167-2.82-.265-4.232-.386-.209-.017-.311-.069-.305-.31.019-.714.007-1.429.009-2.145 0-.43 0-.43.425-.43 2.068 0 4.135-.005 6.203.007.292.001.368-.085.365-.362-.013-1.43-.006-2.863-.006-4.292 0-.4 0-.4-.418-.404H11.195c-.165 0-.332.015-.512.025m30.508 10.329c.048 11.098-9.248 20.28-20.822 20.162C9.225 40.351-.183 31.462.003 19.951.18 8.835 9.52-.023 20.934.144 32.145.31 41.226 9.298 41.191 20.303" mask="url(#ag8b7z3p8s)"/>
                    </g>
                    <path fill="#FFF" fill-rule="nonzero" d="M23.16 18.699c-.01.118-.017.18-.017.24-.001.818-.012 1.636.003 2.452.006.296-.104.398-.399.39-.49-.012-.982.015-1.472.008-1.116-.015-2.234-.04-3.35-.052-.243-.001-.295-.113-.292-.32.006-.674 0-1.349 0-2.023 0-.672 0-.665-.688-.624-1.553.095-3.092.292-4.61.625-.926.203-1.85.422-2.677.905-.422.247-.434.465.003.668.505.234 1.034.442 1.573.583 2.41.638 4.885.837 7.366.908 3.234.094 6.467.019 9.666-.538 1.067-.185 2.133-.391 3.115-.866.18-.086.307-.274.46-.415-.149-.144-.272-.354-.451-.421-.737-.28-1.473-.598-2.241-.747-1.458-.286-2.937-.477-4.41-.68-.51-.072-1.036-.065-1.58-.093m-12.476-8.68c.18-.01.347-.026.512-.026H29.71c.417.004.418.004.418.404 0 1.43-.007 2.861.006 4.293.003.277-.073.363-.365.361-2.068-.011-4.135-.005-6.203-.005-.424 0-.424 0-.425.429-.002.714.01 1.43-.01 2.144-.005.243.097.293.306.31 1.411.122 2.826.22 4.23.387 1.295.154 2.578.4 3.782.92.339.146.667.344.954.572.565.454.574 1.13.046 1.626-.6.563-1.371.805-2.147 1.015-1.5.406-3.036.625-4.586.75l-2.56.205c-.005.099-.015.206-.015.315v8.278c0 .436-.003.436-.455.436h-4.636c-.41 0-.417-.007-.417-.416-.001-2.74 0-5.479-.003-8.217 0-.449-.004-.432-.47-.48-1.533-.157-3.068-.298-4.593-.506-1.052-.143-2.094-.392-3.048-.872-.327-.165-.642-.39-.894-.652-.394-.41-.384-.963.044-1.342.342-.3.747-.562 1.167-.743 1.163-.506 2.41-.73 3.661-.887 1.292-.161 2.59-.26 3.886-.377.168-.014.249-.066.249-.236-.005-.808-.006-1.616 0-2.422.003-.257-.162-.239-.336-.239l-3.57.002c-.93 0-1.859-.003-2.79.001-.178 0-.292-.017-.29-.242.009-1.554.006-3.106.007-4.66 0-.03.012-.058.03-.126" transform="translate(277 236)"/>
                    <path fill="#00A579" fill-rule="nonzero" d="M23.16 18.699c.544.028 1.067.021 1.58.093 1.472.203 2.95.394 4.409.68.768.149 1.504.468 2.24.747.18.067.303.277.452.421-.152.14-.28.33-.46.415-.982.475-2.047.682-3.115.866-3.199.557-6.432.632-9.666.538-2.48-.071-4.955-.27-7.366-.908-.539-.143-1.066-.349-1.573-.583-.437-.203-.424-.42-.003-.668.827-.483 1.753-.7 2.678-.905 1.519-.333 3.056-.53 4.609-.625.69-.043.688-.05.688.624s.006 1.35 0 2.023c-.003.207.05.319.292.32 1.116.011 2.234.039 3.35.052.49.005.981-.02 1.472-.008.295.008.405-.094.399-.39-.015-.816-.004-1.634-.003-2.452 0-.06.007-.122.015-.24" transform="translate(277 236)"/>
                </g>
                <g fill-rule="nonzero" filter="url(#db6gljtx4t)" transform="translate(423.2 215.2)">
                    <path fill="#78D5FF" d="M94.279 40.272c.474 0 .88-.168 1.216-.502.337-.335.505-.738.505-1.21V24.148c0-1.417-.277-2.756-.831-4.016-.554-1.26-1.306-2.362-2.256-3.307-.95-.945-2.057-1.693-3.324-2.244-1.266-.552-2.612-.827-4.036-.827-1.781 0-3.433.413-4.957 1.24-1.523.827-2.76 1.969-3.71 3.425-.989-1.456-2.245-2.598-3.769-3.425-1.523-.827-3.176-1.24-4.956-1.24-1.425 0-2.77.275-4.037.827-1.266.55-2.374 1.299-3.324 2.244-.95.945-1.702 2.047-2.256 3.307-.554 1.26-.83 2.599-.83 4.016v14.41c0 .473.178.876.534 1.21.356.335.771.503 1.246.503s.88-.168 1.217-.502c.336-.335.505-.738.505-1.21V24.148c0-.945.188-1.84.564-2.687.375-.847.87-1.585 1.484-2.215.613-.63 1.345-1.122 2.196-1.476.85-.355 1.75-.532 2.7-.532.95 0 1.85.177 2.701.532.851.354 1.593.846 2.226 1.476.634.63 1.128 1.368 1.484 2.215.357.846.535 1.742.535 2.687v14.41c0 .473.178.876.534 1.21.356.335.772.503 1.246.503.475 0 .88-.168 1.217-.502.337-.335.505-.738.505-1.21V24.148c0-.945.188-1.84.564-2.687.376-.847.87-1.585 1.484-2.215.613-.63 1.345-1.122 2.196-1.476.85-.355 1.751-.532 2.7-.532.95 0 1.85.177 2.702.532.85.354 1.592.846 2.226 1.476.633.63 1.127 1.368 1.484 2.215.356.846.534 1.742.534 2.687v14.41c0 .473.178.876.534 1.21.356.335.772.503 1.247.503z"/>
                    <path fill="#08A1E7" d="M59.543 40.272c.474 0 .878-.168 1.213-.502.335-.335.502-.738.502-1.21V24.148c0-1.417-.275-2.756-.827-4.016-.552-1.26-1.302-2.362-2.248-3.307-.946-.945-2.05-1.693-3.312-2.244-1.261-.552-2.602-.827-4.021-.827-1.774 0-3.42.413-4.938 1.24-1.518.827-2.75 1.969-3.696 3.425-.986-1.456-2.238-2.598-3.756-3.425-1.518-.827-3.164-1.24-4.938-1.24-1.42 0-2.76.275-4.021.827-1.262.55-2.366 1.299-3.312 2.244-.946.945-1.695 2.047-2.247 3.307-.552 1.26-.828 2.599-.828 4.016v14.41c0 .473.177.876.532 1.21.355.335.769.503 1.242.503s.877-.168 1.212-.502c.335-.335.503-.738.503-1.21V24.148c0-.945.187-1.84.562-2.687.374-.847.867-1.585 1.478-2.215.611-.63 1.34-1.122 2.188-1.476.848-.355 1.745-.532 2.691-.532.946 0 1.843.177 2.691.532.848.354 1.587.846 2.218 1.476.63.63 1.123 1.368 1.478 2.215.355.846.533 1.742.533 2.687v14.41c0 .473.177.876.532 1.21.355.335.769.503 1.242.503s.877-.168 1.212-.502c.335-.335.503-.738.503-1.21V24.148c0-.945.187-1.84.562-2.687.374-.847.867-1.585 1.478-2.215.611-.63 1.34-1.122 2.188-1.476.848-.355 1.745-.532 2.691-.532.946 0 1.843.177 2.69.532.848.354 1.588.846 2.219 1.476.63.63 1.123 1.368 1.478 2.215.355.846.532 1.742.532 2.687v14.41c0 .473.178.876.533 1.21.354.335.768.503 1.241.503z"/>
                    <path fill="#1183B7" d="M24.808 0c.472 0 .874.167 1.208.5.334.334.501.736.501 1.207v25.892l-.007.458c-.053 1.67-.394 3.234-1.024 4.69-.688 1.59-1.64 2.992-2.858 4.208-1.218 1.216-2.632 2.168-4.243 2.854-1.61.687-3.32 1.03-5.127 1.03-1.846 0-3.565-.343-5.156-1.03-1.59-.686-2.995-1.638-4.213-2.854-1.218-1.216-2.17-2.618-2.858-4.207C.344 31.158 0 29.443 0 27.598c0-1.804.344-3.51 1.031-5.119.688-1.608 1.64-3.02 2.858-4.237 1.218-1.216 2.622-2.167 4.213-2.854 1.591-.686 3.31-1.03 5.156-1.03 2.2 0 4.282.53 6.247 1.59 1.375.745 2.553 1.667 3.535 2.765V1.707l.008-.174c.037-.397.201-.741.493-1.033.334-.333.756-.5 1.267-.5zM13.471 17.583c-1.336 0-2.603.256-3.802.767-1.198.51-2.24 1.208-3.123 2.092-.885.884-1.582 1.926-2.093 3.124-.51 1.199-.766 2.466-.766 3.802 0 1.375.255 2.652.766 3.831.51 1.179 1.208 2.21 2.093 3.094.884.885 1.925 1.582 3.123 2.093 1.199.51 2.466.766 3.802.766 1.336 0 2.603-.255 3.802-.766 1.198-.51 2.24-1.208 3.124-2.093.884-.884 1.581-1.915 2.092-3.094.511-1.179.767-2.456.767-3.831 0-1.336-.256-2.603-.767-3.802-.51-1.198-1.208-2.24-2.092-3.124-.884-.884-1.926-1.581-3.124-2.092-1.199-.511-2.466-.767-3.802-.767z"/>
                </g>
            </g>
        </g>
    </g>
</svg>
