<svg width="40" height="40" viewBox="0 0 40 40" fill="none" xmlns="http://www.w3.org/2000/svg">
<g clip-path="url(#clip0_13559_129580)">
<rect width="40" height="40" rx="8" fill="url(#paint0_linear_13559_129580)"/>
<path d="M20 40C31.0457 40 40 31.0457 40 20C40 8.9543 31.0457 0 20 0C8.9543 0 0 8.9543 0 20C0 31.0457 8.9543 40 20 40Z" fill="url(#paint1_linear_13559_129580)"/>
<path d="M34.5576 20.2857H30.982C30.982 13.0516 25.0542 7.1875 17.7415 7.1875C10.5192 7.1875 4.64749 12.908 4.5038 20.0182C4.35511 27.3678 11.3254 33.75 18.7559 33.75H19.6906C26.2415 33.75 35.0217 28.6771 36.3936 22.4961C36.647 21.3567 35.737 20.2857 34.5576 20.2857ZM12.4279 20.6079C12.4279 21.5753 11.6281 22.3665 10.6502 22.3665C9.67227 22.3665 8.87249 21.575 8.87249 20.6079V17.7629C8.87249 16.7955 9.67227 16.0043 10.6502 16.0043C11.6281 16.0043 12.4279 16.7955 12.4279 17.7629V20.6079ZM18.6009 20.6079C18.6009 21.5753 17.8011 22.3665 16.8232 22.3665C15.8453 22.3665 15.0455 21.575 15.0455 20.6079V17.7629C15.0455 16.7955 15.8456 16.0043 16.8232 16.0043C17.8011 16.0043 18.6009 16.7955 18.6009 17.7629V20.6079Z" fill="url(#paint2_linear_13559_129580)"/>
</g>
<defs>
<linearGradient id="paint0_linear_13559_129580" x1="20" y1="0" x2="20" y2="40" gradientUnits="userSpaceOnUse">
<stop stop-color="#534BB1"/>
<stop offset="1" stop-color="#551BF9"/>
</linearGradient>
<linearGradient id="paint1_linear_13559_129580" x1="20" y1="0" x2="20" y2="40" gradientUnits="userSpaceOnUse">
<stop stop-color="#534BB1"/>
<stop offset="1" stop-color="#551BF9"/>
</linearGradient>
<linearGradient id="paint2_linear_13559_129580" x1="20.4688" y1="7.1875" x2="20.4688" y2="33.75" gradientUnits="userSpaceOnUse">
<stop stop-color="white"/>
<stop offset="1" stop-color="white" stop-opacity="0.82"/>
</linearGradient>
<clipPath id="clip0_13559_129580">
<rect width="40" height="40" rx="8" fill="white"/>
</clipPath>
</defs>
</svg>
