<svg width="20" height="20" viewBox="0 0 20 20" fill="none" xmlns="http://www.w3.org/2000/svg">
<path d="M12.5026 10.0001L8.83317 12.7502V7.25001L12.5026 10.0001ZM2.1665 10.0001C2.1665 5.67622 5.67598 2.16675 9.99984 2.16675C14.3237 2.16675 17.8332 5.67622 17.8332 10.0001C17.8332 14.3239 14.3237 17.8334 9.99984 17.8334C5.67598 17.8334 2.1665 14.3239 2.1665 10.0001ZM2.83317 10.0001C2.83317 13.9512 6.0487 17.1667 9.99984 17.1667C13.951 17.1667 17.1665 13.9512 17.1665 10.0001C17.1665 6.04894 13.951 2.83341 9.99984 2.83341C6.0487 2.83341 2.83317 6.04894 2.83317 10.0001Z" fill="currentColor" stroke="currentColor"/>
</svg>
