<svg width="225" height="91" viewBox="0 0 225 91" fill="none" xmlns="http://www.w3.org/2000/svg">
<path d="M68.83 27.0502C68.59 28.3902 68.07 29.6102 67.27 30.7102C66.47 31.7902 65.4 32.6502 64.06 33.2902C62.74 33.9302 61.22 34.2502 59.5 34.2502H56.86L55.66 41.0002H49L52.75 19.7602H62.05C64.31 19.7602 66.03 20.2702 67.21 21.2902C68.39 22.3102 68.98 23.7102 68.98 25.4902C68.98 25.9302 68.93 26.4502 68.83 27.0502ZM59.68 29.0002C61.04 29.0002 61.84 28.3502 62.08 27.0502C62.12 26.8102 62.14 26.6402 62.14 26.5402C62.14 25.5802 61.55 25.1002 60.37 25.1002H58.48L57.79 29.0002H59.68ZM78.8924 41.2102C77.0924 41.2102 75.5124 40.8402 74.1524 40.1002C72.7924 39.3602 71.7424 38.3202 71.0024 36.9802C70.2624 35.6202 69.8924 34.0702 69.8924 32.3302C69.8924 29.7902 70.4124 27.5502 71.4524 25.6102C72.5124 23.6502 73.9824 22.1302 75.8624 21.0502C77.7624 19.9502 79.9424 19.4002 82.4024 19.4002C84.2424 19.4002 85.8424 19.7702 87.2024 20.5102C88.5824 21.2302 89.6424 22.2602 90.3824 23.6002C91.1224 24.9202 91.4924 26.4502 91.4924 28.1902C91.4924 30.7102 90.9624 32.9602 89.9024 34.9402C88.8624 36.9202 87.3824 38.4602 85.4624 39.5602C83.5624 40.6602 81.3724 41.2102 78.8924 41.2102ZM79.9124 35.0002C80.9524 35.0002 81.8524 34.7302 82.6124 34.1902C83.3924 33.6302 83.9824 32.9002 84.3824 32.0002C84.7824 31.0802 84.9824 30.0902 84.9824 29.0302C84.9824 27.9302 84.6824 27.0802 84.0824 26.4802C83.5024 25.8602 82.6624 25.5502 81.5624 25.5502C80.5224 25.5502 79.6124 25.8202 78.8324 26.3602C78.0524 26.9002 77.4524 27.6302 77.0324 28.5502C76.6324 29.4502 76.4324 30.4302 76.4324 31.4902C76.4324 32.5902 76.7224 33.4502 77.3024 34.0702C77.9024 34.6902 78.7724 35.0002 79.9124 35.0002ZM99.685 35.9602H106.105L105.205 41.0002H92.125L95.875 19.7602H102.535L99.685 35.9602ZM131.451 19.7602L121.221 34.5502L120.081 41.0002H113.421L114.561 34.5502L109.551 19.7602H117.171L119.241 27.2902L123.951 19.7602H131.451ZM138.335 41.2102C135.735 41.2102 133.655 40.6902 132.095 39.6502C130.555 38.6102 129.785 37.0902 129.785 35.0902C129.785 34.8902 129.805 34.5902 129.845 34.1902H136.925C136.865 34.8102 136.955 35.2702 137.195 35.5702C137.455 35.8702 137.875 36.0202 138.455 36.0202C138.815 36.0202 139.115 35.9302 139.355 35.7502C139.595 35.5702 139.715 35.3102 139.715 34.9702C139.715 34.4902 139.475 34.0902 138.995 33.7702C138.535 33.4502 137.785 33.0702 136.745 32.6302C135.605 32.1502 134.665 31.6902 133.925 31.2502C133.205 30.8102 132.575 30.2102 132.035 29.4502C131.495 28.6902 131.225 27.7402 131.225 26.6002C131.225 25.1002 131.595 23.8102 132.335 22.7302C133.095 21.6302 134.145 20.8002 135.485 20.2402C136.825 19.6802 138.355 19.4002 140.075 19.4002C141.615 19.4002 142.985 19.6402 144.185 20.1202C145.405 20.6002 146.355 21.3002 147.035 22.2202C147.735 23.1202 148.085 24.1902 148.085 25.4302C148.085 25.5902 148.065 25.8702 148.025 26.2702H140.855C140.895 26.0302 140.915 25.8702 140.915 25.7902C140.915 25.4102 140.805 25.1202 140.585 24.9202C140.365 24.7002 140.065 24.5902 139.685 24.5902C139.345 24.5902 139.065 24.6902 138.845 24.8902C138.625 25.0902 138.515 25.3502 138.515 25.6702C138.515 26.1102 138.745 26.5002 139.205 26.8402C139.665 27.1602 140.395 27.5602 141.395 28.0402C142.535 28.5802 143.475 29.0902 144.215 29.5702C144.975 30.0502 145.625 30.6902 146.165 31.4902C146.705 32.2702 146.975 33.2302 146.975 34.3702C146.975 35.6702 146.625 36.8402 145.925 37.8802C145.245 38.9202 144.255 39.7402 142.955 40.3402C141.655 40.9202 140.115 41.2102 138.335 41.2102ZM182.813 19.7602L174.203 41.0002H165.923L165.593 28.9402L161.003 41.0002H152.723L151.613 19.7602H158.783L158.363 33.1402L163.583 19.7602H170.843L171.353 33.1402L175.643 19.7602H182.813ZM195.641 37.7902H188.561L186.941 41.0002H179.951L191.471 19.7602H199.151L203.141 41.0002H196.121L195.641 37.7902ZM194.921 32.7802L194.051 26.8702L191.081 32.7802H194.921ZM224.484 27.0502C224.244 28.3902 223.724 29.6102 222.924 30.7102C222.124 31.7902 221.054 32.6502 219.714 33.2902C218.394 33.9302 216.874 34.2502 215.154 34.2502H212.514L211.314 41.0002H204.654L208.404 19.7602H217.704C219.964 19.7602 221.684 20.2702 222.864 21.2902C224.044 22.3102 224.634 23.7102 224.634 25.4902C224.634 25.9302 224.584 26.4502 224.484 27.0502ZM215.334 29.0002C216.694 29.0002 217.494 28.3502 217.734 27.0502C217.774 26.8102 217.794 26.6402 217.794 26.5402C217.794 25.5802 217.204 25.1002 216.024 25.1002H214.134L213.444 29.0002H215.334Z" fill="white"/>
<path fill-rule="evenodd" clip-rule="evenodd" d="M7.61415 50.2411L18.1577 39.6976C18.4788 39.3765 18.6592 38.941 18.6592 38.4868C18.6592 38.0326 18.4788 37.5971 18.1577 37.276C14.3578 33.4762 2.92054 22.0389 2.92054 22.0389C2.85099 21.9889 2.78454 21.9327 2.72206 21.8701L0.466769 19.6149C-0.15559 18.9925 -0.15559 17.982 0.466769 17.3596L17.3596 0.466765C17.9191 -0.0927235 18.7924 -0.149253 19.4152 0.297255C19.518 0.360855 19.6152 0.437252 19.7043 0.526407L23.6546 4.47672L19.0022 9.12918C18.8416 9.08014 18.6732 9.05455 18.5021 9.05455C18.048 9.05455 17.6125 9.23497 17.2913 9.55609C15.3431 11.5044 11.5342 15.3133 9.58591 17.2615C9.2648 17.5827 9.08437 18.0182 9.08437 18.4723C9.08437 18.9265 9.2648 19.362 9.58591 19.6831C13.7558 23.853 27.2661 37.3633 27.2661 37.3633C27.8885 37.9857 27.8885 38.9962 27.2661 39.6186L25.0108 41.8738C24.978 41.9066 24.9442 41.9377 24.9093 41.967L12.1247 54.7517L13.6056 56.2326L5.40099 57.0452L6.21357 48.8406L7.61415 50.2411ZM29.1775 9.99975L32.99 13.8122C33.197 14.0193 33.3352 14.2694 33.4045 14.5339C33.5695 15.0789 33.4368 15.6951 33.0064 16.1256L26.5834 22.5485C25.961 23.1709 24.9505 23.1709 24.3281 22.5485L22.0729 20.2932C21.4505 19.6709 21.4505 18.6604 22.0729 18.038C22.0729 18.038 23.0676 17.0432 23.923 16.1879C24.2441 15.8668 24.4245 15.4312 24.4245 14.9771C24.4245 14.9061 24.4201 14.8355 24.4114 14.7658L29.1775 9.99975Z" fill="white" fill-opacity="0.5"/>
<path fill-rule="evenodd" clip-rule="evenodd" d="M26.4694 2.62664L25.0616 1.21883L33.2662 0.40625L32.4535 8.61082L30.9799 7.13718L20.4704 17.6468C20.1492 17.9679 19.9688 18.4034 19.9688 18.8575C19.9688 19.3117 20.1492 19.7473 20.4704 20.0684C24.2702 23.8682 35.7075 35.3055 35.7075 35.3055C35.777 35.3555 35.8435 35.4117 35.906 35.4742L38.1613 37.7295C38.7836 38.3518 38.7836 39.3624 38.1613 39.9847L21.2684 56.8776C20.7089 57.4371 19.8357 57.4936 19.2128 57.0471C19.11 56.9835 19.0128 56.9071 18.9237 56.818L15.007 52.9012L19.678 48.2302C19.8227 48.2694 19.9733 48.2898 20.1259 48.2898C20.58 48.2898 21.0155 48.1094 21.3367 47.7883C23.2849 45.84 27.0938 42.0311 29.0421 40.0828C29.3632 39.7617 29.5436 39.3262 29.5436 38.872C29.5436 38.4179 29.3632 37.9823 29.0421 37.6612C24.8722 33.4913 11.3619 19.981 11.3619 19.981C10.7396 19.3587 10.7396 18.3481 11.3619 17.7258L13.6172 15.4705C13.65 15.4377 13.6839 15.4067 13.7187 15.3773L26.4694 2.62664ZM9.48409 47.3785L5.63807 43.5324C5.43098 43.3253 5.29278 43.0752 5.2235 42.8107C5.05848 42.2657 5.19122 41.6495 5.62166 41.219L12.0446 34.7961C12.667 34.1737 13.6775 34.1737 14.2999 34.7961L16.5552 37.0513C17.1775 37.6737 17.1775 38.6842 16.5552 39.3066C16.5552 39.3066 15.5604 40.3014 14.7051 41.1567C14.3839 41.4778 14.2035 41.9134 14.2035 42.3675C14.2035 42.4585 14.2108 42.5488 14.2249 42.6376L9.48409 47.3785Z" fill="white"/>
</svg>
