<?xml version="1.0" encoding="UTF-8"?><svg id="Layer_1" xmlns="http://www.w3.org/2000/svg" xmlns:xlink="http://www.w3.org/1999/xlink" viewBox="0 0 500 500"><defs><style>.cls-1{fill:url(#linear-gradient);}</style><linearGradient id="linear-gradient" x1="54.83" y1="392.31" x2="459.03" y2="97.58" gradientUnits="userSpaceOnUse"><stop offset="0" stop-color="#a726c1"/><stop offset=".88" stop-color="#803bdf"/><stop offset="1" stop-color="#7b3fe4"/></linearGradient></defs><path class="cls-1" d="m364.03,335.08l111.55-64.4c5.9-3.41,9.57-9.76,9.57-16.58V125.28c0-6.81-3.67-13.17-9.57-16.58l-111.55-64.4c-5.9-3.41-13.24-3.4-19.14,0l-111.55,64.4c-5.9,3.41-9.57,9.76-9.57,16.58v230.19l-78.22,45.15-78.22-45.15v-90.33l78.22-45.15,51.6,29.78v-60.59l-42.03-24.26c-2.9-1.67-6.21-2.55-9.57-2.55s-6.67.88-9.57,2.55L24.42,229.33c-5.9,3.41-9.57,9.76-9.57,16.58v128.81c0,6.81,3.67,13.17,9.57,16.58l111.55,64.41c5.9,3.4,13.23,3.4,19.14,0l111.55-64.4c5.9-3.41,9.57-9.77,9.57-16.58v-230.19l1.41-.81,76.81-44.34,78.22,45.16v90.32l-78.22,45.16-51.52-29.74v60.59l41.95,24.23c5.9,3.4,13.24,3.4,19.14,0Z"/></svg>