<svg width="229" height="58" viewBox="0 0 229 58" fill="none" xmlns="http://www.w3.org/2000/svg">
<path d="M72.83 26.0503C72.59 27.3903 72.07 28.6103 71.27 29.7103C70.47 30.7903 69.4 31.6503 68.06 32.2903C66.74 32.9303 65.22 33.2503 63.5 33.2503H60.86L59.66 40.0003H53L56.75 18.7603H66.05C68.31 18.7603 70.03 19.2703 71.21 20.2903C72.39 21.3103 72.98 22.7103 72.98 24.4903C72.98 24.9303 72.93 25.4503 72.83 26.0503ZM63.68 28.0003C65.04 28.0003 65.84 27.3503 66.08 26.0503C66.12 25.8103 66.14 25.6403 66.14 25.5403C66.14 24.5803 65.55 24.1003 64.37 24.1003H62.48L61.79 28.0003H63.68ZM82.8924 40.2103C81.0924 40.2103 79.5124 39.8403 78.1524 39.1003C76.7924 38.3603 75.7424 37.3203 75.0024 35.9803C74.2624 34.6203 73.8924 33.0703 73.8924 31.3303C73.8924 28.7903 74.4124 26.5503 75.4524 24.6103C76.5124 22.6503 77.9824 21.1303 79.8624 20.0503C81.7624 18.9503 83.9424 18.4003 86.4024 18.4003C88.2424 18.4003 89.8424 18.7703 91.2024 19.5103C92.5824 20.2303 93.6424 21.2603 94.3824 22.6003C95.1224 23.9203 95.4924 25.4503 95.4924 27.1903C95.4924 29.7103 94.9624 31.9603 93.9024 33.9403C92.8624 35.9203 91.3824 37.4603 89.4624 38.5603C87.5624 39.6603 85.3724 40.2103 82.8924 40.2103ZM83.9124 34.0003C84.9524 34.0003 85.8524 33.7303 86.6124 33.1903C87.3924 32.6303 87.9824 31.9003 88.3824 31.0003C88.7824 30.0803 88.9824 29.0903 88.9824 28.0303C88.9824 26.9303 88.6824 26.0803 88.0824 25.4803C87.5024 24.8603 86.6624 24.5503 85.5624 24.5503C84.5224 24.5503 83.6124 24.8203 82.8324 25.3603C82.0524 25.9003 81.4524 26.6303 81.0324 27.5503C80.6324 28.4503 80.4324 29.4303 80.4324 30.4903C80.4324 31.5903 80.7224 32.4503 81.3024 33.0703C81.9024 33.6903 82.7724 34.0003 83.9124 34.0003ZM103.685 34.9603H110.105L109.205 40.0003H96.125L99.875 18.7603H106.535L103.685 34.9603ZM135.451 18.7603L125.221 33.5503L124.081 40.0003H117.421L118.561 33.5503L113.551 18.7603H121.171L123.241 26.2903L127.951 18.7603H135.451ZM142.335 40.2103C139.735 40.2103 137.655 39.6903 136.095 38.6503C134.555 37.6103 133.785 36.0903 133.785 34.0903C133.785 33.8903 133.805 33.5903 133.845 33.1903H140.925C140.865 33.8103 140.955 34.2703 141.195 34.5703C141.455 34.8703 141.875 35.0203 142.455 35.0203C142.815 35.0203 143.115 34.9303 143.355 34.7503C143.595 34.5703 143.715 34.3103 143.715 33.9703C143.715 33.4903 143.475 33.0903 142.995 32.7703C142.535 32.4503 141.785 32.0703 140.745 31.6303C139.605 31.1503 138.665 30.6903 137.925 30.2503C137.205 29.8103 136.575 29.2103 136.035 28.4503C135.495 27.6903 135.225 26.7403 135.225 25.6003C135.225 24.1003 135.595 22.8103 136.335 21.7303C137.095 20.6303 138.145 19.8003 139.485 19.2403C140.825 18.6803 142.355 18.4003 144.075 18.4003C145.615 18.4003 146.985 18.6403 148.185 19.1203C149.405 19.6003 150.355 20.3003 151.035 21.2203C151.735 22.1203 152.085 23.1903 152.085 24.4303C152.085 24.5903 152.065 24.8703 152.025 25.2703H144.855C144.895 25.0303 144.915 24.8703 144.915 24.7903C144.915 24.4103 144.805 24.1203 144.585 23.9203C144.365 23.7003 144.065 23.5903 143.685 23.5903C143.345 23.5903 143.065 23.6903 142.845 23.8903C142.625 24.0903 142.515 24.3503 142.515 24.6703C142.515 25.1103 142.745 25.5003 143.205 25.8403C143.665 26.1603 144.395 26.5603 145.395 27.0403C146.535 27.5803 147.475 28.0903 148.215 28.5703C148.975 29.0503 149.625 29.6903 150.165 30.4903C150.705 31.2703 150.975 32.2303 150.975 33.3703C150.975 34.6703 150.625 35.8403 149.925 36.8803C149.245 37.9203 148.255 38.7403 146.955 39.3403C145.655 39.9203 144.115 40.2103 142.335 40.2103ZM186.813 18.7603L178.203 40.0003H169.923L169.593 27.9403L165.003 40.0003H156.723L155.613 18.7603H162.783L162.363 32.1403L167.583 18.7603H174.843L175.353 32.1403L179.643 18.7603H186.813ZM199.641 36.7903H192.561L190.941 40.0003H183.951L195.471 18.7603H203.151L207.141 40.0003H200.121L199.641 36.7903ZM198.921 31.7803L198.051 25.8703L195.081 31.7803H198.921ZM228.484 26.0503C228.244 27.3903 227.724 28.6103 226.924 29.7103C226.124 30.7903 225.054 31.6503 223.714 32.2903C222.394 32.9303 220.874 33.2503 219.154 33.2503H216.514L215.314 40.0003H208.654L212.404 18.7603H221.704C223.964 18.7603 225.684 19.2703 226.864 20.2903C228.044 21.3103 228.634 22.7103 228.634 24.4903C228.634 24.9303 228.584 25.4503 228.484 26.0503ZM219.334 28.0003C220.694 28.0003 221.494 27.3503 221.734 26.0503C221.774 25.8103 221.794 25.6403 221.794 25.5403C221.794 24.5803 221.204 24.1003 220.024 24.1003H218.134L217.444 28.0003H219.334Z" fill="#333333"/>
<path fill-rule="evenodd" clip-rule="evenodd" d="M7.61415 50.2411L18.1577 39.6976C18.4788 39.3765 18.6592 38.941 18.6592 38.4868C18.6592 38.0326 18.4788 37.5971 18.1577 37.276C14.3578 33.4761 2.92054 22.0389 2.92054 22.0389C2.85099 21.9889 2.78454 21.9327 2.72206 21.8701L0.466769 19.6149C-0.15559 18.9925 -0.15559 17.982 0.466769 17.3596L17.3596 0.466765C17.9191 -0.0927235 18.7924 -0.149253 19.4152 0.297255C19.518 0.360855 19.6152 0.437252 19.7043 0.526407L23.6546 4.47672L19.0022 9.12918C18.8416 9.08014 18.6732 9.05455 18.5021 9.05455C18.048 9.05455 17.6125 9.23497 17.2913 9.55609C15.3431 11.5044 11.5342 15.3133 9.58591 17.2615C9.2648 17.5827 9.08437 18.0182 9.08437 18.4723C9.08437 18.9265 9.2648 19.362 9.58591 19.6831C13.7558 23.853 27.2661 37.3633 27.2661 37.3633C27.8885 37.9857 27.8885 38.9962 27.2661 39.6186L25.0108 41.8738C24.978 41.9066 24.9442 41.9377 24.9093 41.967L12.1247 54.7517L13.6056 56.2326L5.40099 57.0452L6.21357 48.8406L7.61415 50.2411V50.2411ZM29.1775 9.99975L32.99 13.8122C33.197 14.0193 33.3352 14.2694 33.4045 14.5339C33.5695 15.0789 33.4368 15.6951 33.0064 16.1256L26.5834 22.5485C25.961 23.1709 24.9505 23.1709 24.3281 22.5485L22.0729 20.2932C21.4505 19.6709 21.4505 18.6604 22.0729 18.038C22.0729 18.038 23.0676 17.0432 23.923 16.1879C24.2441 15.8668 24.4245 15.4312 24.4245 14.9771C24.4245 14.9061 24.4201 14.8355 24.4114 14.7658L29.1775 9.99975V9.99975Z" fill="url(#paint0_linear)"/>
<path fill-rule="evenodd" clip-rule="evenodd" d="M26.4694 2.62661L25.0616 1.2188L33.2662 0.406219L32.4535 8.61079L30.9799 7.13715L20.4704 17.6467C20.1492 17.9678 19.9688 18.4034 19.9688 18.8575C19.9688 19.3117 20.1492 19.7472 20.4704 20.0683C24.2702 23.8682 35.7075 35.3055 35.7075 35.3055C35.777 35.3554 35.8435 35.4117 35.906 35.4742L38.1613 37.7295C38.7836 38.3518 38.7836 39.3623 38.1613 39.9847L21.2684 56.8776C20.7089 57.437 19.8357 57.4936 19.2128 57.0471C19.11 56.9835 19.0129 56.9071 18.9237 56.8179L15.007 52.9012L19.678 48.2302C19.8227 48.2694 19.9733 48.2898 20.1259 48.2898C20.58 48.2898 21.0155 48.1093 21.3367 47.7882C23.2849 45.8399 27.0938 42.0311 29.0421 40.0828C29.3632 39.7617 29.5436 39.3261 29.5436 38.872C29.5436 38.4178 29.3632 37.9823 29.0421 37.6612C24.8722 33.4913 11.3619 19.981 11.3619 19.981C10.7396 19.3587 10.7396 18.3481 11.3619 17.7257L13.6172 15.4705C13.65 15.4377 13.6839 15.4066 13.7187 15.3773L26.4694 2.62661V2.62661ZM9.48409 47.3784L5.63807 43.5324C5.43098 43.3253 5.29278 43.0751 5.2235 42.8106C5.05848 42.2657 5.19122 41.6495 5.62166 41.219L12.0446 34.7961C12.667 34.1737 13.6775 34.1737 14.2999 34.7961L16.5552 37.0513C17.1775 37.6737 17.1775 38.6842 16.5552 39.3065C16.5552 39.3065 15.5604 40.3013 14.7051 41.1567C14.3839 41.4778 14.2035 41.9133 14.2035 42.3675C14.2035 42.4585 14.2108 42.5488 14.2249 42.6376L9.48409 47.3784V47.3784Z" fill="url(#paint1_linear)"/>
<defs>
<linearGradient id="paint0_linear" x1="-9.5" y1="42" x2="30" y2="2.5" gradientUnits="userSpaceOnUse">
<stop offset="0.514716" stop-color="#35C3F9"/>
<stop offset="1" stop-color="#35C3F9"/>
</linearGradient>
<linearGradient id="paint1_linear" x1="27.2977" y1="-5.00003" x2="-14" y2="36.2977" gradientUnits="userSpaceOnUse">
<stop stop-color="#FFCA00"/>
<stop offset="1" stop-color="#FFDA55"/>
</linearGradient>
</defs>
</svg>
