<svg width="64" height="64" viewBox="0 0 64 64" fill="none" xmlns="http://www.w3.org/2000/svg">
<path d="M53.5875 30.3751C52.7875 19.7376 44.275 11.2126 33.625 10.4126C33.0875 10.3751 32.55 10.3501 32 10.3501C31.45 10.3501 30.9125 10.3751 30.375 10.4126C26.475 10.7001 22.8625 12.0251 19.8125 14.1251L22.15 16.4626C24.5625 14.9251 27.375 13.9376 30.375 13.6626C30.9125 13.6126 31.45 13.5876 32 13.5876C32.55 13.5876 33.0875 13.6126 33.625 13.6626C42.475 14.4376 49.55 21.5126 50.325 30.3626C50.375 30.9001 50.4 31.4376 50.4 31.9876C50.4 32.5376 50.375 33.0751 50.325 33.6126C50.0625 36.6126 49.075 39.4251 47.5375 41.8376L49.875 44.1751C51.9625 41.1251 53.2875 37.5001 53.5875 33.6126C53.625 33.0751 53.65 32.5376 53.65 31.9876C53.65 31.4376 53.625 30.9126 53.5875 30.3751ZM41.6625 47.6501C39.2875 49.1251 36.55 50.0751 33.625 50.3251C33.0875 50.3751 32.55 50.4001 32 50.4001C31.45 50.4001 30.9125 50.3751 30.375 50.3251C21.525 49.5501 14.45 42.4751 13.675 33.6251C13.625 33.0876 13.6 32.5501 13.6 32.0001C13.6 31.4501 13.625 30.9126 13.675 30.3751C13.9375 27.4376 14.8875 24.7126 16.35 22.3376L14 19.9876C11.975 23.0001 10.7 26.5501 10.4125 30.3751C10.375 30.9126 10.35 31.4501 10.35 32.0001C10.35 32.5501 10.375 33.0876 10.4125 33.6251C11.2 44.2751 19.725 52.7876 30.375 53.5876C30.9125 53.6251 31.45 53.6501 32 53.6501C32.55 53.6501 33.0875 53.6251 33.625 53.5876C37.45 53.3001 41 52.0251 44.0125 50.0001L41.6625 47.6501ZM17.8125 15.6626C17 16.3751 16.225 17.1501 15.525 17.9751L17.825 20.2751C18.5125 19.4376 19.2875 18.6626 20.1125 17.9626L17.8125 15.6626Z" fill="#1D7A5F"/>
<path d="M32 16.8499C31.1 16.8499 30.375 16.1249 30.375 15.2249V7.6499C30.375 6.7499 31.1 6.0249 32 6.0249C32.9 6.0249 33.625 6.7499 33.625 7.6499V15.2249C33.625 16.1249 32.9 16.8499 32 16.8499Z" fill="#27A27E"/>
<path d="M56.35 33.625H48.775C47.875 33.625 47.15 32.9 47.15 32C47.15 31.1 47.875 30.375 48.775 30.375H56.35C57.25 30.375 57.975 31.1 57.975 32C57.975 32.9 57.25 33.625 56.35 33.625Z" fill="#27A27E"/>
<path d="M32 57.9749C31.1 57.9749 30.375 57.2499 30.375 56.3499V48.7749C30.375 47.8749 31.1 47.1499 32 47.1499C32.9 47.1499 33.625 47.8749 33.625 48.7749V56.3499C33.625 57.2499 32.9 57.9749 32 57.9749Z" fill="#27A27E"/>
<path d="M15.225 33.625H7.65003C6.75002 33.625 6.02502 32.9 6.02502 32C6.02502 31.1 6.75002 30.375 7.65003 30.375H15.225C16.125 30.375 16.85 31.1 16.85 32C16.85 32.9 16.125 33.625 15.225 33.625Z" fill="#27A27E"/>
<path d="M28.6125 26.4624L31.05 28.8999C29.95 29.2374 29.1 30.1499 28.8375 31.2874L26.35 28.7999C26.9 27.8374 27.675 27.0374 28.6125 26.4624Z" fill="#31CB9E"/>
<path d="M35.1 32.9497L37.5375 35.3872C36.9625 36.3247 36.1625 37.0997 35.2 37.6497L32.7125 35.1622C33.85 34.9122 34.7625 34.0622 35.1 32.9497Z" fill="#31CB9E"/>
<path d="M48.3375 46.1872C47.625 47.0122 46.85 47.7747 46.025 48.4747L43.725 46.1747C44.5625 45.4872 45.3375 44.7122 46.0375 43.8872L48.3375 46.1872Z" fill="#31CB9E"/>
<path d="M57.4124 57.5624C57.0999 57.8749 56.6749 58.0374 56.2624 58.0374C55.8499 58.0374 55.4249 57.8749 55.1124 57.5624L6.28745 8.7374C5.64995 8.0999 5.64995 7.0749 6.28745 6.4374C6.59995 6.1249 7.02495 5.9624 7.43745 5.9624C7.84995 5.9624 8.27495 6.1249 8.58745 6.4374L57.3999 55.2499C58.0374 55.8874 58.0374 56.9249 57.4124 57.5624Z" fill="#31CB9E"/>
</svg>
