<svg width="17" height="15" fill="none" xmlns="http://www.w3.org/2000/svg"><path fill-rule="evenodd" clip-rule="evenodd" d="M13.546.713a.75.75 0 0 1 .75.75v1.25h1.25a.75.75 0 0 1 0 1.5h-1.25v1.25a.75.75 0 0 1-1.5 0v-1.25h-1.25a.75.75 0 0 1 0-1.5h1.25v-1.25a.75.75 0 0 1 .75-.75Zm-7.75 4a2 2 0 1 0 0 4 2 2 0 0 0 0-4Zm2.4 4.548a3.5 3.5 0 1 0-4.799 0 5.527 5.527 0 0 0-3.1 4.659.75.75 0 0 0 1.498.086 4.01 4.01 0 0 1 4.001-3.793 4.01 4.01 0 0 1 4.002 3.793.75.75 0 0 0 1.497-.086 5.527 5.527 0 0 0-3.1-4.659Z" fill="#737798"/></svg>