<svg width="64" height="64" viewBox="0 0 64 64" fill="none" xmlns="http://www.w3.org/2000/svg">
<path d="M55.0401 5.12012H47.2475C40.9832 5.12012 34.9825 7.99116 30.9979 12.8001H24.3201C20.3713 12.8001 16.8724 15.1694 15.4062 18.8347L13.4977 23.6065C13.2616 24.1979 13.3345 24.8686 13.691 25.396C14.0488 25.924 14.6433 26.2401 15.2808 26.2401H20.6612L12.2977 37.1777C11.1316 38.7003 11.2756 40.8705 12.6312 42.226L13.1137 42.7086C6.9422 45.4459 5.12012 52.7073 5.12012 56.9601C5.12012 58.0206 5.979 58.8801 7.04012 58.8801C11.2916 58.8801 18.5537 57.058 21.291 50.8859L21.7736 51.3684C22.514 52.1102 23.5003 52.4884 24.4923 52.4884C25.3096 52.4884 26.1313 52.2299 26.8212 51.7038L37.7601 43.3396V48.7195C37.7601 49.3569 38.0769 49.9521 38.6036 50.3092C38.9262 50.5275 39.3012 50.6395 39.6801 50.6395C39.922 50.6395 40.164 50.5947 40.3924 50.5025L45.1643 48.594C48.8321 47.1265 51.2001 43.6276 51.2001 39.6801V33.0024C56.0097 29.0177 58.8801 23.0177 58.8801 16.7521V8.96012C58.8801 6.84236 57.1572 5.12012 55.0401 5.12012ZM18.116 22.4001L18.9729 20.2606C19.8523 18.0616 21.9502 16.6401 24.3201 16.6401H28.0027L23.5982 22.4001H18.116ZM9.15148 54.8488C9.60012 51.94 11.1144 46.9582 16.1364 45.7313L18.2683 47.8632C17.042 52.8872 12.0584 54.4008 9.15148 54.8488ZM24.4891 48.6536L24.491 48.6542L24.4891 48.6536ZM24.4891 48.6529L15.3467 39.5112L17.9854 36.0603L27.94 46.0148L24.4891 48.6529ZM43.7396 45.0273L41.6001 45.8836V40.4033L47.3601 35.9982V39.6801C47.3601 42.0494 45.9387 44.148 43.7396 45.0273ZM55.0401 16.7515C55.0401 22.0987 52.5032 27.2308 48.2561 30.4782L31.0164 43.6616L20.338 32.9832L33.5208 15.7428C36.77 11.4958 41.9022 8.96012 47.2475 8.96012H55.0401V16.7515ZM35.8401 20.4801C35.8401 24.715 39.2846 28.1601 43.5201 28.1601C47.7556 28.1601 51.2001 24.715 51.2001 20.4801C51.2001 16.2452 47.7556 12.8001 43.5201 12.8001C39.2846 12.8001 35.8401 16.2452 35.8401 20.4801ZM47.3601 20.4801C47.3601 22.5979 45.6372 24.3201 43.5201 24.3201C41.403 24.3201 39.6801 22.5979 39.6801 20.4801C39.6801 18.3624 41.403 16.6401 43.5201 16.6401C45.6372 16.6401 47.3601 18.3624 47.3601 20.4801Z" fill="#27A27E"/>
</svg>
