<?xml version="1.0" encoding="UTF-8"?>
<svg xmlns="http://www.w3.org/2000/svg" viewBox="0 0 837 288">
  <defs>
    <style>
      .cls-1 {
        fill: #fff;
      }

      .cls-2 {
        fill: #dbef88;
      }
    </style>
  </defs>
  <g id="rollux_B1_yellow_black">
    <g>
      <path class="cls-1" d="m362.73,187.19v-30.98c0-5.91-1.44-7.67-6.55-7.67h-30.66v38.64h-15.81v-92.62h46.63c13.09,0,22.67,9.1,22.67,21.56v10.06c0,7.82-3.51,12.14-6.23,14.53,2.87,2.08,6.23,6.23,6.23,13.41v33.05h-16.29Zm0-72.18c0-3.35-2.87-6.39-5.59-6.39h-31.62v24.59h29.86c5.91,0,7.34-1.6,7.34-7.19v-11.02Z"/>
      <path class="cls-1" d="m451.19,187.19h-27.79c-13.09,0-22.67-9.1-22.67-21.56v-49.5c0-12.46,9.58-21.56,22.67-21.56h27.79c13.09,0,22.67,9.1,22.67,21.56v49.5c0,12.46-9.58,21.56-22.67,21.56Zm6.71-71.86c0-3.19-2.71-5.91-5.59-5.91h-30.02c-2.87,0-5.59,2.71-5.59,5.91v51.1c0,3.19,2.71,5.91,5.59,5.91h30.02c2.87,0,5.59-2.71,5.59-5.91v-51.1Z"/>
      <path class="cls-1" d="m495.58,187.19v-92.62h16.61v77.77h41.52v14.85h-58.12Z"/>
      <path class="cls-1" d="m572.23,187.19v-92.62h16.61v77.77h41.52v14.85h-58.12Z"/>
      <path class="cls-1" d="m696.15,187.19h-24.59c-13.09,0-22.67-9.1-22.67-21.56v-71.06h16.61v71.86c0,3.19,2.71,5.91,5.59,5.91h25.55c2.88,0,5.59-2.71,5.59-5.91v-71.86h16.61v71.06c0,12.46-9.58,21.56-22.67,21.56Z"/>
      <path class="cls-1" d="m802.17,131.14l-12.61,10.54,12.93,9.42c5.59,4.15,7.35,8.14,7.35,16.13v19.96h-16.45v-18.68c0-4.79-.16-5.27-2.87-7.19l-16.61-11.98-14.21,11.98c-2.55,2.08-2.87,2.71-2.87,7.83v18.04h-16.29v-18.68c0-7.98,1.12-12.14,7.19-17.25l13.25-11.02-12.93-9.58c-4.79-3.35-7.5-7.34-7.5-15.65v-20.44h16.29v19.96c0,3.19.16,3.83,2.24,5.43l17.57,12.62,13.89-11.98c2.39-2.08,3.03-3.19,3.03-6.07v-19.96h16.45v20.92c0,8.14-3.03,11.66-7.83,15.65Z"/>
    </g>
  </g>
  <g id="rollux_B1_black_yellow">
    <g>
      <circle class="cls-2" cx="144" cy="144" r="127.49"/>
      <g>
        <polygon points="87.69 78.17 92.96 78.17 219.35 194.03 219.35 209.83 87.69 209.83 87.69 78.17"/>
        <path d="m187.36,154.61c3.62-7.14,5.66-15.22,5.66-23.78,0-29.09-23.58-52.66-52.66-52.66-10.19,0-19.7,2.9-27.76,7.91l74.76,68.53Z"/>
      </g>
    </g>
  </g>
</svg>