<svg width="1088" height="1088" viewBox="0 0 1088 1088" fill="none" xmlns="http://www.w3.org/2000/svg">
<path d="M543.836 1087.1C244.12 1087.1 0.286133 843.266 0.286133 543.55C0.286133 243.835 244.12 0 543.836 0C843.552 0 1087.39 243.835 1087.39 543.55C1087.39 843.266 843.552 1087.1 543.836 1087.1ZM543.836 41.6769C267.075 41.6769 41.9223 266.83 41.9223 543.59C41.9223 820.351 267.075 1045.5 543.836 1045.5C820.597 1045.5 1045.75 820.351 1045.75 543.59C1045.75 266.83 820.597 41.6769 543.836 41.6769Z" fill="black"/>
<path d="M297.397 301.181H316.946L785.798 730.971V789.582H297.397V301.181Z" fill="black"/>
<path d="M667.129 584.74C680.557 558.253 688.125 528.28 688.125 496.526C688.125 388.615 600.653 301.181 492.779 301.181C454.979 301.181 419.701 311.938 389.802 330.523L667.129 584.74Z" fill="black"/>
</svg>
