<svg width="24" height="18" viewBox="0 0 24 18" fill="none" xmlns="http://www.w3.org/2000/svg">
<path d="M16.453 13.4311L13.5243 12.0666C11.6015 11.1712 10.3593 9.22172 10.3593 7.10062L10.3593 4.61719L7.5468 4.61719L7.5468 3.21094L16.453 3.21094L16.453 4.61719L11.7655 4.61719L11.7655 7.10062C11.7655 8.67703 12.689 10.1264 14.1182 10.792L16.5332 11.917C16.4807 12.1383 16.453 12.3694 16.453 12.6066L16.453 13.4311Z" fill="#A9A9A9"/>
<path d="M24 15.5653L24 12.6066C24 11.7295 23.2861 11.0156 22.4091 11.0156L19.4503 11.0156C18.5733 11.0156 17.8594 11.7295 17.8594 12.6066L17.8594 15.5653C17.8594 16.4423 18.5733 17.1562 19.4503 17.1562L22.4091 17.1562C23.2861 17.1562 24 16.4423 24 15.5653V15.5653Z" fill="#A9A9A9"/>
<path d="M24 5.39344L24 2.43469C24 1.55766 23.2861 0.84375 22.4091 0.84375L19.4503 0.84375C18.5733 0.84375 17.8594 1.55766 17.8594 2.43469L17.8594 5.39344C17.8594 6.27047 18.5733 6.98437 19.4503 6.98437L22.4091 6.98437C23.2861 6.98437 24 6.27047 24 5.39344V5.39344Z" fill="#A9A9A9"/>
<path d="M6.14062 5.39344L6.14062 2.43469C6.14062 1.55766 5.42672 0.84375 4.54969 0.84375L1.59094 0.84375C0.713906 0.84375 -3.12058e-08 1.55766 -6.95421e-08 2.43469L-1.98873e-07 5.39344C-2.37209e-07 6.27047 0.713906 6.98437 1.59094 6.98437L4.54969 6.98437C5.42672 6.98437 6.14062 6.27047 6.14062 5.39344Z" fill="#A9A9A9"/>
</svg>
