<svg id="Layer_1" data-name="Layer 1" xmlns="http://www.w3.org/2000/svg" viewBox="0 0 108.5383 108.1456">
  <g id="logoMark">
    <path id="logoMark_PathItem_" data-name="logoMark &lt;PathItem&gt;" d="M12.1244,6.8871c-1.7633-.09-3.588-.1834-5.1352,1.0981-.7749.6418-1.7614,1.6458-1.3823,2.9494a2.29,2.29,0,0,0,.1454.3751c.0164.033.0387.0605.0565.0922a1.9665,1.9665,0,0,0,.146.2331c.0241.0314.0544.0573.08.087a1.8662,1.8662,0,0,0,.1789.1878c.0307.0267.0673.048.1.073a2.036,2.036,0,0,0,.2154.1506c.0378.0219.0812.0385.121.0585a2.417,2.417,0,0,0,.25.1138c.0461.017.0978.029.1461.0439.09.028.1806.0561.2787.0769.0572.0121.12.0191.18.0288.097.0156.1934.0316.2972.0408.0725.0064.1507.0076.2265.0109.0779.0033.151.0111.2325.0111.0428,0,.0863,0,.13-.0013,1.8394-.0384,3.7117-.029,5.5214-.0189q.796.0042,1.5918.0062c.1752.0006.35.0019.5258.0022-.0123.09-.0266.1775-.04.2657-.0168.1067-.0324.2147-.0515.3189-.02.1069-.0425.21-.0645.314-.0213.1011-.0413.2035-.0649.3021-.0245.1024-.0526.2008-.0795.3-.0258.0956-.05.1925-.0784.2855-.0293.0971-.0624.19-.0942.2847-.03.09-.0593.182-.092.27-.0344.0926-.0727.1812-.11.2711-.0347.0845-.0679.1706-.105.2527-.0394.0876-.0828.1709-.1248.2558-.0393.0794-.077.1606-.1186.2377-.0446.0827-.0933.1612-.1406.2413-.0436.074-.0856.15-.1315.2215-.05.078-.104.1515-.1565.2267-.0481.0689-.0944.14-.1447.2062-.0554.0732-.115.142-.173.2125-.0523.0635-.1027.1289-.1572.19-.0611.0688-.1267.1331-.1906.199-.0562.058-.11.1181-.1687.174-.0672.0643-.139.1239-.209.1854-.06.0525-.1178.1073-.18.1578-.074.06-.1528.1158-.23.173-.0629.0468-.1235.0959-.1883.1407-.0818.0564-.1685.1081-.2534.1614-.065.0408-.1277.0841-.1946.1231-.0915.0534-.188.1017-.283.1516-.0652.0343-.1277.0711-.1946.1038-.1088.0531-.2229.1012-.3361.15-.0576.0249-.1126.0525-.1713.0763q-.2613.1059-.5376.1977-.3808.1263-.7639.2167c-.0812.0193-.1626.0308-.2439.048-.1741.0367-.3481.0751-.5225.1023-.1174.0184-.2348.0281-.3523.0425-.138.0169-.2761.0377-.4141.0495-.14.0121-.28.016-.42.0232-.1149.0059-.23.0158-.3447.0187-.1507.0038-.3006.0008-.4508,0-.1035,0-.2076.0022-.3108,0-.1579-.0039-.3146-.0134-.4716-.0214-.0946-.0049-.19-.0071-.2841-.0133-.1577-.01-.3139-.0247-.47-.0382-.0928-.008-.1863-.0141-.2787-.023-.1393-.0134-.2769-.0294-.4151-.0445-.1031-.0113-.207-.0215-.3094-.0335C.8652,16.2558-.5028,11.6422,1.2541,7.136,3.07,2.4794,6.9627.1966,12.5043.5328a21.8242,21.8242,0,0,1,3.6093,1.5783l.0042.0025q.2829.1616.5574.3362l.0045.003q.2739.1748.5381.3638l.0066.0049q.2622.1884.5138.3921l.0136.0115q.2464.2009.4815.4176l.0275.0267q.2258.21.44.4365c.016.017.031.0353.047.0525.1331.1435.2633.291.3886.4449.0266.0326.0515.0676.0777.1007.1112.14.22.2834.3245.4326.0393.0563.0758.116.114.1735.086.1292.1711.26.2518.3955.0543.0917.1048.1881.1564.283.058.106.1166.2113.1713.3213.07.1422.136.29.2006.4393.0229.0524.0466.1037.0688.157l-7.4735.02c-.3-.0086-.6017-.0241-.9035-.0395" style="fill: #cba68d"/>
    <path id="logoMark_CompoundPathItem_" data-name="logoMark &lt;CompoundPathItem&gt;" d="M7.7372,20.16c-.06,0-.12-.0005-.18-.001l-.1067-.0009-.1134,0L7.13,20.1572c-.13-.0032-.26-.01-.389-.017l-2.0279-.1769-.1116-.089C.3738,16.5035-1.0517,11.6736.7883,6.9544,2.69,2.076,6.7522-.317,12.5346.0337L12.67.0609a21.8609,21.8609,0,0,1,3.6918,1.6159c.2.1143.3928.23.5825.3514.1949.1245.3819.2506.5652.382.19.1365.369.273.5442.4152.1866.1526.3553.2983.52.45.1872.1755.3418.3282.4917.4873.19.2066.3272.3622.4593.5244l.082.1061c.1173.1481.2324.2992.3424.4567l.0817.1233c.13.1959.2192.3334.3043.4769.0449.076.0872.1541.1294.2322l-.38.347.4385-.24c.0537.098.1073.196.158.2979.0745.1508.1438.3063.2118.4633l.359.8537-8.2213.0224c-.3112-.0087-.6085-.0238-.9058-.0389l-.0268-.0013c-1.7443-.0889-3.3919-.1728-4.7885.9838-1.0736.8892-1.45,1.6371-1.2211,2.4248a1.7959,1.7959,0,0,0,.1135.2931c.0778.1284.11.1893.1511.2427.1072.1162.1453.1623.1906.2018.131.0954.1808.1352.2377.1681l.0949.0444a1.9288,1.9288,0,0,0,.1985.0915l-.027.513.1479-.4776c.08.0247.1537.0483.2343.0653l.156.0243c.0964.0156.1761.0289.2615.0364l.415.02.12-.0012c1.8836-.0394,3.8231-.0285,5.5343-.019l2.6876.0091-.1119.796L16.03,12.86l.4418.0681-.0932.5083-.5209.0476.49.1013-.116.4835-.5221.0156.4832.1284-.1382.4561-.5223-.0153.4747.1571-.1616.4328-.52-.0508.4636.1872-.1837.4059-.5145-.0874.45.2186-.0935.1855c-.0363.0674-.0749.1322-.1137.197l-.5065-.1252.4328.25-.1038.173c-.0406.0635-.0836.1245-.1268.1855l-.495-.1642.4125.2825-.114.1608c-.0452.06-.0928.1171-.14.1742l-.4814-.2017.3893.3138-.123.1473c-.05.0561-.1024.11-.155.1633l-.4643-.239.3632.3437-.1312.1338c-.0547.0524-.112.1022-.1694.1518l-.4452-.2741.3345.3716-.1388.12c-.0605.0493-.1237.0959-.1871.1424l-.4232-.3078.3042.3968-.1435.106c-.0673.0464-.1375.09-.2078.1337l-.3995-.3388.2725.4191-.1454.091c-.0765.0446-.1561.0862-.2358.1276l-.3729-.368.2405.4384-.1416.0746c-.0993.0485-.2027.0932-.3061.1378l-.32-.4052.2089.4542-.122.0537q-.2762.112-.5681.209-.4016.1332-.8055.2285l-.1685.034-.1912-.4725.034.5039c-.16.0339-.3194.0676-.4793.0925-.0839.0132-.1679.0225-.2519.0316l-.2378.0287c-.1038.0136-.2076.027-.3112.0359-.1069.0092-.2135.0141-.32.0189l-.475.0246C7.857,20.1591,7.7971,20.16,7.7372,20.16Zm-.2809-1.0018.11.0008c.1082.001.2164.0021.3251-.0007l.4557-.0239c.0931-.0042.1863-.0082.2795-.0162.0889-.0076.1777-.02.2666-.0311l.4653-.0568c.1422-.0222.2842-.0526.4261-.0827l.3017-.06q.3621-.0862.7223-.2049.2607-.0864.5071-.1865l.1606-.0717c.1413-.0609.23-.099.3151-.1406l.2521-.1338c.0653-.034.1307-.0677.1933-.1042l1.6871-1.4505.9973-1.7365.5243-1.8546-1.5359-.006c-1.7052-.0095-3.6376-.02-5.5083.0188l-.1405.0014c-.0631,0-.122-.0035-.181-.0073l-.1179-.5063-.0174.5c-.0634-.0023-.1269-.0047-.187-.01-.11-.01-.213-.0259-.316-.0426-.1212-.0179-.1724-.0257-.2205-.0359-.1113-.0235-.2144-.0548-.3172-.0866-.0917-.0261-.1358-.039-.1769-.0542a2.8812,2.8812,0,0,1-.2973-.1342c-.0737-.0339-.1137-.0529-.1507-.0743a2.4888,2.4888,0,0,1-.264-.1827,1.4985,1.4985,0,0,1-.1289-.0963,2.3018,2.3018,0,0,1-.22-.2281,1.3879,1.3879,0,0,1-.1075-.12,2.4563,2.4563,0,0,1-.1852-.2925,1.0346,1.0346,0,0,1-.0688-.1154,2.7833,2.7833,0,0,1-.1774-.4573C4.6122,9.3047,6.1612,8.0217,6.67,7.6c1.6964-1.4051,3.705-1.3027,5.4772-1.2124l-.0231.4994.0254-.4993.0245.0012c.29.0148.58.03.8679.0378L19.72,6.4084c-.0248-.0464-.05-.0924-.0753-.1384l-.1709-.31c-.0758-.1277-.1564-.2507-.2376-.3728l-.1078-.1644c-.0983-.1407-.2014-.2757-.3064-.4083l.3142-.4112-.3876.3158c-.1185-.1454-.2417-.2849-.3676-.4206-.1793-.193-.3186-.33-.4612-.4634-.1749-.1631-.3277-.295-.484-.4223-.1727-.1409-.3364-.2653-.5032-.3852-.175-.1257-.347-.2417-.522-.3534-.18-.115-.3593-.2227-.5409-.3264a20.7281,20.7281,0,0,0-3.465-1.52C7.1351.7288,3.4414,2.9027,1.72,7.3176c-1.6562,4.248-.3874,8.606,3.3932,11.6846l1.5836.1343c.2176.0115.3376.018.4584.021l.1754.0006Z" style="fill: #2b2129"/>
    <path id="logoMark_PathItem_2" data-name="logoMark &lt;PathItem&gt;" d="M13.2634,7.3657c.05.0395.0991.08.1486.1206.0473.0384.0947.0761.1416.1152.0486.0406.0963.0827.1445.1241s.0948.08.1415.1219c.0424.0376.0836.077.1255.1154.0514.0471.1034.0935.154.1418l.0066.0066a7.0989,7.0989,0,0,1,1.1859,1.4475l.0029.0046q.0951.1579.18.3234l.0069.0126c.0546.1071.1052.2171.1527.3291l.0108.0239c.0453.1083.0861.22.1242.3326l.0139.0385c.0354.1079.0659.2189.0941.3312.0051.02.0114.0395.0162.06.0251.1054.0451.214.0636.3234.005.03.0116.0586.0161.0886.0151.1.0248.2033.0341.3068.0039.043.0094.0849.0122.1286.006.0917.0067.1865.0079.281,0,.0461.002.0916.0014.1383q-1.0716-.0014-2.1435-.0083C13.4,12.27,12.8824,12.27,12.37,12.2681c-1.3231-.0044-2.6579-.0044-3.9833.0238-1.4409.0233-2.2765-.4343-2.5631-1.42-.3425-1.1764.5834-2.1121,1.31-2.7136a4.4361,4.4361,0,0,1,.3727-.274q.0484-.0322.0973-.0628c.1181-.0743.2374-.1435.3586-.2044l.0258-.014c.1295-.0641.2609-.1189.3934-.1694.0343-.013.0688-.0254.1033-.0376.1182-.0418.2373-.08.3576-.112.0164-.0045.0327-.01.0492-.0143.1344-.0349.27-.0631.4067-.0878.0363-.0065.0729-.0124.1094-.0183.1175-.019.2356-.0352.3543-.0479.0226-.0024.0451-.0058.0677-.008.1374-.0134.2757-.0227.4143-.0293.0384-.0018.0769-.0031.1153-.0044q.1727-.0063.3458-.0071c.0268,0,.0536-.0008.0805-.0007.2117,0,.424.0056.6361.0136l.0309.001c.2208.0087.4415.02.6612.031.2913.015.5827.03.8727.0387.0426.0324.0851.0658.1277.0988C13.1634,7.288,13.2135,7.3262,13.2634,7.3657Z" style="fill: #2b2129"/>
    <path id="logoMark_CompoundPathItem_2" data-name="logoMark &lt;CompoundPathItem&gt;" d="M8.2889,12.7926c-1.6122,0-2.6022-.5989-2.9459-1.7812-.4739-1.628.99-2.84,1.471-3.2383a4.9675,4.9675,0,0,1,.4143-.305l.1084-.07c.1318-.0829.265-.16.4-.2278a4.8189,4.8189,0,0,1,.4661-.2039l.1143-.0417c.13-.0462.2618-.0878.3942-.1235.2006-.0535.3486-.0845.4974-.1113L9.32,6.6711c.1331-.0215.26-.0388.3875-.0526.2182-.0227.3647-.0325.5116-.04l.1-.004c.1513-.0054.2805-.0082.4079-.0081.2883,0,.5.0053.7123.0133l.6987.0323c.2881.0148.5761.0293.8627.0382l.16.005.2185.1673-.2235.4593.3053-.396.2228.1768-.2275.4593.314-.3891.2092.1749-.2367.456.3245-.38.1923.1707-.2521.4474.3364-.37.12.1113A7.57,7.57,0,0,1,15.74,9.3006c.0724.12.1376.2377.1993.358.0674.1313.1229.2518.175.3747.0616.1453.1066.2677.1485.3921.0542.1613.088.2835.1191.4073.0453.1818.0675.3012.0879.4217.034.2072.045.32.0552.434l.0132.1413c.006.0924.0074.1879.0086.2834l.0016.1748-.0067.4939-4.1735-.0137c-1.3191-.0045-2.65-.0044-3.9711.0237C8.3606,12.7924,8.3245,12.7926,8.2889,12.7926ZM9.2975,7.1819l.0888.4921c-.1242.0224-.2477.048-.37.08-.1523.0421-.2593.0761-.3654.1137a4.4763,4.4763,0,0,0-.4418.1837c-.13.0665-.2355.1279-.34.1936L7.7827,8.3a3.9173,3.9173,0,0,0-.3309.2429c-.9952.824-1.3494,1.499-1.1486,2.1888.1473.5068.5161,1.0849,2.0749,1.06,1.327-.0282,2.6659-.0283,3.9931-.0238l3.5125.0124.143-.0473-.4979.0447c-.0084-.0934-.017-.1867-.0306-.277-.0313-.178-.0491-.2757-.0717-.3706-.04-.1544-.0673-.2542-.099-.3511-.0469-.1363-.0835-.2365-.1243-.3339-.0527-.1228-.0983-.2221-.1477-.3189-.0576-.1115-.1118-.21-.1694-.3052A6.5693,6.5693,0,0,0,13.78,8.4724l-.9724-.8278c-.2395-.009-.48-.0211-.72-.0334L11.4323,7.58c-.2364-.0087-.4427-.0139-.6484-.0142-.1876.0012-.2976.0035-.4075.0075l-.1333-.4953.0239.4995c-.13.0062-.26.0148-.3894.0274-.1727.0193-.282.0343-.3908.0519Z" style="fill: #2b2129"/>
    <path id="logoMark_PathItem_3" data-name="logoMark &lt;PathItem&gt;" d="M17.5826,21.7235A39.3689,39.3689,0,0,1,8.65,21.2673,6.9655,6.9655,0,0,1,5.1782,19.74c.0449.005.0907.0087.1358.0135q.1977.021.3967.0392c.1.0093.1995.0181.3.0263.1343.011.2692.02.4043.0286.1009.0064.2015.0127.3027.0176.1349.0065.27.01.4059.0137.1021.0027.204.0058.3065.0065.0363,0,.0722.0023.1086.0023.0635,0,.1276-.005.1912-.0059.1767-.0022.3535-.0071.5308-.0162.1034-.0053.2066-.0127.31-.0205.1736-.0132.3472-.031.521-.052.1022-.0124.2043-.0246.3066-.04.1859-.0278.3716-.0634.5574-.1016.0882-.0181.1764-.0331.2646-.0537.2726-.064.545-.1374.8166-.2275q.2865-.0951.5573-.2049c2.6813-1.0877,4.2085-3.2741,4.6632-6.6588H16.27l.0034-.1041.0153-.1208-.016,0c.0014-.1182.0021-.2361-.0035-.35-.0024-.0508-.009-.0992-.0128-.1492-.0076-.0993-.0147-.1989-.0274-.2951-.0077-.0588-.0193-.1151-.0288-.1727-.014-.0845-.0272-.1694-.045-.2515-.0128-.0593-.029-.1165-.0437-.1746-.02-.0773-.0387-.1549-.0614-.23-.0177-.0583-.0381-.1146-.0576-.1716-.0246-.0718-.049-.1437-.0764-.2136-.0222-.0568-.0466-.112-.0707-.1676-.029-.0672-.0581-.1342-.09-.2-.0264-.0549-.0546-.1086-.0827-.1623-.0331-.0632-.0666-.1262-.1019-.1878-.03-.0527-.0616-.1045-.0934-.1561-.0368-.06-.0742-.1192-.1129-.1775q-.0505-.0759-.1032-.15-.06-.0847-.1223-.1675-.0552-.0731-.1122-.1446-.0643-.0805-.1309-.1591c-.0392-.0463-.0785-.0922-.1186-.1375-.0457-.0514-.0922-.1019-.139-.1521-.0415-.0443-.0828-.0885-.1251-.1319-.0477-.0489-.0961-.0968-.1448-.1446-.043-.0422-.0859-.0845-.13-.1259-.05-.0469-.1-.0928-.15-.1387-.0443-.04-.0883-.0807-.133-.12-.0513-.0451-.1032-.0891-.1551-.1333-.0449-.0382-.09-.0768-.1347-.1143-.0535-.0443-.1072-.0873-.1609-.1305-.0441-.0356-.088-.0716-.1323-.1065l-.0181-.0146,7.2547-.02c.0661.095.122.1924.1813.289.054.0881.1138.1749.1624.2642.0573.1052.1035.2125.1537.319.0427.0908.0907.1805.1286.2721.0446.1078.0793.2168.1177.3255.0324.0919.07.1832.0979.2755.0339.1108.0591.2221.0874.3333.0232.0908.0506.1814.07.2722.0249.1146.0423.2289.0622.3433.0152.0872.0341.1747.0467.2616.0179.1241.03.2469.0427.37.0081.0759.02.1526.026.228.0126.1447.02.2871.0276.4294.0028.0524.0078.106.01.158.0083.1934.0129.3841.0152.571.0293,2.347.0282,4.7337.0273,7.0421q-.0007,1.4022.0006,2.8043C20.4383,21.6517,18.9872,21.6879,17.5826,21.7235Z" style="fill: #bb9168"/>
    <path id="logoMark_CompoundPathItem_3" data-name="logoMark &lt;CompoundPathItem&gt;" d="M14.62,22.2732a30.0682,30.0682,0,0,1-6.07-.5161,7.3975,7.3975,0,0,1-3.7112-1.65l-1.1127-1.03,1.5069.1658.0595.3737.041-.0443.0336-.3162,2.0665.1291.1052.5023.0074-.5.1774-.0055c.17-.0022.3407-.0069.5116-.0156l.298-.02c.1661-.0126.3323-.03.4987-.05l.2927-.038c.177-.0264.3537-.0605.5305-.0968l.2513-.0509c.2582-.0605.5161-.13.7733-.2152q.2709-.09.5268-.1936c2.501-1.0147,3.9258-3.063,4.3555-6.2621l.0121-.09-.0014-.0741c.0012-.1081.0021-.2158-.003-.32l.4866-.1735-.4985.038c-.008-.1047-.014-.1876-.0246-.2679L15.3976,10.33l-.7615-1.2583L13.0628,7.5581l-1.1287-.8889,1.4186-.0185L20.87,6.63l.15.2151c.0561.08.1059.1625.1555.2446l.0933.1505c.0432.0677.086.1356.1236.2045.0476.0875.0888.1761.13.2648l.0787.1658c.0341.0692.0678.1384.0968.2085.0367.0887.0678.1781.0985.2677l.0609.1706c.0257.0691.0511.1382.0723.2077.0275.09.05.18.0725.2707l.0452.1749c.0181.0666.036.1333.05.2.02.0937.0363.1871.052.2805l.0631.3588c.0153.1055.0263.21.0372.3144l-.4785.2191.4962-.0612.0171.1543c.0125.1441.02.286.0278.4278l.0112.1815c.0086.1984.0133.3942.0157.5861.0291,2.3344.0282,4.7081.0273,7.005l.0015,3.361-.5141-.0136c-1.4252-.0377-2.8653-.0012-4.258.0341h0l-.0126-.5.0054.5C16.6079,22.2482,15.6166,22.2732,14.62,22.2732Zm2.9427-1.0494.02.5-.0127-.5c1.24-.0314,2.5166-.0638,3.7964-.0446l0-2.2942c.0009-2.3361.0018-4.7054-.0272-7.0355-.0023-.182-.0068-.3676-.0148-.5559l.49-.1794-.4993.0267c-.008-.149-.0149-.28-.0264-.4128l-.0251-.2181c-.0176-.1681-.027-.2595-.04-.3517l-.0444-.2474c-.0282-.1666-.0412-.2448-.0582-.3231l-.0662-.2546c-.041-.1651-.0588-.2379-.081-.31l-.0913-.2555c-.0555-.1607-.0794-.2311-.1082-.3007-.0207-.05-.0455-.1-.07-.149l-.0491-.1013c-.0724-.1567-.1036-.2254-.14-.2929-.0266-.0488-.0576-.0966-.0883-.1446l-.0612-.0973-.03-.05-5.6468.0154,1.0938,1.2982.6005,1.145c.0284.0726.054.1469.0795.2213l.0675.2016c.0222.0733.0414.1485.06.2238l.0549.22c.017.0786.03.16.0439.2406l.037.2241c.0129.098.0208.1993.0285.3007l.005.06.0817,0-.0706.6827,0,.0573-.0156.4839h-.0658c-.552,3.3395-2.16,5.5081-4.9059,6.6222q-.2858.1158-.5879.216c-.286.0949-.5728.1724-.86.24l-.1893.0393c-.2835.0575-.4781.0947-.6729.1238l-.3089.04c-.1929.0233-.3738.0419-.5548.0557l-.3222.0213c-.1839.0094-.367.0145-.55.0168l-.1994.0059-.2752-.0056a11.1779,11.1779,0,0,0,1.4894.3954A38.9576,38.9576,0,0,0,17.5628,21.2238Z" style="fill: #2b2129"/>
    <path id="logoMark_PathItem_4" data-name="logoMark &lt;PathItem&gt;" d="M37.9549,107.3837c-.0278.042-.052.0891-.0777.1342-.0244.0429-.0516.0819-.0739.1277H33.2038a7.52,7.52,0,0,1-1.87-.3223l-.1791-.0463c-5.744-1.39-9.28-6.18-9.2273-12.5023.1463-17.6507.1224-35.598.0993-52.9545q-.0133-9.9024-.0175-19.8051h0l0-.1159q-.0027-1.4583-.0009-2.9164c.0009-2.3064.0019-4.6916-.027-7.0371a8.9516,8.9516,0,0,0-.9136-4.2769,6.176,6.176,0,0,0-.3671-.5914q-.1353-.3465-.29-.669c-.035-.0733-.0743-.1413-.1107-.2129-.0721-.1418-.1438-.2842-.2213-.4193-.0465-.0812-.0971-.1573-.1456-.2362-.0727-.1186-.1448-.2381-.2217-.3515-.0545-.08-.1124-.1562-.1688-.2341-.0761-.1049-.1516-.21-.2311-.311-.0611-.0773-.1251-.1506-.1881-.2252-.08-.0946-.16-.1895-.2423-.28-.0669-.0731-.1361-.1431-.2049-.2137-.0835-.0858-.1671-.1716-.2534-.2538-.072-.0688-.1459-.135-.22-.2013-.0872-.0784-.1748-.1563-.2644-.2314-.0764-.0641-.1542-.1263-.2323-.1882-.0908-.0719-.1822-.1429-.2751-.2118q-.1208-.09-.2439-.1757-.1407-.0987-.284-.1938-.1264-.0835-.2549-.1642-.1443-.09-.2911-.1772c-.0879-.0521-.176-.1036-.2651-.1538-.0982-.0553-.1973-.1091-.2968-.1622-.0911-.0486-.1821-.0971-.2741-.144-.0994-.0506-.2-.1-.3-.1484-.0947-.046-.1892-.092-.2848-.1364-.0984-.0457-.1975-.09-.2968-.1338s-.1984-.0887-.2985-.1314c-.0954-.0407-.1915-.08-.2875-.1193-.1054-.0433-.2106-.087-.3165-.129-.0866-.0342-.1736-.067-.26-.1-.117-.0449-.2338-.09-.3512-.1339L13.1028.6258,13.31.6153C13.854.5877,14.4164.5591,14.9679.5589q10.02-.0022,20.0348.0116C51.19.5857,67.9288.6021,84.3916.5l.0705,0a11.6959,11.6959,0,0,1,8.3406,3.5692,12.2589,12.2589,0,0,1,3.6084,8.627c-.15,17.8572-.1132,36.0147-.0781,53.5744q.02,9.9314.0305,19.8628-.4409.0072-.8813.0166c-.689.0139-1.4015.0283-2.1019.0286q-24.0981.0075-48.1961.01l-6.4269.0011c-.0928-.0048-.1859-.0073-.2789-.01a5.34,5.34,0,0,1-.59-.0376,9.1629,9.1629,0,0,0-8.7834,3.3114c-.0425.0548-.0842.11-.1256.1664a9.361,9.361,0,0,0-.6041.936,9.8669,9.8669,0,0,0-.5044,1,9.47,9.47,0,0,0,2.7644,11.3659l.2888.27h0l.0275.0257.0009.0009-.0285-.0266.7247.2068-.5262-.01a6.196,6.196,0,0,0,3.8316,1.6885c.3733.0408.749.0721,1.1257.0961.1356.0086.2715.0121.4073.0189.242.0123.4839.0262.726.0339l.0455.0009c.7387.0227,1.4759.0278,2.2008.0323.0673,0,.1345.0018.2018.0022.4908.0032.9813.0081,1.4715.018l-.0023.0027a2.2739,2.2739,0,0,1-.2782.2512c-.0167.013-.0328.0265-.05.0391a3.2176,3.2176,0,0,1-.3026.197l-.0651.0369q-.1593.0882-.3275.168l-.07.0324c-.1089.05-.2191.1-.3312.15l-.0148.0066c-.13.0575-.26.1165-.39.1773-.0545.0257-.1092.0509-.1631.0778-.0348.0174-.0685.0368-.103.0549-.0557.0292-.1117.058-.1661.0893-.0363.0209-.0708.0446-.1064.0666-.0508.0315-.1022.0622-.1513.0964-.0356.0247-.0689.0528-.1035.0791-.0465.0353-.0936.07-.138.1084-.034.0295-.0652.063-.0978.0945-.0415.04-.0837.0793-.1227.123-.0315.0354-.06.0753-.09.1133C38.0246,107.289,37.988,107.3338,37.9549,107.3837Z" style="fill: #e5d1b8"/>
    <path id="logoMark_CompoundPathItem_4" data-name="logoMark &lt;CompoundPathItem&gt;" d="M37.8033,108.1456H33.2038a7.8946,7.8946,0,0,1-1.9949-.3382l-.1793-.0464c-5.9744-1.4454-9.6566-6.4238-9.6021-12.99.1461-17.6387.1223-35.5754.0992-52.9215q-.0133-9.9451-.0175-19.834l-.001-3.0324c.0009-2.3347.0018-4.7024-.027-7.0308a8.48,8.48,0,0,0-.8519-4.0426,5.6941,5.6941,0,0,0-.3382-.5449l-.0562-.105q-.1287-.3291-.2756-.6355l-.1052-.2019c-.0787-.1548-.1416-.279-.2093-.3971l-.138-.2234c-.088-.1436-.147-.24-.2095-.3326l-.1857-.2569c-.0633-.0874-.1263-.1748-.1925-.2584L18.79,4.798c-.1341-.1585-.2047-.2423-.278-.3225l-.1586-.166c-.1147-.1178-.1939-.1991-.2757-.2771l-.2026-.1857c-.0891-.08-.1724-.1542-.2576-.2256l-.2214-.1793c-.0868-.0687-.1741-.1366-.2627-.2024l-1.839-1.1269L12.9516,1.1033l-2.28-.8451L13.2848.1159c1.21-.0615,2.4578-.0572,3.6845-.0572q9.018,0,18.0313.0118l.3319,0c16.08.0151,32.7066.0306,49.056-.07a12.2355,12.2355,0,0,1,8.77,3.7172,12.7623,12.7623,0,0,1,3.753,8.9829c-.1494,17.8431-.1132,35.9879-.0782,53.5352.0134,6.6551.0266,13.2765.0306,19.8975l0,.4921-1.368.0247c-.7142.0143-1.4207.0284-2.1152.0287L38.7574,86.69l-.2777-.01a5.9922,5.9922,0,0,1-.66-.0426A8.6736,8.6736,0,0,0,29.5,89.76l-.1186.1573a8.8566,8.8566,0,0,0-.5716.886,9.35,9.35,0,0,0-.4793.9492,8.9832,8.9832,0,0,0,2.6236,10.784l.2226.2069,4.3034,1.2278-2.7893-.0532a6.5656,6.5656,0,0,0,2.3175.6614c.3659.04.734.07,1.1032.0941l.55.0263c.189.01.378.02.5671.0257.7795.0235,1.5126.0286,2.2335.033l.106.0012c.589.0042,1.0818.0092,1.5742.0191l1.1115.0224-.7565.8194a2.7754,2.7754,0,0,1-.3385.3067,3.7728,3.7728,0,0,1-.4091.2743c-.1883.1052-.3067.166-.4287.2238l-.9591.4393-.3266-.3924.2325.4426-.149.08-.356-.3666.2632.4251-.1294.082-.3886-.3316.3025.3981-.1129.0879-.4254-.2831.3477.3593-.0971.0964-.4628-.2194.3936.3084-.3245.5121ZM21.1444,6.84a6.6726,6.6726,0,0,1,.3623.59,9.3868,9.3868,0,0,1,.9745,4.51c.0287,2.3327.0279,4.7048.027,7l.0011,3.075q0,9.9039.0174,19.8054c.0231,17.3767.0469,35.3158-.0993,52.9594-.05,6.0771,3.3388,10.68,8.8449,12.0121l.1867.0482a7.1562,7.1562,0,0,0,1.7448.3064h4.31l.0241-.0382h0c.0352-.0531.0732-.1021.1116-.1508.0678-.0883.0966-.1253.1271-.1595.0406-.0455.0836-.0875.1269-.1292l.139-.1332c.0451-.0391.0922-.0752.14-.111l.8753-.5215c.1156-.0543.2161-.1.312-.1436-.754-.0052-1.44-.0112-2.1263-.0323-.2419-.0072-.4377-.0174-.6335-.0276l-.5618-.027c-.3843-.0244-.7675-.0563-1.1483-.098a6.682,6.682,0,0,1-4.131-1.8321l-.4823-.4607a11.3966,11.3966,0,0,1-.9716-.9048l-.2257-.21.04.0112a9.8878,9.8878,0,0,1-1.7183-10.818,10.3724,10.3724,0,0,1,.53-1.05,9.775,9.775,0,0,1,.6366-.9859l.1325-.1755a9.6484,9.6484,0,0,1,9.2479-3.5,4.7841,4.7841,0,0,0,.5294.0327l.2959.01L93.38,85.6789c.6879,0,1.3877-.0143,2.0652-.0279l.4177-.0079q-.0063-9.6853-.03-19.3712c-.0351-17.5839-.0713-35.7313.0781-53.58a11.7562,11.7562,0,0,0-3.4638-8.2711A11.2043,11.2043,0,0,0,84.4621,1c-16.42.1011-33.0492.0856-49.1305.0705l-.3293,0q-9.7936-.01-19.5835-.0117l1.76.9925q.1494.0985.2958.2018l.2543.1832c.0972.0721.1928.1463.2877.2215l.2432.197c.0939.0787.1858.16.2773.2425l.2307.2115c.0907.0865.1787.1766.2665.2669l.2155.225c.0823.09.1615.1837.2407.2775l.213.255c.0748.0947.1466.1936.2182.2926l-.327.4.4025-.2966.128.1788c.071.1049.1383.2145.2055.3242l-.3459.3907.4227-.267.1048.1716c.0759.1325.1468.2714.2175.41l-.385.343.4408-.2361.0762.1482Q21.0114,6.5062,21.1444,6.84Z" style="fill: #2b2129"/>
    <path id="logoMark_PathItem_5" data-name="logoMark &lt;PathItem&gt;" d="M40.3608,97.7185a9.4433,9.4433,0,0,0,.0906-1.0928A3.7327,3.7327,0,0,0,39.47,93.578c-.0777-.11-.1558-.2219-.2326-.3344-.0213-.0312-.0412-.0631-.0622-.0945-.0557-.0834-.1108-.1672-.1633-.2521-.0261-.0422-.05-.0854-.0745-.1281-.0443-.0757-.0876-.1518-.1275-.2291-.0248-.0483-.0465-.0976-.0693-.1465s-.0426-.0978-.0627-.147l.0336-.0005,5.6126-.0922c.0646.1067.1188.2164.1786.3246.082.1482.1686.2952.2416.4459.061.1259.11.2548.1645.3823.0618.1438.129.2863.183.4318.053.1432.0931.2891.1386.4338.0417.1327.09.2642.125.398.045.17.0761.3419.1109.5134.0225.1106.0519.22.07.3314.0356.2166.0567.4346.0765.6527.0062.067.0183.1335.0229.2006a10.27,10.27,0,0,1-2.6612,7.4339c-.0813.0928-.172.181-.2568.2721-.1319.142-.2609.2854-.4014.423q-.3459.3378-.7256.6564c-.6262-.0148-1.2537-.0185-1.8813-.0224-.7269-.0044-1.4661-.0095-2.2061-.0318l-.0562-.0011c-.1809-.0057-.3614-.017-.5423-.0251-.5775-.0259-1.1543-.061-1.7242-.1228-.1759-.0191-.3475-.0435-.5156-.0721-.0551-.0094-.1077-.0218-.162-.0323-.1114-.0213-.2227-.0428-.3305-.0685-.0622-.0148-.1219-.0325-.1829-.0488-.0964-.0257-.1928-.0513-.2862-.0806-.0627-.02-.1232-.0418-.1846-.063-.0878-.03-.1752-.0611-.26-.0948-.0612-.0242-.1206-.05-.18-.0765-.0814-.0353-.1621-.0714-.2407-.11-.0582-.0285-.1151-.0585-.1718-.0888-.0762-.0406-.1514-.0825-.2249-.1263q-.082-.0487-.1616-.1-.1074-.0693-.21-.1432c-.0508-.0364-.1012-.0732-.15-.1113-.0464-.0358-.0908-.0739-.1358-.1113l-.1342-.1243c.2523-.0037.5046-.0041.7567-.0043a10.3842,10.3842,0,0,0,4.039-.5454,7.0544,7.0544,0,0,0,1.0223-.5208A6.1813,6.1813,0,0,0,40.3608,97.7185Z" style="fill: #bb9168"/>
    <path id="logoMark_CompoundPathItem_5" data-name="logoMark &lt;CompoundPathItem&gt;" d="M41.7673,105.5577l-.1881-.0044c-.6106-.0143-1.2225-.0182-1.8344-.022-.7691-.0047-1.5123-.01-2.2564-.0322l-.6057-.0265c-.5882-.0263-1.1755-.0623-1.7557-.1252-.1862-.02-.3678-.046-.5457-.0763l-.1165-.0227c-.1745-.0342-.2931-.0572-.408-.0846l-.1383-.0364c-.1632-.0438-.2653-.0712-.3643-.1022l-.1522-.0515c-.1413-.049-.2357-.0823-.3274-.1186l-.17-.0717c-.1139-.0495-.2015-.0888-.2869-.1306l-.187-.0966c-.0833-.0444-.1653-.09-.2456-.1379l-.1768-.11q-.1175-.0757-.23-.1569l-.4691-.3865-.9162-.8484,1.2486-.0184c.2546-.0037.5093-.0041.7637-.0043a10.0048,10.0048,0,0,0,3.85-.5081,6.5857,6.5857,0,0,0,.95-.484,5.6692,5.6692,0,0,0,2.6609-4.2538l0-.0007a8.9374,8.9374,0,0,0,.0858-1.0349,3.3454,3.3454,0,0,0-.89-2.7468L38.76,93.427c-.0591-.0883-.1174-.1771-.173-.2671l-.0572-.0975c-.0724-.1244-.12-.2083-.1639-.2935l-.4237-1,.7279-.0224,5.9335-.0975.1487.2459c.0469.0774.0891.1562.1311.2352l.1189.2164c.0669.1191.1336.2384.1924.36.0453.0935.0847.1883.1239.2832l.1025.24c.0491.1112.098.2226.14.3355.041.1109.0752.2229.1092.335l.078.247c.0325.0981.0647.1963.091.2956.0381.144.0672.2891.096.4344l.0469.2228c.0178.0779.0352.1558.0482.2343.0376.2287.06.4587.0811.6888l.0237.2113a10.75,10.75,0,0,1-2.7834,7.7973c-.056.0638-.1151.1253-.1745.1866l-.17.18c-.1109.12-.222.24-.3406.3565q-.3606.3521-.7548.6828Zm-8.4158-1.6712.0916.039c.0781.0309.1587.059.2395.087l.17.0584c.0855.0267.1738.05.2621.0736l.1735.0465c.1007.0241.2048.0439.3088.0639l.0678.5233.084-.4929c.1583.027.32.05.4855.0679.5595.0606,1.1258.095,1.6928.12l.5355.0247c.7916.0233,1.5267.0283,2.25.0327.5884.0037,1.1459.0072,1.6993.0183q.2883-.2489.5553-.51c.1058-.1037.2053-.2118.3049-.32l.1861-.1975c.0478-.0494.0957-.0986.14-.15a9.757,9.757,0,0,0,2.5385-7.07l-.022-.1893c-.0187-.2064-.0383-.4125-.072-.6171-.01-.0583-.0231-.1163-.0363-.1743l-.0529-.2506c-.0247-.1248-.0491-.25-.0818-.3732-.0211-.08-.0475-.1583-.0736-.2372l-.0859-.2716c-.028-.0927-.0558-.1856-.09-.2772-.0348-.0938-.076-.1862-.1169-.2787l-.1123-.2624c-.0316-.0766-.0629-.1533-.0994-.2287-.05-.1031-.1071-.2041-.1641-.3054l-.0984-.1781L39.5,92.7329c.03.0463.06.0923.0911.1382l-.3534.3725.413-.2818.2284.3283a4.18,4.18,0,0,1,1.0619,3.4386,7.8867,7.8867,0,0,1-.085,1.0608,6.7119,6.7119,0,0,1-3.127,4.9642,7.5888,7.5888,0,0,1-1.0946.5575A8.9588,8.9588,0,0,1,33.3515,103.8865Zm5.8091-11.148-.1487.1585.2593-.16Z" style="fill: #2b2129"/>
    <path id="logoMark_PathItem_6" data-name="logoMark &lt;PathItem&gt;" d="M40.2418,96.5055,38.64,96.5q-2.3709-.0076-4.7414-.0218l-.1408-.0006c-.7655-.0022-1.4886-.0042-1.7449-.898a2.0943,2.0943,0,0,1,.6194-2.1187c.1171-.1246.2364-.2373.3569-.3442.0378-.0335.0761-.0643.1142-.0962q.1293-.1078.2612-.2035c.0418-.03.0834-.0605.1256-.0889.0989-.0665.199-.1274.3-.1842.028-.0157.0554-.0339.0836-.0489.1251-.0665.2524-.1248.3812-.1777.047-.0193.095-.0354.1426-.0529.0867-.0321.174-.0619.2624-.0883.0556-.0166.1116-.0324.168-.0469.0873-.0224.1757-.0414.2647-.0588.0528-.01.1049-.0225.1582-.0311q.1989-.0323.4033-.05c.0576-.0049.1165-.0065.1747-.01.09-.005.1812-.0092.2732-.01.0635-.0008.1277,0,.192.0005q.1563.0022.316.0112c.0517.0029.1029.0046.1551.0084.1613.0119.3246.0274.4909.048l.0547.0075q.2527.0326.5128.0762l.0274.0047q.2823.0483.5735.1082c.0267.0715.0614.14.0927.2092.024.0533.0447.108.071.16.0416.0827.0884.1628.1347.2432.0264.0459.05.0929.0779.1382.0542.0887.1117.1752.1692.2617.0233.0352.0452.0711.0689.1059.0814.12.1644.238.2468.3552.0759.1078.1512.2148.2246.3219.016.0234.03.0469.0463.07.0574.085.1145.17.1682.2556.0143.0229.0266.0462.0407.0692.0531.0871.1055.1744.1529.2633.01.0193.0184.0393.0284.0587.0481.0935.0942.1875.1339.284.0073.0178.0123.0364.0193.0543a2.8946,2.8946,0,0,1,.1015.3016c.0057.0211.0084.0433.0136.0645a2.5266,2.5266,0,0,1,.057.3074c.0036.0323.003.0664.0054.0992a2.5,2.5,0,0,1,.0074.2886c-.0026.0587-.0121.12-.019.18C40.26,96.3854,40.2524,96.4447,40.2418,96.5055Z" style="fill: #2b2129"/>
    <path id="logoMark_CompoundPathItem_6" data-name="logoMark &lt;CompoundPathItem&gt;" d="M40.6619,97.007,38.6382,97q-2.3718-.0076-4.7433-.0218l-.1395-.0006c-.786-.0023-1.8634-.0054-2.2232-1.26a2.5887,2.5887,0,0,1,.7355-2.5988c.1279-.1362.258-.2593.39-.3761l.0971-.0823c.1238-.1031.22-.1783.3173-.2485l.14-.0987c.11-.074.2216-.142.3345-.2053l.0936-.0543a4.6846,4.6846,0,0,1,.426-.1987l.12-.0452c.1363-.05.2337-.0832.3322-.1126l.1869-.0522c.0963-.0247.1942-.0458.2927-.0651l.1743-.034q.2175-.0352.4409-.0543l.1362-.0082c.1506-.008.2485-.0125.3478-.0137l.2053.0005q.1669.0024.3367.0119l.1635.0089c.17.0126.3416.0289.5162.05.2321.03.4093.0564.59.087.2218.0378.4182.075.618.1161l.2708.0556.2074.5078c.0648.1372.102.2013.139.2654l.05.0893c.0855.1446.1392.2253.1929.3061l-.3466.384.4135-.281.47.6756c.1088.1625.1689.2523.2256.3428.1021.17.1593.2654.2112.3627.0865.1715.1386.2785.1836.3881a4.2233,4.2233,0,0,1,.1413.4163,3.8468,3.8468,0,0,1,.0843.4444l.0073.12a2.9656,2.9656,0,0,1,.0083.3457c-.0025.0577-.0092.1156-.0164.1734-.0126.11-.0213.18-.0338.2515Zm-.4188-.8626v.012l.042-.01Zm-7.254-3.028.3318.3741c-.1094.0971-.2179.1993-.3242.3125a1.6133,1.6133,0,0,0-.5033,1.6386c.1348.47.3765.5332,1.2655.5358l.142.0006q2.3715.0173,4.7406.0218l1.1439.004c-.0013-.0366-.0036-.0729-.0063-.1089a1.8753,1.8753,0,0,0-.05-.3263,2.13,2.13,0,0,0-.095-.3019,2.7651,2.7651,0,0,0-.132-.2915c-.0679-.1325-.1155-.2115-.1636-.29l-.7861-1.1631c-.0607-.0914-.1212-.1827-.1784-.2763l-.0585-.1026c-.0861-.151-.1324-.2318-.1741-.3148l-.059-.13.0224-.0174q-.1709-.0329-.3382-.0616c-.1935-.0328-.3576-.0569-.52-.0778-.21-.0267-.3654-.0415-.5186-.0527l-.1455-.0078q-.15-.0084-.2962-.01l-.1778-.0005c-.0852.0011-.1689.005-.2522.01l-.16.0088q-.1854.0157-.3657.045l-.1423.0283c-.0793.0155-.1583.0323-.2363.0524l-.15.0419c-.0778.0232-.1551.05-.2319.078l-.3157-.4161.19.4626c-.1135.0466-.2258.0979-.3361.1566-.1635.0938-.2522.1477-.34.2066l-.0974.0688c-.0931.0673-.1709.1281-.248.1925Zm5.3953-.6865-.008.0387.1124-.0875Z" style="fill: #2b2129"/>
    <path id="logoMark_PathItem_7" data-name="logoMark &lt;PathItem&gt;" d="M38.5193,92.024c-2.1077-.4388-4.2977-.5841-6.0509,1.2829a2.3016,2.3016,0,0,0-.6717,2.3345c.3029,1.0561,1.1835,1.0587,1.96,1.0609l.14.0007q2.307.0168,4.614.0215l1.71.0061c-.0027.072-.0072.1427-.0115.2137-.0053.0881-.01.177-.0172.2635-.0079.0888-.0191.1753-.0295.2623-.01.0845-.0189.17-.0313.2524-.0127.0855-.0289.1685-.0442.2522-.0147.081-.0282.1628-.0452.2422-.0177.0823-.0389.162-.0591.2425-.0193.0772-.0373.1554-.0589.231-.0226.0792-.0489.1557-.074.2331-.0238.0733-.0462.1477-.0723.2194-.0275.0758-.0587.1487-.0887.2226-.0283.07-.0552.1407-.0857.2087-.0323.072-.0683.1409-.103.2109-.0329.0665-.0643.1342-.0994.1989-.0371.0682-.0779.1333-.1173.2-.0374.0628-.0732.1269-.1127.1879-.042.0648-.0879.1263-.1323.1891-.0416.0588-.0815.119-.1252.1761-.0471.0614-.0982.12-.1477.1788-.0456.0547-.0894.1108-.137.1637-.0525.0582-.109.1128-.1639.1689-.0493.05-.0966.1021-.1479.1506-.0578.0547-.12.1057-.18.1582-.0529.046-.1038.0938-.1587.1382-.0641.0517-.1325.1-.1992.1491-.0554.041-.1087.0839-.1659.1233-.0737.0508-.1518.0974-.2285.1454-.0546.0342-.107.07-.1631.1032-.0851.05-.1749.0952-.2635.1417-.052.0273-.1016.0568-.1548.0829q-.2154.106-.4436.2a10.2089,10.2089,0,0,1-3.954.5287c-.3314,0-.6631.0006-.9946.0088l-.1271-.1178.1281.1187h0l-.4608-.4271-.005-.0046a9.2155,9.2155,0,0,1-2.7313-11.12c.0989-.2291.2064-.45.32-.6665.0367-.07.0774-.1363.1156-.205.08-.1432.1607-.2856.2468-.4227.0487-.0776.1006-.152.1513-.2276.0822-.1226.1657-.2439.253-.3611.0562-.0755.1142-.1488.1724-.222q.1335-.1678.2737-.3281.0912-.1039.185-.2049c.0988-.1054.2006-.2072.3039-.307.0627-.06.1249-.1217.1892-.18.1143-.1037.2324-.2023.3518-.2993.0581-.0473.1146-.0966.1739-.1422.1525-.1174.31-.2282.47-.3348.03-.02.058-.0421.0881-.0616q.2925-.19.6006-.355c.0351-.0189.0719-.0347.1073-.0531.1683-.0875.339-.1711.5137-.2477.0664-.0291.1348-.0545.2021-.0821.1476-.06.2962-.1187.4479-.1713.0781-.0271.1576-.0515.2367-.0766.1453-.0459.2919-.0892.4406-.1281.0842-.022.169-.0426.2542-.0624q.2235-.0517.4517-.0926c.0861-.0155.1723-.0312.2594-.0445.1582-.0242.3185-.0428.48-.0593.0831-.0085.1655-.0188.2494-.0253.18-.0139.3623-.0206.5455-.025.067-.0016.133-.0063.2005-.0067.1856-.0009.374.0076.5626.0165.0756.0035.15.0028.2258.008.2646.0179.5317.0447.8014.0821a5.5931,5.5931,0,0,0,.62.04c.0619.0016.1258.0041.1893.0065.0057.0356.0176.0652.0255.0987.0095.04.0181.0813.0306.1187a1.2271,1.2271,0,0,0,.0537.1292c.0156.0335.03.0681.0479.0992a1.1954,1.1954,0,0,0,.0751.11c.02.0276.0391.0566.0612.0822.0293.0339.0617.0644.0939.0951.0234.0224.0456.0463.07.0672.0352.03.0728.0562.11.0831.0251.018.049.0374.0749.0543.0409.0268.0835.0509.126.0752.0247.0141.0484.0294.0735.0429.0476.0256.0959.0492.1443.0729.021.01.0416.0214.0626.0313.0687.0326.1374.0639.205.0946l.1351.0619q.3534.1636.6791.353c.07.04.1329.0869.2008.129.1441.09.2894.1781.4253.2757.0712.0512.1359.1087.2049.1621.1249.0966.2512.1917.3689.2958.065.0575.1239.1213.1867.181.1137.1082.2285.2152.335.331.0582.0632.1108.1326.1669.1981.103.12.2067.24.3026.368.0546.0729.1037.1518.156.2272.0888.128.1782.2553.26.3907.0561.0924.1067.1911.16.2869.0692.1248.1394.2484.2036.3791s.1209.266.1793.4014c.0355.0818.0718.1625.1056.2465Z" style="fill: #cba58c"/>
    <path id="logoMark_CompoundPathItem_7" data-name="logoMark &lt;CompoundPathItem&gt;" d="M31.22,103.6827l-.1481-.1372,0,0,0,0,0,0-.46-.4268a9.6908,9.6908,0,0,1-2.8555-11.6891c.104-.2408.217-.4737.3362-.7007l.0808-.1447c.1249-.2222.21-.3721.3009-.5166l.12-.1823c.1259-.1873.2141-.3153.3063-.4391l.182-.2344q.1413-.1776.2894-.347l.1958-.2166c.1045-.1117.2121-.2194.3215-.325l.2-.1906c.121-.11.2461-.2143.3725-.3171l.1843-.15c.1615-.1243.3279-.2417.4973-.3547l.0934-.065q.31-.2007.6359-.3759l.1134-.0564c.178-.0925.3586-.1808.5435-.2619l.1455-.06c.224-.091.3811-.1526.5413-.2082l.2039-.0664c.1993-.063.3539-.1085.5107-.15l.2679-.0658q.2355-.0544.4757-.0975l.273-.0468c.1662-.0254.3347-.045.504-.0624l.2618-.0264c.1887-.0145.38-.0217.572-.0264l.21-.0068c.1941-.0009.3912.0077.5885.017l.2361.0086q.4141.0281.8363.0858a5.0362,5.0362,0,0,0,.56.035l.5744.0208.2393.7421.2171.214.7483.392c.2514.1164.491.2413.7214.3749.05.0288.0971.06.1442.0914l-.1491.4982.2635-.425c.1389.0862.2776.1726.4085.2666.0514.0369.1.0765.1488.1162l-.2357.452.3586-.3549c.1163.09.2323.18.3416.2761.0473.0418.0921.0863.1367.1309l-.2812.4247.3853-.3236c.1083.1028.2162.2059.3176.316.0424.0461.0826.0948.1226.1437L42.88,89.66l.38-.3253c.1017.1187.2031.2376.2977.364.04.0534.0777.1094.1151.1655l-.3593.3614.4331-.253c.0871.1256.1739.2513.2547.3841.043.0709.0832.1449.1232.2189l-.3909.3276.4662-.19c.0637.1144.1272.229.1862.349s.1134.2468.1675.3726l-.3354.2546,0,.0238.383-.1678.3554.8732-6.4847.1067-.0545-.0114c-2.2683-.4722-4.0861-.46-5.5844,1.1357a1.8171,1.8171,0,0,0-.5557,1.8542c.1806.63.59.6964,1.4813.6989l.1406.0007q2.3079.0168,4.6133.0215l2.2276.008-.0744,1.2424-.51.0564.4967.0573-.0629.42-.5132.0274.4923.0875-.0868.4028-.5138-.006.4856.1189-.11.3837-.5131-.0385.4765.1515-.1326.3638-.5089-.0754.4645.185-.1555.3455-.5022-.1123.45.2186-.178.3269L39.25,100.24l.4317.2521-.2007.3088L39,100.6157l.4109.2849-.2225.289-.466-.2216.3872.3162-.2444.27-.4485-.2565.3612.3459-.2644.2487-.43-.2882.3328.3731-.124.1068c-.0528.0427-.1081.0833-.1634.1236l-.4077-.32.3032.3976-.128.0941c-.0622.0428-.1271.0832-.1921.1234l-.38-.3509.2724.4192-.1226.0768c-.0751.0438-.1533.0848-.2316.1255l-.3459-.3821.2416.4377-.1142.0605q-.23.1133-.4745.2135a13.8,13.8,0,0,1-5.1259.5747Zm.2-15.9565.2773.4161c-.1506.1-.2984.2045-.4419.3149l-.0957.0779c-.18.1474-.2914.24-.399.3377l-.1411.1339c-.1341.13-.23.2254-.323.3247l-.1743.193q-.1324.1509-.2581.3094l-.1626.2093c-.0825.1108-.1612.2254-.2389.3412l-.1431.215c-.0815.13-.1578.2646-.2334.4l-.11.1937c-.1076.2051-.21.4151-.3035.6324a8.7315,8.7315,0,0,0,2.59,10.5351l.3388.3132a12.4068,12.4068,0,0,0,4.5678-.4962q.2123-.087.4125-.1856l.1433-.0771c.1183-.0617.1823-.0948.2435-.1306l1.7-1.5667.7741-1.6646.2437-1.3244-1.1777-.0042q-2.3077-.0077-4.6159-.0216l-.1384-.0006c-.8087-.0023-2.0321-.0058-2.4386-1.4231a2.7987,2.7987,0,0,1,.7878-2.8146c1.9126-2.0366,4.3354-1.8786,6.4624-1.4414l4.8915-.0805c-.0425-.0827-.0874-.1631-.1322-.2436l-.0812-.148c-.0321-.0593-.0639-.1187-.0983-.1753-.07-.1152-.1459-.224-.2215-.333l-.1678-.2447c-.0814-.1087-.1691-.2106-.2566-.3127l-.18-.2144c-.0862-.0937-.1785-.1808-.27-.2681l-.2146-.208c-.0926-.0819-.1912-.1574-.29-.2332l-.2446-.1931c-.1127-.081-.2326-.1548-.3522-.229l-.233-.1494q-.3066-.1776-.6386-.3318l-.9032-.4809c-.0538-.0386-.0984-.0711-.1406-.1067l-.0777-.0724c-.0644-.062-.1053-.102-.1429-.1457l-.0732-.0953a1.966,1.966,0,0,1-.1175-.1737l-.0593-.1188c-.0149-.0324-.0282-.0615-.04-.089a4.98,4.98,0,0,1-.5036-.0391c-.2577-.0358-.5132-.0615-.7663-.0786l-.2155-.0074c-.18-.0084-.3595-.0165-.5366-.0159l-.1912.0066c-.1741.0042-.3477.01-.5188.0237l-.1553.0153c-.2345.0245-.3866.042-.5367.0649l-.2336.04c-.1564.0283-.2991.0572-.44.09l-.2405.059c-.14.0368-.2791.0777-.4164.1212l-.2237.0721c-.1429.05-.2831.1048-.4223.1618l-.1906.0772c-.1647.0722-.3254.151-.484.2334l-.3379-.3905.2367.44q-.29.1558-.5653.3342Z" style="fill: #2b2129"/>
    <path id="logoMark_PathItem_8" data-name="logoMark &lt;PathItem&gt;" d="M107.8757,99.1319c-.7631,4.9777-5.0111,7.377-8.448,8.5137H38.2924c.0112-.02.0214-.0415.0331-.0608q.0359-.0593.0748-.1145.0451-.0643.094-.1238c.028-.034.0564-.0675.0862-.0993.0347-.0371.0709-.0725.1079-.1067.0313-.0291.0625-.0582.0953-.0855.0392-.0326.08-.0634.1212-.0936.0337-.0248.0669-.05.1018-.0734.0439-.0293.0893-.0569.1348-.0844.0348-.0209.069-.0426.1047-.0626.05-.0279.101-.0543.1522-.0806.0336-.0172.0663-.0352.1-.0519.0606-.03.1225-.0583.1846-.0868.026-.012.0513-.0244.0775-.0362q.1325-.06.2674-.1185.1686-.074.3374-.1512a3.6317,3.6317,0,0,0,1.1769-.7707,2.251,2.251,0,0,0,.1688-.2q.3945-.3285.7535-.6777l.0188-.02c3.374-3.3,4.334-7.9106,2.4512-11.7485q-.1993-.408-.4419-.8037a7.9076,7.9076,0,0,0-2.9888-3.854A8.097,8.097,0,0,0,40.3813,87.5l-.1364-.0624c-.0666-.03-.1327-.06-.1977-.091l-.0434-.0214c-.05-.0239-.0988-.048-.1464-.0732-.0216-.0115-.0419-.024-.063-.0358-.0393-.0221-.0785-.0442-.1157-.0679-.0228-.0145-.0438-.0306-.0656-.0459-.0331-.023-.066-.0463-.0967-.0715-.0218-.0177-.0415-.0373-.0619-.0563-.0276-.0256-.0549-.0517-.08-.08-.0191-.0214-.036-.0447-.0534-.0677a1.0247,1.0247,0,0,1-.0631-.0921c-.0153-.0256-.0287-.0532-.042-.0808a1.0313,1.0313,0,0,1-.0447-.1078c-.0106-.0305-.02-.0626-.0278-.0955-.0048-.0191-.0077-.04-.0116-.06l6.3494-.0011q24.3215-.0036,48.6428-.01c.709,0,1.4293-.0147,2.126-.0286q.4981-.01.9963-.0183c5.7545.2475,9.7153,3.41,10.5954,8.4609A13.2151,13.2151,0,0,1,107.8757,99.1319Z" style="fill: #d7af94"/>
    <path id="logoMark_CompoundPathItem_8" data-name="logoMark &lt;CompoundPathItem&gt;" d="M99.5082,108.1456h-62.07l.4179-.7448a2.5316,2.5316,0,0,1,.1348-.218q.0561-.08.1171-.1542c.0348-.0422.07-.0836.1071-.1231.0429-.0458.0874-.0894.1329-.1316l.1157-.1033c.047-.0391.0957-.0761.145-.1123l.8655-.4909.6825-.3059a3.1963,3.1963,0,0,0,1.02-.6577,1.7962,1.7962,0,0,0,.1342-.1588l.08-.0841q.3793-.3157.7245-.6516c3.2332-3.1638,4.1563-7.5486,2.37-11.19q-.19-.3881-.4195-.7629a7.508,7.508,0,0,0-3.8954-4.3024l-.8446-.4415c-.043-.03-.0861-.0611-.1266-.0942l-.0857-.077c-.039-.0362-.0774-.0737-.113-.1137l-.0716-.089a1.6063,1.6063,0,0,1-.1009-.1471l-.0633-.1206a1.5351,1.5351,0,0,1-.0663-.16l-.0405-.138-.1165-.5958.59-.086L94.124,85.88c.6964,0,1.4036-.0143,2.0885-.0279l1.0261-.019c6.0355.2588,10.1725,3.5764,11.0959,8.875a13.71,13.71,0,0,1,.0354,4.4993h0c-.8017,5.23-5.22,7.7335-8.7852,8.9127Zm-59.9578-1H99.3466c3.2864-1.1014,7.3154-3.396,8.0349-8.09h0a12.7226,12.7226,0,0,0-.0322-4.1761c-.8368-4.8022-4.6216-7.81-10.1243-8.0472l-.9422.0183c-.7417.0147-1.4556.0289-2.1585.0291l-53.8694.0108.3344.1547a8.5853,8.5853,0,0,1,1.1944.6811,8.4136,8.4136,0,0,1,3.1766,4.091,7.1486,7.1486,0,0,1,.4238.7619c1.98,4.0351.9785,8.8734-2.5508,12.3254-.2537.2485-.5014.4722-.759.6884q-.0807.1029-.1689.1957a4.1355,4.1355,0,0,1-1.3312.8811l-.8553.3872-.32-.3971.2284.4448Zm-.2028,0h.1136l-.32-.342Zm-.3076,0H39.11l-.2046-.1842Z" style="fill: #2b2129"/>
    <path id="logoMark_PathItem_9" data-name="logoMark &lt;PathItem&gt;" d="M88.4849,50.3575a3.6673,3.6673,0,0,1-2.0272.3682c-6.27-.0452-12.6458-.0382-18.8118-.0311q-3.4605.0039-6.9213.0052-3.44-.0022-6.8841-.0058-2.2619-.003-4.5575-.0051c-4.5862-.0033-9.2441.0015-13.8438.0385a3.8713,3.8713,0,0,1-2.1326-.3814,1.6041,1.6041,0,0,1-.5834-1.4809,1.4682,1.4682,0,0,1,.5511-1.3321,1.359,1.359,0,0,1,.157-.0914,4.6144,4.6144,0,0,1,1.9629-.2834h.0373c18.1.0409,34.7876.0395,51.0177-.0033a3.7536,3.7536,0,0,1,2.0451.3758,1.5277,1.5277,0,0,1,.5566,1.4048A1.5454,1.5454,0,0,1,88.4849,50.3575Z" style="fill: #c2956d"/>
    <path id="logoMark_CompoundPathItem_9" data-name="logoMark &lt;CompoundPathItem&gt;" d="M35.3492,51.2277a4.1062,4.1062,0,0,1-2.3226-.4675,2.1343,2.1343,0,0,1-.8034-1.8963,1.9443,1.9443,0,0,1,.77-1.7446,1.8741,1.8741,0,0,1,.2146-.1251,4.9552,4.9552,0,0,1,2.1862-.336c18.08.0408,34.7676.04,51.0536-.0033a4.0832,4.0832,0,0,1,2.3277.4624,2.5285,2.5285,0,0,1-.011,3.6547l0,0a4.03,4.03,0,0,1-2.31.4536c-6.2969-.0455-12.657-.0381-18.8077-.0311L60.7246,51.2l-11.4419-.0109c-4.5849-.0032-9.2413.0015-13.84.0384Zm.0812-3.5695a4.39,4.39,0,0,0-1.776.2308.8765.8765,0,0,0-.0993.0577c-.1537.1044-.33.3033-.3319.92-.0017.7215.1827.9434.3632,1.0653a3.5765,3.5765,0,0,0,1.8495.2958c4.6-.037,9.26-.0417,13.8475-.0385L60.725,50.2l6.92-.0052c6.1527-.0071,12.5149-.0143,18.816.0311a3.3492,3.3492,0,0,0,1.744-.2827h0c.1705-.115.345-.3248.3456-1.008.0006-.67-.17-.877-.3377-.9908a3.4869,3.4869,0,0,0-1.7653-.2893C70.1628,47.6979,53.474,47.699,35.43,47.6582Z" style="fill: #2b2129"/>
    <path id="logoMark_PathItem_10" data-name="logoMark &lt;PathItem&gt;" d="M35.2458,66.9351h.0319c17.1689.0479,34.4084.0476,51.24-.0006h.0336c2.0979,0,2.4664.5723,2.4952,1.8492a1.4737,1.4737,0,0,1-.5311,1.3688,3.7634,3.7634,0,0,1-2.1339.38c-6.2247-.043-12.5536-.0363-18.6742-.03q-6.8418.0075-13.6838,0Q51.73,70.5,49.4027,70.4978c-4.65-.0028-9.3737.0018-14.0382.0349a3.7558,3.7558,0,0,1-2.0951-.376,1.4924,1.4924,0,0,1-.5427-1.39C32.744,67.5271,33.1262,66.9351,35.2458,66.9351Z" style="fill: #c2956d"/>
    <path id="logoMark_CompoundPathItem_10" data-name="logoMark &lt;CompoundPathItem&gt;" d="M35.2446,71.0332a3.934,3.934,0,0,1-2.2587-.4646,2.0152,2.0152,0,0,1-.7592-1.8091c.0237-1.6944.842-2.3244,3.0192-2.3244h.0318c17.1516.0479,34.39.0477,51.2389-.0006,2.2075,0,2.9913.6118,3.03,2.338a1.9475,1.9475,0,0,1-.7463,1.791,4.1036,4.1036,0,0,1-2.4234.4686c-6.25-.0432-12.5632-.0363-18.6688-.03q-6.8425.0075-13.685,0l-4.6209-.0045c-4.6491-.0028-9.3711.0018-14.0344.0349Q35.3055,71.0333,35.2446,71.0332Zm.0013-4.0981v.5c-2.0005,0-2.0076.5038-2.0193,1.3385-.0092.6516.16.8566.3263.9713a3.4936,3.4936,0,0,0,1.8071.2878c4.6668-.0331,9.3913-.0377,14.043-.0349l4.6214.0045q6.8421.0075,13.6828,0c6.1076-.0066,12.4231-.0135,18.6781.03a3.5166,3.5166,0,0,0,1.8458-.2906c.1547-.1072.3305-.3117.3159-.9463-.02-.8775-.0306-1.3607-1.9953-1.3607-16.8826.0483-34.1233.0485-51.2754.0006Z" style="fill: #2b2129"/>
    <path id="logoMark_PathItem_11" data-name="logoMark &lt;PathItem&gt;" d="M35.24,57.0488h.0323c17.1335.0474,34.3735.0473,51.2412,0h.0341c2.1049,0,2.4733.565,2.4992,1.8254a1.4623,1.4623,0,0,1-.5375,1.3618,3.8581,3.8581,0,0,1-2.1216.3771c-6.2878-.0414-12.681-.0352-18.8628-.0287q-6.8295.0072-13.6591,0c-6.0626-.0063-12.3319-.0131-18.4966.0292a3.7687,3.7687,0,0,1-2.0973-.374,1.4852,1.4852,0,0,1-.5447-1.3751C32.7453,57.6355,33.1269,57.0488,35.24,57.0488Z" style="fill: #c2956d"/>
    <path id="logoMark_CompoundPathItem_11" data-name="logoMark &lt;CompoundPathItem&gt;" d="M35.2319,61.1138a3.9776,3.9776,0,0,1-2.2414-.4615,1.959,1.959,0,0,1-.7633-1.7959c.0249-1.6821.8415-2.3076,3.0127-2.3076h.0323c17.1369.0475,34.376.0473,51.24,0,2.2146,0,2.9994.6058,3.0346,2.3151a1.9364,1.9364,0,0,1-.755,1.7847,4.2077,4.2077,0,0,1-2.4069.4645c-6.333-.0418-12.7011-.0351-18.8594-.0287q-6.83.007-13.66,0l-.1457,0c-6.0145-.0063-12.2336-.0127-18.347.0293Q35.3011,61.1138,35.2319,61.1138Zm.008-4.065v.5c-1.9932,0-2.0006.4978-2.0129,1.3225-.0095.6425.1694.8476.3263.9544a3.4939,3.4939,0,0,0,1.81.2873c6.1194-.042,12.3406-.0356,18.3569-.0293l.1457,0q6.8289.0072,13.658,0c6.16-.0064,12.53-.0131,18.8667.0287a3.6132,3.6132,0,0,0,1.836-.29c.1557-.1066.3329-.31.32-.9388-.0177-.8613-.0275-1.3357-1.9993-1.3357-16.8983.0477-34.1393.0478-51.2767,0Z" style="fill: #2b2129"/>
    <path id="logoMark_PathItem_12" data-name="logoMark &lt;PathItem&gt;" d="M88.513,80.043a3.2663,3.2663,0,0,1-1.74.3733q-.1831.0042-.3854.0021c-6.2283-.043-12.5608-.0361-18.6845-.03q-6.8284.0069-13.656,0c-6.1212-.0066-12.4516-.0135-18.677.03a3.82,3.82,0,0,1-2.1038-.3731,1.4819,1.4819,0,0,1-.54-1.3722c.02-1.2311.4017-1.819,2.5126-1.819h.0323c8.5531.0237,17.14.0356,25.7.0355s17.0934-.0121,25.54-.036h.0332c2.1069,0,2.4757.5657,2.5021,1.8279A1.4624,1.4624,0,0,1,88.513,80.043Z" style="fill: #c2956d"/>
    <path id="logoMark_CompoundPathItem_12" data-name="logoMark &lt;CompoundPathItem&gt;" d="M35.2558,80.9193a4.04,4.04,0,0,1-2.2709-.4607,1.9558,1.9558,0,0,1-.7582-1.7933c.0274-1.6846.8439-2.3109,3.0126-2.3109q12.88.0356,25.7321.0355c8.56,0,17.0925-.0121,25.5391-.036,2.2153,0,3.0008.6065,3.0365,2.3174a1.9361,1.9361,0,0,1-.7514,1.7841h0a3.66,3.66,0,0,1-2.0108.4608q-.1908.0043-.4017.0022c-6.1951-.0428-12.4971-.0361-18.5916-.03-4.64.0047-9.1922.0049-13.7444,0-6.14-.0066-12.4595-.0134-18.673.03C35.3342,80.9191,35.2947,80.9193,35.2558,80.9193Zm.0144-3.5649c-2.022,0-2.03.4995-2.0436,1.3271-.01.6409.1668.8451.3223.9513a3.5413,3.5413,0,0,0,1.8173.286c6.2185-.0436,12.54-.0368,18.6529-.03,4.5806.005,9.1321.0048,13.684,0,6.1838-.0065,12.4878-.0132,18.6884.03.1308.0012.2538.0006.3706-.002a2.9259,2.9259,0,0,0,1.4683-.286c.1545-.1059.33-.3082.3169-.9382-.0181-.863-.028-1.3384-2.0022-1.3384q-12.7562.036-25.6492.036C52.36,77.39,43.7988,77.3781,35.27,77.3544Z" style="fill: #2b2129"/>
    <path id="logoMark_PathItem_13" data-name="logoMark &lt;PathItem&gt;" d="M88.513,40.4579a3.2671,3.2671,0,0,1-1.74.3734q-.1831.0041-.3854.0021c-6.2283-.0431-12.5608-.0362-18.6845-.03q-6.8284.0069-13.656,0c-6.1212-.0066-12.4516-.0135-18.677.03a3.8222,3.8222,0,0,1-2.1038-.3731,1.4821,1.4821,0,0,1-.54-1.3723c.02-1.2311.4017-1.819,2.5126-1.819h.0323c8.5531.0238,17.14.0356,25.7.0355s17.0934-.012,25.54-.0359h.0332c2.1069,0,2.4757.5657,2.5021,1.8278A1.4623,1.4623,0,0,1,88.513,40.4579Z" style="fill: #c2956d"/>
    <path id="logoMark_CompoundPathItem_13" data-name="logoMark &lt;CompoundPathItem&gt;" d="M35.2559,41.3342a4.04,4.04,0,0,1-2.271-.4607,1.9557,1.9557,0,0,1-.7582-1.7933c.0274-1.6846.8439-2.3109,3.0126-2.3109q12.88.0357,25.7321.0355c8.56,0,17.0925-.012,25.5391-.0359,2.2153,0,3.0008.6064,3.0365,2.3174a1.936,1.936,0,0,1-.7514,1.784v0a3.6592,3.6592,0,0,1-2.0108.4607q-.1908.0044-.4017.0022c-6.1951-.0427-12.4971-.0361-18.5916-.03-4.64.0047-9.1922.0049-13.7444,0-6.14-.0066-12.4595-.0134-18.673.03C35.3343,41.334,35.2947,41.3342,35.2559,41.3342Zm.0143-3.5649c-2.022,0-2.03.4995-2.0436,1.3271-.01.641.1668.8451.3223.9513a3.5433,3.5433,0,0,0,1.8173.286c6.2185-.0436,12.54-.0368,18.6529-.03,4.5806.005,9.1321.0048,13.684,0,6.1838-.0065,12.4878-.0131,18.6884.03.1308.0013.2538.0006.3706-.002a2.9255,2.9255,0,0,0,1.4682-.286h0c.1545-.1058.33-.3082.317-.9382-.0181-.863-.028-1.3383-2.0022-1.3383q-12.7609.0358-25.66.0359C52.3527,37.8048,43.7956,37.793,35.27,37.7693Z" style="fill: #2b2129"/>
    <path id="logoMark_PathItem_14" data-name="logoMark &lt;PathItem&gt;" d="M88.513,30.5718a3.2652,3.2652,0,0,1-1.74.3734q-.1831.0042-.3854.0021c-6.2283-.043-12.5608-.0361-18.6845-.03q-6.8284.0069-13.656,0c-6.1212-.0066-12.4516-.0135-18.677.03a3.82,3.82,0,0,1-2.1038-.3731,1.4819,1.4819,0,0,1-.54-1.3722c.02-1.2311.4017-1.819,2.5126-1.819h.0323c8.5531.0237,17.14.0356,25.7.0355s17.0934-.0121,25.54-.036h.0332c2.1069,0,2.4757.5657,2.5021,1.8278A1.4622,1.4622,0,0,1,88.513,30.5718Z" style="fill: #c2956d"/>
    <path id="logoMark_CompoundPathItem_14" data-name="logoMark &lt;CompoundPathItem&gt;" d="M35.2559,31.4482a4.04,4.04,0,0,1-2.271-.4607,1.9559,1.9559,0,0,1-.7582-1.7934c.0274-1.6845.8439-2.3108,3.0126-2.3108q12.88.0356,25.7321.0355c8.56,0,17.0925-.0121,25.5391-.036,2.2153,0,3.0008.6064,3.0365,2.3174a1.9361,1.9361,0,0,1-.7514,1.7841h0a3.6591,3.6591,0,0,1-2.0108.4608q-.1908.0043-.4017.0022c-6.1951-.0428-12.4971-.0361-18.5916-.03-4.64.0047-9.1922.0048-13.7444,0-6.14-.0066-12.4595-.0134-18.673.03C35.3343,31.448,35.2947,31.4482,35.2559,31.4482Zm.0143-3.5649c-2.022,0-2.03.5-2.0436,1.3271-.01.6409.1668.8451.3223.9513a3.5433,3.5433,0,0,0,1.8173.286c6.2185-.0436,12.54-.0368,18.6529-.03,4.5806.0049,9.1321.0048,13.684,0,6.1838-.0065,12.4878-.0132,18.6884.03.1308.0012.2538.0006.3706-.002a2.9262,2.9262,0,0,0,1.4683-.286h0c.1545-.1059.33-.3082.317-.9383-.0181-.8629-.028-1.3383-2.0022-1.3383q-12.7562.036-25.6492.036C52.36,27.9188,43.7988,27.907,35.27,27.8833Z" style="fill: #2b2129"/>
    <path id="logoMark_PathItem_15" data-name="logoMark &lt;PathItem&gt;" d="M88.513,20.6858a3.2661,3.2661,0,0,1-1.74.3734q-.1831.0041-.3854.0021c-6.2283-.043-12.5608-.0361-18.6845-.03q-6.8284.007-13.656,0c-6.1212-.0066-12.4516-.0135-18.677.03a3.8212,3.8212,0,0,1-2.1038-.3731,1.4821,1.4821,0,0,1-.54-1.3723c.02-1.2311.4017-1.819,2.5126-1.819h.0323c8.5531.0238,17.14.0356,25.7.0356s17.0934-.0121,25.54-.036h.0332c2.1069,0,2.4757.5657,2.5021,1.8278A1.4623,1.4623,0,0,1,88.513,20.6858Z" style="fill: #c2956d"/>
    <path id="logoMark_CompoundPathItem_15" data-name="logoMark &lt;CompoundPathItem&gt;" d="M35.256,21.5621a4.04,4.04,0,0,1-2.2711-.4607,1.9556,1.9556,0,0,1-.7582-1.7933c.0274-1.6846.8439-2.3109,3.0126-2.3109q12.88.0357,25.7321.0356c8.56,0,17.0925-.0121,25.5391-.036,2.2153,0,3.0008.6064,3.0365,2.3174a1.9361,1.9361,0,0,1-.7514,1.7841h0a3.66,3.66,0,0,1-2.0108.4608q-.1908.0042-.4017.0022c-6.1989-.0428-12.5047-.0362-18.6029-.03-4.6287.0048-9.1809.0049-13.7331,0-6.14-.0066-12.4595-.0134-18.673.03C35.3343,21.5619,35.2948,21.5621,35.256,21.5621Zm.0142-3.5649c-2.022,0-2.03.5-2.0436,1.3271-.01.641.1668.8451.3223.9514a3.5433,3.5433,0,0,0,1.8173.2859c6.2185-.0436,12.54-.0368,18.6529-.03,4.5806.005,9.1321.0049,13.684,0,6.1762-.0065,12.484-.0131,18.6884.03.1308.0013.2538.0006.3706-.002a2.9265,2.9265,0,0,0,1.4683-.2859h0c.1545-.1059.33-.3082.317-.9383-.0181-.863-.028-1.3383-2.0022-1.3383q-12.7562.036-25.6492.036C52.36,18.0328,43.7988,18.0209,35.27,17.9972Z" style="fill: #2b2129"/>
  </g>
</svg>
