<svg width="18" height="18" viewBox="0 0 20 20" fill="none" xmlns="http://www.w3.org/2000/svg" fill="#99A1BD">
<path d="M20 13C20 12.4477 19.5523 12 19 12C18.4477 12 18 12.4477 18 13H20ZM19 17H20H19ZM17 19V18V19ZM3 19V20V19ZM1 17H0H1ZM2 13C2 12.4477 1.55228 12 1 12C0.447715 12 5.96046e-08 12.4477 5.96046e-08 13H2ZM14.2929 6.70711C14.6834 7.09763 15.3166 7.09763 15.7071 6.70711C16.0976 6.31658 16.0976 5.68342 15.7071 5.29289L14.2929 6.70711ZM10 1L10.7071 0.292893C10.3166 -0.0976311 9.68342 -0.0976311 9.29289 0.292893L10 1ZM4.29289 5.29289C3.90237 5.68342 3.90237 6.31658 4.29289 6.70711C4.68342 7.09763 5.31658 7.09763 5.70711 6.70711L4.29289 5.29289ZM9 13C9 13.5523 9.44771 14 10 14C10.5523 14 11 13.5523 11 13H9ZM18 13V17H20V13H18ZM18 17C18 17.2652 17.8946 17.5196 17.7071 17.7071L19.1213 19.1213C19.6839 18.5587 20 17.7957 20 17H18ZM17.7071 17.7071C17.5196 17.8946 17.2652 18 17 18V20C17.7957 20 18.5587 19.6839 19.1213 19.1213L17.7071 17.7071ZM17 18H3V20H17V18ZM3 18C2.73478 18 2.48043 17.8946 2.29289 17.7071L0.87868 19.1213C1.44129 19.6839 2.20435 20 3 20V18ZM2.29289 17.7071C2.10536 17.5196 2 17.2652 2 17H0C0 17.7957 0.31607 18.5587 0.87868 19.1213L2.29289 17.7071ZM2 17V13H5.96046e-08L0 17H2ZM15.7071 5.29289L10.7071 0.292893L9.29289 1.70711L14.2929 6.70711L15.7071 5.29289ZM9.29289 0.292893L4.29289 5.29289L5.70711 6.70711L10.7071 1.70711L9.29289 0.292893ZM9 1V13H11V1H9Z" />
</svg>
