<svg width="16" height="16" viewBox="0 0 16 16" fill="none" xmlns="http://www.w3.org/2000/svg">
<path opacity="0.4" d="M14 3.33333C10.6667 2.66666 9.48138 2.07399 8.01204 1.33333C6.51871 2.07399 5.33333 2.66666 2 3.33333C2 4.09133 2 6.46794 2 7.25927C2 11.7039 5.778 13.926 8 14.6667C10.222 13.926 14 11.7039 14 7.25927C14 6.44261 14 4.12933 14 3.33333Z" fill="#40B66B"/>
<path d="M7.34132 9.83335C7.21332 9.83335 7.0853 9.78471 6.98797 9.68671L5.65463 8.35337C5.4593 8.15804 5.4593 7.84135 5.65463 7.64602C5.84997 7.45068 6.16666 7.45068 6.36199 7.64602L7.34197 8.626L9.65528 6.31268C9.85062 6.11735 10.1673 6.11735 10.3626 6.31268C10.558 6.50802 10.558 6.82471 10.3626 7.02004L7.69597 9.68671C7.59731 9.78471 7.46932 9.83335 7.34132 9.83335Z" fill="#40B66B"/>
</svg>
