<svg width="11" height="11" fill="none" xmlns="http://www.w3.org/2000/svg"><path fill-rule="evenodd" clip-rule="evenodd" d="M5.528 1.043c.227-.438.44-.428.641-.043a4.2 4.2 0 0 0 .083 1.18c1.457 1.451.42 2.98 1.056 4.556 1.363.016 1.255-1.166 1.987-1.241.083 1.289-.668 2.283-1.925 2.406.316 1.377 1.242 2.642 2.69 1.832.21.01.239.12.156.289-1.56 1.615-4.106.163-4.699-1.917-1.428 2.082-3.767 2.037-5.24.042C.23 7.963.27 7.851.496 7.88A2.446 2.446 0 0 0 4.7 6.821c.111-1.743-.04-3.139.931-4.641a2.337 2.337 0 0 0-.103-1.137Z" fill="#0E9F6E"/></svg>