<svg width="10" height="12" viewBox="0 0 10 12" fill="none" xmlns="http://www.w3.org/2000/svg">
<path d="M4.75 11C4.75 11 5.22377 11.1391 5.80923 10.5828L7.64433 8.65908C8.35405 7.91508 8.74998 6.92678 8.74989 5.89856C8.7498 4.72716 8.74971 3.31706 8.74991 2.50009C8.74996 2.22391 8.77618 2 8.5 2H8.25M6.74898 5.75L6.74979 2L6.74991 1.50009C6.74996 1.22391 6.52609 1 6.24991 1H4.25167C3.97553 1 3.75167 1.22386 3.75167 1.5V4.75039C3.75167 5.29859 3.52665 5.82276 3.12922 6.20034L1.6891 7.56856C1.10364 8.12478 1.10363 9.0266 1.68909 9.58283C2.12197 9.99409 2.75372 10.1013 3.29025 9.90438C3.47937 9.83497 3.65665 9.72779 3.80923 9.58283L5.80923 7.6827M6.74898 5.75L6.7487 6.36119C6.74861 6.63517 6.63611 6.89711 6.43748 7.08582L5.80923 7.6827M6.74898 5.75H6.4384C5.67845 5.75 5.19623 6.56419 5.56146 7.23061L5.80923 7.6827" stroke="white" stroke-linecap="round"/>
</svg>
