<svg width="12" height="10" viewBox="0 0 12 10" fill="none" xmlns="http://www.w3.org/2000/svg">
<path d="M10.5285 2.59033C10.5331 2.69593 10.5331 2.79673 10.5331 2.90233C10.5378 6.10394 8.18553 9.79995 3.8839 9.79995C2.61518 9.79995 1.36961 9.42075 0.299988 8.71035C0.485203 8.73435 0.670418 8.74395 0.855634 8.74395C1.90673 8.74395 2.93004 8.37915 3.75888 7.70234C2.75872 7.68315 1.87895 7.00634 1.57334 6.01754C1.92525 6.08954 2.28642 6.07514 2.62907 5.97434C1.54093 5.75354 0.758396 4.75994 0.753765 3.60313C0.753765 3.59353 0.753765 3.58393 0.753765 3.57433C1.07789 3.76153 1.44369 3.86713 1.81412 3.87673C0.790808 3.16633 0.471312 1.75033 1.09178 0.641522C2.28179 2.15833 4.03208 3.07513 5.91201 3.17593C5.72216 2.33593 5.98147 1.45272 6.58805 0.857523C7.52801 -0.0592805 9.00974 -0.0112803 9.89877 0.963123C10.422 0.857523 10.9267 0.655922 11.3851 0.372721C11.2092 0.934323 10.8434 1.40952 10.3572 1.71193C10.8202 1.65433 11.274 1.52472 11.7 1.33272C11.3851 1.82233 10.9869 2.24473 10.5285 2.59033Z" fill="currentColor"/>
</svg>
