<svg width="20" height="20" viewBox="0 0 20 20" fill="none" xmlns="http://www.w3.org/2000/svg">
<path fill-rule="evenodd" clip-rule="evenodd" d="M14.1111 16.983V17.8664H5.90553V16.983C5.89939 16.6669 6.0035 16.3585 6.19997 16.1108L8.09442 13.7441H11.9222C12.4833 14.4441 13.3333 15.5553 13.8111 16.1108C14.0087 16.3582 14.1147 16.6664 14.1111 16.983Z" fill="currentColor"/>
<path fill-rule="evenodd" clip-rule="evenodd" d="M7.95004 5.55534C7.95003 6.23085 7.74979 6.89121 7.37461 7.45296C6.99942 8.01471 6.46614 8.45263 5.84215 8.71139C5.21816 8.97015 4.53147 9.03814 3.86885 8.90676C3.20623 8.77537 2.59743 8.45052 2.11938 7.97324C1.64133 7.49597 1.31549 6.8877 1.18303 6.2253C1.05057 5.56289 1.11744 4.87609 1.37519 4.25168C1.63294 3.62727 2.06999 3.09328 2.63113 2.71718C3.19227 2.34109 3.8523 2.13977 4.52781 2.13867C5.43448 2.13867 6.3041 2.49846 6.94573 3.13905C7.58736 3.77964 7.94856 4.64867 7.95004 5.55534Z" fill="currentColor"/>
<path fill-rule="evenodd" clip-rule="evenodd" d="M18.889 5.55534C18.889 6.23109 18.6886 6.89167 18.3132 7.45354C17.9378 8.01541 17.4041 8.45333 16.7798 8.71193C16.1555 8.97053 15.4685 9.03819 14.8058 8.90636C14.143 8.77452 13.5342 8.44912 13.0564 7.97129C12.5786 7.49346 12.2531 6.88467 12.1213 6.2219C11.9895 5.55913 12.0571 4.87215 12.3157 4.24784C12.5743 3.62352 13.0123 3.08991 13.5741 2.71448C14.136 2.33906 14.7966 2.13867 15.4723 2.13867C16.378 2.14014 17.2462 2.50058 17.8867 3.14101C18.5271 3.78144 18.8875 4.64963 18.889 5.55534Z" fill="currentColor"/>
<path fill-rule="evenodd" clip-rule="evenodd" d="M18.889 10.3442V11.7109C18.8893 11.8007 18.8718 11.8897 18.8375 11.9726C18.8032 12.0556 18.7527 12.1309 18.689 12.1942C18.6261 12.2584 18.5508 12.3093 18.4677 12.3436C18.3847 12.378 18.2955 12.3952 18.2056 12.3942H1.79453C1.70748 12.3984 1.62044 12.3854 1.53845 12.3558C1.45645 12.3263 1.38111 12.2808 1.31676 12.222C1.2489 12.1558 1.19558 12.0761 1.16019 11.9881C1.1248 11.9001 1.10812 11.8057 1.1112 11.7109V10.3442H18.889Z" fill="currentColor"/>
</svg>
