<svg width="20" height="20" viewBox="0 0 20 22" fill="none" xmlns="http://www.w3.org/2000/svg">
<path d="M19 18C19 18.5523 18.5523 19 18 19V21C19.6569 21 21 19.6569 21 18H19ZM18 19C17.4477 19 17 18.5523 17 18H15C15 19.6569 16.3431 21 18 21V19ZM17 18C17 17.4477 17.4477 17 18 17V15C16.3431 15 15 16.3431 15 18H17ZM18 17C18.5523 17 19 17.4477 19 18H21C21 16.3431 19.6569 15 18 15V17ZM8 7H16V5H8V7ZM16 11H8V13H16V11ZM8 19H16V17H8V19ZM4 15C4 17.2091 5.79086 19 8 19V17C6.89543 17 6 16.1046 6 15H4ZM8 11C5.79086 11 4 12.7909 4 15H6C6 13.8954 6.89543 13 8 13V11ZM18 9C18 10.1046 17.1046 11 16 11V13C18.2091 13 20 11.2091 20 9H18ZM16 7C17.1046 7 18 7.89543 18 9H20C20 6.79086 18.2091 5 16 5V7ZM7 6C7 6.55228 6.55228 7 6 7V9C7.65685 9 9 7.65685 9 6H7ZM6 7C5.44772 7 5 6.55228 5 6H3C3 7.65685 4.34315 9 6 9V7ZM5 6C5 5.44772 5.44772 5 6 5V3C4.34315 3 3 4.34315 3 6H5ZM6 5C6.55228 5 7 5.44772 7 6H9C9 4.34315 7.65685 3 6 3V5Z"/>
</svg>
