<svg width="11" height="12" viewBox="0 0 11 12" fill="none" xmlns="http://www.w3.org/2000/svg">
<path fill-rule="evenodd" clip-rule="evenodd" d="M9.28925 3.68857L9.7763 3.21808C9.96557 3.03525 9.96557 2.7388 9.7763 2.55606C9.58704 2.37323 9.28025 2.37323 9.09098 2.55606L8.60394 3.02655C7.78679 2.36884 6.79383 1.9715 5.73463 1.87848V0.93631H6.2031C6.47075 0.93631 6.68769 0.726654 6.68769 0.468109C6.68769 0.209564 6.47075 0 6.2031 0H4.2969C4.02925 0 3.81231 0.209564 3.81231 0.468109C3.81231 0.726654 4.02925 0.93631 4.2969 0.93631H4.76537V1.87848C2.11395 2.11139 0 4.26306 0 6.92844C0 9.73141 2.34804 12 5.25005 12C8.15158 12 10.5 9.73178 10.5 6.92844C10.5 5.73111 10.0731 4.59723 9.28925 3.68857ZM5.24978 11.0636C2.88942 11.0636 0.968994 9.20859 0.968994 6.92838C0.968994 4.64825 2.88942 2.79321 5.24978 2.79321C7.61024 2.79321 9.53057 4.64825 9.53057 6.92838C9.53057 9.20859 7.61024 11.0636 5.24978 11.0636ZM7.49576 5.42109C7.68502 5.23835 7.68502 4.9419 7.49576 4.75907C7.30649 4.57624 6.99961 4.57624 6.81035 4.75907L4.90727 6.59754C4.718 6.78028 4.718 7.07673 4.90727 7.25956C5.09644 7.44239 5.40332 7.44239 5.59259 7.25956L7.49576 5.42109Z" fill="currentColor"/>
</svg>
