<svg xmlns="http://www.w3.org/2000/svg" width="84" height="84" viewBox="0 0 84 84">
    <g fill="none" fill-rule="evenodd">
        <g>
            <g>
                <g>
                    <path d="M0 0L83.782 0 83.782 83.782 0 83.782z" transform="translate(-659 -3692) translate(0 3361) translate(659 331)"/>
                    <path stroke="#1183B7" stroke-linecap="round" stroke-linejoin="round" stroke-width="4" d="M24.436 33.513L41.891 33.513M33.513 25.135L41.891 33.513 33.513 41.891" transform="translate(-659 -3692) translate(0 3361) translate(659 331)"/>
                    <path stroke="#78D5FF" stroke-linecap="round" stroke-linejoin="round" stroke-width="4" d="M50.269 41.891L41.891 50.269 50.269 58.647M59.345 50.269L41.891 50.269" transform="translate(-659 -3692) translate(0 3361) translate(659 331)"/>
                    <path stroke="#105D81" stroke-linecap="round" stroke-linejoin="round" stroke-width="4" d="M64.107 19.675c12.27 12.27 12.27 32.162 0 44.432-12.27 12.27-32.162 12.27-44.432 0-12.27-12.27-12.27-32.162 0-44.432 12.27-12.27 32.162-12.27 44.432 0" transform="translate(-659 -3692) translate(0 3361) translate(659 331)"/>
                </g>
            </g>
        </g>
    </g>
</svg>
