<svg xmlns="http://www.w3.org/2000/svg" width="16" height="15" viewBox="0 0 16 15">
    <defs>
        <linearGradient id="iaoxl8fjsa" x1="35.535%" x2="51.434%" y1="6.425%" y2="54.188%">
            <stop offset="0%" stop-color="#03B8FF"/>
            <stop offset="100%" stop-color="#FA52A0"/>
        </linearGradient>
        <linearGradient id="68gyx1m0nb" x1="36.509%" x2="55.516%" y1="11.952%" y2="65.26%">
            <stop offset="0%" stop-color="#03B8FF"/>
            <stop offset="100%" stop-color="#FA52A0"/>
        </linearGradient>
        <linearGradient id="qgb6fm0qlc" x1="28.725%" x2="47.793%" y1="-9.364%" y2="44.638%">
            <stop offset="0%" stop-color="#03B8FF"/>
            <stop offset="100%" stop-color="#FA52A0"/>
        </linearGradient>
    </defs>
    <g fill="none" fill-rule="evenodd">
        <g>
            <g>
                <g>
                    <g>
                        <path fill="url(#iaoxl8fjsa)" fill-rule="nonzero" d="M3.301 0.862L15.731 9.52 12.657 14.156 0.228 5.429z" transform="translate(-874 -299) translate(510 114) translate(0 165) translate(364 20)"/>
                        <path fill="url(#68gyx1m0nb)" fill-rule="nonzero" d="M15.73 9.52c-1.069 1.568-4.677.954-8.085-1.5C4.17 5.634 2.299 2.43 3.301.862c1.07-1.568 4.678-.955 8.086 1.5 3.475 2.318 5.346 5.59 4.344 7.158z" transform="translate(-874 -299) translate(510 114) translate(0 165) translate(364 20)"/>
                        <path fill="url(#qgb6fm0qlc)" fill-rule="nonzero" d="M12.657 14.088c-1.07 1.568-4.678.954-8.086-1.5C1.163 10.133-.775 6.998.294 5.36c1.07-1.568 4.678-.954 8.086 1.5 3.408 2.454 5.28 5.659 4.277 7.227z" transform="translate(-874 -299) translate(510 114) translate(0 165) translate(364 20)"/>
                        <path fill="#0E0F23" fill-rule="nonzero" d="M15.73 9.52l-3.073 4.636c-1.07 1.568-4.678.886-8.086-1.5-.668-.477-1.27-.955-1.871-1.5.468-.068 1.07-.34 1.67-1.023C5.44 8.974 5.975 8.702 6.443 8.77c.468 0 1.002.477 1.871 1.636.869 1.16 2.072 1.5 2.807.886.067-.068.133-.068.2-.136.602-.477.802-.682 1.938-2.863.267-.546 1.203-1.432 2.473-1.023.334.886.334 1.636 0 2.25z" transform="translate(-874 -299) translate(510 114) translate(0 165) translate(364 20)"/>
                        <path fill="#FFF" d="M15.263 9.247c-.936 1.364-4.21.682-7.35-1.568-3.208-2.25-5.08-5.113-4.144-6.476C4.705-.161 7.98.52 11.12 2.77c3.141 2.25 5.013 5.113 4.144 6.476zm-2.94-2.045c-.468.682-2.072.34-3.676-.75C7.11 5.362 6.175 3.93 6.643 3.248c.467-.682 2.071-.341 3.675.75 1.537 1.09 2.472 2.522 2.005 3.204z" transform="translate(-874 -299) translate(510 114) translate(0 165) translate(364 20)"/>
                        <path fill="#FFF" fill-rule="nonzero" d="M3.034 2.43c0-.068-.067-.137-.133-.068-.067.068-.134.068-.134.136.067.204.134.34.134.477 0 .068.066.137.133.068.067 0 .134-.068.067-.136 0-.136 0-.273-.067-.477zM3.368 3.52c0-.068-.067-.136-.133-.068-.067.069-.067.069-.067.137.735 1.704 2.272 3.545 4.276 4.908.067.068.134 0 .201 0 .067-.068 0-.136 0-.204C5.573 6.929 4.103 5.157 3.368 3.52zM11.454 10.202c-.067 0-.134 0-.134.068s0 .136.067.136c.2.068.468.136.668.205.067 0 .134 0 .134-.069 0-.068 0-.136-.067-.136-.2-.068-.468-.136-.668-.204zM12.657 10.474c-.067 0-.134.068-.134.137 0 .068.067.136.134.136.534.068 1.136.136 1.603.068.067 0 .134-.068.134-.136s-.067-.137-.134-.137c-.534.069-1.069 0-1.603-.068z" transform="translate(-874 -299) translate(510 114) translate(0 165) translate(364 20)"/>
                    </g>
                </g>
            </g>
        </g>
    </g>
</svg>
