<?xml version="1.0" encoding="UTF-8" standalone="no"?>
<!DOCTYPE svg PUBLIC "-//W3C//DTD SVG 1.1//EN" "http://www.w3.org/Graphics/SVG/1.1/DTD/svg11.dtd">
<svg width="100%" height="100%" viewBox="0 0 512 512" version="1.1" xmlns="http://www.w3.org/2000/svg" xmlns:xlink="http://www.w3.org/1999/xlink" xml:space="preserve" xmlns:serif="http://www.serif.com/" style="fill-rule:evenodd;clip-rule:evenodd;stroke-linecap:round;stroke-linejoin:round;">
    <g transform="matrix(1,0,0,1,-21168.3,-16442.1)">
        <g id="Logos">
        </g>
        <g id="Icon-Logo" serif:id="Icon Logo" transform="matrix(0.266667,0,0,0.474074,21168.3,16442.1)">
            <rect x="0" y="0" width="1920" height="1080" style="fill:none;"/>
            <g transform="matrix(5.26799,4.70868e-17,-3.71746e-32,3.76676,-5053.35,-2457.11)">
                <g transform="matrix(1.53485,-7.37289e-16,-5.11207e-16,1.20744,-25893.4,-8083.24)">
                    <path d="M17721.1,7385.28C17721.1,7385.28 17678.5,7444.66 17678.5,7444.66C17671.8,7454.09 17658.8,7458.63 17641.9,7457.24C17620.1,7455.44 17591.2,7443.92 17563.5,7424.05C17535.8,7404.17 17515.6,7380.49 17506.8,7360.44C17500.1,7344.9 17500.2,7331.18 17507,7321.74C17507,7321.74 17549.5,7262.36 17549.5,7262.36C17556.3,7252.93 17569.3,7248.39 17586.1,7249.78C17607.9,7251.58 17636.9,7263.11 17664.6,7282.98C17692.3,7302.85 17712.5,7326.53 17721.2,7346.58C17728,7362.12 17727.8,7375.85 17721.1,7385.28L17721.1,7385.28ZM17560.9,7270.52C17565.3,7264.42 17574.1,7262.84 17585,7263.74C17604.9,7265.38 17631.1,7276.22 17656.4,7294.36C17681.7,7312.49 17700.4,7333.86 17708.4,7352.16C17712.7,7362.19 17714.1,7371.03 17709.7,7377.13L17715.4,7381.2C17715.4,7381.2 17709.7,7377.13 17709.7,7377.13L17667.1,7436.51C17662.8,7442.6 17654,7444.19 17643.1,7443.28C17623.2,7441.65 17596.9,7430.8 17571.6,7412.67C17546.3,7394.53 17527.6,7373.16 17519.7,7354.87C17515.3,7344.83 17514,7335.99 17518.4,7329.9C17518.4,7329.9 17560.9,7270.52 17560.9,7270.52Z" style="fill:white;"/>
                </g>
                <g transform="matrix(1.53485,3.35132e-16,7.66811e-16,1.20744,-25885.9,-8092.74)">
                    <path d="M17550.4,7275.75C17564.3,7256.35 17611.4,7266.31 17655.6,7297.97C17699.8,7329.64 17724.4,7371.11 17710.5,7390.51C17710.5,7390.51 17668,7449.89 17668,7449.89C17654.1,7469.29 17606.9,7459.33 17562.7,7427.66C17518.5,7395.99 17493.9,7354.53 17507.8,7335.13C17507.8,7335.13 17550.4,7275.75 17550.4,7275.75Z" style="fill:white;"/>
                </g>
                <g transform="matrix(1.58178,-1.97732e-17,8.78108e-33,1.24436,-28438.7,-19162.2)">
                    <path d="M18640.6,15952.1C18646.6,15943.7 18658.2,15940 18673.2,15941.2C18693.9,15942.9 18721.3,15954 18747.7,15972.8C18774,15991.7 18793.3,16014.2 18801.5,16033.2C18807.5,16047 18807.7,16059.2 18801.7,16067.6C18801.7,16067.6 18760.5,16125.2 18760.5,16125.2C18754.5,16133.6 18742.8,16137.3 18727.9,16136.1C18707.2,16134.3 18679.7,16123.3 18653.4,16104.4C18627,16085.6 18607.8,16063.1 18599.5,16044.1C18593.5,16030.3 18593.3,16018.1 18599.3,16009.7L18640.6,15952.1ZM18796,16063.5L18796,16063.4C18800.8,16056.8 18799.8,16047 18795.1,16036C18787.2,16017.9 18768.7,15996.6 18743.5,15978.6C18718.4,15960.6 18692.3,15949.9 18672.6,15948.3C18660.6,15947.3 18651.1,15949.5 18646.3,15956.2L18646.1,15956.6C18641.6,15963.3 18642.6,15972.8 18647.3,15983.6C18655.2,16001.8 18673.7,16023.1 18698.8,16041.1C18723.9,16059.1 18750,16069.8 18769.7,16071.4C18781.5,16072.3 18790.8,16070.2 18795.7,16063.9L18796,16063.4L18796,16063.5ZM18731.8,15994.9C18744.4,16003.9 18753.7,16014.6 18757.6,16023.7C18759.9,16028.8 18760.5,16033.3 18758.2,16036.4C18756,16039.5 18751.5,16040.4 18746,16039.9C18736.1,16039.1 18723.1,16033.7 18710.5,16024.7C18697.9,16015.7 18688.6,16005.1 18684.7,15996C18682.5,15990.9 18681.9,15986.4 18684.1,15983.3C18686.3,15980.2 18690.8,15979.3 18696.4,15979.7C18706.2,15980.6 18719.3,15985.9 18731.8,15994.9Z" style="fill:rgb(14,15,35);"/>
                    <clipPath id="_clip1">
                        <path d="M18640.6,15952.1C18646.6,15943.7 18658.2,15940 18673.2,15941.2C18693.9,15942.9 18721.3,15954 18747.7,15972.8C18774,15991.7 18793.3,16014.2 18801.5,16033.2C18807.5,16047 18807.7,16059.2 18801.7,16067.6C18801.7,16067.6 18760.5,16125.2 18760.5,16125.2C18754.5,16133.6 18742.8,16137.3 18727.9,16136.1C18707.2,16134.3 18679.7,16123.3 18653.4,16104.4C18627,16085.6 18607.8,16063.1 18599.5,16044.1C18593.5,16030.3 18593.3,16018.1 18599.3,16009.7L18640.6,15952.1ZM18796,16063.5L18796,16063.4C18800.8,16056.8 18799.8,16047 18795.1,16036C18787.2,16017.9 18768.7,15996.6 18743.5,15978.6C18718.4,15960.6 18692.3,15949.9 18672.6,15948.3C18660.6,15947.3 18651.1,15949.5 18646.3,15956.2L18646.1,15956.6C18641.6,15963.3 18642.6,15972.8 18647.3,15983.6C18655.2,16001.8 18673.7,16023.1 18698.8,16041.1C18723.9,16059.1 18750,16069.8 18769.7,16071.4C18781.5,16072.3 18790.8,16070.2 18795.7,16063.9L18796,16063.4L18796,16063.5ZM18731.8,15994.9C18744.4,16003.9 18753.7,16014.6 18757.6,16023.7C18759.9,16028.8 18760.5,16033.3 18758.2,16036.4C18756,16039.5 18751.5,16040.4 18746,16039.9C18736.1,16039.1 18723.1,16033.7 18710.5,16024.7C18697.9,16015.7 18688.6,16005.1 18684.7,15996C18682.5,15990.9 18681.9,15986.4 18684.1,15983.3C18686.3,15980.2 18690.8,15979.3 18696.4,15979.7C18706.2,15980.6 18719.3,15985.9 18731.8,15994.9Z"/>
                    </clipPath>
                    <g clip-path="url(#_clip1)">
                        <g transform="matrix(1,-1.68009e-16,1.68009e-16,-2.3719,1581.65,53337.7)">
                            <path d="M17004.5,15714.1C17005.6,15714.1 17007.4,15713 17008.4,15712.7C17011.9,15711.6 17015.4,15710.5 17019,15709.6C17029.5,15706.9 17040.4,15705.4 17051.2,15706.4C17068.2,15708 17083.6,15720.5 17100.7,15718.8C17110.3,15717.9 17117.1,15712.2 17125.5,15708.3C17133.5,15704.4 17142.3,15702.7 17151.2,15703.5C17177.7,15705.7 17187.7,15727.7 17214.6,15726.5C17236.9,15725.5 17228.2,15714.2 17249.6,15710.2C17249.8,15710.1 17301.3,15729.2 17301.7,15732.5C17303.2,15745.2 17274.6,15894.8 17275.9,15894.8L17020.8,15855.3L17004.5,15714.1Z" style="fill:url(#_Linear2);"/>
                        </g>
                    </g>
                </g>
                <g transform="matrix(1.58178,-1.97732e-17,8.78108e-33,1.24436,-28393.2,-19215.7)">
                    <path d="M18607.7,16015.7C18608.8,16042 18634.7,16067.1 18654.6,16084.1C18682.3,16107.7 18726.9,16125.4 18751.8,16121.4" style="fill:none;stroke:white;stroke-width:3px;stroke-dasharray:6,6,75,75;stroke-dashoffset:3;"/>
                </g>
            </g>
        </g>
    </g>
    <defs>
        <linearGradient id="_Linear2" x1="0" y1="0" x2="1" y2="0" gradientUnits="userSpaceOnUse" gradientTransform="matrix(27.908,-59.2347,-140.499,-11.7661,17095.7,15766.6)"><stop offset="0" style="stop-color:rgb(39,176,230);stop-opacity:1"/><stop offset="0.52" style="stop-color:rgb(194,107,179);stop-opacity:1"/><stop offset="1" style="stop-color:rgb(250,82,160);stop-opacity:1"/></linearGradient>
    </defs>
</svg>
