<svg width="20" height="20" viewBox="0 0 20 20" fill="none" xmlns="http://www.w3.org/2000/svg">
<path d="M7.80333 4.8863C7.51044 5.17919 7.51044 5.65406 7.80333 5.94696C8.09622 6.23985 8.5711 6.23985 8.86399 5.94696L7.80333 4.8863ZM12.0837 1.66663L12.614 1.1363C12.3211 0.843403 11.8462 0.843403 11.5533 1.1363L12.0837 1.66663ZM15.3033 5.94696C15.5962 6.23985 16.0711 6.23985 16.364 5.94696C16.6569 5.65406 16.6569 5.17919 16.364 4.8863L15.3033 5.94696ZM11.3337 9.99996C11.3337 10.4142 11.6694 10.75 12.0837 10.75C12.4979 10.75 12.8337 10.4142 12.8337 9.99996H11.3337ZM12.1973 15.1136C12.4902 14.8207 12.4902 14.3459 12.1973 14.053C11.9044 13.7601 11.4296 13.7601 11.1367 14.053L12.1973 15.1136ZM7.91699 18.3333L7.38666 18.8636C7.52731 19.0043 7.71808 19.0833 7.91699 19.0833C8.1159 19.0833 8.30667 19.0043 8.44732 18.8636L7.91699 18.3333ZM4.69732 14.053C4.40443 13.7601 3.92956 13.7601 3.63666 14.053C3.34377 14.3459 3.34377 14.8207 3.63666 15.1136L4.69732 14.053ZM8.66699 10.8333C8.66699 10.4191 8.33121 10.0833 7.91699 10.0833C7.50278 10.0833 7.16699 10.4191 7.16699 10.8333H8.66699ZM8.86399 5.94696L12.614 2.19696L11.5533 1.1363L7.80333 4.8863L8.86399 5.94696ZM11.5533 2.19696L15.3033 5.94696L16.364 4.8863L12.614 1.1363L11.5533 2.19696ZM11.3337 1.66663V9.99996H12.8337V1.66663H11.3337ZM11.1367 14.053L7.38666 17.803L8.44732 18.8636L12.1973 15.1136L11.1367 14.053ZM8.44732 17.803L4.69732 14.053L3.63666 15.1136L7.38666 18.8636L8.44732 17.803ZM8.66699 18.3333L8.66699 10.8333H7.16699L7.16699 18.3333H8.66699Z" fill="currentColor"/>
</svg>
