<?xml version="1.0" encoding="UTF-8"?>
<svg width="70px" height="66px" viewBox="0 0 70 66" version="1.1" xmlns="http://www.w3.org/2000/svg" xmlns:xlink="http://www.w3.org/1999/xlink">
    <title>Artboard</title>
    <g id="Artboard" stroke="none" stroke-width="1" fill="none" fill-rule="evenodd">
        <g id="Group-3" transform="translate(2.055944, 3.000000)">
            <path d="M8.05594406,51.3503318 L56.3494925,51 C56.7132341,51.9160454 56.8951049,52.775132 56.8951049,53.5772598 C56.8951049,54.3793876 56.7132341,55.6127878 56.3494925,57.2774603 L56.101476,57.4692114 C51.4648822,60.1722369 44.3576897,64.3017641 34.7798987,69.857793 L34.7795132,69.8571279 C33.5571159,70.5656262 32.0516253,70.5766926 30.8189449,69.8862407 C21.0536962,64.4140151 13.8041347,60.3467853 9.07108061,57.6830866 L8.40046368,57.262226 L8.05594406,51.3503318 Z" id="Rectangle"></path>
            <path d="M59.2408489,6.5 C59.2408489,6.49443314 56.6563088,7.27526982 54.14497,10.661623 C52.6380846,12.6935457 51.2304192,20.7723414 51.3656594,20.4929256 C51.9946977,19.1932883 52.3302297,18.0239859 52.9321148,17.2937089 C55.0264117,14.7526647 57.1337239,15.3628675 57.8979099,15.3224331 C58.3848686,13.6057742 59.1654066,10.8532333 59.3749735,8.84107535 C59.5092518,7.5518009 59.2408489,6.50394142 59.2408489,6.5 Z" id="Rectangle"></path>
            <path d="M56.3916084,8 C56.9874566,7.58800248 57.4302468,7.29768514 57.719979,7.12904798 C58.0097113,6.96041081 58.4060819,6.75072815 58.9090909,6.5" id="Line-7" stroke="#000000" stroke-width="0.5" stroke-linecap="square"></path>
            <path d="M58.8010712,8 C58.8010712,7.84108396 58.8010712,7.6460768 58.8010712,7.41497851 C58.8010712,6.87922418 58.5190683,6.6561009 58.5151324,6.5572667 C58.513108,6.50643352 58.513108,6.48944215 58.5151324,6.50629261" id="Line-7" stroke="#000000" stroke-width="0.5" stroke-linecap="square" transform="translate(58.657343, 7.250000) scale(-1, 1) translate(-58.657343, -7.250000) "></path>
            <path d="M5.03496503,8.4 C5.59471713,7.99136287 6.01222428,7.70837927 6.28748647,7.55104921 C6.56274867,7.39371915 6.98440236,7.17670275 7.55244755,6.9" id="Line-7" stroke="#000000" stroke-width="0.5" stroke-linecap="square" transform="translate(6.293706, 7.650000) scale(-1, 1) translate(-6.293706, -7.650000) "></path>
            <path d="M5.82535708,8.99758929 C5.82535708,9.01620616 5.82535708,8.92699562 5.82535708,8.72995767 C5.82535708,8.42542941 5.80192555,8.18211019 5.7550625,8 L5.82535708,8.99758929 Z" id="Line-7" stroke="#000000" stroke-width="0.5" stroke-linecap="square" transform="translate(5.790210, 8.500000) scale(-1, 1) translate(-5.790210, -8.500000) "></path>
            <path d="M12.0839161,48.8902835 C11.6694111,48.8044966 10.830011,48.5775751 9.56571555,48.209519 C9.14024773,48.0856587 8.38401855,47.8737222 7.29702802,47.5737097 C7.26606491,48.3915976 7.19908439,48.990256 7.09608644,49.3696848 C6.9930885,49.7491136 6.76169748,50.292552 6.40191338,51 C2.39904672,46.2547087 0.852971053,43.9220377 1.76368639,44.001987 C5.82740652,44.3587306 9.26748309,45.9881627 12.0839161,48.8902835 Z" id="Shadow1" transform="translate(6.797203, 47.500000) scale(-1, 1) translate(-6.797203, -47.500000) "></path>
            <path d="M45.3146853,8.5 C45.3146853,8.4981751 46.108966,8.99884945 47.6824702,10.1813421 C48.2147214,11.2386035 50.9589653,17.5480694 50.849989,18.4616727 C50.8000196,18.8805912 49.2836026,15.7872505 47.8916861,13.0042479 C46.7758532,10.7732477 45.3146853,8.50055896 45.3146853,8.5 Z" id="Shadow1" fill="#C8C7C7" transform="translate(48.083916, 13.500000) scale(-1, 1) translate(-48.083916, -13.500000) "></path>
            <path d="M3.93711167,3.90431907 C5.93217981,2.50771021 17.0781863,10.9755839 20.1762558,13.1886181 C20.3563435,13.3172595 25.0261707,7.10177322 27.9600721,5.70107437 C28.3757193,5.5026367 27.5466562,6.94077007 26.8314982,8.81275116 C26.5976037,9.42498788 26.4561834,10.2357013 26.4072371,11.2448915 C32.328847,5.45853451 37.1837013,1.7119578 40.9718001,0.00516133799 C41.5899511,-0.273357793 37.7541289,10.8102501 38.046989,11.4647347 C38.3448409,10.7585203 44.2220816,6.90203114 50.4202551,5.12514044 C50.9700129,5.05908473 49.7938766,7.23150519 48.5553348,9.98403411 C50.4202551,8.81275116 59.036042,2.43922417 60.516271,3.72230379 C61.6429564,4.6989278 61.2598667,11.1992429 59.3670016,23.2232491 L59.3672228,23.2232839 C59.2121169,24.2091483 58.6940792,25.1014223 57.9148217,25.7249159 C57.151763,26.3354622 56.025963,27.2423046 54.5374314,28.4454552 C56.2200517,30.700238 60.6352811,37.8748066 61.1526712,38.7021472 C60.3863119,38.7021472 59.0587879,38.1384653 57.1700991,37.0111014 C60.9002303,43.3847786 63.1292559,47.2468436 63.8571758,48.5972964 C64.507499,49.8037899 61.4072273,47.8543177 57.8913774,47.0744393 C57.6591126,49.1529638 56.8431713,52.5502361 48.718522,55.7089108 C44.9536022,57.172624 37.0892438,58.5 32.5309644,58.5 C27.972685,58.5 26.5699853,58.0700886 23.5389995,57.61497 C21.5188356,57.3116316 18.5207746,56.5163027 14.5448166,55.2289833 L14.5445767,55.2297244 C14.5031148,55.216303 14.4614364,55.20356 14.419558,55.1915006 C9.07328632,53.6519536 6.40036257,51.0252026 6.40036257,47.3127206 C6.40036257,47.2256297 4.26690838,47.8390441 0,49.1529638 L7.18485245,37.0111014 L3.12347353,38.908493 C5.67789426,34.2303825 7.87218758,30.6571485 9.7063535,28.1887911 C9.36290223,28.095178 6.36557495,26.352129 5.49120489,24.9190278 C4.50051625,23.2952793 2.19315753,5.12514044 3.93711167,3.90431907 Z M16.4892046,20.8437991 C17.0909675,18.9300856 17.6100571,17.5354246 18.0464734,16.6598162 C18.4828897,15.7842077 19.2028197,14.6168183 20.2062633,13.1576478 M21.4720056,17.1802905 C22.4817757,15.7691103 23.2838799,14.7198249 23.8783182,14.032434 C24.4727566,13.3450432 25.3583086,12.3830074 26.5349745,11.1463265 M36.75432,16.4344267 C36.9592339,15.1824696 37.1359956,14.2700782 37.2846051,13.6972525 C37.4332147,13.1244268 37.6783671,12.3607171 38.0200623,11.4061234 M45.3613672,18.1943329 C45.9491773,16.320109 46.3646332,15.0993419 46.607735,14.5320315 C46.8508367,13.964721 47.5093944,12.4149404 48.583408,9.88268944 M53.3144518,26.2396182 C53.5501063,26.7782509 53.7422384,27.1764531 53.8908479,27.4342246 C54.0394575,27.6919962 54.2692396,28.0480395 54.5801941,28.5023547 M57.2129379,37.0504703 C56.5557219,36.5539964 56.0190606,36.1768736 55.6029537,35.9191021 C55.1868469,35.6613305 54.5421489,35.2842078 53.6688596,34.7877338 M54.5548792,46.113987 C55.1364602,46.3346421 55.6353041,46.5022522 56.0514109,46.6168174 C56.4675177,46.7313825 57.1500332,46.8989926 58.0989575,47.1196477 M7.18485245,37.0111014 L10.8488381,34.6860976 L10.8867723,34.6620262 M6.43135964,47.2939817 L10.0953453,44.9689779 L10.1332795,44.9449065" id="Combined-Shape" stroke="#000000" fill="#CCCCCC" stroke-linejoin="round"></path>
            <path d="M55.2312853,8.36624546 C57.4620421,13.0784788 57.2760004,17.6061166 55.1410832,21.9236598 C55.1147214,21.9769727 55.0881536,22.0300689 55.0618005,22.0828684 C55.0803592,22.1032359 55.0900667,22.1167328 55.0898075,22.1223875 C55.0879456,22.1630037 54.537015,22.5594877 53.8815856,22.9910063 C53.8285591,23.0259176 53.7657776,23.0625274 53.6933539,23.1007129 C54.017851,22.1475136 54.3257909,21.3240918 54.6174395,20.6305482 C55.0327115,19.6430266 55.3007889,18.2850384 55.4083643,16.552899 C55.4174252,16.4070035 55.4250278,16.2636011 55.4311184,16.1228508 C55.3003094,16.0835942 55.158608,16.0521387 54.9792156,16.0268146 C54.6171601,15.9757049 54.3957173,15.9910927 54.0993909,16.025182 C53.7770216,16.0622673 53.380188,16.2395648 52.9157488,16.5781731 C53.2256318,15.25509 53.4888988,14.2898594 53.7069631,13.6829304 C54.1881564,12.3436463 54.3001911,12.104349 54.4294469,11.9031114 L54.4712876,11.8395893 C54.5611062,11.7053541 54.6311735,11.6061261 54.915655,11.3278519 C54.7426982,11.2372436 54.5116223,11.15414 54.1688896,11.0745085 C53.4131249,10.8989121 53.1372343,10.9778412 52.806905,11.0970143 C52.3840444,11.2495699 51.8589739,11.5080844 51.2397121,11.9460446 L51.25,11.939 L51.4315371,11.7104244 C52.2550646,10.6886239 53.0302048,9.89325705 53.708012,9.32228672 L53.9083853,9.15772548 C54.4184216,8.74982794 54.8567283,8.4803056 55.2312853,8.36624546 Z" id="Left-Ear-Pink" stroke="#000000" fill="#FFFFFF"></path>
            <path d="M12.2312853,8.36624546 C14.4620421,13.0784788 14.2760004,17.6061166 12.1410832,21.9236598 C12.1147214,21.9769727 12.0881536,22.0300689 12.0618005,22.0828684 C12.0803592,22.1032359 12.0900667,22.1167328 12.0898075,22.1223875 C12.0879456,22.1630037 11.537015,22.5594877 10.8815856,22.9910063 C10.8285591,23.0259176 10.7657776,23.0625274 10.6933539,23.1007129 C11.017851,22.1475136 11.3257909,21.3240918 11.6174395,20.6305482 C12.0327115,19.6430266 12.3007889,18.2850384 12.4083643,16.552899 C12.4174252,16.4070035 12.4250278,16.2636011 12.4311184,16.1228508 C12.3003094,16.0835942 12.158608,16.0521387 11.9792156,16.0268146 C11.6171601,15.9757049 11.3957173,15.9910927 11.0993909,16.025182 C10.7770216,16.0622673 10.380188,16.2395648 9.91574884,16.5781731 C10.2256318,15.25509 10.4888988,14.2898594 10.7069631,13.6829304 C11.1881564,12.3436463 11.3001911,12.104349 11.4294469,11.9031114 L11.4712876,11.8395893 C11.5611062,11.7053541 11.6311735,11.6061261 11.915655,11.3278519 C11.7426982,11.2372436 11.5116223,11.15414 11.1688896,11.0745085 C10.4131249,10.8989121 10.1372343,10.9778412 9.80690497,11.0970143 C9.38404444,11.2495699 8.85897389,11.5080844 8.2397121,11.9460446 L8.25,11.939 L8.43153712,11.7104244 C9.2550646,10.6886239 10.0302048,9.89325705 10.708012,9.32228672 L10.9083853,9.15772548 C11.4184216,8.74982794 11.8567283,8.4803056 12.2312853,8.36624546 Z" id="Left-Ear-Pink" stroke="#000000" fill="#FBFBFB" transform="translate(10.318416, 15.906855) scale(-1, 1) translate(-10.318416, -15.906855) "></path>
        </g>
    </g>
</svg>