<svg width="102" height="40" viewBox="0 0 102 40" fill="none" xmlns="http://www.w3.org/2000/svg">
<g clip-path="url(#clip0)">
<path fill-rule="evenodd" clip-rule="evenodd" d="M0 20.1158V15.137C0 7.22893 6.41075 0.818176 14.3188 0.818176C18.2194 0.818176 21.7558 2.37787 24.3382 4.90762L21.2942 6.8097C19.4072 5.22729 16.9743 4.27444 14.3188 4.27444C8.3196 4.27444 3.45627 9.13778 3.45627 15.137H6.91252L0 20.1158ZM7.29108 23.42C9.18543 25.029 11.6389 25.9996 14.319 25.9996C20.3182 25.9996 25.1816 21.1363 25.1816 15.137H21.7253L28.6375 10.0761L28.6378 15.137C28.6378 23.0451 22.2271 29.4559 14.319 29.4559C10.3942 29.4559 6.83821 27.8768 4.25168 25.3192L7.29108 23.42ZM19.8118 19.8894H15.8618L14.319 17.8053L12.7762 19.8894H8.82617L12.4046 15.2192L8.82585 10.3847H12.529L14.319 12.7208L16.109 10.3847H19.8122L16.2334 15.2192L19.8118 19.8894Z" fill="white"/>
</g>
<path d="M47.1492 9.68196L44.3815 10.5532C44.262 9.8528 43.9117 9.21215 43.3309 8.63129C42.75 8.05043 41.9129 7.76 40.8195 7.76C39.9141 7.76 39.1624 8.01627 38.5644 8.52879C37.9836 9.04131 37.6931 9.65633 37.6931 10.3739C37.6931 11.621 38.4021 12.3983 39.8201 12.7058L42.434 13.244C44.0057 13.5515 45.2187 14.1751 46.0729 15.1147C46.9271 16.0543 47.3542 17.1733 47.3542 18.4717C47.3542 19.9751 46.7733 21.2735 45.6116 22.3669C44.467 23.4432 42.9038 23.9813 40.922 23.9813C38.7865 23.9813 37.1208 23.4261 35.9249 22.3156C34.7291 21.1881 34.0542 19.8811 33.9005 18.3948L36.7706 17.5748C36.8731 18.5998 37.2831 19.4626 38.0007 20.163C38.7182 20.8635 39.692 21.2137 40.922 21.2137C41.9812 21.2137 42.7927 20.9831 43.3565 20.5218C43.9374 20.0434 44.2278 19.437 44.2278 18.7023C44.2278 18.1044 44.0142 17.5919 43.5871 17.1648C43.16 16.7206 42.5621 16.4131 41.7933 16.2422L39.2307 15.7041C37.8127 15.4137 36.6852 14.8243 35.8481 13.9359C35.028 13.0475 34.618 11.9371 34.618 10.6045C34.618 9.08402 35.2245 7.77709 36.4375 6.68371C37.6504 5.59033 39.1026 5.04364 40.7939 5.04364C42.7244 5.04364 44.2022 5.51345 45.2272 6.45307C46.2523 7.37561 46.8929 8.45191 47.1492 9.68196Z" fill="white"/>
<path d="M55.6578 11.117H58.733L61.68 19.753L64.1657 11.117H67.1896L63.1919 23.5969H60.2193L57.1185 14.6278L54.0946 23.5969H51.0451L46.9962 11.117H50.1738L52.7108 19.753L55.6578 11.117Z" fill="white"/>
<path d="M67.3311 20.2143C67.3311 19.1551 67.6728 18.3094 68.3561 17.6773C69.0566 17.0281 69.9706 16.6181 71.0981 16.4472L74.3014 15.9604C74.9164 15.8749 75.2239 15.576 75.2239 15.0634C75.2239 14.4997 75.0275 14.0469 74.6345 13.7053C74.2416 13.3465 73.6522 13.1671 72.8663 13.1671C72.1146 13.1671 71.5167 13.3807 71.0725 13.8078C70.6283 14.2178 70.3721 14.7559 70.3037 15.4222L67.5874 14.8072C67.707 13.6796 68.2451 12.7229 69.2018 11.9371C70.1585 11.1341 71.3715 10.7326 72.8407 10.7326C74.6516 10.7326 75.9842 11.1683 76.8384 12.0396C77.7097 12.9108 78.1453 14.0299 78.1453 15.3966V21.5981C78.1453 22.4181 78.1966 23.0844 78.2991 23.5969H75.5314C75.446 23.3407 75.4033 22.8111 75.4033 22.0081C74.5833 23.3236 73.302 23.9813 71.5594 23.9813C70.2952 23.9813 69.2701 23.614 68.4843 22.8794C67.7155 22.1277 67.3311 21.2393 67.3311 20.2143ZM72.1232 21.6493C73.0457 21.6493 73.7889 21.4016 74.3526 20.9062C74.9335 20.3937 75.2239 19.5651 75.2239 18.4205V17.8567L71.9694 18.3436C70.859 18.5315 70.3037 19.0953 70.3037 20.0349C70.3037 20.4791 70.466 20.8635 70.7906 21.1881C71.1152 21.4956 71.5594 21.6493 72.1232 21.6493Z" fill="white"/>
<path d="M83.4045 28.4659H80.4575V11.117H83.3276V12.8083C83.6522 12.2446 84.1647 11.7748 84.8651 11.3989C85.5656 11.0231 86.3771 10.8351 87.2996 10.8351C89.0934 10.8351 90.5029 11.4502 91.5279 12.6802C92.553 13.8932 93.0655 15.4478 93.0655 17.3442C93.0655 19.2405 92.5273 20.8122 91.451 22.0594C90.3748 23.2894 88.9568 23.9044 87.1971 23.9044C86.3429 23.9044 85.5827 23.7421 84.9164 23.4175C84.2501 23.0929 83.7461 22.6829 83.4045 22.1875V28.4659ZM90.0929 17.3442C90.0929 16.1824 89.7854 15.2514 89.1703 14.5509C88.5553 13.8334 87.7438 13.4746 86.7358 13.4746C85.745 13.4746 84.9335 13.8334 84.3014 14.5509C83.6863 15.2514 83.3788 16.1824 83.3788 17.3442C83.3788 18.523 83.6863 19.4711 84.3014 20.1887C84.9335 20.9062 85.745 21.2649 86.7358 21.2649C87.7267 21.2649 88.5297 20.9062 89.1447 20.1887C89.7768 19.4711 90.0929 18.523 90.0929 17.3442Z" fill="white"/>
<path d="M101.945 11.0401V14.064C101.604 14.0128 101.279 13.9871 100.972 13.9871C98.7335 13.9871 97.6145 15.2087 97.6145 17.6517V23.5969H94.6419V11.117H97.5376V13.1159C97.8281 12.4496 98.2979 11.9285 98.9471 11.5527C99.5963 11.1597 100.331 10.9633 101.151 10.9633C101.424 10.9633 101.689 10.9889 101.945 11.0401Z" fill="white"/>
<path d="M34 33.8C34 32.1238 34 31.2857 34.2472 30.6155C34.6523 29.5177 35.5177 28.6523 36.6155 28.2472C37.2857 28 38.1238 28 39.8 28H70.1553C71.8315 28 72.6696 28 73.3398 28.2472C74.4376 28.6523 75.3031 29.5177 75.7081 30.6155C75.9553 31.2857 75.9553 32.1238 75.9553 33.8V33.8C75.9553 35.4762 75.9553 36.3143 75.7081 36.9845C75.3031 38.0823 74.4376 38.9477 73.3398 39.3528C72.6696 39.6 71.8315 39.6 70.1553 39.6H39.8C38.1238 39.6 37.2857 39.6 36.6155 39.3528C35.5177 38.9477 34.6523 38.0823 34.2472 36.9845C34 36.3143 34 35.4762 34 33.8V33.8Z" fill="#444163"/>
<path d="M42.424 35.4H39.824L39.328 36.6H38L40.496 31H41.776L44.28 36.6H42.92L42.424 35.4ZM42.016 34.416L41.128 32.272L40.24 34.416H42.016Z" fill="white"/>
<path d="M45.981 31H47.277V35.544H50.085V36.6H45.981V31Z" fill="white"/>
<path d="M54.3531 31C54.8491 31 55.2785 31.0827 55.6411 31.248C56.0091 31.4133 56.2918 31.648 56.4891 31.952C56.6865 32.256 56.7851 32.616 56.7851 33.032C56.7851 33.4427 56.6865 33.8027 56.4891 34.112C56.2918 34.416 56.0091 34.6507 55.6411 34.816C55.2785 34.976 54.8491 35.056 54.3531 35.056H53.2251V36.6H51.9291V31H54.3531ZM54.2811 34C54.6705 34 54.9665 33.9173 55.1691 33.752C55.3718 33.5813 55.4731 33.3413 55.4731 33.032C55.4731 32.7173 55.3718 32.4773 55.1691 32.312C54.9665 32.1413 54.6705 32.056 54.2811 32.056H53.2251V34H54.2811Z" fill="white"/>
<path d="M63.9664 31V36.6H62.6704V34.304H60.1264V36.6H58.8304V31H60.1264V33.208H62.6704V31H63.9664Z" fill="white"/>
<path d="M70.0993 35.4H67.4993L67.0033 36.6H65.6753L68.1713 31H69.4513L71.9553 36.6H70.5953L70.0993 35.4ZM69.6913 34.416L68.8033 32.272L67.9153 34.416H69.6913Z" fill="white"/>
<defs>
<clipPath id="clip0">
<rect width="28.6378" height="28.6378" fill="white" transform="translate(0 0.818176)"/>
</clipPath>
</defs>
</svg>
