<svg width="14" height="12" viewBox="0 0 14 12" fill="none" xmlns="http://www.w3.org/2000/svg">
<path fill-rule="evenodd" clip-rule="evenodd" d="M0 0.75C0 0.55109 0.0790201 0.36032 0.21967 0.21967C0.36032 0.0790201 0.55109 0 0.75 0H13.25C13.4489 0 13.6397 0.0790201 13.7803 0.21967C13.921 0.36032 14 0.55109 14 0.75C14 0.94891 13.921 1.13968 13.7803 1.28033C13.6397 1.42098 13.4489 1.5 13.25 1.5H0.75C0.55109 1.5 0.36032 1.42098 0.21967 1.28033C0.0790201 1.13968 0 0.94891 0 0.75ZM0 5.75C0 5.55109 0.0790201 5.36032 0.21967 5.21967C0.36032 5.07902 0.55109 5 0.75 5H13.25C13.4489 5 13.6397 5.07902 13.7803 5.21967C13.921 5.36032 14 5.55109 14 5.75C14 5.94891 13.921 6.13968 13.7803 6.28033C13.6397 6.42098 13.4489 6.5 13.25 6.5H0.75C0.55109 6.5 0.36032 6.42098 0.21967 6.28033C0.0790201 6.13968 0 5.94891 0 5.75ZM0.75 10C0.55109 10 0.36032 10.079 0.21967 10.2197C0.0790201 10.3603 0 10.5511 0 10.75C0 10.9489 0.0790201 11.1397 0.21967 11.2803C0.36032 11.421 0.55109 11.5 0.75 11.5H13.25C13.4489 11.5 13.6397 11.421 13.7803 11.2803C13.921 11.1397 14 10.9489 14 10.75C14 10.5511 13.921 10.3603 13.7803 10.2197C13.6397 10.079 13.4489 10 13.25 10H0.75Z" fill="white"/>
</svg>
