<svg width="18" height="24" viewBox="0 0 18 24" fill="none" xmlns="http://www.w3.org/2000/svg">
<path d="M17.9487 14.0517C17.6738 10.4723 16.0073 8.22933 14.5371 6.24998C13.1758 4.41754 12 2.83514 12 0.500856C12 0.313356 11.895 0.141981 11.7285 0.0560595C11.5615 -0.030378 11.3608 -0.0162217 11.209 0.094122C9.00098 1.67409 7.1587 4.33701 6.51516 6.87783C6.06839 8.64675 6.00928 10.6354 6.00098 11.9488C3.96192 11.5132 3.50002 8.46319 3.49514 8.42995C3.47217 8.27175 3.37552 8.13408 3.23489 8.05889C3.09281 7.98469 2.9258 7.97929 2.78175 8.05059C2.67483 8.10234 0.157219 9.38156 0.0107342 14.4891C0.000468576 14.659 0 14.8295 0 14.9999C0 19.9619 4.03758 23.9992 9 23.9992C9.00684 23.9997 9.01416 24.0007 9.02002 23.9992C9.02198 23.9992 9.02391 23.9992 9.02634 23.9992C13.9766 23.985 18 19.9531 18 14.9999C18 14.7503 17.9487 14.0517 17.9487 14.0517ZM9 22.9993C7.34569 22.9993 6 21.5658 6 19.8037C6 19.7437 5.99953 19.6831 6.00389 19.6089C6.02391 18.8658 6.16505 18.3585 6.31983 18.0211C6.60989 18.6442 7.12842 19.2169 7.97072 19.2169C8.24709 19.2169 8.47073 18.9932 8.47073 18.7169C8.47073 18.0051 8.48541 17.1838 8.66264 16.4426C8.82037 15.7854 9.1973 15.0862 9.67486 14.5258C9.88725 15.2533 10.3013 15.8421 10.7056 16.4167C11.2843 17.2389 11.8824 18.089 11.9874 19.5386C11.9937 19.6245 12.0001 19.711 12.0001 19.8037C12 21.5658 10.6543 22.9993 9 22.9993Z" fill="currentColor"/>
</svg>
