<svg width="15" height="13" viewBox="0 0 15 13" fill="none" xmlns="http://www.w3.org/2000/svg">
<path d="M15 1.84815C14.4481 2.09315 13.855 2.25815 13.2325 2.33253C13.8681 1.9519 14.3562 1.34878 14.5856 0.630029C13.9912 0.982529 13.3325 1.23878 12.6312 1.3769C12.0706 0.778779 11.27 0.405029 10.385 0.405029C8.39812 0.405029 6.93813 2.25878 7.38688 4.18315C4.83 4.05503 2.5625 2.83003 1.04437 0.968154C0.238125 2.35128 0.62625 4.16065 1.99625 5.0769C1.4925 5.06065 1.0175 4.92253 0.603125 4.69191C0.569375 6.11753 1.59125 7.45128 3.07125 7.74815C2.63812 7.86565 2.16375 7.89315 1.68125 7.80065C2.0725 9.02315 3.20875 9.91253 4.55625 9.93753C3.2625 10.9519 1.6325 11.405 0 11.2125C1.36187 12.0857 2.98 12.595 4.7175 12.595C10.4312 12.595 13.6594 7.7694 13.4644 3.44128C14.0656 3.0069 14.5875 2.46503 15 1.84815V1.84815Z" fill="white"/>
</svg>
