<svg xmlns="http://www.w3.org/2000/svg" xmlns:xlink="http://www.w3.org/1999/xlink" width="16" height="16" viewBox="0 0 16 16">
    <defs>
        <rect id="urwkm2i3za" width="16" height="16" x="0" y="0" rx="8"/>
    </defs>
    <g fill="none" fill-rule="evenodd">
        <g>
            <g>
                <g>
                    <g transform="translate(-313 -196) translate(259 105) translate(54 91)">
                        <mask id="twuvdh4v0b" fill="#fff">
                            <use xlink:href="#urwkm2i3za"/>
                        </mask>
                        <use fill="#FFE0EF" xlink:href="#urwkm2i3za"/>
                        <g fill="#FF007A" mask="url(#twuvdh4v0b)">
                            <g>
                                <path fill-rule="nonzero" d="M5.103 3.41c-.162-.023-.17-.031-.093-.039.147-.023.487.008.727.062.557.131 1.06.472 1.593 1.067l.14.162.2-.03c.858-.14 1.74-.031 2.474.309.201.093.518.278.557.324.015.016.039.116.054.217.054.363.031.634-.085.843-.062.116-.062.147-.023.247.03.077.124.132.209.132.185 0 .379-.294.471-.704l.039-.162.07.077c.394.44.703 1.051.75 1.484l.015.116-.07-.1c-.116-.178-.224-.294-.37-.394-.264-.178-.542-.232-1.276-.271-.665-.039-1.044-.093-1.415-.216-.634-.21-.96-.48-1.71-1.477-.332-.441-.54-.68-.75-.882-.455-.44-.912-.672-1.507-.765z" transform="translate(1 -1)"/>
                                <path fill-rule="nonzero" d="M10.863 4.392c.016-.294.055-.487.14-.665.03-.07.061-.132.07-.132.007 0-.009.054-.032.116-.062.17-.07.41-.03.68.053.349.077.395.448.774.17.178.37.402.448.495l.132.17-.132-.124c-.162-.154-.533-.448-.618-.487-.054-.03-.062-.03-.1.008-.032.03-.04.077-.04.301-.007.348-.054.565-.17.789-.061.116-.07.093-.015-.039.039-.1.046-.147.046-.479 0-.673-.077-.835-.549-1.106-.116-.07-.317-.17-.433-.224-.123-.054-.216-.1-.208-.1.015-.016.471.116.65.193.27.108.316.116.347.108.023-.023.039-.085.046-.278zM5.42 5.544c-.325-.449-.533-1.145-.487-1.663l.015-.162.078.016c.139.023.379.116.495.185.309.186.448.44.58 1.075.038.185.092.402.115.471.04.116.186.387.31.557.085.124.03.186-.163.17-.293-.03-.688-.301-.943-.65zM10.47 8.907C8.937 8.29 8.396 7.755 8.396 6.851c0-.132.008-.24.008-.24.007 0 .061.046.131.1.31.248.657.356 1.624.495.564.085.889.147 1.183.248.935.309 1.515.943 1.654 1.801.04.248.016.72-.046.967-.054.193-.209.549-.247.556-.008 0-.024-.038-.024-.1-.015-.325-.177-.634-.448-.874-.325-.278-.742-.487-1.763-.897zM9.387 9.162c-.016-.116-.055-.263-.078-.324l-.038-.116.07.085c.1.116.177.255.247.448.054.147.054.193.054.433 0 .232-.008.286-.054.418-.078.208-.17.355-.325.518-.278.286-.642.44-1.16.51-.093.008-.356.03-.588.046-.58.031-.966.093-1.314.217-.046.015-.093.03-.1.023-.016-.015.224-.155.417-.247.27-.132.549-.201 1.16-.31.301-.046.61-.108.688-.139.765-.24 1.144-.835 1.02-1.562z" transform="translate(1 -1)"/>
                                <path fill-rule="nonzero" d="M10.09 10.407c-.2-.44-.247-.858-.139-1.252.015-.039.031-.078.046-.078.016 0 .062.024.109.054.092.062.286.17.78.441.627.34.983.603 1.23.905.216.263.348.564.41.935.038.21.015.712-.039.92-.17.658-.557 1.183-1.121 1.485-.085.046-.155.077-.162.077-.008 0 .023-.077.07-.17.185-.394.208-.773.069-1.198-.085-.263-.263-.58-.619-1.114-.425-.618-.526-.78-.634-1.005zM4.33 12.773c.572-.48 1.276-.82 1.925-.928.279-.046.742-.03.998.039.41.108.78.34.974.626.185.279.27.518.355 1.052.031.209.07.425.078.472.062.278.185.494.34.61.24.178.657.186 1.067.031.07-.023.131-.046.131-.038.016.015-.193.154-.332.224-.193.1-.348.131-.557.131-.37 0-.688-.193-.943-.58-.054-.077-.162-.301-.255-.51-.27-.626-.41-.812-.727-1.02-.278-.178-.634-.217-.905-.086-.355.17-.448.627-.2.905.1.116.285.209.44.232.286.039.534-.186.534-.472 0-.185-.07-.293-.256-.379-.247-.108-.518.016-.51.256 0 .1.047.162.147.208.062.031.062.031.015.024-.224-.047-.278-.325-.1-.503.216-.216.673-.124.827.178.062.124.07.371.016.526-.132.34-.503.518-.882.417-.255-.07-.363-.139-.672-.456-.542-.557-.75-.665-1.524-.781l-.146-.023.162-.155z" transform="translate(1 -1)"/>
                                <path d="M.263.332c1.801 2.189 4.577 5.59 4.716 5.776.116.155.07.302-.123.41-.109.062-.333.124-.441.124-.124 0-.27-.062-.371-.163-.07-.07-.371-.51-1.052-1.57-.518-.811-.958-1.484-.966-1.491-.031-.016-.031-.016.912 1.67.596 1.059.789 1.438.789 1.484 0 .1-.031.155-.155.294-.209.232-.301.495-.371 1.044-.077.61-.286 1.044-.881 1.778-.348.433-.402.51-.488.688-.108.217-.139.34-.154.619-.016.294.015.48.1.758.078.247.163.41.371.726.178.279.287.487.287.565 0 .062.015.062.293 0 .665-.155 1.214-.418 1.516-.742.185-.201.232-.31.232-.588 0-.178-.008-.217-.054-.325-.078-.17-.225-.31-.542-.526-.417-.286-.595-.518-.641-.827-.039-.263.007-.44.24-.928.24-.502.3-.711.34-1.221.023-.325.061-.457.154-.557.1-.108.186-.147.425-.178.395-.054.65-.155.851-.348.178-.162.255-.325.263-.564l.008-.178-.1-.108C5.056 5.536.022 0 0 0c-.008 0 .116.147.263.332zm2.374 10.995c.085-.147.038-.332-.1-.425-.132-.085-.333-.046-.333.07 0 .03.015.062.061.077.07.039.078.077.024.162s-.054.163.015.217c.108.085.255.038.333-.1zM5.768 7.26c-.186.054-.363.255-.417.456-.031.124-.016.348.038.418.085.108.163.14.379.14.425 0 .789-.186.827-.41.039-.186-.123-.441-.348-.557-.116-.062-.355-.085-.479-.047zm.495.387c.062-.093.039-.193-.077-.263-.21-.131-.526-.023-.526.178 0 .1.162.209.317.209.1 0 .24-.062.286-.124z" transform="translate(1 -1)"/>
                            </g>
                        </g>
                    </g>
                </g>
            </g>
        </g>
    </g>
</svg>
