<svg xmlns="http://www.w3.org/2000/svg" width="163" height="34" viewBox="0 0 163 34">
    <g fill="none" fill-rule="evenodd">
        <g>
            <g>
                <path fill="#5C6468" fill-rule="nonzero" d="M38.324 19.314c0 3.672 2.482 6.167 6.194 6.167 3.69 0 6.172-2.495 6.172-6.167V8.804h-2.784v10.487c0 2.217-1.36 3.465-3.41 3.465s-3.388-1.248-3.388-3.442V8.804h-2.784v10.51zm16.035 5.89h2.784v-9.447c0-.97-.15-2.541-.15-2.541h.042l.127.285c.226.502.716 1.556 1.147 2.256l5.805 9.447h2.763v-16.4h-2.763v9.47c0 .97.151 2.541.151 2.541h-.043l-.127-.285c-.226-.502-.715-1.556-1.146-2.256l-5.806-9.47H54.36v16.4zM71.107 21l-1.51 2.24.044.052c.305.334 2.14 2.19 5.243 2.19 3.194 0 5.05-2.195 5.05-4.805 0-5.244-7.208-4.528-7.208-7.438 0-1.155 1.014-1.963 2.309-1.963 1.92 0 3.388 1.432 3.388 1.432l1.209-2.426-.038-.04c-.254-.261-1.788-1.715-4.538-1.715-2.935 0-5.136 2.033-5.136 4.758 0 5.036 7.23 4.527 7.23 7.46 0 1.34-1.058 1.987-2.223 1.987-2.158 0-3.82-1.732-3.82-1.732zm11.611 4.204h9.41V22.64h-6.626V8.804h-2.784v16.4zm21.043 0h2.87l-5.395-16.4h-2.914l-5.395 16.4h2.87L97.092 21h5.374l1.295 4.204zm-3.993-13.559h.043l.083.398c.114.539.328 1.506.522 2.143l1.359 4.389h-4.014l1.36-4.389.03-.097c.295-.935.617-2.444.617-2.444zM108.941 21l-1.511 2.24.036.041c.274.304 2.114 2.2 5.251 2.2 3.195 0 5.051-2.194 5.051-4.804 0-5.244-7.209-4.528-7.209-7.438 0-1.155 1.015-1.963 2.309-1.963 1.921 0 3.389 1.432 3.389 1.432l1.208-2.426-.037-.04c-.254-.261-1.788-1.715-4.538-1.715-2.935 0-5.137 2.033-5.137 4.758 0 5.036 7.231 4.527 7.231 7.46 0 1.34-1.058 1.987-2.223 1.987-2.159 0-3.82-1.732-3.82-1.732zm11.611 4.204h2.784V18.32h7.014v6.883h2.784v-16.4h-2.784v6.953h-7.014V8.804h-2.784v16.4zm16.467 0h9.518V22.64h-6.734v-4.412h5.158v-2.564h-5.158v-4.296h6.388V8.804h-9.172v16.4zm12.41 0h5.223c4.726 0 7.812-3.05 7.812-8.223 0-5.174-3.086-8.177-7.812-8.177h-5.223v16.4zm2.784-2.564V11.368h2.288c3.064 0 5.093 1.963 5.093 5.613 0 3.696-1.986 5.659-5.093 5.659h-2.288z" transform="translate(-995 -5093) translate(995 5093)"/>
                <path fill="#01F496" d="M15.23 0c4.24 1.024 8.719 1.024 15.025 5.801v8.415C30.255 29.4 23.002 29.4 15.223 34 5.847 29.392 0 28.123 0 14.216V5.8C6.46 1.027 10.928 1.024 15.23 0zm.961 11.979l-.347.003v17.972l.28-.183c1.928-1.287 3.047-2.753 3.356-4.397l-.01-8.988.315.056c1.471.3 2.989 1.066 4.553 2.299.235-2.424-.488-4.092-2.169-5.005-2.255-1.224-4.364-1.808-6.325-1.754l.347-.003zm-1.643-8.087c-1.05.102-2.29.358-3.627.768l.027 14.674c0 1.104-.825 1.967-1.869 1.967-1.043 0-1.778-.909-1.778-1.946V5.812C5.674 6.648 4.45 7.388 3.627 8.03c0 16.035-.46 14.888 10.921 21.923V3.892zm1.296 0v4.097l.459.06c4.855.684 8.297 2.49 10.326 5.419.397-3.02-.112-5.051-1.527-6.093-2.303-1.696-5.39-2.857-9.258-3.483z" transform="translate(-995 -5093) translate(995 5093)"/>
            </g>
        </g>
    </g>
</svg>
