<svg width="24" height="24" viewBox="0 0 24 24" fill="none" xmlns="http://www.w3.org/2000/svg">
<path d="M3.24453 18.0887C3.24331 19.0467 3.47372 19.7558 3.93576 20.2158C4.39658 20.6771 5.09574 20.904 6.03326 20.8967H8.11975C8.20693 20.8934 8.29386 20.9079 8.37521 20.9395C8.45656 20.9711 8.53062 21.019 8.5928 21.0802L10.0779 22.5484C10.7527 23.2226 11.4139 23.5578 12.0617 23.5541C12.7096 23.5504 13.3709 23.2152 14.0456 22.5484L15.5124 21.0802C15.5767 21.0182 15.6529 20.97 15.7365 20.9385C15.82 20.9069 15.9091 20.8927 15.9982 20.8967H18.0719C19.0192 20.8979 19.7251 20.6673 20.1896 20.2048C20.6541 19.7423 20.8864 19.0333 20.8864 18.0777V16.0021C20.8816 15.8222 20.9474 15.6476 21.0697 15.5157L22.5365 14.0475C23.2198 13.3758 23.559 12.7145 23.5541 12.0636C23.5492 11.4127 23.21 10.7508 22.5365 10.0779L21.0697 8.6097C20.9471 8.47802 20.8812 8.30329 20.8864 8.12336V6.04769C20.8851 5.09092 20.6547 4.3819 20.1951 3.92064C19.7355 3.45939 19.0278 3.22875 18.0719 3.22875H15.9982C15.9091 3.23242 15.8201 3.21807 15.7366 3.18653C15.6532 3.155 15.5769 3.10694 15.5124 3.04523L14.0456 1.57703C13.3709 0.902883 12.7096 0.567648 12.0617 0.571319C11.4139 0.574989 10.7527 0.910224 10.0779 1.57703L8.5928 3.04523C8.53043 3.10622 8.45638 3.15393 8.37508 3.18547C8.29377 3.21701 8.20689 3.23173 8.11975 3.22875H6.03326C5.08718 3.22998 4.38373 3.45877 3.92291 3.91513C3.4621 4.3715 3.23168 5.08235 3.23168 6.04769V8.12887C3.23683 8.3088 3.17096 8.48352 3.04833 8.6152L1.58154 10.0834C0.908042 10.7551 0.571289 11.417 0.571289 12.0691C0.571289 12.7213 0.912332 13.3844 1.59439 14.0585L3.06118 15.5267C3.18346 15.6586 3.24928 15.8332 3.24453 16.0131V18.0887Z" fill="currentColor"/>
<path d="M11.996 15.9909C11.7795 16.3208 11.4599 16.5064 11.0887 16.5064C10.7072 16.5064 10.4083 16.3517 10.1299 15.9909L7.69677 13.0216C7.5215 12.8051 7.42871 12.5783 7.42871 12.3309C7.42871 11.8154 7.82049 11.4133 8.32567 11.4133C8.63497 11.4133 8.8824 11.5267 9.12984 11.8463L11.0475 14.2897L15.1199 7.75329C15.3364 7.40275 15.6147 7.23779 15.924 7.23779C16.4086 7.23779 16.8622 7.57802 16.8622 8.0832C16.8622 8.32033 16.7385 8.56777 16.6045 8.78427L11.996 15.9909Z" fill="white"/>
</svg>
