<svg width="28" height="28" viewBox="0 0 28 28" fill="none" xmlns="http://www.w3.org/2000/svg">
<rect opacity="0.2" width="28" height="28" rx="14" fill="#A7B6BD"/>
<path d="M14 7.33325C10.4467 10.3666 8.66667 12.9866 8.66667 15.1999C8.66667 18.5199 11.2 20.6666 14 20.6666C16.8 20.6666 19.3333 18.5199 19.3333 15.1999C19.3333 12.9866 17.5533 10.3666 14 7.33325ZM14 19.3333C11.7667 19.3333 10 17.6199 10 15.1999C10 13.6399 11.3 11.5733 14 9.10659C16.7 11.5733 18 13.6333 18 15.1999C18 17.6199 16.2333 19.3333 14 19.3333ZM11.22 15.3333C11.4667 15.3333 11.6667 15.5066 11.7133 15.7466C11.9867 17.2266 13.2333 17.7333 14.14 17.6599C14.4267 17.6466 14.6667 17.8733 14.6667 18.1599C14.6667 18.4266 14.4533 18.6466 14.1867 18.6599C12.7667 18.7466 11.1067 17.9333 10.7267 15.9133C10.6733 15.6133 10.9133 15.3333 11.22 15.3333Z" fill="#A7B6BD"/>
</svg>
