<svg width="16" height="10" viewBox="0 0 16 10" fill="none" xmlns="http://www.w3.org/2000/svg">
<path d="M-7.64949e-08 1.75C-5.53678e-08 1.26667 0.170835 0.854166 0.512501 0.512499C0.854167 0.170832 1.26667 -6.44014e-07 1.75 -6.22887e-07C2.23333 -6.0176e-07 2.64583 0.170833 2.9875 0.512499C3.32917 0.854166 3.5 1.26667 3.5 1.75C3.5 2.23333 3.32917 2.64583 2.9875 2.9875C2.64583 3.32917 2.23333 3.5 1.75 3.5C1.26667 3.5 0.854167 3.32917 0.512501 2.9875C0.170834 2.64583 -9.76221e-08 2.23333 -7.64949e-08 1.75ZM-3.60619e-07 8.25C-3.39492e-07 7.76667 0.170834 7.35417 0.5125 7.0125C0.854167 6.67083 1.26667 6.5 1.75 6.5C2.23333 6.5 2.64583 6.67083 2.9875 7.0125C3.32917 7.35417 3.5 7.76667 3.5 8.25C3.5 8.73333 3.32917 9.14583 2.9875 9.4875C2.64583 9.82916 2.23333 10 1.75 10C1.26667 10 0.854167 9.82916 0.5125 9.4875C0.170834 9.14583 -3.81746e-07 8.73333 -3.60619e-07 8.25ZM6.25 1.75C6.25 1.26667 6.42083 0.854166 6.7625 0.512499C7.10417 0.170833 7.51667 -3.70818e-07 8 -3.49691e-07C8.48333 -3.28564e-07 8.89583 0.170833 9.2375 0.5125C9.57917 0.854166 9.75 1.26667 9.75 1.75C9.75 2.23333 9.57917 2.64583 9.2375 2.9875C8.89583 3.32917 8.48333 3.5 8 3.5C7.51667 3.5 7.10417 3.32917 6.7625 2.9875C6.42083 2.64583 6.25 2.23333 6.25 1.75ZM6.25 8.25C6.25 7.76667 6.42083 7.35417 6.7625 7.0125C7.10417 6.67083 7.51667 6.5 8 6.5C8.48333 6.5 8.89583 6.67083 9.2375 7.0125C9.57917 7.35417 9.75 7.76667 9.75 8.25C9.75 8.73333 9.57917 9.14583 9.2375 9.4875C8.89583 9.82917 8.48333 10 8 10C7.51667 10 7.10417 9.82917 6.7625 9.4875C6.42083 9.14583 6.25 8.73333 6.25 8.25ZM12.5 1.75C12.5 1.26667 12.6708 0.854166 13.0125 0.5125C13.3542 0.170833 13.7667 -9.76221e-08 14.25 -7.64949e-08C14.7333 -5.53678e-08 15.1458 0.170833 15.4875 0.5125C15.8292 0.854167 16 1.26667 16 1.75C16 2.23333 15.8292 2.64583 15.4875 2.9875C15.1458 3.32917 14.7333 3.5 14.25 3.5C13.7667 3.5 13.3542 3.32917 13.0125 2.9875C12.6708 2.64583 12.5 2.23333 12.5 1.75ZM12.5 8.25C12.5 7.76667 12.6708 7.35417 13.0125 7.0125C13.3542 6.67083 13.7667 6.5 14.25 6.5C14.7333 6.5 15.1458 6.67083 15.4875 7.0125C15.8292 7.35417 16 7.76667 16 8.25C16 8.73333 15.8292 9.14583 15.4875 9.4875C15.1458 9.82917 14.7333 10 14.25 10C13.7667 10 13.3542 9.82917 13.0125 9.4875C12.6708 9.14583 12.5 8.73333 12.5 8.25Z" fill="#A9A9A9"/>
</svg>
