<svg width="99" height="15" viewBox="0 0 99 15" fill="none" xmlns="http://www.w3.org/2000/svg">
<path fill-rule="evenodd" clip-rule="evenodd" d="M46.1849 1.05354C43.91 1.62675 42.8437 3.41055 43.4903 5.56114C43.7672 6.48264 44.6194 7.41229 45.8245 8.10752C47.9962 9.36041 48.6357 9.86782 49.0071 10.6323C49.3169 11.27 49.3438 11.4832 49.1876 12.0612C48.8209 13.4182 47.8634 14.1666 46.4936 14.1666C45.0954 14.1666 44.1137 13.3823 43.8946 12.0904C43.8066 11.5709 43.6981 11.405 43.4472 11.405C43.1473 11.405 43.116 11.5424 43.116 12.8583V14.3114L44.0253 14.6203C45.4453 15.1026 47.4651 15.0449 48.6703 14.4878C51.0182 13.4023 51.9181 11.2477 50.8643 9.23455C50.4702 8.4815 49.4812 7.64097 47.7866 6.61884C46.0057 5.54441 45.212 4.76289 45.0956 3.96859C44.9168 2.74797 46.0147 1.73774 47.5152 1.74205C48.6905 1.74533 49.1948 2.02357 49.6114 2.8983C49.8723 3.44596 50.059 3.62699 50.3678 3.63182C50.7094 3.637 50.7603 3.57332 50.6732 3.24969C50.6159 3.03619 50.5677 2.5008 50.5665 2.05998C50.5648 1.50024 50.4839 1.22787 50.298 1.15693C49.7919 0.963274 46.8374 0.889057 46.1849 1.05354ZM0.505859 1.56686C0.505859 1.81523 0.621392 1.91206 0.917757 1.91206C1.75402 1.91206 1.79889 2.15336 1.89155 7.15908C1.97244 11.5322 2.00241 11.8814 2.35195 12.5269C2.85271 13.4515 3.53187 14.0668 4.57634 14.5423C5.29187 14.868 5.74361 14.9371 7.17451 14.94C8.72684 14.9429 9.0097 14.8929 9.89914 14.4576C10.4449 14.1906 11.1248 13.69 11.4099 13.3453C12.3984 12.1504 12.503 11.573 12.6151 6.69515C12.723 1.99803 12.7377 1.92171 13.54 1.91464C13.7268 1.91308 13.8432 1.7795 13.8432 1.56686C13.8432 1.24082 13.7276 1.22166 11.7646 1.22166C9.82431 1.22166 9.68609 1.24392 9.68609 1.55598C9.68609 1.80624 9.82639 1.90377 10.245 1.94433C11.165 2.03322 11.2396 2.38673 11.2424 6.6703C11.2453 11.0131 11.0971 11.8486 10.1671 12.728C9.30242 13.5459 8.61425 13.8214 7.43607 13.8214C5.74379 13.8214 4.54447 13.0337 4.15128 11.6639C4.01894 11.2033 3.97027 9.50918 4.00491 6.57223L4.0567 2.17095L4.66294 1.9761C4.99638 1.86891 5.2943 1.65539 5.32513 1.50144C5.37467 1.2541 5.09874 1.22166 2.94347 1.22166C0.621391 1.22166 0.505859 1.23806 0.505859 1.56686ZM16.6146 1.56686C16.6146 1.83404 16.7301 1.91206 17.1261 1.91206C18.0081 1.91206 18.5048 2.25106 18.7042 2.98892C18.8176 3.40851 18.8665 5.41236 18.8332 8.2763C18.7738 13.3899 18.7037 13.7244 17.646 13.9352C17.2974 14.0047 17.1342 14.1404 17.1342 14.3608C17.1342 14.6618 17.3036 14.6844 19.5592 14.6844C21.7751 14.6844 21.9841 14.6578 21.9841 14.3749C21.9841 14.1547 21.7622 14.0064 21.2137 13.8602C20.5324 13.6787 20.4223 13.5796 20.2619 13.0046C20.0563 12.2668 20.0076 4.49312 20.2087 4.51556C20.2801 4.5235 20.952 5.242 21.7018 6.11207C22.4514 6.98214 24.5026 9.26682 26.2599 11.1892C29.0103 14.198 29.5247 14.6844 29.9569 14.6844H30.4589L30.5086 8.5656C30.5437 4.22111 30.6163 2.38896 30.7585 2.24725C30.8689 2.13748 31.2196 1.99457 31.538 1.92967C31.8759 1.8608 32.117 1.70666 32.117 1.55978C32.117 1.3537 31.6852 1.29932 29.7354 1.25997C27.4422 1.21371 27.3537 1.22493 27.3537 1.56201C27.3537 1.81815 27.4671 1.91206 27.777 1.91206C28.01 1.91206 28.4191 2.09933 28.6864 2.32837L29.1724 2.74468L29.227 6.90223C29.258 9.24958 29.2147 11.0598 29.1279 11.0598C29.0434 11.0598 28.5146 10.5356 27.9527 9.89475C27.3909 9.25389 25.7911 7.48701 24.3977 5.96814C23.0042 4.44927 21.4818 2.76625 21.0148 2.22825L20.1654 1.24997L18.39 1.23581C16.7252 1.22252 16.6146 1.24324 16.6146 1.56686ZM34.8018 1.56686C34.8018 1.83007 34.9173 1.91206 35.2884 1.91206C35.556 1.91206 35.9261 2.02217 36.1111 2.15679C36.4284 2.3879 36.4504 2.68583 36.5015 7.46424C36.5654 13.431 36.513 13.7655 35.4881 13.9287C34.9719 14.0111 34.8018 14.1183 34.8018 14.3613C34.8018 14.6626 34.9764 14.6844 37.4 14.6844C39.8826 14.6844 39.9982 14.669 39.9982 14.3392C39.9982 14.0936 39.8826 13.994 39.5982 13.994C39.3782 13.994 39.0471 13.8839 38.8621 13.7493C38.5435 13.5173 38.5233 13.2189 38.4756 8.0604C38.4268 2.77611 38.4356 2.60609 38.7787 2.26417C38.9731 2.07052 39.327 1.91206 39.5651 1.91206C39.8826 1.91206 39.9982 1.82006 39.9982 1.56686C39.9982 1.23702 39.8826 1.22166 37.4 1.22166C34.9173 1.22166 34.8018 1.23702 34.8018 1.56686ZM52.9388 1.56686C52.9949 1.78071 53.1751 1.91206 53.412 1.91206C53.6225 1.91206 53.9651 2.09277 54.1735 2.31387C54.3851 2.53825 55.5694 5.3756 56.857 8.74319L59.162 14.7707L59.7663 14.8223L60.3706 14.8739L61.9898 10.5936C62.8805 8.23955 63.7025 6.12709 63.8169 5.89926C64.0128 5.50918 64.0564 5.56859 64.5769 6.93488C64.8806 7.73229 65.6891 9.84093 66.3735 11.6208L67.6176 14.857H68.1659C68.4676 14.857 68.7539 14.7538 68.8026 14.6276C68.8511 14.5016 69.647 12.4627 70.5711 10.0969C71.4953 7.73122 72.519 5.11032 72.8461 4.27286C73.5909 2.36582 73.74 2.13039 74.3338 1.92413C74.5977 1.83248 74.8137 1.63695 74.8137 1.48955C74.8137 1.26241 74.4983 1.22166 72.7352 1.22166C70.7722 1.22166 70.6566 1.24082 70.6566 1.56686C70.6566 1.81695 70.7722 1.91206 71.0755 1.91206C71.7487 1.91206 72.0423 2.09432 72.0423 2.51253C72.0423 2.86152 68.7432 11.8159 68.5398 12.0184C68.4149 12.1428 65.4359 3.82481 65.3281 3.05088C65.2235 2.29904 65.5447 1.91206 66.2728 1.91206C66.5573 1.91206 66.6728 1.81247 66.6728 1.56686C66.6728 1.2365 66.5572 1.22166 63.988 1.22166C61.4187 1.22166 61.3032 1.2365 61.3032 1.56686C61.3032 1.76362 61.4187 1.91206 61.5717 1.91206C62.1125 1.91206 62.8292 2.43261 63.0135 2.95938C63.278 3.71519 63.0757 4.48151 61.5183 8.62561L60.1954 12.1462L59.9104 11.4735C59.7537 11.1036 58.938 8.92095 58.0981 6.62331C56.4477 2.1095 56.4233 1.91206 57.5137 1.91206C57.8967 1.91206 58.0122 1.83214 58.0122 1.56686C58.0122 1.23702 57.8967 1.22166 55.4303 1.22166C52.9336 1.22166 52.8513 1.23305 52.9388 1.56686ZM88.0183 1.68467C88.0183 1.68467 88.0181 1.9203 88.0471 1.98587C88.0761 2.05143 88.2624 2.07605 88.2624 2.07605C88.378 2.10708 88.488 2.13432 88.5919 2.16004C89.1154 2.28968 89.4831 2.38074 89.63 2.72441C89.7293 2.95658 89.7355 3.76383 89.7367 8.09148C89.738 12.6548 89.7371 13.214 89.6151 13.5155C89.4636 13.8895 89.1738 14.0881 88.5052 14.2758C88.5052 14.2758 88.2093 14.3581 88.1297 14.4317C88.0501 14.5053 88.0351 14.6697 88.0351 14.6697C88.0351 14.6697 88.0288 14.8223 88.097 14.8955C88.1652 14.9687 88.3471 14.9338 88.3471 14.9338L90.0805 14.9384L92.9555 14.9616C92.9555 14.9616 93.073 14.9772 93.1339 14.8994C93.1948 14.8217 93.1793 14.6692 93.1793 14.6692C93.1793 14.6692 93.1793 14.5063 93.1035 14.4328C93.0278 14.3594 92.7341 14.2906 92.7341 14.2906C92.0848 14.1308 91.7516 13.9225 91.6043 13.5844C91.4948 13.3331 91.4831 12.6547 91.4666 11.2418V9.17022C91.5392 9.21115 91.6055 9.25757 91.6756 9.3066C92.007 9.53849 92.422 9.82885 93.9722 9.87372C95.8502 9.92807 96.98 9.09241 97.6519 8.12182C98.3238 7.15123 98.5844 5.62637 98.0915 4.00198C97.5985 2.37759 96.1521 1.39457 94.1185 1.29296C93.0586 1.23999 91.5164 1.29229 90.6545 1.33139L90.4131 1.34222C89.63 1.37639 88.6916 1.45126 88.2241 1.49573L88.2227 1.49586C88.0954 1.50797 88.0829 1.50916 88.0473 1.55435C88.0116 1.59969 88.0183 1.68467 88.0183 1.68467ZM95.6502 8.04784C96.4057 7.33767 96.4182 6.22677 96.4182 5.51709C96.344 4.40431 95.8956 2.26428 93.3558 2.26428C92.762 2.23377 91.5471 2.33625 91.5135 3.15998C91.4766 3.30548 91.4602 4.32335 91.4696 5.88548L91.4846 8.37872L91.7431 8.51489L91.7571 8.52225C91.8973 8.59631 92.0794 8.69244 92.3976 8.75475C93.4073 8.95248 94.8947 8.75802 95.6502 8.04784ZM79.7582 1.43734C79.9463 1.36606 80.0703 1.31844 80.0703 1.31844C80.0703 1.31844 80.3515 1.2029 80.4422 1.31844C80.4702 1.35402 80.5721 1.61691 80.8245 2.26842C80.8742 2.39657 80.9296 2.53976 80.9915 2.69921C81.3681 3.66929 81.9091 5.06174 82.1937 5.79356C82.4784 6.52537 83.0414 7.97352 83.4449 9.01168C83.8484 10.0498 84.3663 11.3817 84.5958 11.9713C84.8253 12.5609 85.1186 13.174 85.2006 13.2858C85.2409 13.3407 85.2821 13.409 85.3272 13.4838C85.5044 13.7774 85.7422 14.1715 86.2196 14.2485C86.2196 14.2485 86.5935 14.3104 86.6489 14.369C86.7042 14.4276 86.7168 14.534 86.7168 14.534V14.7341C86.7168 14.7341 86.7105 14.7852 86.6797 14.8287C86.6489 14.8721 86.5359 14.86 86.5359 14.86L83.6534 14.8602L81.6027 14.875C81.6027 14.875 81.5311 14.8837 81.4888 14.8488C81.4465 14.8139 81.4246 14.7256 81.4246 14.7256V14.5749C81.4246 14.5749 81.4069 14.4616 81.4888 14.3631C81.5707 14.2646 81.9001 14.2531 81.9001 14.2531C82.5208 14.1993 82.7672 13.6704 82.8941 13.3981C82.9036 13.3778 82.9124 13.3589 82.9206 13.3418C83.0558 13.0604 83.007 12.877 82.3962 11.3726C81.9932 10.3797 81.8559 10.1008 81.7578 10.0761C81.6891 10.0587 80.6163 10.0522 79.3737 10.0618L77.1147 10.079L76.9796 10.4503C76.5889 11.5243 76.242 12.5913 76.1897 12.8798C76.0832 13.4667 76.2318 14.1196 77.0949 14.2331C77.0949 14.2331 77.4149 14.2771 77.5003 14.3415C77.5857 14.4059 77.6156 14.571 77.6156 14.571V14.7231C77.6156 14.7231 77.5993 14.7955 77.5406 14.8442C77.4818 14.893 77.3294 14.8752 77.3294 14.8752H75.1732L73.0872 14.899C73.0872 14.899 72.9981 14.8969 72.9323 14.862C72.8665 14.8271 72.856 14.757 72.856 14.757V14.6125C72.856 14.6125 72.8447 14.5187 72.9608 14.4039C73.077 14.2892 73.3905 14.2584 73.3905 14.2584C73.9608 14.1666 74.2838 13.5597 74.4696 13.2105C74.4833 13.1847 74.4963 13.1603 74.5086 13.1376C74.5823 13.0016 74.9145 12.2079 75.2469 11.374C75.5794 10.5401 75.9525 9.60713 76.076 9.30079C76.4962 8.25916 76.8955 7.26123 77.4999 5.74227C77.8317 4.90834 78.323 3.6774 78.5916 3.00685L79.08 1.78764L79.7582 1.43734ZM79.5803 4.40093C79.6849 4.66463 79.8451 5.06146 79.9361 5.28271C80.0272 5.50395 80.2821 6.13056 80.5025 6.67517C80.7229 7.21977 80.9938 7.88252 81.1044 8.14796C81.215 8.41345 81.3056 8.64318 81.3056 8.65853C81.3056 8.67394 80.4753 8.68651 79.4606 8.68651C78.2957 8.68651 77.6156 8.66415 77.6156 8.62584C77.6156 8.59249 77.6547 8.46025 77.7023 8.33189C77.7782 8.12779 78.1568 7.04433 78.9929 4.63821C79.1219 4.26671 79.2417 3.93901 79.2589 3.91005C79.3177 3.81097 79.3901 3.92137 79.5803 4.40093Z" fill="black"/>
</svg>
