<svg width="99" height="16" xmlns="http://www.w3.org/2000/svg">
 <mask height="16" width="99" y="-0.03711" x="-0.49414" maskUnits="userSpaceOnUse" id="path-1-outside-1">
  <rect id="svg_1" height="16" width="99" y="-0.03711" x="-0.49414" fill="white"/>
  <path id="svg_2" d="m46.1805,1.05353c-2.2747,0.57315 -3.3409,2.35678 -2.6944,4.50716c0.277,0.92142 1.1291,1.85097 2.334,2.54614c2.1715,1.25277 2.8109,1.76012 3.1823,2.52447c0.3098,0.6377 0.3367,0.8509 0.1804,1.4289c-0.3666,1.3568 -1.324,2.1051 -2.6937,2.1051c-1.398,0 -2.3797,-0.7842 -2.5988,-2.076c-0.0879,-0.5194 -0.1964,-0.6853 -0.4473,-0.6853c-0.2998,0 -0.3312,0.1374 -0.3312,1.4532l0,1.4529l0.9093,0.3089c1.4199,0.4822 3.4395,0.4246 4.6446,-0.1325c2.3476,-1.0854 3.2474,-3.2398 2.1937,-5.25276c-0.394,-0.75297 -1.383,-1.59341 -3.0774,-2.61545c-1.7807,-1.07432 -2.5743,-1.85577 -2.6907,-2.64999c-0.1788,-1.22051 0.919,-2.23064 2.4194,-2.22632c1.1751,0.00328 1.6794,0.28149 2.096,1.15613c0.2608,0.54761 0.4475,0.72862 0.7563,0.73345c0.3415,0.00518 0.3925,-0.0585 0.3053,-0.38209c-0.0573,-0.21348 -0.1054,-0.74882 -0.1066,-1.1896c-0.0018,-0.55968 -0.0827,-0.83203 -0.2685,-0.90296c-0.5061,-0.19364 -3.4603,-0.26785 -4.1127,-0.10338zm-45.67464,0.51327c0,0.24835 0.11552,0.34516 0.41186,0.34516c0.83618,0 0.88104,0.24129 0.9737,5.24652c0.08088,4.37272 0.11084,4.72192 0.46035,5.36732c0.50071,0.9245 1.17981,1.5397 2.22417,2.0152c0.71547,0.3257 1.16716,0.3947 2.59793,0.3977c1.55217,0.0029 1.835,-0.0472 2.72436,-0.4824c0.54577,-0.267 1.22557,-0.7675 1.51057,-1.1122c0.9885,-1.1947 1.0931,-1.7722 1.2051,-6.64951c0.1079,-4.69666 0.1226,-4.77297 0.9249,-4.78005c0.1867,-0.00155 0.3031,-0.13512 0.3031,-0.34774c0,-0.32601 -0.1155,-0.34516 -2.0784,-0.34516c-1.94009,0 -2.0783,0.02225 -2.0783,0.33428c0,0.25024 0.14028,0.34776 0.5589,0.38831c0.9198,0.08888 0.9945,0.44237 0.9973,4.72552c0.0029,4.34235 -0.1454,5.17775 -1.0752,6.05705c-0.86463,0.8179 -1.55273,1.0934 -2.73081,1.0934c-1.69211,0 -2.89132,-0.7877 -3.28447,-2.1573c-0.13232,-0.4606 -0.18099,-2.15455 -0.14635,-5.09122l0.05179,-4.40085l0.60618,-0.19483c0.3334,-0.10718 0.6313,-0.32067 0.66212,-0.47462c0.04954,-0.24731 -0.22636,-0.27974 -2.38143,-0.27974c-2.32185,0 -2.43737,0.01639 -2.43737,0.34516zm16.10714,0c0,0.26716 0.1155,0.34516 0.5114,0.34516c0.882,0 1.3787,0.33897 1.578,1.07676c0.1135,0.41955 0.1623,2.42321 0.1291,5.28687c-0.0595,5.11311 -0.1296,5.44761 -1.1871,5.65831c-0.3487,0.0695 -0.5118,0.2052 -0.5118,0.4256c0,0.301 0.1694,0.3235 2.4247,0.3235c2.2157,0 2.4247,-0.0265 2.4247,-0.3094c0,-0.2202 -0.2218,-0.3684 -0.7703,-0.5146c-0.6812,-0.1816 -0.7914,-0.2807 -0.9517,-0.8555c-0.2056,-0.7378 -0.2543,-8.51072 -0.0532,-8.48829c0.0713,0.00794 0.7432,0.72637 1.4929,1.59636c0.7496,0.86999 2.8006,3.15445 4.5577,5.07663c2.7501,3.0085 3.2645,3.4948 3.6966,3.4948l0.502,0l0.0497,-6.11814c0.0351,-4.34407 0.1077,-6.17604 0.2499,-6.31773c0.1103,-0.10976 0.461,-0.25266 0.7794,-0.31755c0.3379,-0.06886 0.579,-0.22299 0.579,-0.36986c0,-0.20606 -0.4318,-0.26043 -2.3815,-0.29978c-2.2929,-0.04625 -2.3814,-0.03504 -2.3814,0.30202c0,0.25611 0.1134,0.35 0.4233,0.35c0.2329,0 0.642,0.18726 0.9093,0.41628l0.4859,0.41627l0.0546,4.15715c0.031,2.34712 -0.0123,4.15724 -0.0991,4.15724c-0.0845,0 -0.6133,-0.5242 -1.1751,-1.16502c-0.5617,-0.6408 -2.1613,-2.4075 -3.5547,-3.92623c-1.3933,-1.51872 -2.9155,-3.20158 -3.3825,-3.73952l-0.8493,-0.97819l-1.7753,-0.01415c-1.6645,-0.01329 -1.7752,0.00742 -1.7752,0.33101zm18.1855,0c0,0.26319 0.1155,0.34516 0.4865,0.34516c0.2676,0 0.6377,0.1101 0.8227,0.24472c0.3172,0.23109 0.3392,0.52899 0.3903,5.30693c0.064,5.96619 0.0115,6.30059 -1.0133,6.46389c-0.5161,0.0823 -0.6862,0.1895 -0.6862,0.4325c0,0.3013 0.1746,0.323 2.5979,0.323c2.4824,0 2.5979,-0.0153 2.5979,-0.3451c0,-0.2456 -0.1155,-0.3452 -0.3999,-0.3452c-0.2199,0 -0.5511,-0.1101 -0.7361,-0.2447c-0.3185,-0.2319 -0.3387,-0.5303 -0.3864,-5.68829c-0.0488,-5.28378 -0.04,-5.45378 0.3031,-5.79566c0.1944,-0.19364 0.5482,-0.35209 0.7863,-0.35209c0.3175,0 0.433,-0.09198 0.433,-0.34516c0,-0.3298 -0.1155,-0.34516 -2.5979,-0.34516c-2.4824,0 -2.5979,0.01536 -2.5979,0.34516zm18.1352,0c0.0561,0.21383 0.2363,0.34516 0.4732,0.34516c0.2104,0 0.553,0.1807 0.7614,0.40178c0.2116,0.22436 1.3957,3.06144 2.6833,6.42869l2.3047,6.02687l0.6043,0.0517l0.6042,0.0516l1.6191,-4.2799c0.8905,-2.35385 1.7125,-4.46611 1.8268,-4.69392c0.1959,-0.39004 0.2396,-0.33064 0.76,1.03552c0.3036,0.79733 1.1121,2.90577 1.7964,4.6854l1.244,3.2359l0.5482,0c0.3017,0 0.588,-0.1031 0.6367,-0.2293c0.0485,-0.126 0.8443,-2.1647 1.7683,-4.5303c0.9242,-2.36544 1.9477,-4.98609 2.2747,-5.82346c0.7448,-1.90686 0.8939,-2.14226 1.4876,-2.3485c0.264,-0.09164 0.4799,-0.28716 0.4799,-0.43454c0,-0.22712 -0.3154,-0.26786 -2.0783,-0.26786c-1.9628,0 -2.0784,0.01915 -2.0784,0.34516c0,0.25007 0.1156,0.34516 0.4188,0.34516c0.6732,0 0.9668,0.18225 0.9668,0.60042c0,0.34896 -3.2988,9.30252 -3.5022,9.50492c-0.1248,0.1245 -3.1036,-8.19276 -3.2113,-8.96662c-0.1047,-0.75177 0.2164,-1.13872 0.9446,-1.13872c0.2843,0 0.3999,-0.09958 0.3999,-0.34516c0,-0.33032 -0.1156,-0.34516 -2.6846,-0.34516c-2.569,0 -2.6845,0.01484 -2.6845,0.34516c0,0.19674 0.1155,0.34516 0.2685,0.34516c0.5407,0 1.2574,0.52051 1.4416,1.04723c0.2645,0.75574 0.0622,1.52198 -1.495,5.66568l-1.3228,3.52023l-0.2849,-0.6726c-0.1568,-0.3699 -0.9724,-2.55232 -1.8122,-4.84974c-1.6502,-4.51337 -1.6746,-4.7108 -0.5843,-4.7108c0.3829,0 0.4984,-0.0799 0.4984,-0.34516c0,-0.3298 -0.1155,-0.34516 -2.5816,-0.34516c-2.4965,0 -2.5787,0.01139 -2.4913,0.34516zm35.0748,0.11914c0,0 -0.0002,0.23561 0.0288,0.30117c0.029,0.06555 0.2153,0.09018 0.2153,0.09018c0.1156,0.03102 0.2256,0.05826 0.3295,0.08398c0.5234,0.12962 0.8911,0.22067 1.038,0.56431c0.0993,0.23214 0.1055,1.03932 0.1067,5.36654c0.0013,4.56288 0.0004,5.12208 -0.1217,5.42358c-0.1514,0.3739 -0.4412,0.5724 -1.1098,0.7602c0,0 -0.2958,0.0823 -0.3754,0.1559c-0.0796,0.0735 -0.0946,0.2379 -0.0946,0.2379c0,0 -0.0063,0.1526 0.0619,0.2258c0.0682,0.0732 0.2501,0.0383 0.2501,0.0383l1.7332,0.0046l2.8747,0.0232c0,0 0.1175,0.0156 0.1784,-0.0622c0.0609,-0.0777 0.0454,-0.2301 0.0454,-0.2301c0,0 0,-0.163 -0.0758,-0.2364c-0.0757,-0.0734 -0.3694,-0.1423 -0.3694,-0.1423c-0.6492,-0.1598 -0.9823,-0.368 -1.1296,-0.7061c-0.1095,-0.2512 -0.1212,-0.9296 -0.1377,-2.3424l0,-2.07134c0.0726,0.04093 0.1389,0.08734 0.209,0.13637c0.3313,0.23186 0.7463,0.5222 2.2963,0.56706c1.8779,0.05435 3.0075,-0.78123 3.6794,-1.75172c0.6718,-0.9705 0.9324,-2.49521 0.4395,-4.11944c-0.4929,-1.62424 -1.9392,-2.60716 -3.9725,-2.70877c-1.0599,-0.05296 -2.6019,-0.00066 -3.4637,0.03844l-0.2414,0.01083c-0.783,0.03416 -1.7213,0.10902 -2.1888,0.15349l-0.0014,0.00013c-0.1272,0.0121 -0.1398,0.0133 -0.1754,0.05848c-0.0357,0.04534 -0.029,0.13031 -0.029,0.13031zm7.6312,6.36255c0.7554,-0.7101 0.7679,-1.82089 0.7679,-2.5305c-0.0741,-1.11267 -0.5225,-3.2525 -3.0621,-3.2525c-0.5937,-0.0305 -1.8086,0.07197 -1.8422,0.89562c-0.0368,0.14549 -0.0532,1.16326 -0.0438,2.72524l0.015,2.49299l0.2585,0.13615l0.0139,0.00737c0.1403,0.07405 0.3223,0.17017 0.6405,0.23247c1.0096,0.19772 2.4969,0.00327 3.2523,-0.70684zm-15.8899,-6.60916c0.1881,-0.07127 0.3121,-0.11888 0.3121,-0.11888c0,0 0.2811,-0.11554 0.3719,0c0.028,0.03559 0.1299,0.29867 0.3826,0.95074c0.0495,0.12792 0.1049,0.27081 0.1667,0.42989c0.3765,0.96999 0.9174,2.3623 1.2021,3.09405c0.2846,0.73174 0.8475,2.17975 1.251,3.21781c0.4034,1.03806 0.9213,2.36976 1.1507,2.95926c0.2296,0.5896 0.5228,1.2026 0.6048,1.3144c0.0403,0.0549 0.0815,0.1232 0.1266,0.198c0.1772,0.2936 0.4149,0.6876 0.8924,0.7647c0,0 0.3738,0.0618 0.4292,0.1204c0.0553,0.0586 0.0679,0.1651 0.0679,0.1651l0,0.2c0,0 -0.0064,0.0511 -0.0371,0.0946c-0.0308,0.0434 -0.1438,0.0313 -0.1438,0.0313l-2.8823,0.0002l-2.0505,0.0148c0,0 -0.0716,0.0087 -0.1138,-0.0262c-0.0423,-0.0349 -0.0642,-0.1232 -0.0642,-0.1232l0,-0.1507c0,0 -0.0177,-0.1132 0.0642,-0.2118c0.0819,-0.0985 0.4112,-0.1099 0.4112,-0.1099c0.6207,-0.0539 0.8671,-0.5827 0.9939,-0.8549c0.0095,-0.0203 0.0183,-0.0392 0.0265,-0.0564c0.1352,-0.2814 0.0864,-0.4647 -0.5243,-1.969c-0.403,-0.9928 -0.5403,-1.2716 -0.6383,-1.2964c-0.0687,-0.0174 -1.1414,-0.0238 -2.3839,-0.0143l-2.2588,0.0172l-0.1351,0.3713c-0.3906,1.0739 -0.7375,2.1408 -0.7898,2.4293c-0.1065,0.5869 0.042,1.2396 0.9051,1.3531c0,0 0.32,0.0441 0.4054,0.1085c0.0853,0.0644 0.1153,0.2294 0.1153,0.2294l0,0.1521c0,0 -0.0163,0.0724 -0.0751,0.1211c-0.0587,0.0488 -0.2112,0.031 -0.2112,0.031l-2.1559,0l-2.0858,0.0237c0,0 -0.0891,-0.002 -0.1549,-0.0369c-0.0658,-0.0349 -0.0763,-0.105 -0.0763,-0.105l0,-0.1445c0,0 -0.0113,-0.0938 0.1048,-0.2085c0.1162,-0.1148 0.4297,-0.1455 0.4297,-0.1455c0.5702,-0.0918 0.8931,-0.6987 1.079,-1.0479c0.0137,-0.0258 0.0267,-0.0502 0.0389,-0.0728c0.0737,-0.136 0.4059,-0.9296 0.7383,-1.7635c0.3324,-0.8338 0.7055,-1.76667 0.829,-2.07298c0.4201,-1.04153 0.8194,-2.03936 1.4238,-3.55817c0.3318,-0.83385 0.823,-2.06467 1.0916,-2.73515l0.4883,-1.2191l0.6781,-0.35027zm-0.1779,2.96331c0.1046,0.26367 0.2648,0.66046 0.3558,0.88169c0.0911,0.22122 0.346,0.84777 0.5664,1.39232c0.2204,0.54456 0.4912,1.20724 0.6018,1.47265c0.1106,0.26547 0.2012,0.49517 0.2012,0.51052c0,0.01541 -0.8302,0.02798 -1.8448,0.02798c-1.1648,0 -1.8448,-0.02236 -1.8448,-0.06066c0,-0.03335 0.039,-0.16558 0.0867,-0.29392c0.0758,-0.20409 0.4544,-1.28744 1.2904,-3.69332c0.129,-0.37148 0.2488,-0.69914 0.266,-0.7281c0.0588,-0.09907 0.1311,0.01132 0.3213,0.49084z" clip-rule="evenodd" fill-rule="evenodd"/>
 </mask>

 <g>
  <title>background</title>
  <rect fill="none" id="canvas_background" height="602" width="802" y="-1" x="-1"/>
 </g>
 <g>
  <title>Layer 1</title>
  <text font-weight="bold" xml:space="preserve" text-anchor="start" font-family="Helvetica, Arial, sans-serif" font-size="21" id="svg_5" y="15.62493" x="7" fill-opacity="null" stroke-opacity="null" stroke-width="0" stroke="null" fill="#000000">SWOOP</text>
 </g>
</svg>