<svg width="1309.6453613281249px" height="254px" xmlns="http://www.w3.org/2000/svg" viewBox="-404.82268066406243 -52 1309.6453613281249 254" style="background: rgba(0, 0, 0, 0);" preserveAspectRatio="xMidYMid"><defs><filter id="editing-extrude-glow"><feFlood flood-color="#8e0808" result="flood-1"></feFlood><feMorphology operator="erode" radius="1" in="SourceAlpha" result="erode"></feMorphology><feComposite operator="in" in="flood-1" in2="erode" result="comp1"></feComposite><feConvolveMatrix order="3,3" divisor="1" in="comp1" result="convolve" kernelMatrix="0 0 0 1 1 1 0 0 0"></feConvolveMatrix><feOffset dx="-3" dy="0" in="convolve" result="extrude"></feOffset><feComposite operator="in" in="flood-1" in2="extrude" result="comp-extrude"></feComposite><feFlood flood-color="none" result="flood-2"></feFlood><feComposite operator="in" in="flood-2" in2="SourceAlpha" result="comp2"></feComposite><feMorphology operator="dilate" radius="1" in="comp2" result="dilate"></feMorphology><feOffset dx="-4.5" dy="0" in="dilate" result="offset"></feOffset><feGaussianBlur in="offset" stdDeviation="5.8" result="blur"></feGaussianBlur><feComponentTransfer in="blur" result="shadow"><feFuncA type="linear" slope="0.8" intercept="-0.2"></feFuncA></feComponentTransfer><feMerge><feMergeNode in="shadow"></feMergeNode><feMergeNode in="comp-extrude"></feMergeNode><feMergeNode in="SourceGraphic"></feMergeNode></feMerge></filter></defs><g filter="url(#editing-extrude-glow)"><g transform="translate(-224.39054107666016, 141.5250005722046)"><path d="M14.36-72.08L14.36-72.08L14.36-72.08Q9.32-75.92 9.32-84.14L9.32-84.14L9.32-84.14Q9.32-92.35 14.73-96.64L14.73-96.64L14.73-96.64Q20.13-100.94 29.45-100.94L29.45-100.94L29.45-100.94Q35.37-100.94 49.43-98.86L49.43-98.86L59.50-97.38L59.50-97.38Q64.53-96.79 69.78-96.79L69.78-96.79L69.78-96.79Q75.04-96.79 78.59-99.01L78.59-99.01L78.59-99.01Q83.92-94.28 83.92-87.47L83.92-87.47L83.92-87.47Q83.92-80.66 77.85-75.78L77.85-75.78L77.85-75.78Q71.63-70.60 63.64-70.60L63.64-70.60L63.64-70.60Q59.79-70.60 53.58-71.63L53.58-71.63L53.58-71.63Q46.32-48.84 46.32-33.00L46.32-33.00L46.32-33.00Q46.32-17.17 54.32-8.88L54.32-8.88L54.32-8.88Q50.62-2.22 45.14 0.37L45.14 0.37L45.14 0.37Q39.66 2.96 31.45 2.96L31.45 2.96L31.45 2.96Q23.24 2.96 18.13-1.55L18.13-1.55L18.13-1.55Q13.02-6.07 13.02-15.39L13.02-15.39L13.02-15.39Q13.02-26.20 18.94-43.96L18.94-43.96L18.94-43.96Q24.86-61.57 33.74-75.04L33.74-75.04L33.74-75.04Q29.45-75.48 25.01-75.48L25.01-75.48L25.01-75.48Q15.84-75.48 14.36-72.08ZM124.62-41.59L124.62-41.59L124.62-41.59Q129.94-51.06 129.94-60.68L129.94-60.68L129.94-60.68Q129.94-67.04 125.36-67.04L125.36-67.04L125.36-67.04Q121.80-67.04 118.10-60.98L118.10-60.98L118.10-60.98Q114.26-54.91 113.07-47.06L113.07-47.06L105.38 0L74.74 2.96L89.84-75.48L114.26-78.44L111.59-63.49L111.59-63.49Q118.84-78.44 135.12-78.44L135.12-78.44L135.12-78.44Q143.71-78.44 148.37-74L148.37-74L148.37-74Q153.03-69.56 153.03-60.46L153.03-60.46L153.03-60.46Q153.03-51.36 147.04-45.58L147.04-45.58L147.04-45.58Q141.04-39.81 130.83-39.81L130.83-39.81L130.83-39.81Q126.39-39.81 124.62-41.59ZM161.84-4.44L161.84-4.44L161.84-4.44Q158.36-8.29 156.81-14.36L156.81-14.36L156.81-14.36Q155.25-20.42 155.25-30.34L155.25-30.34L155.25-30.34Q155.25-40.26 158.66-49.28L158.66-49.28L158.66-49.28Q162.06-58.31 168.28-64.82L168.28-64.82L168.28-64.82Q181.00-78.44 202.02-78.44L202.02-78.44L202.02-78.44Q209.57-78.44 215.04-75.92L215.04-75.92L240.35-78.44L229.40-20.72L229.40-20.72Q228.96-18.94 228.96-15.69L228.96-15.69L228.96-15.69Q228.96-12.43 230.95-10.36L230.95-10.36L230.95-10.36Q232.95-8.29 235.91-7.99L235.91-7.99L235.91-7.99Q234.43-2.96 229.03 0L229.03 0L229.03 0Q223.63 2.96 217.56 2.96L217.56 2.96L217.56 2.96Q211.49 2.96 207.42 0.67L207.42 0.67L207.42 0.67Q203.35-1.63 202.17-5.48L202.17-5.48L202.17-5.48Q199.80-1.78 194.77 0.59L194.77 0.59L194.77 0.59Q189.74 2.96 183.00 2.96L183.00 2.96L183.00 2.96Q176.27 2.96 170.79 1.18L170.79 1.18L170.79 1.18Q165.32-0.59 161.84-4.44ZM193.07-64.53L193.07-64.53L193.07-64.53Q191.36-61.86 189.88-57.35L189.88-57.35L189.88-57.35Q188.40-52.84 185.96-40.77L185.96-40.77L185.96-40.77Q183.52-28.71 183.52-20.13L183.52-20.13L183.52-20.13Q183.52-11.54 184.85-9.03L184.85-9.03L184.85-9.03Q186.18-6.51 188.55-6.51L188.55-6.51L188.55-6.51Q193.29-6.51 196.77-11.03L196.77-11.03L196.77-11.03Q200.24-15.54 201.58-23.53L201.58-23.53L209.42-66.90L209.42-66.90Q206.31-69.56 202.69-69.56L202.69-69.56L202.69-69.56Q199.06-69.56 196.91-68.38L196.91-68.38L196.91-68.38Q194.77-67.19 193.07-64.53ZM294.37-78.44L294.37-78.44L294.37-78.44Q299.70-78.44 303.84-77.26L303.84-77.26L303.84-77.26Q303.99-77.85 304.29-79.48L304.29-79.48L305.03-84.06L305.03-84.06Q305.62-87.02 306.51-91.91L306.51-91.91L308.88-103.60L338.33-106.56L321.90-20.72L321.90-20.72Q321.75-19.83 321.75-18.35L321.75-18.35L321.75-15.98L321.75-15.98Q321.75-12.73 323.38-10.29L323.38-10.29L323.38-10.29Q325.01-7.84 327.67-7.84L327.67-7.84L327.67-7.84Q324.71-0.89 315.68 2.07L315.68 2.07L315.68 2.07Q312.58 2.96 308.21 2.96L308.21 2.96L308.21 2.96Q303.84 2.96 299.85 0.67L299.85 0.67L299.85 0.67Q295.85-1.63 294.67-5.48L294.67-5.48L294.67-5.48Q292.30-1.63 287.56 0.67L287.56 0.67L287.56 0.67Q282.83 2.96 275.95 2.96L275.95 2.96L275.95 2.96Q269.06 2.96 263.37 1.18L263.37 1.18L263.37 1.18Q257.67-0.59 254.12-4.44L254.12-4.44L254.12-4.44Q247.60-11.99 247.60-29.16L247.60-29.16L247.60-29.16Q247.60-51.36 260.63-64.82L260.63-64.82L260.63-64.82Q273.65-78.44 294.37-78.44ZM293.34-69.56L293.34-69.56L293.34-69.56Q287.86-69.56 284.90-63.64L284.90-63.64L284.90-63.64Q281.94-57.72 278.91-43.07L278.91-43.07L278.91-43.07Q275.87-28.42 275.87-15.24L275.87-15.24L275.87-15.24Q275.87-6.22 281.20-6.22L281.20-6.22L281.20-6.22Q285.94-6.22 289.27-10.95L289.27-10.95L289.27-10.95Q292.60-15.69 293.93-23.53L293.93-23.53L301.92-66.90L301.92-66.90Q298.81-69.56 293.34-69.56ZM400.19-25.01L400.19-25.01L400.19-25.01Q403.89-22.50 403.89-16.95L403.89-16.95L403.89-16.95Q403.89-11.40 401.08-7.84L401.08-7.84L401.08-7.84Q398.27-4.29 393.68-1.92L393.68-1.92L393.68-1.92Q384.21 2.96 374.00 2.96L374.00 2.96L374.00 2.96Q363.78 2.96 357.79 0.74L357.79 0.74L357.79 0.74Q351.80-1.48 347.80-5.62L347.80-5.62L347.80-5.62Q339.96-13.47 339.96-27.82L339.96-27.82L339.96-27.82Q339.96-50.17 352.09-63.79L352.09-63.79L352.09-63.79Q365.12-78.44 387.76-78.44L387.76-78.44L387.76-78.44Q401.82-78.44 408.78-72.52L408.78-72.52L408.78-72.52Q413.96-68.08 413.96-60.83L413.96-60.83L413.96-60.83Q413.96-34.78 368.96-34.78L368.96-34.78L368.96-34.78Q368.37-30.93 368.37-27.68L368.37-27.68L368.37-27.68Q368.37-20.87 371.41-18.28L371.41-18.28L371.41-18.28Q374.44-15.69 380.06-15.69L380.06-15.69L380.06-15.69Q385.69-15.69 391.68-18.28L391.68-18.28L391.68-18.28Q397.68-20.87 400.19-25.01ZM370-41.14L370-41.14L370-41.14Q380.51-41.14 386.58-47.66L386.58-47.66L386.58-47.66Q392.64-53.87 392.64-63.79L392.64-63.79L392.64-63.79Q392.64-67.19 391.39-69.04L391.39-69.04L391.39-69.04Q390.13-70.89 387.61-70.89L387.61-70.89L387.61-70.89Q385.10-70.89 382.95-69.93L382.95-69.93L382.95-69.93Q380.80-68.97 378.58-65.71L378.58-65.71L378.58-65.71Q373.11-58.31 370-41.14ZM465.31-41.59L465.31-41.59L465.31-41.59Q470.64-51.06 470.64-60.68L470.64-60.68L470.64-60.68Q470.64-67.04 466.05-67.04L466.05-67.04L466.05-67.04Q462.50-67.04 458.80-60.98L458.80-60.98L458.80-60.98Q454.95-54.91 453.77-47.06L453.77-47.06L446.07 0L415.44 2.96L430.53-75.48L454.95-78.44L452.29-63.49L452.29-63.49Q459.54-78.44 475.82-78.44L475.82-78.44L475.82-78.44Q484.40-78.44 489.07-74L489.07-74L489.07-74Q493.73-69.56 493.73-60.46L493.73-60.46L493.73-60.46Q493.73-51.36 487.73-45.58L487.73-45.58L487.73-45.58Q481.74-39.81 471.53-39.81L471.53-39.81L471.53-39.81Q467.09-39.81 465.31-41.59ZM510.30 1.92L513.56-8.88L513.56-8.88Q518.74-6.07 526.44-6.07L526.44-6.07L526.44-6.07Q534.13-6.07 540.57-10.73L540.57-10.73L540.57-10.73Q547.01-15.39 551.60-23.98L551.60-23.98L551.60-23.98Q561.07-42.18 561.07-71.48L561.07-71.48L561.07-71.48Q561.07-90.13 552.63-90.13L552.63-90.13L552.63-90.13Q548.19-90.13 543.90-85.25L543.90-85.25L543.90-85.25Q539.61-80.36 536.20-72.52L536.20-72.52L536.20-72.52Q528.80-54.61 528.80-33.60L528.80-33.60L528.80-33.60Q528.80-29.30 530.88-26.71L530.88-26.71L530.88-26.71Q532.95-24.12 536.65-24.12L536.65-24.12L536.65-24.12Q536.06-19.54 532.06-16.28L532.06-16.28L532.06-16.28Q528.06-13.02 523.03-13.02L523.03-13.02L523.03-13.02Q511.04-13.02 504.90-20.50L504.90-20.50L504.90-20.50Q498.76-27.97 498.76-41.51L498.76-41.51L498.76-41.51Q498.76-55.06 502.90-65.71L502.90-65.71L502.90-65.71Q507.05-76.37 514.30-84.14L514.30-84.14L514.30-84.14Q521.55-91.91 531.54-96.35L531.54-96.35L531.54-96.35Q541.53-100.79 553.37-100.79L553.37-100.79L553.37-100.79Q593.04-100.79 593.04-62.16L593.04-62.16L593.04-62.16Q593.04-34.34 579.72-17.32L579.72-17.32L579.72-17.32Q566.40-0.15 543.31 1.92L543.31 1.92L543.31 1.92Q556.92 4.88 570.69 4.88L570.69 4.88L570.69 4.88Q581.49 4.88 589.48 0.30L589.48 0.30L589.48 0.30Q591.70-1.04 592.59-2.52L592.59-2.52L592.59-2.52Q597.03 1.48 597.03 9.40L597.03 9.40L597.03 9.40Q597.03 17.32 590.00 21.90L590.00 21.90L590.00 21.90Q582.97 26.49 569.28 26.49L569.28 26.49L569.28 26.49Q555.59 26.49 539.76 20.13L539.76 20.13L539.76 20.13Q523.92 13.76 510.30 1.92L510.30 1.92ZM602.95-21.90L602.95-21.90L602.95-21.90Q602.95-27.68 604.43-35.08L604.43-35.08L616.42-97.68L649.13-97.68L637.29-34.63L637.29-34.63Q635.96-27.68 635.96-22.57L635.96-22.57L635.96-22.57Q635.96-17.46 638.10-14.80L638.10-14.80L638.10-14.80Q640.25-12.14 644.24-12.14L644.24-12.14L644.24-12.14Q648.24-12.14 650.76-13.17L650.76-13.17L650.76-13.17Q653.27-14.21 655.34-16.72L655.34-16.72L655.34-16.72Q659.34-21.76 661.86-34.63L661.86-34.63L673.84-97.68L696.19-97.68L684.35-34.78L684.35-34.78Q680.21-13.76 668.81-5.33L668.81-5.33L668.81-5.33Q657.71 2.96 635.81 2.96L635.81 2.96L635.81 2.96Q619.38 2.96 610.65-4.14L610.65-4.14L610.65-4.14Q602.95-10.36 602.95-21.90ZM762.35-22.79L762.35-22.79L762.35-22.79Q765.16-19.24 765.16-13.47L765.16-13.47L765.16-13.47Q765.16-5.48 759.24-1.26L759.24-1.26L759.24-1.26Q753.32 2.96 744.00 2.96L744.00 2.96L744.00 2.96Q738.67 2.96 730.53 1.78L730.53 1.78L730.53 1.78Q714.54-0.74 709.66-0.74L709.66-0.74L709.66-0.74Q704.78-0.74 702.85-0.52L702.85-0.52L702.85-0.52Q700.93-0.30 697.82 0L697.82 0L716.02-97.68L779.81-97.68L779.81-97.68Q779.81-88.65 775.45-83.92L775.45-83.92L775.45-83.92Q771.08-79.18 762.50-79.18L762.50-79.18L762.50-79.18Q753.91-79.18 745.18-83.18L745.18-83.18L740.59-57.28L766.94-57.28L766.94-57.28Q766.94-49.43 763.09-45.07L763.09-45.07L763.09-45.07Q759.24-40.70 752.80-40.70L752.80-40.70L752.80-40.70Q746.36-40.70 742.37-42.18L742.37-42.18L742.37-42.18Q738.37-43.66 737.93-44.10L737.93-44.10L732.60-16.13L732.60-16.13Q736.15-15.69 742.81-15.69L742.81-15.69L742.81-15.69Q754.21-15.69 762.35-22.79ZM836.50-68.38L836.50-68.38L836.50-68.38Q838.72-72.82 838.72-76.96L838.72-76.96L838.72-76.96Q838.72-81.10 838.27-83.40L838.27-83.40L838.27-83.40Q837.83-85.69 836.79-87.47L836.79-87.47L836.79-87.47Q834.57-91.32 830.13-91.32L830.13-91.32L830.13-91.32Q824.66-91.32 820.22-87.32L820.22-87.32L820.22-87.32Q815.48-83.18 815.48-76.66L815.48-76.66L815.48-76.66Q815.48-72.52 818.37-69.34L818.37-69.34L818.37-69.34Q821.25-66.16 825.69-63.20L825.69-63.20L825.69-63.20Q830.13-60.24 835.16-57.28L835.16-57.28L835.16-57.28Q840.20-54.32 844.64-50.76L844.64-50.76L844.64-50.76Q854.85-42.62 854.85-31.67L854.85-31.67L854.85-31.67Q854.85-24.27 850.93-17.98L850.93-17.98L850.93-17.98Q847.00-11.69 840.49-7.10L840.49-7.10L840.49-7.10Q826.28 2.96 807.49 2.96L807.49 2.96L807.49 2.96Q792.24 2.96 784.40-2.00L784.40-2.00L784.40-2.00Q776.56-6.96 776.56-14.50L776.56-14.50L776.56-14.50Q776.56-27.97 787.06-31.38L787.06-31.38L787.06-31.38Q790.02-32.41 794.54-32.41L794.54-32.41L794.54-32.41Q799.05-32.41 804.23-30.49L804.23-30.49L804.23-30.49Q801.86-24.42 801.86-18.94L801.86-18.94L801.86-18.94Q801.86-7.10 810.30-7.10L810.30-7.10L810.30-7.10Q815.78-7.10 820.29-11.10L820.29-11.10L820.29-11.10Q824.80-15.10 824.80-19.61L824.80-19.61L824.80-19.61Q824.80-24.12 821.92-27.38L821.92-27.38L821.92-27.38Q819.03-30.64 814.74-33.23L814.74-33.23L814.74-33.23Q810.45-35.82 805.49-38.33L805.49-38.33L805.49-38.33Q800.53-40.85 796.24-44.40L796.24-44.40L796.24-44.40Q786.18-52.54 786.18-65.56L786.18-65.56L786.18-65.56Q786.18-74 790.32-80.59L790.32-80.59L790.32-80.59Q794.46-87.17 801.12-91.61L801.12-91.61L801.12-91.61Q814.44-100.64 830.80-100.64L830.80-100.64L830.80-100.64Q847.15-100.64 855.07-95.76L855.07-95.76L855.07-95.76Q862.99-90.87 862.99-82.58L862.99-82.58L862.99-82.58Q862.99-75.33 857.36-70.74L857.36-70.74L857.36-70.74Q852.48-66.90 846.56-66.90L846.56-66.90L846.56-66.90Q840.64-66.90 836.50-68.38ZM877.94-72.08L877.94-72.08L877.94-72.08Q872.90-75.92 872.90-84.14L872.90-84.14L872.90-84.14Q872.90-92.35 878.31-96.64L878.31-96.64L878.31-96.64Q883.71-100.94 893.03-100.94L893.03-100.94L893.03-100.94Q898.95-100.94 913.01-98.86L913.01-98.86L923.08-97.38L923.08-97.38Q928.11-96.79 933.36-96.79L933.36-96.79L933.36-96.79Q938.62-96.79 942.17-99.01L942.17-99.01L942.17-99.01Q947.50-94.28 947.50-87.47L947.50-87.47L947.50-87.47Q947.50-80.66 941.43-75.78L941.43-75.78L941.43-75.78Q935.21-70.60 927.22-70.60L927.22-70.60L927.22-70.60Q923.37-70.60 917.16-71.63L917.16-71.63L917.16-71.63Q909.90-48.84 909.90-33.00L909.90-33.00L909.90-33.00Q909.90-17.17 917.90-8.88L917.90-8.88L917.90-8.88Q914.20-2.22 908.72 0.37L908.72 0.37L908.72 0.37Q903.24 2.96 895.03 2.96L895.03 2.96L895.03 2.96Q886.82 2.96 881.71-1.55L881.71-1.55L881.71-1.55Q876.60-6.07 876.60-15.39L876.60-15.39L876.60-15.39Q876.60-26.20 882.52-43.96L882.52-43.96L882.52-43.96Q888.44-61.57 897.32-75.04L897.32-75.04L897.32-75.04Q893.03-75.48 888.59-75.48L888.59-75.48L888.59-75.48Q879.42-75.48 877.94-72.08Z" fill="#ff2525"></path></g></g><style>text {
  font-size: 64px;
  font-family: Arial Black;
  dominant-baseline: central;
  text-anchor: middle;
}</style></svg>