<svg width="99" height="15" viewBox="0 0 99 15" fill="none" xmlns="http://www.w3.org/2000/svg">
<path fill-rule="evenodd" clip-rule="evenodd" d="M46.1805 1.05353C43.9058 1.62668 42.8396 3.41031 43.4861 5.56069C43.7631 6.48211 44.6152 7.41166 45.8201 8.10683C47.9916 9.3596 48.631 9.86695 49.0024 10.6313C49.3122 11.269 49.3391 11.4822 49.1828 12.0602C48.8162 13.417 47.8588 14.1653 46.4891 14.1653C45.0911 14.1653 44.1094 13.3811 43.8903 12.0893C43.8024 11.5699 43.6939 11.404 43.443 11.404C43.1432 11.404 43.1118 11.5414 43.1118 12.8572V14.3101L44.0211 14.619C45.441 15.1012 47.4606 15.0436 48.6657 14.4865C51.0133 13.4011 51.9131 11.2467 50.8594 9.23374C50.4654 8.48077 49.4764 7.64033 47.782 6.61829C46.0013 5.54397 45.2077 4.76252 45.0913 3.9683C44.9125 2.74779 46.0103 1.73766 47.5107 1.74198C48.6858 1.74526 49.1901 2.02347 49.6067 2.89811C49.8675 3.44572 50.0542 3.62673 50.363 3.63156C50.7045 3.63674 50.7555 3.57306 50.6683 3.24947C50.611 3.03599 50.5629 2.50065 50.5617 2.05987C50.5599 1.50019 50.479 1.22784 50.2932 1.15691C49.7871 0.963274 46.8329 0.889064 46.1805 1.05353ZM0.505859 1.5668C0.505859 1.81515 0.621381 1.91196 0.917717 1.91196C1.7539 1.91196 1.79876 2.15325 1.89142 7.15848C1.9723 11.5312 2.00226 11.8804 2.35177 12.5258C2.85248 13.4503 3.53158 14.0655 4.57594 14.541C5.29141 14.8667 5.7431 14.9357 7.17387 14.9387C8.72604 14.9416 9.00887 14.8915 9.89823 14.4563C10.444 14.1893 11.1238 13.6888 11.4088 13.3441C12.3973 12.1494 12.5019 11.5719 12.6139 6.69459C12.7218 1.99793 12.7365 1.92162 13.5388 1.91454C13.7255 1.91299 13.8419 1.77942 13.8419 1.5668C13.8419 1.24079 13.7264 1.22164 11.7635 1.22164C9.82341 1.22164 9.6852 1.24389 9.6852 1.55592C9.6852 1.80616 9.82548 1.90368 10.2441 1.94423C11.1639 2.03311 11.2386 2.3866 11.2414 6.66975C11.2443 11.0121 11.096 11.8475 10.1662 12.7268C9.30157 13.5447 8.61347 13.8202 7.43539 13.8202C5.74328 13.8202 4.54407 13.0325 4.15092 11.6629C4.0186 11.2023 3.96993 9.50835 4.00457 6.57168L4.05636 2.17083L4.66254 1.976C4.99594 1.86882 5.29384 1.65533 5.32466 1.50138C5.3742 1.25407 5.0983 1.22164 2.94323 1.22164C0.62138 1.22164 0.505859 1.23803 0.505859 1.5668ZM16.613 1.5668C16.613 1.83396 16.7285 1.91196 17.1244 1.91196C18.0064 1.91196 18.5031 2.25093 18.7024 2.98872C18.8159 3.40827 18.8647 5.41193 18.8315 8.27559C18.772 13.3887 18.7019 13.7232 17.6444 13.9339C17.2957 14.0034 17.1326 14.1391 17.1326 14.3595C17.1326 14.6605 17.302 14.683 19.5573 14.683C21.773 14.683 21.982 14.6565 21.982 14.3736C21.982 14.1534 21.7602 14.0052 21.2117 13.859C20.5305 13.6774 20.4203 13.5783 20.26 13.0035C20.0544 12.2657 20.0057 4.49278 20.2068 4.51521C20.2781 4.52315 20.95 5.24158 21.6997 6.11157C22.4493 6.98156 24.5003 9.26602 26.2574 11.1882C29.0075 14.1967 29.5219 14.683 29.954 14.683H30.456L30.5057 8.56486C30.5408 4.22079 30.6134 2.38882 30.7556 2.24713C30.8659 2.13737 31.2166 1.99447 31.535 1.92958C31.8729 1.86072 32.114 1.70659 32.114 1.55972C32.114 1.35366 31.6822 1.29929 29.7325 1.25994C27.4396 1.21369 27.3511 1.2249 27.3511 1.56196C27.3511 1.81807 27.4645 1.91196 27.7744 1.91196C28.0073 1.91196 28.4164 2.09922 28.6837 2.32824L29.1696 2.74451L29.2242 6.90166C29.2552 9.24878 29.2119 11.0589 29.1251 11.0589C29.0406 11.0589 28.5118 10.5347 27.95 9.89388C27.3883 9.25308 25.7887 7.48638 24.3953 5.96765C23.002 4.44893 21.4798 2.76607 21.0128 2.22813L20.1635 1.24994L18.3882 1.23579C16.7237 1.2225 16.613 1.24321 16.613 1.5668ZM34.7985 1.5668C34.7985 1.82999 34.914 1.91196 35.285 1.91196C35.5526 1.91196 35.9227 2.02206 36.1077 2.15668C36.4249 2.38777 36.4469 2.68567 36.498 7.46361C36.562 13.4298 36.5095 13.7642 35.4847 13.9275C34.9686 14.0098 34.7985 14.117 34.7985 14.36C34.7985 14.6613 34.9731 14.683 37.3964 14.683C39.8788 14.683 39.9943 14.6677 39.9943 14.3379C39.9943 14.0923 39.8788 13.9927 39.5944 13.9927C39.3745 13.9927 39.0433 13.8826 38.8583 13.748C38.5398 13.5161 38.5196 13.2177 38.4719 8.05971C38.4231 2.77593 38.4319 2.60593 38.775 2.26405C38.9694 2.07041 39.3232 1.91196 39.5613 1.91196C39.8788 1.91196 39.9943 1.81998 39.9943 1.5668C39.9943 1.237 39.8788 1.22164 37.3964 1.22164C34.914 1.22164 34.7985 1.237 34.7985 1.5668ZM52.9337 1.5668C52.9898 1.78063 53.17 1.91196 53.4069 1.91196C53.6173 1.91196 53.9599 2.09266 54.1683 2.31374C54.3799 2.5381 55.564 5.37518 56.8516 8.74243L59.1563 14.7693L59.7606 14.821L60.3648 14.8726L61.9839 10.5927C62.8744 8.23885 63.6964 6.12659 63.8107 5.89878C64.0066 5.50874 64.0503 5.56814 64.5707 6.9343C64.8743 7.73163 65.6828 9.84007 66.3671 11.6197L67.6111 14.8556H68.1593C68.461 14.8556 68.7473 14.7525 68.796 14.6263C68.8445 14.5003 69.6403 12.4616 70.5643 10.096C71.4885 7.73056 72.512 5.10991 72.839 4.27254C73.5838 2.36568 73.7329 2.13028 74.3266 1.92404C74.5906 1.8324 74.8065 1.63688 74.8065 1.4895C74.8065 1.26238 74.4911 1.22164 72.7282 1.22164C70.7654 1.22164 70.6498 1.24079 70.6498 1.5668C70.6498 1.81687 70.7654 1.91196 71.0686 1.91196C71.7418 1.91196 72.0354 2.09421 72.0354 2.51238C72.0354 2.86134 68.7366 11.8149 68.5332 12.0173C68.4084 12.1418 65.4296 3.82454 65.3219 3.05068C65.2172 2.29891 65.5383 1.91196 66.2665 1.91196C66.5508 1.91196 66.6664 1.81238 66.6664 1.5668C66.6664 1.23648 66.5508 1.22164 63.9818 1.22164C61.4128 1.22164 61.2973 1.23648 61.2973 1.5668C61.2973 1.76354 61.4128 1.91196 61.5658 1.91196C62.1065 1.91196 62.8232 2.43247 63.0074 2.95919C63.2719 3.71493 63.0696 4.48117 61.5124 8.62487L60.1896 12.1451L59.9047 11.4725C59.7479 11.1026 58.9323 8.92018 58.0925 6.62276C56.4423 2.10939 56.4179 1.91196 57.5082 1.91196C57.8911 1.91196 58.0066 1.83206 58.0066 1.5668C58.0066 1.237 57.8911 1.22164 55.425 1.22164C52.9285 1.22164 52.8463 1.23303 52.9337 1.5668ZM88.0085 1.68594C88.0085 1.68594 88.0083 1.92155 88.0373 1.98711C88.0663 2.05266 88.2526 2.07729 88.2526 2.07729C88.3682 2.10831 88.4782 2.13555 88.5821 2.16127C89.1055 2.29089 89.4732 2.38194 89.6201 2.72558C89.7194 2.95772 89.7256 3.7649 89.7268 8.09212C89.7281 12.655 89.7272 13.2142 89.6051 13.5157C89.4537 13.8896 89.1639 14.0881 88.4953 14.2759C88.4953 14.2759 88.1995 14.3582 88.1199 14.4318C88.0403 14.5053 88.0253 14.6697 88.0253 14.6697C88.0253 14.6697 88.019 14.8223 88.0872 14.8955C88.1554 14.9687 88.3373 14.9338 88.3373 14.9338L90.0705 14.9384L92.9452 14.9616C92.9452 14.9616 93.0627 14.9772 93.1236 14.8994C93.1845 14.8217 93.169 14.6693 93.169 14.6693C93.169 14.6693 93.169 14.5063 93.0932 14.4329C93.0175 14.3595 92.7238 14.2906 92.7238 14.2906C92.0746 14.1308 91.7415 13.9226 91.5942 13.5845C91.4847 13.3333 91.473 12.6549 91.4565 11.2421V9.17076C91.5291 9.21169 91.5954 9.2581 91.6655 9.30713C91.9968 9.53899 92.4118 9.82933 93.9618 9.87419C95.8397 9.92854 96.9693 9.09296 97.6412 8.12247C98.313 7.15197 98.5736 5.62726 98.0807 4.00303C97.5878 2.37879 96.1415 1.39587 94.1082 1.29426C93.0483 1.2413 91.5063 1.2936 90.6445 1.3327L90.4031 1.34353C89.6201 1.37769 88.6818 1.45255 88.2143 1.49702L88.2129 1.49715C88.0857 1.50925 88.0731 1.51045 88.0375 1.55563C88.0018 1.60097 88.0085 1.68594 88.0085 1.68594ZM95.6397 8.04849C96.3951 7.33839 96.4076 6.2276 96.4076 5.51799C96.3335 4.40532 95.8851 2.26549 93.3455 2.26549C92.7518 2.23499 91.5369 2.33746 91.5033 3.16111C91.4665 3.3066 91.4501 4.32437 91.4595 5.88635L91.4745 8.37934L91.733 8.51549L91.7469 8.52286C91.8872 8.59691 92.0692 8.69303 92.3874 8.75533C93.397 8.95305 94.8843 8.7586 95.6397 8.04849ZM79.7498 1.43933C79.9379 1.36806 80.0619 1.32045 80.0619 1.32045C80.0619 1.32045 80.343 1.20491 80.4338 1.32045C80.4618 1.35604 80.5637 1.61912 80.8164 2.27119C80.8659 2.39911 80.9213 2.542 80.9831 2.70108C81.3596 3.67107 81.9005 5.06338 82.1852 5.79513C82.4698 6.52687 83.0327 7.97488 83.4362 9.01294C83.8396 10.051 84.3575 11.3827 84.5869 11.9722C84.8165 12.5618 85.1097 13.1748 85.1917 13.2866C85.232 13.3415 85.2732 13.4098 85.3183 13.4846C85.4955 13.7782 85.7332 14.1722 86.2107 14.2493C86.2107 14.2493 86.5845 14.3111 86.6399 14.3697C86.6952 14.4283 86.7078 14.5348 86.7078 14.5348V14.7348C86.7078 14.7348 86.7014 14.7859 86.6707 14.8294C86.6399 14.8728 86.5269 14.8607 86.5269 14.8607L83.6446 14.8609L81.5941 14.8757C81.5941 14.8757 81.5225 14.8844 81.4803 14.8495C81.438 14.8146 81.4161 14.7263 81.4161 14.7263V14.5756C81.4161 14.5756 81.3984 14.4624 81.4803 14.3638C81.5622 14.2653 81.8915 14.2539 81.8915 14.2539C82.5122 14.2 82.7586 13.6712 82.8854 13.399C82.8949 13.3787 82.9037 13.3598 82.9119 13.3426C83.0471 13.0612 82.9983 12.8779 82.3876 11.3736C81.9846 10.3808 81.8473 10.102 81.7493 10.0772C81.6806 10.0598 80.6079 10.0534 79.3654 10.0629L77.1066 10.0801L76.9715 10.4514C76.5809 11.5253 76.234 12.5922 76.1817 12.8807C76.0752 13.4676 76.2237 14.1203 77.0868 14.2338C77.0868 14.2338 77.4068 14.2779 77.4922 14.3423C77.5775 14.4067 77.6075 14.5717 77.6075 14.5717V14.7238C77.6075 14.7238 77.5912 14.7962 77.5324 14.8449C77.4737 14.8937 77.3212 14.8759 77.3212 14.8759H75.1653L73.0795 14.8996C73.0795 14.8996 72.9904 14.8976 72.9246 14.8627C72.8588 14.8278 72.8483 14.7577 72.8483 14.7577V14.6132C72.8483 14.6132 72.837 14.5194 72.9531 14.4047C73.0693 14.2899 73.3828 14.2592 73.3828 14.2592C73.953 14.1674 74.2759 13.5605 74.4618 13.2113C74.4755 13.1855 74.4885 13.1611 74.5007 13.1385C74.5744 13.0025 74.9066 12.2089 75.239 11.375C75.5714 10.5412 75.9445 9.60833 76.068 9.30202C76.4881 8.26049 76.8874 7.26266 77.4918 5.74385C77.8236 4.91 78.3148 3.67918 78.5834 3.0087L79.0717 1.7896L79.7498 1.43933ZM79.5719 4.40264C79.6765 4.66631 79.8367 5.0631 79.9277 5.28433C80.0188 5.50555 80.2737 6.1321 80.4941 6.67665C80.7145 7.22121 80.9853 7.88389 81.0959 8.1493C81.2065 8.41477 81.2971 8.64447 81.2971 8.65982C81.2971 8.67523 80.4669 8.6878 79.4523 8.6878C78.2875 8.6878 77.6075 8.66544 77.6075 8.62714C77.6075 8.59379 77.6465 8.46156 77.6942 8.33322C77.77 8.12913 78.1486 7.04578 78.9846 4.6399C79.1136 4.26842 79.2334 3.94076 79.2506 3.9118C79.3094 3.81273 79.3817 3.92312 79.5719 4.40264Z" fill="black"/>
</svg>
