<svg width="88" height="16" viewBox="0 0 88 16" fill="none" xmlns="http://www.w3.org/2000/svg">
<path d="M7.85248 0.154139H9.51056V12H7.85248V6.53005H2.05775V12H0.399676V0.154139H2.05775V5.09419H7.85248V0.154139ZM20.1954 7.55567C20.1954 8.2622 20.0928 8.90036 19.8877 9.47015C19.6826 10.0399 19.392 10.53 19.0159 10.9402C18.6513 11.3504 18.2125 11.6695 17.6997 11.8974C17.1869 12.114 16.6285 12.2222 16.0246 12.2222C15.4206 12.2222 14.8622 12.114 14.3494 11.8974C13.8366 11.6695 13.3921 11.3504 13.0161 10.9402C12.6514 10.53 12.3665 10.0399 12.1614 9.47015C11.9563 8.90036 11.8537 8.2622 11.8537 7.55567C11.8537 6.86053 11.9563 6.22806 12.1614 5.65828C12.3665 5.07709 12.6514 4.58138 13.0161 4.17113C13.3921 3.76089 13.8366 3.44751 14.3494 3.23099C14.8622 3.00307 15.4206 2.88911 16.0246 2.88911C16.6285 2.88911 17.1869 3.00307 17.6997 3.23099C18.2125 3.44751 18.6513 3.76089 19.0159 4.17113C19.392 4.58138 19.6826 5.07709 19.8877 5.65828C20.0928 6.22806 20.1954 6.86053 20.1954 7.55567ZM18.5373 7.55567C18.5373 6.55284 18.3094 5.76084 17.8536 5.17966C17.4091 4.58708 16.7995 4.29079 16.0246 4.29079C15.2496 4.29079 14.6343 4.58708 14.1784 5.17966C13.734 5.76084 13.5118 6.55284 13.5118 7.55567C13.5118 8.55849 13.734 9.35619 14.1784 9.94877C14.6343 10.53 15.2496 10.8205 16.0246 10.8205C16.7995 10.8205 17.4091 10.53 17.8536 9.94877C18.3094 9.35619 18.5373 8.55849 18.5373 7.55567ZM22.432 3.36774C22.7966 3.27657 23.281 3.17971 23.8849 3.07714C24.4889 2.97458 25.1841 2.9233 25.9704 2.9233C26.6769 2.9233 27.2638 3.02586 27.731 3.23099C28.1982 3.42471 28.5686 3.70391 28.8421 4.06857C29.127 4.42184 29.3264 4.84918 29.4404 5.35059C29.5543 5.852 29.6113 6.4047 29.6113 7.00867V12H28.0216V7.35054C28.0216 6.80355 27.9817 6.33632 27.9019 5.94887C27.8336 5.56141 27.7139 5.24803 27.543 5.00872C27.372 4.76941 27.1441 4.59847 26.8592 4.49591C26.5743 4.38195 26.2211 4.32498 25.7994 4.32498C25.6285 4.32498 25.4519 4.33067 25.2695 4.34207C25.0872 4.35347 24.9106 4.37056 24.7396 4.39335C24.5801 4.40475 24.4319 4.42184 24.2952 4.44463C24.1698 4.46742 24.0787 4.48452 24.0217 4.49591V12H22.432V3.36774ZM31.7517 7.57276C31.7517 6.78645 31.8657 6.10271 32.0936 5.52153C32.3215 4.92895 32.6235 4.43893 32.9996 4.05148C33.3756 3.66402 33.8087 3.37343 34.2987 3.17971C34.7887 2.98598 35.2901 2.88911 35.8029 2.88911C36.9995 2.88911 37.9168 3.26517 38.555 4.01729C39.1931 4.75801 39.5122 5.89189 39.5122 7.41892C39.5122 7.48729 39.5122 7.57846 39.5122 7.69241C39.5122 7.79498 39.5065 7.89184 39.4951 7.98301H33.4098C33.4782 8.90606 33.746 9.6069 34.2132 10.0855C34.6804 10.5641 35.4098 10.8034 36.4012 10.8034C36.9596 10.8034 37.4268 10.7579 37.8029 10.6667C38.1903 10.5641 38.4809 10.4673 38.6746 10.3761L38.8969 11.7094C38.7031 11.812 38.3613 11.9202 37.8712 12.0342C37.3926 12.1481 36.8456 12.2051 36.2303 12.2051C35.4553 12.2051 34.783 12.0912 34.2132 11.8633C33.6548 11.6239 33.1933 11.2992 32.8286 10.8889C32.464 10.4787 32.1905 9.99435 32.0081 9.43596C31.8372 8.86617 31.7517 8.24511 31.7517 7.57276ZM37.8541 6.70099C37.8655 5.98305 37.6832 5.39617 37.3071 4.94035C36.9425 4.47312 36.4354 4.23951 35.7858 4.23951C35.4212 4.23951 35.0964 4.31358 34.8115 4.46172C34.538 4.59847 34.3044 4.78081 34.1106 5.00872C33.9169 5.23663 33.7631 5.49874 33.6491 5.79503C33.5466 6.09131 33.4782 6.3933 33.444 6.70099H37.8541ZM40.7531 13.6581C40.8785 13.7151 41.038 13.7663 41.2317 13.8119C41.4369 13.8689 41.6363 13.8974 41.83 13.8974C42.4568 13.8974 42.9468 13.7549 43.3001 13.47C43.6533 13.1966 43.9724 12.7464 44.2573 12.1197C43.5394 10.7522 42.867 9.30491 42.2403 7.77788C41.6249 6.23946 41.1121 4.68394 40.7018 3.11133H42.4112C42.5365 3.62414 42.6847 4.17683 42.8556 4.76941C43.038 5.36199 43.2374 5.97166 43.4539 6.59842C43.6704 7.22519 43.904 7.85195 44.1547 8.47872C44.4054 9.10548 44.6675 9.70946 44.941 10.2906C45.3741 9.09409 45.7501 7.90893 46.0692 6.73517C46.3883 5.56141 46.6903 4.35347 46.9752 3.11133H48.6162C48.2059 4.7865 47.7501 6.399 47.2487 7.94882C46.7473 9.48724 46.206 10.9288 45.6248 12.2735C45.3969 12.7863 45.1576 13.225 44.9069 13.5897C44.6675 13.9658 44.3997 14.2734 44.1035 14.5128C43.8072 14.7521 43.471 14.9287 43.0949 15.0427C42.7303 15.1566 42.3143 15.2136 41.8471 15.2136C41.7217 15.2136 41.5907 15.2022 41.4539 15.1794C41.3172 15.168 41.1804 15.1452 41.0437 15.111C40.9183 15.0882 40.7987 15.0598 40.6847 15.0256C40.5822 14.9914 40.5081 14.9629 40.4625 14.9401L40.7531 13.6581ZM52.3609 10.8547C53.0104 10.8547 53.489 10.7693 53.7967 10.5983C54.1158 10.4274 54.2753 10.1539 54.2753 9.77783C54.2753 9.39038 54.1215 9.08269 53.8138 8.85478C53.5061 8.62686 52.999 8.37046 52.2925 8.08557C51.9506 7.94882 51.6201 7.81207 51.3011 7.67532C50.9934 7.52718 50.7256 7.35624 50.4977 7.16251C50.2697 6.96879 50.0874 6.73517 49.9507 6.46168C49.8139 6.18818 49.7455 5.852 49.7455 5.45315C49.7455 4.66685 50.0361 4.04578 50.6173 3.58995C51.1985 3.12273 51.9905 2.88911 52.9933 2.88911C53.244 2.88911 53.4947 2.90621 53.7454 2.94039C53.9961 2.96319 54.2298 2.99737 54.4463 3.04296C54.6628 3.07714 54.8508 3.11703 55.0104 3.16261C55.1813 3.20819 55.3124 3.24808 55.4035 3.28227L55.1129 4.64975C54.942 4.55859 54.6742 4.46742 54.3095 4.37626C53.9449 4.2737 53.5061 4.22241 52.9933 4.22241C52.5489 4.22241 52.1614 4.31358 51.831 4.49591C51.5005 4.66685 51.3352 4.94035 51.3352 5.3164C51.3352 5.51013 51.3694 5.68107 51.4378 5.82921C51.5176 5.97736 51.6315 6.11411 51.7797 6.23946C51.9392 6.35342 52.1329 6.46168 52.3609 6.56424C52.5888 6.6668 52.8623 6.77506 53.1814 6.88902C53.603 7.04856 53.9791 7.2081 54.3095 7.36764C54.64 7.51578 54.9192 7.69241 55.1471 7.89754C55.3864 8.10266 55.5688 8.35337 55.6941 8.64966C55.8195 8.93455 55.8821 9.28782 55.8821 9.70946C55.8821 10.53 55.5745 11.151 54.9591 11.5727C54.3551 11.9943 53.489 12.2051 52.3609 12.2051C51.5746 12.2051 50.9592 12.1367 50.5148 12C50.0703 11.8746 49.7683 11.7778 49.6088 11.7094L49.8994 10.3419C50.0817 10.4103 50.3723 10.5129 50.7712 10.6496C51.17 10.7864 51.6999 10.8547 52.3609 10.8547ZM65.186 12C64.8669 11.1795 64.525 10.2451 64.1604 9.19665C63.8071 8.13685 63.4823 7.03716 63.186 5.89759C62.8898 7.03716 62.565 8.13685 62.2117 9.19665C61.8584 10.2451 61.5223 11.1795 61.2032 12H59.8186C59.2944 10.8262 58.7816 9.48724 58.2802 7.98301C57.7788 6.47877 57.3059 4.85488 56.8614 3.11133H58.5708C58.6847 3.64693 58.8215 4.22811 58.981 4.85488C59.1406 5.48164 59.3058 6.10841 59.4767 6.73517C59.6591 7.36194 59.8471 7.96591 60.0408 8.54709C60.2346 9.12828 60.4169 9.63539 60.5878 10.0684C60.7815 9.53282 60.9696 8.96874 61.1519 8.37616C61.3456 7.77218 61.528 7.16821 61.6989 6.56424C61.8698 5.94887 62.0294 5.35059 62.1775 4.76941C62.3371 4.17683 62.4738 3.62414 62.5878 3.11133H63.904C64.0065 3.62414 64.1319 4.17683 64.28 4.76941C64.4282 5.35059 64.5877 5.94887 64.7587 6.56424C64.9296 7.16821 65.1062 7.77218 65.2886 8.37616C65.4823 8.96874 65.676 9.53282 65.8697 10.0684C66.0407 9.63539 66.2173 9.12828 66.3996 8.54709C66.5934 7.96591 66.7814 7.36194 66.9637 6.73517C67.1461 6.10841 67.317 5.48164 67.4765 4.85488C67.6361 4.22811 67.7728 3.64693 67.8868 3.11133H69.5278C69.0833 4.85488 68.6104 6.47877 68.109 7.98301C67.6076 9.48724 67.0948 10.8262 66.5706 12H65.186ZM74.2173 10.8547C74.5934 10.8547 74.9238 10.849 75.2087 10.8376C75.505 10.8148 75.75 10.7807 75.9437 10.7351V8.08557C75.8298 8.02859 75.6418 7.98301 75.3797 7.94882C75.1289 7.90324 74.8213 7.88044 74.4566 7.88044C74.2173 7.88044 73.9609 7.89754 73.6874 7.93172C73.4253 7.96591 73.1803 8.03998 72.9524 8.15394C72.7358 8.2565 72.5535 8.40465 72.4054 8.59837C72.2572 8.78071 72.1832 9.02571 72.1832 9.3334C72.1832 9.90319 72.3655 10.302 72.7301 10.53C73.0948 10.7465 73.5905 10.8547 74.2173 10.8547ZM74.0805 2.88911C74.7187 2.88911 75.2543 2.97458 75.6873 3.14552C76.1318 3.30506 76.485 3.53867 76.7471 3.84636C77.0206 4.14264 77.2144 4.50161 77.3283 4.92325C77.4423 5.3335 77.4993 5.78933 77.4993 6.29074V11.8462C77.3625 11.8689 77.1688 11.9031 76.9181 11.9487C76.6788 11.9829 76.4053 12.0171 76.0976 12.0513C75.7899 12.0855 75.4537 12.114 75.0891 12.1367C74.7358 12.1709 74.3825 12.188 74.0293 12.188C73.5278 12.188 73.0663 12.1367 72.6447 12.0342C72.223 11.9316 71.8584 11.7721 71.5507 11.5556C71.243 11.3277 71.0037 11.0314 70.8328 10.6667C70.6618 10.302 70.5764 9.8633 70.5764 9.35049C70.5764 8.86048 70.6732 8.43883 70.8669 8.08557C71.0721 7.7323 71.3456 7.44741 71.6874 7.23089C72.0293 7.01437 72.4282 6.85483 72.884 6.75227C73.3398 6.6497 73.8184 6.59842 74.3199 6.59842C74.4794 6.59842 74.6446 6.60982 74.8156 6.63261C74.9865 6.64401 75.146 6.6668 75.2942 6.70099C75.4537 6.72378 75.5905 6.74657 75.7044 6.76936C75.8184 6.79215 75.8982 6.80925 75.9437 6.82064V6.37621C75.9437 6.11411 75.9153 5.8577 75.8583 5.607C75.8013 5.34489 75.6987 5.11698 75.5506 4.92325C75.4024 4.71813 75.1973 4.55859 74.9352 4.44463C74.6845 4.31928 74.354 4.2566 73.9438 4.2566C73.4196 4.2566 72.9581 4.29649 72.5592 4.37626C72.1718 4.44463 71.8812 4.5187 71.6874 4.59847L71.4994 3.28227C71.7045 3.1911 72.0464 3.10563 72.525 3.02586C73.0036 2.9347 73.5222 2.88911 74.0805 2.88911ZM86.3103 7.57276C86.3103 6.53575 86.0539 5.73805 85.5411 5.17966C85.0283 4.62127 84.3446 4.34207 83.4899 4.34207C83.0113 4.34207 82.6352 4.35916 82.3617 4.39335C82.0996 4.42754 81.8888 4.46742 81.7293 4.51301V10.1197C81.923 10.2792 82.2022 10.4331 82.5668 10.5812C82.9315 10.7294 83.3304 10.8034 83.7634 10.8034C84.2192 10.8034 84.6067 10.7237 84.9258 10.5641C85.2562 10.3932 85.524 10.1653 85.7292 9.88039C85.9343 9.58411 86.0824 9.24223 86.1736 8.85478C86.2648 8.45593 86.3103 8.02859 86.3103 7.57276ZM87.9684 7.57276C87.9684 8.24511 87.8773 8.86617 87.6949 9.43596C87.524 10.0057 87.2676 10.4958 86.9257 10.906C86.5838 11.3163 86.1622 11.6353 85.6608 11.8633C85.1708 12.0912 84.6067 12.2051 83.9685 12.2051C83.4557 12.2051 82.9999 12.1367 82.601 12C82.2136 11.8633 81.923 11.7322 81.7293 11.6068V15.1623H80.1396V3.38483C80.5156 3.29366 80.9828 3.1968 81.5412 3.09424C82.111 2.98028 82.7663 2.9233 83.507 2.9233C84.1907 2.9233 84.8061 3.03156 85.3531 3.24808C85.9001 3.4646 86.3673 3.77228 86.7548 4.17113C87.1422 4.56998 87.4385 5.06 87.6436 5.64118C87.8602 6.21097 87.9684 6.85483 87.9684 7.57276Z" fill="white"/>
</svg>
