<svg width="78" height="12" viewBox="0 0 78 12" fill="none" xmlns="http://www.w3.org/2000/svg">
<path fill-rule="evenodd" clip-rule="evenodd" d="M36.3965 1.03412C34.6091 1.48449 33.7713 2.88605 34.2793 4.5758C34.4969 5.29984 35.1665 6.03027 36.1133 6.57652C37.8197 7.56094 38.3221 7.95961 38.6139 8.56025C38.8574 9.06134 38.8785 9.22884 38.7557 9.68301C38.4676 10.7492 37.7153 11.3372 36.6391 11.3372C35.5405 11.3372 34.7691 10.721 34.597 9.70595C34.5278 9.29775 34.4426 9.1674 34.2454 9.1674C34.0098 9.1674 33.9852 9.27538 33.9852 10.3093V11.451L34.6997 11.6937C35.8154 12.0726 37.4024 12.0273 38.3494 11.5896C40.1941 10.7367 40.9011 9.04384 40.0731 7.46204C39.7635 6.87036 38.9864 6.20995 37.655 5.40685C36.2557 4.56266 35.6321 3.9486 35.5406 3.32451C35.4002 2.36545 36.2628 1.5717 37.4417 1.57509C38.3652 1.57767 38.7615 1.79628 39.0888 2.48357C39.2937 2.91387 39.4404 3.05611 39.6831 3.0599C39.9515 3.06397 39.9915 3.01394 39.923 2.75966C39.878 2.59191 39.8401 2.17125 39.8392 1.82489C39.8378 1.38509 39.7743 1.17109 39.6282 1.11535C39.2306 0.963192 36.9092 0.904878 36.3965 1.03412ZM0.505859 1.43744C0.505859 1.63258 0.596635 1.70866 0.829493 1.70866C1.48656 1.70866 1.52181 1.89826 1.59462 5.83132C1.65818 9.26736 1.68172 9.54172 1.95636 10.0489C2.34981 10.7754 2.88344 11.2588 3.70409 11.6324C4.2663 11.8883 4.62123 11.9426 5.74551 11.9449C6.96519 11.9472 7.18744 11.9079 7.88629 11.5659C8.31512 11.3561 8.84929 10.9628 9.07331 10.692C9.85 9.7531 9.9322 9.29938 10.0203 5.4668C10.105 1.77622 10.1166 1.71625 10.747 1.71069C10.8937 1.70947 10.9852 1.60451 10.9852 1.43744C10.9852 1.18126 10.8944 1.16621 9.35203 1.16621C7.82749 1.16621 7.71889 1.1837 7.71889 1.42889C7.71889 1.62553 7.82913 1.70215 8.15807 1.73402C8.88087 1.80386 8.93952 2.08162 8.9417 5.44728C8.94402 8.85945 8.82752 9.51593 8.09683 10.2069C7.41744 10.8496 6.87673 11.066 5.95102 11.066C4.62137 11.066 3.67905 10.4471 3.37011 9.37084C3.26614 9.00888 3.22789 7.67782 3.25511 5.37022L3.2958 1.91208L3.77214 1.75898C4.03412 1.67476 4.2682 1.507 4.29243 1.38603C4.33135 1.1917 4.11455 1.16621 2.42112 1.16621C0.596634 1.16621 0.505859 1.17909 0.505859 1.43744ZM13.1627 1.43744C13.1627 1.64737 13.2535 1.70866 13.5646 1.70866C14.2576 1.70866 14.6479 1.97502 14.8045 2.55477C14.8937 2.88444 14.9321 4.4589 14.9059 6.70913C14.8592 10.727 14.8041 10.9898 13.9731 11.1554C13.6992 11.21 13.571 11.3166 13.571 11.4898C13.571 11.7263 13.7041 11.744 15.4763 11.744C17.2174 11.744 17.3816 11.7232 17.3816 11.5009C17.3816 11.3279 17.2073 11.2114 16.7763 11.0965C16.241 10.9538 16.1545 10.876 16.0284 10.4243C15.8669 9.84451 15.8286 3.73664 15.9867 3.75427C16.0427 3.76051 16.5706 4.32504 17.1598 5.00867C17.7488 5.6923 19.3604 7.4874 20.7411 8.99787C22.9022 11.3619 23.3064 11.744 23.6459 11.744H24.0403L24.0794 6.93644C24.107 3.52292 24.1641 2.08337 24.2758 1.97203C24.3625 1.88578 24.6381 1.77349 24.8882 1.7225C25.1537 1.66839 25.3432 1.54728 25.3432 1.43188C25.3432 1.26995 25.0039 1.22723 23.4719 1.19631C21.6701 1.15997 21.6006 1.16878 21.6006 1.43363C21.6006 1.63488 21.6897 1.70866 21.9332 1.70866C22.1162 1.70866 22.4377 1.85581 22.6477 2.03577L23.0296 2.36287L23.0724 5.62951C23.0968 7.47386 23.0628 8.8962 22.9946 8.8962C22.9282 8.8962 22.5127 8.4843 22.0712 7.98077C21.6298 7.47724 20.3729 6.08898 19.278 4.89558C18.1831 3.70218 16.9869 2.37981 16.62 1.9571L15.9526 1.18845L14.5577 1.17733C13.2496 1.16689 13.1627 1.18316 13.1627 1.43744ZM27.4526 1.43744C27.4526 1.64425 27.5434 1.70866 27.8349 1.70866C28.0452 1.70866 28.336 1.79518 28.4814 1.90096C28.7307 2.08254 28.748 2.31663 28.7882 6.07109C28.8384 10.7592 28.7971 11.022 27.9919 11.1503C27.5863 11.215 27.4526 11.2992 27.4526 11.4902C27.4526 11.727 27.5898 11.744 29.4941 11.744C31.4447 11.744 31.5355 11.732 31.5355 11.4728C31.5355 11.2799 31.4447 11.2016 31.2213 11.2016C31.0484 11.2016 30.7882 11.1151 30.6429 11.0093C30.3926 10.8271 30.3766 10.5926 30.3392 6.5395C30.3008 2.38756 30.3078 2.25398 30.5774 1.98533C30.7301 1.83317 31.0081 1.70866 31.1953 1.70866C31.4447 1.70866 31.5355 1.63638 31.5355 1.43744C31.5355 1.17828 31.4447 1.16621 29.4941 1.16621C27.5434 1.16621 27.4526 1.17828 27.4526 1.43744ZM41.7031 1.43744C41.7472 1.60546 41.8888 1.70866 42.075 1.70866C42.2403 1.70866 42.5095 1.85065 42.6732 2.02437C42.8395 2.20067 43.77 4.43002 44.7817 7.07597L46.5928 11.8119L47.0676 11.8524L47.5424 11.893L48.8147 8.5299C49.5145 6.68027 50.1604 5.02047 50.2502 4.84146C50.4041 4.53498 50.4384 4.58165 50.8474 5.65517C51.0859 6.2817 51.7212 7.93848 52.2589 9.33693L53.2365 11.8797H53.6672C53.9043 11.8797 54.1293 11.7986 54.1675 11.6995C54.2056 11.6005 54.831 9.99843 55.5571 8.13958C56.2833 6.28086 57.0876 4.22158 57.3445 3.56358C57.9297 2.06519 58.0469 1.88021 58.5135 1.71815C58.7209 1.64614 58.8906 1.49251 58.8906 1.37669C58.8906 1.19822 58.6427 1.16621 57.2574 1.16621C55.7151 1.16621 55.6243 1.18126 55.6243 1.43744C55.6243 1.63394 55.7151 1.70866 55.9534 1.70866C56.4824 1.70866 56.7131 1.85187 56.7131 2.18046C56.7131 2.45467 54.1209 9.49028 53.9611 9.64935C53.863 9.74713 51.5223 3.21154 51.4376 2.60345C51.3554 2.01272 51.6077 1.70866 52.1799 1.70866C52.4033 1.70866 52.4941 1.63041 52.4941 1.43744C52.4941 1.17787 52.4033 1.16621 50.3846 1.16621C48.3659 1.16621 48.2752 1.17787 48.2752 1.43744C48.2752 1.59204 48.3659 1.70866 48.4861 1.70866C48.911 1.70866 49.4742 2.11767 49.619 2.53156C49.8268 3.12541 49.6678 3.72752 48.4442 6.9836L47.4047 9.74974L47.1808 9.22122C47.0577 8.9306 46.4168 7.21564 45.7569 5.41036C44.4602 1.86379 44.441 1.70866 45.2977 1.70866C45.5986 1.70866 45.6894 1.64587 45.6894 1.43744C45.6894 1.17828 45.5986 1.16621 43.6607 1.16621C41.6991 1.16621 41.6344 1.17516 41.7031 1.43744ZM69.2643 1.53106C69.2643 1.53106 69.2642 1.7162 69.287 1.76771C69.3098 1.81923 69.4562 1.83858 69.4562 1.83858C69.547 1.86294 69.6333 1.88433 69.7149 1.90453L69.715 1.90457C70.1264 2.00642 70.4153 2.07797 70.5307 2.348C70.6087 2.53041 70.6136 3.16468 70.6145 6.56497C70.6155 10.1505 70.6149 10.5898 70.519 10.8267C70.3999 11.1206 70.1722 11.2766 69.6469 11.4241C69.6469 11.4241 69.4145 11.4888 69.3519 11.5466C69.2893 11.6044 69.2775 11.7335 69.2775 11.7335C69.2775 11.7335 69.2726 11.8534 69.3262 11.911C69.3797 11.9685 69.5227 11.9411 69.5227 11.9411L70.8847 11.9447L73.1436 11.963C73.1436 11.963 73.2359 11.9752 73.2837 11.9141C73.3316 11.853 73.3194 11.7332 73.3194 11.7332C73.3194 11.7332 73.3194 11.6052 73.2599 11.5475C73.2004 11.4898 72.9696 11.4357 72.9696 11.4357C72.4595 11.3101 72.1977 11.1465 72.0819 10.8809C71.9959 10.6834 71.9867 10.1504 71.9738 9.04021V7.41256C72.0308 7.44472 72.0829 7.48119 72.138 7.51971C72.3983 7.70191 72.7244 7.93005 73.9424 7.9653C75.418 8.00801 76.3057 7.35142 76.8336 6.58882C77.3615 5.82621 77.5663 4.62811 77.179 3.3518C76.7917 2.07549 75.6552 1.30313 74.0574 1.22328C73.2246 1.18167 72.0128 1.22276 71.3357 1.25349L71.146 1.262C70.5307 1.28884 69.7934 1.34767 69.426 1.38261L69.425 1.38271C69.325 1.39222 69.3151 1.39316 69.2871 1.42867C69.2591 1.46429 69.2643 1.53106 69.2643 1.53106ZM75.2609 6.53069C75.8545 5.9727 75.8643 5.09985 75.8643 4.54224C75.806 3.66792 75.4537 1.98647 73.4581 1.98647C72.9915 1.9625 72.0369 2.04301 72.0106 2.69023C71.9816 2.80455 71.9687 3.60431 71.9761 4.8317L71.9879 6.79067L72.191 6.89765L72.202 6.90344C72.3122 6.96163 72.4552 7.03716 72.7052 7.08612C73.4986 7.24148 74.6673 7.08869 75.2609 6.53069ZM62.7751 1.33727C62.9229 1.28126 63.0203 1.24385 63.0203 1.24385C63.0203 1.24385 63.2412 1.15306 63.3126 1.24385C63.3345 1.27181 63.4146 1.47841 63.613 1.99046C63.652 2.0911 63.6956 2.20354 63.7442 2.32873C64.04 3.09094 64.4651 4.18501 64.6887 4.76001L65.6718 7.28853C65.9888 8.10422 66.3957 9.15065 66.5761 9.6139C66.7564 10.0772 66.9868 10.5589 67.0513 10.6468C67.0829 10.6899 67.1153 10.7435 67.1508 10.8023C67.29 11.033 67.4768 11.3427 67.852 11.4032C67.852 11.4032 68.1457 11.4518 68.1892 11.4978C68.2327 11.5439 68.2426 11.6275 68.2426 11.6275V11.7847C68.2426 11.7847 68.2376 11.8249 68.2134 11.859C68.1893 11.8931 68.1004 11.8837 68.1004 11.8837L65.8356 11.8838L64.2243 11.8954C64.2243 11.8954 64.1681 11.9023 64.1349 11.8748C64.1016 11.8474 64.0844 11.778 64.0844 11.778V11.6596C64.0844 11.6596 64.0705 11.5706 64.1349 11.4932C64.1992 11.4158 64.458 11.4068 64.458 11.4068C64.9457 11.3645 65.1394 10.949 65.239 10.735C65.2465 10.7191 65.2534 10.7042 65.2599 10.6907C65.3661 10.4696 65.3277 10.3256 64.8478 9.14352C64.5312 8.36338 64.4233 8.14427 64.3462 8.12482C64.2923 8.11116 63.4493 8.10611 62.473 8.11359L60.6981 8.12711L60.5919 8.41886C60.285 9.26276 60.0124 10.1011 59.9713 10.3278C59.8876 10.7889 60.0043 11.3019 60.6825 11.391C60.6825 11.391 60.934 11.4256 61.001 11.4763C61.0681 11.5269 61.0917 11.6566 61.0917 11.6566V11.7761C61.0917 11.7761 61.0789 11.833 61.0327 11.8712C60.9865 11.9095 60.8667 11.8956 60.8667 11.8956H59.1726L57.5336 11.9142C57.5336 11.9142 57.4636 11.9126 57.4119 11.8852C57.3602 11.8578 57.3519 11.8027 57.3519 11.8027V11.6892C57.3519 11.6892 57.3431 11.6154 57.4343 11.5253C57.5256 11.4351 57.772 11.411 57.772 11.411C58.22 11.3388 58.4738 10.862 58.6198 10.5875C58.6306 10.5673 58.6408 10.5481 58.6504 10.5303C58.7083 10.4234 58.9693 9.79988 59.2305 9.14464C59.4918 8.48942 59.7849 7.75638 59.882 7.51568C60.2121 6.69727 60.5258 5.91318 61.0007 4.71971C61.2615 4.06448 61.6475 3.09731 61.8585 2.57046L62.2422 1.6125L62.7751 1.33727ZM62.6353 3.6658C62.7175 3.873 62.8434 4.18479 62.9149 4.35862C62.9865 4.53246 63.1868 5.02479 63.3599 5.4527C63.5331 5.8806 63.7459 6.40133 63.8328 6.60989C63.9198 6.81849 63.9909 6.99899 63.9909 7.01105C63.9909 7.02316 63.3386 7.03303 62.5413 7.03303C61.626 7.03303 61.0917 7.01547 61.0917 6.98537C61.0917 6.95916 61.1223 6.85526 61.1598 6.75441C61.2194 6.59404 61.5169 5.74275 62.1738 3.85224C62.2752 3.56034 62.3693 3.30286 62.3828 3.28011C62.429 3.20226 62.4859 3.289 62.6353 3.6658Z" fill="black"/>
</svg>
