<?xml version="1.0" encoding="utf-8"?>
<!-- Generator: Adobe Illustrator 24.0.1, SVG Export Plug-In . SVG Version: 6.00 Build 0)  -->
<svg version="1.1" id="Слой_1" xmlns="http://www.w3.org/2000/svg" xmlns:xlink="http://www.w3.org/1999/xlink" x="0px" y="0px"
	 viewBox="0 0 99 16" style="enable-background:new 0 0 99 16;" xml:space="preserve">
<style type="text/css">
	.st0{fill:#FF007A;}
</style>
<path class="st0" d="M15.1,0c0.1,0,0.3,0.1,0.4,0.2c0.1,0.1,0.2,0.2,0.2,0.4v11.4c0,0.2-0.1,0.3-0.2,0.4c-0.1,0.1-0.2,0.1-0.4,0.1
	c-0.2,0-0.3,0-0.4-0.1c-0.1-0.1-0.2-0.2-0.2-0.4V2.1l-4.2,6.3C10.2,8.6,10,8.7,9.9,8.7h0c-0.1,0-0.3-0.1-0.4-0.2L5.3,2.1v9.8
	c0,0.2-0.1,0.3-0.2,0.4c-0.1,0.1-0.2,0.1-0.4,0.1s-0.3,0-0.4-0.1c-0.1-0.1-0.1-0.2-0.1-0.4V0.5c0-0.1,0-0.3,0.1-0.4
	C4.5,0.1,4.6,0,4.8,0C4.8,0,4.9,0,5,0.1c0.1,0,0.2,0.1,0.2,0.2l4.7,7l4.7-7C14.7,0.1,14.9,0,15.1,0z M27,7.9c0,0.9-0.2,1.7-0.6,2.4
	s-0.9,1.3-1.6,1.7c-0.7,0.4-1.5,0.6-2.3,0.6c-0.8,0-1.6-0.2-2.3-0.6c-0.7-0.4-1.2-1-1.6-1.7s-0.6-1.5-0.6-2.4s0.2-1.7,0.6-2.4
	s0.9-1.3,1.6-1.7c0.7-0.4,1.5-0.6,2.3-0.6c0.8,0,1.6,0.2,2.3,0.6s1.2,1,1.6,1.7S27,7,27,7.9z M26,7.9c0-0.7-0.1-1.3-0.4-1.9
	c-0.3-0.6-0.7-1-1.2-1.3c-0.5-0.3-1.1-0.5-1.7-0.5c-0.6,0-1.2,0.2-1.7,0.5C20.3,5,19.9,5.4,19.6,6c-0.3,0.6-0.4,1.2-0.4,1.9
	c0,0.7,0.1,1.3,0.4,1.9c0.3,0.6,0.7,1,1.2,1.3c0.5,0.3,1.1,0.5,1.7,0.5c0.6,0,1.2-0.2,1.7-0.5c0.5-0.3,0.9-0.8,1.2-1.3
	C25.8,9.2,26,8.6,26,7.9z M37.6,7.9c0,0.9-0.2,1.7-0.6,2.4s-0.9,1.3-1.6,1.7c-0.7,0.4-1.5,0.6-2.3,0.6s-1.6-0.2-2.3-0.6
	c-0.7-0.4-1.2-1-1.6-1.7s-0.6-1.5-0.6-2.4s0.2-1.7,0.6-2.4s0.9-1.3,1.6-1.7s1.5-0.6,2.3-0.6s1.6,0.2,2.3,0.6s1.2,1,1.6,1.7
	S37.6,7,37.6,7.9z M36.5,7.9c0-0.7-0.1-1.3-0.4-1.9c-0.3-0.6-0.7-1-1.2-1.3c-0.5-0.3-1.1-0.5-1.7-0.5c-0.6,0-1.2,0.2-1.7,0.5
	C30.8,5,30.4,5.4,30.1,6c-0.3,0.6-0.4,1.2-0.4,1.9c0,0.7,0.1,1.3,0.4,1.9c0.3,0.6,0.7,1,1.2,1.3c0.5,0.3,1.1,0.5,1.7,0.5
	c0.6,0,1.2-0.2,1.7-0.5c0.5-0.3,0.9-0.8,1.2-1.3C36.4,9.2,36.5,8.6,36.5,7.9z M44.1,3.2c1.1,0,1.9,0.3,2.4,1
	c0.5,0.6,0.8,1.5,0.8,2.6v5.2c0,0.2-0.1,0.3-0.2,0.4c-0.1,0.1-0.2,0.1-0.4,0.1c-0.2,0-0.3,0-0.4-0.1c-0.1-0.1-0.1-0.2-0.1-0.4V6.7
	c0-0.8-0.2-1.4-0.6-1.9c-0.4-0.5-1-0.7-1.8-0.7c-0.5,0-1,0.1-1.5,0.4c-0.4,0.2-0.8,0.6-1.1,1c-0.3,0.4-0.4,0.8-0.4,1.3v5.2
	c0,0.2-0.1,0.3-0.2,0.4c-0.1,0.1-0.2,0.1-0.4,0.1s-0.3,0-0.4-0.1c-0.1-0.1-0.1-0.2-0.1-0.4V4c0-0.2,0-0.3,0.1-0.4
	c0.1-0.1,0.2-0.2,0.4-0.2s0.3,0.1,0.4,0.2c0.1,0.1,0.2,0.2,0.2,0.4v1c0.3-0.5,0.8-0.9,1.4-1.3C42.8,3.3,43.4,3.2,44.1,3.2z
	 M51.1,11.9c0,0.2-0.1,0.3-0.2,0.4c-0.1,0.1-0.2,0.1-0.4,0.1c-0.2,0-0.3,0-0.4-0.1c-0.1-0.1-0.1-0.2-0.1-0.4V3.7
	c0-0.2,0-0.3,0.1-0.4c0.1-0.1,0.2-0.2,0.4-0.2c0.2,0,0.3,0.1,0.4,0.2c0.1,0.1,0.2,0.2,0.2,0.4V11.9z M50.5,2C50.3,2,50.1,2,50,1.9
	c-0.1-0.1-0.2-0.3-0.2-0.5V1.2c0-0.2,0.1-0.4,0.2-0.5c0.1-0.1,0.3-0.2,0.6-0.2c0.5,0,0.7,0.2,0.7,0.7v0.2c0,0.2-0.1,0.4-0.2,0.5
	C51,2,50.8,2,50.5,2z M53.3,11c-0.1-0.2-0.1-0.3-0.1-0.4c0-0.2,0.1-0.3,0.2-0.4c0.1-0.1,0.2-0.1,0.3-0.1c0.1,0,0.3,0.1,0.4,0.2
	c0.7,0.9,1.6,1.4,2.8,1.4c0.6,0,1.1-0.1,1.5-0.4c0.4-0.3,0.6-0.7,0.6-1.2c0-0.5-0.2-0.9-0.6-1.1s-0.9-0.5-1.6-0.6
	c-1-0.2-1.8-0.6-2.3-1c-0.6-0.4-0.8-1-0.8-1.8c0-0.5,0.1-0.9,0.4-1.3c0.3-0.4,0.6-0.7,1.1-0.9c0.5-0.2,1-0.3,1.6-0.3
	c0.5,0,1,0.1,1.5,0.3c0.5,0.2,1,0.5,1.3,0.9c0.1,0.1,0.2,0.2,0.2,0.4c0,0.1-0.1,0.3-0.2,0.4c-0.1,0.1-0.2,0.1-0.3,0.1
	c-0.1,0-0.2,0-0.3-0.1c-0.3-0.3-0.6-0.6-1-0.7c-0.4-0.2-0.8-0.2-1.3-0.2c-0.6,0-1,0.1-1.4,0.4c-0.4,0.3-0.6,0.7-0.6,1.2
	c0,0.5,0.2,0.8,0.6,1.1c0.4,0.2,1,0.5,1.8,0.7c0.6,0.2,1.1,0.3,1.5,0.5c0.4,0.2,0.7,0.5,1,0.8c0.3,0.3,0.4,0.8,0.4,1.4
	c0,0.8-0.3,1.4-0.9,1.8c-0.6,0.4-1.4,0.7-2.3,0.7C55.3,12.6,54.2,12.1,53.3,11z M73,3.2c0.2,0,0.3,0,0.4,0.1
	c0.1,0.1,0.2,0.2,0.2,0.4c0,0,0,0.1-0.1,0.2l-2.7,8.2c-0.1,0.1-0.1,0.2-0.2,0.3c-0.1,0.1-0.2,0.1-0.3,0.1c-0.1,0-0.2,0-0.3-0.1
	c-0.1-0.1-0.1-0.1-0.2-0.2l-2.3-5.5l-2.1,5.5c0,0.1-0.1,0.2-0.2,0.2c-0.1,0.1-0.2,0.1-0.3,0.1c-0.1,0-0.2,0-0.3-0.1
	c-0.1-0.1-0.2-0.2-0.2-0.3l-2.8-8.2c0-0.1-0.1-0.1-0.1-0.2c0-0.2,0.1-0.3,0.2-0.4c0.1-0.1,0.2-0.2,0.4-0.2c0.1,0,0.2,0,0.3,0.1
	c0.1,0.1,0.2,0.1,0.2,0.2l2.4,7.1l2.1-5.3C67,5.1,67.2,5,67.4,5c0.2,0,0.4,0.1,0.5,0.3l2.2,5.3l2.3-7.1C72.5,3.3,72.7,3.2,73,3.2z
	 M83,3.4c0.2,0,0.3,0.1,0.4,0.2c0.1,0.1,0.2,0.2,0.2,0.4v8c0,0.2-0.1,0.3-0.2,0.4c-0.1,0.1-0.2,0.1-0.4,0.1s-0.3,0-0.4-0.1
	c-0.1-0.1-0.1-0.2-0.1-0.4v-1.2c-0.3,0.5-0.7,1-1.3,1.3c-0.6,0.4-1.2,0.6-1.9,0.6c-0.8,0-1.5-0.2-2.1-0.6c-0.6-0.4-1.1-1-1.5-1.7
	C75.2,9.6,75,8.8,75,7.9c0-0.9,0.2-1.7,0.6-2.4c0.4-0.7,0.9-1.3,1.5-1.7c0.6-0.4,1.3-0.6,2.1-0.6c0.7,0,1.4,0.2,2,0.5
	c0.6,0.3,1,0.8,1.3,1.3V3.9c0-0.2,0-0.3,0.1-0.4C82.7,3.4,82.8,3.4,83,3.4z M79.3,11.6c0.6,0,1.2-0.2,1.7-0.5
	c0.5-0.3,0.9-0.8,1.2-1.3c0.3-0.6,0.4-1.2,0.4-1.9c0-0.7-0.1-1.3-0.4-1.9c-0.3-0.6-0.7-1-1.2-1.3c-0.5-0.3-1-0.5-1.7-0.5
	s-1.2,0.2-1.7,0.5c-0.5,0.3-0.9,0.8-1.2,1.3C76.2,6.5,76,7.1,76,7.9s0.1,1.4,0.4,1.9c0.3,0.6,0.7,1,1.1,1.3
	C78.1,11.5,78.6,11.6,79.3,11.6z M90.6,3.3c0.8,0,1.5,0.2,2.1,0.6c0.6,0.4,1.1,0.9,1.5,1.7c0.4,0.7,0.6,1.5,0.6,2.4
	c0,0.9-0.2,1.7-0.6,2.4c-0.4,0.7-0.9,1.2-1.5,1.7c-0.6,0.4-1.3,0.6-2.1,0.6c-0.7,0-1.3-0.2-1.9-0.5c-0.6-0.3-1-0.8-1.4-1.3v4.7
	c0,0.2-0.1,0.3-0.2,0.4C87.1,15.9,87,16,86.8,16c-0.2,0-0.3-0.1-0.4-0.2c-0.1-0.1-0.1-0.2-0.1-0.4V3.9c0-0.2,0-0.3,0.1-0.4
	c0.1-0.1,0.2-0.2,0.4-0.2c0.2,0,0.3,0.1,0.4,0.2c0.1,0.1,0.2,0.2,0.2,0.4v1.2c0.3-0.6,0.8-1,1.3-1.3C89.3,3.5,89.9,3.3,90.6,3.3z
	 M90.5,11.6c0.6,0,1.2-0.2,1.7-0.5c0.5-0.3,0.9-0.8,1.2-1.3c0.3-0.6,0.4-1.2,0.4-1.9c0-0.7-0.1-1.3-0.4-1.8c-0.3-0.6-0.7-1-1.2-1.3
	c-0.5-0.3-1-0.5-1.7-0.5c-0.6,0-1.2,0.2-1.7,0.5c-0.5,0.3-0.9,0.7-1.2,1.3c-0.3,0.5-0.4,1.2-0.4,1.9s0.1,1.3,0.4,1.9
	c0.3,0.6,0.7,1,1.2,1.3C89.3,11.4,89.9,11.6,90.5,11.6z"/>
</svg>
