<svg width="24" height="24" viewBox="0 0 24 24" fill="none" xmlns="http://www.w3.org/2000/svg">
<path d="M21.6 1.19996C20.2772 1.19756 19.2029 2.268 19.2005 3.59086C19.1993 4.21435 19.4414 4.81374 19.8752 5.26158L15.4904 14.0296C15.3943 14.0137 15.2973 14.0038 15.2 14C14.8902 14.0006 14.5834 14.0615 14.2968 14.1792L10.8928 10.3512C11.0915 9.99989 11.1973 9.60366 11.2 9.20002C11.2 7.87453 10.1255 6.80002 8.80003 6.80002C7.47455 6.80002 6.40003 7.87453 6.40003 9.20002C6.40237 9.77292 6.61148 10.3257 6.98883 10.7568L2.82881 18.0432C2.68744 18.016 2.54395 18.0015 2.4 18C1.07452 18 0 19.0745 0 20.4C0 21.7254 1.07452 22.8 2.4 22.8C3.72548 22.8 4.8 21.7254 4.8 20.4C4.79766 19.827 4.58855 19.2743 4.2112 18.8431L8.37122 11.5568C8.8178 11.645 9.28055 11.5976 9.70003 11.4208L13.104 15.2488C12.9065 15.6004 12.8018 15.9966 12.8001 16.4C12.7961 17.7255 13.8673 18.8032 15.1928 18.8072C16.5183 18.8112 17.596 17.7399 17.6 16.4145C17.6019 15.7891 17.3596 15.1878 16.9248 14.7384L21.3096 5.97038C21.4057 5.98631 21.5027 5.99621 21.6 5.99996C22.9255 5.99996 24 4.92544 24 3.59996C24 2.27447 22.9255 1.19996 21.6 1.19996ZM2.4 21.2C1.95816 21.2 1.59998 20.8418 1.59998 20.4C1.59998 19.9581 1.95816 19.5999 2.4 19.5999C2.84184 19.5999 3.20002 19.9581 3.20002 20.4C3.20002 20.8418 2.84184 21.2 2.4 21.2ZM8.79998 9.99994C8.35814 9.99994 7.99997 9.64177 7.99997 9.19992C7.99997 8.75808 8.35814 8.39991 8.79998 8.39991C9.24183 8.39991 9.6 8.75808 9.6 9.19992C9.6 9.64177 9.24183 9.99994 8.79998 9.99994ZM15.2 17.1999C14.7582 17.1999 14.4 16.8418 14.4 16.3999C14.4 15.9581 14.7582 15.5999 15.2 15.5999C15.6419 15.5999 16 15.9581 16 16.3999C16 16.8418 15.6418 17.1999 15.2 17.1999ZM21.6 4.39997C21.1582 4.39997 20.8 4.0418 20.8 3.59996C20.8 3.15811 21.1582 2.79994 21.6 2.79994C22.0418 2.79994 22.4 3.15811 22.4 3.59996C22.4 4.0418 22.0418 4.39997 21.6 4.39997Z" fill="#31CB9E"/>
</svg>
