<svg width="137" height="40" viewBox="0 0 137 40" fill="none" xmlns="http://www.w3.org/2000/svg">
<path d="M27.5763 0H16.2884C15.9111 0 15.6089 0.312421 15.6007 0.70076C15.3727 11.6166 9.82654 21.9769 0.280565 29.3152C-0.0225043 29.5481 -0.0915503 29.9858 0.130021 30.301L6.73444 39.7045C6.95913 40.0245 7.3969 40.0967 7.70506 39.8616C13.6739 35.3031 18.4749 29.804 21.9323 23.7089C25.3897 29.804 30.191 35.3031 36.1599 39.8616C36.4677 40.0967 36.9056 40.0245 37.1306 39.7045L43.735 30.301C43.9562 29.9858 43.8871 29.5481 43.5844 29.3152C34.0382 21.9769 28.4921 11.6166 28.2643 0.70076C28.2561 0.312421 27.9535 0 27.5763 0Z" fill="#FF875B"/>
<path d="M136.392 10.4678H133.36V6.82438C133.36 6.63134 133.274 6.45326 133.123 6.33558C132.977 6.22128 132.79 6.18064 132.612 6.22523L129.944 6.87998C129.671 6.94714 129.481 7.19352 129.481 7.47941V10.4678H127.961C127.625 10.4678 127.352 10.7455 127.352 11.087V13.292C127.352 13.6335 127.625 13.9115 127.961 13.9115H129.481V22.8072C129.515 26.5887 131.941 27.1097 134.556 27.1097C134.815 27.1097 135.073 27.1023 135.336 27.0944C135.601 27.0866 135.87 27.0783 136.147 27.0783L136.178 27.0763C136.534 27.0307 136.756 26.782 136.756 26.4276V24.0648C136.756 23.7233 136.483 23.4459 136.147 23.4459H135.229C133.902 23.4459 133.36 22.8587 133.36 21.419V13.9115H136.392C136.727 13.9115 137 13.6335 137 13.292V11.087C137 10.7455 136.727 10.4678 136.392 10.4678Z" fill="white"/>
<path d="M120.084 10.2158C118.496 10.2158 117.252 10.7038 116.379 11.667V11.087C116.379 10.734 116.117 10.4678 115.77 10.4678H112.956C112.608 10.4678 112.347 10.734 112.347 11.087V26.4276C112.347 26.7806 112.608 27.0471 112.956 27.0471H115.77C116.117 27.0471 116.379 26.7806 116.379 26.4276V16.8201C116.379 15.0426 117.462 13.8483 119.074 13.8483C120.692 13.8483 121.738 15.0271 121.738 16.8514V26.4276C121.738 26.7806 122 27.0471 122.347 27.0471H125.162C125.509 27.0471 125.771 26.7806 125.771 26.4276V16.0956C125.771 12.5238 123.538 10.2158 120.084 10.2158Z" fill="white"/>
<path d="M105.892 17.1141H99.9023C99.9374 16.5872 100.005 16.2192 100.126 15.8966L100.132 15.8799C100.522 14.5507 101.457 13.8483 102.836 13.8483C104.321 13.8483 105.373 14.654 105.726 16.0752C105.801 16.3055 105.86 16.677 105.892 17.1141ZM102.836 10.2158C99.5672 10.2158 97.0903 12.0593 96.2114 15.1417C95.9233 16.0617 95.7997 17.2101 95.8336 18.6468C95.8336 20.4135 96.0699 21.8353 96.5536 22.9873C97.6241 25.7252 99.9623 27.2677 103.139 27.3301C103.178 27.3306 103.217 27.331 103.256 27.331C105.9 27.331 108.168 26.2402 109.494 24.3216C109.682 24.0315 109.633 23.7412 109.356 23.5032L107.46 21.898C107.284 21.7464 107.12 21.7323 107.013 21.7447C106.899 21.7594 106.733 21.8221 106.583 22.0388C105.828 23.1397 104.784 23.6977 103.482 23.6977C101.706 23.6692 100.578 22.9521 100.121 21.5424C99.986 21.2371 99.9269 20.7934 99.8749 20.306H109.352C109.715 20.306 109.96 20.0587 109.961 19.6902C109.993 18.6256 109.989 17.7897 109.868 16.9185C109.354 12.4707 106.988 10.2158 102.836 10.2158Z" fill="white"/>
<path d="M89.4125 18.6159C89.4125 20.353 89.3466 20.8011 89.206 21.3517C88.8857 22.6702 87.9164 23.4266 86.5463 23.4266C85.1919 23.4266 84.1392 22.6339 83.7244 21.2902C83.5931 20.9516 83.4364 20.2186 83.4364 18.6472C83.4364 17.4055 83.5467 16.5571 83.7895 15.9619C84.2375 14.6115 85.2312 13.8368 86.5157 13.8368C87.876 13.8368 88.8701 14.6234 89.1783 15.9535C89.3446 16.5252 89.4125 16.926 89.4125 18.6159ZM92.8235 10.4677H90.0201C89.6737 10.4677 89.4125 10.7333 89.4125 11.0855V11.5017C88.4818 10.6376 87.2713 10.2168 85.7234 10.2168C82.9847 10.2168 80.7481 11.892 79.8884 14.5827C79.4441 15.8496 79.3872 17.4205 79.3872 18.6472C79.3872 20.2576 79.5157 21.4838 79.7936 22.5133C80.7628 25.7402 83.6025 26.8897 85.9367 26.8897C87.3913 26.8897 88.5597 26.4805 89.412 25.6756C89.3962 27.024 89.0418 27.9946 88.3304 28.6406C87.3986 29.4863 85.8216 29.7907 83.4862 29.5722C82.8826 29.5722 82.8175 29.982 82.8175 30.1496L82.7261 32.7313C82.7261 33.0926 82.9301 33.3345 83.2781 33.3796C83.8565 33.4391 84.4191 33.469 84.9621 33.469C87.5744 33.469 89.7496 32.7841 91.195 31.4848C92.6787 30.1505 93.4309 28.1961 93.4309 25.6759V11.0855C93.4309 10.7333 93.1697 10.4677 92.8235 10.4677Z" fill="white"/>
<path d="M78.0203 10.5325C77.5927 10.3618 77.1215 10.2788 76.5796 10.2788C75.1405 10.2788 73.9686 10.8624 73.0891 12.015V11.0871C73.0891 10.7456 72.816 10.4676 72.4802 10.4676H69.6657C69.3298 10.4676 69.0566 10.7453 69.0566 11.0868V26.4274C69.0566 26.7688 69.3301 27.0468 69.6659 27.0468H72.4802C72.816 27.0468 73.0891 26.7688 73.0891 26.4274V17.5129C73.0891 15.591 74.4802 14.6509 75.879 14.5702C76.3646 14.5022 76.6393 14.5245 76.9492 14.5857C77.295 14.654 77.6215 14.4424 77.6988 14.1034L78.4453 11.3668C78.5211 11.0185 78.3384 10.6598 78.0203 10.5325Z" fill="white"/>
<path d="M62.1858 19.8649V21.2616C62.1858 22.9247 60.4579 23.9184 58.7872 23.9184C57.6621 23.9184 56.4595 23.4274 56.4595 22.0489C56.4595 20.661 57.6423 19.8649 59.7049 19.8649H62.1858ZM59.5216 10.2158C56.4122 10.2158 53.9302 11.6371 53.1984 13.837C53.1362 14.0241 53.1577 14.2273 53.257 14.3949C53.3501 14.5518 53.5041 14.661 53.6806 14.6958L56.4547 15.39C56.7453 15.4434 57.0345 15.2879 57.1463 15.0203C57.4635 14.2645 58.3393 13.8483 59.6132 13.8483C61.2961 13.8483 62.1858 14.6579 62.1858 16.1901V16.8624H59.0015C54.8657 16.8624 52.3965 18.8955 52.3965 22.3013C52.3965 25.9859 55.2398 27.2988 57.9004 27.2988C59.6848 27.2988 61.1597 26.7694 62.1858 25.768V26.4276C62.1858 26.769 62.4591 27.0468 62.795 27.0468H65.609C65.9448 27.0468 66.2182 26.769 66.2182 26.4276V15.8122C66.2182 12.517 63.4646 10.2158 59.5216 10.2158Z" fill="white"/>
</svg>
