<svg width="40" height="40" viewBox="0 0 40 40" fill="none" xmlns="http://www.w3.org/2000/svg">
<rect width="40" height="40" fill="white"/>
<path fill-rule="evenodd" clip-rule="evenodd" d="M32.3668 12.5808L33.0988 10.7617C33.0988 10.7617 32.1671 9.75101 31.0359 8.60559C29.9046 7.46023 27.509 8.13398 27.509 8.13398L24.7807 5H19.9895H15.1984L12.47 8.13398C12.47 8.13398 10.0744 7.46023 8.94319 8.60559C7.81191 9.75101 6.8803 10.7617 6.8803 10.7617L7.61228 12.5808L6.68066 15.2758C6.68066 15.2758 9.42061 25.7834 9.74169 27.0666C10.3739 29.5932 10.8064 30.5701 12.6031 31.8503C14.3998 33.1304 17.6604 35.3538 18.1929 35.6907C18.7252 36.0276 19.3906 36.6014 19.9895 36.6014C20.5884 36.6014 21.2539 36.0276 21.7862 35.6907C22.3185 35.3538 25.5793 33.1304 27.3759 31.8503C29.1726 30.5701 29.6052 29.5932 30.2374 27.0666C30.5584 25.7834 33.2984 15.2758 33.2984 15.2758L32.3668 12.5808Z" fill="url(#paint0_linear_13571_129901)"/>
<path fill-rule="evenodd" clip-rule="evenodd" d="M26.7438 10.1216C26.7438 10.1216 30.253 14.4167 30.253 15.3347C30.253 16.2527 29.8116 16.4951 29.3678 16.9722C28.9238 17.4495 26.9853 19.5337 26.7364 19.8013C26.4875 20.069 25.9693 20.4748 26.2741 21.2052C26.5789 21.9357 27.0286 22.8651 26.5286 23.8078C26.0284 24.7506 25.1717 25.3797 24.6227 25.2757C24.0737 25.1717 22.7843 24.4895 22.3103 24.1778C21.8361 23.8662 20.3334 22.6114 20.3334 22.1313C20.3334 21.6512 21.8868 20.7892 22.1737 20.5934C22.4608 20.3976 23.7697 19.6396 23.7965 19.342C23.8233 19.0444 23.8131 18.9572 23.4268 18.222C23.0405 17.4867 22.3448 16.5056 22.4607 15.8527C22.5764 15.2 23.6983 14.8606 24.499 14.5544C25.2995 14.2483 26.841 13.6702 27.0336 13.5803C27.2262 13.4903 27.1764 13.4047 26.593 13.3487C26.0098 13.2927 24.3544 13.0702 23.6081 13.2809C22.8618 13.4915 21.5868 13.8119 21.4836 13.9819C21.3803 14.1518 21.2892 14.1575 21.3953 14.7437C21.5013 15.3298 22.0473 18.1425 22.1003 18.6421C22.1533 19.1417 22.257 19.472 21.725 19.5952C21.1929 19.7183 20.2973 19.9322 19.9895 19.9322C19.6818 19.9322 18.7861 19.7183 18.254 19.5952C17.7219 19.472 17.8256 19.1417 17.8787 18.6421C17.9317 18.1425 18.4777 15.3298 18.5838 14.7437C18.6898 14.1575 18.5987 14.1518 18.4954 13.9819C18.3922 13.8119 17.1171 13.4915 16.3708 13.2809C15.6245 13.0702 13.9693 13.2927 13.3859 13.3487C12.8026 13.4047 12.7528 13.4903 12.9454 13.5803C13.138 13.6702 14.6795 14.2483 15.48 14.5544C16.2806 14.8606 17.4026 15.2 17.5184 15.8527C17.6342 16.5056 16.9384 17.4867 16.5523 18.222C16.1659 18.9572 16.1557 19.0444 16.1825 19.342C16.2093 19.6396 17.5183 20.3976 17.8053 20.5934C18.0923 20.7892 19.6455 21.6512 19.6455 22.1313C19.6455 22.6114 18.1429 23.8662 17.6688 24.1778C17.1947 24.4895 15.9053 25.1717 15.3563 25.2757C14.8073 25.3797 13.9506 24.7506 13.4505 23.8078C12.9504 22.8651 13.4001 21.9357 13.7048 21.2052C14.0097 20.4748 13.4915 20.069 13.2425 19.8013C12.9937 19.5337 11.0551 17.4495 10.6113 16.9722C10.1673 16.4951 9.72601 16.2527 9.72601 15.3347C9.72601 14.4167 13.2353 10.1216 13.2353 10.1216C13.2353 10.1216 16.1965 10.6942 16.5958 10.6942C16.995 10.6942 17.8601 10.3574 18.6586 10.0879C19.4572 9.81841 19.9895 9.81641 19.9895 9.81641C19.9895 9.81641 20.5218 9.81841 21.3204 10.0879C22.1189 10.3574 22.984 10.6942 23.3833 10.6942C23.7825 10.6942 26.7438 10.1216 26.7438 10.1216ZM24.113 26.5516C24.3302 26.6893 24.1977 26.9489 23.9998 27.0905C23.8019 27.2322 21.1428 29.317 20.8848 29.5475C20.6266 29.778 20.2473 30.1586 19.9895 30.1586C19.7317 30.1586 19.3523 29.778 19.0943 29.5475C18.8362 29.317 16.177 27.2322 15.9792 27.0905C15.7813 26.9489 15.6488 26.6893 15.866 26.5516C16.0833 26.4139 16.7629 26.0665 17.7007 25.5751C18.6384 25.0838 19.8071 24.6661 19.9895 24.6661C20.1719 24.6661 21.3405 25.0838 22.2783 25.5751C23.2161 26.0665 23.8957 26.4139 24.113 26.5516Z" fill="white"/>
<path d="M27.509 8.13398L24.7807 5H19.9895H15.1983L12.47 8.13398C12.47 8.13398 10.0744 7.46023 8.94318 8.60558C8.94318 8.60558 12.1373 8.31367 13.2353 10.1216C13.2353 10.1216 16.1965 10.6942 16.5958 10.6942C16.995 10.6942 17.8601 10.3574 18.6586 10.0879C19.4572 9.81841 19.9895 9.81641 19.9895 9.81641C19.9895 9.81641 20.5218 9.81841 21.3204 10.0879C22.1189 10.3574 22.984 10.6942 23.3833 10.6942C23.7825 10.6942 26.7438 10.1216 26.7438 10.1216C27.8418 8.31367 31.0358 8.60558 31.0358 8.60558C29.9046 7.46023 27.509 8.13398 27.509 8.13398Z" fill="url(#paint1_linear_13571_129901)"/>
<defs>
<linearGradient id="paint0_linear_13571_129901" x1="6.68066" y1="1607.37" x2="2668.45" y2="1607.37" gradientUnits="userSpaceOnUse">
<stop stop-color="#FF5500"/>
<stop offset="0.409877" stop-color="#FF5500"/>
<stop offset="0.581981" stop-color="#FF2000"/>
<stop offset="1" stop-color="#FF2000"/>
</linearGradient>
<linearGradient id="paint1_linear_13571_129901" x1="56.4079" y1="293.731" x2="2218.22" y2="293.731" gradientUnits="userSpaceOnUse">
<stop stop-color="#FF452A"/>
<stop offset="1" stop-color="#FF2000"/>
</linearGradient>
</defs>
</svg>
