<svg width="40" height="40" viewBox="0 0 40 40" fill="none" xmlns="http://www.w3.org/2000/svg">
<rect width="40" height="40" fill="#4C82FB" fill-opacity="0.24"/>
<path fill-rule="evenodd" clip-rule="evenodd" d="M18.454 11.6305C14.6973 12.4936 11.8284 15.6822 11.4439 19.5998H15.6425C15.8586 16.7339 16.8329 13.9847 18.454 11.6305ZM22.546 11.6305C24.1671 13.9847 25.1413 16.7339 25.3574 19.5998H29.5561C29.1715 15.6822 26.3027 12.4936 22.546 11.6305ZM23.5517 19.5998C23.3127 16.7852 22.2508 14.103 20.5 11.8882C18.7491 14.103 17.6872 16.7852 17.4483 19.5998H23.5517ZM17.4483 21.3998H23.5516C23.3126 24.2143 22.2507 26.8963 20.5 29.111C18.7492 26.8963 17.6873 24.2143 17.4483 21.3998ZM15.6426 21.3998H11.4439C11.8286 25.3172 14.6974 28.5056 18.454 29.3687C16.833 27.0146 15.8587 24.2656 15.6426 21.3998ZM22.546 29.3687C24.167 27.0146 25.1412 24.2656 25.3574 21.3998H29.556C29.1713 25.3172 26.3026 28.5056 22.546 29.3687ZM20.5 31.3996C14.4801 31.3996 9.59998 26.5195 9.59998 20.4996C9.59998 14.4797 14.4801 9.59961 20.5 9.59961C26.5199 9.59961 31.4 14.4797 31.4 20.4996V20.4998C31.3999 26.5196 26.5198 31.3996 20.5 31.3996Z" fill="#4C82FB"/>
</svg>
