<svg width="155" height="40" viewBox="0 0 155 40" fill="none" xmlns="http://www.w3.org/2000/svg">
<path d="M79.156 26.305C78.285 25.963 77.529 25.45 76.832 24.765C76.192 24.08 75.669 23.338 75.262 22.482C74.914 21.626 74.682 20.656 74.682 19.686C74.682 18.716 74.856 17.803 75.262 16.89C75.612 16.034 76.134 15.292 76.832 14.608C77.471 13.98 78.285 13.467 79.156 13.068C80.028 12.725 81.016 12.496 82.004 12.496C82.992 12.496 83.922 12.668 84.852 13.067C85.724 13.409 86.479 13.923 87.118 14.607C87.758 15.236 88.281 16.034 88.63 16.89C89.036 17.803 89.21 18.716 89.21 19.686C89.21 20.656 89.036 21.569 88.63 22.482C88.28 23.338 87.758 24.08 87.06 24.765C86.363 25.392 85.607 25.906 84.736 26.305C83.864 26.648 82.876 26.876 81.888 26.876C80.958 26.876 80.028 26.705 79.156 26.306V26.305ZM78.11 10.785C76.948 11.298 75.844 11.983 74.972 12.896C74.042 13.809 73.345 14.836 72.822 15.977C72.299 17.176 72.066 18.431 72.066 19.743C72.066 21.056 72.299 22.311 72.821 23.509C73.345 24.651 74.042 25.735 74.971 26.591C75.901 27.504 76.948 28.188 78.111 28.702C79.331 29.215 80.609 29.444 81.946 29.444C83.283 29.444 84.561 29.215 85.782 28.702C86.944 28.188 88.048 27.504 88.92 26.591C89.85 25.678 90.547 24.651 91.07 23.509C91.594 22.311 91.826 21.056 91.826 19.743C91.826 18.431 91.594 17.176 91.071 15.977C90.547 14.837 89.85 13.752 88.921 12.896C87.991 11.983 86.944 11.298 85.781 10.785C84.561 10.271 83.283 10.043 81.946 10.043C80.609 10.043 79.331 10.271 78.11 10.785ZM57.014 10.785C55.851 11.298 54.747 11.983 53.875 12.896C52.887 13.752 52.19 14.836 51.725 15.977C51.202 17.176 50.969 18.488 50.969 19.743C50.969 21.056 51.259 22.311 51.725 23.566C52.19 24.708 52.945 25.735 53.875 26.648C54.805 27.561 55.851 28.246 57.014 28.759C58.234 29.273 59.571 29.501 60.849 29.501C62.186 29.501 63.465 29.215 64.685 28.759C65.905 28.245 66.952 27.561 67.823 26.705C68.753 25.792 69.451 24.765 69.973 23.566C70.09 23.338 70.206 23.053 70.264 22.768H67.358C67.01 23.509 66.545 24.194 65.905 24.822C65.266 25.45 64.453 25.963 63.581 26.362C62.709 26.705 61.721 26.933 60.733 26.933C59.745 26.933 58.815 26.762 57.943 26.363C57.072 26.02 56.316 25.506 55.619 24.822C54.979 24.137 54.456 23.395 54.049 22.539C53.701 21.683 53.469 20.713 53.469 19.743C53.469 18.773 53.643 17.86 54.049 16.947C54.399 16.091 54.921 15.35 55.619 14.665C56.258 14.037 57.072 13.524 57.943 13.125C58.815 12.782 59.803 12.554 60.791 12.554C61.779 12.554 62.709 12.724 63.639 13.124C64.511 13.467 65.266 13.98 65.964 14.664C66.544 15.236 67.01 15.92 67.417 16.719H70.323C70.264 16.434 70.148 16.205 70.032 15.92C69.509 14.779 68.812 13.695 67.882 12.839C67.01 11.983 65.905 11.241 64.743 10.728C63.523 10.214 62.244 9.986 60.907 9.986C59.513 10.043 58.176 10.271 57.014 10.785ZM94.906 29.5H97.58V10.043H94.906V29.5ZM127.975 16.89C127.975 14.322 130.126 12.21 132.741 12.21C135.356 12.21 137.448 14.321 137.448 16.89C137.448 19.4 135.356 21.511 132.741 21.511C130.068 21.511 127.975 19.457 127.975 16.889V16.89ZM125.592 16.946C125.592 20.769 128.789 23.736 132.857 23.736H134.484L131.346 29.614H134.02L138.96 20.37C139.657 19.115 139.948 17.973 139.948 16.89C139.948 13.066 136.809 10.042 132.799 10.042C128.731 9.985 125.592 13.066 125.592 16.946ZM144.539 23.736C144.539 21.511 146.399 19.742 148.665 19.742C150.99 19.742 152.85 21.512 152.85 23.737C152.85 25.962 150.99 27.788 148.665 27.788C146.34 27.788 144.539 25.962 144.539 23.737V23.736ZM145.876 14.836C145.876 13.351 147.096 12.096 148.607 12.096C150.118 12.096 151.397 13.351 151.397 14.836C151.397 16.319 150.118 17.574 148.607 17.574C147.154 17.574 145.876 16.319 145.876 14.835V14.836ZM143.667 14.836C143.667 15.919 144.016 16.946 144.655 17.802L145.178 18.544L144.481 19.114C143.086 20.256 142.272 21.968 142.272 23.737C142.272 27.16 145.12 29.957 148.607 29.957C152.152 29.957 155 27.16 155 23.737C155 21.911 154.186 20.256 152.792 19.057L152.094 18.487L152.675 17.745C153.315 16.946 153.663 15.919 153.663 14.835C153.663 12.153 151.455 10.042 148.665 10.042C145.817 9.985 143.667 12.096 143.667 14.835V14.836ZM119.141 10.042V25.163C119.141 26.019 118.676 26.533 117.863 26.59C117.049 26.59 116.584 25.962 116.41 25.62L110.307 12.667C109.959 11.867 109.436 11.24 108.68 10.727C107.983 10.27 107.169 10.042 106.297 10.042C105.251 10.042 104.321 10.384 103.566 10.955C103.508 10.955 103.508 11.012 103.45 11.012C102.578 11.754 102.171 12.667 102.171 13.751V29.5H105.019V14.15C105.019 13.351 105.6 12.78 106.355 12.78C106.937 12.78 107.46 13.123 107.808 13.808L107.867 13.922C109.319 17.06 112.516 23.908 114.434 27.56C115.073 28.758 116.177 29.329 117.921 29.329C118.967 29.329 119.955 29.043 120.711 28.416C121.582 27.731 122.047 27.16 122.047 25.791V10.041H119.141V10.042ZM33.301 0H7.44C3.313 0 0 3.252 0 7.304V32.696C0 36.748 3.313 40 7.44 40H33.3C37.369 40 40.74 36.748 40.74 32.696V7.304C40.74 3.252 37.427 0 33.3 0H33.301ZM27.025 9.986C30.047 9.986 32.488 12.382 32.488 15.35C32.488 16.262 32.255 17.118 31.848 17.917C31.151 17.404 30.396 16.947 29.582 16.662C29.814 16.262 29.931 15.806 29.931 15.35C29.931 13.809 28.652 12.554 27.083 12.554C25.513 12.554 24.235 13.809 24.235 15.35C24.235 15.806 24.351 16.262 24.584 16.662C23.77 16.947 22.956 17.347 22.317 17.917C21.852 17.118 21.677 16.262 21.677 15.349C21.562 12.382 24.003 9.986 27.025 9.986ZM13.715 30.014C10.694 30.014 8.253 27.618 8.253 24.651H10.868C10.868 26.191 12.147 27.447 13.716 27.447C15.285 27.447 16.564 26.191 16.564 24.651H19.179C19.179 27.618 16.738 30.014 13.716 30.014H13.715ZM13.715 22.482C10.229 22.482 7.381 19.686 7.381 16.262C7.381 12.839 10.229 9.986 13.716 9.986C17.203 9.986 20.109 12.782 20.109 16.262C20.051 19.686 17.203 22.482 13.716 22.482H13.715ZM27.025 30.014C23.538 30.014 20.632 27.218 20.632 23.794C20.632 20.314 23.48 17.518 27.025 17.518C30.512 17.518 33.36 20.314 33.36 23.795C33.36 27.218 30.512 30.015 27.025 30.015V30.014ZM30.802 23.738C30.802 25.792 29.117 27.389 27.025 27.389C24.933 27.389 23.247 25.735 23.247 23.738C23.247 21.683 24.933 20.028 27.025 20.028C29.117 20.086 30.802 21.74 30.802 23.738ZM17.435 16.262C17.435 18.317 15.75 19.972 13.658 19.972C11.565 19.972 9.88 18.317 9.88 16.262C9.88 14.208 11.565 12.553 13.658 12.553C15.808 12.553 17.435 14.208 17.435 16.263V16.262Z" fill="#D9B432"/>
</svg>
