<svg width="154" height="40" viewBox="0 0 154 40" fill="none" xmlns="http://www.w3.org/2000/svg">
<path fill-rule="evenodd" clip-rule="evenodd" d="M99.4916 13.1885V0.19043H104.37V31.6666H95.7652C92.7898 31.6666 90.4094 30.8114 88.6261 29.1066C86.8389 27.4 85.9453 24.7142 85.9453 21.7619C85.9453 20.0152 86.3617 18.4285 87.1906 17C88.0196 15.5714 89.1641 14.4476 90.6166 13.6342C92.0711 12.8209 93.6396 12.4152 95.326 12.4152C96.6284 12.4152 98.0144 12.6723 99.4897 13.1885H99.4916ZM96.9192 27.9352H99.4878V16.8419C98.4802 16.3238 97.4307 16.0666 96.3413 16.0666C94.71 16.0666 93.4039 16.5752 92.4285 17.5942C91.4532 18.6133 90.9646 19.9504 90.9646 21.6038C90.9646 25.5847 92.9495 27.9352 96.9192 27.9352ZM70.9199 22.3619V22.9733C70.9199 23.1771 70.9066 23.3809 70.8818 23.5828H56.9857C57.0351 24.2457 57.2082 24.8495 57.499 25.3961C57.7899 25.9447 58.1778 26.4152 58.6607 26.8095C59.1417 27.2038 59.6893 27.5142 60.2996 27.7428C60.908 27.9714 61.5411 28.0895 62.2008 28.0895C63.3434 28.0895 64.3074 27.878 65.0945 27.459C65.8816 27.04 66.5299 26.4609 67.0356 25.7219L70.0833 28.1638C68.279 30.6076 65.6667 31.8285 62.2407 31.8285C60.8186 31.8285 59.5106 31.6057 58.3185 31.1619C57.1264 30.7161 56.0902 30.0857 55.2157 29.2723C54.3411 28.4571 53.6567 27.459 53.1604 26.2761C52.6661 25.0933 52.4189 23.7504 52.4189 22.2495C52.4189 20.7733 52.6661 19.4304 53.1604 18.2228C53.6548 17.0133 54.3335 15.9847 55.1947 15.1314C56.0598 14.278 57.0808 13.6171 58.2614 13.1466C59.4402 12.6742 60.7178 12.44 62.0867 12.44C63.3567 12.44 64.5298 12.6495 65.6097 13.0685C66.6877 13.4895 67.6193 14.1142 68.4064 14.939C69.1935 15.7676 69.8095 16.798 70.2544 18.0304C70.6974 19.2647 70.9199 20.7085 70.9199 22.3638V22.3619ZM66.3531 20.3047C66.3531 19.72 66.2713 19.1581 66.1059 18.6247C65.9405 18.0914 65.682 17.619 65.3264 17.2133C64.9709 16.8057 64.5184 16.48 63.9766 16.24C63.429 15.998 62.7864 15.878 62.0506 15.878C60.6817 15.878 59.522 16.2914 58.5675 17.1161C57.6169 17.9447 57.0884 19.0057 56.9895 20.3047H66.3531ZM119.297 12.5219C121.228 12.5219 122.981 12.9257 124.557 13.7352C126.13 14.5447 127.347 15.678 128.208 17.139C129.067 18.6 129.497 20.2495 129.497 22.0952C129.497 24.019 129.084 25.7047 128.257 27.1504C127.43 28.598 126.213 29.739 124.607 30.5733C122.998 31.4114 121.208 31.8285 119.278 31.8285C117.333 31.8285 115.586 31.4095 113.998 30.5733C112.412 29.739 111.203 28.5961 110.376 27.1504C109.551 25.7028 109.137 24.019 109.137 22.0952C109.137 20.2247 109.574 18.5619 110.447 17.1104C111.319 15.6552 112.538 14.5276 114.097 13.7257C115.658 12.9219 117.392 12.5219 119.297 12.5219ZM114.257 22.0952C114.257 23.9523 114.711 25.4361 115.616 26.5428C116.521 27.6514 117.755 28.2057 119.278 28.2057C120.865 28.2057 122.093 27.6742 123.008 26.6133C123.921 25.5523 124.377 24.0323 124.377 22.0552C124.377 20.1714 123.919 18.7142 122.998 17.6857C122.078 16.6571 120.831 16.1428 119.257 16.1428C117.776 16.1428 116.572 16.6876 115.645 17.7752C114.721 18.8647 114.257 20.3047 114.257 22.0952ZM143.456 12.5219C145.386 12.5219 147.138 12.9257 148.715 13.7352C150.289 14.5447 151.506 15.678 152.365 17.139C153.226 18.6 153.658 20.2495 153.658 22.0952C153.658 24.019 153.241 25.7047 152.416 27.1504C151.587 28.598 150.371 29.739 148.764 30.5733C147.156 31.4114 145.334 31.8285 143.403 31.8285C141.459 31.8285 139.745 31.4095 138.157 30.5733C136.569 29.739 135.362 28.5961 134.533 27.1504C133.708 25.7028 133.296 24.019 133.296 22.0952C133.296 20.2247 133.731 18.5619 134.606 17.1104C135.476 15.6552 136.695 14.5276 138.256 13.7257C139.815 12.9219 141.551 12.5219 143.456 12.5219ZM138.416 22.0952C138.416 23.9523 138.868 25.4361 139.773 26.5428C140.68 27.6514 141.895 28.2057 143.416 28.2057C145.003 28.2057 146.252 27.6742 147.167 26.6133C148.08 25.5523 148.536 24.0323 148.536 22.0552C148.536 20.1714 148.076 18.7142 147.156 17.6857C146.235 16.6571 144.99 16.1428 143.416 16.1428C141.933 16.1428 140.729 16.6876 139.803 17.7752C138.878 18.8647 138.416 20.3047 138.416 22.0952ZM76.4525 9.23234C77.0171 9.80376 77.6978 10.0876 78.4982 10.0876C79.2777 10.0876 79.945 9.80757 80.504 9.24948L80.5344 9.21519C81.0725 8.66471 81.3424 7.99995 81.3424 7.22472C81.3424 6.42091 81.061 5.7371 80.4964 5.17329C79.9317 4.60948 79.2549 4.32757 78.4659 4.32757C77.6768 4.32757 77.0019 4.60376 76.4448 5.15805C75.8859 5.71043 75.6083 6.3771 75.6083 7.15805C75.6083 7.96948 75.8878 8.659 76.4467 9.22662C76.4506 9.22662 76.4506 9.23043 76.4525 9.23234ZM76.0912 13.0095V31.7466H80.7778V12.9219C80.0971 12.6038 79.3214 12.44 78.4373 12.44C77.5571 12.44 76.7776 12.6323 76.0912 13.0114" fill="#14495A"/>
<path fill-rule="evenodd" clip-rule="evenodd" d="M21.0179 0.603863L25.3147 4.91053C25.5809 5.1772 25.5809 5.60577 25.3147 5.87053L20.5901 10.6096C20.324 10.8762 19.8962 10.8762 19.63 10.6096L14.915 5.88577C14.6488 5.6191 14.6488 5.18862 14.915 4.92386L19.2213 0.605767C19.7156 0.108624 20.5236 0.108624 21.0179 0.605767" fill="#00B29B"/>
<path fill-rule="evenodd" clip-rule="evenodd" d="M13.5934 7.20199L18.3122 11.9277C18.5765 12.1944 18.5765 12.6229 18.3122 12.8877L6.57781 24.642C6.31164 24.9087 5.88196 24.9087 5.61769 24.6439L1.319 20.3391C0.824676 19.842 0.824676 19.0344 1.3228 18.5353L12.6351 7.20199C12.8994 6.93723 13.3272 6.93723 13.5915 7.20199H13.5934ZM34.5773 14.1906L38.8741 18.4953C39.3703 18.9906 39.3703 19.8001 38.8741 20.2953L27.5617 31.6287C27.2956 31.8953 26.8678 31.8953 26.6016 31.6325L21.8866 26.9048C21.6204 26.6401 21.6204 26.2096 21.8866 25.9448L33.6191 14.1906C33.8852 13.9239 34.313 13.9239 34.5773 14.1906Z" fill="#14495A"/>
<path fill-rule="evenodd" clip-rule="evenodd" d="M20.5693 28.2249L25.2863 32.9506C25.5505 33.2154 25.5505 33.6439 25.2863 33.9106L20.9781 38.2268C20.48 38.7239 19.6757 38.7258 19.1795 38.2287L14.8808 33.9239C14.6165 33.6573 14.6165 33.2268 14.8808 32.962L19.6111 28.2249C19.8754 27.9582 20.3031 27.9582 20.5693 28.2249Z" fill="#00B29B"/>
<path fill-rule="evenodd" clip-rule="evenodd" d="M27.5865 7.18662L32.3073 11.9142C32.5696 12.1771 32.5696 12.6076 32.3054 12.8742L27.577 17.6095C27.3108 17.8761 26.8811 17.8761 26.6188 17.6095L21.8999 12.8857C21.6375 12.619 21.6375 12.1904 21.8999 11.9257L26.6302 7.18852C26.8963 6.92185 27.3241 6.92185 27.5884 7.18662" fill="#14495A"/>
<path fill-rule="evenodd" clip-rule="evenodd" d="M20.5845 14.204L25.3014 18.9316C25.5657 19.1944 25.5657 19.6249 25.3014 19.8916L20.573 24.6268C20.3069 24.8935 19.8772 24.8935 19.6148 24.6268L14.896 19.903C14.6317 19.6363 14.6317 19.2059 14.896 18.9411L19.6262 14.2059C19.8905 13.9392 20.3183 13.9392 20.5845 14.2059" fill="#00B29B"/>
<path fill-rule="evenodd" clip-rule="evenodd" d="M13.5782 21.221L18.297 25.9487C18.5613 26.2134 18.5613 26.642 18.297 26.9087L13.5668 31.6439C13.3025 31.9106 12.8747 31.9106 12.6085 31.6458L7.89348 26.922C7.6273 26.6553 7.6273 26.2249 7.89348 25.9582L12.6199 21.2229C12.8861 20.9563 13.3139 20.9563 13.5782 21.2229" fill="#14495A"/>
</svg>
