<svg width="132" height="40" viewBox="0 0 132 40" fill="none" xmlns="http://www.w3.org/2000/svg">
<path d="M49.5017 32.4322V24.5708H49.5637L54.6357 32.4322H60.5141L54.4185 24.0291L59.727 17.0875L61.4951 14.7598H55.6786L53.9757 17.0786L49.5637 23.9053H49.5017V2.66504L44.6003 3.92636V32.4322H49.5017Z" fill="white"/>
<path d="M66.1496 32.4322V24.8428C66.1496 23.4978 66.4481 22.4346 67.0449 21.6534C67.6417 20.8723 68.4701 20.4817 69.53 20.4817C70.3121 20.4817 75.6702 20.4817 75.6702 20.4817V16.5396C75.6702 16.5396 70.6793 16.5396 70.4111 16.5396C68.4044 16.5396 66.9832 17.3363 66.2114 19.4884H66.1496V16.5396H61.272V32.4322H66.1496Z" fill="white"/>
<path d="M75.6501 40.0001C78.7601 40.0001 81.0874 37.9269 82.6321 33.7803L89.0579 16.5396H84.2231L81.2418 26.2823C80.9947 27.0825 80.8248 27.784 80.7321 28.3867H80.6703C80.5673 27.5658 80.4232 26.8539 80.2378 26.2511L77.9081 18.5824C77.5395 17.369 76.4206 16.5396 75.1524 16.5396H71.8811L78.307 32.4709L77.4728 34.4506C76.9785 35.6458 76.1032 36.2433 74.8469 36.2433C74.0848 36.2433 73.3794 36.0511 72.7307 35.6665V39.5948C73.4927 39.865 74.4659 40.0001 75.6501 40.0001Z" fill="white"/>
<path d="M92.7239 33.4413C93.6897 33.4413 94.6214 33.3442 95.519 33.1501C96.4166 32.956 97.2092 32.6465 97.8969 32.2216C98.5845 31.7967 99.1357 31.2459 99.5503 30.5692C99.965 29.8925 100.172 29.0768 100.172 28.1221C100.172 27.4402 100.07 26.8526 99.8653 26.3595C99.6606 25.8664 99.3666 25.4363 98.9834 25.0691C98.6003 24.7019 98.141 24.3819 97.6055 24.1091C97.0701 23.8363 96.4717 23.5845 95.8103 23.3537C95.4429 23.2278 95.0728 23.1046 94.7002 22.9839C94.3275 22.8633 93.9889 22.7269 93.6844 22.5747C93.38 22.4226 93.1333 22.2416 92.9443 22.0318C92.7554 21.822 92.6543 21.6962 92.6543 21.4024C92.6543 21.1821 92.7239 21.0161 92.8498 20.843C92.9758 20.6699 93.149 20.5283 93.3695 20.4181C93.59 20.3079 93.8445 20.224 94.1332 20.1663C94.4219 20.1086 94.729 20.0797 95.0545 20.0797H99.196V16.5396H94.8498C93.9364 16.5396 93.0572 16.6366 92.2121 16.8307C91.367 17.0248 90.6163 17.329 89.9602 17.7434C89.304 18.1579 88.7791 18.6903 88.3854 19.3408C87.9918 19.9912 87.7949 20.7676 87.7949 21.6699C87.7949 22.3308 87.8815 22.9026 88.0548 23.3852C88.228 23.8678 88.4799 24.2927 88.8106 24.6599C89.1413 25.0271 89.5508 25.3497 90.0389 25.6278C90.5271 25.9058 91.0914 26.1654 91.7318 26.4067C92.1307 26.5641 92.5454 26.7058 92.9758 26.8316C93.4062 26.9575 93.8026 27.0992 94.1647 27.2566C94.5269 27.4139 94.8235 27.5975 95.0545 27.8074C95.2854 28.0172 95.4009 28.2795 95.4009 28.5942C95.4009 29.0873 95.1463 29.4545 94.6372 29.6958C94.128 29.9371 93.4325 30.0578 92.5506 30.0578C91.8263 30.0578 91.0573 29.9371 90.2436 29.6958C89.43 29.4545 88.6138 29.0873 87.7949 28.5942V32.6229C89.3067 33.1685 90.9496 33.4413 92.7239 33.4413Z" fill="white"/>
<path d="M106.22 32.9368C107.69 32.9368 108.789 32.7446 109.518 32.3603V28.7143C108.966 29.0156 108.429 29.1662 107.908 29.1662C106.585 29.1662 105.923 28.3352 105.923 26.6732V20.0775H109.518V16.5396H105.923V11.7466L100.999 13.1489V16.5396H98.4041V20.0775H100.999V27.5302C100.999 31.1346 102.739 32.9368 106.22 32.9368Z" fill="white"/>
<path fill-rule="evenodd" clip-rule="evenodd" d="M119.721 30.0182C118.655 31.7958 117.078 32.6846 114.989 32.6846C113.447 32.6846 112.235 32.2479 111.35 31.3747C110.466 30.5014 110.024 29.3361 110.024 27.8789C110.024 24.7991 111.849 23.0215 115.501 22.5461L119.814 21.9725C119.814 20.2363 118.873 19.3681 116.99 19.3681C115.097 19.3681 113.297 19.9314 111.591 21.0579V17.3684C112.273 17.017 113.207 16.7069 114.391 16.4382C115.576 16.1695 116.654 16.0352 117.626 16.0352C122.157 16.0352 124.422 18.2933 124.422 22.8096V32.297H119.783V30.0182H119.721ZM115.12 28.6773C115.508 29.0338 116.033 29.2121 116.695 29.2121C117.616 29.2121 118.366 28.8943 118.945 28.2587C119.524 27.6231 119.814 26.8196 119.814 25.8481V24.7784L116.928 25.1505C115.335 25.3572 114.539 26.0755 114.539 27.3053C114.539 27.8634 114.733 28.3207 115.12 28.6773Z" fill="white"/>
<path d="M129.899 32.9369C130.745 32.9369 131.345 32.8827 132 32.6929V28.6534H131.864C131.236 28.7347 130.991 28.7347 130.472 28.7347C130.172 28.7347 129.981 28.4365 129.981 28.084V8.46729H125.18V28.6263C125.18 31.4458 126.68 32.9369 129.899 32.9369Z" fill="white"/>
<path d="M22.896 0.871502C22.896 0.269715 23.4914 -0.150868 24.0583 0.0504316L31.8433 2.8147C32.4082 3.01529 32.6064 3.71352 32.2312 4.18116L24.4462 13.8832C23.9313 14.5249 22.896 14.1606 22.896 13.3378V0.871502Z" fill="#1DE9B6"/>
<path d="M8.33332 10.4324C7.69985 10.8 7.77513 11.738 8.45911 11.9998L20.2047 16.4953C20.775 16.7135 21.3869 16.2923 21.3869 15.6815V4.37045C21.3869 3.69897 20.6596 3.27988 20.079 3.6168L8.33332 10.4324Z" fill="#1DE9B6"/>
<path d="M0.00294082 22.7783C-0.0453863 23.3757 0.509765 23.8424 1.08974 23.6919L18.5153 19.1701C19.3363 18.9571 19.3996 17.8153 18.6073 17.5128L2.05858 11.1937C1.51609 10.9866 0.926709 11.3584 0.879874 11.9374L0.00294082 22.7783Z" fill="#1DE9B6"/>
<path d="M18.5151 22.4081C18.7486 21.7494 18.1507 21.0976 17.4746 21.2738L5.75561 24.3281C5.09869 24.4993 4.88143 25.3232 5.36846 25.7963L13.2802 33.4816C13.7355 33.9239 14.4956 33.7461 14.7078 33.1477L18.5151 22.4081Z" fill="#1DE9B6"/>
<path d="M24.9892 17.9373C24.3512 17.8065 24.0772 17.0469 24.4847 16.5386L32.6856 6.31134C33.1482 5.73444 34.0736 5.96011 34.219 6.68525L36.7077 19.1041C36.8302 19.7156 36.2896 20.2541 35.6788 20.1289L24.9892 17.9373Z" fill="#1DE9B6"/>
<path d="M25.9565 20.0193C25.1302 19.8493 24.5691 20.8363 25.1376 21.4598L35.8244 33.181C36.3219 33.7267 37.2299 33.4445 37.3307 32.7129L38.6064 23.4531C38.669 22.9985 38.3684 22.5732 37.9191 22.4808L25.9565 20.0193Z" fill="#1DE9B6"/>
<path d="M21.2638 24.0714C21.2459 23.1026 19.8977 22.8823 19.5726 23.7951L14.8772 36.9795C14.6501 37.6173 15.2052 38.2592 15.8688 38.1261L20.7895 37.1394C21.2024 37.0566 21.4969 36.6902 21.4892 36.269L21.2638 24.0714Z" fill="#1DE9B6"/>
<path d="M22.9387 24.1972C22.9238 23.3959 23.9072 23.0012 24.4501 23.5907L32.2765 32.0888C32.7412 32.5934 32.4677 33.4124 31.7931 33.5361L24.1508 34.9383C23.6223 35.0353 23.1329 34.635 23.1229 34.0976L22.9387 24.1972Z" fill="#1DE9B6"/>
</svg>
