<svg width="150" height="40" viewBox="0 0 150 40" fill="none" xmlns="http://www.w3.org/2000/svg">
<path d="M45.2687 30.3947V1.8808H47.2719V28.5139H60.9893V30.3947H45.2687ZM70.8958 30.7895C67.7892 30.7895 65.3869 29.7988 63.5872 27.918C61.8891 26.0372 60.9814 23.3669 60.9814 19.8994C60.9814 16.5325 61.7796 13.7616 63.4855 11.7802C65.1835 9.69814 67.3902 8.70743 70.2933 8.70743C72.7973 8.70743 74.8005 9.59752 76.3029 11.2848C77.8053 13.065 78.5018 15.4412 78.5018 18.4133V20H62.9846C62.9846 22.8715 63.6889 25.1471 65.0896 26.6331C66.3886 28.2198 68.3918 28.9087 70.8958 28.9087C72.093 28.9087 73.1964 28.8081 74.0963 28.6146C74.9961 28.4133 76.2012 28.1192 77.6019 27.5232V29.404C76.4047 29.8994 75.3013 30.2941 74.2997 30.4954C73.1807 30.6966 72.0383 30.7972 70.8958 30.7895ZM70.2933 10.4954C68.1883 10.4954 66.592 11.1919 65.2852 12.4768C64.088 13.8622 63.282 15.743 63.0864 18.3204H76.3029C76.3029 15.8437 75.8021 13.9628 74.6988 12.5774C73.6972 11.1842 72.1948 10.4954 70.2933 10.4954ZM88.9169 8.80805C90.4194 8.80805 91.82 9.10217 92.9234 9.59752C94.0267 10.1935 95.0283 11.0836 95.9282 12.469H96.0299C95.9282 10.7895 95.9282 9.20279 95.9282 7.6161V0H97.8297V30.3947H96.5307L96.0299 27.1285C94.4258 29.5046 92.0235 30.7895 89.0187 30.7895C86.0138 30.7895 83.815 29.8994 82.2109 28.0186C80.6067 26.2384 79.9103 23.5604 79.9103 20.1006C79.9103 16.4396 80.7084 13.661 82.2109 11.6873C83.7133 9.70588 86.0138 8.80805 88.9169 8.80805ZM88.9169 10.4954C86.6164 10.4954 84.8166 11.2848 83.6115 12.9721C82.4143 14.5588 81.8118 16.935 81.8118 20.1006C81.8118 26.1378 84.2141 29.1099 88.9169 29.1099C91.3192 29.1099 93.119 28.4133 94.2224 27.0279C95.3257 25.6424 95.9204 23.3669 95.9204 20.0929V19.7988C95.9204 16.5325 95.3179 14.1563 94.2224 12.7709C93.2207 11.1842 91.421 10.4954 88.9169 10.4954ZM118.644 9.21053V10.596L114.239 10.8901C115.436 12.3762 116.039 13.9628 116.039 15.6424C116.039 17.7245 115.334 19.3034 113.934 20.596C112.533 21.8808 110.733 22.4768 108.425 22.4768C107.423 22.4768 106.727 22.4768 106.422 22.3762C105.623 22.7709 105.021 23.2663 104.622 23.7616C104.223 24.3576 104.019 24.8529 104.019 25.5418C104.019 26.2306 104.317 26.726 104.817 27.0279C105.318 27.322 106.218 27.5232 107.423 27.5232H111.125C113.425 27.5232 115.225 28.0186 116.43 28.9087C117.635 29.7988 118.331 31.1842 118.331 33.065C118.331 35.3406 117.432 37.0279 115.632 38.2121C113.832 39.3963 111.226 39.9923 107.822 39.9923C105.123 39.9923 103.018 39.4969 101.515 38.4056C100.013 37.4149 99.3165 35.9288 99.3165 34.1486C99.3165 32.6625 99.8173 31.4783 100.717 30.4876C101.617 29.4969 102.916 28.9009 104.418 28.5062C103.816 28.2121 103.221 27.8096 102.916 27.322C102.525 26.8421 102.313 26.2539 102.313 25.6424C102.313 24.257 103.213 22.9721 105.013 21.8808C103.816 21.3855 102.814 20.596 102.11 19.5046C101.406 18.4133 101.108 17.1285 101.108 15.743C101.108 13.661 101.813 11.8808 103.112 10.596C104.512 9.31114 106.312 8.71517 108.62 8.71517C110.021 8.71517 111.125 8.81579 111.923 9.10991H118.629V9.21053H118.644ZM101.226 33.9628C101.226 36.8344 103.425 38.3204 107.83 38.3204C113.433 38.3204 116.242 36.5402 116.242 32.9721C116.242 31.6873 115.843 30.7972 114.943 30.2012C114.043 29.6053 112.643 29.3111 110.639 29.3111H107.134C103.229 29.404 101.226 30.8901 101.226 33.9628ZM102.932 15.743C102.932 17.4226 103.432 18.6146 104.434 19.6053C105.436 20.4954 106.735 20.9907 108.441 20.9907C110.24 20.9907 111.641 20.4954 112.541 19.6053C113.542 18.7152 113.942 17.4303 113.942 15.743C113.942 13.9628 113.441 12.5774 112.439 11.6873C111.438 10.7972 110.139 10.3019 108.339 10.3019C106.641 10.3019 105.232 10.7972 104.332 11.7879C103.331 12.6703 102.932 14.0557 102.932 15.743Z" fill="white"/>
<path d="M128.355 30.7895C125.249 30.7895 122.846 29.7988 121.047 27.918C119.349 26.0372 118.441 23.3669 118.441 19.8994C118.441 16.5325 119.239 13.7616 120.945 11.7802C122.643 9.69815 124.85 8.70744 127.753 8.70744C130.257 8.70744 132.26 9.59754 133.762 11.2848C135.265 13.065 135.961 15.4412 135.961 18.4133V20H120.546C120.546 22.8715 121.25 25.1471 122.651 26.6331C123.95 28.2198 125.953 28.9087 128.457 28.9087C129.654 28.9087 130.758 28.8081 131.657 28.6146C132.557 28.4133 133.762 28.1192 135.163 27.5232V29.404C133.966 29.8994 132.863 30.2941 131.861 30.4954C130.758 30.6966 129.654 30.7895 128.355 30.7895ZM127.854 10.4954C125.75 10.4954 124.153 11.192 122.846 12.4768C121.649 13.8622 120.843 15.743 120.648 18.3204H133.864C133.864 15.8437 133.363 13.9629 132.26 12.5774C131.258 11.1842 129.756 10.4954 127.854 10.4954ZM147.073 8.80806C147.973 8.80806 148.974 8.90868 149.976 9.10218L149.577 10.983C148.654 10.7817 147.715 10.6811 146.776 10.6889C144.976 10.6889 143.473 11.4783 142.268 12.9644C141.071 14.5511 140.469 16.4319 140.469 18.8081V30.3948H138.465V9.21054H140.163L140.367 13.0728H140.469C141.368 11.4861 142.268 10.4025 143.27 9.80651C144.475 9.10992 145.672 8.80806 147.073 8.80806ZM26.152 0.990723H11.8321V20H31.0505V5.93654C31.0583 3.26626 28.8516 0.990723 26.152 0.990723ZM7.43439 0.990723H5.0321C2.33244 0.990723 0.0240479 3.16565 0.0240479 5.94428V8.32045H7.43439V0.990723ZM0.0240479 12.7709H7.43439V20.1006H0.0240479V12.7709ZM23.6479 31.7802H26.0502C28.7499 31.7802 31.0583 29.6053 31.0583 26.8266V24.4582H23.6479V31.7802ZM11.8321 24.4582H19.2424V31.7879H11.8321V24.4582ZM0.0240479 24.4582V26.8344C0.0240479 29.5047 2.22289 31.7879 5.0321 31.7879H7.43439V24.4582H0.0240479Z" fill="white"/>
</svg>
