<svg width="150" height="40" viewBox="0 0 150 40" fill="none" xmlns="http://www.w3.org/2000/svg">
<path d="M45.2686 30.3947V1.8808H47.2718V28.5139H60.9891V30.3947H45.2686ZM70.8957 30.7895C67.7891 30.7895 65.3868 29.7988 63.5871 27.918C61.889 26.0372 60.9813 23.3669 60.9813 19.8994C60.9813 16.5325 61.7795 13.7616 63.4853 11.7802C65.1834 9.69814 67.39 8.70743 70.2931 8.70743C72.7972 8.70743 74.8004 9.59752 76.3028 11.2848C77.8052 13.065 78.5016 15.4412 78.5016 18.4133V20H62.9845C62.9845 22.8715 63.6888 25.1471 65.0895 26.6331C66.3884 28.2198 68.3917 28.9087 70.8957 28.9087C72.0929 28.9087 73.1962 28.8081 74.0961 28.6146C74.996 28.4133 76.2011 28.1192 77.6018 27.5232V29.404C76.4045 29.8994 75.3012 30.2941 74.2996 30.4954C73.1806 30.6966 72.0381 30.7972 70.8957 30.7895ZM70.2931 10.4954C68.1882 10.4954 66.5919 11.1919 65.2851 12.4768C64.0879 13.8622 63.2819 15.743 63.0863 18.3204H76.3028C76.3028 15.8437 75.802 13.9628 74.6987 12.5774C73.6971 11.1842 72.1946 10.4954 70.2931 10.4954ZM88.9168 8.80805C90.4192 8.80805 91.8199 9.10217 92.9233 9.59752C94.0266 10.1935 95.0282 11.0836 95.9281 12.469H96.0298C95.9281 10.7895 95.9281 9.20279 95.9281 7.6161V0H97.8296V30.3947H96.5306L96.0298 27.1285C94.4257 29.5046 92.0234 30.7895 89.0186 30.7895C86.0137 30.7895 83.8149 29.8994 82.2107 28.0186C80.6066 26.2384 79.9102 23.5604 79.9102 20.1006C79.9102 16.4396 80.7083 13.661 82.2107 11.6873C83.7132 9.70588 86.0137 8.80805 88.9168 8.80805ZM88.9168 10.4954C86.6162 10.4954 84.8165 11.2848 83.6114 12.9721C82.4142 14.5588 81.8116 16.935 81.8116 20.1006C81.8116 26.1378 84.214 29.1099 88.9168 29.1099C91.3191 29.1099 93.1189 28.4133 94.2222 27.0279C95.3256 25.6424 95.9203 23.3669 95.9203 20.0929V19.7988C95.9203 16.5325 95.3177 14.1563 94.2222 12.7709C93.2206 11.1842 91.4208 10.4954 88.9168 10.4954ZM118.644 9.21053V10.596L114.239 10.8901C115.436 12.3762 116.039 13.9628 116.039 15.6424C116.039 17.7245 115.334 19.3034 113.934 20.596C112.533 21.8808 110.733 22.4768 108.425 22.4768C107.423 22.4768 106.727 22.4768 106.422 22.3762C105.623 22.7709 105.021 23.2663 104.622 23.7616C104.223 24.3576 104.019 24.8529 104.019 25.5418C104.019 26.2306 104.317 26.726 104.817 27.0279C105.318 27.322 106.218 27.5232 107.423 27.5232H111.124C113.425 27.5232 115.225 28.0186 116.43 28.9087C117.635 29.7988 118.331 31.1842 118.331 33.065C118.331 35.3406 117.431 37.0279 115.632 38.2121C113.832 39.3963 111.226 39.9923 107.822 39.9923C105.123 39.9923 103.018 39.4969 101.515 38.4056C100.013 37.4149 99.3163 35.9288 99.3163 34.1486C99.3163 32.6625 99.8172 31.4783 100.717 30.4876C101.617 29.4969 102.916 28.9009 104.418 28.5062C103.816 28.2121 103.221 27.8096 102.916 27.322C102.525 26.8421 102.313 26.2539 102.313 25.6424C102.313 24.257 103.213 22.9721 105.013 21.8808C103.816 21.3855 102.814 20.596 102.11 19.5046C101.406 18.4133 101.108 17.1285 101.108 15.743C101.108 13.661 101.813 11.8808 103.112 10.596C104.512 9.31114 106.312 8.71517 108.62 8.71517C110.021 8.71517 111.124 8.81579 111.923 9.10991H118.629V9.21053H118.644ZM101.226 33.9628C101.226 36.8344 103.425 38.3204 107.83 38.3204C113.433 38.3204 116.242 36.5402 116.242 32.9721C116.242 31.6873 115.843 30.7972 114.943 30.2012C114.043 29.6053 112.642 29.3111 110.639 29.3111H107.134C103.229 29.404 101.226 30.8901 101.226 33.9628ZM102.932 15.743C102.932 17.4226 103.432 18.6146 104.434 19.6053C105.436 20.4954 106.735 20.9907 108.44 20.9907C110.24 20.9907 111.641 20.4954 112.541 19.6053C113.542 18.7152 113.941 17.4303 113.941 15.743C113.941 13.9628 113.441 12.5774 112.439 11.6873C111.437 10.7972 110.138 10.3019 108.339 10.3019C106.641 10.3019 105.232 10.7972 104.332 11.7879C103.331 12.6703 102.932 14.0557 102.932 15.743Z" fill="#343746"/>
<path d="M128.355 30.7895C125.249 30.7895 122.846 29.7988 121.047 27.918C119.348 26.0372 118.441 23.3669 118.441 19.8994C118.441 16.5325 119.239 13.7616 120.945 11.7802C122.643 9.69815 124.85 8.70744 127.753 8.70744C130.257 8.70744 132.26 9.59754 133.762 11.2848C135.265 13.065 135.961 15.4412 135.961 18.4133V20H120.546C120.546 22.8715 121.25 25.1471 122.651 26.6331C123.95 28.2198 125.953 28.9087 128.457 28.9087C129.654 28.9087 130.757 28.8081 131.657 28.6146C132.557 28.4133 133.762 28.1192 135.163 27.5232V29.404C133.966 29.8994 132.862 30.2941 131.861 30.4954C130.757 30.6966 129.654 30.7895 128.355 30.7895ZM127.854 10.4954C125.749 10.4954 124.153 11.192 122.846 12.4768C121.649 13.8622 120.843 15.743 120.647 18.3204H133.864C133.864 15.8437 133.363 13.9629 132.26 12.5774C131.258 11.1842 129.756 10.4954 127.854 10.4954ZM147.073 8.80806C147.973 8.80806 148.974 8.90868 149.976 9.10218L149.577 10.983C148.653 10.7817 147.714 10.6811 146.775 10.6889C144.976 10.6889 143.473 11.4783 142.268 12.9644C141.071 14.5511 140.468 16.4319 140.468 18.8081V30.3948H138.465V9.21054H140.163L140.367 13.0728H140.468C141.368 11.4861 142.268 10.4025 143.27 9.80651C144.475 9.10992 145.672 8.80806 147.073 8.80806ZM26.1519 0.990723H11.832V20H31.0503V5.93654C31.0582 3.26626 28.8515 0.990723 26.1519 0.990723ZM7.43427 0.990723H5.03197C2.33232 0.990723 0.0239258 3.16565 0.0239258 5.94428V8.32045H7.43427V0.990723ZM0.0239258 12.7709H7.43427V20.1006H0.0239258V12.7709ZM23.6478 31.7802H26.0501C28.7498 31.7802 31.0582 29.6053 31.0582 26.8266V24.4582H23.6478V31.7802ZM11.832 24.4582H19.2423V31.7879H11.832V24.4582ZM0.0239258 24.4582V26.8344C0.0239258 29.5047 2.22277 31.7879 5.03197 31.7879H7.43427V24.4582H0.0239258Z" fill="#343746"/>
</svg>
