<svg width="166" height="32" viewBox="0 0 166 32" fill="none" xmlns="http://www.w3.org/2000/svg">
<path d="M145.98 16.1356C145.127 15.5702 144.187 15.1682 143.297 14.6656C142.72 14.3389 142.105 14.0498 141.604 13.6352C140.751 12.9316 140.927 11.5495 141.817 10.9463C143.096 10.0919 145.215 10.5693 145.44 12.3159C145.44 12.3535 145.478 12.3787 145.516 12.3787H147.447C147.497 12.3787 147.535 12.341 147.522 12.2908C147.422 11.0845 146.958 10.0793 146.105 9.43847C145.29 8.82279 144.362 8.49609 143.371 8.49609C138.269 8.49609 137.804 13.9116 140.55 15.6205C140.864 15.8216 143.559 17.1785 144.513 17.7691C145.465 18.3596 145.767 19.4403 145.353 20.2947C144.976 21.0737 143.998 21.614 143.021 21.5512C141.954 21.4884 141.127 20.9104 140.839 20.0057C140.789 19.8424 140.763 19.5282 140.763 19.39C140.763 19.3523 140.726 19.3146 140.688 19.3146H138.595C138.557 19.3146 138.52 19.3523 138.52 19.39C138.52 20.9104 138.896 21.7522 139.924 22.5188C140.889 23.2475 141.942 23.5491 143.033 23.5491C145.892 23.5491 147.372 21.9281 147.672 20.2444C147.935 18.5984 147.447 17.1157 145.98 16.1356Z" fill="#151515"/>
<path d="M55.0669 8.77295H54.1391H53.1235C53.0859 8.77295 53.0608 8.79807 53.0482 8.82321L51.3306 14.5026C51.3055 14.5781 51.2053 14.5781 51.1802 14.5026L49.4624 8.82321C49.4499 8.78551 49.4248 8.77295 49.3872 8.77295H48.3717H47.4438H46.19C46.1524 8.77295 46.1147 8.81064 46.1147 8.84833V23.3485C46.1147 23.3861 46.1524 23.4238 46.19 23.4238H48.2838C48.3215 23.4238 48.3591 23.3861 48.3591 23.3485V12.3288C48.3591 12.2409 48.4845 12.2284 48.5096 12.3037L50.2398 18.0209L50.3651 18.4229C50.3777 18.4606 50.4028 18.4732 50.4404 18.4732H52.0453C52.0828 18.4732 52.1079 18.448 52.1205 18.4229L52.2458 18.0209L53.9761 12.3037C54.0012 12.2158 54.1266 12.2409 54.1266 12.3288V23.3485C54.1266 23.3861 54.1642 23.4238 54.2017 23.4238H56.2957C56.3332 23.4238 56.3708 23.3861 56.3708 23.3485V8.84833C56.3708 8.81064 56.3332 8.77295 56.2957 8.77295H55.0669Z" fill="#151515"/>
<path d="M113.919 8.77295C113.882 8.77295 113.857 8.79807 113.844 8.82321L112.127 14.5026C112.102 14.5781 112.002 14.5781 111.977 14.5026L110.259 8.82321C110.246 8.78551 110.221 8.77295 110.183 8.77295H106.999C106.961 8.77295 106.923 8.81064 106.923 8.84833V23.3485C106.923 23.3861 106.961 23.4238 106.999 23.4238H109.093C109.131 23.4238 109.168 23.3861 109.168 23.3485V12.3288C109.168 12.2409 109.294 12.2284 109.319 12.3037L111.048 18.0209L111.174 18.4229C111.186 18.4606 111.211 18.4732 111.249 18.4732H112.854C112.892 18.4732 112.917 18.448 112.929 18.4229L113.055 18.0209L114.785 12.3037C114.81 12.2158 114.936 12.2409 114.936 12.3288V23.3485C114.936 23.3861 114.973 23.4238 115.011 23.4238H117.104C117.142 23.4238 117.18 23.3861 117.18 23.3485V8.84833C117.18 8.81064 117.142 8.77295 117.104 8.77295H113.919Z" fill="#151515"/>
<path d="M86.913 8.77295H83.0137H80.9198H77.0206C76.9829 8.77295 76.9453 8.81064 76.9453 8.84833V10.6577C76.9453 10.6954 76.9829 10.7331 77.0206 10.7331H80.8447V23.3485C80.8447 23.3861 80.8822 23.4238 80.9198 23.4238H83.0137C83.0513 23.4238 83.0889 23.3861 83.0889 23.3485V10.7331H86.913C86.9507 10.7331 86.9882 10.6954 86.9882 10.6577V8.84833C86.9882 8.81064 86.9632 8.77295 86.913 8.77295Z" fill="#151515"/>
<path d="M99.2632 23.4233H101.168C101.218 23.4233 101.256 23.3731 101.244 23.3228L97.3069 8.77243C97.2943 8.73473 97.2693 8.72217 97.2316 8.72217H96.5046H95.2257H94.4985C94.4609 8.72217 94.4358 8.7473 94.4232 8.77243L90.4863 23.3228C90.4738 23.3731 90.5114 23.4233 90.5616 23.4233H92.4673C92.505 23.4233 92.53 23.3982 92.5426 23.3731L93.6836 19.1386C93.696 19.101 93.7211 19.0884 93.7587 19.0884H97.9719C98.0095 19.0884 98.0346 19.1135 98.0471 19.1386L99.1879 23.3731C99.2004 23.3982 99.2381 23.4233 99.2632 23.4233ZM94.2602 17.0151L95.7899 11.3482C95.8149 11.2729 95.9153 11.2729 95.9404 11.3482L97.47 17.0151C97.4825 17.0654 97.4449 17.1156 97.3947 17.1156H94.3355C94.2853 17.1156 94.2478 17.0654 94.2602 17.0151Z" fill="#151515"/>
<path d="M131.762 23.4233H133.667C133.717 23.4233 133.755 23.3731 133.742 23.3228L129.805 8.77243C129.793 8.73473 129.768 8.72217 129.73 8.72217H129.003H127.725H126.997C126.959 8.72217 126.934 8.7473 126.922 8.77243L122.985 23.3228C122.972 23.3731 123.01 23.4233 123.06 23.4233H124.966C125.004 23.4233 125.029 23.3982 125.042 23.3731L126.182 19.1386C126.195 19.101 126.22 19.0884 126.258 19.0884H130.47C130.508 19.0884 130.533 19.1135 130.546 19.1386L131.686 23.3731C131.699 23.3982 131.724 23.4233 131.762 23.4233ZM126.758 17.0151L128.288 11.3482C128.313 11.2729 128.414 11.2729 128.439 11.3482L129.968 17.0151C129.981 17.0654 129.943 17.1156 129.893 17.1156H126.834C126.784 17.1156 126.746 17.0654 126.758 17.0151Z" fill="#151515"/>
<path d="M64.8712 21.2748V16.7765C64.8712 16.7389 64.9089 16.7012 64.9465 16.7012H70.5258C70.5635 16.7012 70.6011 16.6634 70.6011 16.6257V14.8164C70.6011 14.7787 70.5635 14.741 70.5258 14.741H64.9465C64.9089 14.741 64.8712 14.7033 64.8712 14.6656V10.8207C64.8712 10.783 64.9089 10.7453 64.9465 10.7453H71.2907C71.3283 10.7453 71.366 10.7076 71.366 10.6699V8.86055C71.366 8.82286 71.3283 8.78516 71.2907 8.78516H64.8712H62.7022C62.6646 8.78516 62.627 8.82286 62.627 8.86055V10.7453V14.7535V16.7138V21.3628V23.3481C62.627 23.3858 62.6646 23.4235 62.7022 23.4235H64.8712H71.554C71.5916 23.4235 71.6293 23.3858 71.6293 23.3481V21.4382C71.6293 21.4005 71.5916 21.3628 71.554 21.3628H64.934C64.8963 21.3503 64.8712 21.3251 64.8712 21.2748Z" fill="#151515"/>
<path d="M165.112 23.2978L157.865 15.7964C157.84 15.7713 157.84 15.7211 157.865 15.696L164.386 8.91081C164.436 8.86055 164.398 8.78516 164.335 8.78516H161.665C161.64 8.78516 161.627 8.79772 161.615 8.81029L156.086 14.5651C156.035 14.6154 155.96 14.5776 155.96 14.5148V8.86055C155.96 8.82286 155.923 8.78516 155.885 8.78516H153.791C153.753 8.78516 153.715 8.82286 153.715 8.86055V23.3607C153.715 23.3984 153.753 23.4361 153.791 23.4361H155.885C155.923 23.4361 155.96 23.3984 155.96 23.3607V16.9776C155.96 16.9148 156.048 16.8771 156.086 16.9273L162.354 23.4109C162.367 23.4235 162.392 23.4361 162.404 23.4361H165.075C165.125 23.4235 165.163 23.3355 165.112 23.2978Z" fill="#151515"/>
<path d="M31.8087 0.969727L19.1328 10.3935L21.49 4.83978L31.8087 0.969727Z" fill="#E17726" stroke="#E17726" stroke-width="0.25" stroke-linecap="round" stroke-linejoin="round"/>
<path d="M2.56982 0.969727L15.1329 10.4815L12.8886 4.83977L2.56982 0.969727Z" fill="#E27625" stroke="#E27625" stroke-width="0.25" stroke-linecap="round" stroke-linejoin="round"/>
<path d="M27.2443 22.8203L23.8716 27.9971L31.0934 29.995L33.1623 22.9335L27.2443 22.8203Z" fill="#E27625" stroke="#E27625" stroke-width="0.25" stroke-linecap="round" stroke-linejoin="round"/>
<path d="M1.22852 22.9335L3.28473 29.995L10.4941 27.9971L7.1339 22.8203L1.22852 22.9335Z" fill="#E27625" stroke="#E27625" stroke-width="0.25" stroke-linecap="round" stroke-linejoin="round"/>
<path d="M10.1052 14.0749L8.09912 17.1157L15.2458 17.4424L15.0076 9.71484L10.1052 14.0749Z" fill="#E27625" stroke="#E27625" stroke-width="0.25" stroke-linecap="round" stroke-linejoin="round"/>
<path d="M24.2728 14.075L19.2953 9.62695L19.1323 17.4424L26.2789 17.1157L24.2728 14.075Z" fill="#E27625" stroke="#E27625" stroke-width="0.25" stroke-linecap="round" stroke-linejoin="round"/>
<path d="M10.4941 27.9973L14.8197 25.899L11.096 22.9839L10.4941 27.9973Z" fill="#E27625" stroke="#E27625" stroke-width="0.25" stroke-linecap="round" stroke-linejoin="round"/>
<path d="M19.5591 25.899L23.8721 27.9973L23.2828 22.9839L19.5591 25.899Z" fill="#E27625" stroke="#E27625" stroke-width="0.25" stroke-linecap="round" stroke-linejoin="round"/>
<path d="M23.8721 27.9973L19.5591 25.8989L19.9101 28.7135L19.8725 29.9072L23.8721 27.9973Z" fill="#D5BFB2" stroke="#D5BFB2" stroke-width="0.25" stroke-linecap="round" stroke-linejoin="round"/>
<path d="M10.4941 27.9973L14.5063 29.9072L14.4812 28.7135L14.8197 25.8989L10.4941 27.9973Z" fill="#D5BFB2" stroke="#D5BFB2" stroke-width="0.25" stroke-linecap="round" stroke-linejoin="round"/>
<path d="M14.581 21.1239L10.9951 20.0685L13.5278 18.8999L14.581 21.1239Z" fill="#233447" stroke="#233447" stroke-width="0.25" stroke-linecap="round" stroke-linejoin="round"/>
<path d="M19.7974 21.1239L20.8506 18.8999L23.3958 20.0685L19.7974 21.1239Z" fill="#233447" stroke="#233447" stroke-width="0.25" stroke-linecap="round" stroke-linejoin="round"/>
<path d="M10.4939 27.9971L11.1209 22.8203L7.13379 22.9335L10.4939 27.9971Z" fill="#CC6228" stroke="#CC6228" stroke-width="0.25" stroke-linecap="round" stroke-linejoin="round"/>
<path d="M23.2573 22.8203L23.8717 27.9971L27.2444 22.9335L23.2573 22.8203Z" fill="#CC6228" stroke="#CC6228" stroke-width="0.25" stroke-linecap="round" stroke-linejoin="round"/>
<path d="M26.2789 17.1157L19.1323 17.4424L19.7968 21.1241L20.85 18.9L23.3952 20.0685L26.2789 17.1157Z" fill="#CC6228" stroke="#CC6228" stroke-width="0.25" stroke-linecap="round" stroke-linejoin="round"/>
<path d="M10.9954 20.0685L13.528 18.9L14.5813 21.1241L15.2458 17.4424L8.09912 17.1157L10.9954 20.0685Z" fill="#CC6228" stroke="#CC6228" stroke-width="0.25" stroke-linecap="round" stroke-linejoin="round"/>
<path d="M8.09912 17.1157L11.0957 22.9837L10.9953 20.0685L8.09912 17.1157Z" fill="#E27525" stroke="#E27525" stroke-width="0.25" stroke-linecap="round" stroke-linejoin="round"/>
<path d="M23.3955 20.0685L23.2827 22.9837L26.2793 17.1157L23.3955 20.0685Z" fill="#E27525" stroke="#E27525" stroke-width="0.25" stroke-linecap="round" stroke-linejoin="round"/>
<path d="M15.2461 17.4424L14.5815 21.124L15.4216 25.4715L15.6097 19.7418L15.2461 17.4424Z" fill="#E27525" stroke="#E27525" stroke-width="0.25" stroke-linecap="round" stroke-linejoin="round"/>
<path d="M19.1324 17.4424L18.7812 19.7293L18.9568 25.4715L19.7968 21.124L19.1324 17.4424Z" fill="#E27525" stroke="#E27525" stroke-width="0.25" stroke-linecap="round" stroke-linejoin="round"/>
<path d="M19.7971 21.1244L18.957 25.4718L19.5589 25.8991L23.2827 22.9839L23.3955 20.0688L19.7971 21.1244Z" fill="#F5841F" stroke="#F5841F" stroke-width="0.25" stroke-linecap="round" stroke-linejoin="round"/>
<path d="M10.9951 20.0688L11.0955 22.9839L14.8192 25.8991L15.421 25.4718L14.581 21.1244L10.9951 20.0688Z" fill="#F5841F" stroke="#F5841F" stroke-width="0.25" stroke-linecap="round" stroke-linejoin="round"/>
<path d="M19.8726 29.907L19.9101 28.7133L19.5842 28.4368H14.7947L14.4812 28.7133L14.5063 29.907L10.4941 27.9971L11.8984 29.153L14.7445 31.1258H19.6217L22.4804 29.153L23.8721 27.9971L19.8726 29.907Z" fill="#C0AC9D" stroke="#C0AC9D" stroke-width="0.25" stroke-linecap="round" stroke-linejoin="round"/>
<path d="M19.5588 25.8988L18.957 25.4717H15.4213L14.8195 25.8988L14.481 28.7135L14.7944 28.437H19.5839L19.9099 28.7135L19.5588 25.8988Z" fill="#151515" stroke="#151515" stroke-width="0.25" stroke-linecap="round" stroke-linejoin="round"/>
<path d="M32.3477 11.0092L33.4135 5.80728L31.8086 0.969727L19.5591 10.0794L24.2733 14.0751L30.931 16.0227L32.3979 14.3013L31.7585 13.8363L32.774 12.9066L31.9967 12.3034L33.0123 11.5244L32.3477 11.0092Z" fill="#763E1A" stroke="#763E1A" stroke-width="0.25" stroke-linecap="round" stroke-linejoin="round"/>
<path d="M0.965332 5.80728L2.0436 11.0092L1.35401 11.5244L2.38212 12.3034L1.60477 12.9066L2.62034 13.8363L1.9809 14.3013L3.44785 16.0227L10.1056 14.0751L14.8198 10.0794L2.57019 0.969727L0.965332 5.80728Z" fill="#763E1A" stroke="#763E1A" stroke-width="0.25" stroke-linecap="round" stroke-linejoin="round"/>
<path d="M30.9309 16.0227L24.2732 14.0752L26.2793 17.116L23.2827 22.9838L27.2447 22.9336H33.1626L30.9309 16.0227Z" fill="#F5841F" stroke="#F5841F" stroke-width="0.25" stroke-linecap="round" stroke-linejoin="round"/>
<path d="M10.1054 14.0752L3.44773 16.0227L1.22852 22.9336H7.1339L11.0959 22.9838L8.09932 17.116L10.1054 14.0752Z" fill="#F5841F" stroke="#F5841F" stroke-width="0.25" stroke-linecap="round" stroke-linejoin="round"/>
<path d="M19.1326 17.4426L19.5589 10.0794L21.4897 4.83984H12.8887L14.8195 10.0794L15.2458 17.4426L15.4088 19.7546L15.4213 25.4717H18.957L18.9696 19.7546L19.1326 17.4426Z" fill="#F5841F" stroke="#F5841F" stroke-width="0.25" stroke-linecap="round" stroke-linejoin="round"/>
</svg>
