<svg width="166" height="32" viewBox="0 0 166 32" fill="none" xmlns="http://www.w3.org/2000/svg">
<path d="M145.98 16.1356C145.126 15.5702 144.186 15.1682 143.297 14.6656C142.719 14.3389 142.105 14.0498 141.604 13.6352C140.751 12.9316 140.926 11.5495 141.817 10.9463C143.096 10.0919 145.214 10.5693 145.44 12.3159C145.44 12.3535 145.478 12.3787 145.515 12.3787H147.447C147.497 12.3787 147.534 12.341 147.522 12.2908C147.422 11.0845 146.957 10.0793 146.105 9.43847C145.29 8.82279 144.362 8.49609 143.371 8.49609C138.268 8.49609 137.804 13.9116 140.55 15.6205C140.864 15.8216 143.559 17.1785 144.513 17.7691C145.465 18.3596 145.766 19.4403 145.352 20.2947C144.976 21.0737 143.998 21.614 143.021 21.5512C141.954 21.4884 141.127 20.9104 140.838 20.0057C140.788 19.8424 140.763 19.5282 140.763 19.39C140.763 19.3523 140.726 19.3146 140.688 19.3146H138.595C138.557 19.3146 138.519 19.3523 138.519 19.39C138.519 20.9104 138.896 21.7522 139.924 22.5188C140.889 23.2475 141.942 23.5491 143.033 23.5491C145.892 23.5491 147.371 21.9281 147.671 20.2444C147.935 18.5984 147.447 17.1157 145.98 16.1356Z" fill="white"/>
<path d="M55.0666 8.77295H54.1389H53.1233C53.0856 8.77295 53.0605 8.79807 53.048 8.82321L51.3304 14.5026C51.3053 14.5781 51.205 14.5781 51.1799 14.5026L49.4622 8.82321C49.4497 8.78551 49.4246 8.77295 49.3869 8.77295H48.3714H47.4436H46.1898C46.1521 8.77295 46.1145 8.81064 46.1145 8.84833V23.3485C46.1145 23.3861 46.1521 23.4238 46.1898 23.4238H48.2836C48.3212 23.4238 48.3589 23.3861 48.3589 23.3485V12.3288C48.3589 12.2409 48.4842 12.2284 48.5093 12.3037L50.2395 18.0209L50.3649 18.4229C50.3774 18.4606 50.4025 18.4732 50.4402 18.4732H52.045C52.0826 18.4732 52.1077 18.448 52.1202 18.4229L52.2456 18.0209L53.9759 12.3037C54.001 12.2158 54.1263 12.2409 54.1263 12.3288V23.3485C54.1263 23.3861 54.164 23.4238 54.2015 23.4238H56.2954C56.333 23.4238 56.3706 23.3861 56.3706 23.3485V8.84833C56.3706 8.81064 56.333 8.77295 56.2954 8.77295H55.0666Z" fill="white"/>
<path d="M113.919 8.77295C113.882 8.77295 113.857 8.79807 113.844 8.82321L112.127 14.5026C112.102 14.5781 112.002 14.5781 111.977 14.5026L110.259 8.82321C110.246 8.78551 110.221 8.77295 110.183 8.77295H106.999C106.961 8.77295 106.923 8.81064 106.923 8.84833V23.3485C106.923 23.3861 106.961 23.4238 106.999 23.4238H109.093C109.131 23.4238 109.168 23.3861 109.168 23.3485V12.3288C109.168 12.2409 109.294 12.2284 109.319 12.3037L111.048 18.0209L111.174 18.4229C111.186 18.4606 111.211 18.4732 111.249 18.4732H112.854C112.892 18.4732 112.917 18.448 112.929 18.4229L113.055 18.0209L114.785 12.3037C114.81 12.2158 114.936 12.2409 114.936 12.3288V23.3485C114.936 23.3861 114.973 23.4238 115.011 23.4238H117.104C117.142 23.4238 117.18 23.3861 117.18 23.3485V8.84833C117.18 8.81064 117.142 8.77295 117.104 8.77295H113.919Z" fill="white"/>
<path d="M86.9128 8.77295H83.0134H80.9196H77.0203C76.9827 8.77295 76.9451 8.81064 76.9451 8.84833V10.6577C76.9451 10.6954 76.9827 10.7331 77.0203 10.7331H80.8444V23.3485C80.8444 23.3861 80.882 23.4238 80.9196 23.4238H83.0134C83.0511 23.4238 83.0887 23.3861 83.0887 23.3485V10.7331H86.9128C86.9504 10.7331 86.988 10.6954 86.988 10.6577V8.84833C86.988 8.81064 86.963 8.77295 86.9128 8.77295Z" fill="white"/>
<path d="M99.2634 23.4233H101.169C101.219 23.4233 101.256 23.3731 101.244 23.3228L97.3071 8.77243C97.2946 8.73473 97.2695 8.72217 97.2319 8.72217H96.5048H95.226H94.4987C94.4611 8.72217 94.436 8.7473 94.4235 8.77243L90.4866 23.3228C90.474 23.3731 90.5117 23.4233 90.5618 23.4233H92.4676C92.5052 23.4233 92.5303 23.3982 92.5428 23.3731L93.6838 19.1386C93.6963 19.101 93.7213 19.0884 93.759 19.0884H97.9721C98.0097 19.0884 98.0348 19.1135 98.0474 19.1386L99.1881 23.3731C99.2007 23.3982 99.2383 23.4233 99.2634 23.4233ZM94.2605 17.0151L95.7902 11.3482C95.8152 11.2729 95.9155 11.2729 95.9406 11.3482L97.4702 17.0151C97.4828 17.0654 97.4451 17.1156 97.395 17.1156H94.3357C94.2855 17.1156 94.248 17.0654 94.2605 17.0151Z" fill="white"/>
<path d="M131.761 23.4233H133.666C133.717 23.4233 133.754 23.3731 133.742 23.3228L129.805 8.77243C129.793 8.73473 129.767 8.72217 129.73 8.72217H129.003H127.724H126.997C126.959 8.72217 126.934 8.7473 126.921 8.77243L122.985 23.3228C122.972 23.3731 123.01 23.4233 123.06 23.4233H124.966C125.004 23.4233 125.029 23.3982 125.041 23.3731L126.182 19.1386C126.195 19.101 126.22 19.0884 126.257 19.0884H130.47C130.508 19.0884 130.533 19.1135 130.545 19.1386L131.686 23.3731C131.699 23.3982 131.724 23.4233 131.761 23.4233ZM126.758 17.0151L128.288 11.3482C128.313 11.2729 128.413 11.2729 128.438 11.3482L129.968 17.0151C129.981 17.0654 129.943 17.1156 129.893 17.1156H126.833C126.783 17.1156 126.746 17.0654 126.758 17.0151Z" fill="white"/>
<path d="M64.8712 21.2748V16.7765C64.8712 16.7389 64.9089 16.7012 64.9465 16.7012H70.5258C70.5635 16.7012 70.6011 16.6634 70.6011 16.6257V14.8164C70.6011 14.7787 70.5635 14.741 70.5258 14.741H64.9465C64.9089 14.741 64.8712 14.7033 64.8712 14.6656V10.8207C64.8712 10.783 64.9089 10.7453 64.9465 10.7453H71.2907C71.3283 10.7453 71.366 10.7076 71.366 10.6699V8.86055C71.366 8.82286 71.3283 8.78516 71.2907 8.78516H64.8712H62.7022C62.6646 8.78516 62.627 8.82286 62.627 8.86055V10.7453V14.7535V16.7138V21.3628V23.3481C62.627 23.3858 62.6646 23.4235 62.7022 23.4235H64.8712H71.554C71.5916 23.4235 71.6293 23.3858 71.6293 23.3481V21.4382C71.6293 21.4005 71.5916 21.3628 71.554 21.3628H64.934C64.8963 21.3503 64.8712 21.3251 64.8712 21.2748Z" fill="white"/>
<path d="M165.112 23.2978L157.865 15.7964C157.84 15.7713 157.84 15.7211 157.865 15.696L164.385 8.91081C164.436 8.86055 164.398 8.78516 164.335 8.78516H161.665C161.64 8.78516 161.627 8.79772 161.615 8.81029L156.085 14.5651C156.035 14.6154 155.96 14.5776 155.96 14.5148V8.86055C155.96 8.82286 155.922 8.78516 155.885 8.78516H153.79C153.753 8.78516 153.715 8.82286 153.715 8.86055V23.3607C153.715 23.3984 153.753 23.4361 153.79 23.4361H155.885C155.922 23.4361 155.96 23.3984 155.96 23.3607V16.9776C155.96 16.9148 156.048 16.8771 156.085 16.9273L162.354 23.4109C162.366 23.4235 162.391 23.4361 162.404 23.4361H165.075C165.125 23.4235 165.162 23.3355 165.112 23.2978Z" fill="white"/>
<path d="M31.8086 0.969727L19.1327 10.3935L21.4899 4.83978L31.8086 0.969727Z" fill="#E17726" stroke="#E17726" stroke-width="0.25" stroke-linecap="round" stroke-linejoin="round"/>
<path d="M2.56995 0.969727L15.133 10.4815L12.8887 4.83977L2.56995 0.969727Z" fill="#E27625" stroke="#E27625" stroke-width="0.25" stroke-linecap="round" stroke-linejoin="round"/>
<path d="M27.2444 22.8203L23.8717 27.9971L31.0936 29.995L33.1624 22.9335L27.2444 22.8203Z" fill="#E27625" stroke="#E27625" stroke-width="0.25" stroke-linecap="round" stroke-linejoin="round"/>
<path d="M1.22839 22.9335L3.28461 29.995L10.494 27.9971L7.13378 22.8203L1.22839 22.9335Z" fill="#E27625" stroke="#E27625" stroke-width="0.25" stroke-linecap="round" stroke-linejoin="round"/>
<path d="M10.1052 14.0749L8.09912 17.1157L15.2458 17.4424L15.0076 9.71484L10.1052 14.0749Z" fill="#E27625" stroke="#E27625" stroke-width="0.25" stroke-linecap="round" stroke-linejoin="round"/>
<path d="M24.2729 14.075L19.2955 9.62695L19.1324 17.4424L26.279 17.1157L24.2729 14.075Z" fill="#E27625" stroke="#E27625" stroke-width="0.25" stroke-linecap="round" stroke-linejoin="round"/>
<path d="M10.494 27.9973L14.8196 25.899L11.0959 22.9839L10.494 27.9973Z" fill="#E27625" stroke="#E27625" stroke-width="0.25" stroke-linecap="round" stroke-linejoin="round"/>
<path d="M19.559 25.899L23.872 27.9973L23.2827 22.9839L19.559 25.899Z" fill="#E27625" stroke="#E27625" stroke-width="0.25" stroke-linecap="round" stroke-linejoin="round"/>
<path d="M23.872 27.9973L19.559 25.8989L19.91 28.7135L19.8723 29.9072L23.872 27.9973Z" fill="#D5BFB2" stroke="#D5BFB2" stroke-width="0.25" stroke-linecap="round" stroke-linejoin="round"/>
<path d="M10.494 27.9973L14.5062 29.9072L14.4811 28.7135L14.8196 25.8989L10.494 27.9973Z" fill="#D5BFB2" stroke="#D5BFB2" stroke-width="0.25" stroke-linecap="round" stroke-linejoin="round"/>
<path d="M14.5812 21.1239L10.9954 20.0685L13.528 18.8999L14.5812 21.1239Z" fill="#233447" stroke="#233447" stroke-width="0.25" stroke-linecap="round" stroke-linejoin="round"/>
<path d="M19.7972 21.1239L20.8505 18.8999L23.3957 20.0685L19.7972 21.1239Z" fill="#233447" stroke="#233447" stroke-width="0.25" stroke-linecap="round" stroke-linejoin="round"/>
<path d="M10.4938 27.9971L11.1208 22.8203L7.13367 22.9335L10.4938 27.9971Z" fill="#CC6228" stroke="#CC6228" stroke-width="0.25" stroke-linecap="round" stroke-linejoin="round"/>
<path d="M23.2573 22.8203L23.8717 27.9971L27.2444 22.9335L23.2573 22.8203Z" fill="#CC6228" stroke="#CC6228" stroke-width="0.25" stroke-linecap="round" stroke-linejoin="round"/>
<path d="M26.279 17.1157L19.1324 17.4424L19.7969 21.1241L20.8502 18.9L23.3954 20.0685L26.279 17.1157Z" fill="#CC6228" stroke="#CC6228" stroke-width="0.25" stroke-linecap="round" stroke-linejoin="round"/>
<path d="M10.9954 20.0685L13.528 18.9L14.5813 21.1241L15.2458 17.4424L8.09912 17.1157L10.9954 20.0685Z" fill="#CC6228" stroke="#CC6228" stroke-width="0.25" stroke-linecap="round" stroke-linejoin="round"/>
<path d="M8.09937 17.1157L11.096 22.9837L10.9956 20.0685L8.09937 17.1157Z" fill="#E27525" stroke="#E27525" stroke-width="0.25" stroke-linecap="round" stroke-linejoin="round"/>
<path d="M23.3954 20.0685L23.2826 22.9837L26.2792 17.1157L23.3954 20.0685Z" fill="#E27525" stroke="#E27525" stroke-width="0.25" stroke-linecap="round" stroke-linejoin="round"/>
<path d="M15.2461 17.4424L14.5815 21.124L15.4216 25.4715L15.6097 19.7418L15.2461 17.4424Z" fill="#E27525" stroke="#E27525" stroke-width="0.25" stroke-linecap="round" stroke-linejoin="round"/>
<path d="M19.1326 17.4424L18.7815 19.7293L18.957 25.4715L19.7971 21.124L19.1326 17.4424Z" fill="#E27525" stroke="#E27525" stroke-width="0.25" stroke-linecap="round" stroke-linejoin="round"/>
<path d="M19.7972 21.1244L18.9572 25.4718L19.559 25.8991L23.2828 22.9839L23.3956 20.0688L19.7972 21.1244Z" fill="#F5841F" stroke="#F5841F" stroke-width="0.25" stroke-linecap="round" stroke-linejoin="round"/>
<path d="M10.9954 20.0688L11.0957 22.9839L14.8194 25.8991L15.4213 25.4718L14.5813 21.1244L10.9954 20.0688Z" fill="#F5841F" stroke="#F5841F" stroke-width="0.25" stroke-linecap="round" stroke-linejoin="round"/>
<path d="M19.8724 29.907L19.91 28.7133L19.5841 28.4368H14.7946L14.4811 28.7133L14.5062 29.907L10.494 27.9971L11.8983 29.153L14.7444 31.1258H19.6216L22.4803 29.153L23.872 27.9971L19.8724 29.907Z" fill="#C0AC9D" stroke="#C0AC9D" stroke-width="0.25" stroke-linecap="round" stroke-linejoin="round"/>
<path d="M19.5589 25.8988L18.9571 25.4717H15.4214L14.8196 25.8988L14.4811 28.7135L14.7945 28.437H19.584L19.9101 28.7135L19.5589 25.8988Z" fill="white" stroke="white" stroke-width="0.25" stroke-linecap="round" stroke-linejoin="round"/>
<path d="M32.3476 11.0092L33.4134 5.80728L31.8085 0.969727L19.559 10.0794L24.2732 14.0751L30.9308 16.0227L32.3978 14.3013L31.7584 13.8363L32.7739 12.9066L31.9966 12.3034L33.0122 11.5244L32.3476 11.0092Z" fill="#763E1A" stroke="#763E1A" stroke-width="0.25" stroke-linecap="round" stroke-linejoin="round"/>
<path d="M0.965088 5.80728L2.04335 11.0092L1.35377 11.5244L2.38188 12.3034L1.60453 12.9066L2.6201 13.8363L1.98066 14.3013L3.44761 16.0227L10.1053 14.0751L14.8195 10.0794L2.56995 0.969727L0.965088 5.80728Z" fill="#763E1A" stroke="#763E1A" stroke-width="0.25" stroke-linecap="round" stroke-linejoin="round"/>
<path d="M30.9308 16.0227L24.2731 14.0752L26.2792 17.116L23.2826 22.9838L27.2446 22.9336H33.1625L30.9308 16.0227Z" fill="#F5841F" stroke="#F5841F" stroke-width="0.25" stroke-linecap="round" stroke-linejoin="round"/>
<path d="M10.1052 14.0752L3.44761 16.0227L1.22839 22.9336H7.13378L11.0957 22.9838L8.0992 17.116L10.1052 14.0752Z" fill="#F5841F" stroke="#F5841F" stroke-width="0.25" stroke-linecap="round" stroke-linejoin="round"/>
<path d="M19.1326 17.4426L19.5589 10.0794L21.4897 4.83984H12.8887L14.8195 10.0794L15.2458 17.4426L15.4088 19.7546L15.4213 25.4717H18.957L18.9696 19.7546L19.1326 17.4426Z" fill="#F5841F" stroke="#F5841F" stroke-width="0.25" stroke-linecap="round" stroke-linejoin="round"/>
</svg>
