<svg width="170" height="40" viewBox="0 0 170 40" fill="none" xmlns="http://www.w3.org/2000/svg">
<path fill-rule="evenodd" clip-rule="evenodd" d="M75.5904 28.0999C76.5174 25.4712 76.9726 22.6982 76.9347 19.9099C76.9712 17.1307 76.516 14.367 75.5904 11.7475C74.7645 9.41502 73.4771 7.27435 71.8056 5.45432C70.1644 3.70273 68.1672 2.32589 65.9493 1.41737C63.5568 0.45033 60.9971 -0.0308272 58.4182 0.00162276C55.8429 -0.0319299 53.2873 0.455135 50.9036 1.43391C48.6943 2.35007 46.7025 3.72376 45.0582 5.46534C43.3857 7.28041 42.0981 9.4177 41.2734 11.7475C40.3478 14.367 39.8927 17.1307 39.9292 19.9099C39.8913 22.6982 40.3464 25.4712 41.2734 28.0999C42.0981 30.4298 43.3857 32.567 45.0582 34.3821C46.7 36.1238 48.6927 37.4943 50.9036 38.4024C55.7426 40.2899 61.1103 40.2899 65.9493 38.4024C68.1641 37.4959 70.1607 36.1252 71.8056 34.3821C73.4782 32.567 74.7658 30.4298 75.5904 28.0999ZM72.9064 12.5828C73.6786 14.9463 74.051 17.423 74.0082 19.9101C74.0536 22.4009 73.6811 24.8817 72.9064 27.2485C72.2285 29.2786 71.1428 31.1477 69.7165 32.7398C68.3432 34.2483 66.6483 35.426 64.7582 36.1851C60.6794 37.7561 56.1657 37.7561 52.087 36.1851C50.1994 35.4214 48.5054 34.2443 47.1287 32.7398C45.6955 31.1488 44.6025 29.2799 43.9168 27.2485C43.1279 24.8843 42.7442 22.403 42.7819 19.9101C42.7515 17.4298 43.1371 14.9622 43.9223 12.6104C44.6032 10.5652 45.6965 8.68269 47.1342 7.08028C48.5134 5.576 50.2064 4.39583 52.0925 3.62404C56.1672 2.03116 60.689 2.03116 64.7637 3.62404C66.6523 4.39111 68.3463 5.57199 69.722 7.08028C71.1476 8.67615 72.2315 10.549 72.9064 12.5828Z" fill="#0364FF"/>
<path fill-rule="evenodd" clip-rule="evenodd" d="M107.201 39.9987C107.503 39.9987 107.674 39.6528 107.49 39.4136L94.6719 22.7667C94.3497 22.3267 93.952 21.9517 93.4975 21.6607C95.0704 21.4873 96.6102 21.0813 98.0705 20.4551C99.3503 19.9013 100.524 19.1145 101.534 18.1324C102.48 17.195 103.226 16.0652 103.726 14.8144C104.249 13.4931 104.509 12.0771 104.493 10.6502C104.482 7.21785 103.371 4.615 101.159 2.84167C98.9463 1.06834 95.6225 0.181641 91.1874 0.181641H81.6769C81.4753 0.181641 81.3123 0.344442 81.3123 0.545285V39.635C81.3123 39.8359 81.4753 39.9987 81.6769 39.9987H83.757C83.9579 39.9987 84.1217 39.8359 84.1217 39.635V22.3561C84.1217 22.1553 84.2847 21.9925 84.4864 21.9925H89.1822C89.5067 21.9894 89.8312 22.0098 90.1525 22.0534C90.3872 22.0784 90.6164 22.1399 90.833 22.2359C91.0315 22.3171 91.2126 22.4352 91.3694 22.5842C91.5348 22.7546 91.686 22.9396 91.8199 23.1372L104.204 39.2908C104.348 39.5246 104.549 39.7153 104.788 39.8438C105.032 39.955 105.298 40.0079 105.565 39.9987H107.201ZM95.3799 19.2164C93.8874 19.6611 92.3397 19.8754 90.7858 19.8525H84.4872C84.2855 19.8525 84.1225 19.6897 84.1225 19.4888V2.82379C84.1225 2.62295 84.2855 2.46015 84.4872 2.46015H91.1937C94.6207 2.46385 97.2277 3.14955 99.0148 4.51733C100.802 5.88511 101.695 7.98475 101.695 10.8162C101.715 12.1042 101.464 13.3812 100.961 14.56C100.47 15.6665 99.7355 16.6397 98.8163 17.4026C97.7987 18.2359 96.6307 18.8524 95.3799 19.2164Z" fill="#0364FF"/>
<path d="M126.708 37.4632C128.439 37.4951 130.157 37.16 131.75 36.4797C133.183 35.8519 134.466 34.9188 135.508 33.7444C136.559 32.541 137.36 31.1375 137.865 29.6167C138.413 27.9664 138.683 26.235 138.664 24.4945V0.727067C138.664 0.425881 138.909 0.181641 139.212 0.181641H140.929C141.231 0.181641 141.475 0.425881 141.475 0.727067V24.4945C141.494 26.5653 141.149 28.623 140.456 30.5728C139.812 32.3928 138.813 34.0647 137.519 35.4906C136.219 36.9156 134.633 38.0457 132.868 38.8059C128.913 40.3976 124.504 40.3976 120.55 38.8059C118.783 38.0472 117.197 36.9169 115.898 35.4906C114.603 34.0662 113.604 32.3938 112.961 30.5728C112.269 28.623 111.924 26.5653 111.942 24.4945V0.727067C111.942 0.425881 112.187 0.181641 112.489 0.181641H114.217C114.519 0.181641 114.764 0.425881 114.764 0.727067V24.4614C114.748 26.2043 115.022 27.9376 115.575 29.5892C116.079 31.1074 116.877 32.5101 117.92 33.7168C118.953 34.901 120.23 35.8438 121.662 36.4797C123.255 37.1659 124.976 37.5012 126.708 37.4632Z" fill="#0364FF"/>
<path d="M167.637 5.35334C167.517 5.63885 167.239 5.82386 166.932 5.82331C166.579 5.76392 166.257 5.58442 166.019 5.31458C165.544 4.90801 165.04 4.5383 164.51 4.20876C163.761 3.73745 162.961 3.35522 162.125 3.06971C159.774 2.33651 157.257 2.35581 154.918 3.125C153.925 3.48762 153.017 4.05219 152.249 4.78381C151.54 5.46502 150.981 6.29037 150.609 7.20566C150.241 8.12213 150.055 9.10288 150.062 10.0919C150.016 11.2411 150.302 12.379 150.888 13.3652C151.457 14.2479 152.202 15.0011 153.075 15.577C154.041 16.2089 155.079 16.7213 156.165 17.1031C157.313 17.5122 158.5 17.9214 159.714 18.325C160.927 18.7287 162.114 19.1765 163.263 19.6576C164.372 20.1199 165.411 20.7359 166.353 21.4878C167.26 22.2272 168.005 23.15 168.54 24.1971C169.129 25.4453 169.412 26.8183 169.365 28.2004C169.38 29.7736 169.104 31.3357 168.551 32.8063C168.016 34.2147 167.194 35.4937 166.139 36.5607C165.036 37.6572 163.722 38.5134 162.278 39.0766C160.609 39.7156 158.836 40.0271 157.051 39.9944C154.79 40.0553 152.544 39.5899 150.488 38.6342C148.817 37.8034 147.309 36.6744 146.036 35.303C145.819 35.0684 145.793 34.7172 145.963 34.4465L146.437 33.6966C146.61 33.444 146.893 33.29 147.197 33.2818C147.437 33.3187 147.658 33.4355 147.825 33.6136L148.75 34.4209C149.111 34.7471 149.548 35.0955 150.057 35.4715C150.61 35.877 151.202 36.227 151.823 36.5165C153.478 37.2888 155.283 37.678 157.105 37.6555C158.498 37.6797 159.884 37.4416 161.19 36.9533C162.318 36.5222 163.346 35.8638 164.214 35.018C165.04 34.2076 165.683 33.227 166.101 32.1428C166.543 31.0094 166.766 29.8004 166.757 28.5819C166.804 27.3917 166.516 26.2126 165.926 25.1814C165.364 24.2927 164.617 23.538 163.738 22.9696C162.774 22.347 161.738 21.8438 160.654 21.4713C159.5 21.0676 158.32 20.675 157.1 20.288C155.88 19.9009 154.704 19.4751 153.551 18.9941C152.438 18.5424 151.397 17.9275 150.462 17.1694C149.546 16.4161 148.8 15.4735 148.274 14.4048C147.677 13.1003 147.392 11.6721 147.443 10.2357C147.443 8.94252 147.691 7.66161 148.176 6.46475C148.666 5.25913 149.397 4.16923 150.324 3.26323C151.336 2.29981 152.525 1.54818 153.825 1.05151C155.339 0.458355 156.952 0.163705 158.576 0.183396C160.412 0.154569 162.237 0.481117 163.952 1.14555C165.422 1.7506 166.767 2.62581 167.918 3.72525C168.144 3.94042 168.192 4.27871 168.049 4.55555L167.637 5.35334Z" fill="#0364FF"/>
<path fill-rule="evenodd" clip-rule="evenodd" d="M3.74232 0.181641C1.6755 0.181641 0 1.85061 0 3.90937V8.25183C0 10.3106 1.6755 11.9796 3.74232 11.9796H10.3635V36.272C10.3635 38.3307 12.039 39.9997 14.1058 39.9997H18.4654C20.5322 39.9997 22.2077 38.3307 22.2077 36.272V8.28342C22.2077 8.27294 22.2078 8.26239 22.2078 8.25183V3.90937C22.2078 1.85061 20.5323 0.181641 18.4654 0.181641H14.1058H3.74232Z" fill="#0364FF"/>
<path d="M31.0915 11.9796C34.3621 11.9796 37.0136 9.33851 37.0136 6.0806C37.0136 2.82269 34.3621 0.181641 31.0915 0.181641C27.8208 0.181641 25.1694 2.82269 25.1694 6.0806C25.1694 9.33851 27.8208 11.9796 31.0915 11.9796Z" fill="#0016DE"/>
</svg>
