<svg width="142" height="40" viewBox="0 0 142 40" fill="none" xmlns="http://www.w3.org/2000/svg">
<path d="M13.7665 0C8.29458 0 3.85817 4.44369 3.85817 9.92509V13.636C1.93791 13.9801 0 14.4553 0 15.0627V34.5063C0 34.5063 3.32199e-07 35.0515 0.592868 35.2876C2.78205 36.1602 11.3769 39.2116 13.3494 39.9104C13.6093 40.0025 13.6641 40 13.7542 40C13.8489 40 13.8979 40.0032 14.1557 39.9118C16.1245 39.2147 24.7491 36.1555 26.9245 35.2927C27.4895 35.0687 27.5058 34.5142 27.5058 34.5142V15.0636C27.5058 14.4565 25.5948 13.9801 23.6743 13.6358V9.92486C23.6746 4.44369 19.2384 0 13.7665 0ZM13.7665 4.7433C16.9851 4.7433 18.9432 6.70101 18.9432 9.92509V13.158C15.3091 12.8928 12.221 12.8928 8.58649 13.158V9.92509C8.58649 6.70078 10.5474 4.7433 13.7665 4.7433ZM13.7537 17.9309C18.2563 17.9381 22.0413 18.274 22.0413 18.916C22.0413 18.916 22.0413 30.8542 22.0413 31.0307C22.0413 31.2075 22.0135 31.2373 21.846 31.3008C21.6788 31.3645 14.148 34.0906 14.148 34.0906C14.148 34.0906 13.8389 34.1934 13.7539 34.1934C13.6576 34.1934 13.3482 34.0864 13.3482 34.0864C13.3482 34.0864 5.8207 31.3629 5.65164 31.2989C5.48235 31.2352 5.46052 31.2022 5.46052 31.024C5.46052 30.8276 5.46052 18.9155 5.46052 18.9155C5.46052 18.2561 9.25134 17.9236 13.7537 17.9309Z" fill="white"/>
<path d="M40.2697 31.2013V17.9277H35.4395V13.1699H50.5257V17.9277H45.7214V31.2013H40.2697Z" fill="white"/>
<path d="M62.7514 31.2013L60.2689 25.5245H58.2987V31.2013H52.8474V13.1699H62.4547C66.6644 13.1699 68.9321 15.9812 68.9321 19.3603C68.9321 22.47 67.1236 24.1183 65.6936 24.8213L68.9594 31.2011H62.7517V31.2013H62.7514ZM63.3991 19.333C63.3991 18.3603 62.5355 17.9272 61.6177 17.9272H58.298V20.7656H61.6177C62.5355 20.7654 63.3991 20.3339 63.3991 19.333Z" fill="white"/>
<path d="M71.7871 31.2013V13.1699H85.443V17.9277H77.2386V19.712H85.2543V24.4705H77.2386V26.4431H85.443V31.2013H71.7871Z" fill="white"/>
<path d="M88.2812 31.2045V26.8794L95.1357 17.9311H88.2812V13.1733H102.341V17.4715L95.4595 26.4468H102.53V31.2045H88.2812Z" fill="white"/>
<path d="M103.865 22.2029C103.865 16.6606 108.156 12.876 113.716 12.876C119.274 12.876 123.566 16.6606 123.566 22.2029C123.566 27.7444 119.274 31.529 113.716 31.529C108.156 31.529 103.865 27.7444 103.865 22.2029ZM118.034 22.2029C118.034 19.6882 116.334 17.688 113.716 17.688C111.098 17.688 109.397 19.6884 109.397 22.2029C109.397 24.7168 111.097 26.7168 113.716 26.7168C116.333 26.7168 118.034 24.7163 118.034 22.2029Z" fill="white"/>
<path d="M135.792 31.2045L133.311 25.5277H131.34V31.2045H125.888V13.1733H135.496C139.707 13.1733 141.974 15.9846 141.974 19.3635C141.974 22.4732 140.165 24.1215 138.735 24.8249L142 31.2048H135.792V31.2045ZM136.441 19.3364C136.441 18.3635 135.577 17.9306 134.659 17.9306H131.339V20.7691H134.659C135.576 20.7693 136.441 20.3373 136.441 19.3364Z" fill="white"/>
</svg>
