<svg width="163" height="38" viewBox="0 0 163 38" fill="none" xmlns="http://www.w3.org/2000/svg">
<path fill-rule="evenodd" clip-rule="evenodd" d="M1.29401 6.48375C6.31809e-06 9.025 0 12.35 0 19C0 25.65 6.31809e-06 28.975 1.29401 31.5163C2.43401 33.7488 4.25099 35.5656 6.48399 36.7056C9.02499 38 12.35 38 19 38C25.65 38 28.975 38 31.516 36.7056C33.749 35.5656 35.566 33.7488 36.706 31.5163C38 28.975 38 25.65 38 19C38 12.35 38 9.025 36.706 6.48375C35.566 4.25125 33.749 2.43438 31.516 1.29438C28.975 0 25.65 0 19 0C12.35 0 9.02499 0 6.48399 1.29438C4.25099 2.43438 2.43401 4.25125 1.29401 6.48375ZM28.482 10.2481C28.815 10.2481 29.129 10.3847 29.361 10.6163C29.593 10.8538 29.723 11.1744 29.717 11.5009C29.658 15.0397 29.521 17.7472 29.266 19.8906C29.017 22.0341 28.643 23.6253 28.079 24.9138C27.699 25.7747 27.229 26.4872 26.677 27.0928C25.935 27.8944 25.086 28.4763 24.16 29.0285C23.764 29.2653 23.352 29.4991 22.92 29.7444C21.999 30.2677 20.985 30.8431 19.837 31.6113C19.422 31.8903 18.881 31.8903 18.466 31.6113C17.3 30.8341 16.273 30.2516 15.343 29.7241C15.137 29.6068 14.935 29.4922 14.737 29.3788C13.65 28.7494 12.671 28.1497 11.816 27.2828C11.246 26.7128 10.753 26.0181 10.361 25.1928C9.82699 24.0884 9.46401 22.7525 9.19701 21.0247C8.84101 18.715 8.66301 15.6928 8.59801 11.5009C8.59201 11.1744 8.716 10.8538 8.948 10.6163C9.179 10.3847 9.49999 10.2481 9.83299 10.2481H10.343C11.917 10.2541 15.39 10.0997 18.394 7.76032C18.84 7.41594 19.463 7.41594 19.909 7.76032C22.913 10.0997 26.386 10.2541 27.966 10.2481H28.482ZM25.721 24.1241C26.107 23.3284 26.428 22.23 26.671 20.6506C26.962 18.7625 27.14 16.1975 27.224 12.7063C25.371 12.6528 22.189 12.2966 19.154 10.2541C16.12 12.2906 12.938 12.6469 11.091 12.7063C11.157 15.5919 11.287 17.8363 11.495 19.5997C11.733 21.6066 12.071 22.9663 12.493 23.9222C12.772 24.5575 13.08 25.0147 13.449 25.4184C13.941 25.9588 14.565 26.4041 15.414 26.9147C15.766 27.126 16.154 27.3458 16.577 27.5851C17.33 28.0113 18.192 28.4993 19.154 29.1116C20.099 28.5093 20.949 28.0263 21.693 27.6032C21.917 27.4757 22.132 27.3536 22.337 27.2353C23.382 26.6356 24.154 26.1369 24.73 25.555C25.116 25.1572 25.43 24.7238 25.721 24.1241Z" fill="white"/>
<path d="M52.8869 15.2079H48.6309V12.6999H60.2209V15.2079H55.9649V25.9999H52.8869V15.2079ZM63.7059 17.1269C64.0609 16.6329 64.5359 16.2592 65.1309 16.0059C65.7389 15.7526 66.4359 15.6259 67.2209 15.6259V18.3619C66.8919 18.3366 66.6699 18.3239 66.5559 18.3239C65.7069 18.3239 65.0419 18.5646 64.5609 19.0459C64.0799 19.5146 63.8389 20.2239 63.8389 21.1739V25.9999H60.8749V15.7779H63.7059V17.1269ZM78.7859 15.7779V25.9999H75.9739V24.7839C75.5809 25.2272 75.1119 25.5692 74.5679 25.8099C74.0229 26.0379 73.4339 26.1519 72.8009 26.1519C71.4579 26.1519 70.3939 25.7656 69.6089 24.9929C68.8229 24.2202 68.4309 23.0739 68.4309 21.5539V15.7779H71.3949V21.1169C71.3949 22.7636 72.0849 23.5869 73.4659 23.5869C74.1749 23.5869 74.7449 23.3589 75.1759 22.9029C75.6059 22.4342 75.8219 21.7439 75.8219 20.8319V15.7779H78.7859ZM84.4009 26.1519C83.5519 26.1519 82.7219 26.0506 81.9119 25.8479C81.1009 25.6326 80.4549 25.3666 79.9739 25.0499L80.9619 22.9219C81.4179 23.2132 81.9689 23.4539 82.6149 23.6439C83.2609 23.8212 83.8939 23.9099 84.5149 23.9099C85.7689 23.9099 86.3959 23.5996 86.3959 22.9789C86.3959 22.6876 86.2249 22.4786 85.8829 22.3519C85.5409 22.2252 85.0149 22.1176 84.3059 22.0289C83.4699 21.9022 82.7789 21.7566 82.2349 21.5919C81.6899 21.4272 81.2149 21.1359 80.8099 20.7179C80.4169 20.2999 80.2209 19.7046 80.2209 18.9319C80.2209 18.2859 80.4039 17.7159 80.7719 17.2219C81.1519 16.7152 81.6959 16.3226 82.4059 16.0439C83.1279 15.7652 83.9759 15.6259 84.9519 15.6259C85.6739 15.6259 86.3889 15.7082 87.0989 15.8729C87.8209 16.0249 88.4159 16.2402 88.8849 16.5189L87.8969 18.6279C86.9969 18.1212 86.0159 17.8679 84.9519 17.8679C84.3179 17.8679 83.8429 17.9566 83.5269 18.1339C83.2099 18.3112 83.0519 18.5392 83.0519 18.8179C83.0519 19.1346 83.2229 19.3562 83.5649 19.4829C83.9069 19.6096 84.4509 19.7299 85.1989 19.8439C86.0349 19.9832 86.7189 20.1352 87.2509 20.2999C87.7829 20.4519 88.2449 20.7369 88.6379 21.1549C89.0299 21.5729 89.2269 22.1556 89.2269 22.9029C89.2269 23.5362 89.0369 24.0999 88.6569 24.5939C88.2769 25.0879 87.7189 25.4742 86.9849 25.7529C86.2629 26.0189 85.4009 26.1519 84.4009 26.1519ZM97.0779 25.5059C96.7869 25.7212 96.4259 25.8859 95.9949 25.9999C95.5769 26.1012 95.1339 26.1519 94.6649 26.1519C93.4489 26.1519 92.5059 25.8416 91.8339 25.2209C91.1759 24.6002 90.8459 23.6882 90.8459 22.4849V18.2859H89.2689V16.0059H90.8459V13.5169H93.8099V16.0059H96.3559V18.2859H93.8099V22.4469C93.8099 22.8776 93.9179 23.2132 94.1329 23.4539C94.3609 23.6819 94.6779 23.7959 95.0829 23.7959C95.5519 23.7959 95.9509 23.6692 96.2799 23.4159L97.0779 25.5059ZM123.294 12.6999L118.943 25.9999H115.637L112.711 16.9939L109.69 25.9999H106.403L102.033 12.6999H105.225L108.227 22.0479L111.362 12.6999H114.212L117.252 22.1239L120.349 12.6999H123.294ZM127.596 15.6259C129.179 15.6259 130.395 16.0059 131.244 16.7659C132.092 17.5132 132.517 18.6469 132.517 20.1669V25.9999H129.743V24.7269C129.185 25.6769 128.147 26.1519 126.627 26.1519C125.841 26.1519 125.157 26.0189 124.575 25.7529C124.005 25.4869 123.568 25.1196 123.264 24.6509C122.96 24.1822 122.808 23.6502 122.808 23.0549C122.808 22.1049 123.162 21.3576 123.872 20.8129C124.594 20.2682 125.702 19.9959 127.197 19.9959H129.553C129.553 19.3499 129.356 18.8559 128.964 18.5139C128.571 18.1592 127.982 17.9819 127.197 17.9819C126.652 17.9819 126.114 18.0706 125.582 18.2479C125.062 18.4126 124.619 18.6406 124.252 18.9319L123.188 16.8609C123.745 16.4682 124.41 16.1642 125.183 15.9489C125.968 15.7336 126.772 15.6259 127.596 15.6259ZM127.368 24.1569C127.874 24.1569 128.324 24.0429 128.717 23.8149C129.109 23.5742 129.388 23.2259 129.553 22.7699V21.7249H127.52C126.304 21.7249 125.696 22.1239 125.696 22.9219C125.696 23.3019 125.841 23.6059 126.133 23.8339C126.437 24.0492 126.848 24.1569 127.368 24.1569ZM134.629 11.9019H137.593V25.9999H134.629V11.9019ZM139.774 11.9019H142.738V25.9999H139.774V11.9019ZM154.932 20.9269C154.932 20.9649 154.913 21.2309 154.875 21.7249H147.142C147.281 22.3582 147.611 22.8586 148.13 23.2259C148.649 23.5932 149.295 23.7769 150.068 23.7769C150.6 23.7769 151.069 23.7009 151.474 23.5489C151.892 23.3842 152.278 23.1309 152.633 22.7889L154.21 24.4989C153.247 25.6009 151.841 26.1519 149.992 26.1519C148.839 26.1519 147.82 25.9302 146.933 25.4869C146.046 25.0309 145.362 24.4039 144.881 23.6059C144.4 22.8079 144.159 21.9022 144.159 20.8889C144.159 19.8882 144.393 18.9889 144.862 18.1909C145.343 17.3802 145.996 16.7532 146.819 16.3099C147.655 15.8539 148.586 15.6259 149.612 15.6259C150.613 15.6259 151.518 15.8412 152.329 16.2719C153.14 16.7026 153.773 17.3232 154.229 18.1339C154.698 18.9319 154.932 19.8629 154.932 20.9269ZM149.631 17.8679C148.96 17.8679 148.396 18.0579 147.94 18.4379C147.484 18.8179 147.205 19.3372 147.104 19.9959H152.139C152.038 19.3499 151.759 18.8369 151.303 18.4569C150.847 18.0642 150.29 17.8679 149.631 17.8679ZM162.928 25.5059C162.637 25.7212 162.276 25.8859 161.845 25.9999C161.427 26.1012 160.984 26.1519 160.515 26.1519C159.299 26.1519 158.356 25.8416 157.684 25.2209C157.026 24.6002 156.696 23.6882 156.696 22.4849V18.2859H155.119V16.0059H156.696V13.5169H159.66V16.0059H162.206V18.2859H159.66V22.4469C159.66 22.8776 159.768 23.2132 159.983 23.4539C160.211 23.6819 160.528 23.7959 160.933 23.7959C161.402 23.7959 161.801 23.6692 162.13 23.4159L162.928 25.5059Z" fill="white"/>
</svg>
