<svg width="164" height="38" viewBox="0 0 164 38" fill="none" xmlns="http://www.w3.org/2000/svg">
<path fill-rule="evenodd" clip-rule="evenodd" d="M1.29438 6.48375C0 9.025 0 12.35 0 19C0 25.65 0 28.975 1.29438 31.5163C2.43438 33.7488 4.25125 35.5656 6.48375 36.7056C9.025 38 12.35 38 19 38C25.65 38 28.975 38 31.5163 36.7056C33.7488 35.5656 35.5656 33.7488 36.7056 31.5163C38 28.975 38 25.65 38 19C38 12.35 38 9.025 36.7056 6.48375C35.5656 4.25125 33.7488 2.43438 31.5163 1.29438C28.975 0 25.65 0 19 0C12.35 0 9.025 0 6.48375 1.29438C4.25125 2.43438 2.43438 4.25125 1.29438 6.48375ZM28.4822 10.2481C28.8147 10.2481 29.1294 10.3847 29.361 10.6163C29.5925 10.8538 29.7232 11.1744 29.7172 11.5009C29.6579 15.0397 29.5213 17.7472 29.266 19.8906C29.0166 22.0341 28.6425 23.6253 28.0785 24.9138C27.6985 25.7747 27.2294 26.4872 26.6772 27.0928C25.935 27.8944 25.086 28.4763 24.1597 29.0285C23.7637 29.2653 23.352 29.4991 22.9201 29.7444C21.9986 30.2677 20.9854 30.8431 19.8372 31.6113C19.4216 31.8903 18.8813 31.8903 18.4657 31.6113C17.2999 30.8341 16.2733 30.2516 15.3434 29.7241C15.1366 29.6068 14.9346 29.4922 14.7369 29.3788C13.6504 28.7494 12.6707 28.1497 11.8157 27.2828C11.2457 26.7128 10.7529 26.0181 10.361 25.1928C9.82661 24.0884 9.46442 22.7525 9.19724 21.0247C8.84098 18.715 8.66286 15.6928 8.59755 11.5009C8.59161 11.1744 8.7163 10.8538 8.94786 10.6163C9.17942 10.3847 9.50005 10.2481 9.83255 10.2481H10.3432C11.9166 10.2541 15.39 10.0997 18.3944 7.76032C18.8397 7.41594 19.4632 7.41594 19.9085 7.76032C22.9129 10.0997 26.3863 10.2541 27.9657 10.2481H28.4822ZM25.7213 24.1241C26.1072 23.3284 26.4279 22.23 26.6713 20.6506C26.9622 18.7625 27.1404 16.1975 27.2235 12.7063C25.371 12.6528 22.1885 12.2966 19.1544 10.2541C16.1204 12.2906 12.9379 12.6469 11.0913 12.7063C11.1566 15.5919 11.2872 17.8363 11.495 19.5997C11.7325 21.6066 12.071 22.9663 12.4925 23.9222C12.7716 24.5575 13.0804 25.0147 13.4485 25.4184C13.9413 25.9588 14.5647 26.4041 15.4138 26.9147C15.766 27.126 16.1543 27.3458 16.577 27.5851C17.3301 28.0113 18.1923 28.4993 19.1544 29.1116C20.0988 28.5093 20.9486 28.0263 21.6929 27.6032C21.9173 27.4757 22.132 27.3536 22.3369 27.2353C23.3819 26.6356 24.1538 26.1369 24.7297 25.555C25.1157 25.1572 25.4304 24.7238 25.7213 24.1241Z" fill="#3375BB"/>
<path d="M53.3322 15.2079H49.0762V12.6999H60.6662V15.2079H56.4102V25.9999H53.3322V15.2079ZM64.1517 17.1269C64.5063 16.6329 64.9813 16.2592 65.5767 16.0059C66.1847 15.7526 66.8813 15.6259 67.6667 15.6259V18.3619C67.3373 18.3366 67.1157 18.3239 67.0017 18.3239C66.153 18.3239 65.488 18.5646 65.0067 19.0459C64.5253 19.5146 64.2847 20.2239 64.2847 21.1739V25.9999H61.3207V15.7779H64.1517V17.1269ZM79.2313 15.7779V25.9999H76.4193V24.7839C76.0266 25.2272 75.558 25.5692 75.0133 25.8099C74.4686 26.0379 73.8796 26.1519 73.2463 26.1519C71.9036 26.1519 70.8396 25.7656 70.0543 24.9929C69.2689 24.2202 68.8763 23.0739 68.8763 21.5539V15.7779H71.8403V21.1169C71.8403 22.7636 72.5306 23.5869 73.9113 23.5869C74.6206 23.5869 75.1906 23.3589 75.6213 22.9029C76.052 22.4342 76.2673 21.7439 76.2673 20.8319V15.7779H79.2313ZM84.8462 26.1519C83.9976 26.1519 83.1679 26.0506 82.3572 25.8479C81.5466 25.6326 80.9006 25.3666 80.4192 25.0499L81.4072 22.9219C81.8632 23.2132 82.4142 23.4539 83.0602 23.6439C83.7062 23.8212 84.3396 23.9099 84.9602 23.9099C86.2142 23.9099 86.8412 23.5996 86.8412 22.9789C86.8412 22.6876 86.6702 22.4786 86.3282 22.3519C85.9862 22.2252 85.4606 22.1176 84.7512 22.0289C83.9152 21.9022 83.2249 21.7566 82.6802 21.5919C82.1356 21.4272 81.6606 21.1359 81.2552 20.7179C80.8626 20.2999 80.6662 19.7046 80.6662 18.9319C80.6662 18.2859 80.8499 17.7159 81.2172 17.2219C81.5972 16.7152 82.1419 16.3226 82.8512 16.0439C83.5732 15.7652 84.4219 15.6259 85.3972 15.6259C86.1192 15.6259 86.8349 15.7082 87.5442 15.8729C88.2662 16.0249 88.8616 16.2402 89.3302 16.5189L88.3422 18.6279C87.4429 18.1212 86.4612 17.8679 85.3972 17.8679C84.7639 17.8679 84.2889 17.9566 83.9722 18.1339C83.6556 18.3112 83.4972 18.5392 83.4972 18.8179C83.4972 19.1346 83.6682 19.3562 84.0102 19.4829C84.3522 19.6096 84.8969 19.7299 85.6442 19.8439C86.4802 19.9832 87.1642 20.1352 87.6962 20.2999C88.2282 20.4519 88.6906 20.7369 89.0832 21.1549C89.4759 21.5729 89.6722 22.1556 89.6722 22.9029C89.6722 23.5362 89.4822 24.0999 89.1022 24.5939C88.7222 25.0879 88.1649 25.4742 87.4302 25.7529C86.7082 26.0189 85.8469 26.1519 84.8462 26.1519ZM97.524 25.5059C97.2327 25.7212 96.8717 25.8859 96.441 25.9999C96.023 26.1012 95.5797 26.1519 95.111 26.1519C93.895 26.1519 92.9513 25.8416 92.28 25.2209C91.6213 24.6002 91.292 23.6882 91.292 22.4849V18.2859H89.715V16.0059H91.292V13.5169H94.256V16.0059H96.802V18.2859H94.256V22.4469C94.256 22.8776 94.3637 23.2132 94.579 23.4539C94.807 23.6819 95.1237 23.7959 95.529 23.7959C95.9977 23.7959 96.3967 23.6692 96.726 23.4159L97.524 25.5059ZM123.739 12.6999L119.388 25.9999H116.082L113.156 16.9939L110.135 25.9999H106.848L102.478 12.6999H105.67L108.672 22.0479L111.807 12.6999H114.657L117.697 22.1239L120.794 12.6999H123.739ZM128.041 15.6259C129.624 15.6259 130.84 16.0059 131.689 16.7659C132.538 17.5132 132.962 18.6469 132.962 20.1669V25.9999H130.188V24.7269C129.631 25.6769 128.592 26.1519 127.072 26.1519C126.287 26.1519 125.603 26.0189 125.02 25.7529C124.45 25.4869 124.013 25.1196 123.709 24.6509C123.405 24.1822 123.253 23.6502 123.253 23.0549C123.253 22.1049 123.608 21.3576 124.317 20.8129C125.039 20.2682 126.147 19.9959 127.642 19.9959H129.998C129.998 19.3499 129.802 18.8559 129.409 18.5139C129.016 18.1592 128.427 17.9819 127.642 17.9819C127.097 17.9819 126.559 18.0706 126.027 18.2479C125.508 18.4126 125.064 18.6406 124.697 18.9319L123.633 16.8609C124.19 16.4682 124.855 16.1642 125.628 15.9489C126.413 15.7336 127.218 15.6259 128.041 15.6259ZM127.813 24.1569C128.32 24.1569 128.769 24.0429 129.162 23.8149C129.555 23.5742 129.833 23.2259 129.998 22.7699V21.7249H127.965C126.749 21.7249 126.141 22.1239 126.141 22.9219C126.141 23.3019 126.287 23.6059 126.578 23.8339C126.882 24.0492 127.294 24.1569 127.813 24.1569ZM135.075 11.9019H138.039V25.9999H135.075V11.9019ZM140.219 11.9019H143.183V25.9999H140.219V11.9019ZM155.377 20.9269C155.377 20.9649 155.358 21.2309 155.32 21.7249H147.587C147.727 22.3582 148.056 22.8586 148.575 23.2259C149.095 23.5932 149.741 23.7769 150.513 23.7769C151.045 23.7769 151.514 23.7009 151.919 23.5489C152.337 23.3842 152.724 23.1309 153.078 22.7889L154.655 24.4989C153.693 25.6009 152.287 26.1519 150.437 26.1519C149.285 26.1519 148.265 25.9302 147.378 25.4869C146.492 25.0309 145.808 24.4039 145.326 23.6059C144.845 22.8079 144.604 21.9022 144.604 20.8889C144.604 19.8882 144.839 18.9889 145.307 18.1909C145.789 17.3802 146.441 16.7532 147.264 16.3099C148.1 15.8539 149.031 15.6259 150.057 15.6259C151.058 15.6259 151.964 15.8412 152.774 16.2719C153.585 16.7026 154.218 17.3232 154.674 18.1339C155.143 18.9319 155.377 19.8629 155.377 20.9269ZM150.076 17.8679C149.405 17.8679 148.841 18.0579 148.385 18.4379C147.929 18.8179 147.651 19.3372 147.549 19.9959H152.584C152.483 19.3499 152.204 18.8369 151.748 18.4569C151.292 18.0642 150.735 17.8679 150.076 17.8679ZM163.374 25.5059C163.082 25.7212 162.721 25.8859 162.291 25.9999C161.873 26.1012 161.429 26.1519 160.961 26.1519C159.745 26.1519 158.801 25.8416 158.13 25.2209C157.471 24.6002 157.142 23.6882 157.142 22.4849V18.2859H155.565V16.0059H157.142V13.5169H160.106V16.0059H162.652V18.2859H160.106V22.4469C160.106 22.8776 160.213 23.2132 160.429 23.4539C160.657 23.6819 160.973 23.7959 161.379 23.7959C161.847 23.7959 162.246 23.6692 162.576 23.4159L163.374 25.5059Z" fill="#3375BB"/>
</svg>
