<svg width="100%" stroke-width="5" stroke="gray" height="170" viewBox="0 0 327 96" fill="white" xmlns="http://www.w3.org/2000/svg">
<path d="M-24 70.4304L-14.9664 57.8038L-10.0647 49.4447C-8.93647 47.5206 -8.3417 45.3305 -8.3417 43.1V34.6676C-8.3417 32.3974 -6.5013 30.557 -4.23105 30.557V30.557C-2.38837 30.557 -0.770826 29.3307 -0.27316 27.5565L0.803744 23.7173C1.25625 22.1041 2.133 20.6417 3.3427 19.4825L7.17498 15.8101C8.42531 14.6119 10.0901 13.943 11.8218 13.943V13.943C14.7557 13.943 17.35 15.8473 18.2293 18.6463L21.069 27.6853C21.667 29.5886 21.9712 31.572 21.9712 33.567V54.5366C21.9712 56.6922 22.4096 58.8253 23.2599 60.8061L26.1657 67.5751C26.9093 69.3075 28.6133 70.4304 30.4985 70.4304V70.4304C32.8581 70.4304 34.8544 72.1746 35.1711 74.5128L36.9137 87.3814C37.1187 88.8956 37.7627 90.3166 38.7661 91.469V91.469C42.5818 95.8514 49.6744 94.6918 51.8958 89.3225L59.1792 71.7176C59.5337 70.8605 59.8271 69.9794 60.057 69.0809L74.1655 13.943L76.8666 5.00121C78.0072 1.22542 82.9343 0.31089 85.3539 3.42586V3.42586C86.2742 4.61066 87.6903 5.3038 89.1905 5.3038H96.6492V5.3038C101.583 5.3038 105.861 8.71345 106.963 13.5225L112.132 36.0986C113.527 42.1885 118.945 46.5063 125.193 46.5063V46.5063C127.408 46.5063 129.589 45.957 131.54 44.9074L139.228 40.7718C142.773 38.8651 146.735 37.8671 150.759 37.8671V37.8671C161.145 37.8671 170.387 44.4569 173.771 54.2758L177.151 64.0809C182.435 79.4127 196.866 89.7025 213.083 89.7025V89.7025H226.642C235.02 89.7025 243.019 86.2105 248.715 80.0665L250.415 78.2329C255.027 73.2579 261.504 70.4304 268.288 70.4304V70.4304V70.4304C277.748 70.4304 286.767 66.4322 293.119 59.4227L294.586 57.8038L304.635 45.4829C308.25 41.0511 314.485 39.7765 319.549 42.4341V42.4341C324.173 44.8611 329.835 44.0273 333.564 40.3702L339.527 34.5211C342.183 31.9156 344.183 28.7166 345.361 25.1872L352 5.3038"  fill="none" />
</svg>
