<svg width="36" height="36" viewBox="0 0 36 36" fill="none" xmlns="http://www.w3.org/2000/svg">
<path fill-rule="evenodd" clip-rule="evenodd" d="M35.9146 19.765L29.9428 19.1838C29.9805 18.796 30 18.4012 30 18C30 17.5988 29.9805 17.204 29.9428 16.8162L35.9146 16.235C35.9711 16.8157 36 17.4045 36 18C36 18.5955 35.9711 19.1843 35.9146 19.765ZM35.2294 12.7731L29.4871 14.5128C29.2582 13.7572 28.9562 13.0324 28.5887 12.3463L33.8778 9.51335C34.4298 10.544 34.8845 11.6347 35.2294 12.7731ZM31.9147 6.58074L27.2788 10.3897C26.7784 9.78072 26.2193 9.22156 25.6103 8.7212L29.4193 4.08528C30.3302 4.8337 31.1663 5.66983 31.9147 6.58074ZM26.4867 2.12222L23.6537 7.41131C22.9676 7.04381 22.2428 6.74181 21.4872 6.51288L23.2269 0.770639C24.3653 1.11554 25.456 1.57016 26.4867 2.12222ZM19.765 0.0854343L19.1838 6.05722C18.796 6.01948 18.4012 6 18 6C17.5988 6 17.204 6.01948 16.8162 6.05722L16.235 0.0854339C16.8157 0.0289206 17.4045 0 18 0C18.5955 0 19.1843 0.0289207 19.765 0.0854343ZM12.7731 0.770638L14.5128 6.51288C13.7572 6.74181 13.0324 7.04381 12.3463 7.41131L9.51335 2.12222C10.544 1.57016 11.6347 1.11553 12.7731 0.770638ZM6.58074 4.08528L10.3897 8.7212C9.78072 9.22156 9.22156 9.78072 8.7212 10.3897L4.08528 6.58074C4.8337 5.66983 5.66983 4.8337 6.58074 4.08528ZM2.12222 9.51335L7.41131 12.3463C7.04381 13.0324 6.74181 13.7572 6.51288 14.5128L0.770639 12.7731C1.11554 11.6347 1.57016 10.544 2.12222 9.51335ZM0.0854342 16.235C0.0289207 16.8157 0 17.4045 0 18C0 18.5955 0.0289206 19.1843 0.0854339 19.765L6.05722 19.1838C6.01948 18.796 6 18.4012 6 18C6 17.5988 6.01948 17.204 6.05722 16.8162L0.0854342 16.235ZM0.770638 23.2269L6.51288 21.4872C6.74181 22.2428 7.04381 22.9676 7.41131 23.6537L2.12222 26.4867C1.57016 25.456 1.11554 24.3653 0.770638 23.2269ZM4.08528 29.4193L8.7212 25.6103C9.22156 26.2193 9.78072 26.7784 10.3897 27.2788L6.58074 31.9147C5.66983 31.1663 4.8337 30.3302 4.08528 29.4193ZM9.51335 33.8778L12.3463 28.5887C13.0324 28.9562 13.7572 29.2582 14.5128 29.4871L12.7731 35.2294C11.6347 34.8845 10.544 34.4298 9.51335 33.8778ZM16.235 35.9146L16.8162 29.9428C17.204 29.9805 17.5988 30 18 30C18.4012 30 18.796 29.9805 19.1838 29.9428L19.765 35.9146C19.1843 35.9711 18.5955 36 18 36C17.4045 36 16.8157 35.9711 16.235 35.9146ZM23.2269 35.2294C24.3653 34.8845 25.456 34.4298 26.4867 33.8778L23.6537 28.5887C22.9676 28.9562 22.2428 29.2582 21.4872 29.4871L23.2269 35.2294ZM29.4193 31.9147L25.6103 27.2788C26.2193 26.7784 26.7784 26.2193 27.2788 25.6103L31.9147 29.4193C31.1663 30.3302 30.3302 31.1663 29.4193 31.9147ZM33.8778 26.4867L28.5887 23.6537C28.9562 22.9676 29.2582 22.2428 29.4871 21.4872L35.2294 23.2269C34.8845 24.3653 34.4298 25.456 33.8778 26.4867Z" fill="#D9D9D9"/>
</svg>
