<svg width="36" height="36" viewBox="0 0 36 36" fill="none" xmlns="http://www.w3.org/2000/svg">
<path fill-rule="evenodd" clip-rule="evenodd" d="M35.993 18.5062L30.9949 18.3682C30.9983 18.246 31 18.1233 31 18C31 17.8767 30.9983 17.754 30.9949 17.6318L35.993 17.4938C35.9977 17.662 36 17.8307 36 18C36 18.1693 35.9977 18.338 35.993 18.5062ZM35.9372 16.4858L30.9545 16.9008C30.9341 16.6567 30.9071 16.4149 30.8736 16.1755L35.8253 15.4825C35.8717 15.8141 35.9091 16.1486 35.9372 16.4858ZM35.6574 14.4871L30.7524 15.4574C30.7052 15.2185 30.6514 14.9821 30.5913 14.7483L35.4336 13.5028C35.5171 13.8274 35.5918 14.1556 35.6574 14.4871ZM35.1545 12.532L30.3902 14.0493C30.3165 13.8176 30.2363 13.5888 30.15 13.3629L34.8209 11.5788C34.9407 11.8924 35.052 12.2103 35.1545 12.532ZM34.4341 10.646L29.8714 12.6909C29.7719 12.469 29.6664 12.2504 29.555 12.0352L33.9953 9.73658C34.1498 10.0349 34.2961 10.3382 34.4341 10.646ZM33.5061 8.85332L29.202 11.3977C29.0781 11.1882 28.9485 10.9824 28.8133 10.7805L32.9682 7.99892C33.1552 8.27829 33.3346 8.56319 33.5061 8.85332ZM32.3832 7.17587L28.3904 10.1854C28.2437 9.99086 28.0917 9.80047 27.9345 9.6145L31.7531 6.38676C31.9703 6.64373 32.1804 6.90687 32.3832 7.17587ZM31.0799 5.63405L27.4472 9.06966C27.2798 8.8926 27.1074 8.72022 26.9303 8.55276L30.3659 4.92005C30.6105 5.15137 30.8486 5.38947 31.0799 5.63405ZM29.6132 4.24694L26.3855 8.06554C26.1995 7.90834 26.0091 7.7563 25.8146 7.60964L28.8241 3.61683C29.0931 3.8196 29.3563 4.02973 29.6132 4.24694ZM28.0011 3.03182L25.2195 7.18666C25.0176 7.05149 24.8118 6.92188 24.6023 6.79804L27.1467 2.49385C27.4368 2.66536 27.7217 2.84478 28.0011 3.03182ZM26.2634 2.00466L23.9648 6.44498C23.7496 6.33357 23.531 6.22806 23.3091 6.12863L25.354 1.5659C25.6618 1.70386 25.965 1.85021 26.2634 2.00466ZM24.4212 1.17909L22.6371 5.84995C22.4112 5.76367 22.1823 5.68354 21.9507 5.60976L23.4679 0.845535C23.7897 0.948011 24.1076 1.05929 24.4212 1.17909ZM22.4972 0.566362L21.2517 5.40875C21.0179 5.34861 20.7815 5.29482 20.5426 5.24755L21.5129 0.342612C21.8444 0.408185 22.1726 0.482859 22.4972 0.566362ZM20.5175 0.174659L19.8245 5.1264C19.5851 5.09289 19.3433 5.06587 19.0992 5.04554L19.5142 0.0627905C19.8514 0.090873 20.1859 0.128248 20.5175 0.174659ZM18.5062 0.00698034L18.3682 5.00508C18.246 5.0017 18.1233 5 18 5C17.8767 5 17.754 5.0017 17.6318 5.00508L17.4938 0.0069805C17.662 0.002337 17.8307 0 18 0C18.1693 0 18.338 0.00233695 18.5062 0.00698034ZM16.4858 0.0627908L16.9008 5.04554C16.6567 5.06587 16.4149 5.09289 16.1755 5.1264L15.4825 0.17466C15.8141 0.128249 16.1486 0.0908734 16.4858 0.0627908ZM14.4871 0.342613L15.4574 5.24755C15.2185 5.29482 14.9821 5.34862 14.7483 5.40875L13.5028 0.566363C13.8274 0.48286 14.1556 0.408186 14.4871 0.342613ZM12.532 0.845537L14.0493 5.60977C13.8176 5.68355 13.5888 5.76367 13.3629 5.84995L11.5788 1.17909C11.8924 1.05929 12.2103 0.948013 12.532 0.845537ZM10.646 1.56591L12.6909 6.12863C12.469 6.22806 12.2504 6.33357 12.0352 6.44499L9.73658 2.00466C10.0349 1.85021 10.3382 1.70386 10.646 1.56591ZM8.85332 2.49385L11.3977 6.79804C11.1882 6.92188 10.9824 7.05149 10.7805 7.18667L7.99892 3.03182C8.27829 2.84479 8.56319 2.66537 8.85332 2.49385ZM7.17587 3.61684L10.1854 7.60964C9.99086 7.75631 9.80047 7.90834 9.6145 8.06554L6.38676 4.24694C6.64373 4.02974 6.90686 3.8196 7.17587 3.61684ZM5.63406 4.92005L9.06966 8.55276C8.8926 8.72022 8.72022 8.8926 8.55276 9.06967L4.92005 5.63406C5.15137 5.38947 5.38947 5.15137 5.63406 4.92005ZM4.24694 6.38676L8.06554 9.6145C7.90834 9.80048 7.7563 9.99086 7.60964 10.1854L3.61683 7.17588C3.8196 6.90687 4.02973 6.64373 4.24694 6.38676ZM3.03182 7.99892L7.18666 10.7805C7.05149 10.9824 6.92188 11.1882 6.79804 11.3977L2.49385 8.85333C2.66536 8.5632 2.84478 8.27829 3.03182 7.99892ZM2.00466 9.73659L6.44498 12.0352C6.33357 12.2504 6.22806 12.469 6.12863 12.6909L1.5659 10.646C1.70386 10.3382 1.85021 10.035 2.00466 9.73659ZM1.17909 11.5788L5.84995 13.3629C5.76367 13.5888 5.68354 13.8177 5.60976 14.0493L0.845535 12.5321C0.948011 12.2103 1.05929 11.8924 1.17909 11.5788ZM0.566362 13.5028L5.40875 14.7483C5.34861 14.9821 5.29482 15.2185 5.24755 15.4574L0.342612 14.4871C0.408185 14.1556 0.482859 13.8274 0.566362 13.5028ZM0.174659 15.4825L5.1264 16.1755C5.09289 16.4149 5.06587 16.6567 5.04554 16.9008L0.0627905 16.4858C0.090873 16.1486 0.128248 15.8141 0.174659 15.4825ZM0.00698034 17.4938C0.00233695 17.662 0 17.8307 0 18C0 18.1693 0.002337 18.338 0.0069805 18.5062L5.00508 18.3682C5.0017 18.246 5 18.1233 5 18C5 17.8767 5.0017 17.754 5.00508 17.6318L0.00698034 17.4938ZM0.0627908 19.5142L5.04554 19.0992C5.06587 19.3433 5.09289 19.5851 5.1264 19.8245L0.17466 20.5175C0.128249 20.1859 0.0908734 19.8514 0.0627908 19.5142ZM0.342613 21.5129L5.24755 20.5426C5.29482 20.7815 5.34862 21.0179 5.40875 21.2517L0.566363 22.4972C0.48286 22.1726 0.408186 21.8444 0.342613 21.5129ZM0.845537 23.468L5.60977 21.9507C5.68355 22.1824 5.76367 22.4112 5.84995 22.6371L1.17909 24.4212C1.05929 24.1076 0.948013 23.7897 0.845537 23.468ZM1.56591 25.354L6.12863 23.3091C6.22806 23.531 6.33357 23.7496 6.44499 23.9648L2.00466 26.2634C1.85021 25.9651 1.70386 25.6618 1.56591 25.354ZM2.49385 27.1467L6.79804 24.6023C6.92188 24.8118 7.05149 25.0176 7.18667 25.2195L3.03182 28.0011C2.84479 27.7217 2.66537 27.4368 2.49385 27.1467ZM3.61684 28.8241L7.60964 25.8146C7.75631 26.0091 7.90834 26.1995 8.06554 26.3855L4.24694 29.6132C4.02974 29.3563 3.8196 29.0931 3.61684 28.8241ZM4.92005 30.3659L8.55276 26.9303C8.72022 27.1074 8.8926 27.2798 9.06967 27.4472L5.63406 31.08C5.38947 30.8486 5.15137 30.6105 4.92005 30.3659ZM6.38676 31.7531L9.6145 27.9345C9.80048 28.0917 9.99086 28.2437 10.1854 28.3904L7.17588 32.3832C6.90687 32.1804 6.64373 31.9703 6.38676 31.7531ZM7.99892 32.9682L10.7805 28.8133C10.9824 28.9485 11.1882 29.0781 11.3977 29.202L8.85333 33.5061C8.5632 33.3346 8.27829 33.1552 7.99892 32.9682ZM9.73659 33.9953L12.0352 29.555C12.2504 29.6664 12.469 29.7719 12.6909 29.8714L10.646 34.4341C10.3382 34.2961 10.035 34.1498 9.73659 33.9953ZM11.5788 34.8209L13.3629 30.15C13.5888 30.2363 13.8177 30.3165 14.0493 30.3902L12.5321 35.1545C12.2103 35.052 11.8924 34.9407 11.5788 34.8209ZM13.5028 35.4336L14.7483 30.5913C14.9821 30.6514 15.2185 30.7052 15.4574 30.7524L14.4871 35.6574C14.1556 35.5918 13.8274 35.5171 13.5028 35.4336ZM15.4825 35.8253L16.1755 30.8736C16.4149 30.9071 16.6567 30.9341 16.9008 30.9545L16.4858 35.9372C16.1486 35.9091 15.8141 35.8717 15.4825 35.8253ZM17.4938 35.993L17.6318 30.9949C17.754 30.9983 17.8767 31 18 31C18.1233 31 18.246 30.9983 18.3682 30.9949L18.5062 35.993C18.338 35.9977 18.1693 36 18 36C17.8307 36 17.662 35.9977 17.4938 35.993ZM19.5142 35.9372L19.0992 30.9545C19.3433 30.9341 19.5851 30.9071 19.8245 30.8736L20.5175 35.8253C20.1859 35.8717 19.8514 35.9091 19.5142 35.9372ZM21.5129 35.6574L20.5426 30.7524C20.7815 30.7052 21.0179 30.6514 21.2517 30.5913L22.4972 35.4336C22.1726 35.5171 21.8444 35.5918 21.5129 35.6574ZM23.468 35.1545L21.9507 30.3902C22.1824 30.3165 22.4112 30.2363 22.6371 30.15L24.4212 34.8209C24.1076 34.9407 23.7897 35.052 23.468 35.1545ZM25.354 34.4341L23.3091 29.8714C23.531 29.7719 23.7496 29.6664 23.9648 29.555L26.2634 33.9953C25.9651 34.1498 25.6618 34.2961 25.354 34.4341ZM27.1467 33.5061L24.6023 29.202C24.8118 29.0781 25.0176 28.9485 25.2195 28.8133L28.0011 32.9682C27.7217 33.1552 27.4368 33.3346 27.1467 33.5061ZM28.8241 32.3832L25.8146 28.3904C26.0091 28.2437 26.1995 28.0917 26.3855 27.9345L29.6132 31.7531C29.3563 31.9703 29.0931 32.1804 28.8241 32.3832ZM30.3659 31.0799L26.9303 27.4472C27.1074 27.2798 27.2798 27.1074 27.4472 26.9303L31.08 30.3659C30.8486 30.6105 30.6105 30.8486 30.3659 31.0799ZM31.7531 29.6132L27.9345 26.3855C28.0917 26.1995 28.2437 26.0091 28.3904 25.8146L32.3832 28.8241C32.1804 29.0931 31.9703 29.3563 31.7531 29.6132ZM32.9682 28.0011L28.8133 25.2195C28.9485 25.0176 29.0781 24.8118 29.202 24.6023L33.5061 27.1467C33.3346 27.4368 33.1552 27.7217 32.9682 28.0011ZM33.9953 26.2634L29.555 23.9648C29.6664 23.7496 29.7719 23.531 29.8714 23.3091L34.4341 25.354C34.2961 25.6618 34.1498 25.965 33.9953 26.2634ZM34.8209 24.4212L30.15 22.6371C30.2363 22.4112 30.3165 22.1823 30.3902 21.9507L35.1545 23.4679C35.052 23.7897 34.9407 24.1076 34.8209 24.4212ZM35.4336 22.4972L30.5913 21.2517C30.6514 21.0179 30.7052 20.7815 30.7524 20.5426L35.6574 21.5129C35.5918 21.8444 35.5171 22.1726 35.4336 22.4972ZM35.8253 20.5175L30.8736 19.8245C30.9071 19.5851 30.9341 19.3433 30.9545 19.0992L35.9372 19.5142C35.9091 19.8514 35.8717 20.1859 35.8253 20.5175Z" fill="#D9D9D9"/>
</svg>
