<svg width="36" height="36" viewBox="0 0 36 36" fill="none" xmlns="http://www.w3.org/2000/svg">
<path d="M16.6962 0.411464C17.4776 -0.137155 18.5224 -0.137155 19.3038 0.411465L25.4698 4.74043C25.5828 4.81972 25.7028 4.88854 25.8284 4.94603L32.6866 8.08442C33.5558 8.48216 34.0782 9.38069 33.9904 10.327L33.2983 17.7944C33.2856 17.9312 33.2856 18.0688 33.2983 18.2056L33.9904 25.673C34.0782 26.6193 33.5558 27.5178 32.6866 27.9156L25.8284 31.054C25.7028 31.1115 25.5828 31.1803 25.4698 31.2596L19.3038 35.5885C18.5224 36.1372 17.4776 36.1372 16.6962 35.5885L10.5302 31.2596C10.4172 31.1803 10.2972 31.1115 10.1716 31.054L3.31338 27.9156C2.44423 27.5178 1.92184 26.6193 2.00956 25.673L2.70174 18.2056C2.71442 18.0688 2.71442 17.9312 2.70174 17.7944L2.00956 10.327C1.92184 9.38068 2.44423 8.48216 3.31338 8.08442L10.1716 4.94603C10.2972 4.88854 10.4172 4.81972 10.5302 4.74043L16.6962 0.411464Z" fill="#D9D9D9"/>
</svg>
