<svg width="36" height="36" viewBox="0 0 36 36" fill="none" xmlns="http://www.w3.org/2000/svg">
<path fill-rule="evenodd" clip-rule="evenodd" d="M5.27208 5.27208C5.32789 6.2816 5.28704 7.28498 5.15454 8.2701C4.78652 11.0064 3.71144 13.6019 2.03681 15.797C1.43391 16.5872 0.753302 17.3256 0 18C0.753302 18.6744 1.43391 19.4128 2.03681 20.203C3.71144 22.3981 4.78652 24.9936 5.15454 27.7299C5.28704 28.715 5.32789 29.7184 5.27208 30.7279C6.2816 30.6721 7.28498 30.713 8.2701 30.8455C11.0064 31.2135 13.6019 32.2886 15.797 33.9632C16.5872 34.5661 17.3256 35.2467 18 36C18.6744 35.2467 19.4128 34.5661 20.203 33.9632C22.3981 32.2886 24.9936 31.2135 27.7299 30.8455C28.715 30.713 29.7184 30.6721 30.7279 30.7279C30.6721 29.7184 30.713 28.715 30.8455 27.7299C31.2135 24.9936 32.2886 22.3981 33.9632 20.203C34.5661 19.4128 35.2467 18.6744 36 18C35.2467 17.3256 34.5661 16.5872 33.9632 15.797C32.2886 13.6019 31.2135 11.0064 30.8455 8.2701C30.713 7.28498 30.6721 6.2816 30.7279 5.27208C29.7184 5.32789 28.715 5.28704 27.7299 5.15454C24.9936 4.78652 22.3981 3.71144 20.203 2.03681C19.4128 1.43391 18.6744 0.753302 18 0C17.3256 0.753302 16.5872 1.43391 15.797 2.03681C13.6019 3.71144 11.0064 4.78652 8.2701 5.15454C7.28498 5.28704 6.2816 5.32789 5.27208 5.27208ZM8.18649 8.18649C7.79745 11.7778 6.38596 15.1854 4.1216 18C6.38596 20.8146 7.79745 24.2222 8.18649 27.8135C11.7778 28.2026 15.1854 29.614 18 31.8784C20.8146 29.614 24.2222 28.2026 27.8135 27.8135C28.2026 24.2222 29.614 20.8146 31.8784 18C29.614 15.1854 28.2026 11.7778 27.8135 8.18649C24.2222 7.79745 20.8146 6.38596 18 4.1216C15.1854 6.38596 11.7778 7.79745 8.18649 8.18649Z" fill="#D9D9D9"/>
</svg>
