<svg width="36" height="36" viewBox="0 0 36 36" fill="none" xmlns="http://www.w3.org/2000/svg">
<path fill-rule="evenodd" clip-rule="evenodd" d="M2.42518 14.0533C7.4872 11.5821 11.5821 7.4872 14.0533 2.42518C14.8966 0.697682 16.5947 5.0071e-07 18 0C19.4053 -5.00709e-07 21.1034 0.69768 21.9467 2.42518C24.4179 7.4872 28.5128 11.5821 33.5748 14.0533C35.3023 14.8966 36 16.5947 36 18C36 19.4053 35.3023 21.1034 33.5748 21.9467C28.5128 24.4179 24.4179 28.5128 21.9467 33.5748C21.1034 35.3023 19.4053 36 18 36C16.5947 36 14.8966 35.3023 14.0533 33.5748C11.5821 28.5128 7.4872 24.4179 2.42518 21.9467C0.697682 21.1034 5.0071e-07 19.4053 0 18C-5.00709e-07 16.5947 0.69768 14.8966 2.42518 14.0533ZM19.1159 2.80717C18.6882 1.9312 17.3118 1.9312 16.8842 2.80717C14.1049 8.50011 8.50011 14.1049 2.80717 16.8842C1.9312 17.3118 1.9312 18.6882 2.80717 19.1159C8.50011 21.8951 14.1049 27.4999 16.8842 33.1928C17.3118 34.0688 18.6882 34.0688 19.1159 33.1928C21.8951 27.4999 27.4999 21.8951 33.1928 19.1159C34.0688 18.6882 34.0688 17.3118 33.1928 16.8842C27.4999 14.1049 21.8951 8.50011 19.1159 2.80717Z" fill="#D9D9D9"/>
</svg>
