<svg width="36" height="36" viewBox="0 0 36 36" fill="none" xmlns="http://www.w3.org/2000/svg">
<path d="M6.46299 17.9895L7.23763 16.705L6.46299 17.9895C6.46882 17.993 6.47468 17.9965 6.48055 18C6.47468 18.0035 6.46883 18.007 6.46299 18.0105L7.23763 19.295L6.46299 18.0105C3.66342 19.6988 2.67064 23.3627 4.25251 26.2246C5.83226 29.0827 9.37566 30.0547 12.193 28.447C12.2242 31.6989 14.7179 34.5 18.0002 34.5C21.2824 34.5 23.7761 31.699 23.8074 28.4472C26.6247 30.0545 30.1678 29.0825 31.7475 26.2245C33.3294 23.3626 32.3366 19.6988 29.537 18.0105C29.5312 18.007 29.5254 18.0035 29.5195 18C29.5254 17.9965 29.5312 17.993 29.537 17.9895C32.3366 16.3012 33.3294 12.6374 31.7475 9.77547C30.1678 6.91754 26.6247 5.94548 23.8074 7.55278C23.7761 4.30101 21.2824 1.5 18.0002 1.5C14.7179 1.5 12.2242 4.30112 12.193 7.55297C9.37566 5.94533 5.83226 6.91734 4.25251 9.77542C2.67064 12.6373 3.66342 16.3012 6.46299 17.9895Z" stroke="#D9D9D9" stroke-width="3"/>
</svg>
