<svg width="36" height="36" viewBox="0 0 36 36" fill="none" xmlns="http://www.w3.org/2000/svg">
<path fill-rule="evenodd" clip-rule="evenodd" d="M32.5883 17.0062L18.9938 3.41167C18.445 2.86278 17.555 2.86278 17.0062 3.41166L3.41167 17.0061C2.86278 17.555 2.86278 18.445 3.41166 18.9938L17.0061 32.5883C17.555 33.1372 18.445 33.1372 18.9938 32.5883L32.5883 18.9938C33.1372 18.445 33.1372 17.555 32.5883 17.0062ZM21.1152 1.29035C19.3947 -0.430113 16.6053 -0.430117 14.8848 1.29034L1.29035 14.8848C-0.430113 16.6053 -0.430117 19.3947 1.29034 21.1152L14.8848 34.7097C16.6053 36.4301 19.3947 36.4301 21.1152 34.7097L34.7097 21.1152C36.4301 19.3947 36.4301 16.6053 34.7097 14.8848L21.1152 1.29035Z" fill="#D9D9D9"/>
</svg>
