<svg width="36" height="36" viewBox="0 0 36 36" fill="none" xmlns="http://www.w3.org/2000/svg">
<path fill-rule="evenodd" clip-rule="evenodd" d="M18 2.76923C14.1765 2.76923 11.0769 5.8688 11.0769 9.69231V11.0769H9.69231C5.8688 11.0769 2.76923 14.1765 2.76923 18C2.76923 21.8235 5.8688 24.9231 9.69231 24.9231H11.0769V26.3077C11.0769 30.1312 14.1765 33.2308 18 33.2308C21.8235 33.2308 24.9231 30.1312 24.9231 26.3077V24.9231H26.3077C30.1312 24.9231 33.2308 21.8235 33.2308 18C33.2308 14.1765 30.1312 11.0769 26.3077 11.0769H24.9231V9.69231C24.9231 5.8688 21.8235 2.76923 18 2.76923ZM8.39391 8.39391C9.02837 3.65493 13.0874 0 18 0C22.9126 0 26.9716 3.65493 27.6061 8.39391C32.3451 9.02837 36 13.0874 36 18C36 22.9126 32.3451 26.9716 27.6061 27.6061C26.9716 32.3451 22.9126 36 18 36C13.0874 36 9.02837 32.3451 8.39391 27.6061C3.65493 26.9716 0 22.9126 0 18C0 13.0874 3.65493 9.02837 8.39391 8.39391Z" fill="#D9D9D9"/>
</svg>
