<svg width="36" height="36" viewBox="0 0 36 36" fill="none" xmlns="http://www.w3.org/2000/svg">
<path fill-rule="evenodd" clip-rule="evenodd" d="M16.9393 5.80583C13.8649 2.73139 8.88026 2.73139 5.80583 5.80583C2.73139 8.88026 2.73139 13.8649 5.80583 16.9393L6.86649 18L5.80583 19.0607C2.73139 22.1351 2.73139 27.1197 5.80583 30.1942C8.88026 33.2686 13.8649 33.2686 16.9393 30.1942L18 29.1335L19.0607 30.1942C22.1351 33.2686 27.1197 33.2686 30.1942 30.1942C33.2686 27.1197 33.2686 22.1351 30.1942 19.0607L29.1335 18L30.1942 16.9393C33.2686 13.8649 33.2686 8.88026 30.1942 5.80583C27.1197 2.73139 22.1351 2.73139 19.0607 5.80583L18 6.86649L16.9393 5.80583ZM18 2.75187C13.7362 -0.534636 7.59277 -0.223757 3.68451 3.68451C-0.223756 7.59277 -0.534636 13.7362 2.75187 18C-0.534636 22.2638 -0.223757 28.4072 3.68451 32.3155C7.59277 36.2238 13.7362 36.5346 18 33.2481C22.2638 36.5346 28.4072 36.2238 32.3155 32.3155C36.2238 28.4072 36.5346 22.2638 33.2481 18C36.5346 13.7362 36.2238 7.59277 32.3155 3.68451C28.4072 -0.223757 22.2638 -0.534636 18 2.75187Z" fill="#D9D9D9"/>
</svg>
