<svg width="36" height="36" viewBox="0 0 36 36" fill="none" xmlns="http://www.w3.org/2000/svg">
<path d="M13.4991 4.50029C13.499 2.01501 15.5135 0.000160128 17.9988 0H18.0012C20.4865 0.000160128 22.501 2.01501 22.5009 4.50029C22.5008 5.26131 22.3119 5.97819 21.9784 6.6066C21.787 6.96725 21.9316 7.44815 22.3087 7.60464V7.60464C22.6861 7.76121 23.1238 7.52106 23.2435 7.13046C23.4519 6.45025 23.8251 5.80975 24.3631 5.27166C26.1204 3.51419 28.9696 3.514 30.7271 5.27125L30.7288 5.27291C32.486 7.03038 32.4858 9.87963 30.7283 11.6369C30.1902 12.1749 29.5497 12.5482 28.8695 12.7568C28.479 12.8765 28.2389 13.3142 28.3954 13.6915V13.6915C28.5519 14.0686 29.0329 14.2133 29.3936 14.0218C30.022 13.6882 30.7388 13.4992 31.4997 13.4991C33.985 13.499 35.9998 15.5135 36 17.9988V18.0012C35.9998 20.4865 33.985 22.501 31.4997 22.5009C30.7387 22.5008 30.0218 22.3119 29.3934 21.9784C29.0328 21.787 28.5518 21.9316 28.3954 22.3087V22.3087C28.2388 22.6861 28.4789 23.1238 28.8695 23.2435C29.5497 23.4519 30.1903 23.8251 30.7283 24.3631C32.4858 26.1204 32.486 28.9696 30.7288 30.7271L30.7271 30.7288C28.9696 32.486 26.1204 32.4858 24.3631 30.7283C23.8251 30.1902 23.4518 29.5497 23.2432 28.8695C23.1235 28.479 22.6858 28.2389 22.3085 28.3954V28.3954C21.9314 28.5519 21.7867 29.0329 21.9782 29.3936C22.3118 30.022 22.5008 30.7388 22.5009 31.4997C22.501 33.985 20.4865 35.9998 18.0012 36H17.9988C15.5135 35.9998 13.499 33.985 13.4991 31.4997C13.4992 30.7387 13.6881 30.0218 14.0216 29.3934C14.213 29.0328 14.0684 28.5518 13.6913 28.3954V28.3954C13.3139 28.2388 12.8762 28.4789 12.7565 28.8695C12.5481 29.5497 12.1749 30.1903 11.6369 30.7283C9.87963 32.4858 7.03038 32.486 5.27291 30.7288L5.27125 30.7271C3.514 28.9696 3.51419 26.1204 5.27166 24.3631C5.8098 23.8251 6.45031 23.4518 7.13048 23.2432C7.52103 23.1235 7.76111 22.6858 7.60456 22.3085V22.3085C7.44806 21.9314 6.96706 21.7867 6.6064 21.9782C5.97803 22.3118 5.26122 22.5008 4.50029 22.5009C2.01501 22.501 0.000160128 20.4865 0 18.0012V17.9988C0.000160128 15.5135 2.01501 13.499 4.50029 13.4991C5.26131 13.4992 5.97819 13.6881 6.6066 14.0216C6.96725 14.213 7.44815 14.0684 7.60464 13.6913V13.6913C7.76121 13.3139 7.52106 12.8762 7.13046 12.7565C6.45025 12.5481 5.80975 12.1749 5.27166 11.6369C3.53614 9.90157 3.5381 7.00605 5.27291 5.27125C7.03038 3.514 9.87963 3.51419 11.6369 5.27166C12.1749 5.8098 12.5482 6.45031 12.7568 7.13048C12.8765 7.52102 13.3142 7.76111 13.6915 7.60456V7.60456C14.0686 7.44806 14.2133 6.96706 14.0218 6.6064C13.6882 5.97804 13.4992 5.26122 13.4991 4.50029Z" fill="#D9D9D9"/>
</svg>
