<svg width="16" height="16" viewBox="0 0 16 16" fill="none" xmlns="http://www.w3.org/2000/svg">
<path fill-rule="evenodd" clip-rule="evenodd" d="M8.31883 0.281623C8.27212 -0.0938759 7.72788 -0.0938737 7.68117 0.281626L7.46446 2.02358C4.57807 2.27888 2.27889 4.57807 2.02358 7.46446L0.281623 7.68117C-0.0938759 7.72788 -0.0938737 8.27212 0.281626 8.31883L2.02358 8.53554C2.27889 11.4219 4.57807 13.7211 7.46446 13.9764L7.68117 15.7184C7.72788 16.0939 8.27212 16.0939 8.31883 15.7184L8.53554 13.9764C11.4219 13.7211 13.7211 11.4219 13.9764 8.53554L15.7184 8.31883C16.0939 8.27212 16.0939 7.72788 15.7184 7.68117L13.9764 7.46446C13.7211 4.57806 11.4219 2.27888 8.53554 2.02357L8.31883 0.281623ZM8.53554 2.02357C8.35911 2.00797 8.18049 2 8.00001 2C7.81952 2 7.64089 2.00797 7.46446 2.02358L7.01639 5.62535L4.76773 4.31684C4.46918 4.08435 4.08435 4.46918 4.31684 4.76773L5.62535 7.01639L2.02358 7.46446C2.00798 7.64089 2.00001 7.81951 2.00001 8C2.00001 8.18048 2.00798 8.35911 2.02358 8.53554L5.62535 8.98361L4.31684 11.2323C4.08435 11.5308 4.46918 11.9157 4.76773 11.6832L7.01639 10.3747L7.46446 13.9764C7.64089 13.992 7.81952 14 8.00001 14C8.18049 14 8.35911 13.992 8.53554 13.9764L8.98361 10.3747L11.2323 11.6832C11.5308 11.9157 11.9157 11.5308 11.6832 11.2323L10.3747 8.98361L13.9764 8.53554C13.992 8.35911 14 8.18048 14 8C14 7.81952 13.992 7.64089 13.9764 7.46446L10.3747 7.01639L11.6832 4.76773C11.9157 4.46918 11.5308 4.08435 11.2323 4.31684L8.98361 5.62535L8.53554 2.02357Z" fill="#D9D9D9"/>
</svg>
