<svg width="16" height="16" viewBox="0 0 16 16" fill="none" xmlns="http://www.w3.org/2000/svg">
<path fill-rule="evenodd" clip-rule="evenodd" d="M12.6045 11.8471C13.4757 10.8056 14 9.46402 14 8C14 6.53598 13.4756 5.19442 12.6045 4.15289L13.6832 2.76772C13.9157 2.46917 13.5308 2.08434 13.2323 2.31683L11.8471 3.39548C10.8056 2.52434 9.46402 2 8 2C6.53598 2 5.19443 2.52434 4.1529 3.39548L2.76773 2.31682C2.46918 2.08434 2.08435 2.46917 2.31684 2.76772L3.39549 4.15289C2.52435 5.19442 2 6.53598 2 8C2 9.46402 2.52435 10.8056 3.39548 11.8471L2.31684 13.2323C2.08435 13.5308 2.46918 13.9156 2.76773 13.6832L4.15289 12.6045C5.19442 13.4756 6.53598 14 8 14C9.46402 14 10.8056 13.4756 11.8471 12.6045L13.2323 13.6832C13.5308 13.9156 13.9156 13.5308 13.6832 13.2323L12.6045 11.8471ZM12.6045 11.8471L10.3747 8.9836L12.89 8.31882C13.2654 8.2721 13.2654 7.72787 12.8899 7.68116L10.3747 7.01637L12.6045 4.15289C12.375 3.87852 12.1215 3.62497 11.8471 3.39548L8.98361 5.62533L8.31883 3.11004C8.27212 2.73454 7.72788 2.73454 7.68117 3.11004L7.01639 5.62533L4.1529 3.39548C3.87853 3.62497 3.62498 3.87852 3.39549 4.15289L5.62535 7.01637L3.11005 7.68116C2.73455 7.72787 2.73455 8.27211 3.11005 8.31882L5.62535 8.9836L3.39548 11.8471C3.62497 12.1215 3.87852 12.375 4.15289 12.6045L7.01639 10.3746L7.68117 12.8899C7.72788 13.2654 8.27212 13.2654 8.31883 12.8899L8.98361 10.3746L11.8471 12.6045C12.1215 12.375 12.375 12.1215 12.6045 11.8471Z" fill="#D9D9D9"/>
</svg>
