<svg width="16" height="16" viewBox="0 0 16 16" fill="none" xmlns="http://www.w3.org/2000/svg">
<path d="M7.68116 0.281626C7.72788 -0.0938737 8.27211 -0.0938759 8.31882 0.281623L8.98361 5.62535L11.2323 4.31684C11.5308 4.08435 11.9156 4.46918 11.6832 4.76773L10.3746 7.01639L15.7184 7.68117C16.0939 7.72788 16.0939 8.27212 15.7184 8.31883L10.3746 8.98361L11.6832 11.2323C11.9156 11.5308 11.5308 11.9157 11.2323 11.6832L8.98361 10.3747L8.31882 15.7184C8.27211 16.0939 7.72788 16.0939 7.68116 15.7184L7.01638 10.3747L4.76772 11.6832C4.46917 11.9157 4.08434 11.5308 4.31683 11.2323L5.62534 8.98361L0.281618 8.31883C-0.0938814 8.27212 -0.0938835 7.72788 0.281616 7.68117L5.62534 7.01639L4.31683 4.76773C4.08434 4.46918 4.46917 4.08435 4.76772 4.31684L7.01638 5.62535L7.68116 0.281626Z" fill="#D9D9D9"/>
</svg>
