<svg width="16" height="16" viewBox="0 0 16 16" fill="none" xmlns="http://www.w3.org/2000/svg">
<path d="M7.46226 0.379609C7.64222 -0.126455 8.3579 -0.126455 8.53787 0.379609L9.74754 3.78127L13.0082 2.2313C13.4933 2.00071 13.9994 2.50678 13.7688 2.99187L12.2189 6.25258L15.6205 7.46226C16.1266 7.64222 16.1266 8.3579 15.6205 8.53787L12.2189 9.74754L13.7688 13.0082C13.9994 13.4933 13.4933 13.9994 13.0082 13.7688L9.74754 12.2189L8.53787 15.6205C8.3579 16.1266 7.64222 16.1266 7.46226 15.6205L6.25258 12.2189L2.99187 13.7688C2.50678 13.9994 2.00071 13.4933 2.2313 13.0082L3.78127 9.74754L0.379609 8.53787C-0.126455 8.3579 -0.126455 7.64222 0.379609 7.46226L3.78127 6.25258L2.2313 2.99187C2.00071 2.50678 2.50678 2.00071 2.99187 2.2313L6.25258 3.78127L7.46226 0.379609Z" fill="#D9D9D9"/>
</svg>
