<svg width="16" height="16" viewBox="0 0 16 16" fill="none" xmlns="http://www.w3.org/2000/svg">
<path d="M8 10C9.10457 10 10 9.10457 10 8C10 6.89543 9.10457 6 8 6C6.89543 6 6 6.89543 6 8C6 9.10457 6.89543 10 8 10Z" fill="#D9D9D9"/>
<path fill-rule="evenodd" clip-rule="evenodd" d="M16 8C16 12.4183 12.4183 16 8 16C3.58172 16 0 12.4183 0 8C0 3.58172 3.58172 0 8 0C12.4183 0 16 3.58172 16 8ZM8.67438 3.27934L12.7207 7.32562C13.0931 7.69807 13.0931 8.30193 12.7207 8.67438L8.67438 12.7207C8.30193 13.0931 7.69807 13.0931 7.32562 12.7207L3.27934 8.67438C2.90689 8.30193 2.90689 7.69807 3.27934 7.32562L7.32562 3.27934C7.69807 2.90689 8.30193 2.90689 8.67438 3.27934Z" fill="#D9D9D9"/>
</svg>
