<svg width="16" height="16" viewBox="0 0 16 16" fill="none" xmlns="http://www.w3.org/2000/svg">
<path fill-rule="evenodd" clip-rule="evenodd" d="M8 16C12.4183 16 16 12.4183 16 8C16 3.58172 12.4183 0 8 0C3.58172 0 0 3.58172 0 8C0 12.4183 3.58172 16 8 16ZM12.7207 7.32562L8.67438 3.27934C8.30193 2.90689 7.69807 2.90689 7.32562 3.27934L3.27934 7.32562C2.90689 7.69807 2.90689 8.30193 3.27934 8.67438L7.32562 12.7207C7.69807 13.0931 8.30193 13.0931 8.67438 12.7207L12.7207 8.67438C13.0931 8.30193 13.0931 7.69807 12.7207 7.32562Z" fill="#D9D9D9"/>
</svg>
