<svg width="16" height="16" viewBox="0 0 16 16" fill="none" xmlns="http://www.w3.org/2000/svg">
<path d="M15.1083 5.31314C13.9061 6.5153 8 8 8 8C8 8 9.4847 2.09389 10.6869 0.891741C10.796 0.782636 10.9113 0.683558 11.0319 0.594499C13.0117 1.40593 14.5941 2.98825 15.4055 4.96812C15.3164 5.08865 15.2174 5.20404 15.1083 5.31314Z" fill="#D9D9D9"/>
<path d="M15.4055 11.0319C15.3164 10.9113 15.2174 10.796 15.1083 10.6868C13.9061 9.48469 8 8 8 8C8 8 6.5153 2.09389 5.31315 0.891741C5.20404 0.782635 5.08866 0.683557 4.96812 0.594498C2.98825 1.40593 1.40593 2.98824 0.594501 4.96812C0.683561 5.08865 0.782639 5.20404 0.891746 5.31314C2.0939 6.5153 8 8 8 8C8 8 2.0939 9.48469 0.891746 10.6868C0.78264 10.796 0.683561 10.9113 0.594502 11.0319C1.40593 13.0117 2.98825 14.5941 4.96812 15.4055C5.08866 15.3164 5.20404 15.2174 5.31315 15.1082C6.5153 13.9061 8 8 8 8C8 8 9.4847 13.9061 10.6869 15.1082C10.796 15.2174 10.9113 15.3164 11.0319 15.4055C13.0117 14.5941 14.5941 13.0117 15.4055 11.0319Z" fill="#D9D9D9"/>
</svg>
