<svg width="16" height="16" viewBox="0 0 16 16" fill="none" xmlns="http://www.w3.org/2000/svg">
<path fill-rule="evenodd" clip-rule="evenodd" d="M8 16C12.4183 16 16 12.4183 16 8C16 3.58172 12.4183 0 8 0C3.58172 0 0 3.58172 0 8C0 12.4183 3.58172 16 8 16ZM8 8C8 8 12.7852 6.79708 13.7592 5.82309C13.8476 5.73469 13.9278 5.64121 14 5.54355C13.3426 3.93944 12.0606 2.65743 10.4565 2C10.3588 2.07216 10.2653 2.15243 10.1769 2.24083C9.20292 3.21483 8 8 8 8ZM8 8C8 8 9.20292 12.7852 10.1769 13.7592C10.2653 13.8476 10.3588 13.9278 10.4565 14C12.0606 13.3426 13.3426 12.0606 14 10.4565C13.9278 10.3588 13.8476 10.2653 13.7592 10.1769C12.7852 9.20292 8 8 8 8ZM8 8C8 8 6.79708 12.7852 5.82309 13.7592C5.73469 13.8476 5.64121 13.9278 5.54355 14C3.93944 13.3426 2.65743 12.0606 2 10.4565C2.07216 10.3588 2.15243 10.2653 2.24083 10.1769C3.21483 9.20292 8 8 8 8ZM8 8C8 8 3.21483 6.79708 2.24083 5.82309C2.15243 5.73469 2.07216 5.6412 2 5.54354C2.65743 3.93944 3.93944 2.65743 5.54354 2C5.6412 2.07216 5.73469 2.15243 5.82309 2.24083C6.79708 3.21483 8 8 8 8Z" fill="#D9D9D9"/>
</svg>
