<svg width="16" height="16" viewBox="0 0 16 16" fill="none" xmlns="http://www.w3.org/2000/svg">
<path d="M8 8C8 8 5.5 3.82101 5.5 2.46154C5.5 1.10207 6.61929 0 8 0C9.38071 0 10.5 1.10207 10.5 2.46154C10.5 3.82101 8 8 8 8Z" fill="#D9D9D9"/>
<path d="M8 8C8 8 12.179 5.5 13.5385 5.5C14.8979 5.5 16 6.61929 16 8C16 9.38071 14.8979 10.5 13.5385 10.5C12.1803 10.5 8.00807 8.00483 8 8Z" fill="#D9D9D9"/>
<path d="M8 8C8 8 10.5 12.179 10.5 13.5385C10.5 14.8979 9.38071 16 8 16C6.61929 16 5.5 14.8979 5.5 13.5385C5.5 12.1808 7.99339 8.01105 8 8Z" fill="#D9D9D9"/>
<path d="M2.46154 5.5C3.82101 5.5 8 8 8 8C8 8 3.82101 10.5 2.46154 10.5C1.10207 10.5 0 9.38071 0 8C0 6.61929 1.10207 5.5 2.46154 5.5Z" fill="#D9D9D9"/>
</svg>
