<svg width="16" height="16" viewBox="0 0 16 16" fill="none" xmlns="http://www.w3.org/2000/svg">
<path d="M6.65494 5.34506L8 4L9.34522 5.34522C9.85712 4.23711 10.3195 3.06813 10.3195 2.46119C10.3195 1.10191 9.28111 0 8.00012 0C6.71913 0 5.68069 1.10191 5.68069 2.46119C5.68069 3.0681 6.14307 4.237 6.65494 5.34506Z" fill="#D9D9D9"/>
<path d="M6.48343 5.51657L4.20992 7.79008C3.35262 7.68776 2.58369 7.5356 2.20488 7.30932C1.06707 6.62968 0.66391 5.1483 1.3044 4.00056C1.9449 2.85282 3.3865 2.47335 4.52431 3.15299C5.04047 3.4613 5.80362 4.48739 6.48343 5.51657Z" fill="#D9D9D9"/>
<path d="M4.20992 8.20992C3.35262 8.31224 2.58369 8.4644 2.20488 8.69068C1.06707 9.37032 0.66391 10.8517 1.3044 11.9994C1.9449 13.1472 3.3865 13.5267 4.52431 12.847C5.04047 12.5387 5.80362 11.5126 6.48343 10.4834L4.20992 8.20992Z" fill="#D9D9D9"/>
<path d="M6.65494 10.6549C6.14307 11.763 5.68069 12.9319 5.68069 13.5388C5.68069 14.8981 6.71913 16 8.00012 16C9.28111 16 10.3195 14.8981 10.3195 13.5388C10.3195 12.9319 9.85712 11.7629 9.34522 10.6548L8 12L6.65494 10.6549Z" fill="#D9D9D9"/>
<path d="M9.51659 10.4834C10.1964 11.5126 10.9595 12.5387 11.4757 12.847C12.6135 13.5266 14.0551 13.1472 14.6956 11.9994C15.3361 10.8517 14.9329 9.37029 13.7951 8.69065C13.4163 8.46437 12.6474 8.31221 11.7901 8.20989L9.51659 10.4834Z" fill="#D9D9D9"/>
<path d="M11.7901 7.79011L9.5166 5.5166C10.1964 4.4874 10.9596 3.46132 11.4757 3.15301C12.6135 2.47337 14.0551 2.85285 14.6956 4.00059C15.3361 5.14833 14.9329 6.62971 13.7951 7.30935C13.4163 7.53563 12.6474 7.68779 11.7901 7.79011Z" fill="#D9D9D9"/>
<path d="M8 6L10 8L8 10L6 8L8 6Z" fill="#D9D9D9"/>
</svg>
