<svg width="16" height="16" viewBox="0 0 16 16" fill="none" xmlns="http://www.w3.org/2000/svg">
<path d="M10.3438 10.3438C10.9434 10.9431 11.7715 11.3137 12.6863 11.3137C14.5164 11.3137 16 9.83012 16 8.00001C16 6.1699 14.5164 4.6863 12.6863 4.6863C10.8562 4.6863 9.37259 6.1699 9.37259 8.00001C9.37259 8.91475 9.74323 9.74292 10.3425 10.3425C9.74292 9.74323 8.91475 9.37258 8 9.37258C7.08525 9.37258 6.25708 9.74323 5.65746 10.3425C6.25677 9.74292 6.62741 8.91475 6.62741 8.00001C6.62741 6.1699 5.14382 4.6863 3.31371 4.6863C1.4836 4.6863 -3.70335e-07 6.1699 0 8.00001C-4.9378e-07 9.83012 1.4836 11.3137 3.31371 11.3137C4.22845 11.3137 5.05663 10.9431 5.65625 10.3438C5.05695 10.9434 4.68629 11.7715 4.68629 12.6863C4.68629 14.5164 6.16989 16 8 16C9.83011 16 11.3137 14.5164 11.3137 12.6863C11.3137 11.7715 10.9431 10.9434 10.3438 10.3438Z" fill="#D9D9D9"/>
<path d="M8 6.62742C6.16989 6.62742 4.68629 5.14382 4.68629 3.31371C4.68629 1.4836 6.16989 -7.40671e-08 8 0C9.83011 -7.40671e-08 11.3137 1.4836 11.3137 3.31371C11.3137 5.14382 9.83011 6.62742 8 6.62742Z" fill="#D9D9D9"/>
</svg>
