<svg width="16" height="16" viewBox="0 0 16 16" fill="none" xmlns="http://www.w3.org/2000/svg">
<g clip-path="url(#clip0_9984_3628)">
<path d="M7.99948 0C6.89491 7.11679e-05 5.99954 0.895559 5.99961 2.00013C5.99968 3.1047 6.8957 4.00007 8.00027 4C9.10484 4.00007 10.0003 3.1047 10.0004 2.00013C10.0005 0.895559 9.1051 7.11679e-05 8.00053 0H7.99948Z" fill="#D9D9D9"/>
<path d="M4.00001 7.99973C4.00008 6.89516 3.10471 5.99968 2.00014 5.9996C0.895567 5.99953 7.87973e-05 6.89491 7.62939e-06 7.99948V8.00052C7.87973e-05 9.10509 0.895567 10.0005 2.00014 10.0004C3.10471 10.0003 4.00008 9.1043 4.00001 7.99973Z" fill="#D9D9D9"/>
<path d="M16 7.99948C15.9999 6.89491 15.1044 5.99953 13.9999 5.99961C12.8953 5.99968 11.9999 6.8957 12 8.00027C11.9999 9.10484 12.8953 10.0003 13.9999 10.0004C15.1044 10.0005 15.9999 9.10509 16 8.00052V7.99948Z" fill="#D9D9D9"/>
<path d="M7.99974 12C6.89517 11.9999 5.99968 12.8953 5.99961 13.9999C5.99954 15.1044 6.89491 15.9999 7.99948 16H8.00053C9.1051 15.9999 10.0005 15.1044 10.0004 13.9999C10.0003 12.8953 9.10431 11.9999 7.99974 12Z" fill="#D9D9D9"/>
<path d="M8.00001 11C9.65686 11 11 9.65685 11 8C11 6.34315 9.65686 5 8.00001 5C6.34315 5 5.00001 6.34315 5.00001 8C5.00001 9.65685 6.34315 11 8.00001 11Z" fill="#D9D9D9"/>
</g>
<defs>
<clipPath id="clip0_9984_3628">
<rect width="16" height="16" fill="white"/>
</clipPath>
</defs>
</svg>
