<svg width="16" height="16" viewBox="0 0 16 16" fill="none" xmlns="http://www.w3.org/2000/svg">
<path fill-rule="evenodd" clip-rule="evenodd" d="M2.34314 2.34314C3.12419 1.5621 4.39052 1.5621 5.17157 2.34314L7.29289 4.46447C7.68342 4.85499 8.31658 4.85499 8.70711 4.46447L10.8284 2.34314C11.6095 1.5621 12.8758 1.5621 13.6569 2.34314C14.4379 3.12419 14.4379 4.39052 13.6569 5.17157L11.5355 7.29289C11.145 7.68342 11.145 8.31658 11.5355 8.70711L13.6569 10.8284C14.4379 11.6095 14.4379 12.8758 13.6569 13.6569C12.8758 14.4379 11.6095 14.4379 10.8284 13.6569L8.70711 11.5355C8.31658 11.145 7.68342 11.145 7.29289 11.5355L5.17157 13.6569C4.39052 14.4379 3.12419 14.4379 2.34314 13.6569C1.5621 12.8758 1.5621 11.6095 2.34314 10.8284L4.46447 8.70711C4.85499 8.31658 4.85499 7.68342 4.46447 7.29289L2.34314 5.17157C1.5621 4.39052 1.5621 3.12419 2.34314 2.34314ZM8 10C9.10457 10 10 9.10457 10 8C10 6.89543 9.10457 6 8 6C6.89543 6 6 6.89543 6 8C6 9.10457 6.89543 10 8 10Z" fill="#D9D9D9"/>
</svg>
