<svg width="257" height="256" viewBox="0 0 257 256" fill="none" xmlns="http://www.w3.org/2000/svg">
<path d="M96.4347 60.2768C94.3434 59.9524 94.2552 59.9143 95.2394 59.7631C97.1254 59.473 101.579 59.8683 104.648 60.5981C111.812 62.3011 118.331 66.6637 125.29 74.4117L127.139 76.4701L129.784 76.0449C140.926 74.2544 152.26 75.6774 161.741 80.057C164.349 81.2619 168.461 83.6603 168.975 84.2766C169.138 84.473 169.439 85.7374 169.642 87.0866C170.347 91.7544 169.994 95.3323 168.567 98.0046C167.79 99.4588 167.746 99.9197 168.268 101.164C168.686 102.157 169.848 102.892 170.999 102.891C173.355 102.888 175.891 99.0791 177.066 93.78L177.532 91.6751L178.457 92.7224C183.528 98.4681 187.512 106.304 188.196 111.881L188.374 113.336L187.522 112.014C186.054 109.739 184.58 108.19 182.693 106.941C179.29 104.69 175.693 103.923 166.164 103.421C157.559 102.968 152.689 102.233 147.859 100.658C139.643 97.9792 135.501 94.4114 125.74 81.6059C121.405 75.918 118.726 72.7711 116.06 70.2368C110.004 64.4784 104.053 61.4584 96.4347 60.2768Z" fill="#FF007A"/>
<path d="M170.916 72.9763C171.132 69.1649 171.649 66.651 172.688 64.3552C173.099 63.4465 173.485 62.7027 173.544 62.7027C173.604 62.7027 173.425 63.3735 173.147 64.1931C172.391 66.4212 172.267 69.4687 172.788 73.0144C173.448 77.5132 173.824 78.1623 178.579 83.022C180.809 85.3014 183.403 88.1762 184.344 89.4105L186.054 91.6547L184.344 90.0508C182.253 88.0895 177.444 84.2644 176.381 83.7176C175.669 83.3509 175.563 83.3573 175.124 83.7946C174.719 84.1975 174.634 84.803 174.577 87.6654C174.49 92.1267 173.882 94.9901 172.414 97.8533C171.621 99.4019 171.495 99.0714 172.214 97.3235C172.75 96.0184 172.805 95.4446 172.801 91.1259C172.792 82.4485 171.762 80.3624 165.721 76.7887C164.19 75.8834 161.668 74.5778 160.117 73.8872C158.565 73.1965 157.333 72.595 157.378 72.5501C157.549 72.3798 163.441 74.0995 165.812 75.0117C169.339 76.3686 169.922 76.5444 170.35 76.3807C170.637 76.271 170.776 75.4347 170.916 72.9763Z" fill="#FF007A"/>
<path d="M100.497 87.8209C96.2514 81.9758 93.6246 73.0138 94.1933 66.3144L94.3691 64.2413L95.3355 64.4176C97.1504 64.7486 100.28 65.9133 101.745 66.8033C105.766 69.2453 107.506 72.4605 109.277 80.7164C109.796 83.1346 110.477 85.8712 110.79 86.7976C111.294 88.2889 113.199 91.7721 114.748 94.0343C115.864 95.6636 115.123 96.4356 112.657 96.213C108.89 95.873 103.788 92.3519 100.497 87.8209Z" fill="#FF007A"/>
<path d="M165.766 131.323C145.925 123.335 138.937 116.4 138.937 104.7C138.937 102.979 138.996 101.57 139.068 101.57C139.14 101.57 139.908 102.138 140.774 102.833C144.797 106.06 149.303 107.438 161.776 109.258C169.115 110.328 173.245 111.193 177.056 112.457C189.166 116.473 196.658 124.624 198.445 135.725C198.964 138.951 198.66 145 197.818 148.188C197.153 150.706 195.125 155.245 194.588 155.419C194.439 155.468 194.292 154.896 194.254 154.118C194.05 149.95 191.943 145.891 188.406 142.851C184.383 139.395 178.979 136.643 165.766 131.323Z" fill="#FF007A"/>
<path d="M151.837 134.642C151.588 133.163 151.157 131.273 150.879 130.444L150.372 128.935L151.313 129.991C152.614 131.451 153.642 133.32 154.514 135.81C155.179 137.71 155.254 138.275 155.249 141.362C155.244 144.393 155.161 145.029 154.546 146.739C153.578 149.436 152.376 151.348 150.359 153.4C146.735 157.089 142.075 159.131 135.351 159.978C134.182 160.125 130.775 160.373 127.78 160.529C120.232 160.922 115.264 161.733 110.801 163.3C110.159 163.525 109.586 163.662 109.528 163.604C109.347 163.425 112.386 161.613 114.897 160.404C118.436 158.699 121.96 157.768 129.854 156.454C133.754 155.804 137.781 155.016 138.804 154.702C148.461 151.741 153.426 144.1 151.837 134.642Z" fill="#FF007A"/>
<path d="M160.932 150.795C158.296 145.128 157.691 139.657 159.135 134.554C159.289 134.009 159.538 133.562 159.687 133.562C159.837 133.562 160.459 133.899 161.07 134.31C162.284 135.127 164.721 136.505 171.212 140.044C179.311 144.46 183.929 147.879 187.07 151.786C189.82 155.208 191.522 159.104 192.341 163.856C192.805 166.548 192.533 173.024 191.843 175.735C189.665 184.281 184.604 190.993 177.385 194.911C176.327 195.484 175.377 195.955 175.275 195.958C175.172 195.96 175.557 194.98 176.131 193.78C178.56 188.703 178.836 183.765 177 178.269C175.876 174.904 173.584 170.797 168.956 163.857C163.575 155.788 162.256 153.641 160.932 150.795Z" fill="#FF007A"/>
<path d="M86.4067 181.371C93.7696 175.154 102.931 170.738 111.276 169.382C114.872 168.798 120.864 169.03 124.194 169.882C129.532 171.248 134.307 174.308 136.791 177.954C139.218 181.517 140.259 184.622 141.343 191.53C141.771 194.255 142.236 196.992 142.377 197.611C143.191 201.192 144.775 204.054 146.739 205.491C149.857 207.773 155.227 207.915 160.509 205.855C161.405 205.505 162.184 205.263 162.238 205.318C162.43 205.508 159.77 207.288 157.894 208.226C155.369 209.487 153.361 209.975 150.693 209.975C145.855 209.975 141.839 207.514 138.487 202.495C137.828 201.508 136.346 198.55 135.193 195.922C131.655 187.851 129.907 185.393 125.799 182.702C122.223 180.361 117.612 179.941 114.143 181.642C109.586 183.876 108.315 189.699 111.579 193.39C112.876 194.856 115.295 196.121 117.273 196.367C120.973 196.828 124.153 194.013 124.153 190.277C124.153 187.851 123.221 186.467 120.873 185.407C117.668 183.961 114.222 185.652 114.238 188.663C114.245 189.947 114.805 190.754 116.092 191.336C116.918 191.71 116.937 191.74 116.263 191.6C113.322 190.99 112.633 187.444 114.998 185.09C117.837 182.264 123.709 183.511 125.725 187.368C126.572 188.988 126.67 192.215 125.932 194.164C124.279 198.525 119.46 200.819 114.571 199.571C111.243 198.721 109.887 197.801 105.874 193.667C98.9012 186.484 96.1941 185.092 86.141 183.523L84.2146 183.222L86.4067 181.371Z" fill="#FF007A"/>
<path fill-rule="evenodd" clip-rule="evenodd" d="M33.8241 20.4645C57.1114 48.7285 93.0139 92.734 94.7963 95.1977C96.2679 97.232 95.7141 99.0609 93.1929 100.494C91.7909 101.291 88.9084 102.099 87.4652 102.099C85.8329 102.099 83.9939 101.313 82.6548 100.042C81.7084 99.1447 77.8882 93.4402 69.0694 79.7566C62.3216 69.2863 56.6747 60.6007 56.5206 60.4553C56.1644 60.119 56.1705 60.1303 68.3813 81.9787C76.0487 95.6979 78.6371 100.548 78.6371 101.197C78.6371 102.516 78.2771 103.21 76.6495 105.025C73.9363 108.052 72.7235 111.453 71.8479 118.492C70.8664 126.382 68.1064 131.955 60.4577 141.494C55.9803 147.078 55.2477 148.102 54.118 150.352C52.695 153.187 52.3037 154.774 52.1451 158.353C51.9775 162.137 52.3039 164.581 53.46 168.199C54.4721 171.366 55.5285 173.458 58.2292 177.641C60.5599 181.251 61.9019 183.933 61.9019 184.983C61.9019 185.818 62.0613 185.819 65.6729 185.003C74.316 183.052 81.3341 179.619 85.2812 175.412C87.724 172.808 88.2975 171.371 88.3161 167.802C88.3283 165.469 88.2462 164.98 87.6153 163.637C86.5884 161.452 84.7188 159.635 80.5983 156.818C75.1992 153.127 72.8932 150.156 72.2562 146.07C71.7337 142.717 72.3399 140.351 75.3267 134.091C78.4182 127.612 79.1843 124.85 79.7025 118.319C80.0372 114.1 80.5008 112.435 81.7131 111.1C82.9776 109.707 84.1158 109.235 87.245 108.808C92.3466 108.111 95.5951 106.791 98.2652 104.33C100.582 102.196 101.551 100.139 101.7 97.0427L101.813 94.6959L100.518 93.1867C95.8304 87.7209 30.6848 16.168 30.3963 16.168C30.3347 16.168 31.8773 18.1015 33.8241 20.4645ZM64.5333 162.634C65.5932 160.757 65.0301 158.344 63.2572 157.166C61.5821 156.052 58.9799 156.576 58.9799 158.028C58.9799 158.471 59.2248 158.793 59.7768 159.077C60.7063 159.555 60.7738 160.093 60.0425 161.192C59.3019 162.306 59.3616 163.284 60.2111 163.949C61.5802 165.021 63.5183 164.432 64.5333 162.634Z" fill="#FF007A"/>
<path fill-rule="evenodd" clip-rule="evenodd" d="M105.032 110.039C102.637 110.774 100.309 113.312 99.5884 115.974C99.1487 117.598 99.3982 120.446 100.057 121.325C101.121 122.746 102.149 123.12 104.935 123.101C110.389 123.063 115.131 120.724 115.682 117.799C116.134 115.402 114.051 112.08 111.183 110.622C109.703 109.87 106.555 109.571 105.032 110.039ZM111.408 115.024C112.249 113.829 111.881 112.537 110.451 111.664C107.726 110 103.607 111.377 103.607 113.95C103.607 115.231 105.755 116.629 107.724 116.629C109.035 116.629 110.829 115.847 111.408 115.024Z" fill="#FF007A"/>
</svg>
