<?xml version="1.0" encoding="UTF-8"?>
<svg width="200px" height="200px" viewBox="0 0 200 200" version="1.1" xmlns="http://www.w3.org/2000/svg" xmlns:xlink="http://www.w3.org/1999/xlink">
    <title>Artboard Copy 15</title>
    <g id="Artboard-Copy-15" stroke="none" stroke-width="1" fill="none" fill-rule="evenodd">
        <g id="cart" transform="translate(0.000000, 16.000000)" fill="#FFFFFF" fill-rule="nonzero">
            <path d="M109.207431,112.014753 C100.707488,112.122814 92.8796332,110.683754 85.718596,106.759284 C68.1388689,97.1233796 58.8877682,82.1819294 59.704817,62.1299709 C60.5455865,41.529799 71.4703195,27.3843124 90.3230612,19.2876226 C91.0979398,18.9555318 91.4616582,18.6919676 91.4221236,17.719416 C91.1875516,11.6416273 93.3382348,6.5574754 98.0217693,2.61455611 C99.023313,1.77115091 100.090748,1.00417931 101.387483,3.85515581e-16 C101.387483,0.72480134 101.376941,1.16758907 101.390119,1.6103768 C101.453374,3.79532338 101.216166,6.04088971 101.648412,8.1494027 C102.576157,12.6642561 105.211799,16.0194274 109.494716,17.924996 C111.139356,18.6550687 112.810352,19.3350641 114.499798,19.9491685 C119.29403,21.6913274 122.894316,24.8277404 125.35864,29.2556177 C126.402354,31.1321943 127.343278,33.0720262 128.215675,35.035579 C131.507591,42.4390952 136.325543,48.5695967 143.146583,53.0238304 C144.817579,54.1149859 145.647806,55.5250539 145.534474,57.5281413 C145.463312,58.7537144 145.386878,59.9977371 145.500211,61.2154034 C145.732147,63.7139912 144.946726,65.8330468 143.560379,67.8703975 C142.221473,69.8418571 140.510942,70.9936323 138.117779,71.02526 C136.317636,71.0489808 134.514858,71.0568877 132.717351,70.9646403 C132.224486,70.9382839 131.613017,70.6378208 131.291469,70.2609241 C125.269028,63.223762 117.583499,59.6471968 108.398289,59.0673557 C107.433644,59.006736 106.961864,59.3493694 106.519077,60.0978915 C96.8699941,76.4204176 97.0413107,92.6401538 107.011942,108.759736 C107.649767,109.787636 108.364025,110.768094 109.207431,112.014753 Z M92.2444437,22.4161287 C80.1995632,26.5698993 66.992365,38.0243961 63.7557976,56.1233445 C61.8027874,67.0454418 63.716263,77.3165357 69.5436657,87.1711983 C72.8882945,71.4390557 82.0181557,61.3919913 97.0307682,56.5186907 C96.7171269,56.2999324 96.5141825,56.1470653 96.3006956,56.0100119 C91.7489431,53.1081709 88.9736129,48.9728498 88.0801305,43.6804822 C87.5161033,40.346396 87.2288184,40.5704256 90.9661577,40.728564 C91.0452269,40.7311997 91.1190249,40.8049976 91.2613495,40.8814312 C91.2956128,41.1818943 91.3404187,41.5245277 91.3694108,41.867161 C91.8780896,47.9607636 95.9264345,52.9632106 101.846085,54.4971538 C104.123279,55.0875375 106.503263,55.3827293 108.854255,55.5593173 C117.770629,56.2366771 125.627476,59.2913853 131.892395,65.8119617 C133.141689,67.1139684 134.39889,67.432881 136.098878,67.5699344 C138.787232,67.7834213 140.503035,66.8319548 141.472951,64.399258 C141.678531,63.8853079 141.870933,63.3291876 141.894653,62.7862455 C141.965816,61.1626905 141.894653,59.5338642 141.984265,57.9129449 C142.039614,56.9219438 141.71543,56.3210176 140.877296,55.7569904 C133.716259,50.9522164 128.595208,44.4474538 125.037092,36.6354132 C124.001285,34.3634904 122.886409,32.1126528 121.618665,29.9646052 C119.897592,27.0443147 117.401639,24.941073 114.22042,23.6865078 C112.259503,22.9142649 110.295951,22.1472933 108.364025,21.3091594 C102.99786,18.9818882 99.7270292,14.8623809 98.193086,9.28009279 C98.0955672,8.92691687 97.9664208,8.58164787 97.8293675,8.16785219 C97.6132449,8.32862631 97.4893698,8.38661041 97.4155718,8.48412914 C97.2337126,8.72924377 97.0597602,8.98490097 96.906893,9.25110074 C94.8141939,12.9093708 94.3476854,16.7758565 95.5126388,20.8189301 C96.2611609,23.4255793 96.290153,23.4176724 93.7520305,24.4824714 C93.6360623,24.529913 93.4990089,24.529913 93.2565299,24.5694476 C92.9349817,23.8868165 92.6055265,23.1831003 92.2444437,22.4161287 Z M102.747474,59.2439437 C102.199261,59.2808427 101.819728,59.278207 101.448103,59.3335555 C86.1060353,61.5896644 73.6526304,75.2501929 72.8856588,90.7240426 C72.8540311,91.3829529 73.1386804,92.2131799 73.5656543,92.7165874 C79.7515042,99.9988641 87.5055607,104.806274 96.7566615,107.17308 C98.5146342,107.623774 100.322684,107.863618 102.375849,108.251057 C93.6650543,91.683416 93.8337354,75.4926719 102.747474,59.2439437 Z" id="Shape"></path>
            <path d="M40.3038618,158.446844 C41.8325338,154.878186 43.2057028,151.559914 44.6790263,148.286447 C45.129721,147.282268 45.1270853,146.444134 44.7080184,145.424141 C42.3728402,139.739063 40.1088244,134.024993 37.8158165,128.321465 C37.6787632,127.978832 37.4995396,127.654648 37.0804726,127.364727 C37.0804726,128.911849 37.0804726,130.45897 37.0804726,132.090432 C35.9339687,132.156323 34.9297894,132.158959 33.9387883,132.280198 C31.7801981,132.546398 30.612609,133.569027 30.4544705,135.727617 C30.2541618,138.481862 30.3095103,141.251921 30.26734,144.016708 C30.2488905,145.15267 30.2647044,146.291267 30.2647044,147.530018 C28.0534014,147.530018 25.9264389,147.530018 23.6940508,147.530018 C23.6940508,140.092239 23.6940508,132.649188 23.6940508,124.995286 C25.6945025,124.995286 27.6975898,124.971565 29.6980415,125.032185 C29.893079,125.037456 30.2040846,125.554042 30.2357123,125.85714 C30.3147816,126.581942 30.2620687,127.319921 30.2620687,128.453247 C30.8735375,127.78643 31.2135352,127.362091 31.6088814,126.993102 C33.279878,125.435438 35.1221912,124.552498 37.5496168,124.913581 C39.2680548,125.169238 41.0576552,125.024278 42.8129923,124.955751 C43.7301955,124.921488 44.1360842,125.272028 44.4207335,126.107526 C45.7121977,129.887036 47.0590103,133.648096 48.3900092,137.411791 C48.5191556,137.77551 48.6693871,138.128686 48.8960523,138.711163 C49.1174461,138.242018 49.2808559,137.970547 49.3836459,137.675356 C50.7330942,133.822048 52.100992,129.974012 53.4003632,126.104891 C53.687648,125.250943 54.0988081,124.926759 55.002833,124.958387 C56.9242155,125.021642 58.8482336,124.976836 60.9910099,124.976836 C60.7959725,125.56722 60.6852755,125.970473 60.5297727,126.352641 C56.3470101,136.689626 52.1484336,147.018704 47.9893917,157.366231 C47.6573009,158.193823 47.2461409,158.496921 46.3526585,158.462658 C44.4286404,158.399403 42.499351,158.446844 40.3038618,158.446844 Z" id="Path"></path>
            <path d="M148.473214,90.992878 C140.972179,90.992878 133.755793,90.992878 126.44716,90.992878 C126.44716,89.7567623 126.44716,88.6893276 126.44716,87.4874752 C127.000645,87.4611188 127.511959,87.4189485 128.020638,87.4189485 C134.828499,87.4136772 141.63636,87.3925921 148.441586,87.4400337 C149.490571,87.4479406 150.04142,87.1501131 150.355062,86.13012 C150.766222,84.7885786 151.338156,83.49975 151.823114,82.1792937 C152.521559,80.2842677 151.854742,79.2879953 149.830569,79.2853597 C141.177759,79.2695458 132.527584,79.2853597 123.874774,79.2642745 C123.252763,79.2616389 122.151065,79.1878409 122.093081,78.945362 C121.869051,78.0387014 121.919128,77.0397933 122.032461,76.0962338 C122.053546,75.9170102 122.83106,75.7167014 123.263305,75.7140658 C127.480331,75.6850737 131.694722,75.6956163 135.911748,75.6956163 C140.52412,75.6956163 145.133856,75.6824381 149.746229,75.7008876 C154.413949,75.7193371 156.788662,79.1720271 155.141386,83.5313777 C153.233182,88.583902 151.317071,93.6337906 149.393053,98.6810435 C148.299262,101.548621 146.670435,102.67404 143.586735,102.676676 C137.13205,102.687218 130.674729,102.684583 124.220043,102.676676 C121.033553,102.67404 119.441626,101.58552 118.318842,98.6362376 C116.115446,92.8510051 113.9305,87.0578657 111.735011,81.2699975 C111.039201,79.4329556 110.820443,79.2853597 108.83317,79.2748171 C108.261235,79.2721815 107.691937,79.2748171 107.120003,79.2748171 C105.243426,79.2721815 105.243426,79.2721815 105.243426,77.4351395 C105.246062,75.6982519 105.246062,75.6982519 107.091011,75.6956163 C112.931592,75.6877094 113.60368,76.1568535 115.670023,81.6099952 C117.644118,86.8232936 119.663019,92.0234138 121.589673,97.2551616 C122.093081,98.6256951 122.881137,99.1449164 124.333376,99.1317382 C130.701085,99.0763897 137.068794,99.0737541 143.436503,99.1317382 C144.912463,99.1449164 145.695248,98.5756179 146.15385,97.215627 C146.833845,95.1993615 147.63508,93.2226305 148.473214,90.992878 Z" id="Path"></path>
            <path d="M68.9190188,145.026159 C68.9190188,149.169387 68.8663059,153.027966 68.9480108,156.886545 C68.9770029,158.178009 68.5684785,158.554905 67.3191845,158.473201 C65.7061721,158.370411 64.0826171,158.44948 62.3167375,158.44948 C62.2745672,157.903902 62.2086762,157.445301 62.2086762,156.986699 C62.2034049,146.805217 62.2218544,136.623735 62.1796211,126.442253 C62.1744128,125.282571 62.4985967,124.876682 63.6635501,124.963658 C64.9286579,125.055905 66.2122152,125.058541 67.477323,124.963658 C68.6633616,124.874046 69.0850641,125.316834 68.9295613,126.458067 C68.8847554,126.78225 68.9717316,127.122248 68.9822741,127.251395 C70.4107917,126.471245 71.7576044,125.411717 73.2862763,124.963658 C77.3557063,123.772348 81.5094769,125.646289 83.4809366,129.51541 C85.8082078,134.082977 85.7792157,138.766511 83.3728753,143.284 C80.2786325,149.090318 72.7986827,149.280084 69.5463014,145.482125 C69.4408757,145.360885 69.2853729,145.289723 68.9190188,145.026159 Z M68.8346782,136.270559 C68.9532821,137.003267 69.0033593,137.709619 69.1878542,138.376436 C69.7624239,140.469135 71.4360561,141.805405 73.4523217,141.847576 C75.4659516,141.889746 77.3451638,140.650995 77.8353931,138.568838 C78.1543056,137.208847 78.1912046,135.690718 77.9539969,134.312277 C77.5876428,132.2064 75.660989,130.796332 73.6210027,130.76734 C71.6337292,130.740984 69.857307,132.06144 69.240567,134.101426 C69.02708,134.807778 68.9638247,135.5563 68.8346782,136.270559 Z" id="Shape"></path>
            <path d="M162.497461,147.511569 C162.442112,146.712969 162.386764,145.953905 162.315602,144.915462 C160.531272,146.955448 158.517643,147.964899 156.055954,147.993891 C152.769309,148.03079 150.207466,146.673435 148.367788,143.963996 C145.545016,139.802318 145.534474,132.891667 148.317711,128.700997 C151.912726,123.28739 159.065856,123.719635 161.846457,127.214496 C161.922891,127.309379 162.057309,127.35682 162.315602,127.525501 C162.381493,126.674189 162.442112,125.920396 162.513275,125.000557 C164.532176,125.000557 166.495729,124.974201 168.456646,125.03482 C168.67804,125.042727 169.07075,125.538228 169.073386,125.807063 C169.107649,132.999728 169.099742,140.192393 169.099742,147.511569 C166.864718,147.511569 164.711399,147.511569 162.497461,147.511569 Z M153.080315,136.352264 C153.14357,136.871485 153.164655,137.446055 153.28853,137.999539 C153.805116,140.332082 155.626344,141.866025 157.813926,141.847576 C159.951431,141.829126 161.762117,140.332082 162.194362,138.017989 C162.3894,136.963732 162.397306,135.8225 162.223354,134.762972 C161.828008,132.356632 159.906626,130.746255 157.697958,130.76734 C155.510376,130.788425 153.665427,132.469964 153.230546,134.860491 C153.140934,135.332271 153.130392,135.819864 153.080315,136.352264 Z" id="Shape"></path>
            <path d="M111.661213,148.017612 C105.006219,147.964899 100.496636,143.218109 100.517648,136.291644 C100.538807,129.357272 105.209163,124.568312 111.887878,124.631567 C118.582407,124.694823 123.13943,129.53386 123.057725,136.489317 C122.978656,143.328806 118.295122,148.070325 111.661213,148.017612 Z M107.151631,136.260016 C107.21225,136.289008 107.275506,136.318 107.336125,136.346992 C107.425737,137.040166 107.449458,137.749154 107.615503,138.423878 C108.142632,140.537662 109.774094,141.918738 111.677027,141.93465 C113.57996,141.94773 115.480257,140.627274 115.84134,138.560931 C116.118082,136.974275 116.060098,135.237387 115.717465,133.661274 C115.361653,132.024541 114.038561,131.01509 112.306945,130.783154 C110.570057,130.551217 109.109912,131.204856 108.290228,132.704536 C107.705115,133.774607 107.517985,135.066071 107.151631,136.260016 Z" id="Shape"></path>
            <path d="M21.2956173,133.29492 C18.9999737,133.29492 16.8651043,133.321276 14.7302349,133.263292 C14.4482213,133.255385 14.0765959,132.875853 13.9158218,132.578025 C13.164664,131.1785 12.0155245,130.556489 10.4552248,130.685635 C8.92655293,130.812146 7.93555182,131.7109 7.43477999,133.081433 C6.64408762,135.255837 6.63618069,137.480318 7.47431461,139.646815 C8.0040785,141.017349 9.0398855,141.884475 10.5474723,141.981993 C12.0418809,142.079512 13.1593928,141.436416 13.892101,140.094874 C14.0528751,139.797047 14.4165936,139.417514 14.6959716,139.409608 C16.8387479,139.351623 18.9841599,139.37798 21.1322075,139.37798 C20.9187206,143.602913 16.9468092,147.429864 12.5136607,147.901644 C2.89620578,148.921637 -1.63709715,140.885567 0.534671232,132.406709 C2.45605369,124.905674 11.9865324,122.001197 17.8956401,127.030001 C19.7722166,128.627199 20.7711246,130.714627 21.2956173,133.29492 Z" id="Path"></path>
            <path d="M145.241918,139.37798 C144.617271,142.635632 143.091234,145.078872 140.336989,146.649714 C133.919203,150.313255 125.938481,146.831573 124.43353,139.623094 C123.484699,135.071342 124.019704,130.740984 127.5963,127.31465 C133.186495,121.959027 143.00953,124.692187 145.023159,132.132602 C145.102229,132.419887 145.131221,132.722986 145.234011,133.302827 C143.589371,133.302827 142.034342,133.265928 140.484585,133.313369 C139.185214,133.352904 138.167857,133.292284 137.33763,131.892759 C136.288644,130.124243 133.60029,130.250754 132.2034,131.861131 C130.450699,133.880032 130.453335,138.74279 132.206036,140.782777 C133.745251,142.575013 136.465232,142.406332 137.672356,140.347896 C138.120415,139.58356 138.59483,139.33581 139.4356,139.35953 C141.312177,139.414879 143.19666,139.37798 145.241918,139.37798 Z" id="Path"></path>
            <path d="M188.938214,124.868775 C188.938214,123.369095 188.967206,121.930035 188.925036,120.49361 C188.901315,119.700282 189.191235,119.391912 189.99247,119.410362 C191.573855,119.449896 193.15524,119.444625 194.736624,119.412997 C195.487782,119.399819 195.746075,119.721368 195.727626,120.440898 C195.695998,121.58213 195.764525,122.725999 195.709176,123.867231 C195.667006,124.747535 196.03336,125.074355 196.868858,124.982107 C196.998005,124.966294 197.132422,124.979472 197.264204,124.982107 C200,124.997921 200,124.997921 200,127.799608 C200,128.719447 200,129.63665 200,130.814781 C198.92993,130.814781 197.941564,130.875401 196.961106,130.798968 C195.949019,130.719898 195.68282,131.131058 195.703905,132.090432 C195.759253,134.591655 195.714447,137.09815 195.72499,139.602009 C195.732897,141.175487 196.167778,141.63936 197.733349,141.731607 C198.429158,141.773778 199.130238,141.739514 199.952558,141.739514 C199.952558,143.73733 199.952558,145.627085 199.952558,147.727691 C198.015362,147.624901 196.109794,147.706606 194.275387,147.387694 C191.167966,146.850023 189.370459,144.88647 189.143794,141.726336 C188.925036,138.666357 188.993562,135.585292 188.940849,132.51477 C188.932942,132.00082 188.940849,131.48687 188.940849,131.062532 C188.690463,130.933385 188.616666,130.867494 188.537596,130.859587 C186.197147,130.60393 186.197147,130.60393 186.194511,128.234489 C186.194511,128.057901 186.194511,127.883948 186.194511,127.70736 C186.191876,125.148153 186.191876,125.148153 188.938214,124.868775 Z" id="Path"></path>
            <path d="M88.3147026,130.885944 C87.3474223,130.830595 86.614714,130.791061 85.8029365,130.746255 C85.8029365,128.859136 85.8029365,127.035272 85.8029365,125.092804 C86.5804507,125.024278 87.3447866,124.955751 88.3147026,124.87141 C88.3147026,123.453436 88.3674154,122.059181 88.2962531,120.672834 C88.2461759,119.668655 88.6362508,119.36292 89.5982599,119.405091 C91.000421,119.468346 92.4104891,119.473617 93.8126502,119.405091 C94.8300077,119.355013 95.1251996,119.771445 95.0619442,120.720276 C94.9986888,121.682285 95.1172926,122.657472 95.0303165,123.616845 C94.9275265,124.758078 95.4098488,125.084897 96.4693766,124.995286 C97.3338669,124.921488 98.2088998,124.979472 99.191994,124.979472 C99.191994,126.935118 99.191994,128.751074 99.191994,130.812146 C98.2273493,130.812146 97.2363482,130.862223 96.2558897,130.798968 C95.3465934,130.740984 95.0145026,131.054625 95.0329521,131.987642 C95.0830293,134.533671 95.0382234,137.082336 95.0540373,139.628366 C95.0619442,141.18603 95.5126388,141.647267 97.0940236,141.728972 C97.7898329,141.765871 98.4882778,141.734243 99.2868771,141.734243 C99.2868771,143.716245 99.2868771,145.577008 99.2868771,147.580095 C97.0044118,147.593274 94.7430316,147.925364 92.5317286,147.126765 C89.8433745,146.156849 88.5861737,144.098413 88.443849,141.388974 C88.2883462,138.455505 88.3463303,135.508859 88.3147026,132.567483 C88.3094313,132.053533 88.3147026,131.536947 88.3147026,130.885944 Z" id="Path"></path>
            <path d="M179.270682,124.982107 C179.270682,126.112798 179.270682,127.014187 179.270682,127.915576 C179.420913,128.023637 179.571145,128.131699 179.721376,128.237124 C180.103544,127.733717 180.380287,127.04845 180.883694,126.766437 C182.233142,126.012643 183.669567,125.398539 185.105991,124.821333 C185.311571,124.739628 185.988931,125.15606 185.994202,125.356368 C186.060094,127.578214 186.036373,129.802695 186.036373,132.108881 C184.963667,132.158959 184.049099,132.158959 183.142439,132.253842 C180.733463,132.509499 179.513161,133.616468 179.394557,136.030715 C179.233783,139.267283 179.291767,142.517029 179.260139,145.761503 C179.254868,146.32553 179.260139,146.889557 179.260139,147.545832 C177.014573,147.545832 174.892882,147.545832 172.634137,147.545832 C172.610416,147.113587 172.568246,146.689249 172.568246,146.26491 C172.562975,139.641544 172.586696,133.020813 172.544525,126.397447 C172.536618,125.330012 172.818632,124.908309 173.938779,124.963658 C175.638768,125.042727 177.344028,124.982107 179.270682,124.982107 Z" id="Path"></path>
            <path d="M118.679925,18.520651 C127.870406,15.2287351 137.219026,11.8788351 146.567645,8.52893504 C146.630901,8.62908941 146.694156,8.72660813 146.757411,8.8267625 C139.941643,14.4090506 133.128511,19.9939744 126.478788,25.4392092 C123.851053,23.1066667 121.315567,20.8584647 118.679925,18.520651 Z" id="Path"></path>
            <path d="M140.047069,105.098817 C142.036978,105.104101 143.639448,106.685486 143.665804,108.670124 C143.694796,110.707474 142.060699,112.349479 140.015441,112.338987 C138.020261,112.331029 136.425698,110.754916 136.396706,108.767643 C136.367714,106.732928 137.999176,105.093559 140.047069,105.098817 Z" id="Path"></path>
            <path d="M128.073351,112.341572 C126.075535,112.31258 124.509964,110.720653 124.509964,108.717565 C124.509964,106.664401 126.141426,105.064567 128.202497,105.096194 C130.20822,105.127822 131.765884,106.709207 131.765884,108.71493 C131.765884,110.776001 130.142329,112.370564 128.073351,112.341572 Z" id="Path"></path>
        </g>
    </g>
</svg>