<svg width="29" height="28" viewBox="0 0 29 28" fill="none" xmlns="http://www.w3.org/2000/svg">
<path d="M6.74219 20.29C6.74219 22.1885 7.71777 23.1729 9.59863 23.1729H18.959C20.8398 23.1729 21.8154 22.1885 21.8154 20.29V7.02734C21.8154 5.1377 20.8398 4.14453 18.959 4.14453H9.59863C7.71777 4.14453 6.74219 5.1377 6.74219 7.02734V20.29ZM8.46484 20.1846V7.13281C8.46484 6.31543 8.88672 5.86719 9.73926 5.86719H18.8096C19.6621 5.86719 20.0928 6.31543 20.0928 7.13281V20.1846C20.0928 21.002 19.6621 21.4502 18.8096 21.4502H9.73926C8.88672 21.4502 8.46484 21.002 8.46484 20.1846ZM10.5391 9.16309C10.9961 9.16309 11.3564 8.79395 11.3564 8.3457C11.3564 7.88867 10.9961 7.52832 10.5391 7.52832C10.0908 7.52832 9.72168 7.89746 9.72168 8.3457C9.72168 8.79395 10.0908 9.16309 10.5391 9.16309ZM12.9561 8.91699H18.2646C18.5811 8.91699 18.8359 8.66211 18.8359 8.3457C18.8359 8.0293 18.5811 7.77441 18.2646 7.77441H12.9561C12.6396 7.77441 12.3848 8.0293 12.3848 8.3457C12.3848 8.66211 12.6396 8.91699 12.9561 8.91699ZM10.5391 11.7822C10.9961 11.7822 11.3564 11.4131 11.3564 10.9648C11.3564 10.5078 10.9961 10.1562 10.5391 10.1562C10.082 10.1562 9.72168 10.5166 9.72168 10.9648C9.72168 11.4131 10.082 11.7822 10.5391 11.7822ZM12.9561 11.5361H18.2646C18.5898 11.5361 18.8359 11.2812 18.8359 10.9648C18.8359 10.6484 18.5898 10.4023 18.2646 10.4023H12.9561C12.6309 10.4023 12.3848 10.6484 12.3848 10.9648C12.3848 11.2812 12.6309 11.5361 12.9561 11.5361ZM10.5391 14.5332C10.9961 14.5332 11.3564 14.1641 11.3564 13.7158C11.3564 13.2588 10.9961 12.8896 10.5391 12.8896C10.0908 12.8896 9.72168 13.2676 9.72168 13.7158C9.72168 14.1553 10.0908 14.5332 10.5391 14.5332ZM12.9561 14.2871H18.2646C18.5811 14.2871 18.8359 14.0234 18.8359 13.7158C18.8359 13.3994 18.5898 13.1445 18.2646 13.1445H12.9561C12.6309 13.1445 12.3848 13.3994 12.3848 13.7158C12.3848 14.0234 12.6396 14.2871 12.9561 14.2871Z" fill="#0A0A3B"/>
</svg>
