<?xml version="1.0" encoding="UTF-8"?>
<svg width="123px" height="143px" viewBox="0 0 123 143" version="1.1" xmlns="http://www.w3.org/2000/svg" xmlns:xlink="http://www.w3.org/1999/xlink">
    <defs>
        <linearGradient x1="0.0328758116%" y1="50.0043126%" x2="99.9671242%" y2="50.0043126%" id="braveWallet-linearGradient-1">
            <stop stop-color="#F1562B" offset="0%"></stop>
            <stop stop-color="#F1542B" offset="30%"></stop>
            <stop stop-color="#F04D2A" offset="41%"></stop>
            <stop stop-color="#EF4229" offset="49%"></stop>
            <stop stop-color="#EF4029" offset="50%"></stop>
            <stop stop-color="#E83E28" offset="56%"></stop>
            <stop stop-color="#E13C26" offset="67%"></stop>
            <stop stop-color="#DF3C26" offset="100%"></stop>
        </linearGradient>
    </defs>
    <g stroke="none" stroke-width="1" fill="none" fill-rule="evenodd">
        <g transform="translate(-0.040000, -0.000000)" fill-rule="nonzero">
            <g>
                <path d="M121.67,46.16 L117.27,34.21 L120.33,27.35 C120.723543,26.4642603 120.532924,25.4277689 119.85,24.74 L111.53,16.33 C107.884369,12.630688 102.432507,11.3650773 97.53,13.08 L95.2,13.89 L82.49,0.12 L60.93,0 L60.79,0 L39.09,0.17 L26.39,14.05 L24.13,13.25 C19.1948851,11.5144831 13.7012516,12.7933417 10.04,16.53 L1.57,25.1 C1.02588889,25.648301 0.874906849,26.474729 1.19,27.18 L4.38,34.3 L0,46.24 L2.83,57.01 L15.74,106.09 C17.2272751,111.743761 20.6489034,116.697514 25.41,120.09 C25.41,120.09 41.08,131.14 56.54,141.18 C59.0579848,143.190257 62.6320152,143.190257 65.15,141.18 C82.52,129.8 96.26,120.05 96.26,120.05 C101.017355,116.655842 104.435304,111.702293 105.92,106.05 L118.76,56.95 L121.67,46.16 Z" fill="url(#braveWallet-linearGradient-1)"></path>
                <path d="M64.39,88.45 C63.5669928,88.0815769 62.7180436,87.7740834 61.85,87.53 L60.32,87.53 C59.4519564,87.7740834 58.6030072,88.0815769 57.78,88.45 L53.93,90.05 C52.71,90.56 50.75,91.47 49.58,92.05 L42.5,95.74 C41.9754411,95.9101848 41.6071333,96.3823163 41.5697194,96.9325209 C41.5323055,97.4827255 41.8333085,98.0003702 42.33,98.24 L48.48,102.58 C49.56,103.34 51.26,104.68 52.26,105.58 L53.99,107.07 C54.99,107.93 56.62,109.36 57.61,110.24 L59.25,111.69 C60.295673,112.561132 61.814327,112.561132 62.86,111.69 L64.58,110.19 L68.2,107.03 L69.94,105.51 C70.94,104.64 72.63,103.3 73.71,102.51 L79.86,98.11 C80.3579514,97.8709353 80.6581878,97.3508163 80.6161616,96.8000519 C80.5741354,96.2492876 80.1984589,95.7807442 79.67,95.62 L72.6,92.03 C71.42,91.43 69.46,90.53 68.23,90.03 L64.39,88.45 Z" fill="#FFFFFF"></path>
                <path d="M107.99,48.83 L108.19,48.19 C108.201827,47.3338399 108.148338,46.4780247 108.03,45.63 C107.434661,44.1152388 106.669793,42.6727249 105.75,41.33 L101.75,35.46 C101.01,34.36 99.75,32.62 98.9,31.59 L93.54,24.88 C93.0510875,24.2260227 92.5199555,23.6046985 91.95,23.02 L91.84,23.02 C91.84,23.02 90.76,23.21 89.46,23.46 L81.27,25.04 L77.68,25.73 C76.4881527,25.7860012 75.2966262,25.6128734 74.17,25.22 L67.7,23.13 C66.44,22.72 64.36,22.13 63.07,21.85 C61.7104949,21.7055119 60.3395051,21.7055119 58.98,21.85 C57.69,22.15 55.61,22.73 54.35,23.14 L47.88,25.24 C46.7533738,25.6328734 45.5618473,25.8060012 44.37,25.75 L40.78,25.07 L32.58,23.5 C31.28,23.25 30.21,23.05 30.2,23.06 L30.09,23.06 C29.5200445,23.6446985 28.9889125,24.2660227 28.5,24.92 L23.15,31.63 C22.33,32.63 21.04,34.41 20.3,35.5 L16.3,41.37 C15.6091634,42.3822783 14.9780872,43.434072 14.41,44.52 C14.0673254,45.7308857 13.8857615,46.9816591 13.87,48.24 L14.07,48.88 C14.1662777,49.2911154 14.2898857,49.695347 14.44,50.09 C15.27,51.09 16.69,52.75 17.6,53.72 L31.6,68.6 C32.546531,69.7049766 32.8184241,71.2367688 32.31,72.6 L30.02,78.03 C29.4992831,79.4685936 29.4606738,81.0375351 29.91,82.5 L30.37,83.76 C31.1216109,85.8063971 32.4099766,87.6128722 34.1,88.99 L36.3,90.78 C37.4617621,91.6180141 38.9729534,91.799357 40.3,91.26 L48.12,87.53 C49.5554335,86.8114011 50.8985471,85.9215884 52.12,84.88 L58.38,79.23 C58.8837801,78.7751943 59.1819047,78.1357594 59.2063976,77.4574949 C59.2308905,76.7792305 58.9796636,76.1199578 58.51,75.63 L44.38,66.11 C43.2743195,65.3253976 42.9086933,63.8501382 43.52,62.64 L49,52.34 C49.6293996,51.0665719 49.7265373,49.5951158 49.27,48.25 C48.5894857,46.9795356 47.4908028,45.9833022 46.16,45.43 L28.98,38.94 C27.74,38.47 27.81,37.94 29.12,37.86 L39.21,36.86 C40.7922267,36.7593845 42.38054,36.9010175 43.92,37.28 L52.7,39.73 C53.9891578,40.118568 54.7924532,41.4004224 54.58,42.73 L51.13,61.57 C50.8992575,62.6134952 50.8418233,63.6878519 50.96,64.75 C51.1,65.2 52.28,65.75 53.57,66.07 L58.92,67.21 C60.4736545,67.4955573 62.0663455,67.4955573 63.62,67.21 L68.43,66.12 C69.72,65.83 70.89,65.22 71.04,64.77 C71.1550792,63.7073087 71.0942646,62.6329171 70.86,61.59 L67.39,42.75 C67.1775468,41.4204224 67.9808422,40.138568 69.27,39.75 L78.05,37.29 C79.5894342,36.9108627 81.1777713,36.7692275 82.76,36.87 L92.85,37.81 C94.17,37.93 94.23,38.42 93,38.89 L75.83,45.4 C74.4991972,45.9533022 73.4005143,46.9495356 72.72,48.22 C72.2645735,49.5652616 72.3616824,51.0362814 72.99,52.31 L78.48,62.61 C79.0913067,63.8201382 78.7256805,65.2953976 77.62,66.08 L63.5,75.62 C63.0303364,76.1099578 62.7791095,76.7692305 62.8036024,77.4474949 C62.8280953,78.1257594 63.1262199,78.7651943 63.63,79.22 L69.9,84.87 C71.1219914,85.9080878 72.4650823,86.7945278 73.9,87.51 L81.72,91.23 C83.0487364,91.7664887 84.5600492,91.5813529 85.72,90.74 L87.92,88.94 C89.6118429,87.5604629 90.9004042,85.7502588 91.65,83.7 L92.11,82.44 C92.5593262,80.9775351 92.5207169,79.4085936 92,77.97 L89.7,72.54 C89.1915759,71.1767688 89.463469,69.6449766 90.41,68.54 L104.41,53.64 C105.32,52.64 106.73,51.04 107.56,50.01 C107.729232,49.6265929 107.872879,49.2323966 107.99,48.83 L107.99,48.83 Z" fill="#FFFFFF"></path>
            </g>
        </g>
    </g>
</svg>