<svg fill="none" height="34" width="34" xmlns="http://www.w3.org/2000/svg"><linearGradient id="a" x1=".5" x2=".5" y1="0" y2="1"><stop offset="0" stop-color="#534bb1"/><stop offset="1" stop-color="#551bf9"/></linearGradient><linearGradient id="b" x1=".5" x2=".5" y1="0" y2="1"><stop offset="0" stop-color="#fff"/><stop offset="1" stop-color="#fff" stop-opacity=".82"/></linearGradient><circle cx="17" cy="17" fill="url(#a)" r="17"/><path d="m29.1702 17.2071h-2.9969c0-6.1074-4.9683-11.05817-11.0975-11.05817-6.05325 0-10.97463 4.82957-11.09508 10.83237-.12461 6.205 5.71752 11.5932 11.94538 11.5932h.7834c5.4906 0 12.8497-4.2829 13.9995-9.5013.2123-.9619-.5502-1.8661-1.5388-1.8661zm-18.5479.2721c0 .8167-.67038 1.4847-1.49001 1.4847-.81964 0-1.48998-.6683-1.48998-1.4847v-2.4019c0-.8167.67034-1.4847 1.48998-1.4847.81963 0 1.49001.668 1.49001 1.4847zm5.1738 0c0 .8167-.6703 1.4847-1.4899 1.4847-.8197 0-1.49-.6683-1.49-1.4847v-2.4019c0-.8167.6706-1.4847 1.49-1.4847.8196 0 1.4899.668 1.4899 1.4847z" fill="url(#b)"/></svg>
