<svg fill="none" height="50" viewBox="0 0 50 50" width="50" xmlns="http://www.w3.org/2000/svg" xmlns:xlink="http://www.w3.org/1999/xlink"><linearGradient id="a"><stop offset="0" stop-color="#ffc10b"/><stop offset="1" stop-color="#fb3f2e"/></linearGradient><linearGradient id="b" gradientUnits="userSpaceOnUse" x1="6.47835" x2="34.9107" xlink:href="#a" y1="7.92" y2="33.6593"/><radialGradient id="c" cx="0" cy="0" gradientTransform="matrix(4.99218832 12.06387963 -12.18113655 5.04071074 22.5202 20.6183)" gradientUnits="userSpaceOnUse" r="1" xlink:href="#a"/><path d="m25.1708 47.9104c.525 0 .9507.421.9507.9403s-.4257.9402-.9507.9402-.9507-.4209-.9507-.9402.4257-.9403.9507-.9403zm-1.0328-44.91565c.4646.03836.8398.3904.9027.84681l1.1307 8.21574c.3798 2.7143 3.6535 3.8904 5.6743 2.0459l11.3291-10.31158c.2733-.24873.6989-.23149.9507.03851.2309.24772.2379.62697.0161.88277l-9.8791 11.3958c-1.8187 2.0942-.4768 5.3643 2.2956 5.5978l8.7168.8403c.4341.0418.7517.4234.7093.8524-.0349.3537-.3074.6395-.6628.6949l-9.1594 1.4302c-2.6593.3625-3.8636 3.5117-2.1339 5.5576l3.22 3.7961c.2594.3058.2188.7615-.0908 1.0178-.2622.2172-.6419.2256-.9138.0203l-3.9694-2.9978c-2.1421-1.6109-5.2297-.2417-5.4561 2.4243l-.8747 10.3976c-.0362.4295-.4178.7487-.8525.713-.369-.0303-.6671-.3097-.7171-.6721l-1.3871-10.0437c-.3717-2.7144-3.6454-3.8904-5.6743-2.0459l-12.05195 10.974c-.24947.2271-.63809.2114-.868-.035-.21094-.2262-.21735-.5724-.01493-.806l10.51818-12.1385c1.8187-2.0942.4849-5.3644-2.2876-5.5978l-8.71872-.8405c-.43413-.0418-.75172-.4235-.70936-.8524.03493-.3537.30739-.6394.6627-.695l9.15338-1.4299c2.6594-.3625 3.8718-3.5117 2.1421-5.5576l-2.192-2.5841c-.3217-.3792-.2713-.9443.1126-1.2621.3253-.2694.7963-.2797 1.1334-.0249l2.6918 2.0347c2.1421 1.6109 5.2297.2417 5.4561-2.4243l.7241-8.55998c.0457-.5408.5265-.94257 1.0739-.89737zm-23.18733 20.43965c.52504 0 .95067.421.95067.9403s-.42563.9403-.95067.9403c-.525041 0-.95067-.421-.95067-.9403s.425629-.9403.95067-.9403zm47.67973-.9547c.525 0 .9507.421.9507.9403s-.4257.9402-.9507.9402-.9507-.4209-.9507-.9402.4257-.9403.9507-.9403zm-24.6296-22.4797c.525 0 .9506.420973.9506.94027 0 .5193-.4256.94027-.9506.94027-.5251 0-.9507-.42097-.9507-.94027 0-.519297.4256-.94027.9507-.94027z" fill="url(#b)"/><path d="m24.571 32.7792c4.9596 0 8.9802-3.9765 8.9802-8.8819 0-4.9053-4.0206-8.8819-8.9802-8.8819s-8.9802 3.9766-8.9802 8.8819c0 4.9054 4.0206 8.8819 8.9802 8.8819z" fill="url(#c)"/></svg>