<svg xmlns="http://www.w3.org/2000/svg" width="38" height="38" viewBox="0 0 38 38" fill="none">
<g clip-path="url(#clip0)">
<path fill-rule="evenodd" clip-rule="evenodd" d="M1.29438 6.48375C0 9.025 0 12.35 0 19C0 25.65 0 28.975 1.29438 31.5163C2.43438 33.7488 4.25125 35.5656 6.48375 36.7056C9.025 38 12.35 38 19 38C25.65 38 28.975 38 31.5163 36.7056C33.7488 35.5656 35.5656 33.7488 36.7056 31.5163C38 28.975 38 25.65 38 19C38 12.35 38 9.025 36.7056 6.48375C35.5656 4.25125 33.7488 2.43438 31.5163 1.29438C28.975 0 25.65 0 19 0C12.35 0 9.025 0 6.48375 1.29438C4.25125 2.43438 2.43438 4.25125 1.29438 6.48375ZM28.4822 10.2481C28.8147 10.2481 29.1294 10.3847 29.361 10.6163C29.5925 10.8538 29.7232 11.1744 29.7172 11.5009C29.6579 15.0397 29.5213 17.7472 29.266 19.8906C29.0166 22.0341 28.6425 23.6253 28.0785 24.9138C27.6985 25.7747 27.2294 26.4872 26.6772 27.0928C25.935 27.8944 25.086 28.4763 24.1597 29.0285C23.7637 29.2653 23.352 29.4991 22.9201 29.7444C21.9986 30.2677 20.9854 30.8431 19.8372 31.6113C19.4216 31.8903 18.8813 31.8903 18.4657 31.6113C17.2999 30.8341 16.2733 30.2516 15.3434 29.7241C15.1366 29.6068 14.9346 29.4922 14.7369 29.3788C13.6504 28.7494 12.6707 28.1497 11.8157 27.2828C11.2457 26.7128 10.7529 26.0181 10.361 25.1928C9.82661 24.0884 9.46442 22.7525 9.19724 21.0247C8.84098 18.715 8.66286 15.6928 8.59755 11.5009C8.59161 11.1744 8.7163 10.8538 8.94786 10.6163C9.17942 10.3847 9.50005 10.2481 9.83255 10.2481H10.3432C11.9166 10.2541 15.39 10.0997 18.3944 7.76032C18.8397 7.41594 19.4632 7.41594 19.9085 7.76032C22.9129 10.0997 26.3863 10.2541 27.9657 10.2481H28.4822ZM25.7213 24.1241C26.1072 23.3284 26.4279 22.23 26.6713 20.6506C26.9622 18.7625 27.1404 16.1975 27.2235 12.7063C25.371 12.6528 22.1885 12.2966 19.1544 10.2541C16.1204 12.2906 12.9379 12.6469 11.0913 12.7063C11.1566 15.5919 11.2872 17.8363 11.495 19.5997C11.7325 21.6066 12.071 22.9663 12.4925 23.9222C12.7716 24.5575 13.0804 25.0147 13.4485 25.4184C13.9413 25.9588 14.5647 26.4041 15.4138 26.9147C15.766 27.126 16.1543 27.3458 16.577 27.5851C17.3301 28.0113 18.1923 28.4993 19.1544 29.1116C20.0988 28.5093 20.9486 28.0263 21.6929 27.6032C21.9173 27.4757 22.132 27.3536 22.3369 27.2353C23.3819 26.6356 24.1538 26.1369 24.7297 25.555C25.1157 25.1572 25.4304 24.7238 25.7213 24.1241Z" fill="#3375BB"/>
</g>
</svg>