<svg width="37" height="38" viewBox="0 0 37 38" fill="none" xmlns="http://www.w3.org/2000/svg">
<path fill-rule="evenodd" clip-rule="evenodd" d="M18.5 0.707033C8.28273 0.707034 -2.51054e-06 8.98977 -1.61732e-06 19.207C-7.24099e-07 29.4243 8.28273 37.707 18.5 37.707C28.7173 37.707 37 29.4243 37 19.207C37 8.98976 28.7173 0.707032 18.5 0.707033ZM2 19.207C2 10.0943 9.38733 2.70703 18.5 2.70703C27.6127 2.70703 35 10.0943 35 19.207C35 28.3197 27.6127 35.707 18.5 35.707C9.38733 35.707 2 28.3197 2 19.207Z" fill="url(#paint0_linear_1202:216)"/>
<defs>
<linearGradient id="paint0_linear_1202:216" x1="37" y1="0.707191" x2="-3.23463e-06" y2="0.707194" gradientUnits="userSpaceOnUse">
<stop stop-color="#435AFF"/>
<stop offset="0.484375" stop-color="#7342FF"/>
<stop offset="1" stop-color="#D235CF"/>
</linearGradient>
</defs>
</svg>
