<svg width="73" height="21" viewBox="0 0 73 21" fill="none" xmlns="http://www.w3.org/2000/svg">
<g opacity="0.8">
<path fill-rule="evenodd" clip-rule="evenodd" d="M0 13.8186V10.2534C0 4.59058 4.59058 0 10.2534 0C13.0465 0 15.5788 1.11685 17.428 2.92835L15.2483 4.29038C13.897 3.15725 12.1548 2.47495 10.2534 2.47495C5.95746 2.47495 2.47495 5.95746 2.47495 10.2534H4.94988L0 13.8186ZM5.22096 16.1846C6.57745 17.3367 8.3343 18.0318 10.2535 18.0318C14.5494 18.0318 18.0319 14.5493 18.0319 10.2534H15.5569L20.5066 6.62936L20.5068 10.2534C20.5068 15.9162 15.9163 20.5067 10.2535 20.5067C7.44302 20.5067 4.89667 19.376 3.04452 17.5446L5.22096 16.1846ZM14.1868 13.6564H11.3583L10.2535 12.164L9.1487 13.6564H6.3202L8.88265 10.3122L6.31997 6.85035H8.9717L10.2535 8.52317L11.5353 6.85035H14.187L11.6243 10.3122L14.1868 13.6564Z" fill="white"/>
<path d="M33.7602 6.34684L31.7784 6.97074C31.6928 6.46917 31.442 6.01042 31.0261 5.59448C30.6101 5.17854 30.0107 4.97057 29.2277 4.97057C28.5794 4.97057 28.0411 5.15407 27.6129 5.52108C27.197 5.88808 26.989 6.32849 26.989 6.84229C26.989 7.73533 27.4967 8.29196 28.5121 8.51216L30.3838 8.89751C31.5093 9.11771 32.3779 9.56424 32.9895 10.2371C33.6012 10.9099 33.907 11.7112 33.907 12.641C33.907 13.7175 33.4911 14.6472 32.6592 15.4302C31.8396 16.2009 30.7202 16.5862 29.3011 16.5862C27.772 16.5862 26.5792 16.1887 25.7229 15.3935C24.8665 14.5861 24.3833 13.6502 24.2732 12.5859L26.3284 11.9987C26.4018 12.7327 26.6954 13.3505 27.2092 13.8521C27.723 14.3536 28.4203 14.6044 29.3011 14.6044C30.0596 14.6044 30.6407 14.4393 31.0444 14.109C31.4603 13.7664 31.6683 13.3321 31.6683 12.8061C31.6683 12.3779 31.5154 12.0109 31.2096 11.7051C30.9037 11.387 30.4756 11.1668 29.9251 11.0445L28.09 10.6591C27.0747 10.4512 26.2672 10.0291 25.6678 9.39297C25.0806 8.75683 24.787 7.96165 24.787 7.00744C24.787 5.91866 25.2213 4.98281 26.0899 4.19986C26.9584 3.41692 27.9983 3.02545 29.2094 3.02545C30.5918 3.02545 31.65 3.36187 32.384 4.03471C33.118 4.69532 33.5767 5.46603 33.7602 6.34684Z" fill="white"/>
<path d="M39.8531 7.37445H42.0551L44.1654 13.5585L45.9453 7.37445H48.1107L45.248 16.311H43.1194L40.899 9.88842L38.7337 16.311H36.55L33.6507 7.37445H35.9261L37.7428 13.5585L39.8531 7.37445Z" fill="white"/>
<path d="M48.212 13.8888C48.212 13.1303 48.4567 12.5247 48.946 12.0721C49.4476 11.6072 50.1021 11.3136 50.9095 11.1913L53.2033 10.8426C53.6437 10.7815 53.8639 10.5674 53.8639 10.2004C53.8639 9.79667 53.7232 9.47248 53.4418 9.22782C53.1604 8.97091 52.7384 8.84246 52.1757 8.84246C51.6374 8.84246 51.2092 8.99538 50.8911 9.30122C50.5731 9.59482 50.3896 9.98017 50.3406 10.4573L48.3955 10.0169C48.4812 9.20947 48.8665 8.52439 49.5516 7.96165C50.2367 7.38668 51.1052 7.09919 52.1573 7.09919C53.4541 7.09919 54.4083 7.41115 55.0199 8.03505C55.6438 8.65896 55.9558 9.46025 55.9558 10.4389V14.8797C55.9558 15.4669 55.9925 15.944 56.0659 16.311H54.0841C54.0229 16.1275 53.9923 15.7482 53.9923 15.1733C53.4051 16.1153 52.4876 16.5862 51.2398 16.5862C50.3345 16.5862 49.6005 16.3232 49.0378 15.7972C48.4873 15.2589 48.212 14.6228 48.212 13.8888ZM51.6435 14.9164C52.3041 14.9164 52.8363 14.739 53.24 14.3842C53.6559 14.0172 53.8639 13.4239 53.8639 12.6042V12.2005L51.5334 12.5492C50.7382 12.6838 50.3406 13.0875 50.3406 13.7603C50.3406 14.0784 50.4569 14.3536 50.6893 14.5861C50.9217 14.8063 51.2398 14.9164 51.6435 14.9164Z" fill="white"/>
<path d="M59.7217 19.7975H57.6115V7.37445H59.6667V8.58556C59.8991 8.18185 60.2661 7.84543 60.7677 7.5763C61.2693 7.30716 61.8504 7.17259 62.511 7.17259C63.7955 7.17259 64.8047 7.613 65.5387 8.49381C66.2728 9.36238 66.6398 10.4756 66.6398 11.8335C66.6398 13.1915 66.2544 14.3169 65.4837 15.21C64.713 16.0908 63.6976 16.5312 62.4376 16.5312C61.8259 16.5312 61.2815 16.415 60.8044 16.1825C60.3273 15.9501 59.9664 15.6565 59.7217 15.3017V19.7975ZM64.5111 11.8335C64.5111 11.0017 64.2909 10.3349 63.8505 9.83337C63.4101 9.31957 62.829 9.06266 62.1073 9.06266C61.3977 9.06266 60.8166 9.31957 60.364 9.83337C59.9236 10.3349 59.7034 11.0017 59.7034 11.8335C59.7034 12.6777 59.9236 13.3566 60.364 13.8704C60.8166 14.3842 61.3977 14.6411 62.1073 14.6411C62.8168 14.6411 63.3918 14.3842 63.8322 13.8704C64.2848 13.3566 64.5111 12.6777 64.5111 11.8335Z" fill="white"/>
<path d="M72.9984 7.3194V9.48472C72.7537 9.44802 72.5213 9.42967 72.3011 9.42967C70.6985 9.42967 69.8972 10.3044 69.8972 12.0537V16.311H67.7686V7.37445H69.8422V8.80576C70.0501 8.32866 70.3865 7.95554 70.8514 7.6864C71.3163 7.40503 71.8423 7.26434 72.4295 7.26434C72.6253 7.26434 72.8149 7.2827 72.9984 7.3194Z" fill="white"/>
</g>
</svg>
