<svg width="30" height="30" viewBox="0 0 30 30" fill="none" xmlns="http://www.w3.org/2000/svg">
<path d="M9.57471 23.4444H20.6489C22.4664 23.4444 23.5211 22.3897 23.5211 20.3745V10.6281C23.5211 8.61286 22.457 7.55818 20.4229 7.55818H19.0951C19.0481 5.4488 17.2494 3.69727 14.9988 3.69727C12.7576 3.69727 10.9496 5.4488 10.9025 7.55818H9.57471C7.54067 7.55818 6.47656 8.61286 6.47656 10.6281V20.3745C6.47656 22.3897 7.54067 23.4444 9.57471 23.4444ZM14.9988 5.36405C16.2889 5.36405 17.24 6.33398 17.2777 7.55818H12.7199C12.7576 6.33398 13.7087 5.36405 14.9988 5.36405Z" fill="#4673FA"/>
<path d="M14.4407 20.3577C14.057 20.3577 13.744 20.1936 13.4613 19.814L10.9875 16.757C10.8057 16.5313 10.7148 16.2851 10.7148 16.0287C10.7148 15.5055 11.1187 15.0746 11.6438 15.0746C11.9568 15.0746 12.1991 15.1977 12.4516 15.526L14.4003 18.0393L18.5806 11.2483C18.7926 10.8995 19.0854 10.7148 19.3985 10.7148C19.9033 10.7148 20.3577 11.0739 20.3577 11.6073C20.3577 11.8433 20.2466 12.0997 20.0952 12.3357L15.3697 19.814C15.1475 20.173 14.8143 20.3577 14.4407 20.3577Z" fill="white"/>
</svg>
