<svg width="29" height="28" viewBox="0 0 29 28" fill="none" xmlns="http://www.w3.org/2000/svg">
<g clip-path="url(#clip0_564_11230)">
<path d="M7.2207 16.0615L13.9092 9.22363C14.1377 8.97754 14.4102 8.86328 14.7178 8.86328C15.0254 8.86328 15.3066 8.98633 15.5352 9.22363L22.2148 16.0615C22.4082 16.2549 22.5137 16.501 22.5137 16.791C22.5137 17.3799 22.0566 17.8369 21.4766 17.8369C21.1953 17.8369 20.9229 17.7314 20.7207 17.5205L14.7266 11.3594L8.71484 17.5205C8.52148 17.7227 8.24902 17.8369 7.95898 17.8369C7.37891 17.8369 6.92188 17.3799 6.92188 16.791C6.92188 16.5098 7.02734 16.2549 7.2207 16.0615Z" fill="currentColor"/>
</g>
<defs>
<clipPath id="clip0_564_11230">
<rect width="28" height="28" fill="white" transform="translate(0.716797)"/>
</clipPath>
</defs>
</svg>
