<svg width="33" height="32" viewBox="0 0 33 32" fill="none" xmlns="http://www.w3.org/2000/svg">
<path d="M5.12898 13.5458C4.33545 13.5458 4.13456 14.1484 4.56648 14.7411L7.02741 18.1362C7.35889 18.6083 7.89125 18.5982 8.21268 18.1362L10.6736 14.731C11.0854 14.1585 10.8946 13.5458 10.1111 13.5458H8.66469C9.56871 9.93973 12.8131 7.29799 16.7205 7.29799C19.4024 7.30804 21.7529 8.55357 23.2596 10.5324C23.6714 11.0045 24.2741 11.1551 24.7663 10.7935C25.2283 10.4621 25.3187 9.80915 24.8667 9.26674C23.0185 6.84598 19.9649 5.21875 16.7205 5.21875C11.7283 5.21875 7.49951 8.82478 6.53523 13.5458H5.12898ZM16.3488 9.78906C15.8567 9.78906 15.4649 10.1808 15.4649 10.6629V16.1071C15.4649 16.3482 15.5453 16.5692 15.716 16.8002L18.1167 19.9542C18.4683 20.4263 18.9906 20.5067 19.4225 20.1953C19.8343 19.904 19.8745 19.3717 19.5531 18.9397L17.2227 15.8058V10.6629C17.2227 10.1808 16.831 9.78906 16.3488 9.78906ZM16.7205 25.9911C21.7127 25.9911 25.9415 22.385 26.9058 17.6641H28.312C29.1055 17.6641 29.3064 17.0614 28.8745 16.4688L26.4236 13.0737C26.0821 12.6116 25.5497 12.6116 25.2283 13.0737L22.7674 16.4788C22.3555 17.0614 22.5464 17.6641 23.3299 17.6641H24.7863C23.8723 21.2701 20.6279 23.9219 16.7205 23.9219C14.0386 23.9118 11.6881 22.6563 10.1814 20.6775C9.7696 20.2054 9.17697 20.0547 8.67473 20.4163C8.21268 20.7478 8.12228 21.4007 8.57429 21.9531C10.4225 24.3638 13.4761 25.9911 16.7205 25.9911Z" fill="#4673FA"/>
</svg>
