<svg width="14" height="8" viewBox="0 0 14 8" fill="none" xmlns="http://www.w3.org/2000/svg">
<path fill-rule="evenodd" clip-rule="evenodd" d="M0.880867 0.48089C1.12465 0.237177 1.45525 0.100267 1.79997 0.100267C2.14468 0.100267 2.47528 0.237177 2.71907 0.48089L6.99997 4.76179L11.2809 0.48089C11.4008 0.356727 11.5442 0.25769 11.7028 0.189558C11.8614 0.121426 12.032 0.0855639 12.2046 0.084064C12.3773 0.082564 12.5484 0.115456 12.7082 0.180821C12.868 0.246186 13.0131 0.342715 13.1352 0.464776C13.2572 0.586836 13.3538 0.731984 13.4191 0.891749C13.4845 1.05151 13.5174 1.2227 13.5159 1.39531C13.5144 1.56792 13.4785 1.73851 13.4104 1.89712C13.3423 2.05572 13.2432 2.19917 13.1191 2.31909L7.91907 7.51909C7.67528 7.7628 7.34468 7.89971 6.99997 7.89971C6.65525 7.89971 6.32465 7.7628 6.08087 7.51909L0.880867 2.31909C0.637154 2.0753 0.500244 1.7447 0.500244 1.39999C0.500244 1.05528 0.637154 0.724676 0.880867 0.48089Z" fill="black"/>
</svg>
