<svg width="20" height="20" viewBox="0 0 20 20" fill="none" xmlns="http://www.w3.org/2000/svg">
<path d="M10.418 5.06609C10.4704 5.37012 10.5351 5.67294 10.6121 5.97456C10.6213 6.01097 10.6308 6.0473 10.6406 6.08354C10.6907 6.27249 10.7457 6.45997 10.8056 6.64599C10.813 6.66892 10.8213 6.69185 10.8313 6.71453C10.8599 6.78424 10.897 6.85018 10.9416 6.91085C10.9442 6.91446 10.9468 6.91807 10.9496 6.92142C11.0188 7.01331 11.1044 7.09143 11.2022 7.15176L11.2047 7.1533L11.2204 7.16232L11.2307 7.16824L11.7594 7.47485L11.7635 7.47716L11.7758 7.48438L11.7802 7.4867L11.7997 7.49803L11.8061 7.50164L11.8197 7.50808C11.8323 7.51478 11.8454 7.52097 11.8582 7.52689L11.887 7.53926C11.899 7.54415 11.9114 7.54905 11.9234 7.55343C11.9355 7.55781 11.9455 7.56116 11.9565 7.56477L11.9878 7.5743L12.0258 7.58409L12.0618 7.59208L12.0777 7.59543C12.1906 7.61595 12.3064 7.61508 12.4191 7.59285C12.6152 7.55094 12.8094 7.50396 13.0017 7.45192C13.0379 7.44238 13.0741 7.43233 13.11 7.42229C13.5952 7.28706 14.071 7.11965 14.5341 6.92116C14.6408 6.87564 14.7466 6.82841 14.8513 6.77945C15.1314 6.64925 15.4052 6.50823 15.6727 6.35639C15.4639 6.0239 15.2266 5.71035 14.9635 5.41933L14.9581 5.41314L14.9532 5.40773L14.9512 5.40541L14.9478 5.40181L14.9373 5.39021L14.9358 5.38867L14.9334 5.38609C14.9077 5.35861 14.8803 5.3328 14.8513 5.30879C14.7435 5.21963 14.617 5.15611 14.4812 5.123C14.3454 5.08989 14.204 5.08805 14.0674 5.11762L14.0605 5.11942C14.0428 5.12329 14.0253 5.12767 14.0076 5.13282L13.9968 5.13617C13.9812 5.14107 13.9655 5.14596 13.9499 5.15163L13.8698 5.18693L13.8392 5.20032C13.5675 5.31798 13.2895 5.42328 13.0053 5.5162C12.8224 5.57598 12.637 5.63034 12.4491 5.67929C12.3962 5.49379 12.3499 5.30656 12.3102 5.11762C12.3102 5.11427 12.3089 5.11118 12.3082 5.10783C12.3054 5.09443 12.3025 5.08206 12.3 5.06738C12.2433 4.79255 12.1987 4.51601 12.1662 4.23775C12.1614 4.19653 12.1567 4.1553 12.1526 4.11382C12.1388 4.0336 12.1143 3.95561 12.0797 3.88194C12.0205 3.75564 11.9337 3.64435 11.8258 3.55631C11.7178 3.46827 11.5915 3.40573 11.4563 3.37334C11.398 3.36046 11.3397 3.34757 11.281 3.33701C10.9415 3.27093 10.5975 3.23139 10.252 3.21875C10.2557 3.60683 10.2789 3.99447 10.3213 4.38023C10.3468 4.60833 10.379 4.83695 10.418 5.06609Z" fill="#30B465"/>
<path d="M9.74715 3.2151C9.34195 3.22987 8.93894 3.28162 8.54308 3.36969C8.36795 3.41102 8.2087 3.50292 8.085 3.63405C7.96129 3.76518 7.87855 3.9298 7.84698 4.1076C7.8439 4.13748 7.84056 4.16711 7.83723 4.19674C7.83594 4.20937 7.83466 4.22251 7.83312 4.23436C7.8285 4.27533 7.82285 4.31629 7.81746 4.35726C7.78666 4.59344 7.74731 4.8291 7.69939 5.06425C7.6958 5.08099 7.69246 5.09774 7.68887 5.11449C7.64883 5.30343 7.60305 5.49168 7.55155 5.67925C7.36332 5.63047 7.17791 5.57611 6.99533 5.51616L6.95786 5.50354C6.76501 5.43964 6.57499 5.36999 6.38778 5.29458L6.36622 5.28608C6.33825 5.27474 6.31078 5.26289 6.28306 5.2513C6.24174 5.23404 6.20041 5.21729 6.1596 5.19977C6.12315 5.18397 6.08688 5.16799 6.05077 5.15185C6.03948 5.14772 6.02818 5.14437 6.01689 5.14077L5.99276 5.13278C5.97916 5.12892 5.96555 5.12582 5.95221 5.12247L5.93296 5.11784C5.91627 5.11397 5.89959 5.11114 5.8829 5.10856L5.87315 5.10676C5.74517 5.08773 5.61464 5.09582 5.48998 5.13053C5.36531 5.16523 5.24926 5.22577 5.14933 5.30824C5.12035 5.33224 5.09292 5.35806 5.06719 5.38553L5.06386 5.38914L5.05821 5.39532L5.04794 5.40666L5.03767 5.41826C4.77372 5.70935 4.53564 6.02308 4.32617 6.35584C4.59346 6.50768 4.86724 6.6487 5.14753 6.7789C5.25225 6.82785 5.358 6.87509 5.46478 6.9206C5.92737 7.11929 6.40258 7.28696 6.88727 7.4225C6.92321 7.43255 6.9594 7.4426 6.99559 7.45213L7.04487 7.46502C7.22061 7.51191 7.39831 7.55485 7.57799 7.59384C7.69062 7.61607 7.80641 7.61695 7.91936 7.59642C7.92809 7.59487 7.93682 7.59255 7.94503 7.59075L7.96608 7.58611C7.98225 7.5825 7.99791 7.57812 8.01382 7.57374L8.03949 7.56601L8.07516 7.5539L8.11059 7.53999L8.13831 7.52814C8.15242 7.5217 8.16654 7.51474 8.1804 7.50779L8.19093 7.50263L8.19632 7.4998L8.21018 7.49181H8.21146L8.21377 7.49052L8.23764 7.47661L8.75099 7.1798L8.79334 7.15532L8.79591 7.15378C8.89417 7.09278 8.98005 7.01366 9.04899 6.9206C9.05181 6.91725 9.05438 6.91365 9.05695 6.91004C9.11592 6.82962 9.16159 6.74019 9.19221 6.64518C9.20299 6.61168 9.21326 6.57819 9.22378 6.54469C9.27153 6.39131 9.31602 6.23732 9.35726 6.08273C9.36701 6.04632 9.37651 6.00999 9.38575 5.97375C9.46292 5.6723 9.5276 5.36947 9.57979 5.06528C9.61898 4.83631 9.65132 4.60666 9.67682 4.37632C9.7192 3.99057 9.74233 3.60292 9.74612 3.21484L9.74715 3.2151Z" fill="#30B465"/>
<path d="M5.57074 12.0222C5.81355 11.8202 6.04866 11.6074 6.27608 11.3838C6.30303 11.358 6.32947 11.3322 6.35616 11.3047C6.40596 11.2549 6.45472 11.2039 6.50349 11.1532C6.52762 11.1274 6.55175 11.1032 6.57562 11.0779C6.6344 11.0156 6.69292 10.9527 6.75041 10.8891C6.90195 10.7247 6.98935 10.511 6.99656 10.2872V10.2246C6.99656 10.2055 6.99451 10.1862 6.99246 10.1671H6.99656V9.70337H6.99271C6.99477 9.68327 6.99605 9.66292 6.99656 9.64256V9.57995C6.98858 9.36819 6.90901 9.16546 6.77095 9.00514C6.7635 8.99664 6.7558 8.98839 6.7481 8.97937L6.73014 8.96005C6.67298 8.89684 6.61515 8.8344 6.55662 8.77274L6.54713 8.76269C6.48398 8.69622 6.42007 8.63052 6.35539 8.56559C6.32972 8.53983 6.30226 8.51277 6.27531 8.48649C6.04824 8.2632 5.81312 8.05038 5.56997 7.84804C5.4317 7.73278 5.29096 7.62114 5.14774 7.5131C4.8683 7.30182 4.58048 7.10429 4.28428 6.9205C4.21481 6.87722 4.14482 6.83471 4.07432 6.79297C4.05191 6.83522 4.03009 6.87773 4.00887 6.9205C3.85905 7.21965 3.73189 7.52971 3.62848 7.84804H3.63412C3.59393 7.95218 3.57297 8.0628 3.57227 8.17448C3.57227 8.18221 3.57227 8.1902 3.57227 8.19793C3.57227 8.2005 3.57227 8.20308 3.57227 8.20566C3.57741 8.44434 3.67425 8.6718 3.84254 8.8405L3.85743 8.85416C3.87001 8.86627 3.8831 8.87838 3.89593 8.88997C3.91621 8.90466 3.93649 8.91986 3.95676 8.9348C3.97114 8.94537 3.98551 8.95567 3.99963 8.96649C4.17708 9.09927 4.35025 9.23831 4.51914 9.38363C4.57527 9.43241 4.63113 9.48179 4.68675 9.53177L4.72859 9.56991C4.76127 9.59979 4.79378 9.62994 4.82612 9.66034L4.87027 9.70182C4.94984 9.77757 5.0283 9.85486 5.10564 9.93371C5.0283 10.0125 4.94984 10.0898 4.87027 10.1656C4.8097 10.2233 4.74852 10.28 4.68675 10.3356C4.46549 10.5356 4.23645 10.724 3.99963 10.9009L3.9465 10.9403C3.92956 10.9527 3.91287 10.9661 3.89516 10.9774C3.79706 11.0615 3.71762 11.1653 3.662 11.2821C3.60638 11.3989 3.57581 11.5261 3.57227 11.6556C3.57227 11.6602 3.57227 11.6646 3.57227 11.6692C3.57227 11.6739 3.57227 11.6829 3.57227 11.6896C3.57232 11.8033 3.59329 11.9161 3.63412 12.0222H3.63053C3.73394 12.3405 3.8611 12.6506 4.01092 12.9497C4.03231 12.9925 4.05413 13.0355 4.07637 13.0786C4.1467 13.0368 4.21669 12.9939 4.28634 12.9497C4.58202 12.7661 4.86984 12.5686 5.14979 12.3571C5.29199 12.2493 5.4323 12.1376 5.57074 12.0222Z" fill="#30B465"/>
<path d="M16.4283 11.6721C16.4283 11.6695 16.4283 11.6669 16.4283 11.6643C16.4232 11.4256 16.3263 11.1982 16.158 11.0295C16.1534 11.0248 16.148 11.0205 16.1434 11.0158C16.1306 11.0037 16.1177 10.9916 16.1046 10.98L16.0438 10.9352L16.0009 10.9035C15.8235 10.7707 15.6503 10.6317 15.4814 10.4864C15.4253 10.4376 15.3694 10.3882 15.3138 10.3382L15.2715 10.2996C15.2391 10.2699 15.207 10.2403 15.1752 10.2102L15.1282 10.1669C15.0487 10.0911 14.9702 10.0138 14.8929 9.93499C14.9701 9.85615 15.0485 9.77886 15.1282 9.70311C15.1888 9.6454 15.25 9.58871 15.3118 9.53306C15.533 9.33313 15.7621 9.1447 15.9989 8.96778L16.052 8.92836C16.069 8.91599 16.0856 8.9026 16.1034 8.89126C16.2015 8.80719 16.2809 8.7034 16.3366 8.58659C16.3922 8.46978 16.4229 8.34256 16.4265 8.21313C16.4265 8.20849 16.4265 8.20411 16.4265 8.19947C16.4265 8.19484 16.4265 8.18582 16.4265 8.17912C16.4266 8.06595 16.406 7.95373 16.3657 7.84804H16.3693C16.2659 7.52971 16.1387 7.21966 15.9889 6.92051C15.9675 6.87774 15.9457 6.83522 15.9234 6.79297C15.8531 6.83471 15.7831 6.87722 15.7135 6.92051C15.4178 7.10429 15.13 7.30182 14.85 7.5131C14.707 7.62097 14.5662 7.73261 14.4278 7.84804C14.185 8.05004 13.9499 8.26285 13.7224 8.48649C13.6955 8.51226 13.6691 8.53802 13.6424 8.56559C13.591 8.61712 13.5417 8.66865 13.4917 8.72018C13.4691 8.74388 13.4463 8.76733 13.4239 8.79103C13.3649 8.85356 13.3063 8.91685 13.2481 8.98092C13.0965 9.14533 13.0091 9.35913 13.002 9.58305V9.64565C13.002 9.66472 13.004 9.68404 13.0061 9.70311H13.002V10.1669H13.0058C13.0038 10.187 13.0025 10.2073 13.002 10.2277V10.2903C13.0101 10.502 13.0896 10.7047 13.2276 10.8651C13.235 10.8736 13.2427 10.8819 13.2504 10.8909L13.2684 10.9102C13.3257 10.9734 13.3835 11.0358 13.4419 11.0975L13.4514 11.1076C13.5148 11.174 13.5784 11.2397 13.6431 11.3047C13.6688 11.3304 13.6963 11.3575 13.7232 11.3838C13.9503 11.607 14.1854 11.8199 14.4286 12.0222C14.567 12.1375 14.7077 12.2491 14.8508 12.3571C15.1304 12.5684 15.4182 12.766 15.7142 12.9497C15.7839 12.993 15.8539 13.036 15.9242 13.0786C15.9464 13.0363 15.9683 12.9934 15.9896 12.9497C16.1395 12.6506 16.2666 12.3405 16.37 12.0222H16.3664C16.4067 11.9181 16.4278 11.8075 16.4286 11.6958C16.4278 11.687 16.4283 11.6798 16.4283 11.6721Z" fill="#30B465"/>
<path d="M9.58082 14.8058C9.52846 14.5018 9.46377 14.199 9.38677 13.8974C9.37753 13.8609 9.36803 13.8246 9.35828 13.7884C9.30814 13.5994 9.25313 13.4119 9.19324 13.2259C9.18579 13.203 9.17758 13.1801 9.16757 13.1574C9.13871 13.0877 9.10156 13.0218 9.05694 12.9611C9.05438 12.9575 9.05181 12.9538 9.04899 12.9505C8.97982 12.8586 8.89416 12.7805 8.79642 12.7202L8.79385 12.7186L8.7782 12.7096L8.76793 12.7037L8.23918 12.3971L8.23507 12.3948L8.22275 12.3875L8.21864 12.3852L8.19888 12.3739L8.19246 12.3703L8.17912 12.3638C8.16628 12.3571 8.15345 12.351 8.14036 12.345L8.11161 12.3327C8.09955 12.3278 8.08748 12.3229 8.07516 12.3185L8.04205 12.3072L8.01074 12.2976L7.97301 12.2878L7.93682 12.2798L7.9209 12.2765C7.80795 12.256 7.69216 12.2568 7.57952 12.2791C7.38342 12.321 7.18921 12.368 6.99687 12.42C6.96068 12.4295 6.92449 12.4396 6.88856 12.4496C6.40344 12.5849 5.9278 12.7523 5.46478 12.9508C5.358 12.9963 5.25225 13.0435 5.14753 13.0925C4.86741 13.2225 4.59363 13.3635 4.32617 13.5155C4.53493 13.848 4.77223 14.1616 5.03536 14.4526L5.04101 14.4588L5.04563 14.4642L5.04768 14.4665L5.05102 14.4701L5.06154 14.4817L5.06309 14.4832L5.0654 14.4858C5.09112 14.5133 5.11856 14.5391 5.14753 14.5631C5.25539 14.6523 5.38197 14.7158 5.51777 14.7489C5.65357 14.7821 5.79507 14.7839 5.93167 14.7543L5.93835 14.7525C5.95606 14.7486 5.97377 14.7442 5.99122 14.7391L6.002 14.7357C6.01766 14.7309 6.03332 14.726 6.04897 14.7203L6.12906 14.685L6.1596 14.6716C6.4315 14.5538 6.70948 14.4485 6.99354 14.3557C7.17646 14.2959 7.36186 14.2416 7.54975 14.1926C7.60108 14.3802 7.64686 14.5684 7.68707 14.7574C7.68707 14.7607 7.68835 14.7638 7.68912 14.7672C7.69195 14.7806 7.69477 14.7942 7.69734 14.8076C7.75398 15.0833 7.79855 15.3599 7.83107 15.6373C7.83594 15.6785 7.84056 15.7197 7.84467 15.7612C7.85853 15.8414 7.88305 15.9194 7.91757 15.9931C7.97682 16.1194 8.06362 16.2307 8.17155 16.3187C8.27947 16.4067 8.40575 16.4693 8.54103 16.5017V16.503C8.59929 16.5158 8.65781 16.5287 8.71634 16.5393C9.05578 16.6053 9.39981 16.6449 9.74535 16.6575C9.74156 16.2695 9.71843 15.8818 9.67604 15.4961C9.65157 15.265 9.61983 15.035 9.58082 14.8058Z" fill="#30B465"/>
<path d="M14.5333 12.9504C14.0707 12.7517 13.5955 12.584 13.1108 12.4485C13.0749 12.4384 13.0387 12.4284 13.0025 12.4188L12.9532 12.4059C12.7773 12.359 12.5996 12.3161 12.4201 12.2771C12.3074 12.2549 12.1917 12.254 12.0787 12.2745C12.07 12.2761 12.0613 12.2784 12.053 12.2802L12.032 12.2848C12.0161 12.2885 12.0002 12.2928 11.9843 12.2972L11.9586 12.3049L11.9229 12.3171C11.9111 12.3214 11.8993 12.3261 11.8877 12.331L11.8598 12.3428C11.8456 12.3493 11.8315 12.3562 11.8177 12.3632L11.8071 12.3683L11.8018 12.3712L11.7879 12.3791H11.7866L11.7843 12.3804L11.7604 12.3943L11.2473 12.6927L11.205 12.7185L11.2024 12.72C11.1043 12.7801 11.0184 12.8583 10.9491 12.9504C10.9463 12.9537 10.9437 12.9573 10.9411 12.9609C10.8822 13.0413 10.8365 13.1308 10.8059 13.2258C10.7951 13.2593 10.7848 13.2928 10.7743 13.3263C10.7265 13.4795 10.6821 13.6335 10.6408 13.7882C10.6311 13.8246 10.6216 13.861 10.6123 13.8972C10.5352 14.1987 10.4705 14.5015 10.4183 14.8057C10.3791 15.0348 10.3468 15.2645 10.3213 15.4946C10.2789 15.8804 10.2557 16.268 10.252 16.6561C10.6571 16.6413 11.0602 16.5896 11.456 16.5015V16.5002C11.6312 16.4589 11.7904 16.367 11.9141 16.2359C12.0378 16.1047 12.1205 15.9401 12.1521 15.7623C12.1552 15.7324 12.1585 15.7028 12.1619 15.6732C12.1632 15.6606 12.1644 15.6474 12.166 15.6356C12.1709 15.5946 12.1762 15.5536 12.1816 15.5127C12.2124 15.2763 12.2518 15.0407 12.2997 14.8057C12.3033 14.7889 12.3066 14.7722 12.3102 14.7541C12.3503 14.5652 12.396 14.377 12.4475 14.1894C12.6358 14.238 12.8212 14.2924 13.0038 14.3525L13.0412 14.3651C13.2339 14.429 13.4239 14.4986 13.6113 14.5741L13.6331 14.5826L13.7163 14.6173C13.7574 14.6346 13.7987 14.6513 13.8395 14.6689C13.8759 14.6845 13.9122 14.7005 13.9483 14.7168H13.9496C13.9609 14.7209 13.9722 14.7243 13.9835 14.7279L14.0079 14.7359C14.0212 14.7397 14.0348 14.7428 14.0482 14.7462L14.0674 14.7508C14.0841 14.7547 14.1008 14.7575 14.1188 14.7601L14.1283 14.7619C14.2562 14.7809 14.3868 14.7728 14.5114 14.7381C14.6361 14.7034 14.7521 14.6429 14.8521 14.5604C14.8811 14.5364 14.9085 14.5106 14.9342 14.4831L14.9376 14.4795L14.9432 14.4733L14.9535 14.462L14.9637 14.4504C15.2264 14.1599 15.4634 13.8469 15.6719 13.5151C15.4046 13.3634 15.1308 13.2224 14.8505 13.0921C14.7458 13.0431 14.6401 12.9959 14.5333 12.9504Z" fill="#30B465"/>
</svg>
