<svg width="13" height="13" viewBox="0 0 13 13" fill="none" xmlns="http://www.w3.org/2000/svg">
<path d="M2.91211 12.6289H10.5146C11.877 12.6289 12.5801 11.9258 12.5801 10.5823V2.9421C12.5801 1.59863 11.877 0.895508 10.5146 0.895508H2.91211C1.55608 0.895508 0.84668 1.59235 0.84668 2.9421V10.5823C0.84668 11.9258 1.55608 12.6289 2.91211 12.6289ZM8.76939 8.46666C8.43666 8.46666 8.22321 8.24065 8.22321 7.87653V6.84696L8.31111 5.91155L7.44475 6.86579L5.18471 9.12584C5.05915 9.2514 4.90848 9.31417 4.72642 9.31417C4.39369 9.31417 4.14886 9.08189 4.14886 8.73033C4.14886 8.57338 4.21791 8.41643 4.33719 8.30343L6.60979 6.03083L7.57031 5.1582L6.68513 5.25865H5.59277C5.23493 5.25865 4.99637 5.0452 4.99637 4.71247C4.99637 4.37974 5.22866 4.16629 5.5865 4.16629H8.63756C9.0519 4.16629 9.30929 4.37974 9.30929 4.83803V7.86398C9.30929 8.22182 9.09584 8.46666 8.76939 8.46666Z" fill="#30B465"/>
</svg>
