<svg xmlns="http://www.w3.org/2000/svg" width="52" height="52" fill="none" viewBox="0 0 52 52">
  <path fill="#70757A" d="M12.949 18.023h26.085c.882 0 1.591-.776 1.591-1.7 0-.96-.71-1.698-1.591-1.698H12.949c-.882 0-1.574.757-1.574 1.699 0 .923.692 1.699 1.574 1.699zm0 9.676h26.085c.882 0 1.591-.776 1.591-1.699 0-.96-.71-1.699-1.591-1.699H12.949c-.882 0-1.574.757-1.574 1.699 0 .923.692 1.699 1.574 1.699zm0 9.676h26.085c.882 0 1.591-.776 1.591-1.699 0-.942-.71-1.699-1.591-1.699H12.949c-.882 0-1.574.757-1.574 1.7 0 .922.692 1.698 1.574 1.698z"/>
</svg>
