<svg width="26" height="26" viewBox="0 0 26 26" fill="none" xmlns="http://www.w3.org/2000/svg">
<path fill-rule="evenodd" clip-rule="evenodd" d="M13 3C10.5597 3 8.3102 3.20126 6.50463 3.43972C4.87965 3.65433 3.65433 4.87965 3.43972 6.50463C3.20126 8.3102 3 10.5597 3 13C3 15.4403 3.20126 17.6898 3.43972 19.4954C3.65433 21.1203 4.87965 22.3457 6.50463 22.5603C8.3102 22.7987 10.5597 23 13 23C15.4403 23 17.6898 22.7987 19.4954 22.5603C21.1203 22.3457 22.3457 21.1203 22.5603 19.4954C22.7987 17.6898 23 15.4403 23 13C23 10.5597 22.7987 8.3102 22.5603 6.50463C22.3457 4.87965 21.1203 3.65433 19.4954 3.43972C17.6898 3.20126 15.4403 3 13 3ZM6.1773 0.961241C3.4313 1.32391 1.32391 3.4313 0.961241 6.1773C0.711918 8.0651 0.5 10.4266 0.5 13C0.5 15.5734 0.711918 17.9349 0.961241 19.8227C1.32391 22.5687 3.4313 24.6761 6.1773 25.0388C8.0651 25.2881 10.4266 25.5 13 25.5C15.5734 25.5 17.9349 25.2881 19.8227 25.0388C22.5687 24.6761 24.6761 22.5687 25.0388 19.8227C25.2881 17.9349 25.5 15.5734 25.5 13C25.5 10.4266 25.2881 8.0651 25.0388 6.1773C24.6761 3.4313 22.5687 1.32391 19.8227 0.961241C17.9349 0.711918 15.5734 0.5 13 0.5C10.4266 0.5 8.0651 0.711918 6.1773 0.961241Z" fill="#B1B5C3"/>
<path d="M9.25022 11.75C10.6309 11.75 11.7502 10.6307 11.7502 9.25C11.7502 7.86929 10.6309 6.75 9.25022 6.75C7.86951 6.75 6.75022 7.86929 6.75022 9.25C6.75022 10.6307 7.86951 11.75 9.25022 11.75Z" fill="#B1B5C3"/>
<path d="M20.6519 13.8841L22.8948 16.127C22.8174 17.2973 22.7044 18.3832 22.5798 19.3476L18.8841 15.6519C18.3959 15.1637 17.6045 15.1637 17.1163 15.6519L14.4019 18.3663C12.9374 19.8308 10.563 19.8308 9.09856 18.3663L8.8841 18.1519C8.39594 17.6637 7.60449 17.6637 7.11633 18.1519L4.105 21.1632C3.75616 20.6902 3.52255 20.1226 3.43972 19.4954C3.39454 19.1533 3.3509 18.7954 3.30952 18.4232L5.34857 16.3841C6.81303 14.9196 9.1874 14.9197 10.6519 16.3841L10.8663 16.5986C11.3545 17.0867 12.1459 17.0867 12.6341 16.5986L15.3486 13.8841C16.813 12.4196 19.1874 12.4197 20.6519 13.8841Z" fill="#B1B5C3"/>
</svg>
