<svg xmlns="http://www.w3.org/2000/svg" width="150" height="43" fill="none" viewBox="0 0 150 43">
  <path fill="#4673FA" d="M21.798 5.892a37.235 37.235 0 001.235 5.031 2.943 2.943 0 00.459.877c.22.293.492.542.803.734l.008.005.05.029.033.018 1.684.977.013.007.04.023.013.008.062.036.02.011.044.02c.04.022.082.042.122.06l.092.04a3.693 3.693 0 00.222.081l.1.03.12.032.115.025.05.01c.36.066.729.063 1.087-.007a35.38 35.38 0 002.2-.543A36.135 36.135 0 0038.532 10a21.48 21.48 0 00-2.258-2.984l-.017-.02-.016-.017-.006-.007-.011-.012-.033-.036-.005-.005-.008-.009a2.944 2.944 0 00-2.758-.855l-.022.006a2.526 2.526 0 00-.168.043l-.034.01c-.05.016-.1.032-.15.05l-.255.112-.097.043a30.648 30.648 0 01-4.427 1.525 26.081 26.081 0 01-.442-1.788c0-.011-.004-.021-.007-.032-.009-.042-.018-.082-.026-.128a30.75 30.75 0 01-.469-3.037A2.961 2.961 0 0025.105.502c-.186-.041-.372-.082-.559-.116A21.207 21.207 0 0021.27.01a37.19 37.19 0 00.528 5.882zM19.665 0c-1.29.048-2.574.213-3.834.493a2.93 2.93 0 00-1.46.842 2.949 2.949 0 00-.757 1.508l-.031.284-.013.12c-.015.13-.033.26-.05.39a31.994 31.994 0 01-.376 2.252l-.034.16a31.291 31.291 0 01-.437 1.799c-.6-.156-1.19-.329-1.771-.52l-.12-.04a30.703 30.703 0 01-1.815-.665L8.9 6.596c-.09-.036-.177-.074-.265-.111-.132-.055-.263-.108-.393-.164-.116-.05-.232-.101-.347-.153-.036-.013-.072-.024-.108-.035l-.077-.026c-.043-.012-.086-.022-.129-.032L7.52 6.06a2.172 2.172 0 00-.16-.03l-.03-.005a2.938 2.938 0 00-2.567.887l-.01.012-.019.02-.032.036-.033.037a21.476 21.476 0 00-2.266 2.985 35.984 35.984 0 003.626 1.799 36.136 36.136 0 004.875 1.692l.157.041c.56.15 1.125.286 1.697.41.36.071.728.074 1.088.009l.081-.018.067-.015c.052-.012.102-.026.152-.04l.082-.024.114-.039.112-.044.089-.038c.045-.02.09-.042.134-.065l.033-.016.017-.009.044-.025h.005l.007-.005.076-.044 1.635-.945.135-.078.008-.005c.313-.194.586-.446.806-.742l.025-.034c.188-.256.333-.54.43-.843.035-.107.068-.214.101-.32a37.284 37.284 0 00.516-1.819 36.626 36.626 0 00.927-5.086A37.19 37.19 0 0019.66 0h.004zM6.364 28.044a36.41 36.41 0 002.501-2.285c.159-.158.314-.32.47-.482.076-.082.153-.159.229-.24.187-.198.373-.398.556-.6a2.97 2.97 0 00.784-1.917v-.2c0-.06-.006-.122-.013-.183h.013V20.66h-.012a2.49 2.49 0 00.012-.193v-.2a2.977 2.977 0 00-.718-1.83l-.073-.082-.057-.062c-.182-.2-.366-.4-.553-.596l-.03-.032a37.258 37.258 0 00-.865-.88 36.547 36.547 0 00-7.01-5.392 21.276 21.276 0 00-1.42 3.36h.019A2.939 2.939 0 000 15.791v.099c.016.76.325 1.484.86 2.022l.048.043c.04.039.082.077.123.114l.193.143.137.1a31.155 31.155 0 012.188 1.801l.133.121.31.288.141.133c.254.24.504.487.75.738a30.698 30.698 0 01-3.522 3.08l-.17.125c-.053.04-.106.082-.163.119A2.943 2.943 0 000 26.877v.108c0 .363.067.722.197 1.06H.186a21.27 21.27 0 001.42 3.363c.223-.133.446-.27.668-.41a36.57 36.57 0 002.75-1.887c.452-.343.9-.699 1.34-1.067zM40.94 26.931v-.024a2.952 2.952 0 00-.86-2.022l-.047-.043a5.707 5.707 0 00-.123-.114l-.194-.143-.137-.1a31.138 31.138 0 01-2.188-1.801l-.135-.123a24.988 24.988 0 01-.306-.285l-.15-.138a30.848 30.848 0 01-.75-.738 28.818 28.818 0 011.335-1.28 30.384 30.384 0 012.188-1.8l.169-.125c.054-.04.107-.083.163-.119a2.946 2.946 0 001.03-2.16v-.043-.064c0-.36-.066-.718-.194-1.055h.011a21.27 21.27 0 00-1.42-3.36 36.877 36.877 0 00-4.763 3.36 36.421 36.421 0 00-2.5 2.285c-.164.164-.32.328-.48.492-.072.076-.145.15-.216.226-.188.2-.375.4-.56.605a2.969 2.969 0 00-.784 1.917v.2c0 .06.007.122.013.183h-.013v1.476h.013a2.49 2.49 0 00-.013.194v.2c.026.674.28 1.32.719 1.83.023.027.048.053.072.082l.058.061c.182.202.366.4.552.597l.03.032a40.666 40.666 0 00.866.88A36.522 36.522 0 0038.666 31c.222.138.445.275.669.41.07-.134.14-.271.208-.41a21.27 21.27 0 001.212-2.953h-.012c.128-.332.195-.684.198-1.04-.003-.028 0-.05 0-.076zM19.135 36.906a37.24 37.24 0 00-1.234-5.03 2.99 2.99 0 00-1.264-1.61l-.008-.006-.05-.03-.032-.018-1.684-.976-.013-.008-.04-.023-.013-.007-.062-.036-.02-.012-.043-.02a2.296 2.296 0 00-.124-.06l-.091-.04a2.76 2.76 0 00-.116-.045l-.106-.036-.1-.03-.12-.031-.115-.026-.05-.01a2.92 2.92 0 00-1.088.008 35.607 35.607 0 00-2.2.543 36.12 36.12 0 00-5.544 2.047c-.892.414-1.764.863-2.616 1.347a21.481 21.481 0 002.259 2.984l.018.02.014.017.007.008.01.011.034.037.005.005.007.008a2.944 2.944 0 002.759.855l.021-.006a2.41 2.41 0 00.169-.042l.034-.011c.05-.016.1-.031.15-.05l.254-.112.098-.042a30.413 30.413 0 014.427-1.526c.163.598.309 1.197.437 1.799 0 .01.004.02.006.031a31.14 31.14 0 01.495 3.165 2.959 2.959 0 002.217 2.358v.005c.187.04.373.081.56.115 1.08.21 2.176.336 3.276.377a37.16 37.16 0 00-.22-3.699 35.17 35.17 0 00-.304-2.198zM34.905 31a36.136 36.136 0 00-4.875-1.693l-.157-.04a37.39 37.39 0 00-1.697-.411 2.92 2.92 0 00-1.087-.008c-.028.005-.056.012-.082.018l-.067.015c-.05.011-.102.025-.152.039l-.082.025-.113.038a2.58 2.58 0 00-.113.044l-.089.038c-.045.02-.09.043-.134.065l-.033.017-.017.009-.044.025h-.005l-.007.004-.076.044-1.634.95-.135.083-.008.004a2.92 2.92 0 00-.807.734 2.964 2.964 0 00-.456.877l-.1.32A36.79 36.79 0 0021.272 42.8a21.215 21.215 0 003.834-.492v-.004a2.931 2.931 0 001.458-.842c.394-.417.658-.942.758-1.508l.031-.284.013-.12.05-.39a31.943 31.943 0 01.41-2.416c.127-.602.273-1.201.437-1.799.6.155 1.19.328 1.771.52l.12.04c.613.203 1.218.425 1.815.665l.07.027.264.111c.131.055.263.108.393.164.116.05.231.1.346.153h.004c.036.013.072.024.108.035l.078.026c.042.012.086.022.128.032l.061.015c.054.013.107.022.164.03l.03.006a2.938 2.938 0 002.567-.888l.01-.012.018-.02.033-.035.033-.037a21.474 21.474 0 002.255-2.979A36.43 36.43 0 0034.905 31z"/>
  <path fill="#0A0A3B" d="M150 20.414c0-4.719-3.634-8.479-9.009-8.479-5.644 0-10.014 4.166-10.014 9.548s4.408 9.548 10.478 9.548c.831.002 1.659-.081 2.471-.248 1.823-.374 3.471-1.164 4.945-2.292.081-.061.163-.124.24-.188l-.664-1.04a.77.77 0 01-.006-.01c-.042-.063-.082-.125-.133-.187a2.954 2.954 0 00-1.579-1.04 3.081 3.081 0 00-1.916.108h-.006a8.32 8.32 0 01-3.197.619c-2.781 0-4.756-1.29-5.374-3.613h13.415c.219-.894.336-1.808.349-2.726zm-13.764-.774c.58-2.286 2.358-3.686 4.562-3.686 2.203 0 4.099 1.364 4.137 3.686h-8.699zM95.307 20.414c0-4.719-3.635-8.479-9.009-8.479-5.644 0-10.015 4.166-10.015 9.548s4.409 9.548 10.479 9.548c.83.002 1.659-.081 2.471-.248 1.823-.374 3.47-1.164 4.944-2.292.082-.061.164-.124.24-.188l-.664-1.04a.102.102 0 01-.005-.01c-.042-.063-.082-.125-.134-.187a2.95 2.95 0 00-1.579-1.04 3.08 3.08 0 00-1.915.108h-.006a8.326 8.326 0 01-3.198.619c-2.78 0-4.755-1.29-5.374-3.613h13.415c.22-.894.336-1.808.35-2.726zm-13.765-.774c.58-2.286 2.358-3.686 4.562-3.686s4.1 1.364 4.138 3.686h-8.7zM127.41 11.935h-5.945v19.096h5.945V11.935zM109.417 11.935c-2.391 0-4.351.83-5.683 2.114l-.189.177a2.893 2.893 0 00-1.095-1.362 3.062 3.062 0 00-1.706-.515h-1.871v18.682h5.292V20.125c0-2.151 1.528-3.623 3.684-3.623s3.606 1.472 3.606 3.623V31.03h5.253V19.445c0-4.49-2.744-7.51-7.291-7.51zM70.675 12.348c-.695 0-1.367.24-1.898.678a2.848 2.848 0 00-1.001 1.71l-.042-.055c-1.314-1.73-3.478-2.745-6.262-2.745-5.217 0-9.157 3.61-9.157 9.215 0 5.53 3.903 9.255 9.157 9.255 2.397 0 4.445-.753 5.837-2.22v1.016c0 3.01-2.165 4.401-5.102 4.401-1.581 0-2.91-.398-4.157-1.062a3.022 3.022 0 00-1.992-.272 2.962 2.962 0 00-1.708 1.034l-1.108 1.428c.157.136.318.27.484.403a13.786 13.786 0 004.458 2.393c1.437.449 2.94.673 4.45.665 5.759 0 9.893-3.01 9.893-9.291V12.348H70.675zm-8.12 13.768c-2.667 0-4.947-1.919-4.947-5.004 0-3.084 2.241-4.854 4.947-4.854 2.396 0 4.831 1.39 4.831 4.815 0 3.423-2.4 5.043-4.831 5.043z"/>
</svg>
