<svg xmlns="http://www.w3.org/2000/svg" width="151" height="43" fill="none" viewBox="0 0 151 43">
  <path fill="#4673FA" d="M22.516 5.892a37.282 37.282 0 001.234 5.031 2.947 2.947 0 00.459.877c.22.293.492.542.804.734l.008.005.05.029.032.018 1.684.977.013.007.04.023.013.008.063.036.02.011.043.02c.04.022.082.042.123.06l.091.04a3.693 3.693 0 00.222.081l.1.03.12.032.115.025.05.01c.36.066.73.063 1.088-.007a35.38 35.38 0 002.2-.543A36.13 36.13 0 0039.248 10a21.48 21.48 0 00-2.258-2.984l-.017-.02-.015-.017-.007-.007-.01-.012-.034-.036-.005-.005-.008-.009a2.944 2.944 0 00-2.758-.855l-.021.006a2.526 2.526 0 00-.169.043l-.034.01c-.05.016-.1.032-.15.05l-.255.112-.097.043a30.659 30.659 0 01-4.427 1.525 26.081 26.081 0 01-.442-1.788c0-.011-.004-.021-.006-.032a30.789 30.789 0 01-.495-3.165A2.961 2.961 0 0025.821.502c-.186-.041-.371-.082-.558-.116A21.207 21.207 0 0021.987.01a37.19 37.19 0 00.529 5.882zM20.38 0c-1.29.048-2.573.213-3.833.493a2.931 2.931 0 00-1.46.842 2.949 2.949 0 00-.757 1.508l-.031.284-.013.12c-.015.13-.033.26-.05.39a31.994 31.994 0 01-.376 2.252l-.034.16a31.291 31.291 0 01-.437 1.799c-.6-.156-1.19-.329-1.771-.52l-.12-.04a30.708 30.708 0 01-1.815-.665l-.069-.027c-.089-.036-.176-.074-.264-.111-.132-.055-.264-.108-.393-.164-.117-.05-.232-.101-.347-.153-.036-.013-.072-.024-.108-.035l-.077-.026c-.043-.012-.086-.022-.129-.032l-.061-.015a2.173 2.173 0 00-.16-.03l-.03-.005a2.938 2.938 0 00-2.567.887l-.01.012-.019.02-.032.036-.033.037a21.476 21.476 0 00-2.266 2.985 35.984 35.984 0 003.626 1.799 36.137 36.137 0 004.875 1.692l.157.041c.56.15 1.125.286 1.697.41.359.071.728.074 1.087.009.028-.005.056-.013.082-.018l.067-.015c.052-.012.101-.026.152-.04l.082-.024.113-.039.113-.044.088-.038c.045-.02.09-.042.135-.065l.033-.016.017-.009.044-.025h.004l.008-.005.076-.044 1.635-.945.134-.078.009-.005a2.92 2.92 0 00.805-.742c.01-.011.018-.023.026-.034.188-.256.333-.54.43-.843.035-.107.068-.214.101-.32a37.284 37.284 0 00.516-1.819 36.58 36.58 0 00.927-5.086A37.19 37.19 0 0020.377 0h.004zM7.08 28.044a36.41 36.41 0 002.502-2.285c.158-.158.314-.32.469-.482.077-.082.154-.159.23-.24.187-.198.373-.398.556-.6a2.97 2.97 0 00.784-1.917v-.2c0-.06-.006-.122-.013-.183h.013V20.66h-.012a2.49 2.49 0 00.012-.193v-.2a2.977 2.977 0 00-.718-1.83c-.024-.027-.049-.053-.073-.082l-.057-.062c-.182-.2-.367-.4-.553-.596l-.03-.032a37.18 37.18 0 00-.866-.88 36.547 36.547 0 00-7.008-5.392 21.276 21.276 0 00-1.42 3.36h.018a2.939 2.939 0 00-.197 1.039v.099c.016.76.325 1.484.86 2.022l.048.043c.04.039.082.077.122.114l.194.143.137.1a31.159 31.159 0 012.188 1.801l.133.121.31.288.141.133c.254.24.503.487.75.738a30.698 30.698 0 01-3.522 3.08l-.17.125c-.053.04-.107.082-.163.119a2.943 2.943 0 00-1.028 2.159v.108c0 .363.067.722.197 1.06H.902a21.272 21.272 0 001.42 3.363c.224-.133.447-.27.669-.41a36.569 36.569 0 002.75-1.887c.452-.343.899-.699 1.34-1.067zM41.657 26.931v-.024a2.952 2.952 0 00-.86-2.022l-.047-.043a5.707 5.707 0 00-.124-.114l-.194-.143-.136-.1a31.138 31.138 0 01-2.188-1.801l-.135-.123a24.988 24.988 0 01-.306-.285l-.15-.138a30.848 30.848 0 01-.75-.738 28.818 28.818 0 011.334-1.28 30.384 30.384 0 012.188-1.8l.17-.125c.054-.04.107-.083.163-.119a2.946 2.946 0 001.03-2.16v-.043-.064c0-.36-.066-.718-.194-1.055h.011a21.283 21.283 0 00-1.42-3.36 36.877 36.877 0 00-4.763 3.36 36.421 36.421 0 00-2.5 2.285c-.164.164-.321.328-.48.492-.072.076-.145.15-.216.226-.188.2-.375.4-.56.605a2.969 2.969 0 00-.784 1.917v.2c0 .06.007.122.013.183h-.013v1.476h.012a2.49 2.49 0 00-.012.194v.2c.026.674.28 1.32.719 1.83.023.027.048.053.072.082l.058.061c.182.202.366.4.552.597l.03.032a40.666 40.666 0 00.866.88A36.522 36.522 0 0039.383 31c.222.138.445.275.669.41.07-.134.14-.271.208-.41a21.27 21.27 0 001.211-2.953h-.011c.128-.332.195-.684.198-1.04-.003-.028-.001-.05-.001-.076zM19.851 36.906a37.24 37.24 0 00-1.234-5.03 2.985 2.985 0 00-.434-.843c-.008-.013-.017-.024-.026-.035a2.94 2.94 0 00-.804-.733l-.008-.005-.05-.03-.033-.018-1.683-.976-.013-.008-.04-.023-.013-.007-.063-.036-.02-.012-.043-.02a2.336 2.336 0 00-.123-.06l-.091-.04a2.707 2.707 0 00-.117-.045l-.105-.036-.1-.03-.12-.031-.115-.026-.05-.01a2.92 2.92 0 00-1.088.008 35.631 35.631 0 00-2.2.543 36.122 36.122 0 00-5.544 2.047c-.892.414-1.764.863-2.616 1.347a21.481 21.481 0 002.259 2.984l.017.02.015.017.007.008.01.011.034.037.005.005.007.008a2.944 2.944 0 002.759.855l.021-.006a2.41 2.41 0 00.168-.042l.035-.011c.05-.016.1-.031.15-.05l.254-.112.098-.042a30.42 30.42 0 014.426-1.526c.164.598.31 1.197.438 1.799 0 .01.004.02.006.031a31.14 31.14 0 01.495 3.165 2.96 2.96 0 002.217 2.358v.005c.186.04.373.081.56.115 1.08.21 2.176.336 3.276.377a37.19 37.19 0 00-.22-3.699 35.17 35.17 0 00-.304-2.198zM35.623 31a36.132 36.132 0 00-4.875-1.693l-.157-.04c-.56-.15-1.126-.287-1.698-.411a2.92 2.92 0 00-1.087-.008l-.081.018-.067.015c-.051.011-.102.025-.152.039l-.082.025-.114.038a2.526 2.526 0 00-.112.044l-.089.038c-.045.02-.09.043-.134.065l-.033.017-.018.009-.044.025h-.004l-.007.004-.076.044-1.634.95-.135.083-.008.004a2.918 2.918 0 00-.832.768c-.188.256-.333.54-.43.843A36.792 36.792 0 0021.99 42.8a21.215 21.215 0 003.834-.493v-.004a2.931 2.931 0 001.458-.842c.394-.417.658-.942.758-1.508l.031-.284.013-.12.05-.39a31.885 31.885 0 01.41-2.416c.127-.602.273-1.201.437-1.799.6.155 1.19.328 1.771.52l.12.04c.613.203 1.218.425 1.815.665l.07.027.264.111c.13.055.262.108.392.164.117.05.232.1.347.153h.004c.036.013.072.024.108.035l.078.026c.042.012.085.022.128.032l.061.015c.053.013.106.022.164.03l.03.006a2.938 2.938 0 002.566-.888l.011-.012.018-.02.033-.035.032-.037a21.481 21.481 0 002.255-2.979A36.43 36.43 0 0035.623 31z"/>
  <path fill="#FDFEFF" d="M150.717 20.414c0-4.719-3.634-8.479-9.009-8.479-5.644 0-10.015 4.166-10.015 9.548s4.409 9.548 10.479 9.548c.831.002 1.659-.081 2.471-.248 1.823-.374 3.471-1.164 4.944-2.292a6.27 6.27 0 00.241-.188l-.664-1.04c-.003-.003-.004-.006-.006-.01-.042-.063-.082-.125-.133-.187a2.954 2.954 0 00-1.579-1.04 3.08 3.08 0 00-1.916.108h-.006a8.324 8.324 0 01-3.197.619c-2.782 0-4.756-1.29-5.375-3.613h13.416c.218-.894.336-1.808.349-2.726zm-13.765-.774c.58-2.286 2.359-3.686 4.562-3.686 2.204 0 4.099 1.364 4.138 3.686h-8.7zM96.024 20.414c0-4.719-3.635-8.479-9.01-8.479-5.643 0-10.014 4.166-10.014 9.548s4.408 9.548 10.479 9.548c.83.002 1.659-.081 2.47-.248 1.823-.374 3.472-1.164 4.945-2.292a6.25 6.25 0 00.24-.188l-.664-1.04a.102.102 0 01-.005-.01c-.042-.063-.082-.125-.134-.187a2.95 2.95 0 00-1.579-1.04 3.08 3.08 0 00-1.915.108h-.006a8.326 8.326 0 01-3.198.619c-2.78 0-4.756-1.29-5.374-3.613h13.415c.22-.894.336-1.808.35-2.726zm-13.765-.774c.58-2.286 2.358-3.686 4.562-3.686s4.1 1.364 4.138 3.686h-8.7zM128.127 11.935h-5.945v19.096h5.945V11.935zM110.134 11.935c-2.391 0-4.351.83-5.683 2.114l-.189.177a2.893 2.893 0 00-1.095-1.362 3.064 3.064 0 00-1.706-.515H99.59v18.682h5.292V20.125c0-2.151 1.528-3.623 3.684-3.623s3.606 1.472 3.606 3.623V31.03h5.252V19.445c0-4.49-2.743-7.51-7.29-7.51zM71.392 12.348c-.695 0-1.368.24-1.898.678a2.848 2.848 0 00-1.002 1.71l-.041-.055c-1.314-1.73-3.479-2.745-6.262-2.745-5.217 0-9.158 3.61-9.158 9.215 0 5.53 3.904 9.255 9.158 9.255 2.397 0 4.445-.753 5.836-2.22v1.016c0 3.01-2.164 4.401-5.1 4.401-1.582 0-2.91-.398-4.158-1.062a3.022 3.022 0 00-1.992-.272 2.962 2.962 0 00-1.709 1.034l-1.108 1.428c.157.136.319.27.485.403a13.786 13.786 0 004.457 2.393c1.438.449 2.94.673 4.45.665 5.76 0 9.894-3.01 9.894-9.291V12.348H71.392zm-8.12 13.768c-2.668 0-4.947-1.919-4.947-5.004 0-3.084 2.241-4.854 4.947-4.854 2.396 0 4.831 1.39 4.831 4.815 0 3.423-2.4 5.043-4.831 5.043z"/>
</svg>
