<svg width="28" height="28" viewBox="0 0 28 28" fill="none" xmlns="http://www.w3.org/2000/svg">
<g clip-path="url(#clip0_5348_11251)">
<path d="M13.75 22.5C18.5825 22.5 22.5 18.5825 22.5 13.75C22.5 8.91751 18.5825 5 13.75 5C8.91751 5 5 8.91751 5 13.75C5 18.5825 8.91751 22.5 13.75 22.5Z" fill="#0CE466"/>
<path fill-rule="evenodd" clip-rule="evenodd" d="M13.7501 14.6959C12.7492 14.6959 11.937 13.8845 11.937 12.8828C11.937 11.8811 12.7492 11.0697 13.7501 11.0697C14.751 11.0697 15.5631 11.8811 15.5631 12.8828C15.5631 13.8845 14.751 14.6959 13.7501 14.6959ZM12.9618 12.8828C12.9618 13.3183 13.3149 13.6711 13.7501 13.6711C14.1853 13.6711 14.5384 13.3183 14.5384 12.8828C14.5384 12.4473 14.1853 12.0945 13.7501 12.0945C13.3149 12.0945 12.9618 12.4473 12.9618 12.8828Z" fill="black"/>
<path fill-rule="evenodd" clip-rule="evenodd" d="M7.91675 12.8852L11.3852 9.41434H16.1149L19.5834 12.8852L13.7501 18.7161L7.91675 12.8852ZM16.4302 11.6215C14.9565 10.1413 12.5436 10.1413 11.0699 11.6215L9.80864 12.8828L11.0699 14.1441C12.5436 15.6243 14.9565 15.6243 16.4302 14.1441L17.6915 12.8828L16.4302 11.6215Z" fill="black"/>
</g>
<defs>
<clipPath id="clip0_5348_11251">
<rect width="17.5" height="17.5" fill="white" transform="translate(5 5)"/>
</clipPath>
</defs>
</svg>
