<svg xmlns="http://www.w3.org/2000/svg" width="34" height="32" fill="none" viewBox="0 0 34 32">
  <path fill="#0A0A3B" d="M15.228 21.753a7.952 7.952 0 004.37-1.306l4.431 4.41a1.52 1.52 0 001.073.421c.84 0 1.456-.653 1.456-1.476 0-.382-.131-.754-.414-1.035l-4.401-4.39a7.802 7.802 0 001.447-4.53c0-4.349-3.582-7.905-7.962-7.905-4.37 0-7.962 3.556-7.962 7.905 0 4.35 3.581 7.906 7.962 7.906zm0-2.11c-3.207 0-5.838-2.611-5.838-5.796 0-3.184 2.63-5.795 5.838-5.795 3.207 0 5.837 2.611 5.837 5.796 0 3.184-2.63 5.795-5.837 5.795z"/>
</svg>
