<svg xmlns="http://www.w3.org/2000/svg" width="33" height="32" fill="none" viewBox="0 0 33 32">
  <path fill="#FDFEFF" d="M15.04 21.752a7.856 7.856 0 004.339-1.306l4.4 4.41c.29.28.662.421 1.064.421.834 0 1.446-.653 1.446-1.476 0-.382-.13-.754-.411-1.035l-4.37-4.39a7.84 7.84 0 001.437-4.53c0-4.349-3.556-7.905-7.906-7.905-4.339 0-7.905 3.556-7.905 7.906 0 4.349 3.556 7.905 7.905 7.905zm0-2.11c-3.185 0-5.796-2.611-5.796-5.795 0-3.185 2.611-5.796 5.795-5.796 3.185 0 5.796 2.611 5.796 5.796 0 3.184-2.611 5.795-5.796 5.795z"/>
</svg>
