<svg width="13" height="12" viewBox="0 0 13 12" fill="none" xmlns="http://www.w3.org/2000/svg">
<path d="M0.371094 2.19531L0.371093 9.79785C0.371093 11.1602 1.07422 11.8633 2.41769 11.8633L10.0579 11.8633C11.4014 11.8633 12.1045 11.1602 12.1045 9.79785L12.1045 2.19531C12.1045 0.839286 11.4076 0.129883 10.0579 0.129883L2.41769 0.129882C1.07422 0.129882 0.371094 0.839285 0.371094 2.19531ZM4.53334 8.05259C4.53334 7.71987 4.75935 7.50642 5.12346 7.50642L6.15304 7.50642L7.08845 7.59431L6.13421 6.72796L3.87416 4.46791C3.7486 4.34235 3.68583 4.19168 3.68583 4.00963C3.68583 3.6769 3.91811 3.43206 4.26967 3.43206C4.42662 3.43206 4.58357 3.50112 4.69657 3.6204L6.96917 5.893L7.8418 6.85352L7.74135 5.96833L7.74135 4.87598C7.74135 4.51814 7.9548 4.27958 8.28753 4.27958C8.62026 4.27958 8.8337 4.51186 8.8337 4.8697L8.8337 7.92076C8.8337 8.3351 8.62026 8.59249 8.16197 8.59249L5.13602 8.59249C4.77818 8.59249 4.53334 8.37905 4.53334 8.05259Z" fill="#F95E14"/>
</svg>
