<svg width="18" height="18" viewBox="0 0 18 18" fill="none" xmlns="http://www.w3.org/2000/svg">
<path d="M2.1829 9.95313H7.67718V15.4474C7.67718 16.1679 8.26794 16.7709 9.0007 16.7709C9.73345 16.7709 10.3242 16.1679 10.3242 15.4474V9.95313H15.8185C16.539 9.95313 17.142 9.36236 17.142 8.6296C17.142 7.89685 16.539 7.30608 15.8185 7.30608H10.3242V1.8118C10.3242 1.09131 9.73345 0.488281 9.0007 0.488281C8.26794 0.488281 7.67718 1.09131 7.67718 1.8118V7.30608H2.1829C1.46241 7.30608 0.859375 7.89685 0.859375 8.6296C0.859375 9.36236 1.46241 9.95313 2.1829 9.95313Z" fill="white" stroke="white" stroke-width="0.5"/>
</svg>
