<svg width="60" height="60" viewBox="0 0 60 60" fill="none" xmlns="http://www.w3.org/2000/svg">
<path fill-rule="evenodd" clip-rule="evenodd" d="M33.1653 10.6536L51.6412 29.1107C54.4662 31.9357 54.485 34.9114 51.6411 37.7742L38.211 51.2043C35.3671 54.0858 32.3726 54.0482 29.5475 51.2231L11.0905 32.7284C9.60263 31.2594 9.45197 30.393 9.45197 28.2648V21.108C9.45197 19.0363 9.94164 18.3206 11.4672 16.7763L17.1943 11.0491C18.7198 9.52361 19.4355 9.03394 21.5261 9.03394H28.664C30.8111 9.03394 31.6774 9.1846 33.1653 10.6536ZM20.5 24C22.433 24 24 22.433 24 20.5C24 18.567 22.433 17 20.5 17C18.567 17 17 18.567 17 20.5C17 22.433 18.567 24 20.5 24Z" fill="#4673FA"/>
<path d="M39.5483 35.5323C39.4754 35.6084 39.3784 35.6569 39.2737 35.6696C38.2369 35.7822 37.3633 35.9138 36.6532 36.0643C35.943 36.2149 35.3624 36.4234 34.9112 36.6898C34.4643 36.9528 34.0918 37.3254 33.8288 37.7724C33.5584 38.2269 33.3442 38.8132 33.1864 39.5313C33.0285 40.2494 32.8857 41.1382 32.7581 42.1977C32.7415 42.3019 32.6923 42.3981 32.6174 42.4723C32.5384 42.5423 32.4352 42.5785 32.3298 42.5732C32.2802 42.5756 32.2307 42.5679 32.1842 42.5506C32.1377 42.5332 32.0952 42.5066 32.0594 42.4723C31.9879 42.3976 31.9441 42.3007 31.9351 42.1977C31.7979 41.1377 31.6476 40.2507 31.4842 39.5368C31.3209 38.8228 31.1028 38.2401 30.8301 37.7889C30.5671 37.3438 30.1962 36.9722 29.7518 36.7083C29.3043 36.441 28.7275 36.2305 28.0215 36.0767C27.3155 35.9229 26.4436 35.7856 25.4058 35.6648C25.2953 35.6536 25.192 35.6052 25.1127 35.5275C25.0758 35.4905 25.0468 35.4465 25.0274 35.398C25.0081 35.3495 24.9988 35.2975 25.0001 35.2453C24.9988 35.1931 25.0081 35.1412 25.0274 35.0927C25.0468 35.0442 25.0758 35.0001 25.1127 34.9632C25.192 34.8855 25.2953 34.8371 25.4058 34.8259C26.2838 34.7445 27.157 34.6166 28.0215 34.4428C28.7275 34.2922 29.308 34.0862 29.7628 33.8249C30.2138 33.5654 30.5889 33.1921 30.8507 32.7423C31.1211 32.2846 31.3373 31.6962 31.4993 30.9772C31.6613 30.2582 31.8059 29.3657 31.9331 28.2998C31.9452 28.2005 31.9887 28.1076 32.0573 28.0348C32.0923 27.9989 32.1344 27.9707 32.181 27.9523C32.2277 27.9338 32.2777 27.9254 32.3277 27.9277C32.3804 27.9252 32.4331 27.9333 32.4825 27.9518C32.532 27.9702 32.5771 27.9984 32.6153 28.0348C32.6873 28.1073 32.7363 28.1995 32.756 28.2998C32.8837 29.3671 33.0264 30.2596 33.1843 30.9772C33.3422 31.6949 33.5563 32.2832 33.8268 32.7423C34.0878 33.1908 34.4608 33.5638 34.9092 33.8249C35.3603 34.0876 35.941 34.2936 36.6511 34.4428C37.5173 34.6164 38.392 34.7442 39.2717 34.8259C39.3763 34.8385 39.4733 34.887 39.5462 34.9632C39.6176 35.0395 39.6561 35.1408 39.6533 35.2453C39.6556 35.2977 39.6475 35.35 39.6295 35.3993C39.6114 35.4485 39.5838 35.4937 39.5483 35.5323ZM42.7742 27.7121C42.3569 27.7663 41.9428 27.8433 41.5339 27.9428C41.2333 28.022 41.0059 28.1364 40.8517 28.2861C40.6979 28.4371 40.5847 28.6602 40.5133 28.9575C40.4251 29.3537 40.3593 29.7546 40.3163 30.1582C40.3085 30.301 40.2371 30.3724 40.1022 30.3724C39.9745 30.3724 39.8992 30.3037 39.8763 30.1664C39.8282 29.7666 39.7595 29.3695 39.6704 28.9767C39.5986 28.6879 39.4876 28.4701 39.3376 28.3231C39.1875 28.1762 38.9621 28.0618 38.6615 27.9799C38.3609 27.8975 37.9475 27.8073 37.4212 27.7094C37.2785 27.6792 37.2071 27.6002 37.2071 27.4725C37.2071 27.3352 37.2785 27.2599 37.4212 27.2467C37.8373 27.187 38.2498 27.1043 38.6567 26.9988C38.9537 26.9165 39.1754 26.7961 39.3218 26.6377C39.4682 26.4794 39.5773 26.254 39.6492 25.9615C39.7206 25.6686 39.7974 25.2702 39.8798 24.7663C39.8816 24.7387 39.8889 24.7118 39.9013 24.6871C39.9138 24.6624 39.931 24.6405 39.9521 24.6226C39.9732 24.6047 39.9976 24.5913 40.024 24.5831C40.0504 24.5748 40.0781 24.572 40.1056 24.5747C40.2333 24.5747 40.3047 24.6434 40.3198 24.7807C40.4021 25.2841 40.481 25.6771 40.5565 25.9594C40.6113 26.2028 40.7278 26.4279 40.8949 26.613C41.0455 26.7677 41.269 26.8863 41.5655 26.9686C41.862 27.051 42.2697 27.1448 42.7886 27.2501C42.9314 27.2652 43.0027 27.3405 43.0027 27.476C43.0027 27.603 42.9272 27.6819 42.7776 27.7149L42.7742 27.7121Z" fill="white"/>
</svg>
