<svg width="15" height="16" viewBox="0 0 15 16" fill="none" xmlns="http://www.w3.org/2000/svg">
<path d="M4.5686 4.46908C4.74662 4.26563 5.0038 4.14893 5.27414 4.14893L10.1451 4.14893C10.4154 4.14893 10.6726 4.26563 10.8506 4.46908L13.0437 6.97546C13.3654 7.34308 13.3509 7.89609 13.0104 8.24632L8.38181 13.0071C8.01367 13.3858 7.40558 13.3858 7.03744 13.0071L2.40887 8.24632C2.06836 7.89609 2.05385 7.34308 2.37552 6.97546L4.5686 4.46908Z" fill="#4673FA"/>
<path d="M7.50864 10.6846C7.31466 10.6846 7.15641 10.6016 7.01348 10.4097L5.76283 8.86422C5.67094 8.75013 5.625 8.62566 5.625 8.49601C5.625 8.23151 5.82919 8.01369 6.09463 8.01369C6.25288 8.01369 6.37539 8.07593 6.50301 8.24188L7.48822 9.51249L9.60157 6.07925C9.70877 5.90292 9.85681 5.80957 10.0151 5.80957C10.2703 5.80957 10.5 5.99109 10.5 6.26077C10.5 6.38005 10.4438 6.5097 10.3673 6.62898L7.97827 10.4097C7.86597 10.5912 7.69751 10.6846 7.50864 10.6846Z" fill="white"/>
</svg>
