<svg width="32" height="32" viewBox="0 0 32 32" fill="none" xmlns="http://www.w3.org/2000/svg">
<path d="M26.967 7.78458C27.2959 8.11906 27.4495 8.46808 27.4279 8.83162C27.4063 9.19516 27.201 9.54618 26.812 9.88465L18.4399 17.2592L16.2344 15.0429L23.6132 6.67857C23.954 6.29337 24.305 6.08767 24.6661 6.06146C25.0273 6.03524 25.374 6.18909 25.7063 6.523L26.967 7.78458Z" fill="white"/>
<path d="M17.7447 18.4454C18.006 18.7086 18.1369 18.9893 18.1374 19.2873C18.138 19.5853 18.0111 19.8617 17.7567 20.1164L17.4159 20.4514C17.1581 20.7107 16.8843 20.8381 16.5947 20.8335C16.3051 20.8289 16.0276 20.6956 15.7624 20.4335L12.8661 17.5214C12.6003 17.2548 12.4666 16.9753 12.4649 16.6829C12.4632 16.3906 12.5909 16.1151 12.8482 15.8564L13.1762 15.5214C13.43 15.2667 13.7046 15.1384 13.9999 15.1367C14.2952 15.135 14.5758 15.2672 14.8416 15.5333L17.7447 18.4454Z" fill="white"/>
<path d="M8.62826 20.1654C8.65085 20.1626 8.6714 20.1509 8.68537 20.1329C8.69935 20.1148 8.70562 20.092 8.7028 20.0693C8.69997 20.0466 8.68829 20.026 8.67032 20.012C8.65234 19.998 8.62956 19.9917 8.60696 19.9945C8.41018 19.9945 7.01738 19.9945 5.89036 19.8595C4.91853 19.7421 3.95842 19.5419 3.02042 19.2612C2.97243 19.2422 2.93221 19.2076 2.90627 19.1629C2.58256 18.3329 2.48033 17.7397 2.30996 16.9765C2.26566 16.8243 2.2614 16.6867 2.37896 16.5653C2.49652 16.444 2.64815 16.4482 2.80064 16.4961C4.58189 17.0508 6.20129 17.4201 8.05836 17.6192C9.70672 17.7961 11.3474 17.7842 12.9677 17.3808C13.0443 17.3507 13.124 17.3295 13.2053 17.3175L16.0557 19.8766C16.0557 20.0142 16.0557 20.0125 16.0557 20.1484C16.0455 21.288 15.9787 22.4276 15.8555 23.5673C15.7724 24.3723 15.6404 25.1716 15.4602 25.9605C15.3078 26.6144 15.1195 27.346 14.7941 27.9401C14.6084 28.2768 14.3238 28.3973 13.9499 28.3213C13.3323 28.2418 12.6056 28.1452 12.1916 27.9392C12.8314 27.046 13.3561 25.7126 13.6781 24.6015C13.7849 24.2073 13.8719 23.8079 13.9388 23.4049C13.9455 23.383 13.9432 23.3594 13.9325 23.3392C13.9218 23.319 13.9035 23.3039 13.8817 23.2972C13.8599 23.2905 13.8364 23.2928 13.8162 23.3035C13.7961 23.3142 13.7811 23.3326 13.7744 23.3544C13.5393 23.8912 13.1781 24.6673 12.7973 25.34C12.3986 26.0391 10.9334 27.5512 10.6676 27.4067C9.34468 26.858 8.30285 26.2477 7.2772 25.3631C7.26272 25.3511 8.64956 24.5938 9.71524 23.91C10.0032 23.7245 11.4914 22.4724 11.7597 22.0903C11.7677 22.0823 11.774 22.0728 11.7782 22.0623C11.7825 22.0518 11.7847 22.0406 11.7846 22.0293C11.7846 22.018 11.7823 22.0068 11.778 21.9964C11.7736 21.9859 11.7673 21.9765 11.7593 21.9685C11.7513 21.9605 11.7418 21.9542 11.7314 21.9499C11.721 21.9456 11.7098 21.9435 11.6985 21.9435C11.6872 21.9435 11.6761 21.9458 11.6657 21.9502C11.6553 21.9545 11.6459 21.9609 11.6379 21.9689L11.5527 22.0313C10.9147 22.4843 9.46309 23.1835 8.1674 23.6066C7.53983 23.8026 6.89568 23.9405 6.24303 24.0186C5.8878 24.0391 5.87758 24.0288 5.60754 23.7536C4.70182 22.8202 3.97731 21.7257 3.47106 20.5261C3.45317 20.4996 5.00442 20.6048 6.387 20.5261C7.14314 20.4717 7.89308 20.351 8.62826 20.1654Z" fill="white"/>
<path d="M10.3219 5.94445C10.2502 5.6248 10.1886 5.37125 10.1405 5.18652C10.1013 5.02768 10.0252 4.88031 9.91824 4.75638C9.80011 4.64129 9.65419 4.55863 9.49463 4.51641C9.30595 4.45755 9.04108 4.39417 8.70637 4.32625C8.61566 4.30542 8.56667 4.25743 8.56667 4.18137C8.56548 4.16328 8.56827 4.14514 8.57486 4.12824C8.58144 4.11134 8.59165 4.09609 8.60477 4.08356C8.6336 4.05859 8.66874 4.04199 8.70637 4.03558C8.97256 3.9862 9.23574 3.9218 9.49463 3.8427C9.65397 3.79851 9.79964 3.71505 9.91824 3.60001C10.0252 3.47608 10.1013 3.32871 10.1405 3.16987C10.1931 2.98393 10.2536 2.73311 10.3219 2.41737C10.3391 2.32682 10.3854 2.28516 10.4616 2.28516C10.5378 2.28516 10.5859 2.32954 10.6076 2.41737C10.6748 2.73311 10.7352 2.98393 10.789 3.16987C10.8294 3.3288 10.9065 3.4761 11.014 3.60001C11.133 3.71506 11.2789 3.7985 11.4385 3.8427C11.6973 3.92214 11.9605 3.98654 12.2268 4.03558C12.2636 4.03768 12.2981 4.05415 12.3229 4.08142C12.3477 4.10869 12.3607 4.14458 12.3592 4.18137C12.3592 4.25743 12.3148 4.30542 12.2268 4.32625C11.961 4.37636 11.6979 4.43983 11.4385 4.51641C11.2787 4.55864 11.1325 4.64129 11.014 4.75638C10.9065 4.88029 10.8294 5.02759 10.789 5.18652C10.7337 5.36762 10.6729 5.6248 10.6076 5.94445C10.5859 6.03501 10.5378 6.07757 10.4616 6.07757C10.3854 6.07757 10.3373 6.0332 10.3219 5.94445Z" fill="white"/>
<path d="M15.2461 8.99394C15.1709 8.60453 15.1005 8.29414 15.0367 8.06373C14.9893 7.86568 14.8946 7.68207 14.7607 7.52865C14.6127 7.38592 14.4309 7.28307 14.2323 7.22971C13.9127 7.13653 13.5878 7.06213 13.2594 7.00691C13.1443 6.98977 13.0862 6.92979 13.0862 6.82791C13.0849 6.80474 13.0884 6.78156 13.0964 6.75978C13.1045 6.73801 13.1168 6.7181 13.1328 6.70129C13.1678 6.66887 13.2121 6.64823 13.2594 6.64226C13.5875 6.58682 13.9123 6.51339 14.2323 6.42232C14.4318 6.37127 14.6142 6.2681 14.7607 6.12337C14.8942 5.96858 14.9888 5.78416 15.0367 5.58543C15.1005 5.35502 15.1709 5.04463 15.2461 4.65427C15.2465 4.63147 15.2515 4.60898 15.2607 4.58815C15.27 4.56733 15.2834 4.54861 15.3002 4.53312C15.3169 4.51763 15.3366 4.50571 15.3581 4.49806C15.3796 4.49041 15.4024 4.48719 15.4251 4.48861C15.5203 4.48861 15.5822 4.54383 15.605 4.65427C15.6805 5.04463 15.7504 5.35502 15.8145 5.58543C15.8615 5.78371 15.9548 5.96804 16.0867 6.12337C16.2326 6.26885 16.4152 6.37214 16.615 6.42232C16.9364 6.51321 17.2624 6.58664 17.5917 6.64226C17.6159 6.64242 17.6397 6.64759 17.6618 6.65746C17.6838 6.66733 17.7035 6.68167 17.7197 6.69958C17.7359 6.71748 17.7483 6.73855 17.7559 6.76147C17.7635 6.78438 17.7663 6.80863 17.764 6.83268C17.764 6.93455 17.7069 6.99453 17.5917 7.01167C17.2622 7.06708 16.936 7.14146 16.615 7.23446C16.4161 7.28692 16.2341 7.3899 16.0867 7.53342C15.9544 7.68741 15.8611 7.87092 15.8145 8.0685C15.751 8.29891 15.6812 8.60898 15.605 8.9987C15.5822 9.1101 15.5232 9.16532 15.4251 9.16532C15.4019 9.16663 15.3787 9.16314 15.3569 9.15509C15.3351 9.14704 15.3152 9.1346 15.2984 9.11853C15.2816 9.10245 15.2683 9.08309 15.2593 9.06166C15.2503 9.04023 15.2458 9.01718 15.2461 8.99394Z" fill="white"/>
<path d="M8.7807 15.7704C8.74441 15.7714 8.70831 15.7651 8.67449 15.7519C8.64068 15.7387 8.60984 15.7188 8.58378 15.6936C8.5297 15.6411 8.49302 15.5732 8.4787 15.4992C8.37979 14.9102 8.28207 14.4179 8.18552 14.0221C8.1113 13.6824 7.98879 13.3551 7.82171 13.0502C7.68254 12.8056 7.48313 12.6006 7.24244 12.4548C6.94981 12.2894 6.63262 12.1718 6.30288 12.1067C5.91611 12.0201 5.43338 11.938 4.85469 11.8602C4.77608 11.8515 4.70299 11.8156 4.64806 11.7586C4.59716 11.7044 4.5693 11.6325 4.57035 11.5581C4.56912 11.4836 4.597 11.4117 4.64806 11.3575C4.70276 11.3003 4.77597 11.2643 4.85469 11.2559C5.43397 11.1817 5.91758 11.1004 6.30553 11.0121C6.63932 10.9437 6.96065 10.8245 7.25833 10.6587C7.50305 10.5146 7.70746 10.311 7.85262 10.0668C8.02255 9.76573 8.14526 9.44035 8.21643 9.10203C8.30886 8.70682 8.39716 8.21326 8.48134 7.62134C8.49212 7.54612 8.52789 7.47672 8.58289 7.42432C8.60926 7.39823 8.64058 7.37767 8.675 7.36387C8.70943 7.35006 8.74626 7.34328 8.78334 7.34393C8.8206 7.34261 8.85775 7.34873 8.89262 7.36192C8.92749 7.37512 8.95938 7.39513 8.98644 7.42079C9.04039 7.47339 9.07704 7.54119 9.09153 7.61516C9.19396 8.20708 9.29345 8.70064 9.38999 9.09585C9.46517 9.43524 9.58763 9.76237 9.75381 10.0677C9.89378 10.3115 10.093 10.516 10.3331 10.6622C10.625 10.8284 10.9411 10.9476 11.27 11.0156C11.655 11.104 12.1368 11.1852 12.7155 11.2595C12.7942 11.2678 12.8675 11.3038 12.9222 11.3611C12.973 11.4153 13.0006 11.4873 12.999 11.5616C13 11.6366 12.9726 11.7093 12.9222 11.7648C12.8686 11.8232 12.7946 11.8586 12.7155 11.8637C12.2276 11.8971 11.742 11.9588 11.2612 12.0484C10.9248 12.1073 10.6008 12.2229 10.3031 12.3903C10.0542 12.541 9.84898 12.7542 9.70789 13.0087C9.5398 13.3212 9.41841 13.6567 9.34761 14.0044C9.25459 14.4096 9.16923 14.9082 9.09153 15.5001C9.08237 15.5763 9.04747 15.647 8.99263 15.7006C8.96369 15.7258 8.93005 15.7449 8.89367 15.7568C8.85729 15.7688 8.81888 15.7734 8.7807 15.7704Z" fill="white"/>
</svg>
