<svg width="328" height="215" viewBox="0 0 328 215" fill="none" xmlns="http://www.w3.org/2000/svg">
<g opacity="0.3" filter="url(#filter0_b_1406_1627)">
<rect x="10.5" y="23" width="123" height="90" rx="4" fill="url(#paint0_linear_1406_1627)" fill-opacity="0.7"/>
<rect x="11" y="23.5" width="122" height="89" rx="3.5" stroke="#6319FF"/>
</g>
<g opacity="0.2" filter="url(#filter1_b_1406_1627)">
<rect x="0.5" width="123" height="90" rx="4" fill="url(#paint1_linear_1406_1627)" fill-opacity="0.7"/>
<rect x="1" y="0.5" width="122" height="89" rx="3.5" stroke="#6319FF"/>
</g>
<g opacity="0.5" filter="url(#filter2_b_1406_1627)">
<rect x="20.5" y="46" width="123" height="90" rx="4" fill="url(#paint2_linear_1406_1627)" fill-opacity="0.7"/>
<rect x="21" y="46.5" width="122" height="89" rx="3.5" stroke="#6319FF"/>
</g>
<g filter="url(#filter3_b_1406_1627)">
<rect x="31.5" y="69" width="123" height="90" rx="4" fill="url(#paint3_linear_1406_1627)" fill-opacity="0.7"/>
<rect x="32" y="69.5" width="122" height="89" rx="3.5" stroke="#6319FF"/>
</g>
<g opacity="0.3" filter="url(#filter4_b_1406_1627)">
<rect x="194.5" y="20" width="123" height="90" rx="4" fill="url(#paint4_linear_1406_1627)" fill-opacity="0.7"/>
<rect x="195" y="20.5" width="122" height="89" rx="3.5" stroke="#B200FF"/>
</g>
<g opacity="0.15" filter="url(#filter5_b_1406_1627)">
<rect x="204.5" width="123" height="90" rx="4" fill="url(#paint5_linear_1406_1627)" fill-opacity="0.7"/>
<rect x="205" y="0.5" width="122" height="89" rx="3.5" stroke="#B200FF"/>
</g>
<g opacity="0.5" filter="url(#filter6_b_1406_1627)">
<rect x="182.5" y="44" width="123" height="90" rx="4" fill="url(#paint6_linear_1406_1627)" fill-opacity="0.7"/>
<rect x="183" y="44.5" width="122" height="89" rx="3.5" stroke="#B200FF"/>
</g>
<g filter="url(#filter7_b_1406_1627)">
<rect x="169.559" y="68" width="123" height="90" rx="4" fill="url(#paint7_linear_1406_1627)" fill-opacity="0.7"/>
<rect x="170.059" y="68.5" width="122" height="89" rx="3.5" stroke="#B200FF"/>
</g>
<g opacity="0.94" filter="url(#filter8_f_1406_1627)">
<circle cx="264.006" cy="96.5373" r="14.8461" stroke="#C0BAF7" stroke-opacity="0.69" stroke-width="1.32"/>
</g>
<circle opacity="0.94" cx="264.459" cy="96.5373" r="14.8461" stroke="#C0BAF7" stroke-opacity="0.71" stroke-width="1.32"/>
<path d="M266.535 96.1262L267.838 93.9867L271.351 99.28L271.352 100.296L271.341 93.3056C271.332 93.1346 271.239 92.9783 271.089 92.886L264.765 89.3666C264.617 89.2963 264.429 89.2971 264.282 89.3689C264.262 89.3786 264.243 89.389 264.225 89.4005L264.203 89.414L258.065 92.8556L258.041 92.8662C258.01 92.8797 257.979 92.8971 257.95 92.9172C257.834 92.9979 257.756 93.1174 257.731 93.2512C257.728 93.2715 257.725 93.2922 257.724 93.3132L257.733 99.0096L261.005 94.1032C261.417 93.4526 262.315 93.2429 263.148 93.2544L264.126 93.2794L258.364 102.219L259.043 102.598L264.874 93.2884L267.451 93.2794L261.635 102.823L264.059 104.172L264.348 104.333C264.471 104.381 264.615 104.384 264.739 104.341L271.152 100.745L269.926 101.432L266.535 96.1262ZM267.032 103.055L264.584 99.3378L266.078 96.8845L269.293 101.787L267.032 103.055Z" fill="#191A24"/>
<path opacity="0.8" d="M264.585 99.338L267.033 103.055L269.294 101.787L266.079 96.8848L264.585 99.338Z" fill="white"/>
<path opacity="0.8" d="M271.353 100.295L271.351 99.2796L267.838 93.9863L266.535 96.1258L269.926 101.432L271.152 100.744C271.272 100.65 271.345 100.511 271.353 100.362L271.353 100.295Z" fill="white"/>
<path d="M256.633 101.254L258.364 102.219L264.126 93.2793L263.148 93.2543C262.315 93.2429 261.417 93.4525 261.005 94.1031L257.734 99.0095L256.633 100.646V101.254Z" fill="white"/>
<path d="M267.451 93.2793L264.874 93.2884L259.043 102.597L261.081 103.733L261.635 102.823L267.451 93.2793Z" fill="white"/>
<path opacity="0.8" d="M272.439 93.2666C272.417 92.7452 272.125 92.2679 271.668 91.9899L265.261 88.4251C264.809 88.2048 264.244 88.2045 263.791 88.425C263.738 88.4511 257.56 91.9172 257.56 91.9172C257.475 91.9569 257.393 92.0041 257.315 92.0578C256.907 92.3408 256.658 92.7805 256.633 93.2635V100.646L257.734 99.0098L257.724 93.3133C257.725 93.2925 257.728 93.2719 257.732 93.2517C257.757 93.1177 257.834 92.9982 257.95 92.9174C257.98 92.8973 264.262 89.3787 264.282 89.369C264.43 89.2973 264.617 89.2964 264.765 89.3668L271.089 92.8862C271.239 92.9784 271.333 93.1348 271.341 93.3057V100.362C271.333 100.512 271.272 100.65 271.152 100.745L269.926 101.432L269.293 101.787L267.032 103.055L264.739 104.341C264.616 104.384 264.471 104.381 264.349 104.333L261.636 102.823L261.081 103.733L263.52 105.091C263.6 105.135 263.672 105.175 263.731 105.207C263.822 105.256 263.884 105.289 263.906 105.3C264.08 105.381 264.329 105.429 264.554 105.429C264.76 105.429 264.961 105.392 265.151 105.32L271.811 101.588C272.193 101.301 272.418 100.869 272.439 100.401V93.2666Z" fill="white"/>
<path d="M256.028 128.502H258.747V136.096H260.06V128.502H262.783V127.368H256.028V128.502ZM272.193 131.732C272.193 128.941 270.522 127.249 268.264 127.249C265.997 127.249 264.331 128.941 264.331 131.732C264.331 134.519 265.997 136.215 268.264 136.215C270.522 136.215 272.193 134.523 272.193 131.732ZM270.889 131.732C270.889 133.858 269.764 135.013 268.264 135.013C266.76 135.013 265.639 133.858 265.639 131.732C265.639 129.606 266.76 128.451 268.264 128.451C269.764 128.451 270.889 129.606 270.889 131.732Z" fill="url(#paint8_linear_1406_1627)"/>
<g opacity="0.94" filter="url(#filter9_f_1406_1627)">
<circle cx="164.789" cy="110.94" r="22.6628" fill="#050812"/>
<circle cx="164.789" cy="110.94" r="22.0028" stroke="url(#paint9_linear_1406_1627)" stroke-width="1.32"/>
</g>
<circle opacity="0.94" cx="164.789" cy="110.94" r="21.6628" fill="#050812" stroke="url(#paint10_linear_1406_1627)" stroke-width="2"/>
<g opacity="0.94" filter="url(#filter10_f_1406_1627)">
<circle cx="60.0061" cy="97.5061" r="14.8461" stroke="#C0BAF7" stroke-opacity="0.69" stroke-width="1.32"/>
</g>
<circle opacity="0.94" cx="60.4592" cy="97.5061" r="14.8461" stroke="#C0BAF7" stroke-opacity="0.71" stroke-width="1.32"/>
<path d="M60.167 89.2285V95.5351L65.8573 97.9454L60.167 89.2285Z" fill="white" fill-opacity="0.602"/>
<path opacity="0.8" d="M60.167 89.2285L54.4414 97.9454L60.167 95.5681V89.2285Z" fill="white"/>
<path opacity="0.8" d="M60.167 102.039V106.332L65.8926 98.9355L60.167 102.039Z" fill="white" fill-opacity="0.602"/>
<path d="M60.168 106.332V102.039L54.4424 98.9355L60.168 106.332Z" fill="white"/>
<path d="M60.1672 101.049L65.8575 97.9457L60.1318 95.5684V101.049H60.1672Z" fill="white" fill-opacity="0.2"/>
<path opacity="0.8" d="M54.4424 97.9457L60.168 101.049V95.5684L54.4424 97.9457Z" fill="white" fill-opacity="0.602"/>
<path d="M45.4627 137.064H46.7795V133.259H50.4869V132.13H46.7795V129.471H50.8746V128.337H45.4627V137.064ZM53.194 137.064H54.5107V133.762H56.3005C56.3303 133.762 56.3559 133.762 56.3857 133.762L58.1585 137.064H59.6585L57.7238 133.532C58.7934 133.135 59.3261 132.245 59.3261 131.073C59.3261 129.466 58.3289 128.337 56.3048 128.337H53.194V137.064ZM54.5107 132.628V129.466H56.1641C57.4638 129.466 58.0008 130.084 58.0008 131.073C58.0008 132.057 57.4638 132.628 56.1812 132.628H54.5107ZM69.2093 132.701C69.2093 129.91 67.5388 128.218 65.2803 128.218C63.0133 128.218 61.3471 129.91 61.3471 132.701C61.3471 135.488 63.0133 137.184 65.2803 137.184C67.5388 137.184 69.2093 135.492 69.2093 132.701ZM67.9053 132.701C67.9053 134.827 66.7803 135.982 65.2803 135.982C63.7761 135.982 62.6553 134.827 62.6553 132.701C62.6553 130.574 63.7761 129.42 65.2803 129.42C66.7803 129.42 67.9053 130.574 67.9053 132.701ZM71.551 128.337V137.064H72.8038V130.745H72.8848L75.4587 137.052H76.4984L79.0723 130.749H79.1533V137.064H80.4061V128.337H78.8081L76.0297 135.121H75.9274L73.149 128.337H71.551Z" fill="url(#paint11_linear_1406_1627)"/>
<path d="M168.726 107.361L172.543 110.831M172.543 110.831L168.726 114.301M172.543 110.831C172.543 110.831 163.059 110.831 162.046 110.831C161.034 110.831 156.44 110.831 156.44 110.831" stroke="#C0BAF7" stroke-width="2" stroke-linecap="round" stroke-linejoin="round"/>
<defs>
<filter id="filter0_b_1406_1627" x="-2.38752" y="10.1125" width="148.775" height="115.775" filterUnits="userSpaceOnUse" color-interpolation-filters="sRGB">
<feFlood flood-opacity="0" result="BackgroundImageFix"/>
<feGaussianBlur in="BackgroundImage" stdDeviation="6.44376"/>
<feComposite in2="SourceAlpha" operator="in" result="effect1_backgroundBlur_1406_1627"/>
<feBlend mode="normal" in="SourceGraphic" in2="effect1_backgroundBlur_1406_1627" result="shape"/>
</filter>
<filter id="filter1_b_1406_1627" x="-12.3875" y="-12.8875" width="148.775" height="115.775" filterUnits="userSpaceOnUse" color-interpolation-filters="sRGB">
<feFlood flood-opacity="0" result="BackgroundImageFix"/>
<feGaussianBlur in="BackgroundImage" stdDeviation="6.44376"/>
<feComposite in2="SourceAlpha" operator="in" result="effect1_backgroundBlur_1406_1627"/>
<feBlend mode="normal" in="SourceGraphic" in2="effect1_backgroundBlur_1406_1627" result="shape"/>
</filter>
<filter id="filter2_b_1406_1627" x="7.61248" y="33.1125" width="148.775" height="115.775" filterUnits="userSpaceOnUse" color-interpolation-filters="sRGB">
<feFlood flood-opacity="0" result="BackgroundImageFix"/>
<feGaussianBlur in="BackgroundImage" stdDeviation="6.44376"/>
<feComposite in2="SourceAlpha" operator="in" result="effect1_backgroundBlur_1406_1627"/>
<feBlend mode="normal" in="SourceGraphic" in2="effect1_backgroundBlur_1406_1627" result="shape"/>
</filter>
<filter id="filter3_b_1406_1627" x="18.6125" y="56.1125" width="148.775" height="115.775" filterUnits="userSpaceOnUse" color-interpolation-filters="sRGB">
<feFlood flood-opacity="0" result="BackgroundImageFix"/>
<feGaussianBlur in="BackgroundImage" stdDeviation="6.44376"/>
<feComposite in2="SourceAlpha" operator="in" result="effect1_backgroundBlur_1406_1627"/>
<feBlend mode="normal" in="SourceGraphic" in2="effect1_backgroundBlur_1406_1627" result="shape"/>
</filter>
<filter id="filter4_b_1406_1627" x="181.612" y="7.11248" width="148.775" height="115.775" filterUnits="userSpaceOnUse" color-interpolation-filters="sRGB">
<feFlood flood-opacity="0" result="BackgroundImageFix"/>
<feGaussianBlur in="BackgroundImage" stdDeviation="6.44376"/>
<feComposite in2="SourceAlpha" operator="in" result="effect1_backgroundBlur_1406_1627"/>
<feBlend mode="normal" in="SourceGraphic" in2="effect1_backgroundBlur_1406_1627" result="shape"/>
</filter>
<filter id="filter5_b_1406_1627" x="191.612" y="-12.8875" width="148.775" height="115.775" filterUnits="userSpaceOnUse" color-interpolation-filters="sRGB">
<feFlood flood-opacity="0" result="BackgroundImageFix"/>
<feGaussianBlur in="BackgroundImage" stdDeviation="6.44376"/>
<feComposite in2="SourceAlpha" operator="in" result="effect1_backgroundBlur_1406_1627"/>
<feBlend mode="normal" in="SourceGraphic" in2="effect1_backgroundBlur_1406_1627" result="shape"/>
</filter>
<filter id="filter6_b_1406_1627" x="169.612" y="31.1125" width="148.775" height="115.775" filterUnits="userSpaceOnUse" color-interpolation-filters="sRGB">
<feFlood flood-opacity="0" result="BackgroundImageFix"/>
<feGaussianBlur in="BackgroundImage" stdDeviation="6.44376"/>
<feComposite in2="SourceAlpha" operator="in" result="effect1_backgroundBlur_1406_1627"/>
<feBlend mode="normal" in="SourceGraphic" in2="effect1_backgroundBlur_1406_1627" result="shape"/>
</filter>
<filter id="filter7_b_1406_1627" x="156.671" y="55.1125" width="148.775" height="115.775" filterUnits="userSpaceOnUse" color-interpolation-filters="sRGB">
<feFlood flood-opacity="0" result="BackgroundImageFix"/>
<feGaussianBlur in="BackgroundImage" stdDeviation="6.44376"/>
<feComposite in2="SourceAlpha" operator="in" result="effect1_backgroundBlur_1406_1627"/>
<feBlend mode="normal" in="SourceGraphic" in2="effect1_backgroundBlur_1406_1627" result="shape"/>
</filter>
<filter id="filter8_f_1406_1627" x="243.22" y="75.7512" width="41.5717" height="41.5717" filterUnits="userSpaceOnUse" color-interpolation-filters="sRGB">
<feFlood flood-opacity="0" result="BackgroundImageFix"/>
<feBlend mode="normal" in="SourceGraphic" in2="BackgroundImageFix" result="shape"/>
<feGaussianBlur stdDeviation="2.64" result="effect1_foregroundBlur_1406_1627"/>
</filter>
<filter id="filter9_f_1406_1627" x="136.846" y="82.9973" width="55.8852" height="55.8862" filterUnits="userSpaceOnUse" color-interpolation-filters="sRGB">
<feFlood flood-opacity="0" result="BackgroundImageFix"/>
<feBlend mode="normal" in="SourceGraphic" in2="BackgroundImageFix" result="shape"/>
<feGaussianBlur stdDeviation="2.64" result="effect1_foregroundBlur_1406_1627"/>
</filter>
<filter id="filter10_f_1406_1627" x="39.22" y="76.72" width="41.5717" height="41.5717" filterUnits="userSpaceOnUse" color-interpolation-filters="sRGB">
<feFlood flood-opacity="0" result="BackgroundImageFix"/>
<feBlend mode="normal" in="SourceGraphic" in2="BackgroundImageFix" result="shape"/>
<feGaussianBlur stdDeviation="2.64" result="effect1_foregroundBlur_1406_1627"/>
</filter>
<linearGradient id="paint0_linear_1406_1627" x1="139.675" y1="-10.9796" x2="11.2138" y2="2.82195" gradientUnits="userSpaceOnUse">
<stop stop-color="#2A2F4E"/>
<stop offset="1" stop-color="#2A2F4E" stop-opacity="0.31"/>
</linearGradient>
<linearGradient id="paint1_linear_1406_1627" x1="129.675" y1="-33.9796" x2="1.21375" y2="-20.1781" gradientUnits="userSpaceOnUse">
<stop stop-color="#2A2F4E"/>
<stop offset="1" stop-color="#2A2F4E" stop-opacity="0.31"/>
</linearGradient>
<linearGradient id="paint2_linear_1406_1627" x1="149.675" y1="12.0204" x2="21.2138" y2="25.8219" gradientUnits="userSpaceOnUse">
<stop stop-color="#2A2F4E"/>
<stop offset="1" stop-color="#2A2F4E" stop-opacity="0.31"/>
</linearGradient>
<linearGradient id="paint3_linear_1406_1627" x1="160.675" y1="35.0204" x2="32.2138" y2="48.8219" gradientUnits="userSpaceOnUse">
<stop stop-color="#2A2F4E"/>
<stop offset="1" stop-color="#2A2F4E" stop-opacity="0.31"/>
</linearGradient>
<linearGradient id="paint4_linear_1406_1627" x1="323.675" y1="-13.9796" x2="195.214" y2="-0.178054" gradientUnits="userSpaceOnUse">
<stop stop-color="#2A2F4E"/>
<stop offset="1" stop-color="#2A2F4E" stop-opacity="0.31"/>
</linearGradient>
<linearGradient id="paint5_linear_1406_1627" x1="333.675" y1="-33.9796" x2="205.214" y2="-20.1781" gradientUnits="userSpaceOnUse">
<stop stop-color="#2A2F4E"/>
<stop offset="1" stop-color="#2A2F4E" stop-opacity="0.31"/>
</linearGradient>
<linearGradient id="paint6_linear_1406_1627" x1="311.675" y1="10.0204" x2="183.214" y2="23.8219" gradientUnits="userSpaceOnUse">
<stop stop-color="#2A2F4E"/>
<stop offset="1" stop-color="#2A2F4E" stop-opacity="0.31"/>
</linearGradient>
<linearGradient id="paint7_linear_1406_1627" x1="298.733" y1="34.0204" x2="170.272" y2="47.8219" gradientUnits="userSpaceOnUse">
<stop stop-color="#2A2F4E"/>
<stop offset="1" stop-color="#2A2F4E" stop-opacity="0.31"/>
</linearGradient>
<linearGradient id="paint8_linear_1406_1627" x1="273.144" y1="139.096" x2="254.737" y2="139.096" gradientUnits="userSpaceOnUse">
<stop stop-color="white"/>
<stop offset="0.916667" stop-color="#DCD8FE"/>
</linearGradient>
<linearGradient id="paint9_linear_1406_1627" x1="142.126" y1="133.603" x2="187.451" y2="133.603" gradientUnits="userSpaceOnUse">
<stop stop-color="#435AFF"/>
<stop offset="0.484375" stop-color="#7342FF"/>
<stop offset="1" stop-color="#D235CF"/>
</linearGradient>
<linearGradient id="paint10_linear_1406_1627" x1="142.126" y1="133.603" x2="187.451" y2="133.603" gradientUnits="userSpaceOnUse">
<stop stop-color="#435AFF"/>
<stop offset="0.484375" stop-color="#7342FF"/>
<stop offset="1" stop-color="#D235CF"/>
</linearGradient>
<linearGradient id="paint11_linear_1406_1627" x1="80.7723" y1="140.064" x2="42.9361" y2="140.064" gradientUnits="userSpaceOnUse">
<stop stop-color="white"/>
<stop offset="0.916667" stop-color="#DCD8FE"/>
</linearGradient>
</defs>
</svg>
