<svg width="296" height="240" viewBox="0 0 296 240" fill="none" xmlns="http://www.w3.org/2000/svg">
<g filter="url(#filter0_b_1406_1926)">
<rect width="140" height="184" rx="4" fill="url(#paint0_linear_1406_1926)" fill-opacity="0.7"/>
<rect x="0.5" y="0.5" width="139" height="183" rx="3.5" stroke="url(#paint1_linear_1406_1926)" stroke-opacity="0.5"/>
</g>
<rect x="42.5" y="89.5" width="57" height="1" fill="url(#paint2_linear_1406_1926)" stroke="url(#paint3_linear_1406_1926)"/>
<g opacity="0.82" filter="url(#filter1_f_1406_1926)">
<rect x="42" y="89" width="58" height="2" rx="1" fill="url(#paint4_linear_1406_1926)"/>
<rect x="42.5" y="89.5" width="57" height="1" rx="0.5" stroke="url(#paint5_linear_1406_1926)"/>
</g>
<path d="M71.2 68L42.4 37.76M71.2 68L100 37.76M71.2 68L56.9462 37.76M71.2 68L85.4508 37.76M42.4 37.76L50.3246 24.8M42.4 37.76L56.9462 37.76M100 37.76L92.0723 24.8M100 37.76L85.4508 37.76M50.3246 24.8L56.9462 37.76M50.3246 24.8L71.1985 24.8M92.0723 24.8L71.1985 24.8M92.0723 24.8L85.4508 37.76M56.9462 37.76L71.1985 24.8M56.9462 37.76L85.4508 37.76M71.1985 24.8L85.4508 37.76" stroke="#C0BAF7" stroke-linecap="round" stroke-linejoin="round"/>
<g filter="url(#filter2_f_1406_1926)">
<path d="M70.8016 68.2012L42.0016 37.9612M70.8016 68.2012L99.6016 37.9612M70.8016 68.2012L56.5477 37.9612M70.8016 68.2012L85.0523 37.9612M42.0016 37.9612L49.9262 25.0012M42.0016 37.9612L56.5477 37.9612M99.6016 37.9612L91.6739 25.0012M99.6016 37.9612L85.0523 37.9612M49.9262 25.0012L56.5477 37.9612M49.9262 25.0012L70.8 25.0012M91.6739 25.0012L70.8 25.0012M91.6739 25.0012L85.0523 37.9612M56.5477 37.9612L70.8 25.0012M56.5477 37.9612L85.0523 37.9612M70.8 25.0012L85.0523 37.9612" stroke="#C0BAF7" stroke-opacity="0.52" stroke-linecap="round" stroke-linejoin="round"/>
</g>
<path d="M51.1738 114.565H52.4437C52.4054 113.168 51.1696 112.153 49.3968 112.153C47.6454 112.153 46.3031 113.155 46.3031 114.659C46.3031 115.874 47.1724 116.585 48.5744 116.964L49.6056 117.246C50.5389 117.493 51.2591 117.8 51.2591 118.575C51.2591 119.428 50.4451 119.99 49.3244 119.99C48.3102 119.99 47.4664 119.538 47.3897 118.588H46.0687C46.1539 120.169 47.377 121.145 49.3329 121.145C51.3826 121.145 52.563 120.067 52.563 118.588C52.563 117.016 51.161 116.406 50.0531 116.134L49.2008 115.912C48.519 115.737 47.6113 115.418 47.6156 114.582C47.6156 113.841 48.2931 113.291 49.367 113.291C50.3684 113.291 51.0801 113.76 51.1738 114.565ZM56.1533 112.273H54.8365V121H56.1533V112.273ZM65.8149 112.273H64.511V118.682H64.43L59.9897 112.273H58.7709V121H60.0877V114.599H60.1686L64.6047 121H65.8149V112.273ZM74.342 115.03H75.6929C75.3988 113.33 73.9457 112.153 72.0622 112.153C69.8037 112.153 68.1545 113.854 68.1545 116.641C68.1545 119.402 69.7568 121.119 72.1218 121.119C74.2397 121.119 75.7525 119.73 75.7525 117.527V116.534H72.3221V117.621H74.4784C74.4485 119.027 73.5196 119.918 72.1218 119.918C70.5835 119.918 69.4627 118.754 69.4627 116.632C69.4627 114.518 70.592 113.355 72.0707 113.355C73.2298 113.355 74.0139 113.994 74.342 115.03ZM78.124 121H83.3953V119.866H79.4408V112.273H78.124V121ZM85.5975 121H91.1202V119.866H86.9142V117.195H90.7836V116.065H86.9142V113.406H91.0691V112.273H85.5975V121ZM44.4377 140H45.7545V136.697H47.5442C47.5741 136.697 47.5996 136.697 47.6295 136.697L49.4022 140H50.9022L48.9675 136.467C50.0371 136.071 50.5698 135.18 50.5698 134.009C50.5698 132.402 49.5727 131.273 47.5485 131.273H44.4377V140ZM45.7545 135.564V132.402H47.4079C48.7076 132.402 49.2445 133.02 49.2445 134.009C49.2445 134.993 48.7076 135.564 47.4249 135.564H45.7545ZM52.8721 140H58.3948V138.866H54.1888V136.195H58.0582V135.065H54.1888V132.406H58.3437V131.273H52.8721V140ZM62.5114 140H63.8409L65.6776 133.463H65.7457L67.5824 140H68.9077L71.3324 131.273H69.9432L68.2472 138.036H68.1662L66.3977 131.273H65.0256L63.2571 138.031H63.1761L61.4759 131.273H60.0909L62.5114 140ZM73.2202 140L74.0214 137.69H77.4305L78.2273 140H79.6251L76.4844 131.273H74.9631L71.8225 140H73.2202ZM74.4049 136.582L75.6918 132.858H75.76L77.0469 136.582H74.4049ZM81.5854 140H82.9021V136.697H84.6919C84.7217 136.697 84.7473 136.697 84.7771 136.697L86.5499 140H88.0499L86.1152 136.467C87.1848 136.071 87.7175 135.18 87.7175 134.009C87.7175 132.402 86.7203 131.273 84.6962 131.273H81.5854V140ZM82.9021 135.564V132.402H84.5555C85.8553 132.402 86.3922 133.02 86.3922 134.009C86.3922 134.993 85.8553 135.564 84.5726 135.564H82.9021ZM92.845 140C95.5041 140 97.0425 138.351 97.0425 135.624C97.0425 132.909 95.5041 131.273 92.9345 131.273H90.0197V140H92.845ZM91.3365 138.849V132.423H92.8535C94.7626 132.423 95.747 133.565 95.747 135.624C95.747 137.69 94.7626 138.849 92.7726 138.849H91.3365ZM54.0615 159H55.3783V155.932H57.1681C59.1922 155.932 60.1936 154.709 60.1936 153.098C60.1936 151.491 59.2007 150.273 57.1723 150.273H54.0615V159ZM55.3783 154.815V151.402H57.0317C58.3357 151.402 58.8684 152.109 58.8684 153.098C58.8684 154.087 58.3357 154.815 57.0488 154.815H55.3783ZM70.0183 154.636C70.0183 151.845 68.3478 150.153 66.0893 150.153C63.8223 150.153 62.1561 151.845 62.1561 154.636C62.1561 157.423 63.8223 159.119 66.0893 159.119C68.3478 159.119 70.0183 157.428 70.0183 154.636ZM68.7143 154.636C68.7143 156.763 67.5893 157.918 66.0893 157.918C64.585 157.918 63.4643 156.763 63.4643 154.636C63.4643 152.51 64.585 151.355 66.0893 151.355C67.5893 151.355 68.7143 152.51 68.7143 154.636ZM79.9409 154.636C79.9409 151.845 78.2705 150.153 76.012 150.153C73.7449 150.153 72.0787 151.845 72.0787 154.636C72.0787 157.423 73.7449 159.119 76.012 159.119C78.2705 159.119 79.9409 157.428 79.9409 154.636ZM78.637 154.636C78.637 156.763 77.512 157.918 76.012 157.918C74.5077 157.918 73.387 156.763 73.387 154.636C73.387 152.51 74.5077 151.355 76.012 151.355C77.512 151.355 78.637 152.51 78.637 154.636ZM82.2826 159H87.5539V157.866H83.5994V150.273H82.2826V159Z" fill="url(#paint6_linear_1406_1926)"/>
<g filter="url(#filter3_b_1406_1926)">
<rect x="156" width="140" height="184" rx="4" fill="url(#paint7_linear_1406_1926)" fill-opacity="0.7"/>
<rect x="156.5" y="0.5" width="139" height="183" rx="3.5" stroke="url(#paint8_linear_1406_1926)" stroke-opacity="0.5"/>
</g>
<rect x="198.5" y="89.5" width="57" height="1" fill="url(#paint9_linear_1406_1926)" stroke="url(#paint10_linear_1406_1926)"/>
<g opacity="0.82" filter="url(#filter4_f_1406_1926)">
<rect x="198" y="89" width="58" height="2" rx="1" fill="url(#paint11_linear_1406_1926)"/>
<rect x="198.5" y="89.5" width="57" height="1" rx="0.5" stroke="url(#paint12_linear_1406_1926)"/>
</g>
<path d="M227.335 54L208.001 33.7M227.335 54L246.668 33.7M227.335 54L217.766 33.7M227.335 54L236.901 33.7M208.001 33.7L213.321 25M208.001 33.7L217.766 33.7M246.668 33.7L241.346 25M246.668 33.7L236.901 33.7M213.321 25L217.766 33.7M213.321 25L227.334 25M241.346 25L227.334 25M241.346 25L236.901 33.7M217.766 33.7L227.334 25M217.766 33.7L236.901 33.7M227.334 25L236.901 33.7" stroke="#C0BAF7" stroke-linecap="round" stroke-linejoin="round"/>
<g filter="url(#filter5_f_1406_1926)">
<path d="M227.335 54L208.001 33.7M227.335 54L246.668 33.7M227.335 54L217.766 33.7M227.335 54L236.901 33.7M208.001 33.7L213.321 25M208.001 33.7L217.766 33.7M246.668 33.7L241.346 25M246.668 33.7L236.901 33.7M213.321 25L217.766 33.7M213.321 25L227.334 25M241.346 25L227.334 25M241.346 25L236.901 33.7M217.766 33.7L227.334 25M217.766 33.7L236.901 33.7M227.334 25L236.901 33.7" stroke="#C0BAF7" stroke-opacity="0.52" stroke-linecap="round" stroke-linejoin="round"/>
</g>
<path d="M207 69L198 59.9M207 69L216 59.9M207 69L202.546 59.9M207 69L211.453 59.9M198 59.9L200.476 56M198 59.9L202.546 59.9M216 59.9L213.523 56M216 59.9L211.453 59.9M200.476 56L202.546 59.9M200.476 56L207 56M213.523 56L207 56M213.523 56L211.453 59.9M202.546 59.9L207 56M202.546 59.9L211.453 59.9M207 56L211.453 59.9" stroke="#C0BAF7" stroke-linecap="round" stroke-linejoin="round"/>
<g filter="url(#filter6_f_1406_1926)">
<path d="M207 69L198 59.9M207 69L216 59.9M207 69L202.546 59.9M207 69L211.453 59.9M198 59.9L200.476 56M198 59.9L202.546 59.9M216 59.9L213.523 56M216 59.9L211.453 59.9M200.476 56L202.546 59.9M200.476 56L207 56M213.523 56L207 56M213.523 56L211.453 59.9M202.546 59.9L207 56M202.546 59.9L211.453 59.9M207 56L211.453 59.9" stroke="#C0BAF7" stroke-opacity="0.52" stroke-linecap="round" stroke-linejoin="round"/>
</g>
<path d="M247 69L238 59.9M247 69L256 59.9M247 69L242.546 59.9M247 69L251.453 59.9M238 59.9L240.476 56M238 59.9L242.546 59.9M256 59.9L253.523 56M256 59.9L251.453 59.9M240.476 56L242.546 59.9M240.476 56L247 56M253.523 56L247 56M253.523 56L251.453 59.9M242.546 59.9L247 56M242.546 59.9L251.453 59.9M247 56L251.453 59.9" stroke="#C0BAF7" stroke-linecap="round" stroke-linejoin="round"/>
<g filter="url(#filter7_f_1406_1926)">
<path d="M247 69L238 59.9M247 69L256 59.9M247 69L242.546 59.9M247 69L251.453 59.9M238 59.9L240.476 56M238 59.9L242.546 59.9M256 59.9L253.523 56M256 59.9L251.453 59.9M240.476 56L242.546 59.9M240.476 56L247 56M253.523 56L247 56M253.523 56L251.453 59.9M242.546 59.9L247 56M242.546 59.9L251.453 59.9M247 56L251.453 59.9" stroke="#C0BAF7" stroke-opacity="0.52" stroke-linecap="round" stroke-linejoin="round"/>
</g>
<path d="M205.069 112.273V121H206.321V114.68H206.402L208.976 120.987H210.016L212.59 114.685H212.671V121H213.924V112.273H212.326L209.547 119.057H209.445L206.667 112.273H205.069ZM222.15 112.273V117.906C222.15 119.091 221.332 119.943 220.003 119.943C218.677 119.943 217.855 119.091 217.855 117.906V112.273H216.538V118.013C216.538 119.845 217.91 121.145 220.003 121.145C222.095 121.145 223.471 119.845 223.471 118.013V112.273H222.15ZM226.086 121H231.357V119.866H227.403V112.273H226.086V121ZM231.992 113.406H234.711V121H236.023V113.406H238.746V112.273H231.992V113.406ZM242.256 112.273H240.939V121H242.256V112.273ZM197.5 140H198.817V136.697H200.606C200.636 136.697 200.662 136.697 200.692 136.697L202.464 140H203.964L202.03 136.467C203.099 136.071 203.632 135.18 203.632 134.009C203.632 132.402 202.635 131.273 200.611 131.273H197.5V140ZM198.817 135.564V132.402H200.47C201.77 132.402 202.307 133.02 202.307 134.009C202.307 134.993 201.77 135.564 200.487 135.564H198.817ZM205.934 140H211.457V138.866H207.251V136.195H211.12V135.065H207.251V132.406H211.406V131.273H205.934V140ZM215.573 140H216.903L218.74 133.463H218.808L220.644 140H221.97L224.394 131.273H223.005L221.309 138.036H221.228L219.46 131.273H218.088L216.319 138.031H216.238L214.538 131.273H213.153L215.573 140ZM226.282 140L227.083 137.69H230.493L231.289 140H232.687L229.547 131.273H228.025L224.885 140H226.282ZM227.467 136.582L228.754 132.858H228.822L230.109 136.582H227.467ZM234.647 140H235.964V136.697H237.754C237.784 136.697 237.809 136.697 237.839 136.697L239.612 140H241.112L239.177 136.467C240.247 136.071 240.78 135.18 240.78 134.009C240.78 132.402 239.782 131.273 237.758 131.273H234.647V140ZM235.964 135.564V132.402H237.618C238.917 132.402 239.454 133.02 239.454 134.009C239.454 134.993 238.917 135.564 237.635 135.564H235.964ZM245.907 140C248.566 140 250.105 138.351 250.105 135.624C250.105 132.909 248.566 131.273 245.997 131.273H243.082V140H245.907ZM244.399 138.849V132.423H245.916C247.825 132.423 248.809 133.565 248.809 135.624C248.809 137.69 247.825 138.849 245.835 138.849H244.399ZM209.062 159H210.378V155.932H212.168C214.192 155.932 215.194 154.709 215.194 153.098C215.194 151.491 214.201 150.273 212.172 150.273H209.062V159ZM210.378 154.815V151.402H212.032C213.336 151.402 213.868 152.109 213.868 153.098C213.868 154.087 213.336 154.815 212.049 154.815H210.378ZM225.018 154.636C225.018 151.845 223.348 150.153 221.089 150.153C218.822 150.153 217.156 151.845 217.156 154.636C217.156 157.423 218.822 159.119 221.089 159.119C223.348 159.119 225.018 157.428 225.018 154.636ZM223.714 154.636C223.714 156.763 222.589 157.918 221.089 157.918C219.585 157.918 218.464 156.763 218.464 154.636C218.464 152.51 219.585 151.355 221.089 151.355C222.589 151.355 223.714 152.51 223.714 154.636ZM234.941 154.636C234.941 151.845 233.27 150.153 231.012 150.153C228.745 150.153 227.079 151.845 227.079 154.636C227.079 157.423 228.745 159.119 231.012 159.119C233.27 159.119 234.941 157.428 234.941 154.636ZM233.637 154.636C233.637 156.763 232.512 157.918 231.012 157.918C229.508 157.918 228.387 156.763 228.387 154.636C228.387 152.51 229.508 151.355 231.012 151.355C232.512 151.355 233.637 152.51 233.637 154.636ZM237.283 159H242.554V157.866H238.599V150.273H237.283V159Z" fill="url(#paint13_linear_1406_1926)"/>
<defs>
<filter id="filter0_b_1406_1926" x="-13.4201" y="-13.4201" width="166.84" height="210.84" filterUnits="userSpaceOnUse" color-interpolation-filters="sRGB">
<feFlood flood-opacity="0" result="BackgroundImageFix"/>
<feGaussianBlur in="BackgroundImage" stdDeviation="6.71004"/>
<feComposite in2="SourceAlpha" operator="in" result="effect1_backgroundBlur_1406_1926"/>
<feBlend mode="normal" in="SourceGraphic" in2="effect1_backgroundBlur_1406_1926" result="shape"/>
</filter>
<filter id="filter1_f_1406_1926" x="36" y="83" width="70" height="14" filterUnits="userSpaceOnUse" color-interpolation-filters="sRGB">
<feFlood flood-opacity="0" result="BackgroundImageFix"/>
<feBlend mode="normal" in="SourceGraphic" in2="BackgroundImageFix" result="shape"/>
<feGaussianBlur stdDeviation="3" result="effect1_foregroundBlur_1406_1926"/>
</filter>
<filter id="filter2_f_1406_1926" x="30.702" y="13.702" width="80.1996" height="65.7992" filterUnits="userSpaceOnUse" color-interpolation-filters="sRGB">
<feFlood flood-opacity="0" result="BackgroundImageFix"/>
<feBlend mode="normal" in="SourceGraphic" in2="BackgroundImageFix" result="shape"/>
<feGaussianBlur stdDeviation="5.4" result="effect1_foregroundBlur_1406_1926"/>
</filter>
<filter id="filter3_b_1406_1926" x="142.58" y="-13.4201" width="166.84" height="210.84" filterUnits="userSpaceOnUse" color-interpolation-filters="sRGB">
<feFlood flood-opacity="0" result="BackgroundImageFix"/>
<feGaussianBlur in="BackgroundImage" stdDeviation="6.71004"/>
<feComposite in2="SourceAlpha" operator="in" result="effect1_backgroundBlur_1406_1926"/>
<feBlend mode="normal" in="SourceGraphic" in2="effect1_backgroundBlur_1406_1926" result="shape"/>
</filter>
<filter id="filter4_f_1406_1926" x="192" y="83" width="70" height="14" filterUnits="userSpaceOnUse" color-interpolation-filters="sRGB">
<feFlood flood-opacity="0" result="BackgroundImageFix"/>
<feBlend mode="normal" in="SourceGraphic" in2="BackgroundImageFix" result="shape"/>
<feGaussianBlur stdDeviation="3" result="effect1_foregroundBlur_1406_1926"/>
</filter>
<filter id="filter5_f_1406_1926" x="196.701" y="13.7" width="61.267" height="51.6" filterUnits="userSpaceOnUse" color-interpolation-filters="sRGB">
<feFlood flood-opacity="0" result="BackgroundImageFix"/>
<feBlend mode="normal" in="SourceGraphic" in2="BackgroundImageFix" result="shape"/>
<feGaussianBlur stdDeviation="5.4" result="effect1_foregroundBlur_1406_1926"/>
</filter>
<filter id="filter6_f_1406_1926" x="186.7" y="44.7" width="40.6" height="35.6" filterUnits="userSpaceOnUse" color-interpolation-filters="sRGB">
<feFlood flood-opacity="0" result="BackgroundImageFix"/>
<feBlend mode="normal" in="SourceGraphic" in2="BackgroundImageFix" result="shape"/>
<feGaussianBlur stdDeviation="5.4" result="effect1_foregroundBlur_1406_1926"/>
</filter>
<filter id="filter7_f_1406_1926" x="226.7" y="44.7" width="40.6" height="35.6" filterUnits="userSpaceOnUse" color-interpolation-filters="sRGB">
<feFlood flood-opacity="0" result="BackgroundImageFix"/>
<feBlend mode="normal" in="SourceGraphic" in2="BackgroundImageFix" result="shape"/>
<feGaussianBlur stdDeviation="5.4" result="effect1_foregroundBlur_1406_1926"/>
</filter>
<linearGradient id="paint0_linear_1406_1926" x1="147.028" y1="-69.4694" x2="-10.4299" y2="-63.1133" gradientUnits="userSpaceOnUse">
<stop stop-color="#2A2F4E"/>
<stop offset="1" stop-color="#2A2F4E" stop-opacity="0.31"/>
</linearGradient>
<linearGradient id="paint1_linear_1406_1926" x1="70" y1="-74.1111" x2="70" y2="254.022" gradientUnits="userSpaceOnUse">
<stop offset="0.316892" stop-color="#C8C2FF"/>
<stop offset="1" stop-color="#2E17F2"/>
</linearGradient>
<linearGradient id="paint2_linear_1406_1926" x1="42" y1="91" x2="100" y2="91" gradientUnits="userSpaceOnUse">
<stop stop-color="#435AFF"/>
<stop offset="0.484375" stop-color="#7342FF"/>
<stop offset="1" stop-color="#D235CF"/>
</linearGradient>
<linearGradient id="paint3_linear_1406_1926" x1="42" y1="91" x2="100" y2="91" gradientUnits="userSpaceOnUse">
<stop stop-color="#435AFF"/>
<stop offset="0.484375" stop-color="#7342FF"/>
<stop offset="1" stop-color="#D235CF"/>
</linearGradient>
<linearGradient id="paint4_linear_1406_1926" x1="42" y1="91" x2="100" y2="91" gradientUnits="userSpaceOnUse">
<stop stop-color="#435AFF"/>
<stop offset="0.484375" stop-color="#7342FF"/>
<stop offset="1" stop-color="#D235CF"/>
</linearGradient>
<linearGradient id="paint5_linear_1406_1926" x1="42" y1="91" x2="100" y2="91" gradientUnits="userSpaceOnUse">
<stop stop-color="#435AFF"/>
<stop offset="0.484375" stop-color="#7342FF"/>
<stop offset="1" stop-color="#D235CF"/>
</linearGradient>
<linearGradient id="paint6_linear_1406_1926" x1="117.278" y1="164" x2="17.8814" y2="164" gradientUnits="userSpaceOnUse">
<stop stop-color="white"/>
<stop offset="0.916667" stop-color="#DCD8FE"/>
</linearGradient>
<linearGradient id="paint7_linear_1406_1926" x1="303.028" y1="-69.4694" x2="145.57" y2="-63.1133" gradientUnits="userSpaceOnUse">
<stop stop-color="#2A2F4E"/>
<stop offset="1" stop-color="#2A2F4E" stop-opacity="0.31"/>
</linearGradient>
<linearGradient id="paint8_linear_1406_1926" x1="226" y1="-74.1111" x2="226" y2="254.022" gradientUnits="userSpaceOnUse">
<stop offset="0.316892" stop-color="#C8C2FF"/>
<stop offset="1" stop-color="#2E17F2"/>
</linearGradient>
<linearGradient id="paint9_linear_1406_1926" x1="198" y1="91" x2="256" y2="91" gradientUnits="userSpaceOnUse">
<stop stop-color="#435AFF"/>
<stop offset="0.484375" stop-color="#7342FF"/>
<stop offset="1" stop-color="#D235CF"/>
</linearGradient>
<linearGradient id="paint10_linear_1406_1926" x1="198" y1="91" x2="256" y2="91" gradientUnits="userSpaceOnUse">
<stop stop-color="#435AFF"/>
<stop offset="0.484375" stop-color="#7342FF"/>
<stop offset="1" stop-color="#D235CF"/>
</linearGradient>
<linearGradient id="paint11_linear_1406_1926" x1="198" y1="91" x2="256" y2="91" gradientUnits="userSpaceOnUse">
<stop stop-color="#435AFF"/>
<stop offset="0.484375" stop-color="#7342FF"/>
<stop offset="1" stop-color="#D235CF"/>
</linearGradient>
<linearGradient id="paint12_linear_1406_1926" x1="198" y1="91" x2="256" y2="91" gradientUnits="userSpaceOnUse">
<stop stop-color="#435AFF"/>
<stop offset="0.484375" stop-color="#7342FF"/>
<stop offset="1" stop-color="#D235CF"/>
</linearGradient>
<linearGradient id="paint13_linear_1406_1926" x1="272.278" y1="164" x2="172.881" y2="164" gradientUnits="userSpaceOnUse">
<stop stop-color="white"/>
<stop offset="0.916667" stop-color="#DCD8FE"/>
</linearGradient>
</defs>
</svg>
