<svg width="298" height="190" viewBox="0 0 298 190" fill="none" xmlns="http://www.w3.org/2000/svg">
<g filter="url(#filter0_b_1406_2561)">
<rect x="0.5" y="74" width="297" height="60" rx="4" fill="url(#paint0_linear_1406_2561)" fill-opacity="0.7"/>
<rect x="1" y="74.5" width="296" height="59" rx="3.5" stroke="url(#paint1_linear_1406_2561)" stroke-opacity="0.5"/>
</g>
<path d="M236.85 106.119C238.631 106.119 239.939 105.054 239.935 103.605C239.939 102.501 239.27 101.709 238.111 101.53V101.462C239.023 101.227 239.615 100.511 239.611 99.5312C239.615 98.2486 238.563 97.1534 236.884 97.1534C235.282 97.1534 233.995 98.1207 233.952 99.5398H235.226C235.256 98.7386 236.01 98.2528 236.867 98.2528C237.757 98.2528 238.341 98.794 238.337 99.5994C238.341 100.443 237.664 100.997 236.696 100.997H235.959V102.071H236.696C237.907 102.071 238.605 102.685 238.605 103.562C238.605 104.411 237.868 104.986 236.841 104.986C235.895 104.986 235.158 104.5 235.107 103.724H233.769C233.824 105.148 235.086 106.119 236.85 106.119ZM242.54 106H243.916L247.713 98.4403V97.2727H241.943V98.402H246.349V98.4659L242.54 106ZM252.658 106.119C254.414 106.119 255.667 104.879 255.663 103.179C255.667 101.491 254.491 100.264 252.901 100.264C252.254 100.264 251.653 100.511 251.312 100.844H251.261L251.538 98.402H255.241V97.2727H250.443L249.952 101.67L251.158 101.849C251.487 101.555 252.075 101.355 252.603 101.355C253.639 101.364 254.389 102.139 254.389 103.205C254.389 104.253 253.66 105.011 252.658 105.011C251.815 105.011 251.146 104.474 251.077 103.724H249.799C249.85 105.114 251.056 106.119 252.658 106.119ZM261.23 97.2727H259.948L257.77 98.696V99.9574L259.858 98.5938H259.909V106H261.23V97.2727ZM264.655 106.081C265.12 106.081 265.508 105.702 265.508 105.229C265.508 104.764 265.12 104.381 264.655 104.381C264.187 104.381 263.803 104.764 263.803 105.229C263.803 105.702 264.187 106.081 264.655 106.081ZM270.637 106.119C272.393 106.119 273.646 104.879 273.642 103.179C273.646 101.491 272.47 100.264 270.88 100.264C270.233 100.264 269.632 100.511 269.291 100.844H269.24L269.517 98.402H273.22V97.2727H268.421L267.931 101.67L269.137 101.849C269.465 101.555 270.054 101.355 270.582 101.355C271.617 101.364 272.367 102.139 272.367 103.205C272.367 104.253 271.639 105.011 270.637 105.011C269.794 105.011 269.125 104.474 269.056 103.724H267.778C267.829 105.114 269.035 106.119 270.637 106.119ZM278.779 106.119C280.534 106.119 281.787 104.879 281.783 103.179C281.787 101.491 280.611 100.264 279.022 100.264C278.374 100.264 277.773 100.511 277.432 100.844H277.381L277.658 98.402H281.361V97.2727H276.563L276.073 101.67L277.279 101.849C277.607 101.555 278.195 101.355 278.723 101.355C279.759 101.364 280.509 102.139 280.509 103.205C280.509 104.253 279.78 105.011 278.779 105.011C277.935 105.011 277.266 104.474 277.198 103.724H275.919C275.971 105.114 277.176 106.119 278.779 106.119Z" fill="url(#paint2_linear_1406_2561)"/>
<rect x="58.2227" y="92.8457" width="46.2796" height="6.92308" fill="#8780BF" fill-opacity="0.2"/>
<rect x="58.2227" y="107.848" width="23.7331" height="6.92308" fill="#8780BF" fill-opacity="0.2"/>
<g opacity="0.94" filter="url(#filter1_f_1406_2561)">
<path d="M44.9002 104C44.9002 111.953 38.4538 118.4 30.502 118.4C22.5502 118.4 16.1039 111.953 16.1039 104C16.1039 96.047 22.5502 89.6 30.502 89.6C38.4538 89.6 44.9002 96.047 44.9002 104Z" stroke="#C0BAF7" stroke-opacity="0.71" stroke-width="1.2"/>
</g>
<path opacity="0.94" d="M44.8962 104C44.8962 111.953 38.4499 118.4 30.4981 118.4C22.5463 118.4 16.1 111.953 16.1 104C16.1 96.047 22.5463 89.6 30.4981 89.6C38.4499 89.6 44.8962 96.047 44.8962 104Z" stroke="#C0BAF7" stroke-width="1.2"/>
<g filter="url(#filter2_b_1406_2561)">
<rect x="0.5" width="297" height="60" rx="4" fill="url(#paint3_linear_1406_2561)" fill-opacity="0.7"/>
<rect x="1" y="0.5" width="296" height="59" rx="3.5" stroke="url(#paint4_linear_1406_2561)" stroke-opacity="0.5"/>
</g>
<path d="M280.982 23.0032H279.699L277.522 24.4265V25.6879L279.61 24.3242H279.661V31.7305H280.982V23.0032Z" fill="url(#paint5_linear_1406_2561)"/>
<rect x="58.2227" y="18.8457" width="46.2796" height="6.92308" fill="#8780BF" fill-opacity="0.2"/>
<rect x="58.2227" y="33.8477" width="23.7331" height="6.92308" fill="#8780BF" fill-opacity="0.2"/>
<g opacity="0.94" filter="url(#filter3_f_1406_2561)">
<path d="M44.9002 30C44.9002 37.953 38.4538 44.4 30.502 44.4C22.5502 44.4 16.1039 37.953 16.1039 30C16.1039 22.047 22.5502 15.6 30.502 15.6C38.4538 15.6 44.9002 22.047 44.9002 30Z" stroke="#C0BAF7" stroke-opacity="0.71" stroke-width="1.2"/>
</g>
<path opacity="0.94" d="M44.8962 30C44.8962 37.953 38.4499 44.4 30.4981 44.4C22.5463 44.4 16.1 37.953 16.1 30C16.1 22.047 22.5463 15.6 30.4981 15.6C38.4499 15.6 44.8962 22.047 44.8962 30Z" stroke="#C0BAF7" stroke-width="1.2"/>
<circle opacity="0.94" cx="150.098" cy="67" r="24" fill="#050812" stroke="url(#paint6_linear_1406_2561)" stroke-width="2"/>
<g opacity="0.94" filter="url(#filter4_f_1406_2561)">
<circle cx="150.098" cy="67" r="25" fill="#050812"/>
<circle cx="150.098" cy="67" r="24" stroke="url(#paint7_linear_1406_2561)" stroke-width="2"/>
</g>
<path d="M140.887 63.9306L144.236 60.4219M144.236 60.4219L147.585 63.9306M144.236 60.4219L144.236 70.0711C144.236 71.0016 144.589 71.8941 145.217 72.5521C145.845 73.2102 146.697 73.5798 147.585 73.5798H149.26M159.308 70.0709L155.959 73.5798M155.959 73.5798L152.609 70.0711M155.959 73.5798V63.9307C155.959 63.0001 155.606 62.1077 154.978 61.4497C154.349 60.7916 153.498 60.422 152.609 60.422H150.935" stroke="#C0BAF7" stroke-width="2" stroke-linecap="round" stroke-linejoin="round"/>
<defs>
<filter id="filter0_b_1406_2561" x="-12.9201" y="60.5799" width="323.84" height="86.8402" filterUnits="userSpaceOnUse" color-interpolation-filters="sRGB">
<feFlood flood-opacity="0" result="BackgroundImageFix"/>
<feGaussianBlur in="BackgroundImage" stdDeviation="6.71004"/>
<feComposite in2="SourceAlpha" operator="in" result="effect1_backgroundBlur_1406_2561"/>
<feBlend mode="normal" in="SourceGraphic" in2="effect1_backgroundBlur_1406_2561" result="shape"/>
</filter>
<filter id="filter1_f_1406_2561" x="8.30391" y="81.8" width="44.3961" height="44.4" filterUnits="userSpaceOnUse" color-interpolation-filters="sRGB">
<feFlood flood-opacity="0" result="BackgroundImageFix"/>
<feBlend mode="normal" in="SourceGraphic" in2="BackgroundImageFix" result="shape"/>
<feGaussianBlur stdDeviation="3.6" result="effect1_foregroundBlur_1406_2561"/>
</filter>
<filter id="filter2_b_1406_2561" x="-12.9201" y="-13.4201" width="323.84" height="86.8402" filterUnits="userSpaceOnUse" color-interpolation-filters="sRGB">
<feFlood flood-opacity="0" result="BackgroundImageFix"/>
<feGaussianBlur in="BackgroundImage" stdDeviation="6.71004"/>
<feComposite in2="SourceAlpha" operator="in" result="effect1_backgroundBlur_1406_2561"/>
<feBlend mode="normal" in="SourceGraphic" in2="effect1_backgroundBlur_1406_2561" result="shape"/>
</filter>
<filter id="filter3_f_1406_2561" x="8.30391" y="7.8" width="44.3961" height="44.4" filterUnits="userSpaceOnUse" color-interpolation-filters="sRGB">
<feFlood flood-opacity="0" result="BackgroundImageFix"/>
<feBlend mode="normal" in="SourceGraphic" in2="BackgroundImageFix" result="shape"/>
<feGaussianBlur stdDeviation="3.6" result="effect1_foregroundBlur_1406_2561"/>
</filter>
<filter id="filter4_f_1406_2561" x="119.818" y="36.72" width="60.56" height="60.56" filterUnits="userSpaceOnUse" color-interpolation-filters="sRGB">
<feFlood flood-opacity="0" result="BackgroundImageFix"/>
<feBlend mode="normal" in="SourceGraphic" in2="BackgroundImageFix" result="shape"/>
<feGaussianBlur stdDeviation="2.64" result="effect1_foregroundBlur_1406_2561"/>
</filter>
<linearGradient id="paint0_linear_1406_2561" x1="312.41" y1="51.3469" x2="-0.584483" y2="133.544" gradientUnits="userSpaceOnUse">
<stop stop-color="#2A2F4E"/>
<stop offset="1" stop-color="#2A2F4E" stop-opacity="0.31"/>
</linearGradient>
<linearGradient id="paint1_linear_1406_2561" x1="-91.5" y1="54.5" x2="327" y2="151" gradientUnits="userSpaceOnUse">
<stop offset="0.316892" stop-color="#C8C2FF"/>
<stop offset="1" stop-color="#2E17F2"/>
</linearGradient>
<linearGradient id="paint2_linear_1406_2561" x1="281.057" y1="115" x2="206.407" y2="115" gradientUnits="userSpaceOnUse">
<stop stop-color="white"/>
<stop offset="0.916667" stop-color="#DCD8FE"/>
</linearGradient>
<linearGradient id="paint3_linear_1406_2561" x1="312.41" y1="-22.6531" x2="-0.584483" y2="59.5439" gradientUnits="userSpaceOnUse">
<stop stop-color="#2A2F4E"/>
<stop offset="1" stop-color="#2A2F4E" stop-opacity="0.31"/>
</linearGradient>
<linearGradient id="paint4_linear_1406_2561" x1="-91.5" y1="-19.5" x2="327" y2="77" gradientUnits="userSpaceOnUse">
<stop offset="0.316892" stop-color="#C8C2FF"/>
<stop offset="1" stop-color="#2E17F2"/>
</linearGradient>
<linearGradient id="paint5_linear_1406_2561" x1="281.283" y1="41.3458" x2="218.182" y2="41.3458" gradientUnits="userSpaceOnUse">
<stop stop-color="white"/>
<stop offset="0.916667" stop-color="#DCD8FE"/>
</linearGradient>
<linearGradient id="paint6_linear_1406_2561" x1="125.098" y1="91.9998" x2="175.098" y2="91.9998" gradientUnits="userSpaceOnUse">
<stop stop-color="#435AFF"/>
<stop offset="0.484375" stop-color="#7342FF"/>
<stop offset="1" stop-color="#D235CF"/>
</linearGradient>
<linearGradient id="paint7_linear_1406_2561" x1="125.098" y1="91.9998" x2="175.098" y2="91.9998" gradientUnits="userSpaceOnUse">
<stop stop-color="#435AFF"/>
<stop offset="0.484375" stop-color="#7342FF"/>
<stop offset="1" stop-color="#D235CF"/>
</linearGradient>
</defs>
</svg>
