<svg width="260" height="286" viewBox="0 0 260 286" fill="none" xmlns="http://www.w3.org/2000/svg">
<g filter="url(#filter0_b_1406_1969)">
<rect width="260" height="230" rx="4" fill="url(#paint0_linear_1406_1969)" fill-opacity="0.7"/>
<rect x="0.5" y="0.5" width="259" height="229" rx="3.5" stroke="url(#paint1_linear_1406_1969)" stroke-opacity="0.5"/>
</g>
<path d="M106.963 107.241C110.322 107.241 112.29 104.5 112.29 99.7344C112.29 95.0043 110.294 92.2557 106.963 92.2557C103.625 92.2557 101.636 94.9972 101.629 99.7344C101.629 104.493 103.597 107.234 106.963 107.241ZM106.963 105.345C104.996 105.345 103.81 103.371 103.81 99.7344C103.817 96.1122 105.003 94.1165 106.963 94.1165C108.916 94.1165 110.109 96.1122 110.109 99.7344C110.109 103.371 108.923 105.345 106.963 105.345ZM116.69 107.135C117.464 107.135 118.11 106.503 118.11 105.714C118.11 104.94 117.464 104.301 116.69 104.301C115.909 104.301 115.27 104.94 115.27 105.714C115.27 106.503 115.909 107.135 116.69 107.135ZM125.687 92.4545H123.549L119.92 94.8267V96.929L123.4 94.6562H123.485V107H125.687V92.4545ZM135.423 107.199C138.349 107.199 140.437 105.132 140.43 102.298C140.437 99.4858 138.477 97.4403 135.828 97.4403C134.748 97.4403 133.747 97.8523 133.179 98.4062H133.093L133.555 94.3366H139.727V92.4545H131.73L130.913 99.7841L132.923 100.082C133.47 99.5923 134.45 99.2585 135.331 99.2585C137.056 99.2727 138.306 100.565 138.306 102.341C138.306 104.088 137.092 105.352 135.423 105.352C134.017 105.352 132.902 104.457 132.788 103.207H130.657C130.743 105.523 132.752 107.199 135.423 107.199ZM151.616 104.273C151.624 105.913 152.653 107.298 154.578 107.298C156.482 107.298 157.526 105.913 157.526 104.273V103.506C157.526 101.858 156.51 100.48 154.578 100.48C152.682 100.48 151.624 101.865 151.616 103.506V104.273ZM144.301 95.9489C144.301 97.5895 145.338 98.9744 147.263 98.9744C149.159 98.9744 150.21 97.5966 150.203 95.9489V95.1818C150.21 93.5341 149.188 92.1562 147.263 92.1562C145.374 92.1562 144.301 93.5341 144.301 95.1818V95.9489ZM144.898 107H146.595L156.595 92.4545H154.898L144.898 107ZM153.271 103.506C153.278 102.689 153.634 101.901 154.578 101.901C155.558 101.901 155.864 102.689 155.864 103.506V104.273C155.864 105.089 155.53 105.878 154.578 105.878C153.612 105.878 153.278 105.082 153.271 104.273V103.506ZM145.963 95.1818C145.963 94.3722 146.318 93.5767 147.263 93.5767C148.243 93.5767 148.548 94.3651 148.548 95.1818V95.9489C148.548 96.7656 148.214 97.554 147.263 97.554C146.297 97.554 145.963 96.7656 145.963 95.9489V95.1818Z" fill="#B200FF"/>
<path d="M94.9202 141H98.3293V140.375H95.6247V135.182H94.9202V141ZM100.12 141H103.677V140.375H100.825V138.398H103.45V137.773H100.825V135.807H103.632V135.182H100.12V141ZM105.84 141L106.425 139.352H108.778L109.363 141H110.101L107.965 135.182H107.238L105.101 141H105.84ZM106.647 138.727L107.579 136.102H107.624L108.556 138.727H106.647ZM113.503 141C115.276 141 116.276 139.898 116.276 138.08C116.276 136.273 115.276 135.182 113.583 135.182H111.708V141H113.503ZM112.412 140.375V135.807H113.537C114.901 135.807 115.594 136.67 115.594 138.08C115.594 139.5 114.901 140.375 113.458 140.375H112.412ZM118.862 135.182H118.158V141H118.862V135.182ZM125.588 135.182H124.895V139.761H124.838L121.657 135.182H120.975V141H121.679V136.432H121.736L124.907 141H125.588V135.182ZM131.676 137H132.403C132.187 135.875 131.244 135.102 130.016 135.102C128.525 135.102 127.471 136.25 127.471 138.091C127.471 139.932 128.516 141.08 130.062 141.08C131.448 141.08 132.437 140.156 132.437 138.716V138.091H130.221V138.716H131.755C131.735 139.761 131.048 140.42 130.062 140.42C128.982 140.42 128.153 139.602 128.153 138.091C128.153 136.58 128.982 135.761 130.016 135.761C130.857 135.761 131.428 136.236 131.676 137ZM137.532 135.182H136.794L138.93 141H139.657L141.794 135.182H141.055L139.328 140.08H139.26L137.532 135.182ZM143.138 141L143.724 139.352H146.076L146.661 141H147.4L145.263 135.182H144.536L142.4 141H143.138ZM143.945 138.727L144.877 136.102H144.923L145.854 138.727H143.945ZM149.006 141H152.415V140.375H149.711V135.182H149.006V141ZM158.024 135.182V138.977C158.024 139.83 157.439 140.443 156.467 140.443C155.496 140.443 154.911 139.83 154.911 138.977V135.182H154.206V139.034C154.206 140.227 155.098 141.102 156.467 141.102C157.837 141.102 158.729 140.227 158.729 139.034V135.182H158.024ZM160.836 141H164.393V140.375H161.54V138.398H164.165V137.773H161.54V135.807H164.347V135.182H160.836V141Z" fill="url(#paint2_linear_1406_1969)"/>
<path d="M105.06 152.08C106.167 152.08 106.98 151.261 106.98 150.148C106.98 149.02 106.196 148.193 105.128 148.193C104.736 148.193 104.355 148.332 104.116 148.523H104.082L104.287 146.807H106.719V146.182H103.696L103.344 149.045L104.003 149.125C104.244 148.952 104.656 148.827 105.014 148.83C105.756 148.835 106.298 149.398 106.298 150.159C106.298 150.906 105.775 151.455 105.06 151.455C104.463 151.455 103.988 151.071 103.935 150.545H103.253C103.295 151.432 104.06 152.08 105.06 152.08ZM108.672 150.807H111.411V152H112.081V150.807H112.877V150.182H112.081V146.182H111.229L108.672 150.227V150.807ZM111.411 150.182H109.434V150.136L111.365 147.08H111.411V150.182ZM116.539 152.08C117.823 152.08 118.562 150.991 118.562 149.091C118.562 147.205 117.812 146.102 116.539 146.102C115.266 146.102 114.516 147.205 114.516 149.091C114.516 150.991 115.255 152.08 116.539 152.08ZM116.539 151.455C115.692 151.455 115.198 150.605 115.198 149.091C115.198 147.58 115.698 146.716 116.539 146.716C117.38 146.716 117.88 147.58 117.88 149.091C117.88 150.605 117.386 151.455 116.539 151.455ZM122.239 152.08C123.523 152.08 124.262 150.991 124.262 149.091C124.262 147.205 123.512 146.102 122.239 146.102C120.966 146.102 120.216 147.205 120.216 149.091C120.216 150.991 120.955 152.08 122.239 152.08ZM122.239 151.455C121.392 151.455 120.898 150.605 120.898 149.091C120.898 147.58 121.398 146.716 122.239 146.716C123.08 146.716 123.58 147.58 123.58 149.091C123.58 150.605 123.086 151.455 122.239 151.455ZM129.332 146.182H128.594L130.73 152H131.457L133.594 146.182H132.855L131.128 151.08H131.06L129.332 146.182ZM139.836 149.091C139.836 147.25 138.756 146.102 137.267 146.102C135.779 146.102 134.699 147.25 134.699 149.091C134.699 150.932 135.779 152.08 137.267 152.08C138.756 152.08 139.836 150.932 139.836 149.091ZM139.154 149.091C139.154 150.602 138.324 151.42 137.267 151.42C136.211 151.42 135.381 150.602 135.381 149.091C135.381 147.58 136.211 146.761 137.267 146.761C138.324 146.761 139.154 147.58 139.154 149.091ZM141.16 146.807H142.989V152H143.694V146.807H145.523V146.182H141.16V146.807ZM147.311 152H150.868V151.375H148.015V149.398H150.64V148.773H148.015V146.807H150.822V146.182H147.311V152ZM155.974 147.636H156.656C156.624 146.759 155.815 146.102 154.69 146.102C153.576 146.102 152.701 146.75 152.701 147.727C152.701 148.511 153.269 148.977 154.178 149.239L154.894 149.443C155.508 149.614 156.053 149.83 156.053 150.409C156.053 151.045 155.44 151.466 154.633 151.466C153.94 151.466 153.326 151.159 153.269 150.5H152.542C152.61 151.455 153.383 152.102 154.633 152.102C155.974 152.102 156.735 151.364 156.735 150.42C156.735 149.33 155.701 148.977 155.099 148.818L154.508 148.659C154.076 148.545 153.383 148.318 153.383 147.693C153.383 147.136 153.894 146.727 154.667 146.727C155.372 146.727 155.906 147.062 155.974 147.636Z" fill="#B7B5CB"/>
<path d="M99.6416 126H100.958V122.932H102.748C104.772 122.932 105.774 121.709 105.774 120.098C105.774 118.491 104.781 117.273 102.752 117.273H99.6416V126ZM100.958 121.815V118.402H102.612C103.916 118.402 104.448 119.109 104.448 120.098C104.448 121.087 103.916 121.815 102.629 121.815H100.958ZM115.598 121.636C115.598 118.845 113.928 117.153 111.669 117.153C109.402 117.153 107.736 118.845 107.736 121.636C107.736 124.423 109.402 126.119 111.669 126.119C113.928 126.119 115.598 124.428 115.598 121.636ZM114.294 121.636C114.294 123.763 113.169 124.918 111.669 124.918C110.165 124.918 109.044 123.763 109.044 121.636C109.044 119.51 110.165 118.355 111.669 118.355C113.169 118.355 114.294 119.51 114.294 121.636ZM125.521 121.636C125.521 118.845 123.851 117.153 121.592 117.153C119.325 117.153 117.659 118.845 117.659 121.636C117.659 124.423 119.325 126.119 121.592 126.119C123.851 126.119 125.521 124.428 125.521 121.636ZM124.217 121.636C124.217 123.763 123.092 124.918 121.592 124.918C120.088 124.918 118.967 123.763 118.967 121.636C118.967 119.51 120.088 118.355 121.592 118.355C123.092 118.355 124.217 119.51 124.217 121.636ZM127.863 126H133.134V124.866H129.179V117.273H127.863V126ZM139.212 126H140.529V122.195H144.236V121.065H140.529V118.406H144.624V117.273H139.212V126ZM146.943 126H152.466V124.866H148.26V122.195H152.129V121.065H148.26V118.406H152.415V117.273H146.943V126ZM154.874 126H160.396V124.866H156.19V122.195H160.06V121.065H156.19V118.406H160.345V117.273H154.874V126Z" fill="url(#paint3_linear_1406_1969)"/>
<path d="M18.0735 102.097C19.4173 102.097 20.2042 101 20.2042 99.0938C20.2042 97.2017 19.4059 96.1023 18.0735 96.1023C16.7383 96.1023 15.9428 97.1989 15.94 99.0938C15.94 100.997 16.7269 102.094 18.0735 102.097ZM18.0735 101.338C17.2866 101.338 16.8121 100.548 16.8121 99.0938C16.815 97.6449 17.2894 96.8466 18.0735 96.8466C18.8548 96.8466 19.332 97.6449 19.332 99.0938C19.332 100.548 18.8576 101.338 18.0735 101.338ZM21.5643 102.054C21.8739 102.054 22.1325 101.801 22.1325 101.486C22.1325 101.176 21.8739 100.92 21.5643 100.92C21.2518 100.92 20.9961 101.176 20.9961 101.486C20.9961 101.801 21.2518 102.054 21.5643 102.054ZM25.0657 102.097C26.4094 102.097 27.1964 101 27.1964 99.0938C27.1964 97.2017 26.3981 96.1023 25.0657 96.1023C23.7305 96.1023 22.935 97.1989 22.9322 99.0938C22.9322 100.997 23.7191 102.094 25.0657 102.097ZM25.0657 101.338C24.2788 101.338 23.8043 100.548 23.8043 99.0938C23.8072 97.6449 24.2816 96.8466 25.0657 96.8466C25.8469 96.8466 26.3242 97.6449 26.3242 99.0938C26.3242 100.548 25.8498 101.338 25.0657 101.338ZM28.2042 102H32.0337V101.247H29.4144V101.205L30.5707 99.9943C31.636 98.9176 31.94 98.4034 31.94 97.7528C31.94 96.8182 31.1786 96.1023 30.082 96.1023C28.994 96.1023 28.1985 96.8068 28.1985 97.8693H29.0366C29.0337 97.2443 29.4371 96.8352 30.065 96.8352C30.6559 96.8352 31.1048 97.1989 31.1048 97.7784C31.1048 98.2926 30.7979 98.6619 30.1729 99.3239L28.2042 101.364V102ZM35.0309 102.08C36.2013 102.08 37.0366 101.253 37.0337 100.119C37.0366 98.9943 36.2525 98.1761 35.1928 98.1761C34.761 98.1761 34.3604 98.3409 34.1332 98.5625H34.0991L34.2837 96.9347H36.7525V96.1818H33.5536L33.2269 99.1136L34.0309 99.233C34.2496 99.0369 34.6417 98.9034 34.994 98.9034C35.6843 98.9091 36.1843 99.4261 36.1843 100.136C36.1843 100.835 35.6985 101.341 35.0309 101.341C34.4684 101.341 34.0224 100.983 33.9769 100.483H33.1246C33.1587 101.409 33.9627 102.08 35.0309 102.08Z" fill="#6319FF"/>
<path d="M67.0266 49.0966C68.3704 49.0966 69.1573 48 69.1573 46.0938C69.1573 44.2017 68.359 43.1023 67.0266 43.1023C65.6914 43.1023 64.896 44.1989 64.8931 46.0938C64.8931 47.9972 65.68 49.0938 67.0266 49.0966ZM67.0266 48.3381C66.2397 48.3381 65.7653 47.5483 65.7653 46.0938C65.7681 44.6449 66.2425 43.8466 67.0266 43.8466C67.8079 43.8466 68.2852 44.6449 68.2852 46.0938C68.2852 47.5483 67.8107 48.3381 67.0266 48.3381ZM70.5174 49.054C70.8271 49.054 71.0856 48.8011 71.0856 48.4858C71.0856 48.1761 70.8271 47.9205 70.5174 47.9205C70.2049 47.9205 69.9492 48.1761 69.9492 48.4858C69.9492 48.8011 70.2049 49.054 70.5174 49.054ZM74.0188 49.0966C75.3626 49.0966 76.1495 48 76.1495 46.0938C76.1495 44.2017 75.3512 43.1023 74.0188 43.1023C72.6836 43.1023 71.8881 44.1989 71.8853 46.0938C71.8853 47.9972 72.6722 49.0938 74.0188 49.0966ZM74.0188 48.3381C73.2319 48.3381 72.7575 47.5483 72.7575 46.0938C72.7603 44.6449 73.2347 43.8466 74.0188 43.8466C74.8001 43.8466 75.2773 44.6449 75.2773 46.0938C75.2773 47.5483 74.8029 48.3381 74.0188 48.3381ZM79.0778 49.0795C80.2482 49.0795 81.0835 48.2528 81.0806 47.1193C81.0835 45.9943 80.2994 45.1761 79.2397 45.1761C78.8079 45.1761 78.4073 45.3409 78.18 45.5625H78.146L78.3306 43.9347H80.7994V43.1818H77.6005L77.2738 46.1136L78.0778 46.233C78.2965 46.0369 78.6886 45.9034 79.0408 45.9034C79.7312 45.9091 80.2312 46.4261 80.2312 47.1364C80.2312 47.8352 79.7454 48.3409 79.0778 48.3409C78.5153 48.3409 78.0692 47.983 78.0238 47.483H77.1715C77.2056 48.4091 78.0096 49.0795 79.0778 49.0795Z" fill="#8780BF"/>
<path d="M129.827 33.0966C131.171 33.0966 131.958 32 131.958 30.0938C131.958 28.2017 131.16 27.1023 129.827 27.1023C128.492 27.1023 127.697 28.1989 127.694 30.0938C127.694 31.9972 128.481 33.0938 129.827 33.0966ZM129.827 32.3381C129.04 32.3381 128.566 31.5483 128.566 30.0938C128.569 28.6449 129.043 27.8466 129.827 27.8466C130.609 27.8466 131.086 28.6449 131.086 30.0938C131.086 31.5483 130.612 32.3381 129.827 32.3381ZM133.318 33.054C133.628 33.054 133.886 32.8011 133.886 32.4858C133.886 32.1761 133.628 31.9205 133.318 31.9205C133.006 31.9205 132.75 32.1761 132.75 32.4858C132.75 32.8011 133.006 33.054 133.318 33.054ZM136.82 33.0966C138.163 33.0966 138.95 32 138.95 30.0938C138.95 28.2017 138.152 27.1023 136.82 27.1023C135.484 27.1023 134.689 28.1989 134.686 30.0938C134.686 31.9972 135.473 33.0938 136.82 33.0966ZM136.82 32.3381C136.033 32.3381 135.558 31.5483 135.558 30.0938C135.561 28.6449 136.036 27.8466 136.82 27.8466C137.601 27.8466 138.078 28.6449 138.078 30.0938C138.078 31.5483 137.604 32.3381 136.82 32.3381ZM139.998 33H140.915L143.447 27.9602V27.1818H139.6V27.9347H142.538V27.9773L139.998 33ZM146.277 33.0795C147.447 33.0795 148.283 32.2528 148.28 31.1193C148.283 29.9943 147.499 29.1761 146.439 29.1761C146.007 29.1761 145.607 29.3409 145.379 29.5625H145.345L145.53 27.9347H147.999V27.1818H144.8L144.473 30.1136L145.277 30.233C145.496 30.0369 145.888 29.9034 146.24 29.9034C146.93 29.9091 147.43 30.4261 147.43 31.1364C147.43 31.8352 146.945 32.3409 146.277 32.3409C145.714 32.3409 145.268 31.983 145.223 31.483H144.371C144.405 32.4091 145.209 33.0795 146.277 33.0795Z" fill="#DCD8FE"/>
<path d="M208.96 71.0966C210.304 71.0966 211.091 70 211.091 68.0938C211.091 66.2017 210.293 65.1023 208.96 65.1023C207.625 65.1023 206.83 66.1989 206.827 68.0938C206.827 69.9972 207.614 71.0938 208.96 71.0966ZM208.96 70.3381C208.173 70.3381 207.699 69.5483 207.699 68.0938C207.702 66.6449 208.176 65.8466 208.96 65.8466C209.741 65.8466 210.219 66.6449 210.219 68.0938C210.219 69.5483 209.744 70.3381 208.96 70.3381ZM212.451 71.054C212.761 71.054 213.019 70.8011 213.019 70.4858C213.019 70.1761 212.761 69.9205 212.451 69.9205C212.138 69.9205 211.883 70.1761 211.883 70.4858C211.883 70.8011 212.138 71.054 212.451 71.054ZM215.65 65.1818H214.795L213.343 66.1307V66.9716L214.735 66.0625H214.769V71H215.65V65.1818ZM219.144 71.0795C220.315 71.0795 221.15 70.2528 221.147 69.1193C221.15 67.9943 220.366 67.1761 219.306 67.1761C218.874 67.1761 218.474 67.3409 218.246 67.5625H218.212L218.397 65.9347H220.866V65.1818H217.667L217.34 68.1136L218.144 68.233C218.363 68.0369 218.755 67.9034 219.107 67.9034C219.798 67.9091 220.298 68.4261 220.298 69.1364C220.298 69.8352 219.812 70.3409 219.144 70.3409C218.582 70.3409 218.136 69.983 218.09 69.483H217.238C217.272 70.4091 218.076 71.0795 219.144 71.0795Z" fill="#B200FF"/>
<path fill-rule="evenodd" clip-rule="evenodd" d="M132 63.5C131.414 63.5 130.829 63.5072 130.245 63.5215L129.73 42.5278C130.485 42.5093 131.242 42.5 132 42.5C132.757 42.5 133.514 42.5093 134.269 42.5278L133.755 63.5215C133.17 63.5072 132.585 63.5 132 63.5ZM126.739 63.6936C125.57 63.7798 124.406 63.8945 123.247 64.0374L120.677 43.1953C122.176 43.0104 123.683 42.8619 125.195 42.7504L126.739 63.6936ZM140.752 64.0374C139.593 63.8945 138.429 63.7798 137.26 63.6936L138.804 42.7504C140.316 42.8619 141.823 43.0104 143.322 43.1953L140.752 64.0374ZM119.776 64.5523C118.622 64.7526 117.474 64.9809 116.334 65.237L111.732 44.7473C113.208 44.416 114.692 44.1206 116.185 43.8615L119.776 64.5523ZM147.665 65.237C146.525 64.9809 145.377 64.7526 144.223 64.5523L147.814 43.8615C149.307 44.1206 150.792 44.416 152.267 44.7473L147.665 65.237ZM112.93 66.0897C111.802 66.402 110.682 66.7418 109.572 67.1086L102.984 47.1686C104.42 46.6941 105.869 46.2546 107.328 45.8506L112.93 66.0897ZM154.428 67.1086C153.317 66.7418 152.198 66.402 151.069 66.0898L156.671 45.8506C158.13 46.2546 159.579 46.6941 161.015 47.1686L154.428 67.1086ZM106.267 68.291C105.176 68.7121 104.094 69.1599 103.025 69.634L94.5148 50.4355C95.8985 49.8222 97.2971 49.2429 98.7092 48.6982L106.267 68.291ZM160.974 69.634C159.905 69.1599 158.824 68.7121 157.732 68.291L165.29 48.6982C166.702 49.2429 168.101 49.8222 169.484 50.4356L160.974 69.634ZM99.8521 71.1345C98.8076 71.6602 97.7756 72.2118 96.757 72.7888L86.4067 54.5166C87.7244 53.7702 89.0595 53.0567 90.4107 52.3766L99.8521 71.1345ZM167.242 72.7888C166.224 72.2118 165.192 71.6602 164.147 71.1345L173.588 52.3766C174.94 53.0567 176.275 53.7702 177.592 54.5166L167.242 72.7888ZM93.7469 74.5928C92.7596 75.218 91.7867 75.868 90.8291 76.5424L78.7372 59.3731C79.9762 58.5005 81.235 57.6595 82.5124 56.8506L93.7469 74.5928ZM173.17 76.5424C172.212 75.868 171.24 75.218 170.252 74.5928L181.487 56.8507C182.764 57.6595 184.023 58.5005 185.262 59.3731L173.17 76.5424ZM88.0106 78.6328C87.09 79.3513 86.1854 80.0935 85.298 80.8591L71.5807 64.9583C72.7289 63.9677 73.8992 63.0074 75.0903 62.0778L88.0106 78.6328ZM178.701 80.8591C177.814 80.0935 176.909 79.3513 175.989 78.6328L188.909 62.0778C190.1 63.0074 191.27 63.9678 192.418 64.9583L178.701 80.8591ZM82.6976 83.2161C82.2744 83.619 81.8557 84.0276 81.4414 84.4419C81.0272 84.8561 80.6186 85.2749 80.2157 85.698L65.0069 71.2173C65.528 70.6699 66.0565 70.1283 66.5922 69.5926C67.1279 69.0569 67.6695 68.5285 68.2169 68.0073L82.6976 83.2161ZM182.558 84.4419C182.143 84.0276 181.725 83.619 181.302 83.2161L195.782 68.0073C196.33 68.5285 196.871 69.0569 197.407 69.5926C197.943 70.1283 198.471 70.6699 198.992 71.2173L183.783 85.6981C183.381 85.2749 182.972 84.8561 182.558 84.4419ZM77.8587 88.2984C77.0931 89.1859 76.3509 90.0904 75.6324 91.011L59.0774 78.0907C60.007 76.8996 60.9673 75.7293 61.9578 74.5811L77.8587 88.2984ZM188.367 91.011C187.648 90.0904 186.906 89.1859 186.14 88.2984L202.041 74.5811C203.032 75.7293 203.992 76.8996 204.922 78.0908L188.367 91.011ZM73.542 93.8295C72.8675 94.7871 72.2176 95.7601 71.5924 96.7473L53.8502 85.5128C54.6591 84.2354 55.5 82.9766 56.3727 81.7376L73.542 93.8295ZM192.407 96.7473C191.782 95.7601 191.132 94.7871 190.457 93.8295L207.626 81.7376C208.499 82.9766 209.34 84.2355 210.149 85.5128L192.407 96.7473ZM69.7883 99.7574C69.2114 100.776 68.6598 101.808 68.1341 102.853L49.3761 93.4111C50.0562 92.0599 50.7698 90.7248 51.5162 89.4071L69.7883 99.7574ZM195.865 102.853C195.339 101.808 194.788 100.776 194.211 99.7574L212.483 89.4071C213.229 90.7248 213.943 92.06 214.623 93.4111L195.865 102.853ZM66.6336 106.025C66.1595 107.095 65.7116 108.176 65.2905 109.268L45.6978 101.71C46.2425 100.297 46.8218 98.8989 47.4351 97.5152L66.6336 106.025ZM198.709 109.268C198.288 108.176 197.84 107.095 197.366 106.025L216.564 97.5153C217.177 98.899 217.757 100.298 218.301 101.71L198.709 109.268ZM64.1082 112.572C63.7413 113.682 63.4016 114.802 63.0893 115.93L42.8502 110.329C43.2542 108.869 43.6937 107.421 44.1682 105.984L64.1082 112.572ZM200.91 115.93C200.598 114.802 200.258 113.682 199.891 112.572L219.831 105.984C220.305 107.421 220.745 108.869 221.149 110.329L200.91 115.93ZM62.2365 119.334C61.9805 120.475 61.7521 121.622 61.5519 122.776L40.8611 119.186C41.1201 117.693 41.4156 116.208 41.7469 114.733L62.2365 119.334ZM202.447 122.776C202.247 121.622 202.019 120.475 201.763 119.334L222.252 114.733C222.584 116.208 222.879 117.693 223.138 119.186L202.447 122.776ZM61.037 126.247C60.8941 127.406 60.7793 128.571 60.6932 129.74L39.75 128.196C39.8615 126.683 40.01 125.177 40.1949 123.677L61.037 126.247ZM203.306 129.74C203.22 128.571 203.105 127.406 202.962 126.247L223.804 123.677C223.989 125.177 224.138 126.683 224.249 128.196L213.778 128.968L203.306 129.74Z" fill="#8780BF" fill-opacity="0.2"/>
<path fill-rule="evenodd" clip-rule="evenodd" d="M151.069 66.0907C152.198 66.403 153.317 66.7427 154.428 67.1095L161.015 47.1696C159.579 46.6951 158.13 46.2555 156.671 45.8516L151.069 66.0907ZM157.732 68.2919C158.824 68.713 159.905 69.1608 160.974 69.635L169.484 50.4365C168.101 49.8232 166.702 49.2439 165.29 48.6991L157.732 68.2919ZM164.147 71.1355C165.192 71.6612 166.224 72.2127 167.242 72.7897L177.593 54.5176C176.275 53.7711 174.94 53.0576 173.588 52.3775L164.147 71.1355ZM170.252 74.5938C171.24 75.2189 172.212 75.8689 173.17 76.5433L185.262 59.374C184.023 58.5014 182.764 57.6604 181.487 56.8516L170.252 74.5938ZM175.989 78.6338C176.909 79.3522 177.814 80.0945 178.701 80.8601L192.418 64.9592C191.27 63.9687 190.1 63.0084 188.909 62.0788L175.989 78.6338ZM181.302 83.217C181.725 83.62 182.144 84.0286 182.558 84.4428C182.972 84.857 183.381 85.2758 183.784 85.699L198.992 71.2183C198.471 70.6709 197.943 70.1293 197.407 69.5936C196.871 69.0579 196.33 68.5294 195.782 68.0082L181.302 83.217ZM186.14 88.2993C186.906 89.1868 187.648 90.0913 188.367 91.0119L204.922 78.0917C203.992 76.9006 203.032 75.7303 202.041 74.5821L186.14 88.2993ZM190.457 93.8305C191.132 94.7881 191.782 95.761 192.407 96.7483L210.149 85.5137C209.34 84.2364 208.499 82.9776 207.627 81.7386L190.457 93.8305ZM194.211 99.7584C194.788 100.777 195.339 101.809 195.865 102.853L214.623 93.4121C213.943 92.0609 213.229 90.7258 212.483 89.4081L194.211 99.7584ZM197.366 106.026C197.84 107.096 198.288 108.177 198.709 109.269L218.301 101.711C217.757 100.298 217.177 98.8999 216.564 97.5162L197.366 106.026ZM199.891 112.573C200.258 113.683 200.598 114.803 200.91 115.931L221.149 110.33C220.745 108.87 220.306 107.421 219.831 105.985L199.891 112.573ZM201.763 119.335C202.019 120.476 202.247 121.623 202.447 122.777L223.138 119.187C222.879 117.694 222.584 116.209 222.252 114.734L201.763 119.335ZM202.962 126.248C203.105 127.407 203.22 128.572 203.306 129.741L213.778 128.969L224.249 128.197C224.138 126.684 223.989 125.178 223.804 123.678L202.962 126.248Z" fill="#B200FF"/>
<path opacity="0.3" fill-rule="evenodd" clip-rule="evenodd" d="M130.244 63.5215C130.828 63.5072 131.413 63.5 131.999 63.5C132.584 63.5 133.169 63.5072 133.754 63.5215L134.268 42.5278C133.513 42.5093 132.756 42.5 131.999 42.5C131.241 42.5 130.484 42.5093 129.729 42.5278L130.244 63.5215ZM123.246 64.0374C124.405 63.8945 125.569 63.7798 126.738 63.6936L125.194 42.7504C123.682 42.8619 122.175 43.0104 120.676 43.1953L123.246 64.0374ZM137.259 63.6936C138.428 63.7798 139.592 63.8945 140.751 64.0374L143.322 43.1953C141.822 43.0104 140.315 42.8619 138.803 42.7504L137.259 63.6936ZM144.222 64.5523C145.377 64.7526 146.524 64.9809 147.664 65.237L152.266 44.7473C150.791 44.416 149.306 44.1206 147.813 43.8615L144.222 64.5523Z" fill="#8780BF"/>
<path opacity="0.2" fill-rule="evenodd" clip-rule="evenodd" d="M75.6314 91.0119C76.3499 90.0913 77.0921 89.1868 77.8577 88.2993L61.9569 74.582C60.9664 75.7302 60.006 76.9005 59.0764 78.0917L75.6314 91.0119ZM71.5914 96.7482C72.2166 95.761 72.8666 94.788 73.541 93.8304L56.3717 81.7385C55.4991 82.9775 54.6581 84.2363 53.8493 85.5137L71.5914 96.7482ZM68.1331 102.853C68.6588 101.809 69.2104 100.777 69.7874 99.7583L51.5152 89.408C50.7688 90.7257 50.0553 92.0608 49.3752 93.412L68.1331 102.853ZM65.2896 109.268C65.7107 108.177 66.1585 107.096 66.6326 106.026L47.4341 97.5162C46.8208 98.8998 46.2415 100.298 45.6968 101.711L65.2896 109.268ZM63.0883 115.931C63.4006 114.803 63.7403 113.683 64.1072 112.573L44.1672 105.985C43.6927 107.421 43.2532 108.87 42.8492 110.33L63.0883 115.931ZM61.5509 122.777C61.7511 121.623 61.9795 120.475 62.2356 119.335L41.7459 114.734C41.4146 116.209 41.1192 117.694 40.8601 119.187L61.5509 122.777ZM60.6922 129.741C60.7784 128.572 60.8931 127.407 61.036 126.248L40.1939 123.678C40.009 125.178 39.8605 126.684 39.749 128.196L60.6922 129.741Z" fill="#8780BF"/>
<path d="M95.9143 194.182H95.1756L97.312 200H98.0393L100.176 194.182H99.437L97.7097 199.08H97.6415L95.9143 194.182ZM106.418 197.091C106.418 195.25 105.338 194.102 103.849 194.102C102.361 194.102 101.281 195.25 101.281 197.091C101.281 198.932 102.361 200.08 103.849 200.08C105.338 200.08 106.418 198.932 106.418 197.091ZM105.736 197.091C105.736 198.602 104.906 199.42 103.849 199.42C102.793 199.42 101.963 198.602 101.963 197.091C101.963 195.58 102.793 194.761 103.849 194.761C104.906 194.761 105.736 195.58 105.736 197.091ZM107.742 194.807H109.571V200H110.276V194.807H112.105V194.182H107.742V194.807ZM113.893 200H117.45V199.375H114.597V197.398H117.222V196.773H114.597V194.807H117.404V194.182H113.893V200ZM121.17 200C122.942 200 123.942 198.898 123.942 197.08C123.942 195.273 122.942 194.182 121.249 194.182H119.374V200H121.17ZM120.079 199.375V194.807H121.204C122.567 194.807 123.26 195.67 123.26 197.08C123.26 198.5 122.567 199.375 121.124 199.375H120.079ZM128.774 200H129.479V197.398H132.001V196.773H129.479V194.807H132.263V194.182H128.774V200ZM139.078 197.091C139.078 195.25 137.999 194.102 136.51 194.102C135.022 194.102 133.942 195.25 133.942 197.091C133.942 198.932 135.022 200.08 136.51 200.08C137.999 200.08 139.078 198.932 139.078 197.091ZM138.397 197.091C138.397 198.602 137.567 199.42 136.51 199.42C135.453 199.42 134.624 198.602 134.624 197.091C134.624 195.58 135.453 194.761 136.51 194.761C137.567 194.761 138.397 195.58 138.397 197.091ZM140.963 200H141.668V197.727H142.94C142.992 197.727 143.04 197.727 143.088 197.724L144.315 200H145.134L143.818 197.597C144.56 197.344 144.906 196.739 144.906 195.966C144.906 194.938 144.293 194.182 142.929 194.182H140.963V200ZM141.668 197.091V194.807H142.906C143.849 194.807 144.213 195.267 144.213 195.966C144.213 196.665 143.849 197.091 142.918 197.091H141.668Z" fill="white"/>
<path d="M151.526 200.08C152.81 200.08 153.549 198.991 153.549 197.091C153.549 195.205 152.799 194.102 151.526 194.102C150.253 194.102 149.503 195.205 149.503 197.091C149.503 198.991 150.242 200.08 151.526 200.08ZM151.526 199.455C150.679 199.455 150.185 198.605 150.185 197.091C150.185 195.58 150.685 194.716 151.526 194.716C152.367 194.716 152.867 195.58 152.867 197.091C152.867 198.605 152.372 199.455 151.526 199.455ZM156.136 199.205H155.409L155.375 199.523C155.293 200.293 155.131 201.06 155.057 201.42H155.568C155.704 201.034 155.994 200.159 156.091 199.511L156.136 199.205ZM159.762 200.08C161.046 200.08 161.784 198.991 161.784 197.091C161.784 195.205 161.034 194.102 159.762 194.102C158.489 194.102 157.739 195.205 157.739 197.091C157.739 198.991 158.478 200.08 159.762 200.08ZM159.762 199.455C158.915 199.455 158.421 198.605 158.421 197.091C158.421 195.58 158.921 194.716 159.762 194.716C160.603 194.716 161.103 195.58 161.103 197.091C161.103 198.605 160.608 199.455 159.762 199.455ZM165.382 200.08C166.49 200.08 167.303 199.261 167.303 198.148C167.303 197.02 166.519 196.193 165.45 196.193C165.058 196.193 164.678 196.332 164.439 196.523H164.405L164.609 194.807H167.041V194.182H164.019L163.666 197.045L164.325 197.125C164.567 196.952 164.979 196.827 165.337 196.83C166.078 196.835 166.621 197.398 166.621 198.159C166.621 198.906 166.098 199.455 165.382 199.455C164.786 199.455 164.311 199.071 164.257 198.545H163.575C163.618 199.432 164.382 200.08 165.382 200.08ZM172.097 198.909C172.097 199.545 172.495 200.08 173.233 200.08C173.961 200.08 174.358 199.545 174.358 198.909V198.602C174.358 197.966 173.972 197.432 173.233 197.432C172.506 197.432 172.097 197.966 172.097 198.602V198.909ZM169.199 195.58C169.199 196.216 169.597 196.75 170.336 196.75C171.063 196.75 171.461 196.216 171.461 195.58V195.273C171.461 194.636 171.074 194.102 170.336 194.102C169.608 194.102 169.199 194.636 169.199 195.273V195.58ZM169.415 200H170.063L174.063 194.182H173.415L169.415 200ZM172.677 198.602C172.677 198.25 172.836 197.92 173.233 197.92C173.643 197.92 173.779 198.25 173.779 198.602V198.909C173.779 199.261 173.631 199.591 173.233 199.591C172.824 199.591 172.677 199.261 172.677 198.909V198.602ZM169.779 195.273C169.779 194.92 169.938 194.591 170.336 194.591C170.745 194.591 170.881 194.92 170.881 195.273V195.58C170.881 195.932 170.733 196.261 170.336 196.261C169.927 196.261 169.779 195.932 169.779 195.58V195.273Z" fill="#8780BF"/>
<g style="mix-blend-mode:screen" filter="url(#filter1_f_1406_1969)">
<rect x="40" y="170" width="65" height="6" fill="#6319FF"/>
</g>
<g filter="url(#filter2_b_1406_1969)">
<rect x="98" y="171" width="122" height="5" rx="2.5" fill="#494A5E"/>
</g>
<g style="mix-blend-mode:screen" filter="url(#filter3_f_1406_1969)">
<circle cx="104.061" cy="173.061" r="6.06145" fill="#6319FF"/>
</g>
<rect x="40" y="170" width="65" height="6" fill="#6319FF"/>
<circle cx="104.061" cy="173.061" r="6.06145" fill="#6319FF"/>
<path d="M196 157H64" stroke="url(#paint4_linear_1406_1969)"/>
<defs>
<filter id="filter0_b_1406_1969" x="-13.4201" y="-13.4201" width="286.84" height="256.84" filterUnits="userSpaceOnUse" color-interpolation-filters="sRGB">
<feFlood flood-opacity="0" result="BackgroundImageFix"/>
<feGaussianBlur in="BackgroundImage" stdDeviation="6.71004"/>
<feComposite in2="SourceAlpha" operator="in" result="effect1_backgroundBlur_1406_1969"/>
<feBlend mode="normal" in="SourceGraphic" in2="effect1_backgroundBlur_1406_1969" result="shape"/>
</filter>
<filter id="filter1_f_1406_1969" x="33.9386" y="163.939" width="77.1229" height="18.1229" filterUnits="userSpaceOnUse" color-interpolation-filters="sRGB">
<feFlood flood-opacity="0" result="BackgroundImageFix"/>
<feBlend mode="normal" in="SourceGraphic" in2="BackgroundImageFix" result="shape"/>
<feGaussianBlur stdDeviation="3.03072" result="effect1_foregroundBlur_1406_1969"/>
</filter>
<filter id="filter2_b_1406_1969" x="80.529" y="153.529" width="156.942" height="39.9421" filterUnits="userSpaceOnUse" color-interpolation-filters="sRGB">
<feFlood flood-opacity="0" result="BackgroundImageFix"/>
<feGaussianBlur in="BackgroundImage" stdDeviation="8.73552"/>
<feComposite in2="SourceAlpha" operator="in" result="effect1_backgroundBlur_1406_1969"/>
<feBlend mode="normal" in="SourceGraphic" in2="effect1_backgroundBlur_1406_1969" result="shape"/>
</filter>
<filter id="filter3_f_1406_1969" x="91.9386" y="160.939" width="24.2459" height="24.2459" filterUnits="userSpaceOnUse" color-interpolation-filters="sRGB">
<feFlood flood-opacity="0" result="BackgroundImageFix"/>
<feBlend mode="normal" in="SourceGraphic" in2="BackgroundImageFix" result="shape"/>
<feGaussianBlur stdDeviation="3.03072" result="effect1_foregroundBlur_1406_1969"/>
</filter>
<linearGradient id="paint0_linear_1406_1969" x1="273.052" y1="-86.8367" x2="-18.7966" y2="-69.3335" gradientUnits="userSpaceOnUse">
<stop stop-color="#2A2F4E"/>
<stop offset="1" stop-color="#2A2F4E" stop-opacity="0.31"/>
</linearGradient>
<linearGradient id="paint1_linear_1406_1969" x1="-80.5387" y1="-74.7498" x2="304.237" y2="-54.4879" gradientUnits="userSpaceOnUse">
<stop offset="0.316892" stop-color="#C8C2FF"/>
<stop offset="1" stop-color="#2E17F2"/>
</linearGradient>
<linearGradient id="paint2_linear_1406_1969" x1="173.052" y1="155" x2="81.1937" y2="155" gradientUnits="userSpaceOnUse">
<stop stop-color="white"/>
<stop offset="0.916667" stop-color="#DCD8FE"/>
</linearGradient>
<linearGradient id="paint3_linear_1406_1969" x1="173.052" y1="130" x2="81.1937" y2="130" gradientUnits="userSpaceOnUse">
<stop stop-color="white"/>
<stop offset="0.916667" stop-color="#DCD8FE"/>
</linearGradient>
<linearGradient id="paint4_linear_1406_1969" x1="196" y1="157.5" x2="64" y2="157.5" gradientUnits="userSpaceOnUse">
<stop stop-color="#8780BF" stop-opacity="0"/>
<stop offset="0.510417" stop-color="#8780BF"/>
<stop offset="1" stop-color="#8780BF" stop-opacity="0"/>
</linearGradient>
</defs>
</svg>
