<svg width="129" height="26" viewBox="0 0 129 26" fill="none" xmlns="http://www.w3.org/2000/svg">
<path d="M11.1063 16.6414L14.516 21.9927L17.6656 20.1674L13.1878 13.1094L11.1063 16.6414Z" fill="white" fill-opacity="0.5"/>
<path d="M20.5317 18.0208L20.5294 16.5583L15.6364 8.9375L13.8212 12.0178L18.5447 19.6569L20.2526 18.6673C20.42 18.5313 20.5215 18.3316 20.5321 18.1162L20.5317 18.0208Z" fill="white" fill-opacity="0.5"/>
<path d="M0.0281982 19.4L2.43999 20.7897L10.4657 7.91885L9.10363 7.88295C7.94313 7.86653 6.6929 8.16829 6.11904 9.1049L1.56148 16.1687L0.0281982 18.5245V19.4Z" fill="white"/>
<path d="M15.0987 7.91846L11.5088 7.93154L3.38699 21.334L6.22587 22.9684L6.99776 21.6591L15.0987 7.91846Z" fill="white"/>
<path d="M22.0447 7.89986C22.0148 7.14911 21.6082 6.46194 20.9715 6.06177L12.047 0.929437C11.4172 0.612316 10.6304 0.61186 9.99932 0.929285C9.9248 0.966853 1.32041 5.95713 1.32041 5.95713C1.20132 6.01417 1.08664 6.08216 0.9788 6.15942C0.410416 6.56689 0.0639409 7.19991 0.0281982 7.8953V18.5242L1.56148 16.1684L1.5481 7.96709C1.54992 7.93712 1.55372 7.90746 1.55889 7.87841C1.59357 7.6854 1.70141 7.51338 1.86354 7.39703C1.90415 7.36813 10.6553 2.30241 10.6831 2.28842C10.8889 2.18514 11.1502 2.18393 11.3562 2.28522L20.1653 7.35216C20.3737 7.48494 20.5043 7.71004 20.5159 7.95613V18.1154C20.5052 18.3308 20.42 18.5305 20.2526 18.6665L18.5447 19.6561L17.6635 20.1669L14.5138 21.9922L11.3197 23.8432C11.1477 23.9054 10.9464 23.9019 10.7759 23.8326L6.99679 21.6589L6.22475 22.9682L9.62106 24.9235C9.73331 24.9874 9.83339 25.044 9.91552 25.0902C10.0427 25.1616 10.1294 25.2092 10.1599 25.2241C10.4013 25.3413 10.7486 25.4095 11.0616 25.4095C11.3484 25.4095 11.6283 25.3569 11.8931 25.2531L21.1708 19.8803C21.7033 19.4677 22.0166 18.8455 22.0447 18.1715V7.89986Z" fill="white" fill-opacity="0.8"/>
<path d="M31.6338 9.27881C31.9012 9.27881 32.1263 9.33341 32.3093 9.44246C32.4923 9.55167 32.6717 9.76445 32.8479 10.0813L36.3426 16.4266C36.3776 16.497 36.3865 16.5551 36.3691 16.6009C36.3516 16.6468 36.3005 16.6695 36.216 16.6695H34.8752C34.7555 16.6695 34.6747 16.6237 34.6321 16.5323L33.8826 15.1703H28.9204L28.1918 16.5323C28.1425 16.6238 28.0617 16.6695 27.949 16.6695H26.5766C26.4848 16.6695 26.4305 16.6468 26.413 16.6009C26.3952 16.5551 26.404 16.497 26.4391 16.4266L29.9024 10.0813C30.0782 9.76445 30.2508 9.55167 30.4198 9.44246C30.5885 9.33341 30.7854 9.27881 31.011 9.27881H31.6338ZM29.5856 13.9454H33.2175L31.5388 10.8519C31.5105 10.8028 31.4717 10.778 31.4226 10.778H31.3593C31.31 10.778 31.2711 10.8028 31.2431 10.8519L29.5856 13.9454Z" fill="white"/>
<path d="M47.4257 9.27847C48.2351 9.27847 48.816 9.4616 49.1679 9.82754C49.5197 10.1935 49.6959 10.7356 49.6959 11.4533V12.0551C49.6959 12.6605 49.5725 13.1391 49.3263 13.4909C49.0797 13.8429 48.6783 14.0681 48.1226 14.1665L49.9281 16.4049C49.9631 16.4402 49.9736 16.493 49.9596 16.5633C49.9453 16.6337 49.8892 16.6688 49.7909 16.6688H48.4289C48.3373 16.6688 48.2737 16.6583 48.2388 16.6372C48.2035 16.6161 48.1683 16.5809 48.1334 16.5316L46.465 14.3357H43.0547V16.4366C43.0547 16.5916 42.9771 16.6688 42.8225 16.6688H41.6823C41.5205 16.6688 41.4393 16.5914 41.4393 16.4366V9.59514C41.4393 9.38388 41.545 9.27832 41.7563 9.27832H47.4257V9.27847ZM43.0547 13.0477H47.0987C47.4574 13.0477 47.7108 12.9703 47.8585 12.8155C48.0065 12.6606 48.0804 12.4249 48.0804 12.1081V11.6647C48.0804 11.348 48.0065 11.1121 47.8585 10.9573C47.7108 10.8026 47.4574 10.7252 47.0987 10.7252H43.1919C43.1003 10.7252 43.0547 10.7673 43.0547 10.8519V13.0477Z" fill="white"/>
<path d="M61.5043 9.27847C62.2295 9.27847 62.7448 9.42281 63.0511 9.71149C63.3574 10.0002 63.5104 10.4365 63.5104 11.0206V11.5274C63.5104 12.1187 63.2853 12.5656 62.835 12.8681C63.3203 13.1498 63.5634 13.6038 63.5634 14.2301V14.8425C63.5634 15.1241 63.5316 15.3775 63.4683 15.6026C63.405 15.8279 63.301 16.0195 63.157 16.178C63.0126 16.3363 62.8207 16.4577 62.5816 16.5423C62.3422 16.6269 62.0465 16.669 61.6945 16.669H55.4233C55.212 16.669 55.1063 16.5634 55.1063 16.3523V9.59514C55.1063 9.38388 55.212 9.27832 55.4233 9.27832H61.5043V9.27847ZM56.7216 12.3508H61.0504C61.4024 12.3508 61.6416 12.298 61.7685 12.1925C61.895 12.0869 61.9586 11.9321 61.9586 11.7278V11.369C61.9586 11.1508 61.8968 10.9908 61.7738 10.8886C61.6504 10.7867 61.4518 10.7356 61.1773 10.7356H56.8588C56.7672 10.7356 56.7216 10.7815 56.7216 10.8727V12.3508ZM56.7216 13.5016V15.0749C56.7216 15.1664 56.7674 15.2121 56.8588 15.2121H61.1876C61.4693 15.2121 61.6698 15.1609 61.7895 15.0589C61.9092 14.957 61.9689 14.7933 61.9689 14.5679V14.1665C61.9689 13.9484 61.9038 13.7831 61.7738 13.6704C61.6434 13.5579 61.4025 13.5014 61.0504 13.5014H56.7216V13.5016Z" fill="white"/>
<path d="M70.2666 9.27832C70.4214 9.27832 70.4989 9.35589 70.4989 9.51057V16.4366C70.4989 16.5916 70.4213 16.6688 70.2666 16.6688H69.1262C68.9644 16.6688 68.8835 16.5914 68.8835 16.4366V9.51057C68.8835 9.35574 68.9642 9.27832 69.1262 9.27832H70.2666Z" fill="white"/>
<path d="M84.0942 9.27832C84.256 9.27832 84.3372 9.35589 84.3372 9.51057V10.5453C84.3372 10.7073 84.2562 10.7882 84.0942 10.7882H80.7789V16.4367C80.7789 16.5917 80.7014 16.669 80.5467 16.669H79.3959C79.2411 16.669 79.164 16.5916 79.164 16.4367V10.7882H75.8488C75.6866 10.7882 75.6057 10.7074 75.6057 10.5453V9.51057C75.6057 9.35574 75.6865 9.27832 75.8488 9.27832H84.0942Z" fill="white"/>
<path d="M95.4208 9.27847C96.2303 9.27847 96.8111 9.4616 97.1631 9.82754C97.5149 10.1935 97.691 10.7356 97.691 11.4533V12.0551C97.691 12.6605 97.5677 13.1391 97.3214 13.4909C97.0749 13.8429 96.6735 14.0681 96.1177 14.1665L97.9233 16.4049C97.9582 16.4402 97.9687 16.493 97.9548 16.5633C97.9405 16.6337 97.8843 16.6688 97.7861 16.6688H96.424C96.3325 16.6688 96.2689 16.6583 96.2339 16.6372C96.1986 16.6161 96.1635 16.5809 96.1285 16.5316L94.4602 14.3357H91.0499V16.4366C91.0499 16.5916 90.9723 16.6688 90.8176 16.6688H89.6775C89.5157 16.6688 89.4344 16.5914 89.4344 16.4366V9.59514C89.4344 9.38388 89.5402 9.27832 89.7514 9.27832H95.4208V9.27847ZM91.0499 13.0477H95.0938C95.4526 13.0477 95.706 12.9703 95.8537 12.8155C96.0017 12.6606 96.0756 12.4249 96.0756 12.1081V11.6647C96.0756 11.348 96.0017 11.1121 95.8537 10.9573C95.706 10.8026 95.4526 10.7252 95.0938 10.7252H91.1871C91.0955 10.7252 91.0499 10.7673 91.0499 10.8519V13.0477Z" fill="white"/>
<path d="M104.325 9.27832C104.48 9.27832 104.558 9.35589 104.558 9.51057V13.7232C104.558 14.0049 104.58 14.2389 104.626 14.4253C104.672 14.6119 104.748 14.7596 104.853 14.8686C104.959 14.978 105.102 15.0554 105.281 15.1009C105.461 15.1468 105.687 15.1695 105.962 15.1695H108.887C109.161 15.1695 109.388 15.1468 109.568 15.1009C109.747 15.0552 109.89 14.9778 109.995 14.8686C110.101 14.7596 110.175 14.6119 110.217 14.4253C110.259 14.2388 110.28 14.0047 110.28 13.7232V9.51057C110.28 9.35574 110.358 9.27832 110.513 9.27832H111.663C111.818 9.27832 111.896 9.35589 111.896 9.51057V13.8815C111.896 14.3883 111.843 14.8195 111.737 15.1749C111.632 15.5304 111.461 15.8189 111.225 16.0407C110.989 16.2623 110.683 16.4226 110.307 16.521C109.93 16.6196 109.474 16.6688 108.94 16.6688H105.899C105.364 16.6688 104.91 16.6197 104.537 16.521C104.164 16.4226 103.859 16.2623 103.624 16.0407C103.388 15.8189 103.215 15.5304 103.106 15.1749C102.997 14.8195 102.943 14.3883 102.943 13.8815V9.51057C102.943 9.35574 103.023 9.27832 103.186 9.27832H104.325Z" fill="white"/>
<path d="M119.415 9.27832C119.57 9.27832 119.703 9.28881 119.816 9.31011C119.929 9.33125 120.027 9.37171 120.112 9.43148C120.196 9.49141 120.272 9.57248 120.339 9.67438C120.405 9.77644 120.474 9.91195 120.545 10.0809L122.741 15.1486C122.769 15.2121 122.818 15.2437 122.889 15.2437H123.015C123.086 15.2437 123.135 15.2121 123.163 15.1486L125.359 10.0809C125.43 9.91195 125.498 9.77644 125.565 9.67438C125.632 9.57248 125.708 9.49141 125.792 9.43148C125.877 9.37171 125.973 9.33125 126.083 9.31011C126.192 9.28881 126.323 9.27832 126.479 9.27832H127.608C127.974 9.27832 128.221 9.36121 128.347 9.52654C128.474 9.69202 128.537 9.97523 128.537 10.3765V16.4367C128.537 16.5917 128.456 16.669 128.294 16.669H127.218C127.062 16.669 126.985 16.5916 126.985 16.4367V10.9255C126.985 10.8553 126.957 10.82 126.901 10.82H126.806C126.735 10.82 126.689 10.8483 126.668 10.9045L124.536 15.6346C124.451 15.8245 124.365 15.9849 124.277 16.1149C124.189 16.2452 124.094 16.3526 123.992 16.4369C123.89 16.5214 123.774 16.5812 123.644 16.6165C123.513 16.6516 123.36 16.6693 123.184 16.6693H122.678C122.502 16.6693 122.349 16.6518 122.218 16.6165C122.088 16.5814 121.972 16.5214 121.87 16.4369C121.768 16.3525 121.673 16.2452 121.585 16.1149C121.497 15.9849 121.411 15.8245 121.326 15.6346L119.193 10.9045C119.172 10.8483 119.127 10.82 119.056 10.82H118.961C118.905 10.82 118.877 10.8553 118.877 10.9255V16.4367C118.877 16.5917 118.799 16.669 118.645 16.669H117.568C117.406 16.669 117.325 16.5916 117.325 16.4367V10.3765C117.325 9.97523 117.388 9.69202 117.515 9.52654C117.642 9.36121 117.891 9.27832 118.265 9.27832H119.415Z" fill="white"/>
</svg>
