<svg width="117" height="37" viewBox="0 0 117 37" fill="none" xmlns="http://www.w3.org/2000/svg">
<path d="M38.933 19.0327C38.933 19.2201 38.7766 19.3725 38.5897 19.3725H31.9753C32.1404 21.0105 33.3703 22.5047 35.1 22.5047C36.282 22.5047 37.1599 22.0517 37.8205 21.1063C37.9161 20.9756 38.0595 20.8929 38.242 20.9713C38.342 21.0149 38.4115 21.1063 38.4289 21.2109C38.4463 21.3198 38.4159 21.3808 38.3855 21.4418C37.7205 22.6049 36.395 23.1756 35.0956 23.1756C32.8705 23.1756 31.2843 21.1804 31.2843 19.0458C31.2843 16.9112 32.8705 14.916 35.0956 14.916C37.3207 14.9117 38.9287 16.9025 38.933 19.0327ZM38.2247 18.7104C38.0812 17.0724 36.8296 15.5782 35.1 15.5782C33.3703 15.5782 32.1404 17.0724 31.9753 18.7104H38.2247ZM46.9599 15.0772C47.1511 15.0772 47.2902 15.2427 47.2902 15.4083C47.2902 15.6 47.1468 15.7394 46.9599 15.7394H45.1868V22.7138C45.1868 22.8794 45.0434 23.0449 44.8565 23.0449C44.6653 23.0449 44.5262 22.8794 44.5262 22.7138V15.7394H42.8226C42.6314 15.7394 42.4923 15.5956 42.4923 15.4083C42.4923 15.2427 42.6357 15.0772 42.8226 15.0772H44.5262V12.5244C44.5262 12.3632 44.6349 12.2151 44.7913 12.189C45.0129 12.1541 45.1868 12.3066 45.1868 12.5157V15.0772H46.9599ZM57.7768 18.449V22.6746C57.7768 22.8663 57.6117 23.0057 57.4465 23.0057C57.2553 23.0057 57.1163 22.8619 57.1163 22.6746V18.449C57.1163 17.0245 56.3123 15.6 54.726 15.6C52.6921 15.6 51.8143 17.3817 51.9316 19.207C51.9316 19.2549 51.9533 19.4684 51.9533 19.4901V22.6615C51.9533 22.8227 51.8447 22.9708 51.6882 22.997C51.4666 23.0318 51.2928 22.8794 51.2928 22.6703V8.79104C51.2928 8.6255 51.4362 8.45996 51.6231 8.45996C51.8143 8.45996 51.9533 8.6255 51.9533 8.79104V16.6455C52.5227 15.6261 53.5396 14.9378 54.7217 14.9378C56.6643 14.9378 57.7768 16.6455 57.7768 18.449ZM69.6368 19.0327C69.6368 19.2201 69.4803 19.3725 69.2935 19.3725H62.6747C62.8398 21.0105 64.0697 22.5047 65.7994 22.5047C66.9814 22.5047 67.8593 22.0517 68.5199 21.1063C68.6155 20.9756 68.7589 20.8929 68.9414 20.9713C69.0414 21.0149 69.1109 21.1063 69.1283 21.2109C69.1457 21.3198 69.1153 21.3808 69.0849 21.4418C68.4199 22.6049 67.0944 23.1756 65.795 23.1756C63.5699 23.1756 61.9837 21.1804 61.9837 19.0458C61.9837 16.9112 63.5699 14.916 65.795 14.916C68.0245 14.9117 69.6324 16.9025 69.6368 19.0327ZM68.924 18.7104C68.7806 17.0724 67.529 15.5782 65.7994 15.5782C64.0697 15.5782 62.8398 17.0724 62.6747 18.7104H68.924ZM77.7549 15.3865C77.7549 15.6 77.6376 15.7176 77.4463 15.7437C75.5037 16.0269 74.6302 17.6169 74.6302 19.4684V22.6398C74.6302 22.8009 74.5216 22.9491 74.3651 22.9752C74.1435 23.01 73.9696 22.8576 73.9696 22.6485V15.4213C73.9696 15.2602 74.0783 15.1121 74.2347 15.0859C74.4564 15.0511 74.6302 15.2035 74.6302 15.4126V16.8851C75.1734 15.9615 76.2643 15.0816 77.3985 15.0816C77.5637 15.0772 77.7549 15.1992 77.7549 15.3865ZM88.6196 19.0327C88.6196 19.2201 88.4632 19.3725 88.2763 19.3725H81.6619C81.827 21.0105 83.0569 22.5047 84.7866 22.5047C85.9686 22.5047 86.8465 22.0517 87.5071 21.1063C87.6027 20.9756 87.7461 20.8929 87.9286 20.9713C88.0286 21.0149 88.0981 21.1063 88.1155 21.2109C88.1329 21.3198 88.1025 21.3808 88.0721 21.4418C87.4071 22.6049 86.0816 23.1756 84.7822 23.1756C82.5571 23.1756 80.9709 21.1804 80.9709 19.0458C80.9709 16.9112 82.5571 14.916 84.7822 14.916C87.0073 14.9117 88.6153 16.9025 88.6196 19.0327ZM87.9113 18.7104C87.7678 17.0724 86.5162 15.5782 84.7866 15.5782C83.0569 15.5782 81.827 17.0724 81.6619 18.7104H87.9113ZM99.2975 15.4693V22.7138C99.2975 22.9055 99.1324 23.0449 98.9672 23.0449C98.776 23.0449 98.6369 22.9011 98.6369 22.7138V21.3372C98.0937 22.4307 97.1202 23.2104 95.8903 23.2104C93.926 23.2104 92.8352 21.5028 92.8352 19.6992V15.4518C92.8352 15.2863 92.9786 15.1208 93.1654 15.1208C93.3567 15.1208 93.4957 15.2863 93.4957 15.4518V19.6992C93.4957 21.1238 94.2997 22.5483 95.886 22.5483C98.1111 22.5483 98.6326 20.4616 98.6326 18.1571V15.4518C98.6326 15.2602 98.8238 15.0641 99.0585 15.1338C99.2019 15.1818 99.2975 15.3212 99.2975 15.4693ZM116.029 18.4228V22.6703C116.029 22.8619 115.864 23.0013 115.699 23.0013C115.508 23.0013 115.369 22.8576 115.369 22.6703V18.4228C115.369 16.9983 114.565 15.6 112.978 15.6C110.988 15.6 110.232 17.7346 110.232 19.3943V22.6703C110.232 22.8619 110.067 23.0013 109.901 23.0013C109.71 23.0013 109.571 22.8576 109.571 22.6703V18.4228C109.571 16.9983 108.767 15.6 107.181 15.6C105.169 15.6 104.339 17.19 104.413 19.3028C104.413 19.3507 104.434 19.4466 104.413 19.4684V22.6615C104.413 22.8227 104.304 22.9708 104.143 22.997C103.922 23.0318 103.748 22.8794 103.748 22.6703V15.4213C103.748 15.2602 103.856 15.1121 104.013 15.0859C104.234 15.0511 104.408 15.2035 104.408 15.4126V16.6237C104.978 15.6043 105.995 14.9378 107.177 14.9378C108.524 14.9378 109.567 15.7916 109.993 17.0506C110.536 15.8178 111.601 14.9378 112.974 14.9378C114.917 14.9378 116.029 16.6193 116.029 18.4228Z" fill="white"/>
<path d="M0.40094 18.3885L11.4569 24.936V0.000488281L0.40094 18.3885Z" fill="white" fill-opacity="0.5"/>
<path d="M11.4601 0V24.9355L22.5117 18.388L11.4601 0Z" fill="white" fill-opacity="0.8"/>
<path d="M0.400482 20.4878L11.4564 36.1008V27.0353L0.400482 20.4878Z" fill="white" fill-opacity="0.6"/>
<path d="M11.4601 27.0353V36.1008L22.5203 20.4878L11.4601 27.0353Z" fill="white" fill-opacity="0.9"/>
<path d="M11.4564 13.3477L0.400482 18.3879L11.4564 24.9354L22.508 18.3879L11.4564 13.3477Z" fill="white"/>
<path d="M11.4601 13.353V24.9408L22.5117 18.3933L11.4601 13.353Z" fill="white"/>
</svg>
