<svg width="104" height="24" viewBox="0 0 104 24" fill="none" xmlns="http://www.w3.org/2000/svg">
<path d="M20.1284 7.63344C19.6402 7.34558 19.0059 7.34558 18.4688 7.63344L14.6613 9.84212L12.0742 11.2822L8.2667 13.4909C7.77852 13.7787 7.14418 13.7787 6.60704 13.4909L3.58077 11.7622C3.09259 11.4743 2.75057 10.9461 2.75057 10.3696V6.96127C2.75057 6.3848 3.04362 5.8573 3.58077 5.56869L6.55807 3.88826C7.04625 3.6004 7.68133 3.6004 8.21773 3.88826L11.1958 5.56869C11.684 5.8573 12.0252 6.3848 12.0252 6.96127V9.16995L14.613 7.68167V5.47299C14.613 4.89652 14.32 4.36902 13.7828 4.08041L8.2667 0.911698C7.77852 0.623835 7.14418 0.623835 6.60704 0.911698L0.993715 4.08041C0.456569 4.36902 0.163513 4.89652 0.163513 5.47299V11.8579C0.163513 12.4344 0.456569 12.9626 0.993715 13.2505L6.60704 16.4192C7.09522 16.7071 7.72956 16.7071 8.2667 16.4192L12.0742 14.2587L14.6613 12.7705L18.4688 10.61C18.9569 10.3221 19.592 10.3221 20.1284 10.61L23.1065 12.2904C23.5947 12.5783 23.9359 13.1065 23.9359 13.6823V17.0914C23.9359 17.6671 23.6436 18.1953 23.1065 18.4832L20.1284 20.2119C19.6402 20.4997 19.0059 20.4997 18.4688 20.2119L15.4915 18.5314C15.0033 18.2436 14.6613 17.7153 14.6613 17.1389V14.9309L12.0742 16.4192V18.6271C12.0742 19.2036 12.3673 19.7318 12.9044 20.0197L18.5177 23.1884C19.0059 23.4763 19.6402 23.4763 20.1774 23.1884L25.7915 20.0197C26.2796 19.7318 26.6209 19.2036 26.6209 18.6271V12.2422C26.6209 11.6665 26.3279 11.1382 25.7915 10.8496L20.1284 7.63344Z" fill="white"/>
<path d="M102.72 8.06243C103.306 8.54245 103.55 9.16714 103.599 9.93502V16.5121H100.719V10.9915C100.67 10.1272 100.231 9.69538 99.4011 9.69538C98.7667 9.69538 98.2296 9.98325 97.8386 10.6072C97.4483 11.2311 97.2532 11.9998 97.2532 12.9116V16.5121H94.4213V7.77457H97.0084L97.2042 9.16714C97.5455 8.59067 97.9847 8.15888 98.5709 7.82279C99.157 7.4867 99.8403 7.34277 100.622 7.34277C101.451 7.34277 102.183 7.58241 102.72 8.06243Z" fill="white"/>
<path d="M40.6238 7.92108C41.2589 8.30465 41.7961 8.83289 42.1373 9.55329C42.5283 10.2737 42.7235 11.1373 42.7235 12.0973C42.7235 13.0581 42.5283 13.8742 42.0891 14.5939C41.6981 15.3143 41.112 15.8425 40.3805 16.1786C39.6482 16.5629 38.7691 16.7543 37.8417 16.7543C37.3045 16.7543 36.8171 16.6586 36.3289 16.4664C35.8407 16.3225 35.4008 16.0347 35.0595 15.6986V20.6917H32.2283V7.53677H34.6692L34.9133 8.59325C35.9869 7.72892 37.1584 7.29639 38.3788 7.29639C39.209 7.29639 39.9895 7.48854 40.6238 7.92108ZM39.0621 13.8742C39.5503 13.4417 39.7944 12.8659 39.7944 12.1455C39.7944 11.4259 39.5503 10.8494 39.1111 10.3694C38.6719 9.88938 38.0858 9.69722 37.4514 9.69722C36.9143 9.69722 36.4261 9.79293 36.0358 10.0333C35.6449 10.2255 35.3525 10.5616 35.1084 10.9933V13.1538C35.2546 13.5863 35.5477 13.9217 35.8889 14.1621C36.2799 14.4024 36.7191 14.5464 37.2563 14.5464C37.9886 14.5464 38.5739 14.306 39.0621 13.8742Z" fill="white"/>
<path d="M44.3859 9.60089C44.8251 8.92871 45.4112 8.35299 46.1917 7.96868C46.973 7.58436 47.8514 7.34473 48.8278 7.34473C49.8041 7.34473 50.6833 7.53688 51.4638 7.96868C52.1961 8.35299 52.7822 8.92871 53.2214 9.64911C53.6606 10.3688 53.8557 11.1374 53.8557 12.0492C53.8557 12.9618 53.6606 13.7296 53.2214 14.45C52.7822 15.1697 52.245 15.7462 51.4638 16.1305C50.7315 16.514 49.8041 16.7544 48.8278 16.7544C47.8514 16.7544 46.973 16.5623 46.1917 16.178C45.4112 15.7944 44.8251 15.2661 44.3859 14.5457C43.9949 13.8261 43.7516 13.01 43.7516 12.0492C43.7516 11.1374 43.9949 10.3213 44.3859 9.60089ZM47.266 13.7779C47.6563 14.2579 48.1934 14.45 48.8278 14.45C49.4628 14.45 49.9992 14.2097 50.3902 13.7779C50.7805 13.3453 50.9756 12.7214 50.9756 12.0492C50.9756 11.3295 50.7805 10.7531 50.3902 10.3213C49.9503 9.84127 49.4628 9.60089 48.7788 9.60089C48.1445 9.60089 47.6563 9.84127 47.2171 10.2731C46.8268 10.7531 46.6317 11.3295 46.6317 12.0492C46.6317 12.7214 46.8268 13.2978 47.266 13.7779Z" fill="white"/>
<path d="M58.45 0.720703V16.5161H55.6188V0.720703H58.45Z" fill="white"/>
<path d="M70.0659 7.7793L64.3056 20.7413H61.5724L63.7203 16.085L59.6197 7.7793H62.8418L65.1848 12.9638L67.5278 7.7793H70.0659Z" fill="white"/>
<path d="M80.9041 7.77457V16.5121C80.9041 17.3282 80.66 18.0968 80.1719 18.769C79.6837 19.4412 79.0493 19.9694 78.2191 20.353C77.3897 20.7373 76.5105 20.9295 75.5341 20.9295C74.8019 20.9295 74.1675 20.833 73.6304 20.6891C73.094 20.4969 72.654 20.3055 72.3128 20.1133C71.9225 19.873 71.5315 19.5851 71.0923 19.2008L72.752 17.2807C73.1422 17.6643 73.5822 17.9529 73.9724 18.145C74.3627 18.3365 74.8998 18.4811 75.4859 18.4811C76.2182 18.4811 76.8036 18.289 77.2917 17.9529C77.7799 17.6168 78.024 17.0886 78.024 16.4646V15.216C77.731 15.6485 77.3407 16.0321 76.7553 16.3207C76.1692 16.6085 75.4859 16.7525 74.7047 16.7525C73.9235 16.7525 73.1422 16.5603 72.4589 16.1285C71.7756 15.7442 71.2385 15.1677 70.7993 14.4481C70.409 13.7277 70.1649 12.9598 70.1649 12.0955C70.1649 11.2311 70.36 10.415 70.7993 9.69538C71.2385 8.97498 71.7756 8.39852 72.5079 7.96672C73.1912 7.53493 73.9235 7.34277 74.7047 7.34277C75.437 7.34277 76.0713 7.43848 76.6574 7.63064C77.2428 7.82279 77.682 8.11065 77.975 8.44674L78.2681 7.77457H80.9041ZM78.024 13.152V10.9915C77.8289 10.559 77.5358 10.2229 77.0966 9.98325C76.6574 9.74287 76.1692 9.59893 75.5839 9.59893C74.8998 9.59893 74.3137 9.83932 73.8263 10.2711C73.3381 10.7029 73.094 11.2794 73.094 11.9998C73.094 12.6719 73.3381 13.2959 73.8263 13.7759C74.3137 14.2559 74.8998 14.4963 75.5839 14.4963C76.7056 14.4481 77.5358 14.0156 78.024 13.152Z" fill="white"/>
<path d="M83.2464 9.60152C83.6864 8.88112 84.2717 8.35287 85.053 7.92108C85.8335 7.53677 86.7126 7.29639 87.6882 7.29639C88.6646 7.29639 89.5438 7.48854 90.3243 7.92108C91.0565 8.30465 91.6427 8.88112 92.0819 9.60152C92.4729 10.3212 92.7162 11.0898 92.7162 12.0016C92.7162 12.9142 92.5211 13.682 92.0819 14.4024C91.6916 15.1221 91.1055 15.6986 90.3243 16.0821C89.5927 16.4665 88.6646 16.7068 87.6882 16.7068C86.7126 16.7068 85.8335 16.5147 85.053 16.1304C84.2717 15.7468 83.6864 15.2186 83.2464 14.4982C82.8072 13.7778 82.6121 12.9616 82.6121 11.9534C82.6121 11.1373 82.8072 10.3212 83.2464 9.60152ZM86.0775 13.7778C86.4678 14.2578 87.0049 14.4499 87.64 14.4499C88.2744 14.4499 88.8115 14.2103 89.2018 13.7778C89.5927 13.346 89.7879 12.722 89.7879 12.0498C89.7879 11.3294 89.5927 10.7537 89.2018 10.3212C88.8115 9.88938 88.2744 9.649 87.64 9.649C87.0049 9.649 86.5168 9.88938 86.0775 10.3212C85.6383 10.7537 85.4432 11.3777 85.4432 12.0498C85.4922 12.722 85.6873 13.2977 86.0775 13.7778Z" fill="white"/>
</svg>
