<svg width="82" height="26" viewBox="0 0 82 26" fill="none" xmlns="http://www.w3.org/2000/svg">
<g clip-path="url(#clip0_1656_68489)">
<path d="M34.4137 9.27801H36.8154L39.3509 13.1527L41.9175 9.27801L44.1747 9.32941L40.4538 14.643L44.3396 20.2854H41.9689L39.2272 16.1537L36.568 20.2854H34.2179L38.1037 14.643L34.4137 9.27801ZM53.1358 18.5382C53.8298 18.5382 54.4002 18.4663 54.8468 18.3223C55.6439 18.0551 56.2966 17.5413 56.8051 16.7806C57.2106 16.171 57.5026 15.3898 57.6813 14.4374C57.7844 13.8687 57.8358 13.3411 57.8358 12.8546C57.8358 10.9841 57.4614 9.53153 56.7124 8.49692C55.9703 7.46229 54.7712 6.94499 53.1151 6.94499H49.4768V18.5382H53.1358ZM47.4154 5.1875H53.548C55.6302 5.1875 57.2449 5.92407 58.3924 7.3972C59.4164 8.72645 59.9283 10.4291 59.9283 12.5052C59.9283 14.1085 59.6259 15.5576 59.0212 16.8527C57.9562 19.1412 56.125 20.2854 53.5275 20.2854H47.4154V5.1875ZM64.8077 17.3563C64.8077 17.8907 65.0036 18.3121 65.3953 18.6204C65.787 18.9288 66.2508 19.0828 66.7867 19.0828C67.4395 19.0828 68.0716 18.9321 68.6832 18.6307C69.714 18.1305 70.2293 17.3117 70.2293 16.1743V14.6841C70.0025 14.8279 69.7105 14.9478 69.3532 15.0438C68.9958 15.1397 68.6455 15.2083 68.3019 15.2494L67.1784 15.3932C66.505 15.4824 66 15.6228 65.6632 15.8146C65.0928 16.1366 64.8077 16.6506 64.8077 17.3563ZM69.3016 13.6152C69.7276 13.5604 70.0129 13.3822 70.1571 13.0807C70.2397 12.9163 70.2809 12.6799 70.2809 12.3716C70.2809 11.7412 70.0541 11.2856 69.6005 11.0047C69.1539 10.7169 68.5114 10.573 67.6731 10.573C66.7042 10.573 66.0171 10.8334 65.6116 11.3541C65.3849 11.6419 65.2372 12.0701 65.1685 12.6388H63.4368C63.4713 11.2822 63.911 10.34 64.7561 9.81246C65.6083 9.27801 66.5942 9.0108 67.7143 9.0108C69.013 9.0108 70.0679 9.25746 70.8787 9.75079C71.6826 10.2441 72.0845 11.0115 72.0845 12.053V18.3942C72.0845 18.5862 72.1223 18.7404 72.198 18.8569C72.2804 18.9732 72.4488 19.0315 72.703 19.0315C72.7855 19.0315 72.8783 19.028 72.9814 19.0213C73.0844 19.0076 73.1944 18.9905 73.3112 18.9699V20.3368C73.0226 20.419 72.8027 20.4704 72.6515 20.4909C72.5003 20.5115 72.2942 20.5218 72.0331 20.5218C71.3941 20.5218 70.9301 20.2956 70.6416 19.8435C70.4903 19.6037 70.3839 19.2645 70.3221 18.826C69.9441 19.3193 69.4013 19.7475 68.6936 20.1107C67.9858 20.4738 67.2058 20.6554 66.3538 20.6554C65.3299 20.6554 64.4917 20.3471 63.8388 19.7304C63.1929 19.107 62.8699 18.3292 62.8699 17.3973C62.8699 16.3765 63.1895 15.5851 63.8285 15.0232C64.4676 14.4614 65.3058 14.1154 66.3434 13.9852L69.3016 13.6152ZM76.191 9.32941H78.0772V20.2854H76.191V9.32941ZM76.191 5.1875H78.0772V7.28415H76.191V5.1875Z" fill="white"/>
<path fill-rule="evenodd" clip-rule="evenodd" d="M13.6632 0.239258C20.7882 0.239258 26.6632 5.98926 26.6632 13.1143C26.6632 20.2393 20.7882 25.9893 13.6632 25.9893C6.53821 25.9893 0.663208 20.2393 0.663208 13.1143C0.663208 5.98926 6.53821 0.239258 13.6632 0.239258ZM12.2882 19.7393V17.1143H9.53821V14.4893H6.91321V19.8643H12.2882V19.7393ZM20.4132 14.4893H17.7882V17.1143H15.1632V19.7393H20.5382V14.4893H20.4132ZM15.0382 9.11426H20.4132V6.48926H15.0382V9.11426ZM6.91321 9.11426H12.2882V6.48926H6.91321V9.11426Z" fill="white"/>
</g>
<defs>
<clipPath id="clip0_1656_68489">
<rect width="80.6253" height="25.8723" fill="white" transform="translate(0.538208 0.114258)"/>
</clipPath>
</defs>
</svg>
