<svg width="324" height="73" viewBox="0 0 324 73" fill="none" xmlns="http://www.w3.org/2000/svg">
<path d="M42.0655 16.987C42.1409 15.6649 42.321 14.7929 42.6831 13.9965C42.8263 13.6813 42.9606 13.4233 42.9814 13.4233C43.0021 13.4233 42.9398 13.656 42.8429 13.9403C42.5797 14.7132 42.5365 15.7703 42.7178 17.0002C42.948 18.5607 43.0788 18.7859 44.7355 20.4716C45.5126 21.2623 46.4165 22.2595 46.7441 22.6877L47.3399 23.4661L46.7441 22.9098C46.0155 22.2294 44.3399 20.9026 43.9698 20.7129C43.7217 20.5857 43.6848 20.5879 43.5317 20.7396C43.3906 20.8794 43.3609 21.0894 43.3413 22.0823C43.3108 23.6298 43.099 24.6231 42.5876 25.6163C42.3111 26.1535 42.2675 26.0388 42.5178 25.4325C42.7046 24.9798 42.7236 24.7808 42.7222 23.2827C42.7193 20.2727 42.3604 19.5491 40.2554 18.3094C39.7222 17.9954 38.8436 17.5425 38.303 17.3029C37.7624 17.0634 37.333 16.8547 37.3486 16.8391C37.4082 16.7801 39.461 17.3766 40.2873 17.693C41.5163 18.1637 41.7191 18.2247 41.8684 18.1679C41.9685 18.1299 42.0169 17.8398 42.0655 16.987Z" fill="white"/>
<path d="M16.0982 12.608C15.3691 12.4956 15.3384 12.4824 15.6815 12.43C16.339 12.3296 17.8915 12.4665 18.9614 12.7193C21.4591 13.3093 23.7318 14.8206 26.1578 17.5048L26.8024 18.2178L27.7244 18.0705C31.6086 17.4503 35.5601 17.9432 38.8652 19.4604C39.7744 19.8778 41.2079 20.7087 41.387 20.9222C41.4441 20.9903 41.5489 21.4283 41.6199 21.8957C41.8654 23.5127 41.7425 24.7522 41.2448 25.678C40.9739 26.1818 40.9588 26.3414 41.1409 26.7726C41.2863 27.1166 41.6915 27.3712 42.0928 27.3707C42.9141 27.3696 43.7981 26.0502 44.2077 24.2145L44.3704 23.4853L44.6928 23.8481C46.4607 25.8386 47.8494 28.5531 48.0879 30.4853L48.1501 30.9891L47.8529 30.5311C47.3414 29.743 46.8276 29.2066 46.1695 28.7739C44.9833 27.9939 43.7291 27.7285 40.4074 27.5545C37.4074 27.3974 35.7095 27.1428 34.0259 26.5973C31.1614 25.6692 29.7174 24.4332 26.3147 19.997C24.8034 18.0266 23.8693 16.9364 22.94 16.0584C20.8286 14.0636 18.754 13.0174 16.0982 12.608Z" fill="white"/>
<path d="M17.5144 22.1501C16.0343 20.1251 15.1185 17.0205 15.3168 14.6996L15.3781 13.9814L15.715 14.0425C16.3477 14.1572 17.4386 14.5607 17.9494 14.869C19.3512 15.715 19.958 16.8288 20.5754 19.6889C20.7563 20.5266 20.9936 21.4746 21.1027 21.7956C21.2785 22.3122 21.9427 23.5189 22.4827 24.3026C22.8716 24.867 22.6132 25.1345 21.7535 25.0573C20.4404 24.9395 18.6618 23.7198 17.5144 22.1501Z" fill="white"/>
<path d="M40.2684 37.2205C33.3514 34.453 30.9152 32.0508 30.9152 27.9976C30.9152 27.4011 30.9359 26.9131 30.9611 26.9131C30.9863 26.9131 31.2539 27.1099 31.5558 27.3505C32.9584 28.4685 34.5291 28.946 38.8773 29.5763C41.436 29.9473 42.876 30.2469 44.2042 30.6847C48.4261 32.076 51.0381 34.8995 51.661 38.7454C51.842 39.8629 51.7359 41.9585 51.4424 43.063C51.2107 43.9353 50.5038 45.5078 50.3162 45.5681C50.2643 45.5848 50.2132 45.3868 50.1999 45.1174C50.1288 43.6733 49.3944 42.2674 48.1611 41.2142C46.7589 40.0169 44.8749 39.0635 40.2684 37.2205Z" fill="white"/>
<path d="M35.4124 38.3702C35.3258 37.8577 35.1755 37.2033 35.0784 36.9159L34.9019 36.3933L35.2297 36.759C35.6834 37.2649 36.0419 37.9124 36.3457 38.7748C36.5776 39.433 36.6037 39.6288 36.602 40.6983C36.6002 41.7484 36.5712 41.9685 36.3571 42.5609C36.0195 43.4951 35.6004 44.1576 34.8973 44.8686C33.6338 46.1465 32.0093 46.854 29.665 47.1474C29.2576 47.1984 28.0699 47.2843 27.0257 47.3382C24.3944 47.4743 22.6626 47.7552 21.1064 48.2982C20.8827 48.3763 20.6829 48.4238 20.6627 48.4036C20.5997 48.3413 21.6592 47.7137 22.5343 47.2948C23.7683 46.7041 24.9967 46.3818 27.7488 45.9264C29.1084 45.7013 30.5124 45.4284 30.8689 45.3197C34.2357 44.2939 35.9663 41.6468 35.4124 38.3702Z" fill="white"/>
<path d="M38.5833 43.9661C37.6643 42.0029 37.4532 40.1074 37.9567 38.3397C38.0106 38.1508 38.0972 37.9962 38.1493 37.9962C38.2014 37.9962 38.4183 38.1127 38.6312 38.2551C39.0547 38.5384 39.904 39.0155 42.1669 40.2415C44.9906 41.7714 46.6006 42.956 47.6954 44.3094C48.6542 45.4948 49.2476 46.8446 49.5332 48.4908C49.6948 49.4232 49.6001 51.6669 49.3593 52.6059C48.6001 55.5664 46.8356 57.892 44.319 59.249C43.9502 59.4477 43.6192 59.611 43.5834 59.6117C43.5475 59.6124 43.6819 59.273 43.8819 58.8573C44.7286 57.0987 44.825 55.388 44.1849 53.4839C43.793 52.3181 42.9939 50.8955 41.3805 48.4912C39.5046 45.6958 39.0447 44.9519 38.5833 43.9661Z" fill="white"/>
<path d="M12.6022 54.5586C15.1691 52.4049 18.3629 50.8749 21.2721 50.4053C22.5259 50.2028 24.6146 50.2832 25.7756 50.5785C27.6366 51.0517 29.3014 52.1118 30.1672 53.3747C31.0133 54.6091 31.3763 55.6847 31.7542 58.0779C31.9033 59.022 32.0655 59.97 32.1146 60.1846C32.3984 61.4249 32.9507 62.4164 33.6352 62.9143C34.7223 63.705 36.5942 63.7542 38.4357 63.0403C38.7482 62.9192 39.0196 62.8354 39.0386 62.8543C39.1054 62.9203 38.1781 63.5371 37.524 63.8618C36.6437 64.2987 35.9438 64.4676 35.0138 64.4676C33.3272 64.4676 31.927 63.615 30.7586 61.8766C30.5287 61.5345 30.0119 60.5097 29.6102 59.5994C28.3766 56.8034 27.7674 55.9517 26.3351 55.0195C25.0886 54.2084 23.481 54.0632 22.2717 54.6524C20.6831 55.4264 20.2399 57.4437 21.3777 58.7221C21.8299 59.2302 22.6731 59.6685 23.3627 59.7537C24.6527 59.9131 25.7613 58.9379 25.7613 57.6437C25.7613 56.8034 25.4363 56.3238 24.618 55.9568C23.5004 55.4557 22.2991 56.0415 22.3049 57.0847C22.3074 57.5296 22.5023 57.809 22.9511 58.0108C23.239 58.1402 23.2456 58.1505 23.0109 58.102C21.9855 57.8907 21.7452 56.6623 22.5697 55.8467C23.5596 54.8677 25.6065 55.2997 26.3093 56.6361C26.6047 57.1974 26.6389 58.3153 26.3815 58.9903C25.8053 60.5012 24.1252 61.2957 22.4209 60.8634C21.2605 60.569 20.7881 60.2502 19.3891 58.8183C16.958 56.3298 16.0143 55.8476 12.5096 55.3039L11.838 55.1998L12.6022 54.5586Z" fill="white"/>
<path fill-rule="evenodd" clip-rule="evenodd" d="M1.19562 10.0209C9.31405 19.8123 14.9056 23.8521 15.527 24.7056C16.04 25.4103 15.847 26.0439 14.968 26.5405C14.4793 26.8165 13.4744 27.0963 12.9713 27.0963C12.4022 27.0963 12.2068 26.8781 12.2068 26.8781C11.8769 26.5672 11.691 26.6215 9.99662 23.6328C7.64423 20.0055 5.67559 16.9966 5.62188 16.9462C5.4977 16.8297 5.49983 16.8337 9.75676 24.4025C10.4446 25.9801 9.89357 26.5591 9.89357 26.7838C9.89357 27.2409 9.76809 27.4812 9.20069 28.1101C8.2548 29.1587 7.83197 30.3369 7.52674 32.7752C7.18456 35.5087 6.22238 37.4395 3.55587 40.7441C1.99499 42.6786 1.73958 43.0331 1.34573 43.8128C0.849634 44.7946 0.713226 45.3446 0.65794 46.5844C0.599505 47.8952 0.713314 48.7421 1.11634 49.9954C1.46917 51.0926 1.83746 51.8171 2.77899 53.2663C3.59152 54.5168 4.05937 55.4462 4.05937 55.8097C4.05937 56.099 4.11494 56.0993 5.37401 55.8169C8.38715 55.1407 10.8338 53.9515 12.2098 52.4942C13.0614 51.5922 13.2614 51.0941 13.2679 49.858C13.2721 49.0494 13.2435 48.8802 13.0236 48.415C12.6656 47.658 12.0138 47.0286 10.5773 46.0527C8.69506 44.7741 7.89114 43.7447 7.66907 42.3291C7.48692 41.1676 7.69824 40.3481 8.73951 38.1794C9.81726 35.9347 10.0843 34.9781 10.265 32.7155C10.3817 31.2537 10.5433 30.6772 10.9659 30.2145C11.4068 29.732 11.8036 29.5685 12.8945 29.4204C14.673 29.179 15.8055 28.7217 16.7363 27.8693C17.5439 27.1299 17.8818 26.4174 17.9337 25.3448L17.973 24.5318L17.5217 24.0089C15.8875 22.1154 0.101193 8.53241 0.000622024 8.53241C-0.0208627 8.53241 0.516907 9.20225 1.19562 10.0209ZM4.97673 48.0676C5.34623 47.4174 5.14991 46.5814 4.53185 46.1731C3.94788 45.7872 3.0407 45.9689 3.0407 46.4717C3.0407 46.6252 3.12608 46.7368 3.31852 46.8353C3.64255 47.001 3.66607 47.1873 3.41113 47.5681C3.15294 47.9537 3.17378 48.2928 3.46993 48.5231C3.94722 48.8946 4.62288 48.6903 4.97673 48.0676Z" fill="white"/>
<path fill-rule="evenodd" clip-rule="evenodd" d="M19.0954 29.8469C18.2605 30.1017 17.4489 30.9811 17.1976 31.9031C17.0443 32.4656 17.1313 33.4522 17.3609 33.757C17.7318 34.2491 18.0904 34.3788 19.0616 34.372C20.963 34.3589 22.6159 33.5485 22.8081 32.5354C22.9656 31.705 22.2397 30.5542 21.2397 30.049C20.7237 29.7884 19.6263 29.685 19.0954 29.8469ZM21.3181 31.574C21.6113 31.16 21.4831 30.7126 20.9844 30.41C20.0347 29.8337 18.5986 30.3106 18.5986 31.2021C18.5986 31.6459 19.3475 32.13 20.034 32.13C20.4909 32.13 21.1162 31.8593 21.3181 31.574Z" fill="white"/>
<path d="M108.605 14.3636H115.21V43.0639C115.21 46.1179 114.493 48.8239 113.058 51.1818C111.624 53.5256 109.607 55.3722 107.007 56.7216C104.408 58.0568 101.361 58.7244 97.8665 58.7244C94.3864 58.7244 91.3466 58.0568 88.7472 56.7216C86.1477 55.3722 84.1307 53.5256 82.696 51.1818C81.2614 48.8239 80.544 46.1179 80.544 43.0639V14.3636H87.1278V42.5312C87.1278 44.5057 87.5611 46.2599 88.4276 47.794C89.3082 49.3281 90.5511 50.5355 92.1562 51.4162C93.7614 52.2827 95.6648 52.7159 97.8665 52.7159C100.082 52.7159 101.993 52.2827 103.598 51.4162C105.217 50.5355 106.453 49.3281 107.305 47.794C108.172 46.2599 108.605 44.5057 108.605 42.5312V14.3636ZM130.642 38.5682V58H124.271V25.2727H130.386V30.5994H130.791C131.544 28.8665 132.723 27.4744 134.328 26.4233C135.947 25.3722 137.985 24.8466 140.443 24.8466C142.673 24.8466 144.626 25.3153 146.302 26.2528C147.978 27.1761 149.278 28.554 150.201 30.3864C151.125 32.2187 151.586 34.4844 151.586 37.1832V58H145.216V37.9503C145.216 35.5781 144.598 33.7244 143.362 32.3892C142.126 31.0398 140.429 30.3651 138.27 30.3651C136.792 30.3651 135.478 30.6847 134.328 31.3239C133.191 31.9631 132.289 32.9006 131.622 34.1364C130.968 35.358 130.642 36.8352 130.642 38.5682ZM160.13 58V25.2727H166.501V58H160.13ZM163.348 20.223C162.24 20.223 161.288 19.8537 160.493 19.1151C159.711 18.3622 159.321 17.4673 159.321 16.4304C159.321 15.3793 159.711 14.4844 160.493 13.7457C161.288 12.9929 162.24 12.6165 163.348 12.6165C164.456 12.6165 165.4 12.9929 166.181 13.7457C166.977 14.4844 167.375 15.3793 167.375 16.4304C167.375 17.4673 166.977 18.3622 166.181 19.1151C165.4 19.8537 164.456 20.223 163.348 20.223ZM199.596 33.2628L193.822 34.2855C193.58 33.5469 193.197 32.8437 192.671 32.1761C192.16 31.5085 191.464 30.9616 190.583 30.5355C189.702 30.1094 188.602 29.8963 187.281 29.8963C185.477 29.8963 183.971 30.3011 182.763 31.1108C181.556 31.9062 180.952 32.9361 180.952 34.2003C180.952 35.294 181.357 36.1747 182.167 36.8423C182.977 37.5099 184.283 38.0568 186.087 38.483L191.286 39.6761C194.298 40.3722 196.542 41.4446 198.019 42.8935C199.496 44.3423 200.235 46.2244 200.235 48.5398C200.235 50.5 199.667 52.2472 198.531 53.7812C197.408 55.3011 195.839 56.4943 193.822 57.3608C191.819 58.2273 189.496 58.6605 186.854 58.6605C183.19 58.6605 180.2 57.8793 177.884 56.3168C175.569 54.7401 174.148 52.5028 173.623 49.6051L179.781 48.6676C180.164 50.2727 180.952 51.4872 182.146 52.3111C183.339 53.1207 184.894 53.5256 186.812 53.5256C188.9 53.5256 190.569 53.0923 191.819 52.2259C193.069 51.3452 193.694 50.2727 193.694 49.0085C193.694 47.9858 193.31 47.1264 192.543 46.4304C191.79 45.7344 190.633 45.2088 189.07 44.8537L183.531 43.6392C180.477 42.9432 178.218 41.8352 176.755 40.3153C175.306 38.7955 174.582 36.8707 174.582 34.5412C174.582 32.6094 175.121 30.919 176.201 29.4702C177.281 28.0213 178.772 26.892 180.675 26.0824C182.579 25.2585 184.759 24.8466 187.217 24.8466C190.754 24.8466 193.538 25.6136 195.569 27.1477C197.6 28.6676 198.942 30.706 199.596 33.2628ZM214.335 58L204.704 25.2727H211.288L217.701 49.3068H218.021L224.456 25.2727H231.039L237.431 49.2003H237.751L244.122 25.2727H250.706L241.096 58H234.598L227.95 34.3707H227.46L220.812 58H214.335ZM266.276 58.7244C264.202 58.7244 262.327 58.3409 260.651 57.5739C258.974 56.7926 257.646 55.6634 256.666 54.1861C255.7 52.7088 255.217 50.8977 255.217 48.7528C255.217 46.9062 255.572 45.3864 256.283 44.1932C256.993 43 257.952 42.0554 259.159 41.3594C260.366 40.6634 261.716 40.1378 263.207 39.7827C264.699 39.4276 266.219 39.1577 267.767 38.973C269.727 38.7457 271.318 38.5611 272.54 38.419C273.761 38.2628 274.649 38.0142 275.203 37.6733C275.757 37.3324 276.034 36.7784 276.034 36.0114V35.8622C276.034 34.0014 275.509 32.5597 274.457 31.5369C273.42 30.5142 271.872 30.0028 269.812 30.0028C267.668 30.0028 265.977 30.4787 264.741 31.4304C263.52 32.3679 262.675 33.4119 262.206 34.5625L256.219 33.1989C256.929 31.2102 257.966 29.6051 259.33 28.3835C260.707 27.1477 262.291 26.2528 264.081 25.6989C265.871 25.1307 267.753 24.8466 269.727 24.8466C271.034 24.8466 272.419 25.0028 273.882 25.3153C275.359 25.6136 276.737 26.1676 278.016 26.9773C279.308 27.7869 280.366 28.9446 281.19 30.4503C282.014 31.9418 282.426 33.8807 282.426 36.267V58H276.205V53.5256H275.949C275.537 54.3494 274.919 55.1591 274.095 55.9545C273.271 56.75 272.213 57.4105 270.92 57.9361C269.628 58.4616 268.08 58.7244 266.276 58.7244ZM267.661 53.6108C269.422 53.6108 270.928 53.2628 272.178 52.5668C273.442 51.8707 274.401 50.9616 275.054 49.8395C275.722 48.7031 276.055 47.4886 276.055 46.196V41.9773C275.828 42.2045 275.388 42.4176 274.734 42.6165C274.095 42.8011 273.364 42.9645 272.54 43.1065C271.716 43.2344 270.913 43.3551 270.132 43.4688C269.351 43.5682 268.697 43.6534 268.172 43.7244C266.936 43.8807 265.807 44.1435 264.784 44.5128C263.776 44.8821 262.966 45.4148 262.355 46.1108C261.759 46.7926 261.46 47.7017 261.46 48.8381C261.46 50.4148 262.043 51.608 263.207 52.4176C264.372 53.2131 265.857 53.6108 267.661 53.6108ZM290.912 70.2727V25.2727H297.133V30.5781H297.666C298.035 29.8963 298.568 29.108 299.264 28.2131C299.96 27.3182 300.926 26.5369 302.162 25.8693C303.397 25.1875 305.031 24.8466 307.062 24.8466C309.704 24.8466 312.062 25.5142 314.136 26.8494C316.21 28.1847 317.836 30.1094 319.015 32.6236C320.208 35.1378 320.805 38.1634 320.805 41.7003C320.805 45.2372 320.216 48.2699 319.037 50.7983C317.858 53.3125 316.238 55.2514 314.179 56.6151C312.119 57.9645 309.768 58.6392 307.126 58.6392C305.137 58.6392 303.511 58.3054 302.247 57.6378C300.997 56.9702 300.017 56.1889 299.306 55.294C298.596 54.3991 298.049 53.6037 297.666 52.9077H297.282V70.2727H290.912ZM297.154 41.6364C297.154 43.9375 297.488 45.9545 298.156 47.6875C298.824 49.4205 299.789 50.777 301.054 51.7571C302.318 52.723 303.866 53.206 305.699 53.206C307.602 53.206 309.193 52.7017 310.471 51.6932C311.75 50.6705 312.716 49.2855 313.369 47.5384C314.037 45.7912 314.37 43.8239 314.37 41.6364C314.37 39.4773 314.044 37.5384 313.39 35.8196C312.751 34.1009 311.785 32.7443 310.493 31.75C309.214 30.7557 307.616 30.2585 305.699 30.2585C303.852 30.2585 302.289 30.7344 301.011 31.6861C299.747 32.6378 298.788 33.9659 298.135 35.6705C297.481 37.375 297.154 39.3636 297.154 41.6364Z" fill="white"/>
</svg>
