<svg width="24" height="24" viewBox="0 0 24 24" fill="none" xmlns="http://www.w3.org/2000/svg">
    <path
        d="M16.3785 21C17.0752 21 17.7217 20.6374 18.0851 20.0429L22.3627 13.0429C22.7539 12.4027 22.7539 11.5973 22.3627 10.9571L18.0851 3.95712C17.7217 3.3626 17.0752 3 16.3785 3H7.62177C6.92504 3 6.27853 3.36258 5.91521 3.95708L1.63735 10.9571C1.24609 11.5973 1.24609 12.4027 1.63735 13.0429L5.91521 20.0429C6.27853 20.6374 6.92504 21 7.62177 21H16.3785Z"
        stroke="white" stroke-width="2" stroke-linejoin="round" />
    <path
        d="M12 16C14.2091 16 16 14.2091 16 12C16 9.79088 14.2091 8 12 8C9.79088 8 8 9.79088 8 12C8 14.2091 9.79088 16 12 16Z"
        stroke="white" stroke-width="2" stroke-linejoin="round" />
</svg>