<svg width="36" height="37" viewBox="0 0 36 37" fill="none" xmlns="http://www.w3.org/2000/svg">
<g clip-path="url(#clip0_3578_22337)">
<circle cx="18" cy="18.0576" r="18" fill="black"/>
<circle cx="18" cy="18.0576" r="17.4375" stroke="white" stroke-opacity="0.2" stroke-width="1.125"/>
<path fill-rule="evenodd" clip-rule="evenodd" d="M29.41 15.2034C28.2245 14.5189 26.1983 15.6655 24.2723 17.9022C25.0507 17.2967 25.7737 17.063 26.2606 17.344C27.2444 17.9121 26.8909 20.3666 25.4707 22.8265C24.0505 25.2863 22.1016 26.8198 21.1177 26.2517C20.6309 25.9707 20.4718 25.2276 20.6069 24.2507C19.6329 27.037 19.653 29.3651 20.8386 30.0495C22.4784 30.9963 25.7265 28.4404 28.0935 24.3407C30.4605 20.241 31.0499 16.1502 29.41 15.2034Z" fill="url(#paint0_linear_3578_22337)"/>
<path fill-rule="evenodd" clip-rule="evenodd" d="M11.4976 24.6566C9.85772 23.7098 10.4471 19.6189 12.8141 15.5192C15.1811 11.4195 18.4292 8.86366 20.069 9.81044C20.884 10.281 21.1482 11.5284 20.9172 13.1671C22.046 9.44909 21.8708 6.39685 20.2037 5.43435C17.7439 4.01417 12.9677 7.68173 9.53557 13.6264C6.10342 19.571 5.3153 25.5411 7.77512 26.9613C9.44222 27.9238 12.1731 26.5494 14.8286 23.7128C13.525 24.7322 12.3126 25.1271 11.4976 24.6566Z" fill="url(#paint1_linear_3578_22337)"/>
<path d="M23.1692 20.0132L18.7153 17.4418C17.0754 16.495 16.5136 14.3982 17.4604 12.7583L21.9142 15.3297C23.5541 16.2765 24.116 18.3734 23.1692 20.0132Z" fill="#00C6D2"/>
<path d="M17.1999 23.4951L12.7461 20.9237C13.6929 19.2838 15.7897 18.722 17.4296 19.6687L21.8835 22.2402C20.9367 23.88 18.8398 24.4419 17.1999 23.4951Z" fill="#00C6D2"/>
</g>
<defs>
<linearGradient id="paint0_linear_3578_22337" x1="20.8037" y1="30.1308" x2="28.7985" y2="15.6994" gradientUnits="userSpaceOnUse">
<stop stop-color="#009EFD"/>
<stop offset="1" stop-color="#12EFCF"/>
</linearGradient>
<linearGradient id="paint1_linear_3578_22337" x1="21.8213" y1="5.8272" x2="9.33913" y2="27.9879" gradientUnits="userSpaceOnUse">
<stop stop-color="#009EFD"/>
<stop offset="1" stop-color="#12EFCF"/>
</linearGradient>
<clipPath id="clip0_3578_22337">
<rect width="36" height="36" fill="white" transform="translate(0 0.0576172)"/>
</clipPath>
</defs>
</svg>
