<svg width="266" height="56" viewBox="0 0 266 56" fill="none" xmlns="http://www.w3.org/2000/svg">
    <path fill-rule="evenodd" clip-rule="evenodd"
        d="M81.716 18.2222H66.1172V23.7222H74.6023C74.4501 24.3137 74.373 24.9219 74.3727 25.5326L74.3291 39.4781V42.6185H79.8388V39.4919L79.8825 25.5502C79.8839 25.0649 80.078 24.5999 80.4223 24.2572C80.7665 23.9146 81.2329 23.7222 81.7191 23.7222H88.1563V18.2222H81.716ZM91.8502 35.2569V25.5555C91.8524 23.6113 92.6271 21.7473 94.0043 20.3725C95.3816 18.9977 97.2488 18.2244 99.1965 18.2222H113.889V23.7222H99.1965C98.7094 23.7222 98.2423 23.9153 97.8979 24.2591C97.5534 24.603 97.3599 25.0693 97.3599 25.5555V27.6944H113.889V33.1944H97.3599V35.2569C97.3599 35.7431 97.5534 36.2094 97.8979 36.5533C98.2423 36.8971 98.7094 37.0902 99.1965 37.0902H113.889V42.5902H99.1965C97.2488 42.588 95.3816 41.8147 94.0043 40.4399C92.6271 39.0651 91.8524 37.2011 91.8502 35.2569ZM123.072 18.2222V35.2569C123.072 35.7431 123.266 36.2094 123.61 36.5533C123.955 36.8971 124.422 37.0902 124.909 37.0902H135.928V42.5902H124.909C122.961 42.588 121.094 41.8147 119.717 40.4399C118.339 39.0651 117.565 37.2011 117.562 35.2569V18.2222H123.072ZM145.111 25.5555C145.111 25.0693 145.305 24.603 145.649 24.2591C145.994 23.9153 146.461 23.7222 146.948 23.7222H161.641V18.2222H146.948C145 18.2244 143.133 18.9977 141.756 20.3725C140.379 21.7473 139.604 23.6113 139.602 25.5555V35.2569C139.604 37.2011 140.379 39.0651 141.756 40.4399C143.133 41.8147 145 42.588 146.948 42.5902H161.641V37.0902H146.948C146.461 37.0902 145.994 36.8971 145.649 36.5533C145.305 36.2094 145.111 35.7431 145.111 35.2569V33.1944L161.635 33.2303L161.647 27.7303L145.111 27.6944V25.5555ZM165.314 18.2222H177.92C183.124 18.2222 187.356 22.1799 187.356 27.0451C187.356 31.9103 183.124 35.868 177.92 35.868H172.66C172.173 35.868 171.706 36.0612 171.362 36.405C171.017 36.7488 170.824 37.2151 170.824 37.7013V42.6666H165.314V18.2222ZM172.663 30.368H177.92C180.082 30.368 181.846 28.8777 181.846 27.0451C181.846 25.2125 180.085 23.7222 177.92 23.7222H170.827V30.5972C171.427 30.4434 172.044 30.3664 172.663 30.368ZM240.357 26.9015C240.357 22.118 236.392 18.2222 231.519 18.2222H218.269V42.6666H223.779V23.7222H231.519C233.355 23.7222 234.847 25.1483 234.847 26.9015C234.847 28.6546 233.359 30.0762 231.528 30.0808L224.595 30.0265L227.437 35.5227C228.55 37.6748 230.234 39.4797 232.306 40.7398C234.378 41.9998 236.758 42.6665 239.184 42.6666H240.296V37.1666H239.184C237.291 37.1705 235.463 36.4766 234.051 35.2179C237.694 34.1462 240.357 30.8263 240.357 26.9015ZM243.961 18.2222H260.97H266V23.7222H259.563C259.076 23.7222 258.61 23.9146 258.266 24.2572C257.921 24.5999 257.727 25.0649 257.726 25.5502L257.682 39.4919V42.6185H252.173V39.4781L252.216 25.5326C252.216 24.9219 252.294 24.3137 252.446 23.7222H243.961V18.2222ZM202.464 18.2222H203.158C209.465 18.2222 214.596 23.3112 214.596 29.5659V31.2465C214.596 37.5012 209.465 42.5902 203.158 42.5902H202.464C196.153 42.5902 191.026 37.5012 191.026 31.2465V29.5659C191.026 23.3112 196.157 18.2222 202.464 18.2222ZM203.158 37.0902C206.407 37.0902 209.05 34.4686 209.05 31.2465V29.5659C209.05 26.3438 206.407 23.7222 203.158 23.7222H202.464C199.215 23.7222 196.572 26.3438 196.572 29.5659V31.2465C196.572 34.4686 199.215 37.0902 202.464 37.0902H203.158Z"
        fill="white" />
    <path fill-rule="evenodd" clip-rule="evenodd"
        d="M51.2317 22.6592C48.6915 21.1952 44.35 23.6477 40.2231 28.4316C41.8911 27.1366 43.4403 26.6367 44.4834 27.2378C46.5916 28.4528 45.834 33.7028 42.791 38.9641C39.7479 44.2254 35.572 47.5054 33.4639 46.2904C32.4208 45.6892 32.0799 44.1 32.3694 42.0105C30.2824 47.9701 30.3255 52.9495 32.8657 54.4135C36.3795 56.4385 43.3392 50.9718 48.4109 42.203C53.4825 33.4342 54.7454 24.6843 51.2317 22.6592Z"
        fill="url(#paint0_linear_4187_23330)" />
    <path fill-rule="evenodd" clip-rule="evenodd"
        d="M12.8513 42.8789C9.33754 40.8538 10.6004 32.1039 15.6721 23.3351C20.7438 14.5663 27.7035 9.09955 31.2172 11.1246C32.9635 12.131 33.5296 14.7991 33.0346 18.3041C35.4533 10.3517 35.0779 3.82331 31.5058 1.76463C26.2351 -1.27298 16.0013 6.57153 8.64725 19.2865C1.29323 32.0014 -0.395471 44.7707 4.87517 47.8083C8.44725 49.867 14.2988 46.9273 19.9887 40.8602C17.1954 43.0406 14.5976 43.8853 12.8513 42.8789Z"
        fill="url(#paint1_linear_4187_23330)" />
    <path
        d="M37.8593 32.9467L28.3161 27.4467C24.8023 25.4217 23.5985 20.9367 25.6271 17.4292L35.1704 22.9292C38.6841 24.9543 39.888 29.4392 37.8593 32.9467Z"
        fill="#00C6D2" />
    <path
        d="M25.0691 40.394L15.5259 34.894C17.5545 31.3865 22.0475 30.1848 25.5612 32.2099L35.1044 37.7099C33.0758 41.2174 28.5829 42.4191 25.0691 40.394Z"
        fill="#00C6D2" />
    <defs>
        <linearGradient id="paint0_linear_4187_23330" x1="32.791" y1="54.5874" x2="49.8749" y2="23.6944"
            gradientUnits="userSpaceOnUse">
            <stop stop-color="#009EFD" />
            <stop offset="1" stop-color="#12EFCF" />
        </linearGradient>
        <linearGradient id="paint1_linear_4187_23330" x1="34.9718" y1="2.6049" x2="8.29844" y2="50.0447"
            gradientUnits="userSpaceOnUse">
            <stop stop-color="#009EFD" />
            <stop offset="1" stop-color="#12EFCF" />
        </linearGradient>
    </defs>
</svg>