<svg width="175" height="339" viewBox="0 0 175 339" fill="none" xmlns="http://www.w3.org/2000/svg">
<rect x="8.57227" y="159" width="77.1429" height="153" rx="38.5714" fill="#00C3A0" fill-opacity="0.2"/>
<path d="M47.7931 312C70.8117 312 89.3303 293.657 89.3303 270.857C89.3303 248.057 70.8117 229.714 47.7931 229.714C24.7744 229.714 6.25586 248.057 6.25586 270.857C6.25586 293.657 24.7744 312 47.7931 312Z" fill="#00C3A0"/>
<path d="M59.2169 277.371C59.2169 271.371 55.5823 269.314 48.3133 268.457C43.1212 267.771 42.0828 266.4 42.0828 263.999C42.0828 261.599 43.8136 260.057 47.2749 260.057C50.3902 260.057 52.1211 261.085 52.9863 263.657C53.1595 264.171 53.6787 264.514 54.1979 264.514H56.9668C57.6592 264.514 58.1784 263.999 58.1784 263.314V263.142C57.486 259.371 54.3707 256.457 50.3902 256.114V252C50.3902 251.314 49.871 250.799 49.0058 250.628H46.4097C45.7173 250.628 45.1981 251.142 45.0248 252V255.942C39.8327 256.628 36.5446 260.057 36.5446 264.342C36.5446 270 40.0059 272.228 47.2749 273.085C52.1211 273.942 53.6787 274.971 53.6787 277.714C53.6787 280.457 51.2554 282.342 47.9673 282.342C43.4672 282.342 41.9095 280.457 41.3903 277.885C41.2175 277.2 40.6983 276.857 40.1791 276.857H37.2366C36.5446 276.857 36.0254 277.371 36.0254 278.057V278.228C36.7174 282.514 39.4867 285.599 45.198 286.457V290.571C45.198 291.257 45.7173 291.771 46.5825 291.942H49.1786C49.871 291.942 50.3902 291.428 50.5634 290.571V286.457C55.7556 285.599 59.2169 281.999 59.2169 277.371V277.371Z" fill="#F0FCFA"/>
<path fill-rule="evenodd" clip-rule="evenodd" d="M23.5641 262.455C18.5448 275.656 25.4678 290.57 38.9674 295.37C39.4866 295.713 40.0058 296.398 40.0058 296.913V299.313C40.0058 299.656 40.0058 299.827 39.8326 299.998C39.6598 300.684 38.9674 301.027 38.275 300.684C28.5831 297.598 21.1409 290.227 18.0256 280.627C12.8334 264.341 21.8333 247.027 38.275 241.884C38.4482 241.713 38.7942 241.713 38.9674 241.713C39.6598 241.884 40.0058 242.398 40.0058 243.084V245.484C40.0058 246.341 39.6598 246.856 38.9674 247.198C31.8716 249.77 26.1602 255.255 23.5641 262.455ZM55.7554 242.57C55.9282 241.884 56.6206 241.541 57.313 241.884C66.8317 244.969 74.4471 252.341 77.5624 262.112C82.7545 278.398 73.7547 295.713 57.313 300.855C57.1398 301.027 56.7938 301.027 56.6206 301.027C55.9282 300.855 55.5822 300.341 55.5822 299.655V297.255C55.5822 296.398 55.9282 295.884 56.6206 295.541C63.7164 292.97 69.4277 287.484 72.0238 280.284C77.0431 267.084 70.1202 252.169 56.6206 247.37C56.1014 247.027 55.5822 246.341 55.5822 245.655V243.255C55.5822 242.912 55.5822 242.741 55.7554 242.57Z" fill="#F0FCFA"/>
<rect x="95" y="49" width="77" height="202" rx="38.5" fill="#00C3A0" fill-opacity="0.2"/>
<path d="M133.153 58C115.947 58 102 71.8147 102 88.8571C102 105.9 115.947 119.714 133.153 119.714C150.359 119.714 164.306 105.9 164.306 88.8571C164.306 71.8147 150.359 58 133.153 58ZM144.15 87.4069C143.695 87.8575 143.097 88.0857 142.499 88.0857C141.901 88.0857 141.302 87.8605 140.848 87.4069L135.489 82.0996V101.2C135.489 102.477 134.443 103.514 133.153 103.514C131.863 103.514 130.816 102.477 130.816 101.2V82.1026L125.458 87.41C124.545 88.3141 123.066 88.3141 122.153 87.41C121.24 86.5058 121.24 85.04 122.153 84.1359L131.499 74.8788C131.714 74.6659 131.972 74.4966 132.258 74.3793C132.829 74.1448 133.473 74.1448 134.044 74.3793C134.33 74.4966 134.589 74.6659 134.804 74.8788L144.15 84.1359C145.063 85.04 145.063 86.5028 144.15 87.4069Z" fill="#00C3A0"/>
<circle cx="133.143" cy="209.714" r="41.1429" fill="#00C3A0"/>
<path d="M133.229 223.883L116 213.856L133.219 237.792L150.456 213.856L133.219 223.883H133.229ZM133.485 182.443L116.263 210.631L133.485 220.674L150.714 210.641L133.485 182.443Z" fill="#F0FCFA"/>
<g filter="url(#filter0_f_6103_27051)">
<circle cx="72.0804" cy="35.0804" r="32.0804" fill="#00C3A0" fill-opacity="0.3"/>
<path d="M60.9784 43.5208C59.0412 43.5208 57.455 43.0658 56.2199 42.1557C54.9978 41.2326 54.3867 39.9065 54.3867 38.2033C54.3867 37.8392 54.4257 37.4102 54.5037 36.8901C54.7118 35.72 55.0108 34.3159 55.4008 32.6647C56.5059 28.1923 59.3662 25.9561 63.9687 25.9561C65.2168 25.9561 66.3479 26.1641 67.336 26.5931C68.3241 26.9962 69.1042 27.6202 69.6763 28.4523C70.2483 29.2714 70.5343 30.2465 70.5343 31.3776C70.5343 31.7156 70.4953 32.1447 70.4173 32.6647C70.1703 34.1079 69.8843 35.525 69.5332 36.8901C68.9612 39.1134 67.9861 40.7905 66.5819 41.8957C65.1908 42.9878 63.3186 43.5208 60.9784 43.5208ZM61.3294 40.0105C62.2395 40.0105 63.0066 39.7374 63.6436 39.2044C64.2937 38.6713 64.7618 37.8522 65.0348 36.7341C65.4118 35.2 65.6979 33.8738 65.8929 32.7297C65.9579 32.3917 65.9969 32.0407 65.9969 31.6766C65.9969 30.1945 65.2298 29.4534 63.6827 29.4534C62.7726 29.4534 61.9925 29.7264 61.3424 30.2595C60.7054 30.7925 60.2503 31.6116 59.9773 32.7297C59.6782 33.8218 59.3922 35.148 59.0932 36.7341C59.0282 37.0592 58.9892 37.3972 58.9892 37.7612C58.9762 39.2694 59.7693 40.0105 61.3294 40.0105Z" fill="white"/>
<path d="M73.664 43.2868C73.4819 43.2868 73.3519 43.2348 73.2479 43.1178C73.1699 42.9878 73.1439 42.8448 73.1699 42.6758L76.5372 26.8142C76.5632 26.6322 76.6543 26.4892 76.8103 26.3721C76.9533 26.2551 77.1093 26.2031 77.2783 26.2031H83.766C85.5732 26.2031 87.0163 26.5802 88.1084 27.3212C89.2135 28.0753 89.7726 29.1544 89.7726 30.5716C89.7726 30.9746 89.7206 31.4036 89.6296 31.8457C89.2265 33.7179 88.4074 35.096 87.1593 35.9931C85.9372 36.8902 84.26 37.3322 82.1278 37.3322H78.8385L77.7204 42.6758C77.6814 42.8578 77.6034 43.0008 77.4473 43.1178C77.3043 43.2348 77.1483 43.2868 76.9793 43.2868H73.664ZM82.2968 33.9649C82.9859 33.9649 83.5709 33.7829 84.078 33.4058C84.5981 33.0288 84.9361 32.4958 85.1051 31.7937C85.1571 31.5207 85.1831 31.2736 85.1831 31.0656C85.1831 30.5976 85.0401 30.2335 84.7671 29.9865C84.494 29.7265 84.013 29.5965 83.3499 29.5965H80.4246L79.5015 33.9649H82.2968Z" fill="white"/>
</g>
<g filter="url(#filter1_f_6103_27051)">
<circle cx="134.08" cy="303.08" r="32.0804" fill="#00C3A0" fill-opacity="0.3"/>
<path d="M134.077 282.057C134.623 282.057 135.172 282.198 135.663 282.482L151.037 291.354C152.019 291.92 152.623 292.967 152.623 294.1V311.845C152.623 312.977 152.019 314.025 151.037 314.592L135.667 323.466C135.176 323.751 134.63 323.892 134.081 323.892C133.532 323.892 132.986 323.747 132.495 323.466L123.912 318.511V318.513L119.882 316.186V316.184L117.125 314.592C116.143 314.025 115.539 312.978 115.539 311.845V294.1C115.539 292.967 116.143 291.92 117.125 291.354L132.491 282.482C132.982 282.198 133.532 282.057 134.077 282.057ZM134.077 284.648C133.978 284.649 133.878 284.676 133.789 284.728L118.419 293.603C118.241 293.706 118.131 293.894 118.131 294.1V311.849C118.131 312.051 118.241 312.244 118.419 312.347L120.784 313.711L128.234 293.287C128.334 293.012 128.595 292.83 128.887 292.83H132.783C133.027 292.83 133.195 293.07 133.109 293.297L124.814 316.036L126.417 316.961L135.053 293.287C135.152 293.012 135.413 292.83 135.705 292.83H139.602C139.842 292.83 140.01 293.07 139.928 293.297L130.447 319.286L133.789 321.215C133.878 321.263 133.978 321.29 134.077 321.29C134.177 321.29 134.28 321.266 134.366 321.215L137.734 319.27L135.152 312.187C135.098 312.032 135.098 311.864 135.152 311.71L137.178 306.155C137.288 305.85 137.72 305.85 137.83 306.155L141.764 316.942L143.367 316.017L138.562 302.845C138.507 302.691 138.507 302.522 138.562 302.368L140.587 296.813C140.69 296.527 141.076 296.509 141.215 296.76L141.239 296.813L147.397 313.689L149.736 312.34C149.915 312.237 150.024 312.048 150.024 311.842V294.097C150.024 293.894 149.915 293.702 149.736 293.599L134.366 284.725C134.277 284.676 134.177 284.648 134.077 284.648Z" fill="white"/>
</g>
<g filter="url(#filter2_f_6103_27051)">
<circle cx="35.0804" cy="107.08" r="32.0804" fill="#00C3A0" fill-opacity="0.3"/>
<path fill-rule="evenodd" clip-rule="evenodd" d="M21.6211 122.107V122.216L21.6159 122.22V122.238H34.2228C35.6497 122.258 37.0714 122.144 38.4735 121.893C39.9501 121.604 41.3888 121.148 42.7608 120.531C43.3557 120.256 43.9264 119.923 44.5023 119.587C44.648 119.502 44.7941 119.416 44.9411 119.332C45.6185 118.849 46.2673 118.326 46.8846 117.77C48.5744 116.242 49.8823 114.337 50.6998 112.212C50.7547 111.973 50.9875 111.82 51.2268 111.866H54.6601C54.9334 111.866 55.0237 111.775 55.0237 111.466V109.267C55.042 109.057 55.042 108.844 55.0237 108.633C55.0237 108.578 55.0378 108.523 55.052 108.468C55.0801 108.359 55.1082 108.25 55.0237 108.141H52.1555C51.8089 108.141 51.8089 108.105 51.8089 107.796C51.9083 106.69 51.9083 105.579 51.8089 104.473C51.7906 104.146 51.8638 104.146 52.1175 104.146H54.6248C54.9164 104.146 55.025 104.072 55.025 103.782V100.803C55.016 100.605 55.0114 100.505 54.959 100.455C54.9052 100.402 54.8009 100.402 54.5895 100.402H51.338C51.0843 100.446 50.841 100.274 50.7952 100.021C50.4225 99.0461 49.9477 98.1136 49.3762 97.2412C48.8007 96.3806 48.152 95.5724 47.4326 94.8255C46.4765 93.8708 45.4027 93.0416 44.2361 92.3549C42.477 91.3334 40.553 90.618 38.5506 90.2479C37.5789 90.0687 36.5966 89.9601 35.6078 89.9209H21.9847C21.6211 89.9209 21.6211 89.9941 21.6211 90.2845V100.075C21.6211 100.421 21.5479 100.421 21.2758 100.421H17.3704C17.0801 100.421 17.0801 100.474 17.0801 100.674V103.871C17.0801 104.161 17.1703 104.161 17.3887 104.161H21.3308C21.6211 104.161 21.6211 104.215 21.6211 104.433V107.848C21.6211 108.157 21.5296 108.157 21.2941 108.157H17.0801V111.609C17.0801 111.899 17.1703 111.899 17.3887 111.899H21.3308C21.6211 111.899 21.6211 111.934 21.6211 112.171V116.44V117.875V122.107ZM46.7078 100.109C46.7392 100.19 46.7392 100.28 46.7078 100.363H46.7954C46.7588 100.471 46.577 100.508 46.577 100.508H25.6152C25.2699 100.508 25.2699 100.435 25.2699 100.163V93.7148C25.2699 93.4781 25.3065 93.3695 25.5786 93.3695H35.3329C36.3714 93.3604 37.4073 93.4689 38.4209 93.6965C40.4298 94.1726 42.2988 95.1195 43.8709 96.4575C44.1848 96.6916 44.4647 96.9676 44.7067 97.2749C45.2194 97.7837 45.6693 98.35 46.0512 98.9647C46.3049 99.3244 46.5234 99.7076 46.7078 100.109ZM47.5778 108.137H36.5338H25.707C25.4861 108.137 25.3773 108.137 25.3236 108.083C25.2715 108.03 25.2715 107.926 25.2715 107.72V104.487C25.2715 104.232 25.3447 104.142 25.6168 104.142H47.5961C47.8328 104.142 47.9414 104.232 47.9414 104.45C48.0316 105.575 48.0316 106.705 47.9414 107.829C47.9244 108.137 47.8132 108.137 47.5778 108.137ZM46.708 111.916C46.3993 111.882 46.0881 111.882 45.7794 111.916H25.6351C25.363 111.916 25.2715 111.916 25.2715 112.28V118.584C25.2715 118.874 25.2715 118.947 25.6351 118.947H34.9356C35.3803 118.981 35.8249 118.95 36.2605 118.857C37.6102 118.76 38.9377 118.467 40.2038 117.985C40.6642 117.825 41.1089 117.617 41.5287 117.368H41.6556C43.8359 116.234 45.6068 114.452 46.7237 112.265C46.7237 112.265 46.8506 111.991 46.708 111.919V111.916Z" fill="#FEFEFD"/>
</g>
<defs>
<filter id="filter0_f_6103_27051" x="37" y="0" width="70.1602" height="70.1611" filterUnits="userSpaceOnUse" color-interpolation-filters="sRGB">
<feFlood flood-opacity="0" result="BackgroundImageFix"/>
<feBlend mode="normal" in="SourceGraphic" in2="BackgroundImageFix" result="shape"/>
<feGaussianBlur stdDeviation="1.5" result="effect1_foregroundBlur_6103_27051"/>
</filter>
<filter id="filter1_f_6103_27051" x="99" y="268" width="70.1602" height="70.1611" filterUnits="userSpaceOnUse" color-interpolation-filters="sRGB">
<feFlood flood-opacity="0" result="BackgroundImageFix"/>
<feBlend mode="normal" in="SourceGraphic" in2="BackgroundImageFix" result="shape"/>
<feGaussianBlur stdDeviation="1.5" result="effect1_foregroundBlur_6103_27051"/>
</filter>
<filter id="filter2_f_6103_27051" x="0" y="72" width="70.1602" height="70.1611" filterUnits="userSpaceOnUse" color-interpolation-filters="sRGB">
<feFlood flood-opacity="0" result="BackgroundImageFix"/>
<feBlend mode="normal" in="SourceGraphic" in2="BackgroundImageFix" result="shape"/>
<feGaussianBlur stdDeviation="1.5" result="effect1_foregroundBlur_6103_27051"/>
</filter>
</defs>
</svg>
