<svg width="315" height="320" viewBox="0 0 315 320" fill="none" xmlns="http://www.w3.org/2000/svg">
<rect x="0.246094" y="136.484" width="250.328" height="51.2034" rx="11.3785" fill="#FF4D00"/>
<path d="M207 157.833V162C207 162.46 206.627 162.833 206.167 162.833C205.706 162.833 205.333 162.46 205.333 162V159.845L199.256 165.923C199.093 166.085 198.88 166.167 198.667 166.167C198.453 166.167 198.24 166.085 198.077 165.923C197.752 165.597 197.752 165.07 198.077 164.744L204.155 158.667H202C201.539 158.667 201.167 158.293 201.167 157.833C201.167 157.373 201.539 157 202 157H206.167C206.275 157 206.383 157.022 206.485 157.064C206.689 157.148 206.852 157.311 206.936 157.515C206.978 157.617 207 157.725 207 157.833ZM206.167 164.5C205.706 164.5 205.333 164.873 205.333 165.333V168.667C205.333 169.866 204.866 170.333 203.667 170.333H195.333C194.134 170.333 193.667 169.866 193.667 168.667V160.333C193.667 159.134 194.134 158.667 195.333 158.667H198.667C199.127 158.667 199.5 158.293 199.5 157.833C199.5 157.373 199.127 157 198.667 157H195.333C193.215 157 192 158.215 192 160.333V168.667C192 170.785 193.215 172 195.333 172H203.667C205.785 172 207 170.785 207 168.667V165.333C207 164.873 206.627 164.5 206.167 164.5Z" fill="#FFF8F3"/>
<rect x="17" y="194.515" width="250.328" height="51.2034" rx="11.3785" fill="#FF4D00" fill-opacity="0.12"/>
<rect opacity="0.24" x="41" y="217" width="149" height="8" rx="4" fill="#FF4D00"/>
<g opacity="0.24">
<path d="M223.5 214.333V218.5C223.5 218.96 223.127 219.333 222.667 219.333C222.206 219.333 221.833 218.96 221.833 218.5V216.345L215.756 222.423C215.593 222.585 215.38 222.667 215.167 222.667C214.953 222.667 214.74 222.585 214.577 222.423C214.252 222.097 214.252 221.57 214.577 221.244L220.655 215.167H218.5C218.039 215.167 217.667 214.793 217.667 214.333C217.667 213.873 218.039 213.5 218.5 213.5H222.667C222.775 213.5 222.883 213.522 222.985 213.564C223.189 213.648 223.352 213.811 223.436 214.015C223.478 214.117 223.5 214.225 223.5 214.333ZM222.667 221C222.206 221 221.833 221.373 221.833 221.833V225.167C221.833 226.366 221.366 226.833 220.167 226.833H211.833C210.634 226.833 210.167 226.366 210.167 225.167V216.833C210.167 215.634 210.634 215.167 211.833 215.167H215.167C215.627 215.167 216 214.793 216 214.333C216 213.873 215.627 213.5 215.167 213.5H211.833C209.715 213.5 208.5 214.715 208.5 216.833V225.167C208.5 227.285 209.715 228.5 211.833 228.5H220.167C222.285 228.5 223.5 227.285 223.5 225.167V221.833C223.5 221.373 223.127 221 222.667 221Z" fill="#FF4D00"/>
</g>
<rect x="17" y="79" width="250.328" height="51.2034" rx="11.3785" fill="#FF4D00" fill-opacity="0.12"/>
<rect opacity="0.24" x="41" y="101.485" width="149" height="8" rx="4" fill="#FF4D00"/>
<g opacity="0.24">
<path d="M223.5 98.8187V102.985C223.5 103.445 223.127 103.819 222.667 103.819C222.206 103.819 221.833 103.445 221.833 102.985V100.83L215.756 106.908C215.593 107.07 215.38 107.152 215.167 107.152C214.953 107.152 214.74 107.07 214.577 106.908C214.252 106.582 214.252 106.055 214.577 105.729L220.655 99.652H218.5C218.039 99.652 217.667 99.2787 217.667 98.8187C217.667 98.3587 218.039 97.9854 218.5 97.9854H222.667C222.775 97.9854 222.883 98.0078 222.985 98.0494C223.189 98.1336 223.352 98.2961 223.436 98.5003C223.478 98.602 223.5 98.7104 223.5 98.8187ZM222.667 105.485C222.206 105.485 221.833 105.859 221.833 106.319V109.652C221.833 110.851 221.366 111.319 220.167 111.319H211.833C210.634 111.319 210.167 110.851 210.167 109.652V101.319C210.167 100.12 210.634 99.652 211.833 99.652H215.167C215.627 99.652 216 99.2787 216 98.8187C216 98.3587 215.627 97.9854 215.167 97.9854H211.833C209.715 97.9854 208.5 99.2004 208.5 101.319V109.652C208.5 111.77 209.715 112.985 211.833 112.985H220.167C222.285 112.985 223.5 111.77 223.5 109.652V106.319C223.5 105.859 223.127 105.485 222.667 105.485Z" fill="#FF4D00"/>
</g>
<rect x="64" y="20" width="250.328" height="51.2034" rx="11.3785" fill="#FF4D00" fill-opacity="0.12"/>
<rect x="64" y="253" width="250.328" height="51.2034" rx="11.3785" fill="#FF4D00" fill-opacity="0.12"/>
</svg>
