<svg width="800" height="580" viewBox="0 0 800 580" fill="none" xmlns="http://www.w3.org/2000/svg">
<g style="mix-blend-mode:multiply" opacity="0.25">
<path d="M20 300V0" stroke="#FDAFF0"/>
<path d="M40 300V0" stroke="#FDAFF0"/>
<path d="M60 300V0" stroke="#FDAFF0"/>
<path d="M80 300V0" stroke="#FDAFF0"/>
<path d="M100 300V0" stroke="#FDAFF0"/>
<path d="M120 300V0" stroke="#FDAFF0"/>
<path d="M140 300V0" stroke="#FDAFF0"/>
<path d="M160 300V0" stroke="#FDAFF0"/>
<path d="M180 300V0" stroke="#FDAFF0"/>
<path d="M200 300V0" stroke="#FDAFF0"/>
<path d="M220 300V0" stroke="#FDAFF0"/>
<path d="M240 300V0" stroke="#FDAFF0"/>
<path d="M260 300V0" stroke="#FDAFF0"/>
<path d="M280 300V0" stroke="#FDAFF0"/>
<path d="M300 300V0" stroke="#FDAFF0"/>
<path d="M320 300V0" stroke="#FDAFF0"/>
<path d="M340 300V0" stroke="#FDAFF0"/>
<path d="M360 300V0" stroke="#FDAFF0"/>
<path d="M380 300V0" stroke="#FDAFF0"/>
<path d="M6.67572e-06 20L400 20" stroke="#FDAFF0"/>
<path d="M6.67572e-06 40L400 40" stroke="#FDAFF0"/>
<path d="M6.67572e-06 60L400 60" stroke="#FDAFF0"/>
<path d="M6.67572e-06 80L400 80" stroke="#FDAFF0"/>
<path d="M6.67572e-06 100L400 100" stroke="#FDAFF0"/>
<path d="M6.67572e-06 120L400 120" stroke="#FDAFF0"/>
<path d="M6.67572e-06 140L400 140" stroke="#FDAFF0"/>
<path d="M6.67572e-06 160L400 160" stroke="#FDAFF0"/>
<path d="M6.67572e-06 180L400 180" stroke="#FDAFF0"/>
<path d="M6.67572e-06 200L400 200" stroke="#FDAFF0"/>
<path d="M6.67572e-06 220L400 220" stroke="#FDAFF0"/>
<path d="M6.67572e-06 240L400 240" stroke="#FDAFF0"/>
<path d="M6.67572e-06 260H400" stroke="#FDAFF0"/>
<path d="M6.67572e-06 280H400" stroke="#FDAFF0"/>
</g>
<g style="mix-blend-mode:multiply" opacity="0.25">
<path d="M420 300V0" stroke="#FDAFF0"/>
<path d="M440 300V0" stroke="#FDAFF0"/>
<path d="M460 300V0" stroke="#FDAFF0"/>
<path d="M480 300V0" stroke="#FDAFF0"/>
<path d="M500 300V0" stroke="#FDAFF0"/>
<path d="M520 300V0" stroke="#FDAFF0"/>
<path d="M540 300V0" stroke="#FDAFF0"/>
<path d="M560 300V0" stroke="#FDAFF0"/>
<path d="M580 300V0" stroke="#FDAFF0"/>
<path d="M600 300V0" stroke="#FDAFF0"/>
<path d="M620 300V0" stroke="#FDAFF0"/>
<path d="M640 300V0" stroke="#FDAFF0"/>
<path d="M660 300V0" stroke="#FDAFF0"/>
<path d="M680 300V0" stroke="#FDAFF0"/>
<path d="M700 300V0" stroke="#FDAFF0"/>
<path d="M720 300V0" stroke="#FDAFF0"/>
<path d="M740 300V0" stroke="#FDAFF0"/>
<path d="M760 300V0" stroke="#FDAFF0"/>
<path d="M780 300V0" stroke="#FDAFF0"/>
<path d="M400 20L800 20" stroke="#FDAFF0"/>
<path d="M400 40L800 40" stroke="#FDAFF0"/>
<path d="M400 60L800 60" stroke="#FDAFF0"/>
<path d="M400 80L800 80" stroke="#FDAFF0"/>
<path d="M400 100L800 100" stroke="#FDAFF0"/>
<path d="M400 120L800 120" stroke="#FDAFF0"/>
<path d="M400 140L800 140" stroke="#FDAFF0"/>
<path d="M400 160L800 160" stroke="#FDAFF0"/>
<path d="M400 180L800 180" stroke="#FDAFF0"/>
<path d="M400 200L800 200" stroke="#FDAFF0"/>
<path d="M400 220L800 220" stroke="#FDAFF0"/>
<path d="M400 240L800 240" stroke="#FDAFF0"/>
<path d="M400 260H800" stroke="#FDAFF0"/>
<path d="M400 280H800" stroke="#FDAFF0"/>
</g>
<g style="mix-blend-mode:multiply" opacity="0.25">
<path d="M20 580V280" stroke="#FDAFF0"/>
<path d="M40 580V280" stroke="#FDAFF0"/>
<path d="M60 580V280" stroke="#FDAFF0"/>
<path d="M80 580V280" stroke="#FDAFF0"/>
<path d="M100 580V280" stroke="#FDAFF0"/>
<path d="M120 580V280" stroke="#FDAFF0"/>
<path d="M140 580V280" stroke="#FDAFF0"/>
<path d="M160 580V280" stroke="#FDAFF0"/>
<path d="M180 580V280" stroke="#FDAFF0"/>
<path d="M200 580V280" stroke="#FDAFF0"/>
<path d="M220 580V280" stroke="#FDAFF0"/>
<path d="M240 580V280" stroke="#FDAFF0"/>
<path d="M260 580V280" stroke="#FDAFF0"/>
<path d="M280 580V280" stroke="#FDAFF0"/>
<path d="M300 580V280" stroke="#FDAFF0"/>
<path d="M320 580V280" stroke="#FDAFF0"/>
<path d="M340 580V280" stroke="#FDAFF0"/>
<path d="M360 580V280" stroke="#FDAFF0"/>
<path d="M380 580V280" stroke="#FDAFF0"/>
<path d="M6.67572e-06 300H400" stroke="#FDAFF0"/>
<path d="M6.67572e-06 320H400" stroke="#FDAFF0"/>
<path d="M6.67572e-06 340H400" stroke="#FDAFF0"/>
<path d="M6.67572e-06 360H400" stroke="#FDAFF0"/>
<path d="M6.67572e-06 380H400" stroke="#FDAFF0"/>
<path d="M6.67572e-06 400H400" stroke="#FDAFF0"/>
<path d="M6.67572e-06 420H400" stroke="#FDAFF0"/>
<path d="M6.67572e-06 440H400" stroke="#FDAFF0"/>
<path d="M6.67572e-06 460H400" stroke="#FDAFF0"/>
<path d="M6.67572e-06 480H400" stroke="#FDAFF0"/>
<path d="M6.67572e-06 500H400" stroke="#FDAFF0"/>
<path d="M6.67572e-06 520H400" stroke="#FDAFF0"/>
<path d="M6.67572e-06 540H400" stroke="#FDAFF0"/>
<path d="M6.67572e-06 560H400" stroke="#FDAFF0"/>
</g>
<g style="mix-blend-mode:multiply" opacity="0.25">
<path d="M420 580V280" stroke="#FDAFF0"/>
<path d="M440 580V280" stroke="#FDAFF0"/>
<path d="M460 580V280" stroke="#FDAFF0"/>
<path d="M480 580V280" stroke="#FDAFF0"/>
<path d="M500 580V280" stroke="#FDAFF0"/>
<path d="M520 580V280" stroke="#FDAFF0"/>
<path d="M540 580V280" stroke="#FDAFF0"/>
<path d="M560 580V280" stroke="#FDAFF0"/>
<path d="M580 580V280" stroke="#FDAFF0"/>
<path d="M600 580V280" stroke="#FDAFF0"/>
<path d="M620 580V280" stroke="#FDAFF0"/>
<path d="M640 580V280" stroke="#FDAFF0"/>
<path d="M660 580V280" stroke="#FDAFF0"/>
<path d="M680 580V280" stroke="#FDAFF0"/>
<path d="M700 580V280" stroke="#FDAFF0"/>
<path d="M720 580V280" stroke="#FDAFF0"/>
<path d="M740 580V280" stroke="#FDAFF0"/>
<path d="M760 580V280" stroke="#FDAFF0"/>
<path d="M780 580V280" stroke="#FDAFF0"/>
<path d="M400 300H800" stroke="#FDAFF0"/>
<path d="M400 320H800" stroke="#FDAFF0"/>
<path d="M400 340H800" stroke="#FDAFF0"/>
<path d="M400 360H800" stroke="#FDAFF0"/>
<path d="M400 380H800" stroke="#FDAFF0"/>
<path d="M400 400H800" stroke="#FDAFF0"/>
<path d="M400 420H800" stroke="#FDAFF0"/>
<path d="M400 440H800" stroke="#FDAFF0"/>
<path d="M400 460H800" stroke="#FDAFF0"/>
<path d="M400 480H800" stroke="#FDAFF0"/>
<path d="M400 500H800" stroke="#FDAFF0"/>
<path d="M400 520H800" stroke="#FDAFF0"/>
<path d="M400 540H800" stroke="#FDAFF0"/>
<path d="M400 560H800" stroke="#FDAFF0"/>
</g>
</svg>
