<svg width="257" height="106" viewBox="0 0 257 106" fill="none" xmlns="http://www.w3.org/2000/svg">
<rect x="66" width="191" height="48.5037" rx="10" fill="#8251FB" fill-opacity="0.3"/>
<path d="M103 23.1409C103 29.8079 97.333 33.141 94 34.252C90.667 33.141 85 29.8079 85 23.1409C85 21.9539 85 18.389 85 17.252C90 16.252 91.7781 15.363 94.0181 14.252C96.2231 15.363 98 16.252 103 17.252C103 18.446 103 21.9159 103 23.1409Z" fill="#F8F5FF"/>
<path d="M115.889 29.752V17.5524H118.903L122.148 27.8369L125.375 17.5524H128.407V29.752H126.616V22.0031C126.616 20.886 126.652 19.7335 126.67 19.1838L126.652 19.166L123.194 29.752H121.084L117.644 19.166L117.626 19.1838C117.644 19.7335 117.68 20.886 117.68 22.0031V29.752H115.889ZM131.352 29.752V17.5524H139.154V19.1306H133.161V22.606H138.782V24.1487H133.161V28.1738H139.385V29.752H131.352ZM144.814 29.752L140.381 17.5524H142.367L145.877 27.5709L149.371 17.5524H151.339L146.906 29.752H144.814ZM156.385 33.0323V20.9924H158.123V22.3578C158.602 21.5776 159.524 20.7796 161.066 20.7796C163.371 20.7796 165.038 22.606 165.038 25.3722C165.038 28.1384 163.371 29.9647 161.066 29.9647C159.488 29.9647 158.584 29.1313 158.141 28.4221V33.0323H156.385ZM160.659 28.5639C162.379 28.5639 163.212 27.1276 163.212 25.3722C163.212 23.6167 162.379 22.1805 160.659 22.1805C158.939 22.1805 158.07 23.6522 158.07 25.3722C158.07 27.0922 158.939 28.5639 160.659 28.5639ZM166.896 29.752V20.9924H168.581V22.606C168.935 21.684 169.893 20.7796 171.258 20.7796C171.471 20.7796 171.631 20.7974 171.755 20.8151V22.4996C171.613 22.4819 171.435 22.4642 171.152 22.4642C169.68 22.4642 168.634 23.404 168.634 25.1239V29.752H166.896ZM176.699 29.9647C173.933 29.9647 172.372 27.8901 172.372 25.3722C172.372 22.872 173.933 20.7796 176.699 20.7796C179.483 20.7796 181.061 22.872 181.061 25.3722C181.061 27.8901 179.483 29.9647 176.699 29.9647ZM176.717 28.5639C178.419 28.5639 179.217 27.1276 179.217 25.3722C179.217 23.6345 178.419 22.1805 176.717 22.1805C174.997 22.1805 174.199 23.6167 174.199 25.3722C174.199 27.1454 174.997 28.5639 176.717 28.5639ZM185.648 29.8406C184.531 29.8406 183.786 29.3973 183.52 28.5107C183.413 28.2447 183.378 27.961 183.378 27.5887V22.4287H181.835V20.9924H183.378V18.2263H185.133V20.9924H186.942V22.4287H185.133V27.3404C185.133 28.1029 185.488 28.3689 186.18 28.3689C186.534 28.3689 186.729 28.3511 187.013 28.2979V29.7165C186.57 29.7874 186.18 29.8406 185.648 29.8406ZM192.281 29.9647C189.941 29.9647 188.079 28.3866 188.079 25.3899C188.079 22.4996 189.976 20.7796 192.334 20.7796C194.675 20.7796 196.36 22.5528 196.36 25.2303V25.78H189.852C189.941 27.766 191.022 28.5994 192.299 28.5994C193.505 28.5994 194.249 27.9965 194.533 26.8617L196.306 27.0922C195.863 28.5639 194.71 29.9647 192.281 29.9647ZM189.87 24.4324H194.515C194.462 23.1912 193.593 22.1273 192.334 22.1273C191.04 22.1273 190.047 23.0493 189.87 24.4324ZM201.998 29.9647C199.427 29.9647 197.689 28.1029 197.689 25.3545C197.689 22.6592 199.427 20.7796 202.015 20.7796C204.285 20.7796 205.544 22.1095 206.005 23.7586L204.232 24.1842C204.001 23.0848 203.328 22.1805 202.015 22.1805C200.615 22.1805 199.533 23.2976 199.533 25.3545C199.533 27.4468 200.579 28.5639 202.051 28.5639C203.274 28.5639 204.037 27.8014 204.321 26.5602L206.076 26.9858C205.544 28.6348 204.321 29.9647 201.998 29.9647ZM210.531 29.8406C209.414 29.8406 208.669 29.3973 208.403 28.5107C208.297 28.2447 208.261 27.961 208.261 27.5887V22.4287H206.719V20.9924H208.261V18.2263H210.017V20.9924H211.826V22.4287H210.017V27.3404C210.017 28.1029 210.372 28.3689 211.063 28.3689C211.418 28.3689 211.613 28.3511 211.896 28.2979V29.7165C211.453 29.7874 211.063 29.8406 210.531 29.8406ZM213.633 29.752V20.9924H215.388V29.752H213.633ZM213.633 19.6271V17.5524H215.388V19.6271H213.633ZM221.583 29.9647C218.817 29.9647 217.256 27.8901 217.256 25.3722C217.256 22.872 218.817 20.7796 221.583 20.7796C224.367 20.7796 225.945 22.872 225.945 25.3722C225.945 27.8901 224.367 29.9647 221.583 29.9647ZM221.601 28.5639C223.303 28.5639 224.101 27.1276 224.101 25.3722C224.101 23.6345 223.303 22.1805 221.601 22.1805C219.881 22.1805 219.083 23.6167 219.083 25.3722C219.083 27.1454 219.881 28.5639 221.601 28.5639ZM227.797 29.752V20.9924H229.535V22.2337H229.553C230.049 21.4712 231.025 20.7796 232.354 20.7796C234.305 20.7796 235.458 21.9499 235.458 24.0778V29.752H233.702V24.8402C233.702 23.2621 233.347 22.2514 231.876 22.2514C230.404 22.2514 229.553 23.4394 229.553 24.858V29.752H227.797Z" fill="#F8F5FF"/>
<rect y="57" width="150" height="48.5037" rx="10" fill="#8251FB"/>
<path d="M28 71.252C22.48 71.252 18 75.732 18 81.252C18 86.772 22.48 91.252 28 91.252C33.52 91.252 38 86.772 38 81.252C38 75.732 33.52 71.252 28 71.252ZM32.03 79.452L27.36 84.1119C27.22 84.2619 27.03 84.332 26.83 84.332C26.64 84.332 26.45 84.2619 26.3 84.1119L23.97 81.782C23.68 81.492 23.68 81.0119 23.97 80.7219C24.26 80.4319 24.74 80.4319 25.03 80.7219L26.83 82.522L30.97 78.392C31.26 78.092 31.74 78.092 32.03 78.392C32.32 78.682 32.32 79.152 32.03 79.452Z" fill="white"/>
<path d="M49.5361 86.752V74.5524H54.4833C56.7352 74.5524 58.2779 75.5454 58.2779 77.6378C58.2779 78.9677 57.5154 79.9784 56.5757 80.333V80.3508C57.5332 80.599 58.6326 81.4147 58.6326 83.2588C58.6326 85.1384 57.48 86.752 54.6961 86.752H49.5361ZM54.6252 85.2093C56.221 85.2093 56.8416 84.305 56.8416 83.1701C56.8416 81.9644 56.1678 81.1664 54.5188 81.1664H51.3625V85.2093H54.6252ZM54.3769 79.7124C55.76 79.7124 56.487 79.0741 56.487 77.8151C56.487 76.6271 55.6713 76.0951 54.4656 76.0951H51.3625V79.7124H54.3769ZM64.3347 86.9647C61.9941 86.9647 60.1323 85.3866 60.1323 82.3899C60.1323 79.4996 62.0296 77.7796 64.3879 77.7796C66.7285 77.7796 68.4131 79.5528 68.4131 82.2303V82.78H61.9055C61.9941 84.766 63.0758 85.5994 64.3525 85.5994C65.5582 85.5994 66.303 84.9965 66.5867 83.8617L68.3599 84.0922C67.9166 85.5639 66.764 86.9647 64.3347 86.9647ZM61.9232 81.4324H66.5689C66.5157 80.1912 65.6469 79.1273 64.3879 79.1273C63.0935 79.1273 62.1005 80.0493 61.9232 81.4324ZM73.537 86.9647C71.356 86.9647 69.7601 85.954 69.5651 83.8617L71.3028 83.6489C71.3914 85.032 72.3667 85.6703 73.5725 85.6703C74.7605 85.6703 75.5584 85.1384 75.5584 84.2872C75.5584 83.4361 74.7428 83.2588 73.6434 83.0105L72.349 82.7091C70.9304 82.3722 69.9552 81.6984 69.9552 80.3508C69.9552 78.8613 71.4269 77.7796 73.5015 77.7796C75.5052 77.7796 76.8706 78.7904 77.1011 80.4217L75.3456 80.6699C75.2215 79.6238 74.4591 79.0741 73.4306 79.0741C72.3844 79.0741 71.7106 79.5883 71.7106 80.2621C71.7106 80.9004 72.1007 81.131 73.2001 81.3792L74.4945 81.6806C76.3386 82.1062 77.3139 82.7091 77.3139 84.1099C77.3139 85.8654 75.6826 86.9647 73.537 86.9647ZM81.8574 86.8406C80.7403 86.8406 79.9955 86.3973 79.7296 85.5107C79.6232 85.2447 79.5877 84.961 79.5877 84.5887V79.4287H78.045V77.9924H79.5877V75.2263H81.3432V77.9924H83.1518V79.4287H81.3432V84.3404C81.3432 85.1029 81.6978 85.3689 82.3893 85.3689C82.744 85.3689 82.939 85.3511 83.2227 85.2979V86.7165C82.7794 86.7874 82.3893 86.8406 81.8574 86.8406ZM92.1866 86.9647C90.0056 86.9647 88.4097 85.954 88.2147 83.8617L89.9524 83.6489C90.0411 85.032 91.0163 85.6703 92.2221 85.6703C93.4101 85.6703 94.208 85.1384 94.208 84.2872C94.208 83.4361 93.3924 83.2588 92.293 83.0105L90.9986 82.7091C89.58 82.3722 88.6048 81.6984 88.6048 80.3508C88.6048 78.8613 90.0765 77.7796 92.1511 77.7796C94.1548 77.7796 95.5202 78.7904 95.7507 80.4217L93.9953 80.6699C93.8711 79.6238 93.1087 79.0741 92.0802 79.0741C91.034 79.0741 90.3602 79.5883 90.3602 80.2621C90.3602 80.9004 90.7503 81.131 91.8497 81.3792L93.1441 81.6806C94.9882 82.1062 95.9635 82.7091 95.9635 84.1099C95.9635 85.8654 94.3322 86.9647 92.1866 86.9647ZM99.4443 86.752L96.6604 77.9924H98.5223L100.437 84.6064H100.455L102.441 77.9924H104.196L106.2 84.5887H106.218L108.133 77.9924H109.959L107.175 86.752H105.331L103.345 79.9961H103.328L101.306 86.752H99.4443ZM113.902 86.9647C112.324 86.9647 110.906 86.0072 110.906 84.3759C110.906 82.78 112.023 82.053 113.92 81.6806L115.126 81.4324C116.066 81.2373 116.509 81.0423 116.509 80.3153C116.509 79.5883 115.906 79.0741 114.842 79.0741C113.69 79.0741 112.945 79.7833 112.874 80.9536L111.065 80.7941C111.189 78.9145 112.697 77.7796 114.86 77.7796C117.094 77.7796 118.282 78.8613 118.282 80.7054V86.752H116.598V85.7235H116.58C116.172 86.3973 115.268 86.9647 113.902 86.9647ZM114.363 85.7058C115.605 85.7058 116.58 84.8901 116.58 83.4361V82.3722C114.736 82.6736 113.867 82.9219 113.335 83.2588C112.927 83.507 112.697 83.8617 112.697 84.3404C112.697 85.1561 113.37 85.7058 114.363 85.7058ZM120.63 90.0323V77.9924H122.368V79.3578C122.847 78.5776 123.769 77.7796 125.312 77.7796C127.617 77.7796 129.284 79.606 129.284 82.3722C129.284 85.1384 127.617 86.9647 125.312 86.9647C123.734 86.9647 122.829 86.1313 122.386 85.4221V90.0323H120.63ZM124.904 85.5639C126.624 85.5639 127.457 84.1276 127.457 82.3722C127.457 80.6167 126.624 79.1805 124.904 79.1805C123.184 79.1805 122.315 80.6522 122.315 82.3722C122.315 84.0922 123.184 85.5639 124.904 85.5639Z" fill="#F8F5FF"/>
<rect x="158" y="57" width="99" height="48.5037" rx="10" fill="#8251FB" fill-opacity="0.6"/>
<path fill-rule="evenodd" clip-rule="evenodd" d="M187.308 71.0302C187.706 70.6479 188.339 70.6612 188.722 71.0598L192.969 75.4883C193.243 75.7267 193.473 76.014 193.646 76.3366C193.848 76.6837 194 77.1001 194 77.5789V85.9531C194 87.5004 192.746 88.752 191.2 88.752C189.654 88.752 188.4 87.4984 188.4 85.952V83.6519C188.4 83.0996 187.952 82.6519 187.4 82.6519H186V89.7519C186 89.821 185.997 89.8892 185.99 89.9564C185.952 90.332 185.809 90.6768 185.593 90.9618C185.227 91.442 184.65 91.752 184 91.752H176C175.31 91.752 174.701 91.4022 174.342 90.8702C174.126 90.551 174 90.1662 174 89.752V74.7519C174 73.095 175.343 71.7519 177 71.7519H183C184.657 71.7519 186 73.095 186 74.7519V80.6519H187.4C189.057 80.6519 190.4 81.995 190.4 83.6519V85.952C190.4 86.3938 190.758 86.752 191.2 86.752C191.643 86.752 192 86.3941 192 85.9531V80.5812C191.687 80.6917 191.351 80.7519 191 80.7519C189.343 80.7519 188 79.4087 188 77.7519C188 76.5405 188.718 75.4968 189.752 75.0231L187.278 72.4441C186.896 72.0455 186.909 71.4125 187.308 71.0302ZM191.61 76.9593C191.441 76.8292 191.23 76.7519 191 76.7519C190.448 76.7519 190 77.1996 190 77.7519C190 78.3041 190.448 78.7519 191 78.7519C191.552 78.7519 192 78.3041 192 77.7519C192 77.5928 191.963 77.4424 191.897 77.3089C191.83 77.2036 191.735 77.0875 191.61 76.9593ZM177.216 73.9766C176.663 73.9766 176.216 74.4243 176.216 74.9766V78.9766C176.216 79.5289 176.663 79.9766 177.216 79.9766H182.716C183.268 79.9766 183.716 79.5289 183.716 78.9766V74.9766C183.716 74.4243 183.268 73.9766 182.716 73.9766H177.216Z" fill="#F8F5FF"/>
<path d="M203.56 86.752V74.5524H211.362V76.1306H205.369V79.6769H211.079V81.2551H205.369V86.752H203.56ZM212.836 86.752V77.9924H214.52V79.606C214.875 78.684 215.832 77.7796 217.198 77.7796C217.41 77.7796 217.57 77.7974 217.694 77.8151V79.4996C217.552 79.4819 217.375 79.4642 217.091 79.4642C215.619 79.4642 214.573 80.404 214.573 82.1239V86.752H212.836ZM222.532 86.9647C220.191 86.9647 218.33 85.3866 218.33 82.3899C218.33 79.4996 220.227 77.7796 222.585 77.7796C224.926 77.7796 226.61 79.5528 226.61 82.2303V82.78H220.103C220.191 84.766 221.273 85.5994 222.55 85.5994C223.756 85.5994 224.5 84.9965 224.784 83.8617L226.557 84.0922C226.114 85.5639 224.961 86.9647 222.532 86.9647ZM220.121 81.4324H224.766C224.713 80.1912 223.844 79.1273 222.585 79.1273C221.291 79.1273 220.298 80.0493 220.121 81.4324ZM232.16 86.9647C229.819 86.9647 227.957 85.3866 227.957 82.3899C227.957 79.4996 229.855 77.7796 232.213 77.7796C234.554 77.7796 236.238 79.5528 236.238 82.2303V82.78H229.731C229.819 84.766 230.901 85.5994 232.178 85.5994C233.383 85.5994 234.128 84.9965 234.412 83.8617L236.185 84.0922C235.742 85.5639 234.589 86.9647 232.16 86.9647ZM229.748 81.4324H234.394C234.341 80.1912 233.472 79.1273 232.213 79.1273C230.919 79.1273 229.926 80.0493 229.748 81.4324Z" fill="#F8F5FF"/>
</svg>
