<svg width="173" height="124" viewBox="0 0 173 124" fill="none" xmlns="http://www.w3.org/2000/svg">
<path d="M23.1467 9.26529C22.9731 8.57428 23.3095 7.85649 23.9517 7.54784C24.5939 7.23918 25.3645 7.42485 25.7957 7.99208C27.8992 10.7595 32.7299 15.164 38.8011 18.8787C44.8751 22.595 51.9691 25.4835 58.5901 25.4835C59.2945 25.4835 59.904 25.9736 60.0551 26.6615C60.4902 28.6412 60.5204 31.8924 59.1224 34.491C58.4006 35.8326 57.2809 37.025 55.6402 37.7139C54.0122 38.3976 52.0192 38.5238 49.6478 38.0124C46.6173 37.3589 43.574 35.6291 40.7329 33.4043C37.8768 31.1679 35.1364 28.3612 32.7081 25.4324C30.2777 22.501 28.1364 19.4188 26.485 16.6111C24.8489 13.8294 23.6394 11.226 23.1467 9.26529Z" fill="white" stroke="black" stroke-width="3" stroke-linejoin="round"/>
<mask id="path-2-outside-1_11760_192385" maskUnits="userSpaceOnUse" x="0" y="18.7747" width="136" height="105" fill="black">
<rect fill="white" y="18.7747" width="136" height="105"/>
<path fill-rule="evenodd" clip-rule="evenodd" d="M118.719 103.131C127.11 94.5065 132.187 83.2545 132.187 70.9463C132.187 43.7896 107.471 21.7747 76.9809 21.7747C46.4913 21.7747 21.7746 43.7896 21.7746 70.9463C21.7746 73.528 21.998 76.0633 22.4285 78.5376C10.9101 82.0197 3 89.2227 3 97.5436C3 109.27 18.7106 118.777 38.0907 118.777C44.271 118.777 50.0781 117.81 55.1216 116.113C61.825 118.69 69.2157 120.118 76.9809 120.118C93.6518 120.118 108.597 113.536 118.719 103.131Z"/>
</mask>
<path fill-rule="evenodd" clip-rule="evenodd" d="M118.719 103.131C127.11 94.5065 132.187 83.2545 132.187 70.9463C132.187 43.7896 107.471 21.7747 76.9809 21.7747C46.4913 21.7747 21.7746 43.7896 21.7746 70.9463C21.7746 73.528 21.998 76.0633 22.4285 78.5376C10.9101 82.0197 3 89.2227 3 97.5436C3 109.27 18.7106 118.777 38.0907 118.777C44.271 118.777 50.0781 117.81 55.1216 116.113C61.825 118.69 69.2157 120.118 76.9809 120.118C93.6518 120.118 108.597 113.536 118.719 103.131Z" fill="white"/>
<path d="M118.719 103.131L120.87 105.223L118.719 103.131ZM22.4285 78.5376L23.2966 81.4092L25.8394 80.6405L25.3841 78.0233L22.4285 78.5376ZM55.1216 116.113L56.1982 113.313L55.1892 112.925L54.1647 113.27L55.1216 116.113ZM129.187 70.9463C129.187 82.3984 124.469 92.9187 116.569 101.039L120.87 105.223C129.751 96.0944 135.187 84.1106 135.187 70.9463H129.187ZM76.9809 24.7747C106.15 24.7747 129.187 45.7635 129.187 70.9463H135.187C135.187 41.8156 108.791 18.7747 76.9809 18.7747V24.7747ZM24.7746 70.9463C24.7746 45.7635 47.8122 24.7747 76.9809 24.7747V18.7747C45.1704 18.7747 18.7746 41.8156 18.7746 70.9463H24.7746ZM25.3841 78.0233C24.9829 75.7177 24.7746 73.3545 24.7746 70.9463H18.7746C18.7746 73.7015 19.013 76.4088 19.4729 79.0518L25.3841 78.0233ZM6 97.5436C6 91.2832 12.157 84.7768 23.2966 81.4092L21.5603 75.6659C9.66316 79.2625 0 87.1622 0 97.5436H6ZM38.0907 115.777C28.8554 115.777 20.6391 113.506 14.8309 109.991C8.96688 106.443 6 101.952 6 97.5436H0C0 104.862 4.88843 110.988 11.7247 115.124C18.6169 119.295 27.9459 121.777 38.0907 121.777V115.777ZM54.1647 113.27C49.4472 114.857 43.9648 115.777 38.0907 115.777V121.777C44.5772 121.777 50.709 120.763 56.0785 118.956L54.1647 113.27ZM76.9809 117.118C69.5843 117.118 62.5585 115.758 56.1982 113.313L54.045 118.913C61.0914 121.622 68.8471 123.118 76.9809 123.118V117.118ZM116.569 101.039C107.028 110.847 92.866 117.118 76.9809 117.118V123.118C94.4375 123.118 110.166 116.226 120.87 105.223L116.569 101.039Z" fill="black" mask="url(#path-2-outside-1_11760_192385)"/>
<path d="M131.072 9.26924C131.247 8.57947 130.914 7.86147 130.273 7.55052C129.633 7.23957 128.863 7.42129 128.429 7.98551C126.301 10.7534 121.413 15.159 115.271 18.8747C109.126 22.5916 101.945 25.4835 95.2387 25.4835C94.5357 25.4835 93.927 25.9718 93.7745 26.658C93.3337 28.6405 93.3033 31.8959 94.7189 34.4973C95.4498 35.8405 96.5815 37.0299 98.2348 37.7163C99.8744 38.397 101.883 38.5235 104.277 38.0131C107.336 37.361 110.411 35.6339 113.284 33.4094C116.172 31.1737 118.943 28.3676 121.4 25.4388C123.858 22.5076 126.024 19.4255 127.694 16.6176C129.349 13.836 130.573 11.2317 131.072 9.26924Z" fill="white" stroke="black" stroke-width="3" stroke-linejoin="round"/>
<path d="M30.1354 91.9395L23.5336 92.2043C21.4244 92.2889 20.0824 89.9766 21.2022 88.1873C22.3887 86.2914 20.8669 84.1941 18.8349 85.1284C16.8845 86.0251 14.6247 87.3568 12.4495 89.3146C11.8138 89.8867 11.272 90.4551 10.8108 91.0135C7.38538 95.1608 11.874 99.6819 17.2525 99.6055C19.2768 99.5768 21.4876 99.4407 23.6944 99.1138C26.8907 98.6403 29.6282 97.2408 31.7236 95.783C33.6941 94.4121 32.5339 91.8433 30.1354 91.9395Z" fill="black"/>
<path d="M53.5749 111.052C57.3188 111.323 60.8263 110.927 63.4869 110.008C64.8145 109.55 66.0024 108.937 66.9013 108.149C67.8071 107.355 68.4956 106.309 68.5881 105.034C68.6806 103.759 68.1502 102.625 67.3684 101.708C66.5926 100.799 65.5055 100.021 64.258 99.3762C61.7578 98.0832 58.3442 97.1848 54.6003 96.9133C50.8563 96.6417 47.3489 97.0382 44.6883 97.9569C43.3607 98.4153 42.1727 99.0282 41.2738 99.8159C40.3681 100.61 39.6795 101.655 39.587 102.931C39.4945 104.206 40.025 105.34 40.8067 106.256C41.5826 107.166 42.6697 107.943 43.9172 108.589C46.4174 109.882 49.8309 110.78 53.5749 111.052Z" fill="white" stroke="black" stroke-width="3"/>
<line x1="41.046" y1="103.549" x2="67.0549" y2="105.436" stroke="black" stroke-width="3"/>
<line x1="58.3857" y1="96.7474" x2="57.448" y2="109.677" stroke="black" stroke-width="3"/>
<line x1="49.0205" y1="98.0127" x2="48.0828" y2="110.942" stroke="black" stroke-width="3"/>
<path d="M56.6245 2.22083C56.2585 1.61867 55.5226 1.3525 54.8561 1.58116C54.1895 1.80982 53.772 2.47163 53.8526 3.17169L56.3612 24.9442C56.7718 28.5075 60.0689 31.0104 63.6114 30.4479C68.0374 29.7452 70.3369 24.778 68.009 20.9486L56.6245 2.22083Z" fill="url(#paint0_linear_11760_192385)" stroke="black" stroke-width="3" stroke-linejoin="round"/>
<mask id="path-11-outside-2_11760_192385" maskUnits="userSpaceOnUse" x="123.683" y="69.6169" width="53.8667" height="58.1797" fill="black">
<rect fill="white" x="123.683" y="69.6169" width="53.8667" height="58.1797"/>
<path fill-rule="evenodd" clip-rule="evenodd" d="M131.882 115.029C130.699 114.918 129.774 114.525 129.174 113.822C126.146 110.28 132.533 100.228 143.44 91.37C154.347 82.5123 165.643 78.2034 168.671 81.7457C170.5 83.8859 168.893 88.4024 164.929 93.5961C166.972 93.8076 168.395 94.4661 168.939 95.5989C170.636 99.1351 163.123 105.955 152.159 110.83C143.864 114.519 135.969 116.039 131.882 115.029Z"/>
</mask>
<path fill-rule="evenodd" clip-rule="evenodd" d="M131.882 115.029C130.699 114.918 129.774 114.525 129.174 113.822C126.146 110.28 132.533 100.228 143.44 91.37C154.347 82.5123 165.643 78.2034 168.671 81.7457C170.5 83.8859 168.893 88.4024 164.929 93.5961C166.972 93.8076 168.395 94.4661 168.939 95.5989C170.636 99.1351 163.123 105.955 152.159 110.83C143.864 114.519 135.969 116.039 131.882 115.029Z" fill="url(#paint1_linear_11760_192385)"/>
<path d="M131.882 115.029L132.602 112.117C132.457 112.081 132.31 112.056 132.162 112.042L131.882 115.029ZM129.174 113.822L131.454 111.873L131.454 111.873L129.174 113.822ZM143.44 91.37L141.548 89.0413L143.44 91.37ZM168.671 81.7457L170.951 79.7964L170.951 79.7964L168.671 81.7457ZM164.929 93.5961L162.544 91.7758C161.885 92.6385 161.744 93.7896 162.175 94.7859C162.605 95.7822 163.54 96.4684 164.62 96.5801L164.929 93.5961ZM168.939 95.5989L166.234 96.897L166.234 96.897L168.939 95.5989ZM152.159 110.83L150.94 108.089L150.94 108.089L152.159 110.83ZM132.162 112.042C131.461 111.976 131.384 111.79 131.454 111.873L126.893 115.772C128.165 117.259 129.938 117.86 131.602 118.016L132.162 112.042ZM131.454 111.873C131.565 112.002 131.276 111.839 131.523 110.703C131.763 109.602 132.422 108.074 133.613 106.198C135.978 102.477 140.056 97.9824 145.331 93.6988L141.548 89.0413C135.916 93.6154 131.348 98.5758 128.549 102.981C127.159 105.168 126.107 107.371 125.66 109.428C125.221 111.449 125.269 113.871 126.893 115.772L131.454 111.873ZM145.331 93.6988C150.604 89.4164 155.882 86.312 160.079 84.7109C162.193 83.9047 163.876 83.5402 165.065 83.5084C166.308 83.4752 166.481 83.8004 166.391 83.695L170.951 79.7964C169.347 77.9199 166.973 77.4553 164.905 77.5105C162.783 77.5672 160.393 78.1694 157.941 79.1049C153.006 80.987 147.182 84.466 141.548 89.0413L145.331 93.6988ZM166.391 83.695C166.261 83.5432 166.689 83.856 166.121 85.5938C165.597 87.1955 164.42 89.3185 162.544 91.7758L167.313 95.4163C169.402 92.68 171.01 89.9479 171.824 87.4579C172.593 85.1039 172.911 82.0884 170.951 79.7964L166.391 83.695ZM164.62 96.5801C165.423 96.6632 165.915 96.8183 166.176 96.9461C166.417 97.0639 166.325 97.0869 166.234 96.897L171.643 94.3007C170.381 91.6704 167.501 90.8463 165.237 90.612L164.62 96.5801ZM166.234 96.897C166.071 96.5574 166.348 96.5729 165.919 97.3901C165.509 98.1712 164.664 99.235 163.281 100.491C160.54 102.978 156.215 105.743 150.94 108.089L153.378 113.572C159.067 111.042 163.98 107.959 167.313 104.934C168.966 103.433 170.367 101.824 171.231 100.18C172.075 98.5715 172.655 96.4084 171.643 94.3007L166.234 96.897ZM150.94 108.089C146.965 109.857 143.126 111.086 139.846 111.752C136.481 112.435 134.004 112.463 132.602 112.117L131.163 117.941C133.848 118.605 137.362 118.378 141.039 117.632C144.802 116.868 149.058 115.493 153.378 113.572L150.94 108.089Z" fill="black" mask="url(#path-11-outside-2_11760_192385)"/>
<ellipse cx="34.8276" cy="64.9478" rx="8.25971" ry="12.3896" fill="black"/>
<ellipse cx="35.0246" cy="64.9479" rx="3.73654" ry="6.48977" fill="white"/>
<ellipse cx="67.08" cy="64.9478" rx="8.25971" ry="12.3896" fill="black"/>
<ellipse cx="67.2766" cy="64.9479" rx="3.73654" ry="6.48977" fill="white"/>
<path d="M83.2061 107.23C83.2061 99.5559 85.8974 90.2391 92.3918 85.5513C98.044 81.4714 105.168 81.0792 111.918 82.2161" stroke="black" stroke-width="3"/>
<defs>
<linearGradient id="paint0_linear_11760_192385" x1="66.3809" y1="-17.98" x2="45.2274" y2="22.1892" gradientUnits="userSpaceOnUse">
<stop stop-color="#FC72FF"/>
<stop offset="1" stop-color="white"/>
</linearGradient>
<linearGradient id="paint1_linear_11760_192385" x1="154.648" y1="77.5435" x2="145.993" y2="118.7" gradientUnits="userSpaceOnUse">
<stop stop-color="#FC72FF"/>
<stop offset="1" stop-color="white"/>
</linearGradient>
</defs>
</svg>
